<?xml version="1.0" encoding="utf-8"?>
<!-- Generator: Adobe Illustrator 21.0.2, SVG Export Plug-In . SVG Version: 6.00 Build 0)  -->
<svg version="1.1" id="レイヤー_1" xmlns="http://www.w3.org/2000/svg" xmlns:xlink="http://www.w3.org/1999/xlink" x="0px"
	 y="0px" viewBox="0 0 226.8 226.8" style="enable-background:new 0 0 226.8 226.8;" xml:space="preserve">
<style type="text/css">
	.st0{fill:#521233;}
	.st1{fill:#E4007F;}
	.st2{fill:none;}
	.st3{fill:#FFFFFF;}
</style>
<rect x="0" y="0" transform="matrix(-1 -1.224647e-16 1.224647e-16 -1 226.77 226.77)" class="st1" width="226.8" height="226.8"/>
<g>
	<rect x="0" y="0" transform="matrix(-1 -1.224647e-16 1.224647e-16 -1 226.77 226.77)" class="st2" width="226.8" height="226.8"/>
	
		<rect x="22.7" y="0" transform="matrix(-1 -1.224647e-16 1.224647e-16 -1 68.0299 226.77)" class="st3" width="22.7" height="226.8"/>
	
		<rect x="204.1" y="0" transform="matrix(-1 -1.224647e-16 1.224647e-16 -1 430.8645 226.77)" class="st3" width="22.7" height="226.8"/>
	
		<rect x="68" y="0" transform="matrix(-1 -1.224647e-16 1.224647e-16 -1 158.7385 226.77)" class="st3" width="22.7" height="226.8"/>
	
		<rect x="113.4" y="0" transform="matrix(-1 -1.224647e-16 1.224647e-16 -1 249.4472 226.77)" class="st3" width="22.7" height="226.8"/>
	
		<rect x="158.7" y="0" transform="matrix(-1 -1.224647e-16 1.224647e-16 -1 340.1558 226.77)" class="st3" width="22.7" height="226.8"/>
</g>
</svg>
