<?xml version="1.0" encoding="utf-8"?>
<!-- Generator: Adobe Illustrator 21.0.2, SVG Export Plug-In . SVG Version: 6.00 Build 0)  -->
<svg version="1.1" id="レイヤー_1" xmlns="http://www.w3.org/2000/svg" xmlns:xlink="http://www.w3.org/1999/xlink" x="0px"
	 y="0px" viewBox="0 0 226.8 226.8" style="enable-background:new 0 0 226.8 226.8;" xml:space="preserve">
<style type="text/css">
	.st0{fill:#521233;}
	.st1{fill:#E4007F;}
	.st2{fill:none;}
	.st3{fill:#FFFFFF;}
</style>
<rect x="0" y="0" transform="matrix(-1.836970e-16 1 -1 -1.836970e-16 226.77 -1.307211e-05)" class="st1" width="226.8" height="226.8"/>
<g>
	
		<rect x="0" y="0" transform="matrix(-1.836970e-16 1 -1 -1.836970e-16 226.77 -1.307211e-05)" class="st2" width="226.8" height="226.8"/>
	
		<rect x="102" y="79.4" transform="matrix(-1.836970e-16 1 -1 -1.836970e-16 306.14 79.3701)" class="st0" width="22.7" height="226.8"/>
	
		<rect x="102" y="-102" transform="matrix(-1.836970e-16 1 -1 -1.836970e-16 124.7228 -102.0472)" class="st0" width="22.7" height="226.8"/>
	
		<rect x="102" y="34" transform="matrix(-1.836970e-16 1 -1 -1.836970e-16 260.7857 34.0157)" class="st0" width="22.7" height="226.8"/>
	
		<rect x="102" y="-11.3" transform="matrix(-1.836970e-16 1 -1 -1.836970e-16 215.4314 -11.3386)" class="st0" width="22.7" height="226.8"/>
	
		<rect x="102" y="-56.7" transform="matrix(-1.836970e-16 1 -1 -1.836970e-16 170.0771 -56.6929)" class="st0" width="22.7" height="226.8"/>
</g>
<g>
	
		<rect x="0" y="0" transform="matrix(6.123234e-17 -1 1 6.123234e-17 1.307211e-05 226.77)" class="st2" width="226.8" height="226.8"/>
	<polygon class="st3" points="0,22.7 22.7,0 45.4,0 0,45.4 	"/>
	<polygon class="st3" points="0,68 68,0 90.7,0 0,90.7 	"/>
	<polygon class="st3" points="0,113.4 113.4,0 136.1,0 0,136.1 	"/>
	<polygon class="st3" points="0,181.4 0,158.7 158.7,0 181.4,0 	"/>
	<polygon class="st3" points="0,204.1 204.1,0 226.8,0 0,226.8 	"/>
	<polygon class="st3" points="226.8,22.7 22.7,226.8 45.4,226.8 226.8,45.4 	"/>
	<polygon class="st3" points="226.8,68 68,226.8 90.7,226.8 226.8,90.7 	"/>
	<polygon class="st3" points="226.8,113.4 113.4,226.8 136.1,226.8 226.8,136.1 	"/>
	<polygon class="st3" points="226.8,158.7 158.7,226.8 181.4,226.8 226.8,181.4 	"/>
	<polygon class="st3" points="226.8,204.1 204.1,226.8 226.8,226.8 	"/>
</g>
</svg>
