<?xml version="1.0" encoding="utf-8"?>
<!-- Generator: Adobe Illustrator 21.0.2, SVG Export Plug-In . SVG Version: 6.00 Build 0)  -->
<svg version="1.1" id="レイヤー_1" xmlns="http://www.w3.org/2000/svg" xmlns:xlink="http://www.w3.org/1999/xlink" x="0px"
	 y="0px" viewBox="0 0 226.8 226.8" style="enable-background:new 0 0 226.8 226.8;" xml:space="preserve">
<style type="text/css">
	.st0{fill:#521233;}
	.st1{fill:#E4007F;}
	.st2{fill:none;}
	.st3{fill:#FFFFFF;}
</style>
<rect x="0" y="0" transform="matrix(6.123234e-17 -1 1 6.123234e-17 1.699373e-04 226.7701)" class="st1" width="226.8" height="226.8"/>
<g>
	
		<rect x="0" y="0" transform="matrix(6.123234e-17 -1 1 6.123234e-17 1.699373e-04 226.7701)" class="st2" width="226.8" height="226.8"/>
	
		<rect x="102" y="-79.4" transform="matrix(6.123234e-17 -1 1 6.123234e-17 79.3702 147.4001)" class="st0" width="22.7" height="226.8"/>
	
		<rect x="102" y="102" transform="matrix(6.123234e-17 -1 1 6.123234e-17 -102.0471 328.8174)" class="st0" width="22.7" height="226.8"/>
	
		<rect x="102" y="-34" transform="matrix(6.123234e-17 -1 1 6.123234e-17 34.0159 192.7544)" class="st0" width="22.7" height="226.8"/>
	
		<rect x="102" y="11.3" transform="matrix(6.123234e-17 -1 1 6.123234e-17 -11.3384 238.1087)" class="st0" width="22.7" height="226.8"/>
	
		<rect x="102" y="56.7" transform="matrix(6.123234e-17 -1 1 6.123234e-17 -56.6927 283.463)" class="st0" width="22.7" height="226.8"/>
</g>
</svg>
