<?xml version="1.0" encoding="utf-8"?>
<!-- Generator: Adobe Illustrator 21.0.2, SVG Export Plug-In . SVG Version: 6.00 Build 0)  -->
<svg version="1.1" id="レイヤー_1" xmlns="http://www.w3.org/2000/svg" xmlns:xlink="http://www.w3.org/1999/xlink" x="0px"
	 y="0px" viewBox="0 0 226.8 226.8" style="enable-background:new 0 0 226.8 226.8;" xml:space="preserve">
<style type="text/css">
	.st0{fill:#521233;}
	.st1{fill:#E4007F;}
	.st2{fill:none;}
	.st3{fill:#FFFFFF;}
</style>
<rect x="0" y="0" transform="matrix(-1.836970e-16 1 -1 -1.836970e-16 226.7708 8.267564e-04)" class="st1" width="226.8" height="226.8"/>
<g>
	
		<rect x="0" y="0" transform="matrix(-1.836970e-16 1 -1 -1.836970e-16 226.7708 8.398285e-04)" class="st2" width="226.8" height="226.8"/>
	
		<rect x="102" y="79.4" transform="matrix(-1.836970e-16 1 -1 -1.836970e-16 306.1409 79.3709)" class="st3" width="22.7" height="226.8"/>
	
		<rect x="102" y="-102" transform="matrix(-1.836970e-16 1 -1 -1.836970e-16 124.7236 -102.0464)" class="st3" width="22.7" height="226.8"/>
	
		<rect x="102" y="34" transform="matrix(-1.836970e-16 1 -1 -1.836970e-16 260.7866 34.0166)" class="st3" width="22.7" height="226.8"/>
	
		<rect x="102" y="-11.3" transform="matrix(-1.836970e-16 1 -1 -1.836970e-16 215.4322 -11.3377)" class="st3" width="22.7" height="226.8"/>
	
		<rect x="102" y="-56.7" transform="matrix(-1.836970e-16 1 -1 -1.836970e-16 170.0779 -56.6921)" class="st3" width="22.7" height="226.8"/>
</g>
</svg>
