<?xml version="1.0" encoding="utf-8"?>
<!-- Generator: Adobe Illustrator 21.0.2, SVG Export Plug-In . SVG Version: 6.00 Build 0)  -->
<svg version="1.1" id="レイヤー_1" xmlns="http://www.w3.org/2000/svg" xmlns:xlink="http://www.w3.org/1999/xlink" x="0px"
	 y="0px" viewBox="0 0 226.8 226.8" style="enable-background:new 0 0 226.8 226.8;" xml:space="preserve">
<style type="text/css">
	.st0{fill:#521233;}
	.st1{fill:#E4007F;}
	.st2{fill:none;}
	.st3{fill:#FFFFFF;}
</style>
<rect x="0" y="0" class="st1" width="226.8" height="226.8"/>
<g>
	<rect x="0" y="0" transform="matrix(-1 -1.224647e-16 1.224647e-16 -1 226.77 226.77)" class="st2" width="226.8" height="226.8"/>
	<polygon class="st0" points="22.7,226.8 0,204.1 0,181.4 45.4,226.8 	"/>
	<polygon class="st0" points="68,226.8 0,158.7 0,136.1 90.7,226.8 	"/>
	<polygon class="st0" points="113.4,226.8 0,113.4 0,90.7 136.1,226.8 	"/>
	<polygon class="st0" points="181.4,226.8 158.7,226.8 0,68 0,45.4 	"/>
	<polygon class="st0" points="204.1,226.8 0,22.7 0,0 226.8,226.8 	"/>
	<polygon class="st0" points="22.7,0 226.8,204.1 226.8,181.4 45.4,0 	"/>
	<polygon class="st0" points="68,0 226.8,158.7 226.8,136.1 90.7,0 	"/>
	<polygon class="st0" points="113.4,0 226.8,113.4 226.8,90.7 136.1,0 	"/>
	<polygon class="st0" points="158.7,0 226.8,68 226.8,45.4 181.4,0 	"/>
	<polygon class="st0" points="204.1,0 226.8,22.7 226.8,0 	"/>
</g>
</svg>
