<?xml version="1.0" encoding="iso-8859-1"?>
<!-- Generator: Adobe Illustrator 19.0.0, SVG Export Plug-In . SVG Version: 6.00 Build 0)  -->
<svg xmlns="http://www.w3.org/2000/svg" xmlns:xlink="http://www.w3.org/1999/xlink" version="1.1" id="Layer_1" x="0px" y="0px" viewBox="0 0 512 512" style="enable-background:new 0 0 512 512;" xml:space="preserve" width="512px" height="512px">
<g>
	<g>
		<path d="M490.667,0H21.333C9.536,0,0,9.557,0,21.333v469.333C0,502.443,9.536,512,21.333,512h469.333    c11.797,0,21.333-9.557,21.333-21.333V21.333C512,9.557,502.464,0,490.667,0z M149.333,426.667    c-23.573,0-42.667-19.093-42.667-42.667c0-23.573,19.093-42.667,42.667-42.667C172.907,341.333,192,360.427,192,384    C192,407.573,172.907,426.667,149.333,426.667z M149.333,298.667c-23.573,0-42.667-19.093-42.667-42.667    s19.093-42.667,42.667-42.667C172.907,213.333,192,232.427,192,256S172.907,298.667,149.333,298.667z M149.333,170.667    c-23.573,0-42.667-19.093-42.667-42.667c0-23.573,19.093-42.667,42.667-42.667C172.907,85.333,192,104.427,192,128    C192,151.573,172.907,170.667,149.333,170.667z M362.667,426.667C339.093,426.667,320,407.573,320,384    c0-23.573,19.093-42.667,42.667-42.667c23.573,0,42.667,19.093,42.667,42.667C405.333,407.573,386.24,426.667,362.667,426.667z     M362.667,298.667C339.093,298.667,320,279.573,320,256s19.093-42.667,42.667-42.667c23.573,0,42.667,19.093,42.667,42.667    S386.24,298.667,362.667,298.667z M362.667,170.667C339.093,170.667,320,151.573,320,128c0-23.573,19.093-42.667,42.667-42.667    c23.573,0,42.667,19.093,42.667,42.667C405.333,151.573,386.24,170.667,362.667,170.667z" fill="#e4007f"/>
	</g>
</g>
<g>
</g>
<g>
</g>
<g>
</g>
<g>
</g>
<g>
</g>
<g>
</g>
<g>
</g>
<g>
</g>
<g>
</g>
<g>
</g>
<g>
</g>
<g>
</g>
<g>
</g>
<g>
</g>
<g>
</g>
</svg>
