<?xml version="1.0" encoding="utf-8"?>
<!-- Generator: Adobe Illustrator 21.0.2, SVG Export Plug-In . SVG Version: 6.00 Build 0)  -->
<svg version="1.1" id="レイヤー_1" xmlns="http://www.w3.org/2000/svg" xmlns:xlink="http://www.w3.org/1999/xlink" x="0px"
	 y="0px" viewBox="0 0 425.2 425.2" style="enable-background:new 0 0 425.2 425.2;" xml:space="preserve">
<style type="text/css">
	.st0{fill:#E3007F;}
	.st1{clip-path:url(#SVGID_2_);fill:#EAEBED;}
	.st2{clip-path:url(#SVGID_2_);fill:#3B5A9A;}
	.st3{clip-path:url(#SVGID_2_);fill:#FFFFFF;}
	.st4{clip-path:url(#SVGID_2_);}
	.st5{fill:#333333;}
	.st6{fill:#333332;}
	.st7{fill:#FFFFFF;}
	.st8{clip-path:url(#SVGID_4_);fill:#FFFFFF;}
	.st9{clip-path:url(#SVGID_6_);fill:#3C5A99;}
	.st10{clip-path:url(#SVGID_6_);fill:#FFFFFF;}
</style>
<rect class="st0" width="425.2" height="425.2"/>
<g>
	<g>
		<defs>
			<rect id="SVGID_1_" x="-628.8" y="587.3" width="1024" height="500"/>
		</defs>
		<clipPath id="SVGID_2_">
			<use xlink:href="#SVGID_1_"  style="overflow:visible;"/>
		</clipPath>
		<rect x="-628.8" y="587.3" class="st1" width="512" height="500"/>
		<rect x="-116.8" y="587.3" class="st2" width="512" height="500"/>
		<rect x="-628.8" y="607.3" class="st3" width="1024" height="0.4"/>
		<rect x="-628.8" y="627.3" class="st3" width="1024" height="0.4"/>
		<rect x="-137" y="587.3" class="st3" width="0.4" height="500"/>
		<rect x="-608.8" y="587.3" class="st3" width="0.4" height="500"/>
		<rect x="-97" y="587.3" class="st3" width="0.4" height="500"/>
		<rect x="374.8" y="587.3" class="st3" width="0.4" height="500"/>
		<rect x="-628.8" y="1066.8" class="st3" width="1024" height="0.4"/>
		<g class="st4">
			<text transform="matrix(1 0 0 1 -601.2606 621.298)" class="st5" style="font-family:'Helvetica'; font-size:10px;">F</text>
		</g>
		<g class="st4">
			<text transform="matrix(1 0 0 1 -595.4007 621.298)"><tspan x="0" y="0" class="st5" style="font-family:'Helvetica'; font-size:10px;">a</tspan><tspan x="5.6" y="0" class="st5" style="font-family:'Helvetica'; font-size:10px;">c</tspan><tspan x="10.7" y="0" class="st5" style="font-family:'Helvetica'; font-size:10px;">e</tspan><tspan x="16.3" y="0" class="st5" style="font-family:'Helvetica'; font-size:10px;">b</tspan><tspan x="22" y="0" class="st5" style="font-family:'Helvetica'; font-size:10px;">o</tspan><tspan x="27.6" y="0" class="st5" style="font-family:'Helvetica'; font-size:10px;">o</tspan><tspan x="33.2" y="0" class="st5" style="font-family:'Helvetica'; font-size:10px;">k </tspan></text>
		</g>
		<g class="st4">
			<text transform="matrix(1 0 0 1 -554.3734 621.298)" class="st5" style="font-family:'Helvetica'; font-size:10px;">“</text>
		</g>
		<g class="st4">
			<text transform="matrix(1 0 0 1 -550.2205 621.298)" class="st5" style="font-family:'Helvetica'; font-size:10px;">f</text>
		</g>
		<g class="st4">
			<text transform="matrix(1 0 0 1 -546.4305 621.298)"><tspan x="0" y="0" class="st5" style="font-family:'Helvetica'; font-size:10px;">” </tspan><tspan x="6.1" y="0" class="st5" style="font-family:'Helvetica'; font-size:10px;">L</tspan><tspan x="11.7" y="0" class="st5" style="font-family:'Helvetica'; font-size:10px;">og</tspan><tspan x="23" y="0" class="st5" style="font-family:'Helvetica'; font-size:10px;">o</tspan></text>
		</g>
		<g class="st4">
			<text transform="matrix(1 0 0 1 -192.4808 621.298)" class="st6" style="font-family:'Helvetica'; font-size:10px;">C</text>
		</g>
		<g class="st4">
			<text transform="matrix(1 0 0 1 -185.2708 621.298)"><tspan x="0" y="0" class="st6" style="font-family:'Helvetica'; font-size:10px;">M</tspan><tspan x="8.3" y="0" class="st6" style="font-family:'Helvetica'; font-size:10px;">Y</tspan><tspan x="15.1" y="0" class="st6" style="font-family:'Helvetica'; font-size:10px;">K / </tspan><tspan x="30.1" y="0" class="st6" style="font-family:'Helvetica'; font-size:10px;">.</tspan><tspan x="32.8" y="0" class="st6" style="font-family:'Helvetica'; font-size:10px;">a</tspan><tspan x="38.4" y="0" class="st6" style="font-family:'Helvetica'; font-size:10px;">i</tspan></text>
		</g>
		<g class="st4">
			<text transform="matrix(1 0 0 1 -89.2503 621.298)" class="st7" style="font-family:'Helvetica'; font-size:10px;">F</text>
		</g>
		<g class="st4">
			<text transform="matrix(1 0 0 1 -83.3909 621.298)"><tspan x="0" y="0" class="st7" style="font-family:'Helvetica'; font-size:10px;">a</tspan><tspan x="5.6" y="0" class="st7" style="font-family:'Helvetica'; font-size:10px;">c</tspan><tspan x="10.7" y="0" class="st7" style="font-family:'Helvetica'; font-size:10px;">e</tspan><tspan x="16.3" y="0" class="st7" style="font-family:'Helvetica'; font-size:10px;">b</tspan><tspan x="22" y="0" class="st7" style="font-family:'Helvetica'; font-size:10px;">o</tspan><tspan x="27.6" y="0" class="st7" style="font-family:'Helvetica'; font-size:10px;">o</tspan><tspan x="33.2" y="0" class="st7" style="font-family:'Helvetica'; font-size:10px;">k </tspan></text>
		</g>
		<g class="st4">
			<text transform="matrix(1 0 0 1 -42.3636 621.298)" class="st7" style="font-family:'Helvetica'; font-size:10px;">“</text>
		</g>
		<g class="st4">
			<text transform="matrix(1 0 0 1 -38.2103 621.298)" class="st7" style="font-family:'Helvetica'; font-size:10px;">f</text>
		</g>
		<g class="st4">
			<text transform="matrix(1 0 0 1 -34.4202 621.298)"><tspan x="0" y="0" class="st7" style="font-family:'Helvetica'; font-size:10px;">” </tspan><tspan x="6.1" y="0" class="st7" style="font-family:'Helvetica'; font-size:10px;">L</tspan><tspan x="11.7" y="0" class="st7" style="font-family:'Helvetica'; font-size:10px;">og</tspan><tspan x="23" y="0" class="st7" style="font-family:'Helvetica'; font-size:10px;">o</tspan></text>
		</g>
		<g class="st4">
			<text transform="matrix(1 0 0 1 319.529 621.298)" class="st7" style="font-family:'Helvetica'; font-size:10px;">C</text>
		</g>
		<g class="st4">
			<text transform="matrix(1 0 0 1 326.739 621.298)"><tspan x="0" y="0" class="st7" style="font-family:'Helvetica'; font-size:10px;">M</tspan><tspan x="8.3" y="0" class="st7" style="font-family:'Helvetica'; font-size:10px;">Y</tspan><tspan x="15.1" y="0" class="st7" style="font-family:'Helvetica'; font-size:10px;">K / </tspan><tspan x="30.1" y="0" class="st7" style="font-family:'Helvetica'; font-size:10px;">.</tspan><tspan x="32.8" y="0" class="st7" style="font-family:'Helvetica'; font-size:10px;">a</tspan><tspan x="38.4" y="0" class="st7" style="font-family:'Helvetica'; font-size:10px;">i</tspan></text>
		</g>
		<g class="st4">
			<defs>
				<rect id="SVGID_3_" x="-628.8" y="587.3" width="1024" height="500"/>
			</defs>
			<clipPath id="SVGID_4_">
				<use xlink:href="#SVGID_3_"  style="overflow:visible;"/>
			</clipPath>
			<path class="st8" d="M259,699.8H21.5c-8.1,0-14.7,6.6-14.7,14.7V952c0,8.1,6.6,14.7,14.7,14.7h127.8V863.4h-34.8v-40.3h34.8
				v-29.7c0-34.5,21.1-53.2,51.8-53.2c14.7,0,27.4,1.1,31.1,1.6v36l-21.3,0c-16.7,0-20,7.9-20,19.6v25.7h39.9l-5.2,40.3h-34.7v103.4
				h68c8.1,0,14.7-6.6,14.7-14.7V714.5C273.7,706.4,267.1,699.8,259,699.8"/>
		</g>
		<g class="st4">
			<defs>
				<rect id="SVGID_5_" x="-628.8" y="587.3" width="1024" height="500"/>
			</defs>
			<clipPath id="SVGID_6_">
				<use xlink:href="#SVGID_5_"  style="overflow:visible;"/>
			</clipPath>
			<path class="st9" d="M-253,966.7c8.1,0,14.7-6.6,14.7-14.7V714.5c0-8.1-6.6-14.7-14.7-14.7h-237.4c-8.1,0-14.7,6.6-14.7,14.7V952
				c0,8.1,6.6,14.7,14.7,14.7H-253z"/>
			<path class="st10" d="M-321.1,966.7V863.4h34.7l5.2-40.3h-39.9v-25.7c0-11.7,3.2-19.6,20-19.6l21.3,0v-36
				c-3.7-0.5-16.4-1.6-31.1-1.6c-30.8,0-51.8,18.8-51.8,53.2v29.7h-34.8v40.3h34.8v103.4H-321.1z"/>
		</g>
	</g>
</g>
<path class="st7" d="M338.7,70.9H86.5c-8.6,0-15.6,7-15.6,15.6v252.2c0,8.6,7,15.6,15.6,15.6h135.8V244.6h-36.9v-42.8h36.9v-31.5
	c0-36.6,22.4-56.5,55-56.5c15.6,0,29.1,1.2,33,1.7v38.3l-22.7,0c-17.8,0-21.2,8.4-21.2,20.8v27.3h42.4l-5.5,42.8h-36.8v109.8h72.2
	c8.6,0,15.6-7,15.6-15.6V86.5C354.3,77.9,347.3,70.9,338.7,70.9"/>
</svg>
