<?xml version="1.0" encoding="utf-8"?>
<!-- Generator: Adobe Illustrator 21.0.2, SVG Export Plug-In . SVG Version: 6.00 Build 0)  -->
<svg version="1.1" id="レイヤー_1" xmlns="http://www.w3.org/2000/svg" xmlns:xlink="http://www.w3.org/1999/xlink" x="0px"
	 y="0px" viewBox="0 0 425.2 425.2" style="enable-background:new 0 0 425.2 425.2;" xml:space="preserve">
<style type="text/css">
	.st0{fill:#E3007F;}
	.st1{clip-path:url(#SVGID_2_);fill:#EAEBED;}
	.st2{clip-path:url(#SVGID_2_);fill:#3B5A9A;}
	.st3{clip-path:url(#SVGID_2_);fill:#FFFFFF;}
	.st4{clip-path:url(#SVGID_2_);}
	.st5{fill:#333333;}
	.st6{fill:#333332;}
	.st7{fill:#FFFFFF;}
	.st8{clip-path:url(#SVGID_4_);fill:#FFFFFF;}
	.st9{clip-path:url(#SVGID_6_);fill:#3C5A99;}
	.st10{clip-path:url(#SVGID_6_);fill:#FFFFFF;}
	.st11{fill:#474545;}
	.st12{fill:#45AE35;}
	.st13{fill:#878783;}
	.st14{clip-path:url(#SVGID_8_);fill:#878783;}
	.st15{clip-path:url(#SVGID_8_);fill:#FFFFFF;}
	.st16{fill:#DC4934;}
</style>
<rect class="st0" width="425.2" height="425.2"/>
<g>
	<g>
		<defs>
			<rect id="SVGID_1_" x="-628.8" y="587.3" width="1024" height="500"/>
		</defs>
		<clipPath id="SVGID_2_">
			<use xlink:href="#SVGID_1_"  style="overflow:visible;"/>
		</clipPath>
		<rect x="-628.8" y="587.3" class="st1" width="512" height="500"/>
		<rect x="-116.8" y="587.3" class="st2" width="512" height="500"/>
		<rect x="-628.8" y="607.3" class="st3" width="1024" height="0.4"/>
		<rect x="-628.8" y="627.3" class="st3" width="1024" height="0.4"/>
		<rect x="-137" y="587.3" class="st3" width="0.4" height="500"/>
		<rect x="-608.8" y="587.3" class="st3" width="0.4" height="500"/>
		<rect x="-97" y="587.3" class="st3" width="0.4" height="500"/>
		<rect x="374.8" y="587.3" class="st3" width="0.4" height="500"/>
		<rect x="-628.8" y="1066.8" class="st3" width="1024" height="0.4"/>
		<g class="st4">
			<text transform="matrix(1 0 0 1 -601.2606 621.298)" class="st5" style="font-family:'Helvetica'; font-size:10px;">F</text>
		</g>
		<g class="st4">
			<text transform="matrix(1 0 0 1 -595.4007 621.298)"><tspan x="0" y="0" class="st5" style="font-family:'Helvetica'; font-size:10px;">a</tspan><tspan x="5.6" y="0" class="st5" style="font-family:'Helvetica'; font-size:10px;">c</tspan><tspan x="10.7" y="0" class="st5" style="font-family:'Helvetica'; font-size:10px;">e</tspan><tspan x="16.3" y="0" class="st5" style="font-family:'Helvetica'; font-size:10px;">b</tspan><tspan x="22" y="0" class="st5" style="font-family:'Helvetica'; font-size:10px;">o</tspan><tspan x="27.6" y="0" class="st5" style="font-family:'Helvetica'; font-size:10px;">o</tspan><tspan x="33.2" y="0" class="st5" style="font-family:'Helvetica'; font-size:10px;">k </tspan></text>
		</g>
		<g class="st4">
			<text transform="matrix(1 0 0 1 -554.3734 621.298)" class="st5" style="font-family:'Helvetica'; font-size:10px;">“</text>
		</g>
		<g class="st4">
			<text transform="matrix(1 0 0 1 -550.2205 621.298)" class="st5" style="font-family:'Helvetica'; font-size:10px;">f</text>
		</g>
		<g class="st4">
			<text transform="matrix(1 0 0 1 -546.4305 621.298)"><tspan x="0" y="0" class="st5" style="font-family:'Helvetica'; font-size:10px;">” </tspan><tspan x="6.1" y="0" class="st5" style="font-family:'Helvetica'; font-size:10px;">L</tspan><tspan x="11.7" y="0" class="st5" style="font-family:'Helvetica'; font-size:10px;">og</tspan><tspan x="23" y="0" class="st5" style="font-family:'Helvetica'; font-size:10px;">o</tspan></text>
		</g>
		<g class="st4">
			<text transform="matrix(1 0 0 1 -192.4808 621.298)" class="st6" style="font-family:'Helvetica'; font-size:10px;">C</text>
		</g>
		<g class="st4">
			<text transform="matrix(1 0 0 1 -185.2708 621.298)"><tspan x="0" y="0" class="st6" style="font-family:'Helvetica'; font-size:10px;">M</tspan><tspan x="8.3" y="0" class="st6" style="font-family:'Helvetica'; font-size:10px;">Y</tspan><tspan x="15.1" y="0" class="st6" style="font-family:'Helvetica'; font-size:10px;">K / </tspan><tspan x="30.1" y="0" class="st6" style="font-family:'Helvetica'; font-size:10px;">.</tspan><tspan x="32.8" y="0" class="st6" style="font-family:'Helvetica'; font-size:10px;">a</tspan><tspan x="38.4" y="0" class="st6" style="font-family:'Helvetica'; font-size:10px;">i</tspan></text>
		</g>
		<g class="st4">
			<text transform="matrix(1 0 0 1 -89.2503 621.298)" class="st7" style="font-family:'Helvetica'; font-size:10px;">F</text>
		</g>
		<g class="st4">
			<text transform="matrix(1 0 0 1 -83.3909 621.298)"><tspan x="0" y="0" class="st7" style="font-family:'Helvetica'; font-size:10px;">a</tspan><tspan x="5.6" y="0" class="st7" style="font-family:'Helvetica'; font-size:10px;">c</tspan><tspan x="10.7" y="0" class="st7" style="font-family:'Helvetica'; font-size:10px;">e</tspan><tspan x="16.3" y="0" class="st7" style="font-family:'Helvetica'; font-size:10px;">b</tspan><tspan x="22" y="0" class="st7" style="font-family:'Helvetica'; font-size:10px;">o</tspan><tspan x="27.6" y="0" class="st7" style="font-family:'Helvetica'; font-size:10px;">o</tspan><tspan x="33.2" y="0" class="st7" style="font-family:'Helvetica'; font-size:10px;">k </tspan></text>
		</g>
		<g class="st4">
			<text transform="matrix(1 0 0 1 -42.3636 621.298)" class="st7" style="font-family:'Helvetica'; font-size:10px;">“</text>
		</g>
		<g class="st4">
			<text transform="matrix(1 0 0 1 -38.2103 621.298)" class="st7" style="font-family:'Helvetica'; font-size:10px;">f</text>
		</g>
		<g class="st4">
			<text transform="matrix(1 0 0 1 -34.4202 621.298)"><tspan x="0" y="0" class="st7" style="font-family:'Helvetica'; font-size:10px;">” </tspan><tspan x="6.1" y="0" class="st7" style="font-family:'Helvetica'; font-size:10px;">L</tspan><tspan x="11.7" y="0" class="st7" style="font-family:'Helvetica'; font-size:10px;">og</tspan><tspan x="23" y="0" class="st7" style="font-family:'Helvetica'; font-size:10px;">o</tspan></text>
		</g>
		<g class="st4">
			<text transform="matrix(1 0 0 1 319.529 621.298)" class="st7" style="font-family:'Helvetica'; font-size:10px;">C</text>
		</g>
		<g class="st4">
			<text transform="matrix(1 0 0 1 326.739 621.298)"><tspan x="0" y="0" class="st7" style="font-family:'Helvetica'; font-size:10px;">M</tspan><tspan x="8.3" y="0" class="st7" style="font-family:'Helvetica'; font-size:10px;">Y</tspan><tspan x="15.1" y="0" class="st7" style="font-family:'Helvetica'; font-size:10px;">K / </tspan><tspan x="30.1" y="0" class="st7" style="font-family:'Helvetica'; font-size:10px;">.</tspan><tspan x="32.8" y="0" class="st7" style="font-family:'Helvetica'; font-size:10px;">a</tspan><tspan x="38.4" y="0" class="st7" style="font-family:'Helvetica'; font-size:10px;">i</tspan></text>
		</g>
		<g class="st4">
			<defs>
				<rect id="SVGID_3_" x="-628.8" y="587.3" width="1024" height="500"/>
			</defs>
			<clipPath id="SVGID_4_">
				<use xlink:href="#SVGID_3_"  style="overflow:visible;"/>
			</clipPath>
			<path class="st8" d="M259,699.8H21.5c-8.1,0-14.7,6.6-14.7,14.7V952c0,8.1,6.6,14.7,14.7,14.7h127.8V863.4h-34.8v-40.3h34.8
				v-29.7c0-34.5,21.1-53.2,51.8-53.2c14.7,0,27.4,1.1,31.1,1.6v36l-21.3,0c-16.7,0-20,7.9-20,19.6v25.7h39.9l-5.2,40.3h-34.7v103.4
				h68c8.1,0,14.7-6.6,14.7-14.7V714.5C273.7,706.4,267.1,699.8,259,699.8"/>
		</g>
		<g class="st4">
			<defs>
				<rect id="SVGID_5_" x="-628.8" y="587.3" width="1024" height="500"/>
			</defs>
			<clipPath id="SVGID_6_">
				<use xlink:href="#SVGID_5_"  style="overflow:visible;"/>
			</clipPath>
			<path class="st9" d="M-253,966.7c8.1,0,14.7-6.6,14.7-14.7V714.5c0-8.1-6.6-14.7-14.7-14.7h-237.4c-8.1,0-14.7,6.6-14.7,14.7V952
				c0,8.1,6.6,14.7,14.7,14.7H-253z"/>
			<path class="st10" d="M-321.1,966.7V863.4h34.7l5.2-40.3h-39.9v-25.7c0-11.7,3.2-19.6,20-19.6l21.3,0v-36
				c-3.7-0.5-16.4-1.6-31.1-1.6c-30.8,0-51.8,18.8-51.8,53.2v29.7h-34.8v40.3h34.8v103.4H-321.1z"/>
		</g>
	</g>
</g>
<g>
	<path class="st11" d="M-232.6,418.5c0.6,0,1.3,0.3,2,0.8c0.9,0.7,1.5,1,1.8,1c0.5,0,0.7-0.2,0.7-0.7c0-0.3-0.1-0.5-0.4-0.7
		c-0.1-0.1-1-0.4-2.5-0.9c-2.4-0.9-3.7-2.5-3.7-4.8c0-1.8,0.6-3.1,1.9-4.2c1.1-0.9,2.5-1.3,4.2-1.3c1.4,0,2.7,0.3,3.8,1
		c1.1,0.7,1.6,1.6,1.6,2.7c0,0.7-0.2,1.2-0.6,1.6c-0.4,0.4-0.9,0.7-1.6,0.7c-0.7,0-1.4-0.3-2.2-1c-0.5-0.4-0.9-0.6-1.2-0.6
		c-0.4,0-0.7,0.2-0.7,0.7c0,0.4,0.6,0.8,1.7,1.1c1.5,0.5,2.7,1.1,3.6,1.8c1.1,0.9,1.7,2.2,1.7,3.9c0,1.8-0.6,3.2-1.9,4.3
		c-1.2,1-2.7,1.4-4.5,1.4c-1.9,0-3.4-0.5-4.6-1.5c-1-0.8-1.5-1.7-1.5-2.8c0-0.7,0.2-1.3,0.7-1.8
		C-233.9,418.7-233.3,418.5-232.6,418.5L-232.6,418.5z"/>
	<path class="st11" d="M-215.2,419.6h2.5c1,0,1.8,0.2,2.3,0.6c0.6,0.5,0.9,1.2,0.9,2c0,0.8-0.3,1.5-0.9,2c-0.5,0.4-1.2,0.6-2.3,0.6
		h-4.3c-1,0-1.7-0.1-2.1-0.2c-0.7-0.3-1.2-0.8-1.5-1.5c-0.1-0.4-0.2-1.2-0.2-2.2v-9.1c0-0.8,0-1.3,0.1-1.5c0.1-0.5,0.3-1,0.6-1.3
		c0.4-0.4,0.9-0.7,1.5-0.8c0.3,0,0.9-0.1,1.7-0.1h3.3c0.9,0,1.4,0,1.6,0c0.6,0.1,1.1,0.2,1.4,0.5c0.7,0.5,1,1.2,1,2
		c0,0.9-0.3,1.6-0.9,2c-0.5,0.4-1.2,0.6-2.1,0.6h-2.7v1.1h2.2c0.6,0,1.2,0.2,1.6,0.5c0.4,0.4,0.7,0.8,0.7,1.5c0,1.3-0.8,2-2.4,2h-2
		V419.6L-215.2,419.6z"/>
	<path class="st11" d="M-202.4,419.6h2.5c1,0,1.8,0.2,2.3,0.6c0.6,0.5,0.9,1.2,0.9,2c0,0.8-0.3,1.5-0.9,2c-0.5,0.4-1.2,0.6-2.3,0.6
		h-4.3c-1,0-1.7-0.1-2.1-0.2c-0.7-0.3-1.2-0.8-1.5-1.5c-0.1-0.4-0.2-1.2-0.2-2.2v-9.1c0-0.8,0-1.3,0.1-1.5c0.1-0.5,0.3-1,0.6-1.3
		c0.4-0.4,0.9-0.7,1.5-0.8c0.3,0,0.9-0.1,1.7-0.1h3.3c0.9,0,1.4,0,1.6,0c0.6,0.1,1.1,0.2,1.4,0.5c0.7,0.5,1,1.2,1,2
		c0,0.9-0.3,1.6-0.9,2c-0.5,0.4-1.2,0.6-2.1,0.6h-2.7v1.1h2.2c0.6,0,1.2,0.2,1.6,0.5c0.4,0.4,0.7,0.8,0.7,1.5c0,1.3-0.8,2-2.4,2h-2
		V419.6L-202.4,419.6z"/>
	<path class="st11" d="M-189.5,413.7l3.1-4.5c0.6-0.8,1.3-1.3,2.3-1.3c0.8,0,1.4,0.3,2,0.8c0.6,0.5,0.8,1.2,0.8,1.9
		c0,0.6-0.1,1-0.4,1.5l-2.8,4.1l3.4,4.3c0.3,0.4,0.5,0.9,0.5,1.5c0,0.8-0.3,1.4-0.8,2c-0.5,0.6-1.2,0.8-2,0.8
		c-0.8,0-1.5-0.3-1.9-0.8l-4.2-5.2v2.9c0,0.8-0.1,1.5-0.4,1.9c-0.5,0.8-1.3,1.2-2.3,1.2c-0.9,0-1.6-0.3-2.1-0.9
		c-0.5-0.6-0.7-1.3-0.7-2.2V411c0-0.9,0.2-1.6,0.7-2.2c0.5-0.6,1.2-0.9,2.1-0.9c0.8,0,1.5,0.3,2.1,0.9c0.3,0.3,0.5,0.7,0.6,1
		c0,0.2,0.1,0.6,0.1,1.2V413.7L-189.5,413.7z"/>
	<path class="st12" d="M-173.9,419.6h2.7c0.8,0,1.5,0.2,2,0.5c0.7,0.5,1,1.2,1,2c0,0.8-0.3,1.4-0.9,2c-0.5,0.4-1.1,0.6-2,0.6h-5.2
		c-1,0-1.8-0.3-2.3-0.9c-0.4-0.4-0.6-1-0.7-1.6c0-0.2,0-0.8,0-1.8V411c0-0.9,0.2-1.6,0.7-2.2c0.5-0.6,1.2-0.9,2-0.9
		c0.9,0,1.6,0.3,2.1,1c0.4,0.5,0.6,1.5,0.6,2.7V419.6L-173.9,419.6z"/>
	<path class="st12" d="M-159.5,407.6c1.7,0,3.2,0.4,4.7,1.3c1.4,0.9,2.5,2.1,3.2,3.6c0.6,1.2,0.9,2.5,0.9,3.9c0,1.5-0.4,3-1.1,4.3
		c-0.8,1.3-1.8,2.4-3.1,3.2c-1.4,0.8-2.9,1.3-4.6,1.3c-1.6,0-3.2-0.4-4.6-1.3c-1.4-0.9-2.5-2.1-3.2-3.5c-0.6-1.2-0.9-2.6-0.9-4.1
		c0-1.2,0.3-2.4,0.8-3.5c0.7-1.6,1.8-2.8,3.2-3.7C-162.8,408.1-161.2,407.7-159.5,407.6L-159.5,407.6z"/>
	<path class="st12" d="M-139,419h-0.8c-1,0-1.7-0.3-2.1-1c-0.2-0.3-0.3-0.7-0.3-1c0-0.7,0.3-1.2,0.8-1.6c0.4-0.3,1-0.4,1.9-0.4
		c1.4,0,2.2,0,2.4,0c1.1,0.1,1.8,0.3,2.2,0.6c0.6,0.5,0.9,1.4,0.9,2.6c0,1,0,1.8-0.1,2.5c-0.1,1-0.7,2-1.9,2.8
		c-1.5,1-3.2,1.6-4.9,1.6c-2.1,0-4-0.7-5.6-2c-1-0.8-1.8-1.8-2.3-3c-0.6-1.2-0.8-2.4-0.8-3.7c0-1.7,0.4-3.2,1.3-4.6
		c0.9-1.4,2.1-2.5,3.6-3.2c1.3-0.6,2.6-0.9,3.9-0.9c1.7,0,3.3,0.5,4.7,1.4c1.1,0.7,1.7,1.6,1.7,2.6c0,0.8-0.3,1.4-0.8,2
		c-0.5,0.5-1.2,0.8-2,0.8c-0.3,0-1-0.2-2-0.7c-0.6-0.3-1.2-0.5-1.7-0.5c-0.9,0-1.6,0.3-2.2,1c-0.6,0.6-0.9,1.4-0.9,2.3
		c0,0.9,0.3,1.7,0.9,2.3c0.6,0.6,1.4,0.9,2.3,0.9C-140.3,419.7-139.7,419.5-139,419L-139,419z"/>
	<path class="st12" d="M-124.2,407.6c1.7,0,3.2,0.4,4.7,1.3c1.4,0.9,2.5,2.1,3.2,3.6c0.6,1.2,0.9,2.5,0.9,3.9c0,1.5-0.4,3-1.1,4.3
		c-0.8,1.3-1.8,2.4-3.1,3.2c-1.4,0.8-2.9,1.3-4.6,1.3c-1.6,0-3.2-0.4-4.6-1.3c-1.4-0.9-2.5-2.1-3.2-3.5c-0.6-1.2-0.9-2.6-0.9-4.1
		c0-1.2,0.3-2.4,0.8-3.5c0.7-1.6,1.8-2.8,3.2-3.7C-127.5,408.1-126,407.7-124.2,407.6L-124.2,407.6z"/>
	<path class="st13" d="M-114,423.5c0-0.8,0.6-1.4,1.4-1.4c0.8,0,1.4,0.6,1.4,1.4c0,0.8-0.5,1.4-1.4,1.4
		C-113.4,424.9-114,424.3-114,423.5L-114,423.5z"/>
	<path class="st13" d="M-109.5,418.6c0-1,0-1.9-0.1-2.6h1.9l0.1,1.3h0.1c0.4-0.7,1.3-1.5,2.8-1.5c1.5,0,3.1,1,3.1,3.8v5.2h-2.2v-5
		c0-1.3-0.5-2.2-1.7-2.2c-0.9,0-1.5,0.6-1.7,1.3c-0.1,0.2-0.1,0.5-0.1,0.7v5.1h-2.2V418.6L-109.5,418.6z"/>
	<path class="st13" d="M-93.8,419.4c0-0.8-0.3-2.1-1.8-2.1c-1.4,0-1.9,1.2-2,2.1H-93.8L-93.8,419.4z M-97.6,421
		c0.1,1.6,1.3,2.3,2.7,2.3c1,0,1.8-0.1,2.4-0.4l0.3,1.5c-0.8,0.3-1.8,0.5-3.1,0.5c-2.8,0-4.5-1.7-4.5-4.4c0-2.4,1.5-4.7,4.3-4.7
		c2.8,0,3.8,2.3,3.8,4.3c0,0.4,0,0.7-0.1,0.9H-97.6L-97.6,421z"/>
	<g>
		<defs>
			<rect id="SVGID_7_" x="-244.4" y="-223.7" width="168.5" height="648.9"/>
		</defs>
		<clipPath id="SVGID_8_">
			<use xlink:href="#SVGID_7_"  style="overflow:visible;"/>
		</clipPath>
		<path class="st14" d="M-87.4,413.5v2.5h2.1v1.7h-2.1v3.9c0,1.1,0.3,1.6,1.1,1.6c0.4,0,0.7-0.1,0.9-0.1l0,1.7
			c-0.3,0.1-0.9,0.2-1.6,0.2c-0.8,0-1.5-0.3-1.9-0.7c-0.5-0.5-0.7-1.3-0.7-2.4v-4.1h-1.3V416h1.3v-2L-87.4,413.5L-87.4,413.5z"/>
		<path class="st15" d="M-130.7-152.1c0,2.8-0.1,5.6-0.1,8.4c-2.8,0-5.6,0-8.4,0.1c0,2.8,0,5.6,0,8.3c2.8,0,5.6,0.1,8.4,0.1
			c0,2.8,0,5.6,0.1,8.4c2.8,0,5.6,0,8.4,0c0-2.8,0-5.6,0.1-8.4c2.8,0,5.6,0,8.4-0.1c0-2.8,0-5.6,0-8.3c-2.8,0-5.6,0-8.4-0.1
			c0-2.8,0-5.6-0.1-8.4C-125.1-152.1-127.9-152.1-130.7-152.1L-130.7-152.1z M-206.3-140.9c-1,12.4,7.2,24.5,18.7,28.9
			c11.4,4.4,26.1,1.4,33.4-8.9c4.8-6.5,5.9-14.9,5.3-22.7c-9.4-0.1-18.7-0.1-28.1,0c0,3.3,0,6.7,0,10c5.6,0.2,11.2,0.1,16.8,0.2
			c-2.5,12.4-19.4,16.4-28.3,8.3c-9.2-7.1-8.8-22.7,0.8-29.3c6.7-5.3,16.2-4,22.9,0.6c2.6-2.4,5.1-5,7.4-7.7
			c-5.6-4.4-12.4-7.6-19.6-7.3C-192.1-169.3-206-156.1-206.3-140.9L-206.3-140.9z M-238.4-223.3c2.1-0.5,4.4-0.4,6.6-0.4
			c49.1,0.1,98.3-0.1,147.4,0.1c5-0.1,9,4.9,8.4,9.7c0,49.6,0,99.3,0,148.9c0.7,5.5-4.3,10.4-9.8,9.8c-49.6,0-99.3,0-148.9,0
			c-5.5,0.7-10.4-4.4-9.7-9.8c0-49.6,0-99.3,0-148.9C-244.8-218-242.2-222-238.4-223.3L-238.4-223.3z"/>
	</g>
	<path class="st16" d="M-206.3-140.9c0.3-15.1,14.2-28.4,29.3-27.9c7.3-0.3,14.1,2.8,19.6,7.3c-2.4,2.7-4.8,5.3-7.4,7.7
		c-6.7-4.6-16.2-5.9-22.9-0.6c-9.6,6.6-10,22.2-0.8,29.3c8.9,8.1,25.8,4.1,28.3-8.3c-5.6-0.1-11.2,0-16.8-0.2c0-3.3,0-6.7,0-10
		c9.4,0,18.7,0,28.1,0c0.6,7.9-0.5,16.2-5.3,22.7c-7.3,10.3-22,13.3-33.4,8.9C-199.1-116.4-207.3-128.6-206.3-140.9L-206.3-140.9z"
		/>
	<path class="st16" d="M-130.7-152.1c2.8,0,5.6,0,8.3,0c0,2.8,0,5.6,0.1,8.4c2.8,0,5.6,0,8.4,0.1c0,2.8,0,5.6,0,8.3
		c-2.8,0-5.6,0-8.4,0.1c0,2.8,0,5.6-0.1,8.4c-2.8,0-5.6,0-8.4,0c0-2.8,0-5.6-0.1-8.4c-2.8,0-5.6-0.1-8.4-0.1c0-2.8,0-5.6,0-8.3
		c2.8,0,5.6,0,8.4-0.1C-130.7-146.5-130.7-149.3-130.7-152.1L-130.7-152.1z"/>
	<path class="st16" d="M-131.1,47.8c0,2.8-0.1,5.5-0.1,8.3c-2.8,0-5.5,0-8.3,0.1c0,2.8,0,5.5,0,8.2c2.8,0,5.5,0,8.3,0.1
		c0,2.8,0,5.5,0.1,8.3c2.7,0,5.5,0,8.2,0c0-2.8,0-5.5,0.1-8.3c2.8,0,5.5,0,8.3,0c0-2.8,0-5.5,0-8.2c-2.8,0-5.5,0-8.3-0.1
		c0-2.8,0-5.5-0.1-8.3C-125.6,47.8-128.3,47.8-131.1,47.8L-131.1,47.8z M-205.7,60.2c-0.2,12.1,8.1,23.6,19.5,27.4
		c10.8,3.6,24.1,0.9,31.2-8.3c5.2-6.5,6.4-15.1,5.9-23.2c-9.2-0.1-18.5-0.1-27.7,0c0,3.3,0,6.6,0,9.9c5.5,0.2,11.1,0.1,16.6,0.2
		c-1.4,4.8-4.6,9.2-9.4,11c-9.3,4.1-21.2-1.3-24.2-11c-3.5-9.4,2.3-20.7,11.8-23.4c5.9-2.1,12.1,0.3,17.1,3.3c2.6-2.4,5-5,7.3-7.6
		c-5.8-4.8-13.2-7.8-20.8-7.1C-193.2,31.5-206.3,45.3-205.7,60.2L-205.7,60.2z M-238.5-22c2-0.8,4.2-0.7,6.3-0.8
		c48.5,0.1,97,0,145.4,0c5.4-0.7,10.3,4.2,9.6,9.6c0.1,48.9,0,97.9,0,146.8c0.6,5.4-4.2,10.3-9.7,9.8c-48.9,0-97.9,0-146.8,0
		c-5.4,0.5-10.3-4.3-9.7-9.8c0-48.9-0.1-97.9,0-146.8C-243.5-16.8-241.6-20.3-238.5-22L-238.5-22z"/>
	<path class="st7" d="M-205.7,60.2c-0.6-14.9,12.5-28.8,27.5-28.9c7.6-0.6,15,2.3,20.8,7.1c-2.4,2.6-4.8,5.2-7.3,7.6
		c-5.1-3.1-11.2-5.4-17.1-3.3c-9.6,2.7-15.4,14-11.8,23.4c2.9,9.8,14.8,15.2,24.2,11c4.8-1.7,8-6.2,9.4-11c-5.5-0.1-11.1,0-16.6-0.2
		c0-3.3,0-6.6,0-9.9c9.2,0,18.5,0,27.7,0c0.6,8.1-0.6,16.7-5.9,23.2c-7.2,9.2-20.4,12-31.2,8.3C-197.6,83.9-205.9,72.3-205.7,60.2
		L-205.7,60.2z"/>
	<path class="st7" d="M-131.1,47.8c2.7,0,5.5,0,8.2,0c0,2.8,0,5.5,0.1,8.3c2.8,0,5.5,0,8.3,0.1c0,2.8,0,5.5,0,8.2
		c-2.8,0-5.5,0-8.3,0c0,2.8,0,5.5-0.1,8.3c-2.8,0-5.5,0-8.2,0c0-2.8,0-5.5-0.1-8.3c-2.8,0-5.5,0-8.3-0.1c0-2.8,0-5.5,0-8.2
		c2.8,0,5.5,0,8.3-0.1C-131.1,53.3-131.1,50.5-131.1,47.8L-131.1,47.8z"/>
</g>
<path class="st7" d="M262.2,191.3c0,4.7-0.1,9.4-0.1,14.1c-4.7,0-9.4,0-14.1,0.1c0,4.7,0,9.4,0,14c4.7,0,9.4,0.1,14.1,0.1
	c0,4.7,0,9.4,0.1,14.1c4.7,0,9.4,0,14.1,0c0-4.7,0-9.4,0.1-14.1c4.7,0,9.4-0.1,14.1-0.1c0-4.7,0-9.4,0-14c-4.7,0-9.4,0-14.1-0.1
	c0-4.7-0.1-9.4-0.1-14.1C271.6,191.3,266.9,191.3,262.2,191.3L262.2,191.3z M135,210.1c-1.6,20.8,12.1,41.2,31.4,48.6
	c19.3,7.4,43.9,2.4,56.2-14.9c8.1-10.9,9.9-25,8.9-38.2c-15.8-0.1-31.5-0.1-47.2,0c0,5.6,0,11.2,0,16.8c9.4,0.3,18.9,0.2,28.3,0.3
	c-4.2,20.9-32.6,27.7-47.6,14c-15.5-12-14.7-38.2,1.3-49.3c11.2-9,27.2-6.7,38.4,1c4.4-4.1,8.5-8.4,12.5-13
	c-9.3-7.5-20.8-12.8-33-12.2C158.8,162.3,135.4,184.6,135,210.1L135,210.1z M81.1,71.6c3.6-0.9,7.4-0.6,11.1-0.7
	c82.6,0.1,165.3-0.1,247.9,0.1c8.4-0.2,15.1,8.2,14.1,16.3c0.1,83.5,0,166.9,0,250.4c1.2,9.2-7.2,17.6-16.4,16.5
	c-83.5,0-167,0-250.5,0c-9.2,1.1-17.5-7.3-16.4-16.5c0-83.5,0-166.9,0-250.4C70.3,80.5,74.5,73.7,81.1,71.6L81.1,71.6z"/>
</svg>
