<?xml version="1.0" encoding="utf-8"?>
<!-- Generator: Adobe Illustrator 21.0.2, SVG Export Plug-In . SVG Version: 6.00 Build 0)  -->
<svg version="1.1" id="レイヤー_1" xmlns="http://www.w3.org/2000/svg" xmlns:xlink="http://www.w3.org/1999/xlink" x="0px"
	 y="0px" viewBox="0 0 1031.8 510.2" style="enable-background:new 0 0 1031.8 510.2;" xml:space="preserve">
<style type="text/css">
	.st0{fill:#FAFAFA;}
	.st1{fill:#FAFAFA;stroke:#FCFAF4;stroke-width:1.3036;stroke-miterlimit:10;}
</style>
<g>
	<g>
		<g>
			<path class="st0" d="M505.8,122c-1.4-1.2-2.9-2.3-4.9-2.3c-5.5,0-5.9,7.1-6,11.1c1.8-1.6,3.7-2.5,6.1-2.5c5.8,0,7.9,4.8,7.9,9.8
				c0,5.5-2.9,10-8.8,10c-7.9,0-8.4-9.5-8.4-15.3c0-6.2,0.8-16,9.1-16c2.5,0,4.9,1,6.8,2.7L505.8,122z M500.2,145.3
				c3.8,0,5.4-3.3,5.4-7c0-3.5-1.1-7.1-5.1-7.1c-2.2,0-4.1,1.5-5.6,3C494.9,143.8,497.5,145.3,500.2,145.3z"/>
			<path class="st0" d="M531,122c-1.4-1.2-2.9-2.3-4.9-2.3c-5.5,0-5.9,7.1-6,11.1c1.8-1.6,3.7-2.5,6.1-2.5c5.8,0,7.9,4.8,7.9,9.8
				c0,5.5-2.9,10-8.8,10c-7.9,0-8.4-9.5-8.4-15.3c0-6.2,0.8-16,9.1-16c2.5,0,4.9,1,6.8,2.7L531,122z M525.4,145.3
				c3.8,0,5.4-3.3,5.4-7c0-3.5-1.1-7.1-5.1-7.1c-2.2,0-4.1,1.5-5.6,3C520.1,143.8,522.6,145.3,525.4,145.3z"/>
			<path class="st0" d="M549.1,126.6h-6.6v-2.7h16.1v2.7h-6.5v21.1h-3.1V126.6z"/>
			<path class="st0" d="M567.9,123.9h3.1v9.9h9.4v-9.9h3.1v23.9h-3.1v-11.2H571v11.2h-3.1V123.9z"/>
			<path class="st0" d="M624.6,120H618v-2.7h16.1v2.7h-6.5v27.8h-3.1V120z"/>
			<path class="st0" d="M655.7,124.2c-0.5-2.2-1.6-4.5-4.2-4.5c-2.9,0-4,2.3-4,4.9c0,2.5,0.5,3.3,5.3,6.1c3.8,2.2,6.3,4.1,6.3,8.8
				c0,4.8-2.6,8.6-7.7,8.6c-5.4,0-7.4-3.6-7.8-8.4l3.1-0.4c0.4,3.4,1.1,6,4.9,6c2.7,0,4.5-1.8,4.5-5.4c0-4-2.6-5.4-5.8-7.2
				c-3.5-2.1-5.9-3.5-5.9-8c0-4.1,2.7-7.8,7.1-7.8c4.3,0,6.4,3.1,7.2,6.9L655.7,124.2z"/>
			<path class="st0" d="M672,117.2v22.2c0,3,0.6,5.9,4.4,5.9c3.8,0,4.4-2.9,4.4-5.9v-22.2h3.1v23.1c0,4.8-3,7.8-7.5,7.8
				c-4.6,0-7.5-3.2-7.5-7.7v-23.3H672z"/>
			<path class="st0" d="M698.4,129.8h0.8l8.5-13.2l2.5,1.6l-8.4,12.9l10,15.7l-2.6,1.6l-9.8-15.8h-1.1v15.2h-3.1v-30.5h3.1V129.8z"
				/>
			<path class="st0" d="M722.4,117.2v22.2c0,3,0.6,5.9,4.4,5.9c3.8,0,4.4-2.9,4.4-5.9v-22.2h3.1v23.1c0,4.8-3,7.8-7.5,7.8
				c-4.6,0-7.5-3.2-7.5-7.7v-23.3H722.4z"/>
			<path class="st0" d="M748.7,129.8h0.8l8.5-13.2l2.5,1.6l-8.4,12.9l10,15.7l-2.6,1.6l-9.8-15.8h-1.1v15.2h-3.1v-30.5h3.1V129.8z"
				/>
			<path class="st0" d="M785.6,132.5c0,3.8,0.1,15.7-8.5,15.7c-8.7,0-8.5-11.8-8.5-15.7c0-5,0.3-15.7,8.5-15.7
				C785.8,116.8,785.6,128.4,785.6,132.5z M771.9,132.5c0,8.2,1,12.8,5.3,12.8c5.3,0,5.3-7.5,5.3-12.8c0-5.8,0.1-12.8-5.3-12.8
				C771.7,119.7,771.9,128,771.9,132.5z"/>
			<path class="st0" d="M806.7,117.2h3.8l0.9,30.5h-3.3l-0.6-25.5h-0.1l-5.2,15.3l-5.2-15.3H797l-0.6,25.5h-3.2l0.9-30.5h3.8l4.4,13
				L806.7,117.2z"/>
			<path class="st0" d="M823.3,138.3l-2.4,10l-3-0.8l7.7-30.3h3.7l7.7,30.3l-3,0.8l-2.4-10H823.3z M827.5,121.3L827.5,121.3
				l-3.5,14.3h6.9L827.5,121.3z"/>
			<path class="st0" d="M872.2,117.2h15v2.7h-12V130h10v2.7h-10v15h-3.1V117.2z"/>
			<path class="st0" d="M896.5,117.2h14.9v2.7h-11.8V130h9.8v2.7h-9.8V145h11.8v2.7h-14.9V117.2z"/>
			<path class="st0" d="M932.6,124.2c-0.5-2.2-1.6-4.5-4.2-4.5c-2.9,0-4,2.3-4,4.9c0,2.5,0.5,3.3,5.3,6.1c3.8,2.2,6.3,4.1,6.3,8.8
				c0,4.8-2.6,8.6-7.7,8.6c-5.4,0-7.4-3.6-7.8-8.4l3.1-0.4c0.4,3.4,1.1,6,4.9,6c2.7,0,4.5-1.8,4.5-5.4c0-4-2.6-5.4-5.8-7.2
				c-3.5-2.1-5.9-3.5-5.9-8c0-4.1,2.7-7.8,7.1-7.8c4.3,0,6.4,3.1,7.2,6.9L932.6,124.2z"/>
			<path class="st0" d="M951.3,141h4.2v6.8h-4.2V141z"/>
		</g>
		<path class="st0" d="M491.6,188.7v-10.6h31c23.6,0,37.5,10.4,37.5,58.9c0,25.9-1.4,58.7-37.2,58.7h-31.4v-10.6h5.9
			c2,0,3.7-1.6,3.7-3.7v-89.1c0-2-1.6-3.7-3.7-3.7H491.6z M513,281.4c0,2,1.6,3.7,3.7,3.7h6c14.3,0,25.2-3.7,25.2-48.1
			c0-44.8-12-48.3-22.4-48.3h-8.8c-2,0-3.7,1.7-3.7,3.7V281.4z"/>
		<path class="st0" d="M610.4,285.1h9.4c1.9,0,3.5-1.6,3.5-3.5v-63.6c0-2-1.6-3.6-3.6-3.6h-9.2v-10.6h37.7v10.6h-9.5
			c-1.9,0-3.5,1.6-3.5,3.5v63.6c0,2,1.6,3.6,3.6,3.6h9.5v10.6h-37.7V285.1z"/>
		<path class="st0" d="M768,276.5c-7.4,11.6-16.2,19.2-30.5,19.2c-26.8,0-35.2-24.7-35.2-47.4c0-36.7,19.4-47.6,34.2-47.6
			c14.3,0,22.6,7.4,29.1,19.6l-10.7,5.5c-3.9-7.4-9.2-13.9-18.1-13.9c-18.3,0-22,22.2-22,36.3c0,14.3,3.3,36.5,22,36.5
			c10.7,0,16.2-6.5,21.7-14.8L768,276.5z"/>
		<path class="st0" d="M815.6,203.9h57.3v10.6H831c-2,0-3.6,1.6-3.6,3.6v20.2c0,2.1,1.7,3.7,3.7,3.7h33.8v10.6h-33.8
			c-2.1,0-3.8,1.7-3.8,3.8v25.2c0,2,1.6,3.6,3.6,3.6h41.9v10.6h-57.3V203.9z"/>
		<g>
			<path class="st0" d="M493.3,388.2l10.4-13.4c1.3-1.7,2.4-3,2.4-5.3c0-2.7-1.8-4.6-4.5-4.6c-3.3,0-5,2.6-5.4,5.6l-2.8-0.4
				c0.7-4.7,3.2-7.9,8.2-7.9c4.4,0,7.5,2.7,7.5,7.2c0,2.7-1.3,4.8-2.9,6.9l-9.2,11.9h12.1v2.5h-15.7V388.2z"/>
			<path class="st0" d="M534.2,376.7c0,4.5,0.8,14.4-7.8,14.4s-7.8-9.6-7.8-14.4c0-6.6-0.3-14.5,7.8-14.5
				C535.3,362.3,534.2,373.6,534.2,376.7z M521.5,376.7c0,11,2,11.8,4.9,11.8c3.2,0,4.9-1.3,4.9-11.8c0-10.9-1.9-11.8-4.9-11.8
				C521.1,364.9,521.5,371.1,521.5,376.7z"/>
			<path class="st0" d="M550.8,366.1l-5.1,2l-0.9-2.6l8.8-3.4v26.1h6v2.5h-15.9v-2.5h7.1V366.1z"/>
			<path class="st0" d="M582,365.2h-11.6v-2.5h15.7l-12.8,28.6l-2.5-1.1L582,365.2z"/>
			<path class="st0" d="M600.3,384.5h3.9v6.2h-3.9V384.5z"/>
			<path class="st0" d="M626.6,366.1l-5.1,2l-0.9-2.6l8.8-3.4v26.1h6v2.5h-15.9v-2.5h7.1V366.1z"/>
			<path class="st0" d="M651.9,366.1l-5.1,2l-0.9-2.6l8.8-3.4v26.1h6v2.5h-15.9v-2.5h7.1V366.1z"/>
			<path class="st0" d="M676.2,384.5h3.9v6.2h-3.9V384.5z"/>
			<path class="st0" d="M698.8,373.7l8.3-8.6h-11.7v-2.5H711v2.5l-7.8,8c4.4-0.1,8.1,2.5,8.1,7.2c0,3.8-2,6.7-5.1,8.6
				c-2.3,1.4-5.1,2.3-10.4,2.3v-2.7c4.6,0,6.6-0.5,8.1-1.3c2.5-1.3,4.5-3.8,4.5-6.7c0-3.6-3.2-4.7-6.3-4.7c-1.1,0-2.2,0.2-3.3,0.3
				V373.7z"/>
			<path class="st0" d="M728.7,368.9c-2.8,2.7-3.9,6.7-3.9,10.5c0,3.8,1.1,7.8,3.9,10.5l-1.3,1.3c-3.3-2.8-4.9-7.6-4.9-11.8
				s1.5-8.9,4.9-11.7L728.7,368.9z"/>
			<path class="st0" d="M740.5,367.9h10.4v1.9h-8.2v7h6.9v1.9h-6.9V389h-2.1V367.9z"/>
			<path class="st0" d="M759.1,367.9h5.7c2.1,0,4.7,1.8,4.7,5.6c0,2.6-1,5.1-3.6,5.9l4.4,9l-1.9,0.9l-4.7-9.8h-2.4v9.4h-2.1V367.9z
				 M761.2,377.7h3.1c1.8,0,3-1.4,3-4.2c0-2.7-1.3-3.7-3.5-3.7h-2.6V377.7z"/>
			<path class="st0" d="M781.3,369.8h-2.8v-1.9h7.8v1.9h-2.9v17.3h2.9v1.9h-7.8v-1.9h2.8V369.8z"/>
			<path class="st0" d="M799.4,367.6c3.3,2.8,4.9,7.5,4.9,11.7s-1.5,8.9-4.9,11.8l-1.3-1.3c2.8-2.7,3.9-6.7,3.9-10.5
				c0-3.8-1.1-7.8-3.9-10.5L799.4,367.6z"/>
			<path class="st0" d="M818.8,378.4h9.4v2.7h-9.4V378.4z"/>
			<path class="st0" d="M841.9,362.6h14.4v2.5h-11.6v8.6c1.4-0.5,2.7-0.9,4.2-0.9c4.1,0,7.6,2.8,7.6,7.5c0,3.7-1.9,6.7-5,8.6
				c-2.2,1.4-5.1,2.1-10.5,2.1v-2.7c3.5,0,6.3-0.2,8.2-1.2c2.5-1.3,4.3-3.9,4.3-6.9c0-3-2-4.8-5-4.8c-1.8,0-3.2,0.7-4.7,1.5h-2
				V362.6z"/>
			<path class="st0" d="M874.1,368.9c-2.8,2.7-3.9,6.7-3.9,10.5c0,3.8,1.1,7.8,3.9,10.5l-1.3,1.3c-3.3-2.8-4.9-7.6-4.9-11.8
				s1.5-8.9,4.9-11.7L874.1,368.9z"/>
			<path class="st0" d="M892.9,372.7c-0.3-1.5-1.1-3.1-2.9-3.1c-2,0-2.8,1.6-2.8,3.4c0,1.7,0.3,2.2,3.7,4.2c2.6,1.5,4.4,2.8,4.4,6.1
				c0,3.3-1.8,5.9-5.3,5.9c-3.7,0-5.1-2.5-5.4-5.8l2.1-0.3c0.3,2.3,0.8,4.1,3.3,4.1c1.8,0,3.1-1.2,3.1-3.8c0-2.8-1.8-3.7-4-5
				c-2.4-1.4-4-2.4-4-5.5c0-2.8,1.9-5.4,4.9-5.4c3,0,4.4,2.1,5,4.8L892.9,372.7z"/>
			<path class="st0" d="M905.8,367.9v15.3c0,2.1,0.4,4,3,4s3.1-2,3.1-4v-15.3h2.1v16c0,3.3-2.1,5.4-5.2,5.4c-3.2,0-5.1-2.2-5.1-5.3
				v-16H905.8z"/>
			<path class="st0" d="M922.3,367.9h2.7l6.3,17.7l0.1-0.1l-0.1-4.7v-13h2.1V389h-2.7l-6.3-17.8l-0.1,0.1l0.1,4.8V389h-2.1V367.9z"
				/>
			<path class="st0" d="M944.8,367.6c3.3,2.8,4.9,7.5,4.9,11.7s-1.5,8.9-4.9,11.8l-1.3-1.3c2.8-2.7,3.9-6.7,3.9-10.5
				c0-3.8-1.1-7.8-3.9-10.5L944.8,367.6z"/>
		</g>
		<line class="st1" x1="491.6" y1="332.1" x2="955.5" y2="332.1"/>
		<g>
			<path class="st0" d="M940.7,259.2l-3.2-81.1h18l-3.5,81.1H940.7z M938.4,269.6h16.2v26.1h-16.2V269.6z"/>
		</g>
	</g>
	<g>
		<path class="st0" d="M127.8,332.1H93.1v-154h34.6l-17.3-30l133.3-77c-93.9,8.7-167.4,87.8-167.4,184s73.5,175.2,167.4,184
			l-133.3-77L127.8,332.1z"/>
		<path class="st0" d="M243.8,439.1c5.7,0.5,11.5,0.8,17.3,0.8c5.8,0,11.6-0.3,17.3-0.8l-17.3-30L243.8,439.1z"/>
		<path class="st0" d="M278.4,71.2c-5.7-0.5-11.5-0.8-17.3-0.8c-5.8,0-11.6,0.3-17.3,0.8l17.3,30L278.4,71.2z"/>
		<path class="st0" d="M394.4,178.1h34.6v154h-34.6l17.3,30l-133.3,77c93.9-8.7,167.4-87.8,167.4-184s-73.5-175.2-167.4-184
			l133.3,77L394.4,178.1z"/>
		<polygon class="st0" points="247.1,263.2 261.1,271.3 275.1,263.2 275.1,247 261.1,239 247.1,247 		"/>
		<polygon class="st0" points="334.8,281.5 289.1,255.1 275.1,263.2 275.1,279.4 320.8,305.7 305.5,332.1 394.4,332.1 350,255.1 		
			"/>
		<polygon class="st0" points="187.4,228.7 233.1,255.1 247.1,247 247.1,230.9 201.4,204.5 216.6,178.1 127.8,178.1 172.2,255.1 		
			"/>
		<polygon class="st0" points="247.1,279.4 247.1,263.2 233.1,255.1 187.4,281.5 172.2,255.1 127.8,332.1 216.6,332.1 201.4,305.7 
					"/>
		<polygon class="st0" points="275.1,279.4 261.1,271.3 247.1,279.4 247.1,332.1 216.6,332.1 261.1,409.1 305.5,332.1 275.1,332.1 
					"/>
		<polygon class="st0" points="275.1,230.9 275.1,247 289.1,255.1 334.8,228.7 350,255.1 394.4,178.1 305.5,178.1 320.8,204.5 		"/>
		<polygon class="st0" points="247.1,178.1 247.1,230.9 261.1,239 275.1,230.9 275.1,178.1 305.5,178.1 261.1,101.1 216.6,178.1 		
			"/>
	</g>
</g>
</svg>
