<?xml version="1.0" encoding="UTF-8" standalone="no"?>
<svg
   xmlns:dc="http://purl.org/dc/elements/1.1/"
   xmlns:cc="http://creativecommons.org/ns#"
   xmlns:rdf="http://www.w3.org/1999/02/22-rdf-syntax-ns#"
   xmlns:svg="http://www.w3.org/2000/svg"
   xmlns="http://www.w3.org/2000/svg"
   viewBox="0 0 1311.025 931.88751"
   height="931.88751"
   width="1311.025"
   xml:space="preserve"
   version="1.1"
   id="svg2"><metadata
     id="metadata8"><rdf:RDF><cc:Work
         rdf:about=""><dc:format>image/svg+xml</dc:format><dc:type
           rdf:resource="http://purl.org/dc/dcmitype/StillImage" /></cc:Work></rdf:RDF></metadata><defs
     id="defs6" /><g
     transform="matrix(1.25,0,0,-1.25,0,931.8875)"
     id="g10"><g
       transform="scale(0.1,0.1)"
       id="g12"><path
         id="path14"
         style="fill:#231f20;fill-opacity:1;fill-rule:nonzero;stroke:none"
         d="m 5087.38,4461.47 c 37.55,0 53.57,32.96 53.57,70.06 0,34.8 -10.51,70.54 -51.3,70.54 -21.98,0 -40.75,-15.11 -56.31,-29.76 0.44,-95.74 26.1,-110.84 54.04,-110.84 z m 55.41,233.13 c -14.19,12.36 -29.31,22.9 -49,22.9 -55.43,0 -59.09,-70.54 -60.45,-111.32 18.31,15.59 36.64,24.75 60.9,24.75 57.72,0 78.79,-47.64 78.79,-98.03 0,-54.5 -29.31,-100.3 -87.94,-100.3 -78.79,0 -83.81,95.26 -83.81,153.44 0,62.3 7.77,160.29 91.13,160.29 25.19,0 49.47,-9.61 67.78,-26.56 l -17.4,-25.17" /><path
         id="path16"
         style="fill:#231f20;fill-opacity:1;fill-rule:nonzero;stroke:none"
         d="m 5339.14,4461.47 c 37.55,0 53.58,32.96 53.58,70.06 0,34.8 -10.52,70.54 -51.3,70.54 -21.98,0 -40.76,-15.11 -56.33,-29.76 0.47,-95.74 26.11,-110.84 54.05,-110.84 z m 55.42,233.13 c -14.19,12.36 -29.32,22.9 -49,22.9 -55.44,0 -59.09,-70.54 -60.47,-111.32 18.31,15.59 36.64,24.75 60.91,24.75 57.72,0 78.78,-47.64 78.78,-98.03 0,-54.5 -29.32,-100.3 -87.94,-100.3 -78.78,0 -83.81,95.26 -83.81,153.44 0,62.3 7.79,160.29 91.16,160.29 25.17,0 49.46,-9.61 67.77,-26.56 l -17.4,-25.17" /><path
         id="path18"
         style="fill:#231f20;fill-opacity:1;fill-rule:nonzero;stroke:none"
         d="m 5575.8,4647.85 -65.95,0 0,27.5 161.22,0 0,-27.5 -64.58,0 0,-211.12 -30.69,0 0,211.12" /><path
         id="path20"
         style="fill:#231f20;fill-opacity:1;fill-rule:nonzero;stroke:none"
         d="m 5764.35,4675.35 30.69,0 0,-98.92 94.36,0 0,98.92 30.68,0 0,-238.62 -30.68,0 0,112.2 -94.36,0 0,-112.2 -30.69,0 0,238.62" /><path
         id="path22"
         style="fill:#231f20;fill-opacity:1;fill-rule:nonzero;stroke:none"
         d="m 6331.11,4714.75 -65.96,0 0,27.46 161.22,0 0,-27.46 -64.58,0 0,-278.02 -30.68,0 0,278.02" /><path
         id="path24"
         style="fill:#231f20;fill-opacity:1;fill-rule:nonzero;stroke:none"
         d="m 6641.5,4672.6 c -5.03,22.45 -16.04,44.9 -42.14,44.9 -28.85,0 -40.31,-23.38 -40.31,-49.02 0,-24.74 5.05,-32.5 53.13,-61.37 37.57,-22.45 63.21,-41.22 63.21,-88.38 0,-48.13 -25.64,-86.13 -76.94,-86.13 -54.06,0 -73.75,35.74 -78.33,84.27 l 30.69,4.12 c 4.12,-33.88 11.45,-59.52 48.55,-59.52 26.57,0 45.34,17.85 45.34,54.48 0,40.33 -26.1,54.06 -57.71,72.39 -35.26,20.59 -58.63,35.25 -58.63,80.14 0,41.23 27.5,77.85 71,77.85 43.06,0 64.12,-30.68 71.92,-69.16 l -29.78,-4.57" /><path
         id="path26"
         style="fill:#231f20;fill-opacity:1;fill-rule:nonzero;stroke:none"
         d="m 6805.34,4742.21 0,-222.11 c 0,-30.24 5.95,-58.63 43.96,-58.63 38.02,0 44.44,28.83 44.44,58.63 l 0,222.11 30.68,0 0,-231.28 c 0,-47.64 -29.78,-78.33 -75.12,-78.33 -46.25,0 -74.65,31.62 -74.65,76.96 l 0,232.65 30.69,0" /><path
         id="path28"
         style="fill:#231f20;fill-opacity:1;fill-rule:nonzero;stroke:none"
         d="m 7068.55,4616.28 8.25,0 85.2,131.91 24.72,-15.59 -83.81,-129.16 100.31,-157.11 -25.66,-15.54 -98.47,157.99 -10.54,0 0,-152.05 -30.69,0 0,305.48 30.69,0 0,-125.93" /><path
         id="path30"
         style="fill:#231f20;fill-opacity:1;fill-rule:nonzero;stroke:none"
         d="m 7308.88,4742.21 0,-222.11 c 0,-30.24 5.95,-58.63 43.97,-58.63 38.01,0 44.43,28.83 44.43,58.63 l 0,222.11 30.68,0 0,-231.28 c 0,-47.64 -29.77,-78.33 -75.11,-78.33 -46.25,0 -74.66,31.62 -74.66,76.96 l 0,232.65 30.69,0" /><path
         id="path32"
         style="fill:#231f20;fill-opacity:1;fill-rule:nonzero;stroke:none"
         d="m 7572.09,4616.28 8.26,0 85.18,131.91 24.74,-15.59 -83.82,-129.16 100.31,-157.11 -25.66,-15.54 -98.48,157.99 -10.53,0 0,-152.05 -30.69,0 0,305.48 30.69,0 0,-125.93" /><path
         id="path34"
         style="fill:#231f20;fill-opacity:1;fill-rule:nonzero;stroke:none"
         d="m 7803.69,4589.71 c 0,-82.45 9.63,-128.24 52.67,-128.24 53.14,0 52.69,75.1 52.69,128.24 0,57.7 1.37,127.79 -52.69,127.79 -54.04,0 -52.67,-82.89 -52.67,-127.79 z m 137.42,0 c 0,-38.48 1.37,-157.11 -84.75,-157.11 -87.02,0 -84.73,117.7 -84.73,157.11 0,50.38 3.21,156.62 84.73,156.62 86.12,0 84.75,-116.32 84.75,-156.62" /><path
         id="path36"
         style="fill:#231f20;fill-opacity:1;fill-rule:nonzero;stroke:none"
         d="m 8152.08,4742.21 38.47,0 9.17,-305.48 -32.54,0 -5.94,254.65 -0.92,0 -52.21,-153.43 -52.22,153.43 -0.91,0 -5.95,-254.65 -32.05,0 9.16,305.48 38,0 43.97,-129.61 43.97,129.61" /><path
         id="path38"
         style="fill:#231f20;fill-opacity:1;fill-rule:nonzero;stroke:none"
         d="m 8360.34,4701.47 -0.9,0 -33.91,-142.93 68.71,0 -33.9,142.93 z m -42.12,-170.39 -23.83,-100.29 -30.23,8.24 77.4,303.18 36.66,0 77.4,-303.18 -30.24,-8.24 -23.82,100.29 -83.34,0" /><path
         id="path40"
         style="fill:#231f20;fill-opacity:1;fill-rule:nonzero;stroke:none"
         d="m 8806.58,4742.21 150.23,0 0,-27.46 -119.52,0 0,-100.77 100.3,0 0,-27.5 -100.3,0 0,-149.75 -30.71,0 0,305.48" /><path
         id="path42"
         style="fill:#231f20;fill-opacity:1;fill-rule:nonzero;stroke:none"
         d="m 9049.63,4742.21 148.87,0 0,-27.46 -118.17,0 0,-100.77 97.55,0 0,-27.5 -97.55,0 0,-122.26 118.17,0 0,-27.49 -148.87,0 0,305.48" /><path
         id="path44"
         style="fill:#231f20;fill-opacity:1;fill-rule:nonzero;stroke:none"
         d="m 9410.85,4672.6 c -5.05,22.45 -16.03,44.9 -42.15,44.9 -28.84,0 -40.3,-23.38 -40.3,-49.02 0,-24.74 5.04,-32.5 53.13,-61.37 37.56,-22.45 63.23,-41.22 63.23,-88.38 0,-48.13 -25.67,-86.13 -76.96,-86.13 -54.05,0 -73.76,35.74 -78.32,84.27 l 30.68,4.12 c 4.12,-33.88 11.47,-59.52 48.54,-59.52 26.56,0 45.37,17.85 45.37,54.48 0,40.33 -26.12,54.06 -57.73,72.39 -35.25,20.59 -58.63,35.25 -58.63,80.14 0,41.23 27.5,77.85 70.99,77.85 43.07,0 64.15,-30.68 71.91,-69.16 l -29.76,-4.57" /><path
         id="path46"
         style="fill:#231f20;fill-opacity:1;fill-rule:nonzero;stroke:none"
         d="m 9597.58,4436.73 42.1484,0 0,67.7813 -42.1484,0 0,-67.7813 z" /><path
         id="path48"
         style="fill:#231f20;fill-opacity:1;fill-rule:nonzero;stroke:none"
         d="m 5214.49,3099.97 c 0,-20.2 16.37,-36.58 36.58,-36.58 l 60.34,0 c 142.74,0 251.98,37.01 251.98,481.06 0,447.59 -119.83,482.83 -223.79,482.83 l -88.22,0 c -20.38,0 -36.89,-16.52 -36.89,-36.9 l 0,-890.41 z m -213.21,927.31 0,105.72 310.13,0 c 236.12,0 375.32,-103.95 375.32,-588.55 0,-259.02 -14.09,-586.78 -371.78,-586.78 l -313.67,0 0,105.72 58.56,0 c 20.2,0 36.59,16.38 36.59,36.58 l 0,890.54 c 0,20.31 -16.46,36.77 -36.77,36.77 l -58.38,0" /><path
         id="path50"
         style="fill:#231f20;fill-opacity:1;fill-rule:nonzero;stroke:none"
         d="m 6189.08,3063.39 93.81,0 c 19.23,0 34.83,15.6 34.83,34.83 l 0,635.5 c 0,20.04 -16.24,36.27 -36.27,36.27 l -92.37,0 0,105.72 377.1,0 0,-105.72 -95.12,0 c -19.48,0 -35.28,-15.79 -35.28,-35.28 l 0,-635.67 c 0,-19.69 15.95,-35.65 35.64,-35.65 l 94.76,0 0,-105.72 -377.1,0 0,105.72" /><path
         id="path52"
         style="fill:#231f20;fill-opacity:1;fill-rule:nonzero;stroke:none"
         d="m 7764.57,3149.71 c -74.01,-116.28 -162.13,-192.04 -304.84,-192.04 -267.85,0 -352.44,246.68 -352.44,474 0,366.51 193.84,475.77 341.86,475.77 142.73,0 225.54,-74.03 290.74,-195.58 l -107.49,-54.64 c -38.77,73.98 -91.63,139.18 -181.48,139.18 -183.28,0 -220.27,-221.99 -220.27,-362.95 0,-142.74 33.47,-364.79 220.27,-364.79 107.47,0 162.1,65.21 216.71,148.02 l 96.94,-66.97" /><path
         id="path54"
         style="fill:#231f20;fill-opacity:1;fill-rule:nonzero;stroke:none"
         d="m 8240.48,3875.71 572.67,0 0,-105.72 -418.45,0 c -19.97,0 -36.16,-16.18 -36.16,-36.16 l 0,-201.5 c 0,-20.57 16.68,-37.24 37.25,-37.24 l 338.09,0 0,-105.71 -337.69,0 c -20.79,0 -37.65,-16.86 -37.65,-37.65 l 0,-252.39 c 0,-19.86 16.1,-35.95 35.96,-35.95 l 418.65,0 0,-105.72 -572.67,0 0,918.04" /><path
         id="path56"
         style="fill:#231f20;fill-opacity:1;fill-rule:nonzero;stroke:none"
         d="m 9468.8,3218.47 162.11,0 0,-260.8 -162.11,0 0,260.8 z m 22.91,103.95 -31.72,810.58 179.74,0 -35.24,-810.58 -112.78,0" /><path
         id="path58"
         style="fill:#231f20;fill-opacity:1;fill-rule:nonzero;stroke:none"
         d="m 1362.4,2957.67 -346.24,0 0,1539.74 346.24,0 -173.13,299.86 1333.37,769.82 C 1583.42,5479.74 848.16,4689.57 848.16,3727.54 c 0,-962.03 735.26,-1752.21 1674.48,-1839.55 l -1333.37,769.82 173.13,299.86" /><path
         id="path60"
         style="fill:#231f20;fill-opacity:1;fill-rule:nonzero;stroke:none"
         d="m 2522.76,1887.98 c 57,-5.29 114.72,-8.13 173.1,-8.13 58.37,0 116.09,2.84 173.09,8.13 l -173.09,299.81 -173.1,-299.81" /><path
         id="path62"
         style="fill:#231f20;fill-opacity:1;fill-rule:nonzero;stroke:none"
         d="m 2868.95,5567.1 c -57,5.29 -114.72,8.13 -173.09,8.13 -58.38,0 -116.1,-2.84 -173.1,-8.13 l 173.1,-299.82 173.09,299.82" /><path
         id="path64"
         style="fill:#231f20;fill-opacity:1;fill-rule:nonzero;stroke:none"
         d="m 4029.31,4497.41 346.25,0 0,-1539.74 -346.25,0 173.13,-299.86 -1333.36,-769.82 c 939.21,87.34 1674.47,877.52 1674.47,1839.55 0,962.03 -735.26,1752.2 -1674.47,1839.55 l 1333.36,-769.82 -173.13,-299.86" /><path
         id="path66"
         style="fill:#231f20;fill-opacity:1;fill-rule:nonzero;stroke:none"
         d="m 2555.89,3646.73 139.97,-80.8 139.96,80.8 0,161.62 -139.96,80.8 -139.97,-80.8 0,-161.62" /><path
         id="path68"
         style="fill:#231f20;fill-opacity:1;fill-rule:nonzero;stroke:none"
         d="m 3432.56,3463.81 -456.78,263.73 -139.96,-80.81 0,-161.61 456.78,-263.72 -152.26,-263.73 888.97,0 -444.48,769.87 -152.27,-263.73" /><path
         id="path70"
         style="fill:#231f20;fill-opacity:1;fill-rule:nonzero;stroke:none"
         d="m 1959.15,3991.27 456.78,-263.73 139.96,80.81 0,161.61 -456.78,263.72 152.26,263.73 -888.97,0 444.48,-769.87 152.27,263.73" /><path
         id="path72"
         style="fill:#231f20;fill-opacity:1;fill-rule:nonzero;stroke:none"
         d="m 2555.89,3485.12 0,161.61 -139.96,80.81 -456.78,-263.73 -152.27,263.73 -444.48,-769.87 888.97,0 -152.26,263.73 456.78,263.72" /><path
         id="path74"
         style="fill:#231f20;fill-opacity:1;fill-rule:nonzero;stroke:none"
         d="m 2835.82,3485.12 -139.96,80.81 -139.97,-80.81 0,-527.45 -304.52,0 444.49,-769.88 444.48,769.88 -304.52,0 0,527.45" /><path
         id="path76"
         style="fill:#231f20;fill-opacity:1;fill-rule:nonzero;stroke:none"
         d="m 2835.82,3969.96 0,-161.61 139.96,-80.81 456.78,263.73 152.27,-263.73 444.48,769.87 -888.97,0 152.26,-263.73 -456.78,-263.72" /><path
         id="path78"
         style="fill:#231f20;fill-opacity:1;fill-rule:nonzero;stroke:none"
         d="m 2555.89,4497.41 0,-527.45 139.97,-80.81 139.96,80.81 0,527.45 304.52,0 -444.48,769.87 -444.49,-769.87 304.52,0" /></g></g></svg>