<?xml version="1.0" encoding="utf-8"?>
<!-- Generator: Adobe Illustrator 21.0.2, SVG Export Plug-In . SVG Version: 6.00 Build 0)  -->
<svg version="1.1" id="レイヤー_1" xmlns="http://www.w3.org/2000/svg" xmlns:xlink="http://www.w3.org/1999/xlink" x="0px"
	 y="0px" viewBox="0 0 425.2 425.2" style="enable-background:new 0 0 425.2 425.2;" xml:space="preserve">
<style type="text/css">
	.st0{fill:#E4007F;}
	.st1{fill:#FFFFFF;}
</style>
<rect class="st0" width="425.2" height="425.2"/>
<g>
	<path class="st1" d="M354.3,124.7c-10.4,4.6-21.6,7.8-33.4,9.2c12-7.2,21.2-18.6,25.6-32.2c-11.2,6.7-23.7,11.5-36.9,14.1
		c-10.6-11.3-25.7-18.4-42.4-18.4c-32.1,0-58.2,26-58.2,58.2c0,4.6,0.5,9,1.5,13.3c-48.3-2.4-91.2-25.6-119.9-60.8
		c-5,8.6-7.9,18.6-7.9,29.2c0,20.2,10.3,38,25.9,48.4c-9.5-0.3-18.5-2.9-26.3-7.3c0,0.2,0,0.5,0,0.7c0,28.2,20,51.7,46.7,57
		c-4.9,1.3-10,2-15.3,2c-3.7,0-7.4-0.4-10.9-1c7.4,23.1,28.9,39.9,54.3,40.4c-19.9,15.6-45,24.9-72.2,24.9c-4.7,0-9.3-0.3-13.9-0.8
		c25.7,16.5,56.3,26.1,89.1,26.1c107,0,165.5-88.6,165.5-165.5c0-2.5-0.1-5-0.2-7.5C336.7,146.6,346.5,136.3,354.3,124.7
		L354.3,124.7z"/>
</g>
</svg>
