<?xml version="1.0" encoding="utf-8"?>
<!-- Generator: Adobe Illustrator 21.0.2, SVG Export Plug-In . SVG Version: 6.00 Build 0)  -->
<svg version="1.1" id="レイヤー_1" xmlns="http://www.w3.org/2000/svg" xmlns:xlink="http://www.w3.org/1999/xlink" x="0px"
	 y="0px" viewBox="0 0 425.2 425.2" style="enable-background:new 0 0 425.2 425.2;" xml:space="preserve">
<style type="text/css">
	.st0{fill:none;stroke:#000000;stroke-width:4.4291;stroke-miterlimit:10;}
	.st1{fill:#FFFFFF;stroke:#FFFFFF;stroke-width:2.2146;stroke-miterlimit:10;}
	.st2{fill:none;stroke:#FFFFFF;stroke-width:2.2146;stroke-miterlimit:10;}
	.st3{fill:#D83A35;}
	.st4{fill:#FFFFFF;}
</style>
<path class="st0" d="M145.6,514.1"/>
<path class="st1" d="M145.6,495"/>
<path class="st2" d="M145.6,494.1"/>
<path class="st2" d="M145.6,493.9"/>
<path class="st2" d="M145.6,487.9"/>
<path class="st1" d="M145.6,496.4"/>
<path class="st1" d="M145.6,517.8"/>
<path class="st2" d="M145.6,490.7"/>
<path class="st2" d="M145.6,517.8"/>
<g>
	<g>
		<path class="st3" d="M0,376.6c0,26.8,21.8,48.6,48.6,48.6h328c26.8,0,48.6-21.8,48.6-48.6v-328c0-26.8-21.8-48.6-48.6-48.6h-328
			C21.8,0,0,21.8,0,48.6V376.6z"/>
	</g>
	<g>
		<path class="st4" d="M145.3,74.5c11.2,2.5,16.5,9.9,16.5,9.9c60.5,33.3,92.1,35.5,92.1,35.5c18.9-7.9,47.1,11,53.7,23.6
			c8.5,16.4,32.9,57.8,32.9,57.8c3.2,4.2,5.6,13.1,2.6,17.6c-2.4,3.6-12.2-6-17.6-2.8c-11.8,6.8-33.2,27.9-40.8,37.8
			c-9.9,13.1-1.8,23.9-1.8,23.9c-24.4,12.8-48.8,14.7-79.5-14.3c0,0-4.2-43.9-13.1-54.2c-6.2-7.1-16.9-20.5-26.1-22.6
			c-6.8-1.6-23.7,6.8-30.5,5.2c-9.1-2.1-21.3-18.1-28.6-23.7c-12.2-9.4-37.5-22.9-46.8-35.5c-5.7-7.6-13.8-21.4-7.7-37.9
			c1-2.8,5-2.7,6.2-5.4c1.7-3.7,5.8-8.7,8.9-10.6c5.1-3,18.2-2.7,23.6-5.2c2.2-1.1,6.6-7.3,6.6-7.3c5.2-24.3,41.7-21.1,46.8,7.4
			C143,75.4,145.3,74.5,145.3,74.5z"/>
		<path class="st4" d="M339.9,227.3c-9.2-5.8-10.9-4.5-10.9-4.5c-8.2,6.3-37.4,33.9-41.3,46.8c-1.1,3.9,1.7,10.2,2.6,14.1
			c0.2,1,1.8,2.9,2.2,3.9c2.1,5.9,1.7,19.2,6.8,23c13.1,9.6,17.7,4.5,24.4,1.7c9.1-3.6,24.7-16.4,31-23.8
			c6.5-7.7,15.8-26.2,18.9-35.9c1.6-4.8,4-15,3-19.9c-5-22.5-22.4-13.1-28.4-9.5C346,224.5,342,228.7,339.9,227.3z"/>
		<path class="st3" d="M321.7,286.7C321.7,286.7,321.7,286.7,321.7,286.7c-1.1,0-1.9-0.9-1.9-2c0.1-2,2-48.6,20.8-60.5
			c0.9-0.6,2.1-0.3,2.6,0.6c0.6,0.9,0.3,2.1-0.6,2.6c-17.1,10.9-19,57-19,57.4C323.6,285.9,322.7,286.7,321.7,286.7z"/>
		<path class="st4" d="M290.9,316.1c-4.4,0.8-12.5,4.9-16.2,7.3c-6.1,3.9-4.4,7.6-0.3,8.3c4,0.7,12.5-3.6,16.1-1.7
			c1.9,1,3.4,5.6,2.6,7.7c-2.8,7.9-18.7,17.4-22.4,24.8c-5.6,11.2,1.4,10.6,7.6,7.3c4.8-2.6,19.1-12.9,19.9-14.7
			c4.9-10.6,8.6-10.9,16.4-14c2-0.8,4.3,26.4,9.4,31c9,8.1,12.9-1.7,11.7-7.1c-1.7-7.7-9.1-14.5-5.9-21.7
			c5.2-11.5,27.1-46.7,27.1-46.7s-23.7,22.7-36.1,26c-3.3,0.9-9.1,1.4-12.5,0.9c-4-0.5-9.8-6.5-13.6-7.6
			C293.6,315.6,292,315.9,290.9,316.1z"/>
		<path class="st4" d="M141.4,200.2c6.4-5.3,14.9-7.7,21.4-5.4c9.3,3.3,20.4,16.4,25.5,24.8c5.7,9.5,7.1,36.7,10.3,46.7
			c1.9,5.9,3.5,16,4.9,22c2.3,9.6,3,31.3,0,39.6c-3.2,8.6-22.1,13.6-31.2,13.7c-11.5,0.2-28.4-7.1-46.6-6.1
			c-5.6,0.3-17.4-0.4-22.2,2.3c-6.6,3.7-11.7-6.5-4.7-10c5.8-2.9,20.7,0,20-5.2c-0.3-2.5-22.2-5-30.8-8.6
			c-13.9-5.9-2.7-20.1,7.5-11.3c0,0,44.9,12.9,54.2,11.3c4.2-0.7-12.2-4.2-15.8-6.5c-10-6.5-3.6-18.5,8.8-9.9
			c4.4,3,13.1,9.4,18.1,11.1c1.4,0.5,5.8,0.6,5.8,0.6s2.9-34.2,6.4-46.2c1.4-4.8-4.5-14.4-7-18.7c-4.2-7.3-17.1-18.8-21.6-25.9
			C141.7,214.3,136.1,204.6,141.4,200.2z"/>
		<path class="st4" d="M129.3,210.8c2.5-1,4.4,15.3,22.5,27.2c2.2,1.5-0.4,6.8-0.3,9.5c0.4,6.7,3,26.6,3,26.6s-6.9,6.7-7.3,9.7
			c-0.6,4.9,10.9,14.9,7.3,18.2c0,0-11.8-5-15.1-7.7c-3-2.6-5.4-13.2-9.4-12.9c-3.1,0.3-4.5,8.2-5.6,11.2c-0.8,2.3-2.1,7.3-3.7,9.1
			c-1.3,1.5-3.8,3.2-5.8,3.6l-9-2.1c-0.4-2.4,6.3-3,7.5-4.9c1.4-2.2,3.5-9.3,1.6-11.1c-5.2-4.9-23,7.6-27.5,8
			c-9.2,0.9-12.1-7.1-3.5-9.8c5.8-1.8,17-1.8,21.4-6c5.4-5.1,14.8-17.9,17.3-25.1c2.4-7,6.5-22.8,3.4-29.5
			C124.7,221.4,126.1,212.1,129.3,210.8z"/>
		
			<ellipse transform="matrix(0.5041 -0.8636 0.8636 0.5041 -53.4591 150.8692)" class="st3" cx="104.6" cy="122" rx="18.6" ry="20.9"/>
		<path class="st3" d="M275.7,230.6c-0.2-0.4-23.4-45.1-59.4-69.2c-38.6-25.8-83.5-31.9-83.9-32l0.8-6c1.9,0.2,46.7,6.4,86.5,32.9
			c37.4,25,60.5,69.6,61.5,71.5L275.7,230.6z"/>
		<path class="st4" d="M59.9,141.2c0,0,36.3,29.6,48,33.6c5.4,1.9,8.9,10.6,12.7,14.1c3.4,3-18.2-0.3-22.1-2.6
			C86,179,59.9,141.2,59.9,141.2z"/>
	</g>
</g>
</svg>
