<?xml version="1.0" encoding="utf-8"?>
<!-- Generator: Adobe Illustrator 21.0.2, SVG Export Plug-In . SVG Version: 6.00 Build 0)  -->
<svg version="1.1" id="レイヤー_1" xmlns="http://www.w3.org/2000/svg" xmlns:xlink="http://www.w3.org/1999/xlink" x="0px"
	 y="0px" viewBox="0 0 425.2 425.2" style="enable-background:new 0 0 425.2 425.2;" xml:space="preserve">
<style type="text/css">
	.st0{fill:none;stroke:#000000;stroke-width:4.4291;stroke-miterlimit:10;}
	.st1{fill:#FFFFFF;}
</style>
<path class="st0" d="M145.6,514.1"/>
<g>
	<g>
		<path d="M0,376.6c0,26.8,21.8,48.6,48.6,48.6h328c26.8,0,48.6-21.8,48.6-48.6v-328c0-26.8-21.8-48.6-48.6-48.6h-328
			C21.8,0,0,21.8,0,48.6V376.6z"/>
	</g>
	<g>
		<path class="st1" d="M289.9,39.9c10.6-4.1,14.1,2,13.2,6.7c-0.9,4.6,0,51.2,0,69.6c0,16.3-1,96.1-1.2,118c4.1,0.2,5.7,0.5,5.7,0.9
			c0,0.8,0.2,7.7,0.2,7.7l-2.3,0.1c0,0,2.8,0.3,3.4,4.6c0.4,2.6,2.6,98.6,4.4,112.2c1.8,13.6-9.9,26.2-26.6,26.2
			s-20.3-14.2-18.5-27.8c1.8-13.6-4.1-108.1-3.7-110.7c0.6-4.3,3.4-4.6,3.4-4.6l5.8-1.7c0,0,0.2-6.9,0.2-7.7c0-0.4,1.5-0.7,5.5-0.9
			c-0.6-12-7.1-23.3-15.9-24.7c-9.7-1.5-16.9-10.2-17.7-16.9C239.5,43.7,279.4,44,289.9,39.9z"/>
		<path class="st1" d="M177,150.8c2.9-11.3-4.3-105.9-9.3-106.9c-5-1.1-3.2,76.9-5,80.1c-1.4,2.4-7.2,2.7-7.2-1.1
			c0-3.8-1.1-79-4.7-79s-1.9,76-4.3,78.4c-1.1,1.1-4.7,2.4-4.7,2.4s-3.6-1.3-4.7-2.4c-2.4-2.4-0.7-78.4-4.3-78.4
			c-3.6,0-4.7,75.2-4.7,79c0,3.8-5.7,3.5-7.2,1.1c-1.9-3.1,0-81.1-5-80.1c-5,1.1-12.2,95.6-9.3,106.9c2.9,11.3,19.4,21,24.4,29
			c3.6,5.7-0.1,33.9-2.6,49.6c-3.3,0.2-4.6,0.5-4.6,0.9c0,0.8-0.1,7.9-0.1,7.9l2,0.1c0,0-2.4,0.3-2.9,4.7c-0.3,2.7-2.3,101-3.7,115
			c-1.5,14,8.5,26.9,22.8,26.9c14.3,0,24.3-12.9,22.8-26.9c-1.5-14-3.4-112.3-3.8-115c-0.5-4.4-2.9-4.7-2.9-4.7l2-0.1
			c0,0-0.1-7.1-0.1-7.9c0-0.4-1.3-0.7-4.6-0.9c-2.4-15.7-6.1-43.8-2.6-49.6C157.6,171.8,174.1,162.1,177,150.8z"/>
	</g>
</g>
</svg>
