<?xml version="1.0" encoding="utf-8"?>
<!-- Generator: Adobe Illustrator 21.0.2, SVG Export Plug-In . SVG Version: 6.00 Build 0)  -->
<svg version="1.1" id="レイヤー_1" xmlns="http://www.w3.org/2000/svg" xmlns:xlink="http://www.w3.org/1999/xlink" x="0px"
	 y="0px" viewBox="0 0 425.2 425.2" style="enable-background:new 0 0 425.2 425.2;" xml:space="preserve">
<style type="text/css">
	.st0{fill:#0075C2;}
	.st1{fill:#FFFFFF;}
</style>
<g>
	<g>
		<path class="st0" d="M0,376.6c0,26.8,21.8,48.6,48.6,48.6h328c26.8,0,48.6-21.8,48.6-48.6v-328c0-26.8-21.8-48.6-48.6-48.6h-328
			C21.8,0,0,21.8,0,48.6V376.6z"/>
	</g>
	<g>
		<path class="st0" d="M376.6,12.1c20.1,0,36.4,16.3,36.4,36.4v328c0,20.1-16.3,36.4-36.4,36.4h-328c-20.1,0-36.4-16.3-36.4-36.4
			v-328c0-20.1,16.3-36.4,36.4-36.4H376.6 M376.6,0h-328C21.8,0,0,21.8,0,48.6v328c0,26.8,21.8,48.6,48.6,48.6h328
			c26.8,0,48.6-21.8,48.6-48.6v-328C425.2,21.8,403.4,0,376.6,0L376.6,0z"/>
		<circle class="st1" cx="127.6" cy="82.8" r="28.9"/>
		<path class="st1" d="M191.1,159.7h-127v0c0-18.8,15.2-34,34-34h59C175.8,125.7,191.1,140.9,191.1,159.7L191.1,159.7z"/>
		<path class="st1" d="M75.4,273.1L75.4,273.1c-6.3,0-11.3-5.1-11.3-11.3v-102h22.7v102C86.7,268,81.7,273.1,75.4,273.1z"/>
		<path class="st1" d="M179.7,273.1L179.7,273.1c-6.3,0-11.3-5.1-11.3-11.3v-102h22.7v102C191.1,268,186,273.1,179.7,273.1z"/>
		<rect x="91.3" y="159.7" class="st1" width="72.6" height="90.7"/>
		<polygon class="st1" points="119,413 99.8,413 91.3,250.4 127.6,250.4 		"/>
		<polygon class="st1" points="155.3,413 136.1,413 127.6,250.4 163.8,250.4 		"/>
		<circle class="st1" cx="297.6" cy="82.8" r="28.9"/>
		<path class="st1" d="M361.1,159.7h-127v0c0-18.8,15.2-34,34-34h59C345.9,125.7,361.1,140.9,361.1,159.7L361.1,159.7z"/>
		<path class="st1" d="M349.8,273.1L349.8,273.1c-6.3,0-11.3-5.1-11.3-11.3v-102h22.7v102C361.1,268,356.1,273.1,349.8,273.1z"/>
		<rect x="261.4" y="159.7" class="st1" width="72.6" height="90.7"/>
		<polygon class="st1" points="289.1,413 269.9,413 261.4,250.4 297.6,250.4 		"/>
		<polygon class="st1" points="325.4,413 306.2,413 297.6,250.4 333.9,250.4 		"/>
		<path class="st1" d="M239.8,223.3L239.8,223.3c-6.2-0.6-10.8-6.1-10.3-12.3l4.6-51.1c0.6-6.2,6.1-10.8,12.3-10.3h0
			c6.2,0.6,10.8,6.1,10.3,12.3l-4.6,51.1C251.6,219.3,246,223.9,239.8,223.3z"/>
		<path class="st1" d="M249.6,218.7L249.6,218.7c-3.6,5.1-10.7,6.4-15.8,2.8l-51.1-35.8c-5.1-3.6-6.4-10.7-2.8-15.8l0,0
			c3.6-5.1,10.7-6.4,15.8-2.8l51.1,35.8C251.9,206.5,253.2,213.6,249.6,218.7z"/>
		<path class="st1" d="M231.3,142.6v4.5c0,4.6-1.8,8.7-4.7,11.8c-2.9,3-7,5-11.5,5.2c0,0-0.1,0-0.1,0h-0.4c0,0-0.1,0-0.1,0
			c-4.6-0.2-8.6-2.1-11.5-5.2c-2.9-3-4.7-7.2-4.7-11.8v-4.5h-5.1v4.5c0,5.9,2.3,11.3,6.1,15.3c3.3,3.5,7.8,5.9,12.8,6.6v9.7h5.4
			v-9.7c5-0.7,9.5-3.1,12.8-6.6c3.8-4,6.1-9.4,6.1-15.3v-4.5H231.3z"/>
		<path class="st1" d="M215.2,160.1c-0.1,0-0.3,0-0.4,0c-0.1,0-0.3,0-0.4,0H215.2z"/>
		<path class="st1" d="M210.6,147.1H202c0.1,7.1,5.7,12.8,12.7,13c7-0.2,12.6-5.9,12.7-13h-8.5v-2.4h8.5V140h-8.5v-2.4h8.5V133h-8.5
			v-2.4h8.5V126h-8.5v-2.4h8.5c-0.4-5-4.6-8.9-9.7-8.9h-5.9c-5.1,0-9.3,3.9-9.7,8.9h8.5v2.4H202v4.6h8.5v2.4H202v4.6h8.5v2.4H202
			v4.6h8.5V147.1z"/>
		<g>
			<rect x="212" y="178.6" class="st1" width="5.4" height="212.6"/>
			<rect x="193.8" y="378" transform="matrix(0.5 0.866 -0.866 0.5 445.2002 30.186)" class="st1" width="5.4" height="45.4"/>
			<rect x="230.3" y="378" transform="matrix(0.5 -0.866 0.866 0.5 -230.4556 402.1346)" class="st1" width="5.4" height="45.4"/>
		</g>
	</g>
</g>
</svg>
