<?xml version="1.0" encoding="utf-8"?>
<!-- Generator: Adobe Illustrator 21.0.2, SVG Export Plug-In . SVG Version: 6.00 Build 0)  -->
<svg version="1.1" id="レイヤー_1" xmlns="http://www.w3.org/2000/svg" xmlns:xlink="http://www.w3.org/1999/xlink" x="0px"
	 y="0px" viewBox="0 0 425.2 425.2" style="enable-background:new 0 0 425.2 425.2;" xml:space="preserve">
<style type="text/css">
	.st0{fill:none;stroke:#000000;stroke-width:4.4291;stroke-miterlimit:10;}
	.st1{fill:#FFFFFF;stroke:#FFFFFF;stroke-width:2.2146;stroke-miterlimit:10;}
	.st2{fill:none;stroke:#FFFFFF;stroke-width:2.2146;stroke-miterlimit:10;}
	.st3{fill:#0075C2;}
	.st4{fill:#FFFFFF;}
</style>
<path class="st0" d="M145.6,514.1"/>
<path class="st1" d="M145.6,495"/>
<path class="st2" d="M145.6,494.1"/>
<path class="st2" d="M145.6,493.9"/>
<path class="st2" d="M145.6,487.9"/>
<path class="st1" d="M145.6,496.4"/>
<path class="st1" d="M145.6,517.8"/>
<path class="st2" d="M145.6,490.7"/>
<path class="st2" d="M145.6,517.8"/>
<g>
	<g>
		<path class="st3" d="M0,376.6c0,26.8,21.8,48.6,48.6,48.6h328c26.8,0,48.6-21.8,48.6-48.6v-328c0-26.8-21.8-48.6-48.6-48.6h-328
			C21.8,0,0,21.8,0,48.6V376.6z"/>
	</g>
	<path class="st4" d="M181.3,328.7c-0.1,1.8-0.5,3.4-1.1,4.9l12.2,1.2c6,0.8,12.1,1.2,18.3,1.2c5,0,9.9-0.3,14.7-0.7
		c-3.4-3.8-5.5-8.9-6.4-15.6c-1.8-12.1-1.2-24.3-0.3-36.4c0.2-3.2,0.5-6.4,0.8-10.4c-12.8,0.4-25.4,0.8-37.5,1.2
		c0,7,0.1,13.1,0,19.3C181.8,305.2,181.8,317,181.3,328.7z"/>
	<path class="st4" d="M150.8,330.6c-0.2-1.1-0.4-2.3-0.4-3.5c-0.3-13.2-1.4-26.4-2.1-39.6c-0.4-7.8-1.1-15.6-1-23.5
		c0.1-6.9,3.2-12.7,9.3-16.5c-1.3-2.5-2.9-4.7-3.5-7.2c-1.9-6.9,1.3-13,8.4-16.1c10.6-4.8,20.1-11.1,27.2-20.2
		c8.9-11.5,13.2-24.5,12.5-38.8c-0.3-6,1.6-10.9,7.2-14c5.1-2.8,10.4-2.7,15.4,0.5c4.1,2.5,6.2,6.2,6.3,10.8
		c1.1,30.1-10.1,54.9-34.6,74.1c-0.2,0.2-0.4,0.4-1.4,1.3c5.2-0.4,9.7-0.8,14.2-1.2c0.3,0,0.6-0.7,0.8-1.1c0.2-0.4,0.4-0.9,0.4-1.4
		c0.5-7.1,4-12.8,8-18.6c9.3-13.7,14-28.9,14.4-45.2c0.1-2.6,0.1-5.3-0.1-7.9c-0.3-8.5-7.6-15-16.5-14.9c-8.8,0.1-16,6.9-16.1,15.4
		c0,1.4,0,2.7,0,4.1c-2.8-4.3-1.7-12.6,2.3-17.8c8.2-10.7,24.2-11,33.1-0.4c15,17.9,24.9,38.2,29.8,60.6c2.6,11.7,4,23.6,2.6,35.6
		c-0.4,3.5-1.7,7.1-3.3,10.3c-1.4,2.8-2.7,5.5-3.3,8.6c-2.8,14.9-5.8,29.9-6.4,45.1c0,0.8,0,1.5,0,2.8c5.8-0.3,11.3-0.2,16.8-0.9
		c9.4-1.2,18.8-2.9,28.2-4.5c8-1.3,15.8,3.2,17.8,10.5c0.9,3.2,0.6,6.4-0.5,9.2l39.7-4l25-38l-31.7-130.3l-0.1,0.1
		C332.5,93.3,276.8,48.5,210.7,48.5c-72.1,0-131.8,53-142.2,122.2l-24.7,113l25.4,38.6L150.8,330.6z M185.1,83.6
		c18.5,0,33.4,14.3,33.5,32c0.1,17.7-14.9,32.1-33.6,32.1c-18.6,0-33.3-14.2-33.4-31.9C151.6,97.8,166.5,83.5,185.1,83.6z"/>
	<path class="st4" d="M386.3,302l3.8-5.4l-6.7-4.7l-19.7,29.9l5.9,4.1l3.7-5.3l0.7-0.1l14.7,10.3v27.6H36.5v-27.6l14.7-10.3l0.8,0.1
		l3.7,5.3l5.9-4.1l-19.7-29.9l-6.7,4.7l3.8,5.4l-26.7,18.7v11.9l7.2,10.2l10.5-7.4v22.9H12.5c0.2,2.1,0.5,4.1,0.9,6.1h398.4l0,0
		c0.4-2,0.7-4,0.9-6.1l0,0h-17.4v-22.9l10.5,7.4l7.2-10.2l0,0v-11.9l0,0L386.3,302z"/>
</g>
</svg>
