<?xml version="1.0" encoding="utf-8"?>
<!-- Generator: Adobe Illustrator 21.0.2, SVG Export Plug-In . SVG Version: 6.00 Build 0)  -->
<svg version="1.1" id="レイヤー_1" xmlns="http://www.w3.org/2000/svg" xmlns:xlink="http://www.w3.org/1999/xlink" x="0px"
	 y="0px" viewBox="0 0 425.2 425.2" style="enable-background:new 0 0 425.2 425.2;" xml:space="preserve">
<style type="text/css">
	.st0{fill:none;stroke:#000000;stroke-width:4.4291;stroke-miterlimit:10;}
	.st1{fill:#FFFFFF;stroke:#FFFFFF;stroke-width:2.2146;stroke-miterlimit:10;}
	.st2{fill:none;stroke:#FFFFFF;stroke-width:2.2146;stroke-miterlimit:10;}
	.st3{fill:#753187;}
	.st4{fill:#FFFFFF;}
</style>
<path class="st0" d="M145.6,514.1"/>
<path class="st1" d="M145.6,495"/>
<path class="st2" d="M145.6,494.1"/>
<path class="st2" d="M145.6,493.9"/>
<path class="st2" d="M145.6,487.9"/>
<path class="st1" d="M145.6,496.4"/>
<path class="st1" d="M145.6,517.8"/>
<path class="st2" d="M145.6,490.7"/>
<path class="st2" d="M145.6,517.8"/>
<g>
	<g>
		<path class="st3" d="M0,376.6c0,26.8,21.8,48.6,48.6,48.6h328c26.8,0,48.6-21.8,48.6-48.6v-328c0-26.8-21.8-48.6-48.6-48.6h-328
			C21.8,0,0,21.8,0,48.6V376.6z"/>
	</g>
	<path class="st4" d="M190.5,41c5.2,6.3,10.6,12.5,15.7,18.9c19,23.6,38.1,47.1,56.9,70.9c8.9,11.3,14.8,24,16.7,38.4
		c1.9,14.8-0.8,28.9-7.2,42.2c-7.9,16.3-19.5,29.5-33.8,40.5c-0.5,0.4-1,0.7-1.6,1c-0.4,0.2-0.8,0.2-2.2,0.6c0.8-1.8,1.2-3,1.9-4.1
		c6.3-10.2,11.8-20.8,15.8-32.2c3.4-9.7,5.6-19.6,5-29.9c-0.4-6.4-2-12.5-5.6-17.9c-14.3-21.7-33.1-38.2-57.3-48.1
		c-0.8-0.3-1.6-0.6-2.7-1c-1.4,5.8-2.8,11.5-4.1,17.2c-10.8,45.7-21.7,91.4-32.3,137.2c-1.8,7.9-3.9,15.5-9,22
		c-9.3,11.9-21.9,18.3-36.6,20.5c-14.9,2.2-29.1-0.4-42-8.6c-11-7-18.7-16.6-21-29.8c-2.6-14.7,2-27.4,12.6-37.6
		c21.4-20.6,56.5-21.7,79.5-3c0.7,0.6,1.4,1.1,2.4,1.8c1.9-8.1,3.8-15.8,5.6-23.6c13.6-57.4,27.1-114.8,40.7-172.1
		c0.3-1.2,1-2.3,1.5-3.4H190.5z"/>
	
		<rect x="171.8" y="307.3" transform="matrix(0.8981 -0.4397 0.4397 0.8981 -112.1979 138.1721)" class="st4" width="140.8" height="7.9"/>
	<path class="st4" d="M199.3,383.4l-3.5-7.1l138.7-67.8c2.4-1.2,4.2-3.3,5-5.9c0.9-2.6,0.7-5.5-0.6-8c-2.5-5.2-8.7-7.4-13.7-5
		L142.5,379l-3.5-7.1l182.7-89.4c8.9-4.4,19.8-0.5,24.2,8.6c2.1,4.4,2.5,9.3,1,13.9c-1.5,4.6-4.7,8.4-9.1,10.5L199.3,383.4z"/>
	
		<rect x="253.6" y="299.6" transform="matrix(0.8984 -0.4392 0.4392 0.8984 -119.4938 146.5861)" class="st4" width="6.8" height="63.8"/>
	
		<rect x="240.5" y="296.2" transform="matrix(0.8982 -0.4396 0.4396 0.8982 -107.3831 136.8384)" class="st4" width="2.5" height="8.1"/>
	
		<rect x="236.2" y="295.1" transform="matrix(0.8986 -0.4389 0.4389 0.8986 -105.5771 135.1925)" class="st4" width="6.8" height="1.7"/>
	<polygon class="st4" points="247.4,303.1 240.5,306.5 239.5,304.6 246.5,301.2 	"/>
	<polygon class="st4" points="265.5,362.9 259.4,365.9 231.3,308.6 237.5,305.6 	"/>
	
		<rect x="231.9" y="300.4" transform="matrix(0.8982 -0.4396 0.4396 0.8982 -110.1119 133.4823)" class="st4" width="2.5" height="8.1"/>
	<polygon class="st4" points="234.5,299.4 228.3,302.4 227.6,300.9 233.7,297.9 	"/>
	
		<rect x="231" y="307" transform="matrix(0.8981 -0.4398 0.4398 0.8981 -111.5426 134.6777)" class="st4" width="7.7" height="2.2"/>
	
		<rect x="236.4" y="308" transform="matrix(0.8984 -0.4392 0.4392 0.8984 -124.9363 139.8886)" class="st4" width="6.8" height="63.8"/>
	
		<rect x="223.3" y="304.6" transform="matrix(0.8982 -0.4396 0.4396 0.8982 -112.8359 130.1428)" class="st4" width="2.5" height="8.1"/>
	<polygon class="st4" points="225.9,303.6 219.8,306.6 219,305.1 225.1,302.1 	"/>
	<polygon class="st4" points="230.2,311.5 223.3,314.9 222.3,313 229.3,309.6 	"/>
	<polygon class="st4" points="261.5,334.9 239.8,345.5 239.3,344.6 261,334 	"/>
	<path class="st4" d="M272.9,354.9c-4.1,0-7.9-2.4-9.7-6l-0.9-1.9c-2.6-5.3-0.4-11.7,4.9-14.3l50.7-24.8c5.2-2.5,11.8-0.2,14.3,4.9
		l0.9,1.9c1.3,2.6,1.4,5.5,0.5,8.2c-0.9,2.7-2.9,4.9-5.4,6.2l-50.7,24.8C276.1,354.5,274.6,354.9,272.9,354.9 M322.7,313.3
		c-0.6,0-1.2,0.1-1.8,0.4l-50.7,24.8c-2.1,1-2.9,3.5-1.9,5.6l0.9,1.9c1,2,3.6,2.9,5.6,1.9l50.7-24.8c1-0.5,1.7-1.3,2.1-2.4
		c0.4-1.1,0.3-2.2-0.2-3.2l-0.9-1.9C325.8,314.2,324.3,313.3,322.7,313.3"/>
	<path class="st4" d="M275.7,328.5c-2.6,0-4.9-1.4-6-3.7c-1.6-3.3-0.2-7.3,3.1-8.9c0.9-0.5,1.9-0.7,2.9-0.7c2.6,0,4.9,1.4,6,3.7
		c1.6,3.3,0.2,7.3-3,8.9C277.7,328.3,276.7,328.5,275.7,328.5 M275.7,317.2c-0.7,0-1.4,0.2-2,0.5c-2.3,1.1-3.3,3.9-2.2,6.3
		c1.1,2.3,4,3.3,6.3,2.2c2.3-1.1,3.3-3.9,2.1-6.3C279.1,318.2,277.5,317.2,275.7,317.2"/>
	<path class="st4" d="M219.4,381.1c-4.1,0-7.9-2.4-9.7-6l-0.9-1.9c-2.6-5.3-0.4-11.7,4.9-14.3l23-11.3c5.1-2.5,11.8-0.2,14.3,4.9
		l0.9,1.9c1.3,2.6,1.4,5.5,0.5,8.2c-0.9,2.7-2.9,4.9-5.4,6.2L224,380C222.6,380.8,221,381.1,219.4,381.1 M241.4,353.1
		c-0.6,0-1.2,0.1-1.8,0.4l-23,11.3c-2.1,1-2.9,3.5-1.9,5.6l0.9,1.9c1,2,3.6,2.9,5.6,1.9l23-11.3c1-0.5,1.7-1.3,2.1-2.4
		c0.4-1.1,0.3-2.2-0.2-3.2l-0.9-1.9C244.5,354,243,353.1,241.4,353.1"/>
	<path class="st4" d="M188.8,385.6c-9.2,0-18-5.1-22.3-13.9c-2.9-5.9-3.3-12.7-1.2-18.9c2.1-6.3,6.6-11.3,12.5-14.2l3.5,7.1
		c-4,2-7.1,5.4-8.5,9.7c-1.5,4.3-1.2,8.9,0.8,12.9c4.1,8.4,14.2,11.9,22.6,7.8l3.5,7.1C196.1,384.8,192.4,385.6,188.8,385.6"/>
	<path class="st4" d="M218.4,357c-0.8,0-1.6-0.1-2.3-0.4c-1.5-0.5-2.7-1.6-3.3-2.9c-0.8-1.7-0.8-2.4-0.5-3.1c0.1-0.1,0.1-0.4-0.6-2
		l1.8-0.9c1,2,1,2.7,0.7,3.5c0,0.1-0.1,0.4,0.4,1.6c0.4,0.9,1.2,1.5,2.2,1.9c1.3,0.5,2.7,0.3,4.1-0.3l0.9,1.8
		C220.7,356.7,219.5,357,218.4,357"/>
	<path class="st4" d="M221.8,356.2l-0.9-1.7c1.3-0.7,2.3-1.8,2.6-3.1c0.3-1,0.2-2-0.3-2.8c-0.7-1.2-0.9-1.3-1.1-1.3
		c-0.8-0.2-1.4-0.7-2.5-2.6l1.7-0.9c0.8,1.5,1.1,1.6,1.3,1.7c0.8,0.2,1.3,0.6,2.3,2.2c0.7,1.3,0.9,2.9,0.5,4.4
		C224.8,353.7,223.5,355.2,221.8,356.2"/>
	<path class="st4" d="M305.2,284.7c-1.1-2.3-2.3-4.6-3.4-7c0.6-0.3,1.2-0.6,1.8-0.9c3.3-1.6,6.7-3.1,9.9-4.8c3.8-2,7.5-4.2,11.2-6.4
		c4.2-2.5,8.3-5.4,12.2-8.5c4.5-3.7,8.8-7.7,12.2-12.7c1.8-2.7,3.3-5.6,4-9.2c0.7-3.5,0.4-7-1.1-10.7c8.7,17.8,17.4,35.6,26.1,53.4
		c-1.9-3.3-4.4-5.6-7.4-7.1c-2.1-1.1-4.3-1.8-6.5-2.2c-4.9-0.9-9.7-0.6-14.3,0c-4.5,0.6-8.9,1.6-13.2,3c-4.2,1.4-8.4,2.8-12.5,4.4
		c-5.6,2.1-11,4.7-16.3,7.4C306.9,283.9,306.1,284.3,305.2,284.7"/>
</g>
</svg>
