<?xml version="1.0" encoding="utf-8"?>
<!-- Generator: Adobe Illustrator 21.0.2, SVG Export Plug-In . SVG Version: 6.00 Build 0)  -->
<svg version="1.1" id="レイヤー_1" xmlns="http://www.w3.org/2000/svg" xmlns:xlink="http://www.w3.org/1999/xlink" x="0px"
	 y="0px" viewBox="0 0 425.2 425.2" style="enable-background:new 0 0 425.2 425.2;" xml:space="preserve">
<style type="text/css">
	.st0{fill:none;stroke:#000000;stroke-width:4.4291;stroke-miterlimit:10;}
	.st1{fill:#FFFFFF;stroke:#FFFFFF;stroke-width:2.2146;stroke-miterlimit:10;}
	.st2{fill:none;stroke:#FFFFFF;stroke-width:2.2146;stroke-miterlimit:10;}
	.st3{fill:#D83A35;}
	.st4{fill:#FFFFFF;}
</style>
<path class="st0" d="M145.6,514.1"/>
<path class="st1" d="M145.6,495"/>
<path class="st2" d="M145.6,494.1"/>
<path class="st2" d="M145.6,493.9"/>
<path class="st2" d="M145.6,487.9"/>
<path class="st1" d="M145.6,496.4"/>
<path class="st1" d="M145.6,517.8"/>
<path class="st2" d="M145.6,490.7"/>
<path class="st2" d="M145.6,517.8"/>
<g>
	<g>
		<path class="st3" d="M0,376.6c0,26.8,21.8,48.6,48.6,48.6h328c26.8,0,48.6-21.8,48.6-48.6v-328c0-26.8-21.8-48.6-48.6-48.6h-328
			C21.8,0,0,21.8,0,48.6V376.6z"/>
	</g>
	<g>
		<path class="st4" d="M331.1,242.4H96.6c-6.7,0-12.2-5.4-12.2-12.2v-122c0-6.7,5.4-12.2,12.2-12.2h234.5c6.7,0,12.2,5.4,12.2,12.2
			v122C343.2,236.9,337.8,242.4,331.1,242.4z"/>
		<path class="st4" d="M335.5,242.4H90c-2.8,0-5.4,1.2-7.1,3.4L44.7,314c-5,6-0.7,15.2,7.1,15.2h321.6c7.8,0,12.1-9.1,7.1-15.2
			l-37.9-68.3C340.9,243.6,338.3,242.4,335.5,242.4z"/>
		<rect x="98.7" y="106.7" class="st3" width="230.3" height="124.9"/>
		<polygon class="st3" points="259.2,291.6 166.4,291.6 152.1,320.2 274.1,320.2 		"/>
		<polygon class="st3" points="306.1,251.4 117.6,251.4 102.4,282.5 321.3,282.5 		"/>
	</g>
</g>
</svg>
