<?xml version="1.0" encoding="utf-8"?>
<!-- Generator: Adobe Illustrator 21.0.2, SVG Export Plug-In . SVG Version: 6.00 Build 0)  -->
<svg version="1.1" xmlns="http://www.w3.org/2000/svg" xmlns:xlink="http://www.w3.org/1999/xlink" x="0px" y="0px"
	 viewBox="0 0 425.2 425.2" style="enable-background:new 0 0 425.2 425.2;" xml:space="preserve">
<style type="text/css">
	.st0{fill:#D83A35;}
	.st1{fill:#FFFFFF;}
	.st2{display:none;}
	.st3{display:inline;fill:#FFFFFF;}
</style>
<g id="レイヤー_1">
	<g>
		<g>
			<path class="st0" d="M-0.2,376.6c0,26.8,21.8,48.6,48.6,48.6h328c26.8,0,48.6-21.8,48.6-48.6v-328c0-26.8-21.8-48.6-48.6-48.6
				h-328C21.5,0-0.2,21.8-0.2,48.6V376.6z"/>
		</g>
		<g>
			<path class="st1" d="M313.5,352.1c3.1-1.2,9-6.2,6.6-8.5c-6.1-5.6-24.6,11.4-32.6,9.3c-5.1-1.3-16.6-14.3-21.7-15.5
				c-4.7-1.1-11.4,11.3-7.3,13.8c14.8,8.8,24.5-4.6,23.4,61.8h10.6C289.5,347.9,298.7,357.7,313.5,352.1z"/>
			<path class="st1" d="M307.1,330.4c-29.5,38.8,64.3,45.4,64.3,45.4S330.1,300.2,307.1,330.4z"/>
			<path class="st1" d="M277.5,328.9c-26-41.3-65.1,44.2-65.1,44.2S297.6,361,277.5,328.9z"/>
		</g>
	</g>
</g>
<g id="レイヤー_2">
	<path class="st1" d="M168.8,94.4c40.1,25.9,77.5,57.9,108.5,160l94.5-47.2c-27.3-85.9-64-139.6-107.9-165.8L168.8,94.4z"/>
	<path class="st1" d="M64.6,339.4c-5.9,0.8-18.2-8.4-19-14.3L231.9,77.6L251,92L64.6,339.4z"/>
</g>
<g id="レイヤー_3" class="st2">
	<path class="st3" d="M0,62l59.3,32.7c44-28,88.9,47.8,92,85.1c3.3,39.2-90-12.4-97.3-52.4L0,100"/>
	<path class="st3" d="M132.1,90.5c27.4-4.1,33.4,4.7,43.3,5.1c14.1,0.6,15.8-29.7-4.9-25.2C149.7,75,132.1,90.5,132.1,90.5z"/>
	<path class="st3" d="M276.2,193.7c17.4,21.6,12.8,31.2,17.4,40c6.6,12.5,33.6-1.4,19.2-17C298.5,201.2,276.2,193.7,276.2,193.7z"/>
	<path class="st3" d="M212.6,241.6c23.3,15,22,25.5,29.2,32.4c10.2,9.8,31.4-12,12.9-22.2C236.1,241.6,212.6,241.6,212.6,241.6z"/>
	<path class="st3" d="M167.6,167.4c27.7,1.6,31.7,11.4,41.3,13.9c13.7,3.5,21.5-25.9,0.3-25.6S167.6,167.4,167.6,167.4z"/>
	<path class="st3" d="M224.3,96.6c25.4,11.1,25.8,21.6,34,27.3c11.6,8,28.3-17.2,9.1-24C247.5,92.9,224.3,96.6,224.3,96.6z"/>
</g>
</svg>
