<?xml version="1.0" encoding="utf-8"?>
<!-- Generator: Adobe Illustrator 21.0.2, SVG Export Plug-In . SVG Version: 6.00 Build 0)  -->
<svg version="1.1" id="レイヤー_1" xmlns="http://www.w3.org/2000/svg" xmlns:xlink="http://www.w3.org/1999/xlink" x="0px"
	 y="0px" viewBox="0 0 425.2 425.2" style="enable-background:new 0 0 425.2 425.2;" xml:space="preserve">
<style type="text/css">
	.st0{fill:none;stroke:#000000;stroke-width:4.4291;stroke-miterlimit:10;}
	.st1{fill:#FFFFFF;stroke:#FFFFFF;stroke-width:2.2146;stroke-miterlimit:10;}
	.st2{fill:none;stroke:#FFFFFF;stroke-width:2.2146;stroke-miterlimit:10;}
	.st3{fill:#FFFFFF;}
	.st4{fill:#0075C2;}
</style>
<path class="st0" d="M145.6,514.1"/>
<path class="st1" d="M145.6,495"/>
<path class="st2" d="M145.6,494.1"/>
<path class="st2" d="M145.6,493.9"/>
<path class="st2" d="M145.6,487.9"/>
<path class="st1" d="M145.6,496.4"/>
<path class="st1" d="M145.6,517.8"/>
<path class="st2" d="M145.6,490.7"/>
<path class="st2" d="M145.6,517.8"/>
<g>
	<g>
		<path class="st3" d="M0,376.6c0,26.8,21.8,48.6,48.6,48.6h328c26.8,0,48.6-21.8,48.6-48.6v-328c0-26.8-21.8-48.6-48.6-48.6h-328
			C21.8,0,0,21.8,0,48.6V376.6z"/>
	</g>
	<g>
		<path class="st4" d="M172.8,102.5H263V0H108.1v37.7C142.5,40.6,169.9,68,172.8,102.5z"/>
		<path class="st4" d="M365.3,102.5c2.7-32.4,27.2-58.6,58.9-64C419.4,16.6,399.9,0,376.6,0H275.1v102.5H365.3z"/>
		<path class="st4" d="M425.2,209.2v-30.5c-32.1-4.9-57.1-31.3-59.9-64.1h-90.2v158.7h90.2C368,240.5,393.1,214.1,425.2,209.2z"/>
		<path class="st4" d="M95.9,37.7V0H48.6C21.9,0,0,21.9,0,48.6v53.9h31.2C34.1,68,61.5,40.6,95.9,37.7z"/>
		<path class="st4" d="M263,114.6h-90.2c-2.9,34.4-30.3,61.8-64.7,64.7v29.2c34.4,2.9,61.8,30.3,64.7,64.7H263V114.6z"/>
		<path class="st4" d="M365.3,285.5h-90.2v94c7.6,0.6,14.9,2.4,21.6,5.3c4.3,1.8,8.3,4,12.1,6.6c1.9,1.3,3.7,2.6,5.5,4.1
			c9.5,7.8,16.8,18.1,21.3,29.8h41.1c26.7,0,48.6-21.9,48.6-48.6v-27C393.1,344.6,368,318.3,365.3,285.5z"/>
		<path class="st4" d="M263,379.4v-94h-90.2c-2.9,34.4-30.3,61.8-64.7,64.7v75h94.5C212,400.1,235.2,381.8,263,379.4z"/>
		<path class="st4" d="M31.2,285.5H0v91.1c0,26.7,21.9,48.6,48.6,48.6h47.3v-75C61.5,347.3,34.1,319.9,31.2,285.5z"/>
		<path class="st4" d="M95.9,208.6v-29.2c-34.4-2.9-61.8-30.3-64.7-64.7H0v158.7h31.2C34.1,238.9,61.5,211.5,95.9,208.6z"/>
	</g>
	<path class="st4" d="M323.8,425.2c-9.5-20.7-30.4-35.1-54.7-35.1s-45.2,14.4-54.7,35.1"/>
	<circle class="st4" cx="102" cy="279.4" r="60.2"/>
	<path class="st4" d="M425.2,220.2c-28,5.1-49.3,29.7-49.3,59.2c0,29.5,21.3,54.1,49.3,59.2"/>
	<path class="st4" d="M376.6,12.1c20.1,0,36.4,16.3,36.4,36.4v328c0,20.1-16.3,36.4-36.4,36.4h-328c-20.1,0-36.4-16.3-36.4-36.4
		v-328c0-20.1,16.3-36.4,36.4-36.4H376.6 M376.6,0h-328C21.9,0,0,21.9,0,48.6v328c0,26.7,21.9,48.6,48.6,48.6h328
		c26.7,0,48.6-21.9,48.6-48.6v-328C425.2,21.9,403.3,0,376.6,0L376.6,0z"/>
</g>
</svg>
