<?xml version="1.0" encoding="utf-8"?>
<!-- Generator: Adobe Illustrator 21.0.2, SVG Export Plug-In . SVG Version: 6.00 Build 0)  -->
<svg version="1.1" id="レイヤー_1" xmlns="http://www.w3.org/2000/svg" xmlns:xlink="http://www.w3.org/1999/xlink" x="0px"
	 y="0px" viewBox="0 0 425.2 425.2" style="enable-background:new 0 0 425.2 425.2;" xml:space="preserve">
<style type="text/css">
	.st0{fill:#FFFFFF;}
	.st1{fill:#0075C2;}
</style>
<g>
	<path class="st0" d="M376.6,425.2h-328C21.8,425.2,0,403.4,0,376.6v-328C0,21.8,21.8,0,48.6,0h328c26.8,0,48.6,21.8,48.6,48.6v328
		C425.2,403.4,403.4,425.2,376.6,425.2z"/>
	<g>
		<path class="st1" d="M181.7,46.1l-1.2-7.3c-12.9,2.4-25.2,6.1-37,11l3.2,7C157.7,52.1,169.5,48.4,181.7,46.1z"/>
		<path class="st1" d="M183.6,45.8c1.1-0.2,2.1-0.4,3.2-0.6l-1.2-7.3c-1.1,0.2-2.1,0.4-3.2,0.6L183.6,45.8z"/>
		<path class="st1" d="M280.2,371.2c-11.5,5-23.6,8.8-36.3,11.1l1,6.3c13.2-2.4,25.9-6.3,37.9-11.5L280.2,371.2z"/>
		<path class="st1" d="M282,370.4l2.7,6c1-0.4,2-0.9,2.9-1.3l-2.7-6C284,369.5,283,369.9,282,370.4z"/>
		<path class="st1" d="M370.8,295.2l-6.6-3.2c-16.9,33.1-44.1,60-77.4,76.3l2.7,6C324.4,357.4,353,329.5,370.8,295.2z"/>
		<path class="st1" d="M52.3,136.9l8.2,4c0.4-1,0.9-1.9,1.4-2.9l-8.2-4C53.2,135,52.7,136,52.3,136.9z"/>
		<path class="st1" d="M144.8,57.7l-3.2-7c-1,0.4-2,0.9-2.9,1.3l3.2,7C142.9,58.6,143.8,58.1,144.8,57.7z"/>
		<path class="st1" d="M140.1,59.9l-3.2-7c-35.4,16.7-64.4,44.8-82.3,79.5l8.2,4C79.5,103,106.7,76,140.1,59.9z"/>
		<path class="st1" d="M238.8,383.3l1,6.3c1.1-0.2,2.1-0.4,3.2-0.6l-1-6.3C240.9,382.9,239.9,383.1,238.8,383.3z"/>
		<path class="st1" d="M8.8,213.7c0,17.3,2.2,34.1,6.3,50.2l18.7-5.3c-3.6-14.4-5.6-29.4-5.6-44.9c0-27.8,6.2-54.2,17.3-77.9
			L28,127.3C15.7,153.6,8.8,182.8,8.8,213.7z"/>
		<path class="st1" d="M416.7,213.7c0-18.7-2.6-36.8-7.3-54l-18.7,5.3c4.3,15.5,6.6,31.9,6.6,48.7c0,27.8-6.2,54.2-17.3,77.9
			l5.7,2.8c11.5-24.5,17.9-51.9,17.9-80.7h6.7c0,29.9-6.7,58.2-18.6,83.6l5.8,2.8C409.7,273.9,416.7,244.6,416.7,213.7z"/>
		<path class="st1" d="M128.2,20.9L118.8,0h-3.5l10,22.2C126.3,21.7,127.3,21.3,128.2,20.9z"/>
		<path class="st1" d="M28.9,125.5l17.4,8.5c0.5-1,1-1.9,1.5-2.9l-17.4-8.5C29.8,123.6,29.3,124.5,28.9,125.5z"/>
		<path class="st1" d="M227.9,0h-3.2l-0.2,3.5c1.1,0.1,2.1,0.2,3.2,0.2L227.9,0z"/>
		<path class="st1" d="M415.2,156l9.8-2.8v-3.3l-10.6,3C414.6,153.9,414.9,155,415.2,156z"/>
		<path class="st1" d="M197.5,425h3.2l0.1-1c-1.1-0.1-2.1-0.2-3.2-0.2L197.5,425z"/>
		<path class="st1" d="M298.1,406.2l8.5,18.8h3.5l-9.1-20.1C300.1,405.3,299.1,405.7,298.1,406.2z"/>
		<path class="st1" d="M128,28.3l8,17.7c1-0.4,1.9-0.9,2.9-1.3l-8-17.7C130,27.4,129,27.8,128,28.3z"/>
		<path class="st1" d="M389.3,160c0.3,1,0.6,2.1,0.9,3.1l18.7-5.3c-0.3-1-0.6-2.1-0.9-3.1L389.3,160z"/>
		<path class="st1" d="M244.1,395.6c-1.1,0.2-2.1,0.4-3.2,0.6l1,6.2c1.1-0.2,2.1-0.4,3.2-0.6L244.1,395.6z"/>
		<path class="st1" d="M373.2,290.5l-6.7-3.3c-0.5,1-0.9,1.9-1.4,2.9l6.6,3.3C372.2,292.4,372.7,291.5,373.2,290.5z"/>
		<path class="st1" d="M24.3,119.7L0,107.8v3.6l22.9,11.2C23.4,121.6,23.9,120.6,24.3,119.7z"/>
		<path class="st1" d="M212.7,3.1c3.3,0,6.5,0.1,9.8,0.2l0.2-3.4h-41.3l0.9,5.4C192.2,3.9,202.4,3.1,212.7,3.1z"/>
		<path class="st1" d="M245.1,421.8l0.5,3.1h3.2l-0.6-3.7C247.2,421.5,246.2,421.7,245.1,421.8z"/>
		<path class="st1" d="M212.7,424.3c-3.3,0-6.6-0.1-9.9-0.3l-0.1,0.9h40.9l-0.5-2.9C233.2,423.6,223,424.3,212.7,424.3z"/>
		<path class="st1" d="M9.1,267.7L0,270.3v3.3l10-2.8C9.7,269.7,9.4,268.7,9.1,267.7z"/>
		<path class="st1" d="M198,417.1c1.1,0.1,2.1,0.2,3.2,0.2l1.2-19.4c-1.1-0.1-2.1-0.2-3.2-0.2L198,417.1z"/>
		<path class="st1" d="M35.6,265.6L17,270.9C40.2,350.5,110.8,410,196,416.9l1.2-19.4C120.3,391.2,56.7,337.4,35.6,265.6z"/>
		<path class="st1" d="M175.2,6.5L174.1,0H121l9,20C144.4,13.9,159.5,9.4,175.2,6.5z"/>
		<path class="st1" d="M2.1,213.7c0-31.9,7.2-62.2,20-89.4L0,113.6v154.6l8.6-2.4C4.4,249.1,2.1,231.7,2.1,213.7z"/>
		<path class="st1" d="M180.3,5.6L179.4,0h-3.2l1,6.2C178.2,6,179.2,5.8,180.3,5.6z"/>
		<path class="st1" d="M123.5,23L113.1,0H91.9C53.3,22.5,21.6,55,0,94.3v11.3l25.3,12.4C46.6,76.4,81.2,42.9,123.5,23z"/>
		<path class="st1" d="M35.1,263.7c-0.3-1-0.6-2-0.9-3.1l-18.7,5.3c0.3,1,0.6,2.1,0.9,3.1L35.1,263.7z"/>
		<path class="st1" d="M78.8,0H48.6C21.9,0,0,21.9,0,48.6v32C19.9,48.1,46.8,20.6,78.8,0z"/>
		<path class="st1" d="M376.4,0H229.9l-0.2,3.9c86.8,6.9,159,66.7,184.1,147.1l11.2-3.2V48.6C425,21.9,403.1,0,376.4,0z"/>
		<path class="st1" d="M10.6,272.7l-10.6,3v100.7C0,403.1,21.9,425,48.6,425h147l0.1-1.4C107.5,416.5,34.6,354.9,10.6,272.7z"/>
		<path class="st1" d="M423.3,213.7c0,31.9-7.2,62.2-20,89.4l21.6,10.6V155.3l-9.2,2.6C420.7,175.7,423.3,194.4,423.3,213.7z"/>
		<path class="st1" d="M302.9,404l9.4,20.9h64.1c26.7,0,48.6-21.9,48.6-48.6v-54.7l-24.8-12.1C379,350.7,344.8,384.1,302.9,404z"/>
		<path class="st1" d="M394.2,306.6l-5.8-2.8c-19.8,38.5-51.8,69.6-90.9,88.3l2.6,5.9C340.6,378.7,373.7,346.4,394.2,306.6z"/>
		<path class="st1" d="M298.3,398.8l-2.6-5.9c-1,0.5-1.9,0.9-2.9,1.3l2.6,5.9C296.4,399.7,297.3,399.2,298.3,398.8z"/>
		<path class="st1" d="M250.2,420.9l0.7,4h53.5l-8.1-18C281.7,413.3,266.3,418,250.2,420.9z"/>
		<path class="st1" d="M401.1,307.8l23.9,11.7v-3.6l-22.4-11C402.1,305.9,401.6,306.8,401.1,307.8z"/>
		<path class="st1" d="M396.6,302l-5.8-2.8c-0.5,1-1,1.9-1.5,2.9l5.8,2.8C395.6,303.9,396.1,303,396.6,302z"/>
		<path class="st1" d="M181.3,31.9c1.1-0.2,2.1-0.4,3.2-0.6l-3.1-19.1c-1.1,0.2-2.1,0.4-3.2,0.6L181.3,31.9z"/>
		<path class="st1" d="M132.8,26.1l8,17.7c12.3-5.2,25.2-9.1,38.6-11.5l-3.1-19.1C161.1,15.9,146.6,20.2,132.8,26.1z"/>
		<path class="st1" d="M31.2,120.8l17.4,8.5c18.6-36.1,48.8-65.2,85.5-82.6l-8-17.7C85.3,48.3,51.8,80.7,31.2,120.8z"/>
		<path class="st1" d="M220.8,29.4L222,10c-3.1-0.1-6.2-0.2-9.3-0.2c-10,0-19.8,0.8-29.4,2.1l3.1,19.1c8.6-1.2,17.3-1.9,26.2-1.9
			C215.4,29.2,218.1,29.3,220.8,29.4z"/>
		<path class="st1" d="M384.8,296.2l-5.7-2.8c-0.5,1-1,1.9-1.5,2.9l5.7,2.8C383.8,298.1,384.3,297.2,384.8,296.2z"/>
		<path class="st1" d="M288.2,389l-2.6-5.7c-12.5,5.4-25.8,9.4-39.6,12l1,6.2C261.4,398.8,275.2,394.6,288.2,389z"/>
		<path class="st1" d="M202.9,391.3l1-16.4c0.7,0,1.3,0,2,0.1l-1,16.4c2.6,0.1,5.2,0.2,7.8,0.2c8.5,0,16.9-0.6,25.1-1.8l-1-6.3
			c-7.9,1.1-15.9,1.8-24.1,1.8v-6.7c7.8,0,15.5-0.6,23.1-1.7l-0.5-3.3c0.7-0.1,1.3-0.2,2-0.3l0.5,3.3c1.1-0.2,2.1-0.4,3.2-0.6
			l-0.5-3.3c0.7-0.1,1.3-0.2,2-0.3l0.5,3.3c12-2.3,23.6-5.9,34.6-10.6l-1.3-2.8c0.6-0.3,1.2-0.6,1.8-0.8l1.3,2.8
			c1-0.4,2-0.9,2.9-1.3l-1.3-2.8c0.6-0.3,1.2-0.5,1.8-0.8l1.2,2.8c31.9-15.6,58-41.4,74.2-73.1l-1.5-0.7c0.3-0.6,0.6-1.2,0.9-1.8
			l1.5,0.7c0.5-1,1-1.9,1.4-2.9l-1.4-0.7c0.3-0.6,0.6-1.2,0.9-1.8l1.4,0.7c9.6-21,15-44.2,15-68.8h6.7c0,25.6-5.6,49.9-15.6,71.7
			l6.7,3.3c10.6-22.8,16.6-48.2,16.6-75c0-16.2-2.2-32-6.3-46.9l-14.2,4c-0.2-0.6-0.4-1.3-0.5-1.9l14.2-4c-0.3-1-0.6-2.1-0.9-3.1
			l-14.2,4c-0.2-0.6-0.4-1.3-0.5-1.9l14.2-4C360.8,92.6,300.4,42.6,227.6,36.5l-0.9,13.8c-0.7-0.1-1.3-0.1-2-0.2l0.9-13.8
			c-1.1-0.1-2.1-0.2-3.2-0.2l-0.9,13.8c-0.7,0-1.3,0-2-0.1l0.9-13.8c-2.5-0.1-5.1-0.2-7.7-0.2c-8.5,0-16.9,0.6-25.2,1.8l1.2,7.3
			c7.8-1.1,15.8-1.7,24-1.7v6.5c0,0,0,0-0.1,0c-89.9,0-162.8,72.9-162.8,162.8c0,0,0,0,0,0h-5.1c0-24.8,5.4-48.4,15-69.7l-8.2-4
			c-10.6,22.8-16.6,48.2-16.6,75c0,14.9,1.9,29.3,5.3,43.1l14.8-4.2c0.2,0.6,0.3,1.3,0.5,1.9l-14.8,4.2c0.3,1,0.6,2.1,0.9,3.1
			l14.8-4.2c0.2,0.6,0.4,1.3,0.5,1.9L42,263.8c20.3,69.2,81.6,121,155.7,127.2l1-16.4c0.7,0.1,1.3,0.1,2,0.2l-1,16.4
			C200.8,391.2,201.8,391.3,202.9,391.3z"/>
		<path class="st1" d="M292.9,386.8l-2.6-5.7c-1,0.5-1.9,0.9-2.9,1.3l2.6,5.7C291,387.7,292,387.3,292.9,386.8z"/>
		<path class="st1" d="M388.7,158.1l18.7-5.3C383,75.1,313.2,17.3,229.2,10.5L228,29.9C303.6,36.1,366.5,88.1,388.7,158.1z"/>
		<path class="st1" d="M227.2,10.4c-1.1-0.1-2.1-0.2-3.2-0.2l-1.2,19.4c1.1,0.1,2.1,0.2,3.2,0.2L227.2,10.4z"/>
		<path class="st1" d="M382.4,300.9l-5.7-2.8c-18.5,35.8-48.2,64.8-84.6,82.2l2.6,5.7C332.5,368,363.3,337.9,382.4,300.9z"/>
		<path class="st1" d="M290.9,395.1c-13.5,5.9-27.9,10.2-42.8,12.9l1,6.4c15.5-2.8,30.3-7.3,44.4-13.4L290.9,395.1z"/>
		<path class="st1" d="M242.1,415.5l-1-6.4c-9.3,1.3-18.7,2.1-28.3,2.1v-6.7c9.3,0,18.3-0.7,27.2-2l-1-6.2
			c-8.6,1.2-17.3,1.9-26.2,1.9c-2.8,0-5.5-0.1-8.3-0.2l-1.2,19.4c3.1,0.1,6.3,0.2,9.5,0.2C222.7,417.7,232.5,416.9,242.1,415.5z"/>
		<path class="st1" d="M246.2,408.4c-1.1,0.2-2.1,0.4-3.2,0.6l1,6.3c1.1-0.2,2.1-0.4,3.2-0.6L246.2,408.4z"/>
	</g>
	<g>
		<path class="st0" d="M102.1,264.5h61.7v15.4H79.6v-15.7c24.3-24.2,40.6-42.1,49-53.8c8.4-11.7,12.6-21.7,12.6-29.9
			c0-6.3-2.3-11.4-7-15.4c-4.6-4-10.7-6-18.1-6c-5,0-10.1,0.8-15.2,2.5c-5.2,1.6-10.1,4.1-14.9,7.3l-2.1-17.4
			c6.3-2.8,12.6-5,18.8-6.4c6.2-1.4,12.5-2.1,18.8-2.1c11.3,0,20.5,3.4,27.7,10.2c7.1,6.8,10.7,15.6,10.7,26.3
			c0,10.3-4.2,21.8-12.6,34.4C138.8,226.4,123.8,243.3,102.1,264.5z"/>
		<path class="st0" d="M188.2,219.2h48.6V234h-48.6V219.2z"/>
		<path class="st0" d="M311.3,209.2c9.2,1.6,16.4,5.1,21.5,10.7c5.1,5.5,7.7,12.4,7.7,20.7c0,12.1-4.8,21.9-14.3,29.3
			c-9.6,7.4-22.3,11.1-38.1,11.1c-6.3,0-12.3-0.4-18-1.3c-5.7-0.9-10.9-2.2-15.7-3.9l2.2-17.5c4.2,2.3,8.7,4.1,13.5,5.3
			c4.8,1.2,9.8,1.8,15,1.8c10.6,0,19.2-2.4,25.8-7.3c6.6-4.9,9.9-11.2,9.9-18.9c0-6.9-2.8-12.4-8.3-16.3c-5.5-3.9-13.3-5.9-23.2-5.9
			H275v-14.7h14.8c9.2,0,16.6-2,22.2-6c5.6-4,8.3-9.3,8.3-15.8c0-6.3-2.7-11.5-8.1-15.5c-5.4-4-12.4-6-21.1-6
			c-4.5,0-9.2,0.6-14.2,1.7c-5,1.1-10,2.8-15.1,4.9l-0.9-15.9c6.2-1.9,12.1-3.3,17.7-4.3c5.6-0.9,11-1.4,16.3-1.4
			c13.4,0,24.1,3.2,32.2,9.6c8.1,6.4,12.1,14.8,12.1,25.2c0,7.5-2.5,13.9-7.4,19.3C326.8,203.5,320,207.2,311.3,209.2z"/>
		<polyline class="st0" points="188.2,219.2 212.5,226.6 236.8,234 236.8,219.2 188.2,234 		"/>
	</g>
</g>
</svg>
