<?xml version="1.0" encoding="utf-8"?>
<!-- Generator: Adobe Illustrator 21.0.2, SVG Export Plug-In . SVG Version: 6.00 Build 0)  -->
<svg version="1.1" id="レイヤー_1" xmlns="http://www.w3.org/2000/svg" xmlns:xlink="http://www.w3.org/1999/xlink" x="0px"
	 y="0px" viewBox="0 0 425.2 425.2" style="enable-background:new 0 0 425.2 425.2;" xml:space="preserve">
<style type="text/css">
	.st0{fill:none;stroke:#000000;stroke-width:4.4291;stroke-miterlimit:10;}
	.st1{fill:#FFFFFF;stroke:#FFFFFF;stroke-width:2.2146;stroke-miterlimit:10;}
	.st2{fill:none;stroke:#FFFFFF;stroke-width:2.2146;stroke-miterlimit:10;}
	.st3{fill:#FFFFFF;}
	.st4{fill:#0075C2;}
</style>
<path class="st0" d="M145.6,514.1"/>
<path class="st1" d="M145.6,495"/>
<path class="st2" d="M145.6,494.1"/>
<path class="st2" d="M145.6,493.9"/>
<path class="st2" d="M145.6,487.9"/>
<path class="st1" d="M145.6,496.4"/>
<path class="st1" d="M145.6,517.8"/>
<path class="st2" d="M145.6,490.7"/>
<path class="st2" d="M145.6,517.8"/>
<g>
	<path class="st3" d="M376.6,425.2h-328C21.8,425.2,0,403.4,0,376.6v-328C0,21.8,21.8,0,48.6,0h328c26.8,0,48.6,21.8,48.6,48.6v328
		C425.2,403.4,403.4,425.2,376.6,425.2z"/>
	<g>
		<path class="st4" d="M181.8,46.2l-1.2-7.3c-12.9,2.4-25.3,6.1-37,11l3.2,7C157.8,52.1,169.6,48.5,181.8,46.2z"/>
		<path class="st4" d="M183.7,45.8c1.1-0.2,2.1-0.4,3.2-0.6l-1.2-7.3c-1.1,0.2-2.1,0.4-3.2,0.6L183.7,45.8z"/>
		<path class="st4" d="M280.4,371.4c-11.5,5-23.6,8.8-36.3,11.2l1,6.3c13.2-2.4,25.9-6.3,37.9-11.5L280.4,371.4z"/>
		<path class="st4" d="M282.2,370.6l2.7,6c1-0.4,2-0.9,2.9-1.3l-2.7-6C284.1,369.7,283.1,370.1,282.2,370.6z"/>
		<path class="st4" d="M371,295.3l-6.6-3.3c-16.9,33.1-44.2,60.1-77.5,76.3l2.7,6C324.6,357.6,353.2,329.7,371,295.3z"/>
		<path class="st4" d="M52.3,137l8.2,4c0.4-1,0.9-1.9,1.4-2.9l-8.2-4C53.3,135.1,52.8,136,52.3,137z"/>
		<path class="st4" d="M144.9,57.7l-3.2-7c-1,0.4-2,0.9-2.9,1.3l3.2,7C142.9,58.6,143.9,58.2,144.9,57.7z"/>
		<path class="st4" d="M140.2,59.9l-3.2-7c-35.4,16.7-64.4,44.8-82.3,79.5l8.2,4C79.5,103.1,106.8,76.1,140.2,59.9z"/>
		<path class="st4" d="M239,383.5l1,6.3c1.1-0.2,2.1-0.4,3.2-0.6l-1-6.3C241.1,383.1,240,383.3,239,383.5z"/>
		<path class="st4" d="M8.8,213.8c0,17.3,2.2,34.1,6.3,50.2l18.7-5.3c-3.6-14.4-5.6-29.4-5.6-44.9c0-27.8,6.2-54.2,17.3-78
			l-17.4-8.5C15.7,153.6,8.8,182.9,8.8,213.8z"/>
		<path class="st4" d="M416.9,213.8c0-18.7-2.6-36.8-7.3-54l-18.7,5.3c4.3,15.5,6.6,31.9,6.6,48.7c0,27.8-6.2,54.3-17.3,78l5.7,2.8
			c11.5-24.5,18-51.9,18-80.7h6.7c0,29.9-6.7,58.2-18.6,83.7l5.8,2.8C410,274.1,416.9,244.8,416.9,213.8z"/>
		<path class="st4" d="M128.3,20.9L118.9,0h-3.5l10,22.2C126.4,21.8,127.3,21.3,128.3,20.9z"/>
		<path class="st4" d="M28.9,125.5l17.4,8.5c0.5-1,1-1.9,1.5-2.9l-17.4-8.5C29.9,123.6,29.4,124.6,28.9,125.5z"/>
		<path class="st4" d="M228,0h-3.2l-0.2,3.5c1.1,0.1,2.1,0.2,3.2,0.2L228,0z"/>
		<path class="st4" d="M415.4,156.1l9.8-2.8V150l-10.6,3C414.9,154,415.1,155,415.4,156.1z"/>
		<path class="st4" d="M197.6,425.2h3.2l0.1-1c-1.1-0.1-2.1-0.2-3.2-0.2L197.6,425.2z"/>
		<path class="st4" d="M298.3,406.4l8.5,18.8h3.5l-9.1-20.1C300.2,405.5,299.3,406,298.3,406.4z"/>
		<path class="st4" d="M128.1,28.3l8,17.7c1-0.4,1.9-0.9,2.9-1.3l-8-17.7C130.1,27.4,129.1,27.8,128.1,28.3z"/>
		<path class="st4" d="M389.5,160.1c0.3,1,0.6,2.1,0.9,3.1l18.7-5.3c-0.3-1-0.6-2.1-0.9-3.1L389.5,160.1z"/>
		<path class="st4" d="M244.2,395.8c-1.1,0.2-2.1,0.4-3.2,0.6l1,6.2c1.1-0.2,2.1-0.4,3.2-0.6L244.2,395.8z"/>
		<path class="st4" d="M373.4,290.7l-6.7-3.3c-0.5,1-0.9,1.9-1.4,2.9l6.6,3.3C372.4,292.6,372.9,291.7,373.4,290.7z"/>
		<path class="st4" d="M24.4,119.8L0,107.8v3.6l22.9,11.2C23.4,121.6,23.9,120.7,24.4,119.8z"/>
		<path class="st4" d="M212.8,3.1c3.3,0,6.5,0.1,9.8,0.2l0.2-3.4h-41.3l0.9,5.4C192.3,3.9,202.5,3.1,212.8,3.1z"/>
		<path class="st4" d="M245.3,422.1l0.5,3.1h3.3l-0.6-3.7C247.4,421.7,246.3,421.9,245.3,422.1z"/>
		<path class="st4" d="M212.8,424.6c-3.3,0-6.6-0.1-9.9-0.3l-0.1,0.9h40.9l-0.5-2.9C233.3,423.8,223.2,424.6,212.8,424.6z"/>
		<path class="st4" d="M9.1,267.8L0,270.4v3.3l10-2.8C9.7,269.9,9.4,268.8,9.1,267.8z"/>
		<path class="st4" d="M198.1,417.3c1.1,0.1,2.1,0.2,3.2,0.2l1.2-19.4c-1.1-0.1-2.1-0.2-3.2-0.2L198.1,417.3z"/>
		<path class="st4" d="M35.6,265.7L17,271c23.3,79.6,93.9,139.2,179.2,146.2l1.2-19.4C120.4,391.4,56.7,337.6,35.6,265.7z"/>
		<path class="st4" d="M175.3,6.5L174.2,0h-53.1l9,20.1C144.4,13.9,159.6,9.4,175.3,6.5z"/>
		<path class="st4" d="M2.1,213.8c0-32,7.2-62.3,20-89.4L0,113.6v154.7l8.6-2.4C4.4,249.2,2.1,231.8,2.1,213.8z"/>
		<path class="st4" d="M180.4,5.6L179.5,0h-3.2l1,6.2C178.3,6,179.3,5.8,180.4,5.6z"/>
		<path class="st4" d="M123.6,23L113.2,0H92C53.4,22.5,21.6,55.1,0,94.3v11.3L25.3,118C46.6,76.5,81.2,42.9,123.6,23z"/>
		<path class="st4" d="M35.1,263.8c-0.3-1-0.6-2-0.9-3.1L15.6,266c0.3,1,0.6,2.1,0.9,3.1L35.1,263.8z"/>
		<path class="st4" d="M78.8,0H48.6C21.9,0,0,21.9,0,48.6v32.1C19.9,48.2,46.9,20.6,78.8,0z"/>
		<path class="st4" d="M376.6,0H230l-0.2,3.9c86.9,7,159.1,66.8,184.2,147.2l11.2-3.2V48.6C425.2,21.9,403.3,0,376.6,0z"/>
		<path class="st4" d="M10.6,272.8l-10.6,3v100.8c0,26.7,21.9,48.6,48.6,48.6h147l0.1-1.4C107.6,416.7,34.6,355.1,10.6,272.8z"/>
		<path class="st4" d="M423.6,213.8c0,32-7.2,62.3-20,89.4l21.6,10.6V155.4L416,158C420.9,175.8,423.6,194.5,423.6,213.8z"/>
		<path class="st4" d="M303,404.2l9.4,20.9h64.2c26.7,0,48.6-21.9,48.6-48.6v-54.7l-24.8-12.2C379.2,350.9,344.9,384.3,303,404.2z"
			/>
		<path class="st4" d="M394.4,306.8l-5.8-2.8c-19.8,38.5-51.8,69.7-91,88.3l2.6,5.9C340.8,378.9,373.9,346.6,394.4,306.8z"/>
		<path class="st4" d="M298.5,399l-2.6-5.9c-1,0.5-1.9,0.9-2.9,1.3l2.6,5.9C296.5,399.9,297.5,399.5,298.5,399z"/>
		<path class="st4" d="M250.4,421.1l0.7,4h53.5l-8.1-18C281.9,413.6,266.4,418.2,250.4,421.1z"/>
		<path class="st4" d="M401.3,307.9l23.9,11.7v-3.6l-22.4-11C402.3,306.1,401.8,307,401.3,307.9z"/>
		<path class="st4" d="M396.8,302.2l-5.8-2.8c-0.5,1-1,1.9-1.5,2.9l5.8,2.8C395.8,304.1,396.3,303.1,396.8,302.2z"/>
		<path class="st4" d="M181.5,31.9c1.1-0.2,2.1-0.4,3.2-0.6l-3.1-19.2c-1.1,0.2-2.1,0.4-3.2,0.6L181.5,31.9z"/>
		<path class="st4" d="M132.9,26.1l8,17.7c12.3-5.2,25.2-9.1,38.7-11.5l-3.1-19.2C161.2,15.9,146.6,20.2,132.9,26.1z"/>
		<path class="st4" d="M31.3,120.9l17.4,8.5c18.6-36.1,48.8-65.3,85.6-82.7l-8-17.7C85.4,48.3,51.9,80.8,31.3,120.9z"/>
		<path class="st4" d="M220.9,29.4l1.2-19.4c-3.1-0.1-6.2-0.2-9.3-0.2c-10,0-19.8,0.8-29.4,2.1l3.1,19.2c8.6-1.2,17.3-1.9,26.2-1.9
			C215.5,29.2,218.2,29.3,220.9,29.4z"/>
		<path class="st4" d="M385,296.4l-5.7-2.8c-0.5,1-1,1.9-1.5,2.9l5.7,2.8C384,298.3,384.5,297.4,385,296.4z"/>
		<path class="st4" d="M288.4,389.2l-2.6-5.8c-12.5,5.4-25.8,9.4-39.6,12l1,6.2C261.5,399,275.3,394.8,288.4,389.2z"/>
		<path class="st4" d="M203,391.6l1-16.4c0.7,0,1.3,0,2,0.1l-1,16.4c2.6,0.1,5.2,0.2,7.8,0.2c8.5,0,16.9-0.6,25.2-1.8l-1-6.3
			c-7.9,1.1-15.9,1.8-24.1,1.8v-6.7c7.8,0,15.5-0.6,23.1-1.7l-0.5-3.3c0.7-0.1,1.3-0.2,2-0.3l0.5,3.3c1.1-0.2,2.1-0.4,3.2-0.6
			l-0.5-3.3c0.7-0.1,1.3-0.2,2-0.3l0.5,3.3c12.1-2.3,23.6-5.9,34.6-10.7l-1.3-2.8c0.6-0.3,1.2-0.6,1.8-0.8l1.3,2.8
			c1-0.4,2-0.9,2.9-1.3l-1.3-2.8c0.6-0.3,1.2-0.5,1.8-0.8l1.2,2.8c31.9-15.6,58-41.4,74.2-73.2l-1.5-0.7c0.3-0.6,0.6-1.2,0.9-1.8
			l1.5,0.7c0.5-1,1-1.9,1.4-2.9l-1.4-0.7c0.3-0.6,0.6-1.2,0.9-1.8l1.4,0.7c9.6-21,15-44.3,15-68.8h6.7c0,25.6-5.6,49.9-15.7,71.8
			l6.7,3.3c10.7-22.8,16.6-48.2,16.6-75c0-16.2-2.2-32-6.3-46.9l-14.3,4c-0.2-0.6-0.4-1.3-0.5-1.9l14.2-4c-0.3-1-0.6-2.1-0.9-3.1
			l-14.2,4c-0.2-0.6-0.4-1.3-0.5-1.9l14.2-4C361,92.6,300.5,42.6,227.7,36.5l-0.9,13.8c-0.7-0.1-1.3-0.1-2-0.2l0.9-13.8
			c-1.1-0.1-2.1-0.2-3.2-0.2l-0.9,13.8c-0.7,0-1.3,0-2-0.1l0.9-13.8c-2.5-0.1-5.1-0.2-7.7-0.2c-8.5,0-16.9,0.6-25.2,1.8l1.2,7.3
			c7.8-1.1,15.8-1.7,24-1.7v6.5c0,0,0,0-0.1,0c-90,0-162.9,72.9-162.9,162.9c0,0,0,0,0,0h-5.1c0-24.9,5.4-48.4,15-69.7l-8.2-4
			c-10.7,22.8-16.6,48.2-16.6,75c0,14.9,1.9,29.3,5.3,43.1l14.8-4.2c0.2,0.6,0.3,1.3,0.5,1.9l-14.8,4.2c0.3,1,0.6,2.1,0.9,3.1
			l14.8-4.2c0.2,0.6,0.4,1.3,0.5,1.9l-14.8,4.2c20.3,69.2,81.6,121,155.8,127.3l1-16.4c0.7,0.1,1.3,0.1,2,0.2l-1,16.4
			C200.9,391.4,201.9,391.5,203,391.6z"/>
		<path class="st4" d="M293.1,387.1l-2.6-5.7c-1,0.5-1.9,0.9-2.9,1.3l2.6,5.8C291.2,387.9,292.1,387.5,293.1,387.1z"/>
		<path class="st4" d="M388.9,158.2l18.7-5.3C383.2,75.1,313.4,17.3,229.3,10.5l-1.2,19.4C303.8,36.1,366.7,88.2,388.9,158.2z"/>
		<path class="st4" d="M227.4,10.4c-1.1-0.1-2.1-0.2-3.2-0.2l-1.2,19.4c1.1,0.1,2.1,0.2,3.2,0.2L227.4,10.4z"/>
		<path class="st4" d="M382.6,301l-5.7-2.8c-18.5,35.8-48.3,64.8-84.6,82.2l2.6,5.7C332.6,368.2,363.5,338.1,382.6,301z"/>
		<path class="st4" d="M291.1,395.3c-13.6,5.9-27.9,10.2-42.8,12.9l1,6.4c15.5-2.8,30.4-7.3,44.4-13.4L291.1,395.3z"/>
		<path class="st4" d="M242.2,415.8l-1-6.4c-9.3,1.3-18.7,2.1-28.3,2.1v-6.7c9.3,0,18.4-0.7,27.3-2l-1-6.2
			c-8.6,1.2-17.3,1.9-26.2,1.9c-2.8,0-5.5-0.1-8.3-0.2l-1.2,19.4c3.2,0.1,6.3,0.2,9.5,0.2C222.8,417.9,232.6,417.2,242.2,415.8z"/>
		<path class="st4" d="M246.3,408.6c-1.1,0.2-2.1,0.4-3.2,0.6l1,6.4c1.1-0.2,2.1-0.4,3.2-0.6L246.3,408.6z"/>
	</g>
	<g>
		<path class="st3" d="M102.1,265.7h61.7v15.4H79.6v-15.8c24.3-24.2,40.6-42.1,49-53.9c8.4-11.7,12.6-21.7,12.6-29.9
			c0-6.3-2.3-11.4-7-15.4c-4.7-4-10.7-6-18.1-6c-5,0-10.1,0.8-15.2,2.5c-5.2,1.6-10.1,4.1-14.9,7.3l-2.1-17.4
			c6.3-2.8,12.6-5,18.8-6.4c6.2-1.4,12.5-2.1,18.8-2.1c11.3,0,20.5,3.4,27.7,10.2c7.1,6.8,10.7,15.6,10.7,26.3
			c0,10.3-4.2,21.8-12.6,34.4C138.9,227.6,123.8,244.5,102.1,265.7z"/>
		<path class="st3" d="M188.3,220.5h48.6v14.8h-48.6V220.5z"/>
		<path class="st3" d="M309.6,146.3h22.7V236h19.6v14.8h-19.6v30.3h-17.7v-30.3h-64v-17.4L309.6,146.3z M315,162.8L266.2,236h48.4
			L315,162.8z"/>
		<polyline class="st3" points="188.3,220.5 212.6,227.9 236.9,235.3 236.9,220.5 188.3,235.3 		"/>
	</g>
</g>
</svg>
