<?xml version="1.0" encoding="utf-8"?>
<!-- Generator: Adobe Illustrator 21.0.2, SVG Export Plug-In . SVG Version: 6.00 Build 0)  -->
<svg version="1.1" xmlns="http://www.w3.org/2000/svg" xmlns:xlink="http://www.w3.org/1999/xlink" x="0px" y="0px"
	 viewBox="0 0 425.2 425.2" style="enable-background:new 0 0 425.2 425.2;" xml:space="preserve">
<style type="text/css">
	.st0{fill:#D83A35;}
	.st1{fill:#FFFFFF;}
	.st2{display:none;}
	.st3{display:inline;fill:none;}
	.st4{display:inline;fill:#FFFFFF;}
	.st5{font-family:'TimesNewRomanPS-ItalicMT';}
	.st6{font-size:400px;}
	.st7{font-size:375px;}
	.st8{font-family:'CambriaMath';}
	.st9{font-size:350px;}
</style>
<g id="レイヤー_1">
</g>
<g id="レイヤー_2">
	<g>
		<g>
			<g>
				<path class="st0" d="M0,376.6c0,26.8,21.8,48.6,48.6,48.6h328c26.8,0,48.6-21.8,48.6-48.6v-328c0-26.8-21.8-48.6-48.6-48.6h-328
					C21.8,0,0,21.8,0,48.6V376.6z"/>
			</g>
		</g>
		<g>
			<path class="st1" d="M234.2,33.5l-8,27.5h-46.7l-22.9,77.5c-4.2,14.3-6.2,24.9-6.2,31.8c0,5.1,1.6,9.3,4.8,12.6
				c3.2,3.3,7.4,5,12.6,5c11.1,0,19.9-8.6,26.6-25.8h7.6c-8.7,32-24.4,48-47.1,48c-9.5,0-17.2-2.8-22.9-8.4
				c-5.8-5.6-8.7-13.5-8.7-23.8c0-8.1,1.9-19.3,5.7-33.8l4.9-18.6c0.4-1.8,1-4,1.8-6.6l18.4-58h-39.6l-20.7,71.3
				c-9.5,32.7-17,53.8-22.6,63.5c-5.5,9.6-12.8,14.5-21.8,14.5c-4.6,0-8.7-1.4-12.5-4.2c-3.8-2.8-5.7-6.5-5.7-11.2
				c0-6.2,4.8-14.9,14.3-26C68.9,141.2,86.4,105.3,97.9,61H83.6c-22.4,0-36.9,6.9-43.4,20.7h-7.4c11.8-32.2,32.7-48.2,62.5-48.2
				H234.2z"/>
		</g>
		<g>
			<path class="st1" d="M247.9,239.1H275l-39.2,89.5c1.8,33.6,7.6,50.4,17.4,50.4c3.4,0,6.7-1.8,9.7-5.4c3.1-3.6,4.9-8.1,5.5-13.5
				h7.5c-3.7,29.8-12.1,44.7-25.5,44.7c-4.6,0-8.9-2.4-12.8-7.3c-3.9-4.9-7.3-22-10.3-51.3c-22.5,39.1-47.7,58.6-75.8,58.6
				c-15.7,0-28.4-5.4-38.1-16.3c-9.6-10.9-14.5-25.4-14.5-43.6c0-17.7,4.5-34.9,13.4-51.5c8.9-16.7,20-30.6,33.3-41.8
				c13.3-11.2,28-16.8,44.1-16.8c11.5,0,20.5,3.5,27,10.6c6.5,7.1,11,18.1,13.5,33L247.9,239.1z M223.4,292.2
				c-0.6-8.9-3.4-18.9-8.4-30c-5-11.1-12.4-16.7-22.2-16.7c-14.3,0-28.7,13.7-43.3,41.1c-14.6,27.4-21.9,51.5-21.9,72.4
				c0,11.5,2.4,20.6,7.2,27.3c4.8,6.7,11.4,10.1,19.9,10.1c8.8,0,16.7-4.5,23.8-13.6c7.1-9.1,16.9-27.8,29.5-56.1L223.4,292.2z"/>
		</g>
		<g>
			<path class="st1" d="M280.7,103.2L341,235.8l64.6-223.2l14.1,16.8l-73.6,251.5h-16.6l-70.8-152.1l-28.9,12.8l-5.3-12.8
				L280.7,103.2z"/>
		</g>
		<g>
			<path class="st0" d="M376.6,12.1c20.1,0,36.4,16.3,36.4,36.4v328c0,20.1-16.3,36.4-36.4,36.4h-328c-20.1,0-36.4-16.3-36.4-36.4
				v-328c0-20.1,16.3-36.4,36.4-36.4H376.6 M376.6,0h-328C21.8,0,0,21.8,0,48.6v328c0,26.8,21.8,48.6,48.6,48.6h328
				c26.8,0,48.6-21.8,48.6-48.6v-328C425.2,21.8,403.4,0,376.6,0L376.6,0z"/>
		</g>
	</g>
</g>
<g id="レイヤー_3" class="st2">
	<rect x="-36" y="-126.9" class="st3" width="315" height="384.3"/>
	<text transform="matrix(1 0 0 1 21.3047 205.5219)" class="st4 st5 st6">π</text>
	<rect x="5" y="88.8" class="st3" width="363.1" height="371.2"/>
	<text transform="matrix(1 0 0 1 88.0699 400.4307)" class="st4 st5 st7">α</text>
	<rect x="212.6" y="-25.2" class="st3" width="242" height="326.7"/>
	<text transform="matrix(1 0 0 1 218.6555 266.4053)" class="st4 st8 st9">√</text>
</g>
</svg>
