<?xml version="1.0" encoding="utf-8"?>
<!-- Generator: Adobe Illustrator 21.0.2, SVG Export Plug-In . SVG Version: 6.00 Build 0)  -->
<svg version="1.1" id="レイヤー_1" xmlns="http://www.w3.org/2000/svg" xmlns:xlink="http://www.w3.org/1999/xlink" x="0px"
	 y="0px" viewBox="0 0 425.2 425.2" style="enable-background:new 0 0 425.2 425.2;" xml:space="preserve">
<style type="text/css">
	.st0{fill:#2E7839;}
	.st1{fill:#FFFFFF;}
	.st2{fill:#2E7939;}
</style>
<g>
	<g>
		<path class="st0" d="M0,376.6c0,26.8,21.8,48.6,48.6,48.6h328c26.8,0,48.6-21.8,48.6-48.6v-328c0-26.8-21.8-48.6-48.6-48.6h-328
			C21.8,0,0,21.8,0,48.6V376.6z"/>
	</g>
	<path class="st0" d="M376.6,12.1c20.1,0,36.4,16.3,36.4,36.4v328c0,20.1-16.3,36.4-36.4,36.4h-328c-20.1,0-36.4-16.3-36.4-36.4
		v-328c0-20.1,16.3-36.4,36.4-36.4H376.6 M376.6,0h-328C21.8,0,0,21.8,0,48.6v328c0,26.8,21.8,48.6,48.6,48.6h328
		c26.8,0,48.6-21.8,48.6-48.6v-328C425.2,21.8,403.4,0,376.6,0L376.6,0z"/>
	<g>
		<path class="st1" d="M71.6,350.2c3-6.3,5.4-13.8,7.4-22.5c0-1.1,0.3-2,0.7-3.1c0.2-1,2-1,5.4-0.1c3.3,1,4.2,2,2.8,2.9
			c-1.9,2.3-3.6,5.7-5.5,9.9c-2,4.3-3.3,7.2-3.8,9c-0.6,1.4-0.8,2.9-0.6,4.5c1.5-0.2,3-0.7,5-1.6c3-1.6,7-3,11.7-4.7
			c1-0.3,1.9,0.6,2.6,2.6c0.4,2.1,0.3,3.5-0.4,4c-2.3,1.5-4.9,2.9-7.9,4.2c-0.2,0.3-0.4,0.5-0.5,0.7c-0.8,0.8-1.4,4.7-1.6,11.6
			c-0.2,3.6-0.9,7-2,9.9c1.8,1.8,3.5,3.3,4.9,4.7c1.7,1.7,5.2,3.6,10.7,5.6c4.7,2.3,8.2,4.2,10.6,5.7c2.3,1.4,3.3,2.2,3.3,2.7
			c-0.2,0.6-1,1-2.6,1c-7.5,0.5-14.4,0-20.8-1.6c-1,0-1.6-1.5-1.6-4.5c-0.2-3.1-1.8-5.4-4.8-6.9c-1-0.5-2-0.9-2.8-1.5
			c-0.6,0.8-1.2,1.6-1.9,2.3c-6.6,6.6-13.8,10-22.1,9.8c-2.1-0.4-1.7-1.2,1.4-2.5c7.8-2.8,12.9-6,15.6-9.7c0.8-1.4,1.7-2.6,2.5-3.9
			c-1.6-2-4.3-3.6-7.8-5.3c-1.7-0.8-2-2.6-1-5.9c0.6-3,1.6-3.8,2.8-2.4c0.9,1.8,2.6,3.5,5,5.4c1,0.8,2.2,1.8,3.4,2.7
			c0.6-2,0.9-3.8,1.1-5.8c0.2-3.2,0.2-6.1,0.1-8.8c-1.6,0.3-3.3-0.3-4.9-2.2c-0.4,0.4-0.8,0.8-1,1.1c-2.3,2-5.2,4.2-8.6,6.6
			c-0.4,0.2-0.8,0.4-1,0.4c0.6,0.6,0.9,1,0.9,1c-0.2,0.4-0.9,0.9-2.3,1.4c-1.4,0.5-3.3,1.8-5.5,3.7c-1,0.7-2,1.4-2.8,1.9
			c0.2,0.5,0.2,1.4,0.2,2.6c0,0.1,0,0.1,0,0.2c3.6-1.3,6.1-2,7.5-2.3c0.4,0,0.6,0.5,0.6,1.4c-0.2,0.9-0.7,1.5-1.5,1.9
			c-2.5,1.5-4.6,2.7-6.7,3.8c0,2,0,4.5,0,7.4c0,6.1-0.1,10.2-0.2,12.5c0,1.5-1,1.9-3,1.2c-2.1-0.6-4-1.3-5.8-2
			c-3.8-1.2-7.1-2.9-9.6-5.5c-1.4-1.4-1.2-1.8,0.4-1.3c4.7,1.6,8.4,1.9,11.2,0.7c0.8-0.8,1.2-3.8,1.2-9.3c-0.2-0.4-0.2-0.6-0.1-0.9
			c-0.6,0.3-1,0.5-1.4,0.6c-4.7,1.9-7.7,3.3-9.2,4.3c-1.2,1.1-2.5,0.6-3.9-1.4c-1.5-2-2.1-3.1-1.9-3.7c0.2-0.5,0.8-0.9,2-1.1
			c4.5-1.2,9.1-2.4,13.7-4.1c-0.4-2.1-0.9-3.7-1.6-5c-1.2-1.2-0.6-1.7,2.1-1.7c0.9,0,1.9,0.1,2.7,0.1c2.6-2.2,3.6-4.1,2.9-5.9
			c-0.4-1-3-0.5-7.9,1.4c-1,0.3-2,0.6-2.7,1c-3.3,3.1-6.8,6.3-10.5,9.8c-1.2,1.2-1.8,2.2-1.9,3.4c-0.2,1.2-2.9,2.7-7.9,4.4
			c-2.2,0.8-4.3,1-5.9,0.6c-1.9-0.3-2.2-0.8-0.9-1.6c2.2-1.5,4.9-3.2,7.9-5.2c2.8-2,6.2-4.7,10.3-8.4c0.2-0.2,0.4-0.4,0.7-0.8
			c-0.2-0.2-0.4-0.4-0.4-0.6c-1.2-2.1-1.2-3.2,0.1-3.1c0.6,0.1,2.7-0.5,6.4-1.9c2.3-2.2,4.4-4.4,6.3-6.2c-2.7,0.6-5.1,1.2-7.6,1.9
			c-8.8,2.7-13.9,4.4-15,5.2c-2.3,1.7-3.6,1.9-4.1,0.8c-0.6-1.2-1.4-2.3-2.2-3.5c-0.9-1.2-0.9-1.8,0-2c0.8-0.1,1.8-0.3,2.8-0.5
			c4.5-1.2,10.8-2.8,19.2-4.9c1-0.3,2.3-0.7,3.9-1.1c0.2-1,0.4-2.8,0.5-5.7c0-0.6,0-1.2,0-1.9c-0.6,0-1,0-1.2-0.1
			c-1.5-0.4-3.2,0-5.4,1c-1.5,0.8-2.3,0.4-2.5-1.2c-0.4-1.6-0.9-3-1.8-4.4c-1-1.5-0.1-2.1,2.6-2c2.9-0.4,5.7-0.9,8.4-1.5
			c0-1.4,0-2.8,0.2-4.3c0.2-6,0.1-9.4-0.1-10.5c-1.1-2.8,0.1-3.7,4-2.7c3.8,1.1,5.3,2.1,4.4,3.4c-0.6,0.6-0.9,4.6-1.2,11.8
			c2.2-0.8,4.1-1.3,5.5-1.4c1.2-0.2,2.1,0.7,2.5,2.6c0.2,2-0.1,3.2-1.1,3.6c-2.6,1.1-5.1,2-7.2,2.9c-0.2,4.1-0.2,6.9,0.1,8.4
			c0,0,0.2,0,0.5-0.2c0.1-0.4,0.4-0.8,0.8-1.2c2.9-4.6,4.5-7.2,5.1-7.9c0.2-0.9,1.4-0.8,3.5,0.2c2.1,1.2,2.4,2.2,1,3
			c-0.4,0.4-1.7,1.8-3.9,4.3c1.2-0.3,2.4-0.6,3.9-0.9c0.6-0.3,1.2,0.7,1.9,2.9c0.4,2.4-0.4,3.2-2.3,2.5c-2.8,0.3-5.6,0.9-8.4,1.5
			c-1.5,1.6-3,3.2-4.7,5.1c1.9-0.5,3.3-0.7,4.7-0.6c2.7-0.1,5,0.7,7.2,2.2c0.2,0.1,0.4,0.3,0.8,0.5c0-0.2,0.1-0.4,0.3-0.6
			C66.2,359.4,68.5,355.2,71.6,350.2z"/>
	</g>
	<rect x="107.2" y="56.8" class="st1" width="210.8" height="307.8"/>
	<path class="st2" d="M212.4,231.9c-19.3,1.9-34.4,4.3-45.1,7.8c-1.5,0.9-3.5-0.9-6.1-5.2c-2.9-4.3-1.3-5.7,4.6-4.3
		c9.9-2.1,21.5-3.8,34.8-5.9c0.4-1.7,0.6-4.3,0.7-7.6c-7.9,1.2-12.5,2.1-13.6,2.8c-3.3,1.6-5.2,1.7-5.5,0.3c-0.7-1.6-1.3-3.3-2-5
		c-1.1-1.7-1.1-2.4,0.4-2.4c0.9,0,2,0,3.5-0.2c4.4-0.9,10.1-1.7,17.5-2.8c-0.4-2.6-0.4-5.2,0-8.3c-4.8,0.7-9.4,1.6-13.6,2.6
		c-7.2,1.7-10.9,1.9-10.9,0.3c-0.4-1.4-0.6-2.8-0.7-4.1c-0.4-1.2,0.2-1.7,1.7-2.1c10.1-2.1,17.9-3.6,23.6-4.8c0-2.4,0-5.2,0.2-8.1
		c-23.4,3.5-41.8,7.4-55.2,12.1c-1.5,0.9-3.7-0.9-6.3-5.2c-2.9-4-1.3-5.3,4.4-4.1c16.2-3.6,35.3-7.2,57.2-10.9c0-1.2,0-2.4,0.2-3.6
		c0-2.1,0-3.8,0-5.5c-1.8,0.3-3.3,0.9-4.6,1.2c-7.5,1.7-13.4,3.3-17.5,4.3c-2.2,1.4-3.3,0.2-3.3-3.6c-0.4-3.3,0.2-5,1.7-5.3
		c1.1-0.2,2.9-0.3,5-0.5c5.2-0.7,11.4-1.7,18.8-3.6c0-7.4-0.2-12.1-0.6-14c-2.2-5.3,0.4-7.1,7.7-5.3c7.2,1.9,10.1,4.1,8.3,6.6
		c-0.7,0.7-1.3,4-1.7,9.7c10.5-1.7,17.9-1.9,21.7-0.5c3.3,1.4,6.8,2.9,10.5,4.5c3.5,1.6,3.9,3.3,1.1,4.8c-1.8,1.4-3.3,3.1-4.4,5
		c4-0.3,7.9-0.5,12-0.7c11.8-0.5,19-1.4,21.5-2.4c1.1-0.3,2,0.5,2.8,2.1c0.7,2.1,1.8,3.5,3.5,4.1c1.5,0.9,2,3.1,1.8,6.9
		c-0.4,3.8-1.7,5.2-3.9,3.8c-12.9-2.6-26.7-3.6-41.8-3.3c-1.1,4-1.8,8.6-2.2,13.6c0.4,3.6-2.6,5.2-8.6,4.3c-5.7,0-10.9,0.3-16,0.7
		c-0.4,2.9-0.4,5.5-0.2,7.8c5.5-0.7,12.9-1.6,22.1-2.6c1.1-0.3,1.8,1.4,2.4,5.5c0,4.1-1.5,5.5-4.4,3.8c-6.4,0-13.1,0.3-19.9,0.9
		c0,3.1,0.2,5.3,0.7,6.9c8.3-1,16.2-1.6,23.9-1.9c7.9-0.3,12.5-0.5,14-1.2c0.7-0.3,1.7,0.3,2.6,1.9c0.7,1.7,1.7,2.9,2.8,3.5
		c0.9,0.7,1.5,2.8,1.5,6c-0.4,3.5-1.5,4.5-3.3,3.3C243.7,230.9,229.1,230.2,212.4,231.9z M184,283.5c-5.3-7.6-9.8-18.8-13.1-33.3
		c-1.1-2.8-0.9-4.3,0.9-4.3c1.5,0,4.1-0.5,7.7-1.6c6.1-1.4,14.4-2.6,24.7-3.6c17.7-2.6,28.9-2.9,33.9-1.2
		c12.9,3.8,18.2,7.8,15.6,11.7c-2.9,3.6-5.2,8.1-7,13.6c-1.8,5.7-4.8,12.8-8.8,20.5c-1.8,3.8-2.9,5.5-3.7,4.8
		c-1.8-0.7-5.2-2.8-9.6-6.4c-4.4-3.3-7.7-4.7-9.9-4c-14,1.7-22.8,4-26.3,6.4C186.2,287,184.8,286.1,184,283.5z M191.6,258.3
		c7.5-1,15.1-2.2,22.8-3.5c1.5-0.3,2.4,1,2.8,3.8c0,2.9-0.6,4.5-1.5,4.7c-6.8,0.7-14.2,2.1-22.1,4c-2.6,0.7-4.8,1.6-6.3,2.6
		c0.4,1.7,0.9,3.8,1.5,6c0.4,1.4,3.9,1.2,10.1-0.5c5.7-1.6,12.7-2.8,20.6-3.6c1.3-0.7,2.4-0.2,2.9,1.4c0,1.7,0.6,2.9,1.3,3.6
		c0.7,0.7,1.8,0.3,3.5-1c1.8-1.7,3.5-6.4,5-14.5c1.5-7.9,1.3-12.4-0.6-13.5c-2.2-2.1-8.5-2.4-18.6-1.2c-9.9,1.4-16.6,2.6-19.9,3.8
		c-3.7,1.4-5.5,2.6-5.7,3.6c-0.4,1-0.7,2.1-0.7,3.3C188.3,258.5,189.7,258.9,191.6,258.3z M228.2,182.3c-4.2,0.3-8.6,0.9-12.7,1.2
		c-0.7,0-1.1,0.2-1.3,0.2c0,1,0,2.2,0,3.5c-0.4,1.4-0.4,2.8-0.2,4.1c1.8-0.2,3.9-0.3,5.5-0.3c3.3-0.2,5.3-0.7,6.3-1.6
		C226.5,188,227.3,185.5,228.2,182.3z M228.6,166c-1.7-1.5-6.3-1.7-13.2-0.7c-0.4,2.8-0.6,5.9-0.6,9.3c1.1-0.2,2.2-0.3,3.7-0.5
		c3.5-0.7,7.5-1.2,11.6-1.7C230,169.5,229.7,167.4,228.6,166z"/>
	<rect x="137.9" y="69.9" class="st2" width="149.4" height="15.1"/>
	
		<rect x="362.2" y="118.6" transform="matrix(-1 8.066113e-11 -8.066113e-11 -1 749.0204 492.3501)" class="st1" width="24.6" height="255.1"/>
	<path class="st1" d="M380.6,112.9c0,0,11-13.4,10-22.3c-0.9-8-15.8-37.1-15.8-37.1S360,82.6,359.1,90.7c-1,8.8,10,22.3,10,22.3
		H380.6z"/>
</g>
</svg>
