<?xml version="1.0" encoding="utf-8"?>
<!-- Generator: Adobe Illustrator 21.0.2, SVG Export Plug-In . SVG Version: 6.00 Build 0)  -->
<svg version="1.1" id="レイヤー_1" xmlns="http://www.w3.org/2000/svg" xmlns:xlink="http://www.w3.org/1999/xlink" x="0px"
	 y="0px" viewBox="0 0 425.2 425.2" style="enable-background:new 0 0 425.2 425.2;" xml:space="preserve">
<style type="text/css">
	.st0{fill:none;stroke:#000000;stroke-width:4.4291;stroke-miterlimit:10;}
	.st1{fill:#FFFFFF;stroke:#FFFFFF;stroke-width:2.2146;stroke-miterlimit:10;}
	.st2{fill:none;stroke:#FFFFFF;stroke-width:2.2146;stroke-miterlimit:10;}
	.st3{fill:#CC3A35;}
	.st4{fill:#FFFFFF;}
</style>
<path class="st0" d="M145.6,514.1"/>
<path class="st1" d="M145.6,495"/>
<path class="st2" d="M145.6,494.1"/>
<path class="st2" d="M145.6,493.9"/>
<path class="st2" d="M145.6,487.9"/>
<path class="st1" d="M145.6,496.4"/>
<path class="st1" d="M145.6,517.8"/>
<path class="st2" d="M145.6,490.7"/>
<path class="st2" d="M145.6,517.8"/>
<g>
	<g>
		<path class="st3" d="M0,376.6c0,26.8,21.8,48.6,48.6,48.6h328c26.8,0,48.6-21.8,48.6-48.6v-328c0-26.8-21.8-48.6-48.6-48.6h-328
			C21.8,0,0,21.8,0,48.6V376.6z"/>
	</g>
	<g>
		<g>
			<polygon class="st4" points="177,319 209.6,345.1 177,350.1 			"/>
			<path class="st3" d="M166.3,354.3l1.5-35.7l42.5,28.4L166.3,354.3z M172.1,328.5l-3.6,19.4l26.2-4.4L172.1,328.5z"/>
		</g>
		<g>
			<polygon class="st4" points="118.7,120.6 128.2,296.4 167.4,337.6 151.6,268.7 253.8,236.1 			"/>
			<path class="st3" d="M171.9,347.5l-46.6-49.9l-10-183.8l144.5,123.5l-104.8,33.4L171.9,347.5z M131.1,295.1l31,32.5l-14-61
				l99.8-31.8L122,127.3L131.1,295.1z"/>
		</g>
		<g>
			<polygon class="st4" points="170,245 213.7,225.9 302,268.7 170,323.6 			"/>
			<path class="st3" d="M170,328.1V243l45.2-20.5l96.5,46.4L170,328.1z M177,247v72l120.4-50.5l-81.6-39.3L177,247z"/>
		</g>
		<g>
			<polygon class="st4" points="202.6,345.3 392.7,350.1 336.4,291 303.8,268.7 172.4,323.6 			"/>
			<path class="st3" d="M399.8,353.3l-198.2-5.1l-35.2-25.4l137.8-57.5l34.4,23.6L399.8,353.3z M203.5,342.3l182.1,4.7l-51.2-53.8
				l-31-21.2l-125.1,52.2L203.5,342.3z"/>
		</g>
		<g>
			<polygon class="st4" points="170.3,349.3 170,245 98,138.9 104.1,168.3 			"/>
			<path class="st3" d="M170,385.5l-66.3-206.9L95,125.9L177,244L170,385.5z M104.8,151.9l4.3,25.3l62,175.2L170,245.9L104.8,151.9z
				"/>
		</g>
		<polygon class="st4" points="99.9,148.9 36.4,205.1 104.2,177.9 		"/>
		<g>
			<polygon class="st4" points="292.3,264 241,236.1 302,54.2 			"/>
			<path class="st3" d="M295.1,268.9l-57.6-31.3l68.5-204.4L295.1,268.9z M244.6,234.7l44.9,24.4l8.5-183.9L244.6,234.7z"/>
		</g>
	</g>
</g>
</svg>
