<?xml version="1.0" encoding="utf-8"?>
<!-- Generator: Adobe Illustrator 21.0.2, SVG Export Plug-In . SVG Version: 6.00 Build 0)  -->
<svg version="1.1" xmlns="http://www.w3.org/2000/svg" xmlns:xlink="http://www.w3.org/1999/xlink" x="0px" y="0px"
	 viewBox="0 0 425.2 425.2" style="enable-background:new 0 0 425.2 425.2;" xml:space="preserve">
<style type="text/css">
	.st0{fill:#FFFFFF;stroke:#D83935;stroke-width:2.0003;stroke-linecap:round;stroke-miterlimit:10;}
	.st1{fill:#D83A35;}
	.st2{fill:#FFFFFF;}
	.st3{fill:#FFFFFF;stroke:#D83935;stroke-width:2;stroke-linecap:round;stroke-miterlimit:10;}
	.st4{fill:#FFFFFF;stroke:#D83935;stroke-width:2;stroke-miterlimit:10;}
	.st5{fill:#FFFFFF;stroke:#D83935;stroke-miterlimit:10;}
	.st6{fill:none;stroke:#D83935;stroke-miterlimit:10;}
	.st7{fill:#FFFFFF;stroke:#D83935;stroke-width:0.9987;stroke-miterlimit:10;}
	.st8{fill:#D83935;}
	.st9{fill:none;}
</style>
<g id="レイヤー_1">
	<path class="st0" d="M538.7,145.5"/>
	<g>
		<path class="st1" d="M0,376.6c0,26.8,21.8,48.6,48.6,48.6h328c26.8,0,48.6-21.8,48.6-48.6v-328c0-26.8-21.8-48.6-48.6-48.6h-328
			C21.8,0,0,21.8,0,48.6V376.6z"/>
	</g>
	<path class="st1" d="M376.6,12.1c20.1,0,36.4,16.3,36.4,36.4v328c0,20.1-16.3,36.4-36.4,36.4h-328c-20.1,0-36.4-16.3-36.4-36.4
		v-328c0-20.1,16.3-36.4,36.4-36.4H376.6 M376.6,0h-328C21.8,0,0,21.8,0,48.6v328c0,26.8,21.8,48.6,48.6,48.6h328
		c26.8,0,48.6-21.8,48.6-48.6v-328C425.2,21.8,403.4,0,376.6,0L376.6,0z"/>
	<g>
		<polygon class="st2" points="222.3,381.2 214.7,381.2 2.4,113.2 10.1,113.2 		"/>
		<polygon class="st2" points="349.9,381.2 342.2,381.2 130,113.2 137.6,113.2 		"/>
		<polygon class="st2" points="396.6,293.6 401,299.2 33.6,299.2 29.2,293.6 		"/>
		<g>
			<path class="st2" d="M363.7,334.4c1.3-0.9,4.2-1.1,6.3-1.1c12.1,0,25.5,7,32.8,16.2c7.8,9.8,4.2,16.5-8.8,16.5
				c-12.8,0-27.1-6.6-34.8-16.2c-3.1-3.9-4.2-8.8-5-12.9l-5.7-27H359L363.7,334.4z M389,359.8c7.4,0,9.3-4,4.3-10.3
				c-4.9-6.2-13.2-10.3-20.6-10.3c-7.5,0-9.2,4.1-4.3,10.3C373.3,355.7,381.5,359.8,389,359.8z"/>
		</g>
		<g>
			<path class="st2" d="M96.8,155.9h4.7c10,0,11.3-3.8,6.6-9.8c-3.4-4.3-11.5-8.4-19-8.4c-7.2,0-9.5,3.5-6.2,8h-9.3
				c-6.9-8.8-0.8-14.1,10.5-14.1c12.7,0,26.7,6.2,33.4,14.7c4.5,5.7,3.7,10.2-1.4,12.6c9.1,2.2,17.7,6.6,23.3,13.7
				c6.7,8.5,3.8,15.7-9.7,15.7c-14.5,0-27.6-6.2-35-14.5h9.3c4.6,4.5,11.7,8.3,20.8,8.3c7.2,0,9.5-4,5.3-9.3
				c-5.2-6.6-13.6-10.5-23.8-10.5h-4.7L96.8,155.9z"/>
		</g>
		<g>
			<path class="st2" d="M89.2,280.6h-9.5l-37.6-47.5l-6.4,5.7l-6-7.5l6.1-6.1h9.5L89.2,280.6z"/>
		</g>
	</g>
	<polygon class="st3" points="498.2,137.7 484,137.7 477,144.8 484.1,151.8 498.2,151.8 505.3,144.7 	"/>
	<path class="st4" d="M538.6,145.5"/>
	<path class="st3" d="M509.2,144.7"/>
	<polyline class="st2" points="568.1,151.3 561.1,144.2 546.9,144.2 539.8,151.3 	"/>
	<g>
		<g>
			<line class="st0" x1="510.3" y1="145.5" x2="510.3" y2="145.5"/>
			<polygon class="st2" points="531.6,138.4 517.4,138.4 510.3,145.5 538.7,145.5 			"/>
			<path class="st4" d="M510.3,145.5"/>
			<polyline class="st4" points="510.3,145.5 510.4,400.6 524.5,428.9 538.7,400.6 538.6,145.5 			"/>
			<polyline class="st5" points="510.3,145.5 517.4,152.6 531.6,152.6 538.7,145.5 			"/>
		</g>
		<g>
			<polyline class="st6" points="510.3,400 517.4,407 531.6,407 538.7,400 			"/>
		</g>
		<line class="st7" x1="517.4" y1="152.6" x2="517.4" y2="407"/>
		<line class="st7" x1="531.6" y1="152.6" x2="531.6" y2="407"/>
	</g>
	<g>
		<g>
			<g>
				<line class="st2" x1="266.1" y1="36.7" x2="266.1" y2="36.7"/>
				<path class="st8" d="M266.1,37.7L266.1,37.7c-0.6,0-1-0.4-1-1s0.4-1,1-1s1,0.4,1,1S266.7,37.7,266.1,37.7z"/>
			</g>
			<path class="st4" d="M266.1,36.7"/>
			<g>
				<polyline class="st2" points="266.1,36.7 85.8,217.1 75.7,247.2 105.8,237.1 286.1,56.7 				"/>
				<polygon class="st8" points="74.1,248.8 84.9,216.6 265.4,36 266.8,37.4 86.6,217.7 77.3,245.6 105.2,236.3 285.4,56 
					286.8,57.4 106.3,238 106.1,238.1 				"/>
			</g>
			<path class="st5" d="M286.2,56.7"/>
			<path class="st5" d="M276.2,56.7"/>
			<path class="st5" d="M266.1,46.7"/>
			<path class="st5" d="M266.1,36.7"/>
		</g>
		<g>
			<path class="st6" d="M106.2,236.7"/>
			<path class="st6" d="M96.2,236.7"/>
			<path class="st6" d="M86.2,226.7"/>
			<path class="st6" d="M86.2,216.6"/>
		</g>
		<path class="st7" d="M86.2,226.7"/>
		<path class="st7" d="M266.1,46.7"/>
		<path class="st7" d="M96.2,236.7"/>
		<path class="st7" d="M276.1,56.8"/>
	</g>
	<g>
		<polygon class="st9" points="-103.3,118.2 101,376.2 425.2,376.2 425.2,337.8 251.3,118.2 		"/>
		<polygon class="st9" points="455.6,376.2 425.2,337.8 425.2,376.2 		"/>
	</g>
	<g>
		<polygon class="st2" points="253.7,113.2 246.1,113.2 425.2,339.4 425.2,329.7 		"/>
	</g>
	<g>
		<polygon class="st2" points="94.2,375.6 98.6,381.2 425.2,381.2 425.2,375.6 		"/>
	</g>
	<g>
		<polygon class="st2" points="96.2,386.2 425.2,386.2 425.2,376.2 101,376.2 0,248.6 0,264.7 		"/>
		<polygon class="st2" points="251.3,118.2 425.2,337.8 425.2,321.7 256.1,108.2 0,108.2 0,118.2 		"/>
	</g>
	<g>
		<polygon class="st2" points="253.7,113.2 0,113.2 0,118.8 258.1,118.8 		"/>
	</g>
	<g>
		<polygon class="st2" points="323,200.6 0,200.6 0,206.2 327.4,206.2 		"/>
	</g>
	<polygon class="st9" points="-103.3,118.2 0,248.6 0,236.7 0,118.2 	"/>
	<path class="st1" d="M376.6,12.1c20.1,0,36.4,16.3,36.4,36.4v328c0,20.1-16.3,36.4-36.4,36.4h-328c-20.1,0-36.4-16.3-36.4-36.4
		v-328c0-20.1,16.3-36.4,36.4-36.4H376.6 M376.6,0h-328C21.8,0,0,21.8,0,48.6v328c0,26.8,21.8,48.6,48.6,48.6h328
		c26.8,0,48.6-21.8,48.6-48.6v-328C425.2,21.8,403.4,0,376.6,0L376.6,0z"/>
</g>
<g id="レイヤー_2">
	<polygon class="st2" points="285.8,46.4 276.5,37.1 266.9,37.4 285.4,56 	"/>
	<polygon class="st8" points="276.3,56.9 266,46.5 266,36.3 267,36.3 267,46.1 276.8,55.9 287.8,55.9 287.8,56.9 	"/>
	<polygon class="st8" points="96.4,236.8 86.1,226.5 86.1,216.3 87.1,216.3 87.1,226.1 96.8,235.8 106.6,235.8 106.6,236.8 	"/>
	<g>
		<line class="st2" x1="266.5" y1="46.3" x2="86.6" y2="226.3"/>
		
			<rect x="49.3" y="135.8" transform="matrix(0.7076 -0.7066 0.7066 0.7076 -44.693 164.6078)" class="st8" width="254.5" height="1"/>
	</g>
	<g>
		<line class="st2" x1="276.5" y1="56.4" x2="96.6" y2="236.3"/>
		
			<rect x="59.3" y="145.8" transform="matrix(0.7076 -0.7066 0.7066 0.7076 -48.8426 174.6254)" class="st8" width="254.5" height="1"/>
	</g>
	<polygon class="st8" points="87,246.3 76.7,236 76.7,225.8 77.7,225.8 77.7,235.6 87.5,245.3 97.3,245.3 97.3,246.3 	"/>
</g>
</svg>
