<?xml version="1.0" encoding="utf-8"?>
<!-- Generator: Adobe Illustrator 21.0.2, SVG Export Plug-In . SVG Version: 6.00 Build 0)  -->
<svg version="1.1" id="レイヤー_1" xmlns="http://www.w3.org/2000/svg" xmlns:xlink="http://www.w3.org/1999/xlink" x="0px"
	 y="0px" viewBox="0 0 425.2 425.2" style="enable-background:new 0 0 425.2 425.2;" xml:space="preserve">
<style type="text/css">
	.st0{fill:none;stroke:#000000;stroke-width:4.4291;stroke-miterlimit:10;}
	.st1{stroke:#000000;stroke-width:6.0742;stroke-miterlimit:10;}
	.st2{fill:#FFFFFF;}
</style>
<path class="st0" d="M145.6,514.1"/>
<g>
	<g>
		<path d="M0,376.6c0,26.8,21.8,48.6,48.6,48.6h328c26.8,0,48.6-21.8,48.6-48.6v-328c0-26.8-21.8-48.6-48.6-48.6h-328
			C21.8,0,0,21.8,0,48.6V376.6z"/>
	</g>
	<g>
		<path class="st1" d="M424.8,177.1"/>
		<polyline class="st2" points="212.3,253.6 28.2,253.6 0,282.7 0,300.1 424.6,300.1 424.6,282.7 425.2,282.7 397,253.6 
			212.9,253.6 		"/>
		<g>
			<ellipse class="st2" cx="111.3" cy="343" rx="23.9" ry="23.9"/>
			<path d="M111.3,319.1c13.2,0,23.9,10.7,23.9,23.9c0,13.2-10.7,23.9-23.9,23.9c-13.2,0-23.9-10.7-23.9-23.9
				C87.4,329.8,98.1,319.1,111.3,319.1 M111.3,314.8c-15.5,0-28.1,12.6-28.1,28.1c0,15.5,12.6,28.1,28.1,28.1
				c15.5,0,28.1-12.6,28.1-28.1C139.4,327.4,126.8,314.8,111.3,314.8L111.3,314.8z"/>
		</g>
		<g>
			<ellipse class="st2" cx="313.5" cy="343" rx="23.9" ry="23.9"/>
			<path d="M313.5,319.1c13.2,0,23.9,10.7,23.9,23.9c0,13.2-10.7,23.9-23.9,23.9c-13.2,0-23.9-10.7-23.9-23.9
				C289.6,329.8,300.3,319.1,313.5,319.1 M313.5,314.8c-15.5,0-28.1,12.6-28.1,28.1c0,15.5,12.6,28.1,28.1,28.1
				c15.5,0,28.1-12.6,28.1-28.1C341.6,327.4,329,314.8,313.5,314.8L313.5,314.8z"/>
		</g>
		<g>
			<ellipse class="st2" cx="212.4" cy="343" rx="23.9" ry="23.9"/>
			<path d="M212.4,319.1c13.2,0,23.9,10.7,23.9,23.9c0,13.2-10.7,23.9-23.9,23.9c-13.2,0-23.9-10.7-23.9-23.9
				C188.5,329.8,199.2,319.1,212.4,319.1 M212.4,314.8c-15.5,0-28.1,12.6-28.1,28.1c0,15.5,12.6,28.1,28.1,28.1
				c15.5,0,28.1-12.6,28.1-28.1C240.5,327.4,227.9,314.8,212.4,314.8L212.4,314.8z"/>
		</g>
		<g>
			<path class="st2" d="M357.5,407.2v-44.3c0-8-6.4-14.4-14.4-14.4h-59.2c-7.9,0-14.4,6.4-14.4,14.4v44.3H357.5z"/>
			<path d="M360.5,410.2h-94.1v-47.4c0-9.6,7.8-17.4,17.4-17.4h59.2c9.6,0,17.4,7.8,17.4,17.4V410.2z M272.5,404.1h81.9v-41.3
				c0-6.3-5.1-11.4-11.4-11.4h-59.2c-6.3,0-11.4,5.1-11.4,11.4V404.1z"/>
		</g>
		<g>
			<path class="st2" d="M155.3,407.2v-44.3c0-8-6.4-14.4-14.4-14.4H81.7c-7.9,0-14.4,6.4-14.4,14.4v44.3H155.3z"/>
			<path d="M158.3,410.2H64.2v-47.4c0-9.6,7.8-17.4,17.4-17.4h59.2c9.6,0,17.4,7.8,17.4,17.4V410.2z M70.3,404.1h81.9v-41.3
				c0-6.3-5.1-11.4-11.4-11.4H81.7c-6.3,0-11.4,5.1-11.4,11.4V404.1z"/>
		</g>
		<g>
			<path class="st2" d="M256.4,407.2v-44.3c0-8-6.4-14.4-14.4-14.4h-59.2c-7.9,0-14.4,6.4-14.4,14.4v44.3H256.4z"/>
			<path d="M259.4,410.2h-94.1v-47.4c0-9.6,7.8-17.4,17.4-17.4H242c9.6,0,17.4,7.8,17.4,17.4V410.2z M171.4,404.1h81.9v-41.3
				c0-6.3-5.1-11.4-11.4-11.4h-59.2c-6.3,0-11.4,5.1-11.4,11.4V404.1z"/>
		</g>
		<g>
			<path class="st2" d="M332.4,116.7c6.7-0.3,18.1,0.1,29.9,5.7c0,0,7.2,3.4,17.1,14c0.6,0.7,1.8,2,2,4c0.3,2.5-1.3,4.6-2,5.5
				c-1.3,1.1-3.2,2.3-5.3,2c-1.7-0.3-2.6-1.5-5.3-4c0,0-1.5-1.4-5.4-4.4c-4.7-3.7-9-5.6-9.9-6c-3.5-1.4-7.2-2.4-11.2-2.8
				c0.2,0.7,0.3,1.2,0.5,1.6c6.3,11.7,9.3,24.4,11.2,37.5c0,0.3,0.1,0.6,0.1,0.9c-1.9,11.1,3.3,20.8,5.5,31.1
				c1.8,8,6.3,13.9,12.9,17.8c6.7,4,13.6,7.3,20.6,10.7c4.2,2,6.9,5.8,6.4,10.1c-0.5,4.7-3.5,8.1-7.9,8.7c-1.3,0.2-2.8,0.1-4.1-0.4
				c-13.4-5.5-26.2-12.3-36.1-23.5c-3.4-3.8-5.6-9-7.8-13.8c-2.1-4.6-3.5-9.7-5.2-14.5c-0.3,0-0.5-0.1-0.6,0
				c-11.7,10.9-22,22.9-27.6,38.7c-0.7,2-1.1,4.2-1.7,6.3c-1.3,5.5-6.3,8.7-11.3,7.4c-4.9-1.4-7.9-6.4-6.6-11.8
				c3.2-13.3,9.7-25,17.8-35.6c6-7.8,12.6-15.1,19.1-22.5c1.1-1.3,1.3-2.3,1-4c-0.9-5.5-1.1-11.2-2.2-16.6
				c-1.1-5.5-3.1-10.9-4.6-16.3c-0.2-0.9-0.1-2.2,0.4-2.9c2.3-3,4.8-5.8,7-8.8c2.8-3.8,2.3-8.3-1-11.1c-3.3-2.8-7.5-2.2-10.5,1.4
				c-1.7,2-3.3,4-5.4,6.6c0.1-1.1,1.3-10.5,6.6-12.4c2.2-0.8,5.2-0.3,9,0.3C329.9,116,331.4,116.4,332.4,116.7z"/>
			<path class="st2" d="M308,116.8c-9.7,0-17.2-8-17.2-18.2c0-10.1,7.7-18.2,17.3-18.1c9.4,0.1,17.1,8.2,17.1,18.1
				C325.3,108.7,317.6,116.8,308,116.8z"/>
			<path class="st2" d="M281.9,163.7c-3.4,0-6.2-2.3-6.7-5.7c-0.5-3.2,1.3-6.8,4.4-7.5c16.7-3.8,28.3-15.1,38.8-28.3
				c1.2-1.5,3.3-2.5,5.2-2.9c2.5-0.6,5,0.8,5.7,3.3c0.6,2.2,0.9,5.5-0.2,7c-11.4,15.7-25.1,28.4-43.7,33.7c-0.6,0.2-1.2,0.2-1.7,0.3
				C283.1,163.6,282.5,163.6,281.9,163.7z"/>
			<g>
				<path class="st2" d="M277.8,158c0.3-0.9,0.7-1.8,0.9-2.7c2.1-6.4,4.2-12.7,6.2-19.1c0.1-0.2,0.1-0.3,0.1-0.4
					c2.5,1,5,2.1,7.5,3.1c-0.9,2.2-1.8,4.4-2.7,6.5c-2,4.8-4,9.6-6,14.4c-0.1,0.2-0.1,0.3-0.1,0.5c0,0-0.1,0-0.1,0
					c-0.2-0.1-0.4-0.2-0.6-0.3c-1.7-0.7-3.4-1.4-5.1-2.1C277.9,158.1,277.9,158.1,277.8,158z"/>
				<path class="st2" d="M298.4,128.1c0.2,1.3,0.4,2.5,0.1,3.8c-0.1,0.3-0.1,0.6-0.2,0.8c-4.4-1.8-8.8-3.7-13.3-5.5
					c0.5-1.3,1.4-2.3,2.5-3.1c0.1-0.1,0.3-0.2,0.4-0.3c0.5-0.2,0.9-0.4,1.4-0.6c0.1,0,0.2,0,0.3,0c2.2-0.6,4.2-0.2,6,1.3
					c0.8,0.6,1.3,1.5,2,2.2C298,127.1,298.2,127.6,298.4,128.1z"/>
				<path class="st2" d="M284.6,128.5c4.4,1.8,8.8,3.6,13.2,5.5c-1,1.9-2.5,3.2-4.5,3.7c-0.1,0-0.3,0-0.5-0.1
					c-2.3-0.9-4.6-1.9-6.9-2.9c-0.2-0.1-0.4-0.3-0.6-0.5C284.3,132.5,284.1,130.5,284.6,128.5z"/>
			</g>
		</g>
		<g>
			<path class="st2" d="M110.3,141.9c0,6,0,11.2,0,16.4c0,4.1-0.1,8.2,0,12.3c0,2.6-0.7,3.7-3.6,3.6c-11.7-0.2-23.4-0.2-35.1,0
				c-2.7,0-3.4-1-3.4-3.5c0.1-8.4,0-16.8,0-25.2c0-1.1,0-2.1,0-4.2c-1.1,1.6-1.7,2.3-2.1,3.1c-3.7,8-7.4,16-10.9,24.1
				c-1.9,4.4-5,6.5-8.8,5.3c-3.9-1.3-5.5-5-4-9.5c5.7-16.5,13.6-31.8,25-45.2c0.9-1.1,1.9-2.2,2.7-3.3c2.3-3.3,5.5-5.1,9.5-5.1
				c6.4,0,12.8-0.1,19.2,0c4.4,0.1,7.7,2,10.5,5.8c6.9,9.6,14.1,18.9,21.5,28.1c2.3,2.9,5.6,5,8.6,7.2c3.4,2.5,4.5,6,2.5,9.5
				c-1.9,3.1-5.9,4.4-9.2,2.1c-4.4-3.1-8.6-6.6-12.5-10.3C116.9,149.9,114,146.1,110.3,141.9z"/>
			<path class="st2" d="M107.5,87.1c0,10.2-8.1,18.4-18.1,18.4c-10,0-18.4-8.4-18.3-18.4c0.1-10,8.2-18.1,18.1-18.1
				C99.5,69,107.5,76.9,107.5,87.1z"/>
		</g>
		<path class="st2" d="M192.2,81.3c-0.7-1.9-1.2-3.6-1.5-4.9c-0.4-1.3-0.5-2-0.3-2.9c0.4-1.4,1.4-2.2,1.7-2.4c1.4-1,2.9-0.7,3.6-0.6
			c1.4,0.2,2.7,0.9,3.9,2c4.1,4,8.3,8.1,12.2,12.3c2,2.1,3.8,4.4,5.2,7c3.4,6,2.6,12.2-1.9,17.4c-4.9,5.7-11,9.5-17.8,11.9
			c-2.4,0.8-3,2.1-3,4.6c0.1,11.7,0,23.3,0.1,35c0,1.7-0.6,12,0,13.6c3.8,10.9,8.8,13.3,12.6,24.2c0.9,2.7,1.2,5.8,1.1,8.7
			c-0.3,9.1-0.9,18.3-1.5,27.4c-0.4,6-4.8,10.1-10,9.7c-5.4-0.4-9.2-5-9-10.9c0.4-8.4,0.9-16.8,1.3-25.3c0.1-1.6-0.1-3.3-0.7-4.8
			c-2.4-6.9-5-13.7-7.3-20.7c-0.7-2-1.7-2.8-3.7-2.7c-3.3,0.1-6.5,0.2-9.8,0c-2.2-0.1-3.2,0.8-3.8,3c-1.6,4.8-3.1,9.7-5.2,14.3
			c-2.7,5.9-3,12-2.5,18.4c0.5,5.7,0.7,11.4,1.1,17.1c0.4,6.4-3.3,11.2-8.9,11.7c-5.3,0.5-9.7-3.6-10.1-10
			c-0.7-9.8-1.2-19.7-1.6-29.5c-0.1-1.9,0.5-4,1.1-5.9c3.7-10.6,8.1-14,11.8-24.6c0.6-1.6,0.4-10.5,0.4-12.2
			c0.1-12.4,0-24.7,0.1-37.1c0-2.5-0.5-3.8-2.9-4.7c-6.1-2.4-11.4-6.1-15.8-11.2c-4.4-5.1-5.3-11.2-1.8-17c2.8-4.6,4.3-5,8.8-10.7
			c4.4-5.5,4.5-7.6,8.4-10.4c2.1-1.6,4.1-2.4,5.5-2.9c1.1,1.1,2.3,2.2,3.4,3.2c-1.3,6.4-3.3,11-4.9,13.9c-1.2,2.3-2.7,4.6-4,6.5
			c-2.1,3.2-4,5.8-5.4,7.7c4.2,2.6,7.4,4.8,10.9,6.7c2.4,1.3,5,1.8,8,1.6c8.2-0.5,16.5-1,24.6,0c8.6,1.1,14-3.8,21.1-9.2
			c-1.9-1.2-4.3-3.1-6.7-5.7C195.2,88.5,193.2,84.2,192.2,81.3z"/>
		<path class="st2" d="M142,45.4c-4.3-7-8.9-13.9-12.8-21.2c-0.8-1.5,1.2-4.7,1.8-7.1c1.9,1,4.8,1.5,5.5,3
			c3.2,7.7,5.8,15.7,8.7,23.6C144.2,44.3,143.1,44.9,142,45.4z"/>
		<path class="st2" d="M196.5,45c1.8-8.5,3.2-17.1,5.5-25.5c0.6-2,4-3.1,6.1-4.6c0.9,2.7,3.1,6,2.4,8c-2.9,8.1-6.7,15.8-10.1,23.6
			C199.2,46,197.9,45.5,196.5,45z"/>
		<path class="st2" d="M200.9,60.9c5.3-5.4,7.4-14.5,16-16c0.9,1.1,1.8,2.1,2.7,3.2c-5.5,5.1-11.1,10.1-16.6,15.2
			C202.3,62.5,201.6,61.7,200.9,60.9z"/>
		<path class="st2" d="M143.6,62.8c-6.1-5.6-12.2-11.2-18.3-16.8c1-1.2,2-2.3,2.9-3.5c10.1,0.8,11.2,12.4,18,17.1
			C145.3,60.7,144.5,61.8,143.6,62.8z"/>
		<path class="st2" d="M134.3,67.1c-9.4-3.7-18.8-7.4-28.1-11.1c0.7-1.8,1.4-3.6,2.1-5.4c11.9-2.3,18.4,8.5,27.5,12.9
			C135.3,64.6,134.8,65.8,134.3,67.1z"/>
		<path class="st2" d="M214.3,66c8.2-3,16.3-6,24.5-9c0.5,1.7,1,3.4,1.5,5.1c-6.6,7.9-16.5,5.2-24.8,7.6
			C215.1,68.5,214.7,67.2,214.3,66z"/>
		<ellipse class="st2" cx="172.9" cy="86.7" rx="18.7" ry="18.7"/>
		<g>
			<path class="st2" d="M238.9,249.7c-69.3,0-138.3,0-207.5,0c0-24.4,0-48.7,0-73.3c69,0,138.1,0,207.5,0
				C238.9,200.7,238.9,225,238.9,249.7z"/>
			<path d="M241.9,252.7H28.3v-79.4h213.6V252.7z M34.4,246.6h201.5v-67.3H34.4V246.6z"/>
		</g>
		<path d="M376.6,12.1c20.1,0,36.4,16.3,36.4,36.4v328c0,20.1-16.3,36.4-36.4,36.4h-328c-20.1,0-36.4-16.3-36.4-36.4v-328
			c0-20.1,16.3-36.4,36.4-36.4H376.6 M376.6,0h-328C21.8,0,0,21.8,0,48.6v328c0,26.8,21.8,48.6,48.6,48.6h328
			c26.8,0,48.6-21.8,48.6-48.6v-328C425.2,21.8,403.4,0,376.6,0L376.6,0z"/>
	</g>
</g>
</svg>
