<?xml version="1.0" encoding="utf-8"?>
<!-- Generator: Adobe Illustrator 21.0.2, SVG Export Plug-In . SVG Version: 6.00 Build 0)  -->
<svg version="1.1" id="レイヤー_1" xmlns="http://www.w3.org/2000/svg" xmlns:xlink="http://www.w3.org/1999/xlink" x="0px"
	 y="0px" viewBox="0 0 425.2 425.2" style="enable-background:new 0 0 425.2 425.2;" xml:space="preserve">
<style type="text/css">
	.st0{fill:none;stroke:#000000;stroke-width:4.4291;stroke-miterlimit:10;}
	.st1{stroke:#000000;stroke-width:6.0742;stroke-miterlimit:10;}
	.st2{fill:#FFFFFF;}
</style>
<path class="st0" d="M145.6,514.1"/>
<g>
	<g>
		<path d="M0,376.6c0,26.8,21.8,48.6,48.6,48.6h328c26.8,0,48.6-21.8,48.6-48.6v-328c0-26.8-21.8-48.6-48.6-48.6h-328
			C21.8,0,0,21.8,0,48.6V376.6z"/>
	</g>
	<g>
		<path class="st1" d="M425.2,176.5"/>
		<g>
			<polygon class="st2" points="192.9,331.3 50,316.8 42,305.6 73.3,162.3 			"/>
			<path class="st2" d="M199.2,335L48.3,319.7l-9.5-13.5l33.1-151.3L199.2,335z M51.7,313.9l134.9,13.7l-111.7-158L45.3,304.9
				L51.7,313.9z"/>
		</g>
		<rect x="1.6" y="357.8" class="st2" width="422.1" height="6.1"/>
		<polygon class="st2" points="44.6,289.4 35.1,296 38.9,301.5 6.6,324.1 19.3,342.3 29.9,334.9 29.9,357.8 36.5,357.8 36.5,330.3 
			51.6,319.7 55.6,325.4 65.1,318.7 		"/>
		<rect x="48.9" y="260.2" transform="matrix(0.8355 -0.5495 0.5495 0.8355 -156.9781 78.1108)" width="6.1" height="82.1"/>
		<g>
			<polygon class="st2" points="232.3,331.3 375.2,316.8 383.2,305.6 348,160.9 			"/>
			<path class="st2" d="M226.1,335l123.2-181.5l37.1,152.7l-9.6,13.5l-1.4,0.1L226.1,335z M346.7,168.3L238.5,327.7l135.1-13.7
				l6.4-9L346.7,168.3z"/>
		</g>
		<polygon class="st2" points="380.6,289.4 390.1,296 386.3,301.5 418.6,324.1 405.9,342.3 395.3,334.9 395.3,357.8 388.7,357.8 
			388.7,330.3 373.6,319.7 369.6,325.4 360.1,318.7 		"/>
		<rect x="332.2" y="298.2" transform="matrix(0.5488 -0.836 0.836 0.5488 -83.4085 447.9299)" width="82.1" height="6.1"/>
		<circle class="st2" cx="210.6" cy="191.8" r="143.8"/>
		<g>
			<path d="M289.3,306.7c-9,0-17.7,0-25.9,0c0,7.9,0.1,15.1,0,22.2c-0.1,6.2-0.3,12.5-0.9,18.6c-0.6,6.1-5.6,9.9-11.5,9.4
				c-5.8-0.5-9.8-5.2-10.1-11.1c-0.5-12-1.3-23.9-1.9-35.9c-0.2-4.1-0.4-8.2,0-12.2c0.6-5.8,3.8-10.4,9.3-12.2
				c6.9-2.2,14.1-3.6,21.2-5.2c2.3-0.5,4.8-0.6,7.1-0.8c5.8-0.3,5.7-0.3,6.6-6c1.8-11.2,0.5-22.2-2.8-32.8c4.8-2.8,9.6-5.2,14-8.2
				c4.1-2.7,5.5-6.9,4.7-11.6c-0.8-4.4-3.5-7.3-7.7-8.6c-3.5-1.1-6.9-0.6-10,1.5c-1.6,1-3.2,2-5,3.2c2.6-8.1,14.5-10.5,21.4-4.7
				c1.2,1,2.2,2.2,3.2,3.4c15.2,20.1,22.9,42.6,22,67.9c-0.1,2.2-0.3,4.7-1.3,6.6c-4.7,8.8-5,18.6-6.6,28.1
				c-0.8,5-1.1,10.2-1.7,16.3c7.4-0.8,14.2-1.3,20.9-2.2c3.7-0.5,7.3-1.4,10.9-2.1c5.5-1.1,10.8,2.1,12.4,7.3
				c1.7,5.5-0.8,11.5-6.2,13.2c-14.7,4.7-29.6,8.1-45.2,6.5c-9.1-0.9-15-5.6-16.2-14.6c-1.2-9.1-0.9-18.4-1.2-27.5
				C288.6,312.4,289.1,309.6,289.3,306.7z"/>
			<path d="M214.8,208.2c1.4-0.6,2.7-1.1,4.1-1.7c0.3,0.5,0.7,0.8,0.9,1.3c1,3.3,2.3,5.7,6.5,5.4c1.5-0.1,3.3,1.3,4.8,2.2
				c17.1,10.5,34,10.7,50.9-0.3c5-3.3,11.2-2.2,14.3,2.4c3.3,4.8,2,11.2-3.4,14.7c-20.2,13-41.4,15.1-63.5,5.3
				c-3.9-1.7-7.7-4-11.2-6.3c-4.3-2.9-5.8-9-2.9-13c1.9-2.7,1.9-4.8,0.4-7.4C215.2,210,215.1,209.2,214.8,208.2z"/>
			<path d="M273.5,209.2c-13.2,0-23.6-10.3-23.6-23.4c0-13.1,10.5-23.5,23.5-23.5c12.8,0,23.4,10.5,23.5,23.3
				C297,198.6,286.5,209.2,273.5,209.2z"/>
			<path d="M207.1,196.6c3-1.3,5.5-2.3,8.5-3.6c1.7,3.9,3.4,7.6,5.1,11.7c-2.9,1.2-5.6,2.4-8.6,3.7
				C210.5,204.3,208.9,200.6,207.1,196.6z"/>
			<path d="M221.7,203.6c-1.5-3.4-3-6.6-4.3-9.9c-0.3-0.7,0-1.9,0.4-2.6c1.6-2.4,3.3-4.7,5-7C227.4,190.1,227.2,194.3,221.7,203.6z"
				/>
			<path d="M210.6,208.7c-6.4-2.8-13.9-3.4-14.6-12.1C204.3,195.1,207.1,197.3,210.6,208.7z"/>
			<path d="M210.6,192.6c2.3-9,2.3-9,11-9.1C218.6,187.6,217.4,193.1,210.6,192.6z"/>
			<path d="M208.9,191.5c-2.2-1.4-4.4-2.7-6.6-4c3.3-5.6,3.5-5.6,8.9-2.9c-0.5,1.9-0.9,3.9-1.5,5.8
				C209.6,190.6,209.3,190.9,208.9,191.5z"/>
			<path d="M195.7,195c1.9-2.7,3.2-4.4,4.6-6.4c2.9,1.6,5.7,3.1,8.7,4.8C205,197.2,200.7,194.1,195.7,195z"/>
		</g>
		<g>
			<path d="M129.4,170c-7.7,15.3-15,30.9-23.2,46c-6.1,11.4-5.6,18.8,3.5,28.1c0.9,0.9,1.7,2.1,2,3.4c3.2,11.3,6.7,22.6,9.4,34.1
				c0.8,3.4-0.1,7.6-1.3,11c-4.8,13.1-10.1,26-15,39.1c-1.2,3.1-1.5,6.6-1.7,9.9c-0.4,7.4,4.6,13.4,11.5,14.2
				c7.7,0.9,14.7-3.6,15.3-11.3c1-13.1,5.6-25.1,11.9-36.2c8-14.1,7.5-28.2,3.4-42.9c-0.2-0.6-0.4-1.3-0.5-1.9
				c-2-8.5-6.2-17.2-5.4-25.5c0.7-8.1,6.3-15.8,10-23.5c1.6-3.4,1.7-6.4,0.5-10.1c-4.9-14.9-7.9-30.3-8.2-46.1
				c-0.2-9.9,2.2-12.7,13-15c-14.1-1.6-19,6.4-21.5,16.9"/>
			<path d="M142.6,156.8c1,17.7,3.2,34.3,9.6,49.8c3,7.4,8.3,14.1,13.6,20.3c5.2,6.1,11.7,11.1,17.8,16.5c4.3,3.8,10,3.4,13.6-0.5
				c3.5-3.9,3.5-9.7-0.6-13.6c-4.7-4.6-9.5-9.1-14.7-13.2c-10.8-8.6-14.4-20.9-16.8-33.6c-1.6-8.4-2.5-17-3.3-25.5
				c-0.6-7.3-4-11.7-9.9-11.6C146.2,145.4,142.4,150.4,142.6,156.8z"/>
			<path d="M170.1,94.3c-14.2,0-25.6,11.6-25.5,25.8c0.1,14.2,11.7,25.5,25.9,25.3c14.1-0.2,25.2-11.4,25.2-25.5
				C195.7,105.6,184.4,94.2,170.1,94.3z"/>
			<path d="M162.1,148.1c0.7,5.9,1.5,12.2,2.3,18.4C167.8,159.9,166.8,153.1,162.1,148.1z"/>
		</g>
		<path d="M376.6,12.1c20.1,0,36.4,16.3,36.4,36.4v328c0,20.1-16.3,36.4-36.4,36.4h-328c-20.1,0-36.4-16.3-36.4-36.4v-328
			c0-20.1,16.3-36.4,36.4-36.4H376.6 M376.6,0h-328C21.8,0,0,21.8,0,48.6v328c0,26.8,21.8,48.6,48.6,48.6h328
			c26.8,0,48.6-21.8,48.6-48.6v-328C425.2,21.8,403.4,0,376.6,0L376.6,0z"/>
	</g>
</g>
</svg>
