<?xml version="1.0" encoding="utf-8"?>
<!-- Generator: Adobe Illustrator 21.0.2, SVG Export Plug-In . SVG Version: 6.00 Build 0)  -->
<svg version="1.1" xmlns="http://www.w3.org/2000/svg" xmlns:xlink="http://www.w3.org/1999/xlink" x="0px" y="0px"
	 viewBox="0 0 425.2 425.2" style="enable-background:new 0 0 425.2 425.2;" xml:space="preserve">
<style type="text/css">
	.st0{fill:#D83A35;}
	.st1{stroke:#000000;stroke-width:6.0742;stroke-miterlimit:10;}
	.st2{fill:#FFFFFF;}
	.st3{fill:#D83935;}
	.st4{display:none;}
	.st5{display:inline;fill:#FFFFFF;}
</style>
<g id="レイヤー_1">
	<g>
		<g>
			<path class="st0" d="M0,376.6c0,26.8,21.8,48.6,48.6,48.6h328c26.8,0,48.6-21.8,48.6-48.6v-328c0-26.8-21.8-48.6-48.6-48.6h-328
				C21.8,0,0,21.8,0,48.6V376.6z"/>
		</g>
		<path class="st1" d="M425.2,176"/>
		<polyline class="st2" points="350,338.9 350,362.3 362.6,362.3 362.6,266.9 338.1,266.9 325.5,266.9 225.9,266.9 225.9,238.8 
			196.3,238.8 196.3,266.9 155,266.9 155,184.1 72.3,184.1 72.3,371.2 124.6,371.2 124.6,338.9 187.1,338.9 187.1,338.9 350,338.9 
					"/>
		<polyline class="st2" points="319.8,269.6 319,163.8 340.3,163.9 341.1,269.6 		"/>
		<path class="st2" d="M277.1,280.7h-17.5c-6.7,0-12.1-5.5-12.1-12.1v-37.3c0-6.7,5.5-12.1,12.1-12.1h17.5c6.7,0,12.1,5.5,12.1,12.1
			v37.3C289.3,275.3,283.8,280.7,277.1,280.7z"/>
		<ellipse class="st2" cx="330.1" cy="159.7" rx="16.8" ry="8.7"/>
		<ellipse class="st2" cx="166.4" cy="358.5" rx="21.6" ry="21.6"/>
		<circle class="st2" cx="289.3" cy="365.1" r="15.2"/>
		<ellipse class="st2" cx="229.1" cy="358.5" rx="21.6" ry="21.6"/>
		<circle class="st2" cx="330.1" cy="365.1" r="15.2"/>
		<rect x="72.3" y="174.7" class="st2" width="107.4" height="12.8"/>
		<rect x="103.5" y="187.5" class="st3" width="35.5" height="78.6"/>
	</g>
	<path class="st2" d="M302.4,132.3c2.1-10.3-8.3-15.3-8.3-15.3c3-7-7.7-41.8-35-37.5c-9.9,1.6-9,12.8-16.8,8.3
		c-10.3-5.9-9.4-12.8-11.2-18.3c-3-9.2-21.2-32-41.3-22.2c-13.1,6.4-8.8,10.1-15.3,10.4c-6.5,0.3-7.6-11.2-11.4-16.6
		c-7.6-10.6-33.3-20.3-45.7,2.3c-9.3,17.1-8.8,40.3,29.8,54.2c18.2,6.5,17.9-12.2,29.4-9.1c9.1,2.5,6.7,7.7,10.3,15.7
		c3.7,8.3,25.8,23.5,36,17.4c7.5-4.5,4.6-13.8,13.6-12.3c4.8,0.8,11.8,10.3,14.2,12.6c13.5,12.6,30.8,13.9,33.7,6.9
		C288.2,119.7,302.4,132.3,302.4,132.3z"/>
</g>
<g id="レイヤー_2" class="st4">
	<path class="st5" d="M302.4,130.9c-6.8-5.5-13.5-6.8-15.5-5.5c-1.3,0.8-2.1,2.1-2.6,3.5c-1.7,5-14.3,4.4-25.1-2
		c-4.8-2.8-8.9-5.9-12.1-9.8c-1.1-1.3-2.3-2.7-3.7-4c-2.5-2.4-5.2-3.8-7.5-3.9c-2.6-0.1-4.3,0.6-5.3,2c-1.4,1.8-2.4,3.9-3.1,6.1
		c-1.7,4.9-7.1,6.3-16.4,3.7c-5.7-1.6-11.3-4.6-17.1-8.9c-6.2-4.5-10.2-10.2-10.1-13.9c0.1-1.5-0.1-3.1-1.4-5.2
		c-1.5-2.5-4-4.3-6.2-4.2c-2.3,0-4.3,0.5-6.1,1.1c-3.5,1.2-5.4,3.6-7.5,5.8c-1.4,1.5-2.7,3.2-5.4,3.6c-5.2,0.9-11.9-1.4-20-5.9
		c-9.9-5.5-16.6-12.1-21.3-19.6c-0.3-0.4-0.5-0.8-0.6-1.2c-2.7-7-3.9-13.2-2.1-17.8c2-4.9,4.5-9.3,7.2-13.7c1.2-1.9,3.2-3.3,5.1-4.7
		c2.4-1.8,4.8-3.6,7.8-4.9c2.8-1.3,5.8-2.4,10.6-1.6c3.7,0.6,7.8,1.8,12.2,5.1c5.9,4.4,9.1,8.8,10.5,13c0.4,1.1,0.3,2.1,0.6,3.2
		c0.5,2.2,2.4,4.5,4.7,5.8c2.9,1.6,5.6,1.8,6.5,0.6c2.1-2.6,3.8-5.5,6.5-7.6c2.1-1.6,5.3-2.4,8.2-3.4c1.7-0.6,3.6-0.8,5.6-1
		c2.8-0.2,6.5,0.6,10.4,2c5.4,1.9,10.3,5.6,14.4,10.2c5.5,6.3,8.3,11.7,8.6,16.5c0.2,2.3,1,4.8,3.3,7.7c1.1,1.5,2.7,3.1,4.4,4.4
		c3.5,2.8,7,3.7,8.3,2.1c1.3-1.6,2.3-3.5,3.8-5c1.9-2,4.3-3.7,8.8-3.3c5.2,0.4,10.8,2,17.6,7.4c4.6,3.7,8.2,7.5,10.9,11.5
		c4.8,7.1,5.8,12.6,4.5,16.9c-0.5,1.8,3.8,2.6,2.9,4.5c1.4,0.8-1.3-0.6,0,0C300.7,122.3,302.8,128.6,302.4,130.9z"/>
</g>
</svg>
