<?xml version="1.0" encoding="utf-8"?>
<!-- Generator: Adobe Illustrator 21.0.2, SVG Export Plug-In . SVG Version: 6.00 Build 0)  -->
<svg version="1.1" id="レイヤー_1" xmlns="http://www.w3.org/2000/svg" xmlns:xlink="http://www.w3.org/1999/xlink" x="0px"
	 y="0px" viewBox="0 0 425.2 425.2" style="enable-background:new 0 0 425.2 425.2;" xml:space="preserve">
<style type="text/css">
	.st0{fill:none;stroke:#000000;stroke-width:4.4291;stroke-miterlimit:10;}
	.st1{fill:#FFFFFF;stroke:#FFFFFF;stroke-width:2.2146;stroke-miterlimit:10;}
	.st2{fill:none;stroke:#FFFFFF;stroke-width:2.2146;stroke-miterlimit:10;}
	.st3{fill:#FFFFFF;}
	.st4{fill:#F08300;}
</style>
<path class="st0" d="M145.6,514.1"/>
<path class="st1" d="M145.6,495"/>
<path class="st2" d="M145.6,494.1"/>
<path class="st2" d="M145.6,493.9"/>
<path class="st2" d="M145.6,487.9"/>
<path class="st1" d="M145.6,496.4"/>
<path class="st1" d="M145.6,517.8"/>
<path class="st2" d="M145.6,490.7"/>
<path class="st2" d="M145.6,517.8"/>
<g>
	<path class="st3" d="M376.6,425.2h-328C21.8,425.2,0,403.4,0,376.6v-328C0,21.8,21.8,0,48.6,0h328c26.8,0,48.6,21.8,48.6,48.6v328
		C425.2,403.4,403.4,425.2,376.6,425.2z"/>
	<g>
		<rect y="168.1" class="st4" width="28.3" height="117.4"/>
		<path class="st4" d="M1.6,36.4h62.2v22.3h44.5V32.4h68.8V0H48.6C26.1,0,7,15.6,1.6,36.4z"/>
		<rect y="64.8" class="st4" width="57.7" height="59.7"/>
		<path class="st4" d="M0.4,42.5c-0.3,2-0.4,4-0.4,6.1v10.1h57.7V42.5H0.4z"/>
		<rect x="183.2" y="0" class="st4" width="39.5" height="32.4"/>
		<polygon class="st4" points="209.6,377.6 252.1,377.6 252.1,353.3 83,353.3 83,376.1 47.6,376.1 47.6,409 209.6,409 		"/>
		<path class="st4" d="M308.8,32.4v41.5h73.9V0.4c-2-0.3-4-0.4-6.1-0.4H228.8v32.4H308.8z"/>
		<rect x="228.8" y="38.5" class="st4" width="73.9" height="35.4"/>
		<polygon class="st4" points="41.5,347.2 76.9,347.2 76.9,318.4 0,318.4 0,370 41.5,370 		"/>
		<polygon class="st4" points="302.7,80 222.7,80 222.7,38.5 183.2,38.5 183.2,64.8 114.4,64.8 114.4,90.1 302.7,90.1 		"/>
		<rect x="114.4" y="38.5" class="st4" width="62.8" height="20.2"/>
		<path class="st4" d="M376.6,425.2c15,0,28.5-6.9,37.5-17.7v-23.8h-96.2v41.5H376.6z"/>
		<path class="st4" d="M317.9,334.1v43.5h102.3V398c3.2-6.5,5.1-13.7,5.1-21.4v-29.4h-31.9v-13.2H317.9z"/>
		<rect x="47.6" y="353.3" class="st4" width="29.4" height="16.7"/>
		<rect x="399.4" y="334.1" class="st4" width="25.8" height="7.1"/>
		<path class="st4" d="M209.6,415.1H41.5v-39H0v0.5c0,26.7,21.9,48.6,48.6,48.6h161V415.1z"/>
		<path class="st4" d="M388.8,80h-80v16.2H108.3V64.8H63.8v65.8H0V162h34.4v129.6H0v20.8h83v34.9h175.1v30.4h53.7V328h81.5v-53.7
			h-14.7V101.2h46.6V48.6c0-22.5-15.6-41.5-36.4-47V80z"/>
		<rect x="399.4" y="274.4" class="st4" width="25.8" height="53.7"/>
		<rect x="399.4" y="262.2" class="st4" width="25.8" height="6.1"/>
		<rect x="215.6" y="383.7" class="st4" width="36.4" height="25.3"/>
		<polygon class="st4" points="311.8,425.2 311.8,383.7 258.2,383.7 258.2,415.1 215.6,415.1 215.6,425.2 		"/>
		<polygon class="st4" points="384.7,268.3 393.3,268.3 393.3,256.1 425.2,256.1 425.2,107.3 384.7,107.3 		"/>
	</g>
	<g>
		<path class="st3" d="M122.3,145.2h15.6V280h-17.7V165.4l-22.4,19.2l-9.7-12.2L122.3,145.2z"/>
		<path class="st3" d="M188.3,219.4h48.6v14.8h-48.6V219.4z"/>
		<path class="st3" d="M259.7,280V147.2h50.7c13,0,22.8,2.7,29.3,8.1c6.5,5.4,9.8,13.5,9.8,24.3c0,6.9-1.5,12.8-4.5,17.6
			c-3,4.8-7.5,8.6-13.5,11.1c7.6,1.5,13.5,5.1,17.7,10.7c4.2,5.6,6.3,12.7,6.3,21.3c0,12.1-3.8,21.8-11.4,28.9
			c-7.6,7.2-18,10.7-31.1,10.7H259.7z M276.7,203h30c8.8,0,15.3-1.7,19.5-5c4.2-3.4,6.2-8.6,6.2-15.8c0-6.7-2-11.7-6-15
			c-4-3.2-10.1-4.9-18.4-4.9h-31.3V203z M276.7,264h34.7c8.7,0,15.3-2,19.8-6.1c4.5-4.1,6.7-10,6.7-17.7c0-7.7-2.3-13.3-6.9-17
			c-4.6-3.6-11.8-5.4-21.7-5.4h-32.7V264z"/>
		<polyline class="st3" points="188.3,219.4 212.6,226.8 236.9,234.2 236.9,219.4 188.3,234.2 		"/>
	</g>
</g>
</svg>
