<?xml version="1.0" encoding="utf-8"?>
<!-- Generator: Adobe Illustrator 21.0.2, SVG Export Plug-In . SVG Version: 6.00 Build 0)  -->
<svg version="1.1" id="レイヤー_1" xmlns="http://www.w3.org/2000/svg" xmlns:xlink="http://www.w3.org/1999/xlink" x="0px"
	 y="0px" viewBox="0 0 425.2 425.2" style="enable-background:new 0 0 425.2 425.2;" xml:space="preserve">
<style type="text/css">
	.st0{fill:none;stroke:#000000;stroke-width:4.4291;stroke-miterlimit:10;}
	.st1{fill:#FFFFFF;}
</style>
<path class="st0" d="M145.6,514.1"/>
<g>
	<g>
		<path d="M0,376.6c0,26.8,21.8,48.6,48.6,48.6h328c26.8,0,48.6-21.8,48.6-48.6v-328c0-26.8-21.8-48.6-48.6-48.6h-328
			C21.8,0,0,21.8,0,48.6V376.6z"/>
	</g>
	<g>
		<path class="st1" d="M81.8,350.9c1.7-0.1,3.4-0.2,5.2-0.2c79.9,0,159.8,0,239.8,0c2,0,4,0,6.5,0c0,9-5.8,15.1-15,19.8
			c-8,4.1-17.3,5.5-27,5.5c-55.7,0-111.4,0.1-167.1,0c-14.5,0-27.4-3.2-36.1-12.1c-2.7-2.8-4.2-6.2-6.3-9.3
			C81.8,353.4,81.8,352.2,81.8,350.9z"/>
		<path class="st1" d="M305.7,285.6c-5.6,17-14.2,31.6-26.1,44.3c-4.1,4.4-8.3,6.5-14.6,6.4c-38.1-0.3-76.3-0.1-114.4-0.3
			c-3.1,0-6.9-1.5-9.1-3.7c-21.4-21.2-33-46.8-33.3-77.1c-0.2-22.7,0-45.5,0-68.8c67.4,0,134.4,0,201.8,0c-0.8,6.7,3.2,7.1,8.5,7.1
			c19.4-0.1,34.3,8.2,43.3,25.5c8.5,16.4,7.1,32.7-3,48.1c-10.3,15.5-29.9,23.2-48.6,19.4C309,286.3,307.7,286,305.7,285.6z
			 M311.6,218.5c-0.4,0.6-0.7,0.9-0.8,1.3c-0.2,12.6-0.6,25.3-0.5,37.9c0,1.4,2.3,3.4,3.9,3.9c8.8,3,19.1-1.1,24.4-9.2
			c5.3-8.3,4.5-19.2-2.1-26.5C329.7,218.2,320.9,217.6,311.6,218.5z"/>
		<path class="st1" d="M240,70c0,0-1.5,1.5-4.6,4c-2.7,2.5-7.2,5.8-11.3,9.9c-2.1,2-4.1,4.2-5.8,6.6c-1.9,2.3-4.1,4.8-4.9,7.7
			c-1.2,2.8-1,5.9,0.7,8.9c1.5,3,4.6,5.9,7.9,8.6c3.4,2.8,7,5.5,9.5,8.8c2.5,3.1,4.2,6.4,5.3,9.6c1,3.3,0.7,6.6-0.8,9.7
			c-1.3,3.1-4.2,5.7-6.9,8.1c-6.1,4.5-13.2,7.2-18.2,8.9c-5.1,1.6-8.3,2.3-8.3,2.3c-0.4,0.1-0.8,0-1-0.2c-0.1-0.1-0.1-0.2,0.1-0.3
			c0,0,2-1.4,5.2-3.7c1.6-1.2,3.6-2.5,5.5-4.2c1.9-1.7,3.8-3.5,5.5-5.5c3.3-4.1,4.9-8.8,4.4-14.3c-0.4-5.6-4.2-11.2-7.4-17.7
			c-1.8-3.2-3.2-6.4-4.9-9.6c-1.6-3.1-3.2-6.3-4.2-9.5c-0.9-3.2-1-6.5,0.7-9.4c1.5-3,4.5-5.5,7.3-7.7c5.9-4.3,12.6-7.1,17.4-8.9
			c4.9-1.7,7.9-2.5,7.9-2.5c0.4-0.1,0.8,0,1,0.1C240.1,69.8,240.1,69.9,240,70z"/>
		<g>
			<path class="st1" d="M268.8,95.4c0,0-1,1.3-3.3,3.4c-2,2.1-5.4,4.8-8.5,8c-1.6,1.6-3.1,3.3-4.5,5.2c-1.5,1.8-3.4,3.7-4.4,6
				c-1.2,2.2-1.1,4.7,0.2,7.1c1.2,2.4,3.8,4.7,6.6,6.9c2.9,2.2,6,4.4,8.1,7c2.1,2.5,3.7,5.2,4.6,7.9c0.8,2.7,0.6,5.5-0.7,8
				c-1.1,2.5-3.5,4.7-5.9,6.6c-5.2,3.6-11.1,5.8-15.4,7c-4.3,1.2-7,1.7-7,1.7c-0.4,0.1-0.8,0-1-0.2c-0.1-0.1-0.1-0.2,0.1-0.3
				c0,0,1.5-1.2,3.9-3.1c2.4-1.9,5.7-4.7,8.1-7.9c2.4-3.3,3.5-6.9,3.1-11.1c-0.3-4.4-2.9-8.9-5.2-14.1c-1.2-2.6-2.4-5.2-3.6-7.8
				c-1.3-2.5-2.7-5-3.7-7.7c-1-2.6-1.3-5.3,0.1-7.7c1.2-2.5,3.7-4.5,6-6.3c4.9-3.5,10.6-5.7,14.6-7.1c4.1-1.3,6.7-1.9,6.7-1.9
				c0.4-0.1,0.8,0,1,0.2C268.9,95.2,268.9,95.3,268.8,95.4z"/>
		</g>
		<g>
			<path class="st1" d="M203.8,32.4c0,0-2.1,1.9-6.3,5.1c-3.7,3.3-9.6,7.6-15,13.2c-2.7,2.8-5.3,5.8-7.5,9.1
				c-2.3,3.3-4.6,6.8-5.4,10.7c-1.1,3.9-0.6,8.1,1.5,12.2c1.9,4.1,5.4,8.1,9.3,11.9c4,3.8,8.1,7.6,11.1,12c2.9,4.2,5,8.5,6.2,12.9
				c1.1,4.4,0.7,8.7-1,12.8c-1.5,4.1-4.8,7.6-8,10.7c-7.1,6-15.5,9.8-21.4,12.2c-6.1,2.3-9.8,3.4-9.8,3.4c-0.3,0.1-0.7,0-0.9-0.1
				c-0.1-0.1-0.1-0.3,0.1-0.4c0,0,0.6-0.4,1.8-1.3c1.2-0.8,3.1-1.9,5.2-3.5c2.1-1.5,4.8-3.3,7.3-5.5c2.5-2.2,5.1-4.7,7.5-7.5
				c2.1-2.8,4.1-5.9,5.1-9.2c0.8-3.4,1.4-6.9,0.9-10.7c-0.8-7.7-5.7-15.6-10.4-24.1c-2.5-4.2-4.5-8.6-6.5-12.8
				c-2-4.2-3.7-8.5-4.6-12.7c-0.8-4.2-0.6-8.6,1.5-12.5c1.9-3.9,5.5-7.2,8.8-10.2c3.6-2.9,7.2-5.3,10.9-7.3c3.5-2.1,7-3.6,9.8-4.9
				c5.8-2.4,9.3-3.7,9.3-3.7c0.3-0.1,0.7-0.1,0.9,0.1C203.9,32.1,203.9,32.3,203.8,32.4z"/>
		</g>
	</g>
</g>
</svg>
