<?xml version="1.0" encoding="utf-8"?>
<!-- Generator: Adobe Illustrator 21.0.2, SVG Export Plug-In . SVG Version: 6.00 Build 0)  -->
<svg version="1.1" id="レイヤー_1" xmlns="http://www.w3.org/2000/svg" xmlns:xlink="http://www.w3.org/1999/xlink" x="0px"
	 y="0px" viewBox="0 0 425.2 425.2" style="enable-background:new 0 0 425.2 425.2;" xml:space="preserve">
<style type="text/css">
	.st0{fill:none;stroke:#000000;stroke-width:4.4291;stroke-miterlimit:10;}
	.st1{fill:#FFFFFF;stroke:#FFFFFF;stroke-width:2.2146;stroke-miterlimit:10;}
	.st2{fill:none;stroke:#FFFFFF;stroke-width:2.2146;stroke-miterlimit:10;}
	.st3{fill:#753187;}
	.st4{fill:#FFFFFF;}
</style>
<path class="st0" d="M145.6,514.1"/>
<path class="st1" d="M145.6,495"/>
<path class="st2" d="M145.6,494.1"/>
<path class="st2" d="M145.6,493.9"/>
<path class="st2" d="M145.6,487.9"/>
<path class="st1" d="M145.6,496.4"/>
<path class="st1" d="M145.6,517.8"/>
<path class="st2" d="M145.6,490.7"/>
<path class="st2" d="M145.6,517.8"/>
<g>
	<g>
		<path class="st3" d="M0,376.6c0,26.8,21.8,48.6,48.6,48.6h328c26.8,0,48.6-21.8,48.6-48.6v-328c0-26.8-21.8-48.6-48.6-48.6h-328
			C21.8,0,0,21.8,0,48.6V376.6z"/>
	</g>
	<g>
		<path class="st4" d="M242,234.9c0.2-2.3,0.9-3.7,2.4-4.6c1.8,0,3.4,0,5,0c21.6,0.5,39.9-7.7,56-21.6c5.1-4.4,5.7-10.8,1.8-15
			c-4-4.3-9.4-3.8-14.8,0.3c-5.5,4.2-11.1,8.5-17.3,11.3c-13.7,6.2-27.9,9-42.2,1.3c-1.7-0.9-4-1.2-5.9-1.2
			c-9.3-0.1-18.6-0.1-27.9,0c-2.2,0-4.3,0.8-6.5,1.2c-6.2,1.2-12.3,3.1-18.5,3.3c-15.2,0.4-28.4-4.8-39.3-15.6
			c-5.5-5.5-13.7-4.5-16.5,2.1c-1.9,4.6-0.6,8.6,2.9,12c13.4,13.1,29.5,20.2,48.3,20.9c4.1,0.2,8.2,0,12.5,0
			c-0.5,6.2-1.1,12-1.5,17.8c-1.3,18.3-3.5,36.4-10.5,53.5c-8.8,21.8-14.2,44.3-11.3,68.4c0.6,4.9,0.8,9.8,1.1,14.7
			c0.6,9.5,6.7,15.9,14.3,14.9c8-1,12.7-8,11.2-17.6c-4.3-28.1,0.6-54.4,12.7-79.7c3.6,0.4,7.5,1,11.5,1c3.9,0,5.7,1.8,7,5.7
			c5.1,16,17.3,63.3,22.7,79.2c3.2,9.4,9.9,13.4,17.3,10.5c7.3-2.9,10.1-10.7,6.9-20.1c-5.8-17.4-18.5-66.2-24.2-83.7
			c-1.2-3.6-1.8-7.7-1.5-11.5C238.9,266.7,240.7,250.8,242,234.9z"/>
		<path class="st4" d="M212.6,203.6c14.8,0.1,26.6-11.5,26.6-26.2c0.1-14.8-11.6-26.7-26.2-26.7c-14.5-0.1-26.4,11.9-26.4,26.5
			C186.6,191.8,198.2,203.5,212.6,203.6z"/>
	</g>
	<path class="st4" d="M80.9,141.3c3,2.7,6.4,4.7,9.8,6.5c2.8,1.4,5.5,2.9,8.2,4.5c2.1,1.3,3.9,3.1,5.4,5.1l18.5,23.8
		c-0.7,0.6-0.8,1.7-0.2,2.4c0.6,0.8,1.7,0.9,2.5,0.3l6.1-4.8c0.8-0.6,0.9-1.8,0.3-2.5c-0.6-0.7-1.6-0.9-2.4-0.4l-18.6-23.9l0,0
		c-1.2-1.6-2.3-3.4-3.1-5.4c-1.4-3.5-2.1-7-2.9-10.6c-0.9-3.8-2.1-7.5-4-11c-1.8-3.2-4-6.2-6.4-9c-2.9-3.2-5.9-6.2-9.3-8.8
		c-3.2-2.5-6.6-4.8-9.9-7c-0.7-0.5-1.6-0.8-2.4-0.9c-0.9-0.1-1.7,0.1-2.5,0.1c-2.3,1.8-4.6,3.6-6.9,5.3c-0.3,0.7-0.6,1.4-0.8,2.2
		c-0.4,1.5,0.3,3.1,0.9,4.7c1.9,5.6,4.3,11,7.3,16.2C73.3,132.9,76.6,137.4,80.9,141.3z"/>
	<path class="st4" d="M148.6,50.5c-1.9,3.6-3,7.3-3.9,11.1c-0.7,3-1.4,6.1-2.4,9.1c-0.8,2.4-2.1,4.5-3.6,6.5l-18.5,23.7
		c-0.8-0.5-1.8-0.3-2.4,0.4c-0.6,0.8-0.5,1.9,0.3,2.5l6.1,4.8c0.8,0.6,1.9,0.5,2.5-0.3c0.6-0.7,0.5-1.8-0.2-2.4L145.2,82l0,0
		c1.3-1.6,2.8-3.1,4.5-4.3c3-2.3,6.3-3.7,9.6-5.4c3.4-1.8,6.8-3.8,9.7-6.6c2.7-2.5,5-5.4,7.1-8.4c2.4-3.6,4.6-7.3,6.3-11.1
		c1.6-3.7,3-7.5,4.4-11.3c0.3-0.8,0.4-1.8,0.3-2.6c-0.1-0.9-0.5-1.6-0.7-2.4c-2.3-1.8-4.6-3.6-6.8-5.4c-0.8-0.1-1.5-0.2-2.3-0.2
		c-1.6,0-2.9,1.1-4.3,2c-4.9,3.2-9.6,6.8-14,11C154.9,41.2,151.3,45.5,148.6,50.5z"/>
	<path class="st4" d="M289,155.1c3.6,1.8,7.4,2.7,11.2,3.5c3,0.6,6.1,1.2,9.2,2.1c2.4,0.7,4.6,1.9,6.6,3.3l24.5,17.6
		c-0.5,0.8-0.3,1.8,0.5,2.4c0.8,0.6,1.9,0.4,2.5-0.4l4.5-6.3c0.6-0.8,0.4-2-0.4-2.5c-0.7-0.5-1.8-0.4-2.4,0.3l-24.6-17.7l0,0
		c-1.7-1.2-3.2-2.7-4.5-4.3c-2.4-2.9-4-6.2-5.8-9.3c-1.9-3.4-4.1-6.6-7-9.5c-2.6-2.6-5.5-4.8-8.7-6.8c-3.7-2.3-7.5-4.3-11.4-5.8
		c-3.8-1.5-7.6-2.7-11.5-4c-0.8-0.3-1.8-0.3-2.6-0.2c-0.9,0.1-1.6,0.5-2.4,0.8c-1.7,2.3-3.4,4.7-5.1,7.1c0,0.8-0.1,1.5-0.1,2.3
		c0,1.6,1.2,2.9,2.1,4.2c3.4,4.8,7.2,9.3,11.5,13.5C279.4,149.1,283.9,152.6,289,155.1z"/>
	<path class="st4" d="M269.5,75.8c3.1-2.6,5.6-5.6,7.8-8.7c1.8-2.5,3.6-5.1,5.7-7.5c1.6-1.9,3.6-3.4,5.8-4.7L315,40
		c0.5,0.7,1.6,1,2.4,0.5c0.9-0.5,1.2-1.6,0.7-2.5l-3.8-6.7c-0.5-0.9-1.6-1.2-2.5-0.7c-0.8,0.5-1.1,1.5-0.7,2.3l-26.3,15l0,0
		c-1.8,1-3.7,1.8-5.8,2.3c-3.7,0.9-7.3,1-10.9,1.3c-3.8,0.3-7.7,1-11.5,2.4c-3.5,1.3-6.7,3-9.8,5.1c-3.6,2.4-7,5-10,7.9
		c-2.9,2.8-5.7,5.8-8.4,8.8c-0.6,0.7-1,1.5-1.3,2.3c-0.2,0.8-0.2,1.7-0.2,2.5c1.4,2.5,2.9,5,4.3,7.6c0.7,0.4,1.3,0.8,2,1.1
		c1.4,0.6,3.1,0.1,4.7-0.2c5.8-1.1,11.5-2.6,17.1-4.8C260.1,82.1,265.1,79.5,269.5,75.8z"/>
</g>
</svg>
