<?xml version="1.0" encoding="utf-8"?>
<!-- Generator: Adobe Illustrator 21.0.2, SVG Export Plug-In . SVG Version: 6.00 Build 0)  -->
<svg version="1.1" id="レイヤー_1" xmlns="http://www.w3.org/2000/svg" xmlns:xlink="http://www.w3.org/1999/xlink" x="0px"
	 y="0px" viewBox="0 0 425.2 425.2" style="enable-background:new 0 0 425.2 425.2;" xml:space="preserve">
<style type="text/css">
	.st0{fill:none;stroke:#000000;stroke-width:4.4291;stroke-miterlimit:10;}
	.st1{fill:#FFFFFF;stroke:#FFFFFF;stroke-width:2.2146;stroke-miterlimit:10;}
	.st2{fill:none;stroke:#FFFFFF;stroke-width:2.2146;stroke-miterlimit:10;}
	.st3{fill:#D83A35;}
	.st4{fill:#FFFFFF;}
</style>
<path class="st0" d="M145.6,514.1"/>
<path class="st1" d="M145.6,495"/>
<path class="st2" d="M145.6,494.1"/>
<path class="st2" d="M145.6,493.9"/>
<path class="st2" d="M145.6,487.9"/>
<path class="st1" d="M145.6,496.4"/>
<path class="st1" d="M145.6,517.8"/>
<path class="st2" d="M145.6,490.7"/>
<path class="st2" d="M145.6,517.8"/>
<g>
	<g>
		<path class="st3" d="M1.2,376.6c0,26.8,21.8,48.6,48.6,48.6h328c26.8,0,48.6-21.8,48.6-48.6v-328c0-26.8-21.8-48.6-48.6-48.6h-328
			C22.9,0,1.2,21.8,1.2,48.6V376.6z"/>
	</g>
	<g>
		<g>
			<path class="st4" d="M42.3,249c6.3-9.7,14.7-13.7,14.7-13.7v42.9l-14.7-3.2V249z"/>
			<path class="st3" d="M59.9,281.7l-20.4-4.5v-29l0.5-0.7c6.6-10.3,15.5-14.6,15.9-14.7l4-1.9V281.7z M45.2,272.7l9.1,2v-34.2
				c-2.6,1.9-6.1,5-9.1,9.4V272.7z"/>
		</g>
		<polygon class="st4" points="317,158.5 262.4,123.3 262.4,323.1 317,358.2 371.7,323.1 371.7,123.3 		"/>
		<g>
			<polygon class="st4" points="314,170.9 268.4,139.8 268.4,316.3 314,347.4 359.6,316.3 359.6,139.8 			"/>
			<path class="st3" d="M317,351.1l-48.6-33.2V134.1l48.6,33.2l48.6-33.2v183.9L317,351.1z M274.5,314.7l42.5,29l42.5-29V145.6
				l-42.5,29l-42.5-29V314.7z"/>
		</g>
		<polygon class="st4" points="110.5,158.5 61.9,123.3 61.9,323.1 110.5,358.2 159.1,323.1 159.1,123.3 		"/>
		<g>
			<polygon class="st4" points="110.5,170.9 68,139.8 68,316.3 110.5,347.4 153,316.3 153,139.8 			"/>
			<path class="st3" d="M113.5,351.2L68,317.9v-184l45.6,33.3l45.6-33.3v184L113.5,351.2z M74.1,314.8l39.5,28.9l39.5-28.9v-169
				l-39.5,28.9l-39.5-28.9V314.8z"/>
		</g>
		<g>
			<polygon class="st4" points="213.8,108.4 140.9,67 140.9,302.1 213.8,343.5 286.7,302.1 286.7,67 			"/>
			<path class="st3" d="M216.8,347l-75.9-43.2V61.7l75.9,43.2l75.9-43.2v242.1L216.8,347z M147,300.3l69.9,39.7l69.9-39.7V72.2
				l-69.9,39.7L147,72.2V300.3z"/>
		</g>
		<g>
			<polygon class="st4" points="213.8,122.8 153,86.2 153,293.9 213.8,330.5 274.5,293.9 274.5,86.2 			"/>
			<path class="st3" d="M216.8,334L153,295.6V80.8l63.8,38.4l63.8-38.4v214.8L216.8,334z M159.1,292.2l57.7,34.8l57.7-34.8V91.6
				l-57.7,34.8l-57.7-34.8V292.2z"/>
		</g>
		<g>
			<path class="st4" d="M385.4,174v23.1h-11.2v-30.6C374.1,166.5,383.9,168.5,385.4,174z"/>
			<path class="st3" d="M388.2,199.9h-16.9v-36.8l3.4,0.7c1.2,0.2,11.5,2.5,13.4,9.5l0.1,0.7V199.9z M377,194.3h5.6v-19.8
				c-0.7-1.7-3.2-3.2-5.6-4.1V194.3z"/>
		</g>
		<g>
			<path class="st4" d="M37.6,249c18.2,47.9,346.2-29.8,346.2-77v67.6c-6.1,41.5-334.1,114.9-346.2,70.5V249z"/>
			<path class="st3" d="M87.3,326.9c-30,0-46.7-5.4-49.6-16l-0.1-0.8v-77.6l5.9,15.4c6.2,16.2,60.5,16.5,138.5,2.2
				c105.6-19.4,201.9-55.7,201.9-80h6.1v69.5c-5,34.2-187.4,80.8-282.7,86.7C100,326.7,93.4,326.9,87.3,326.9z M43.7,309.7
				c1.6,4.5,11,13.7,63.1,10.5c107.5-6.6,273.2-55.1,277-81.1l0-54.2c-25.8,28.7-128.4,58.8-200.8,72.1
				c-35.9,6.6-115.5,18.6-139.4,0.6V309.7z"/>
		</g>
	</g>
</g>
</svg>
