<?xml version="1.0" encoding="utf-8"?>
<!-- Generator: Adobe Illustrator 21.0.2, SVG Export Plug-In . SVG Version: 6.00 Build 0)  -->
<svg version="1.1" xmlns="http://www.w3.org/2000/svg" xmlns:xlink="http://www.w3.org/1999/xlink" x="0px" y="0px"
	 viewBox="0 0 425.2 425.2" style="enable-background:new 0 0 425.2 425.2;" xml:space="preserve">
<style type="text/css">
	.st0{display:none;}
	.st1{display:inline;}
	.st2{fill:#FFFFFF;}
	.st3{fill:#D83A35;}
	.st4{fill:#0B6EB4;}
	.st5{fill:none;stroke:#000000;stroke-width:4.4291;stroke-miterlimit:10;}
	.st6{fill:#FFFFFF;stroke:#FFFFFF;stroke-width:2.2146;stroke-miterlimit:10;}
	.st7{fill:none;stroke:#FFFFFF;stroke-width:2.2146;stroke-miterlimit:10;}
	.st8{fill:none;}
	.st9{font-family:'NimbusSanConL-Reg';}
	.st10{font-size:60px;}
	.st11{fill:#CC3B35;}
</style>
<g id="レイヤー_2" class="st0">
	<g class="st1">
		<rect x="489.1" y="81.1" class="st2" width="186.4" height="285.6"/>
		<g>
			<path class="st3" d="M513.1,87.9h6.5l13.4,42.4h-6.5l-3.3-11.3h-13.9l-3.3,11.3h-6.3L513.1,87.9z M510.9,113.4h10.6l-5.2-18.2
				h-0.1L510.9,113.4z"/>
		</g>
		<polygon class="st3" points="528.5,152.7 516.3,171.5 504.2,152.7 516.3,133.8 		"/>
		<g>
			<g>
				<path class="st3" d="M639.5,312h6.3l3.3,11.3h13.9l3.3-11.3h6.5l-13.4,42.4h-6.5L639.5,312z M655.9,347.1h0.1l5.2-18.2h-10.6
					L655.9,347.1z"/>
			</g>
			<polygon class="st3" points="669.5,289.6 656.1,270.8 642.6,289.6 656.1,308.5 			"/>
		</g>
		<polygon class="st3" points="622,227.1 582.3,282.7 542.6,227.1 582.3,171.5 		"/>
	</g>
</g>
<g id="レイヤー_1">
	<g>
		<g>
			<path class="st4" d="M0,376.6c0,26.8,21.8,48.6,48.6,48.6h328c26.8,0,48.6-21.8,48.6-48.6v-328c0-26.8-21.8-48.6-48.6-48.6h-328
				C21.8,0,0,21.8,0,48.6V376.6z"/>
		</g>
		<g>
			<path class="st5" d="M428.3,122"/>
			<path class="st6" d="M428.3,102.9"/>
			<path class="st7" d="M428.3,102"/>
			<path class="st7" d="M428.3,101.8"/>
			<path class="st7" d="M428.3,95.9"/>
			<path class="st6" d="M428.3,104.3"/>
			<path class="st6" d="M428.3,125.7"/>
			<path class="st7" d="M428.3,98.7"/>
			<path class="st7" d="M428.3,125.7"/>
			<g>
				<g>
					<g>
						<g>
							
								<rect x="87.7" y="75.1" transform="matrix(0.9397 -0.342 0.342 0.9397 -39.1772 69.8255)" class="st2" width="181.4" height="141.7"/>
						</g>
						
							<rect x="83.2" y="102.2" transform="matrix(0.9397 -0.342 0.342 0.9397 -38.4038 44.0443)" class="st8" width="45.1" height="57.4"/>
						<text transform="matrix(0.9397 -0.342 0.342 0.9397 98.0551 157.9601)" class="st4 st9 st10">K</text>
						<polygon class="st4" points="132.3,168.6 127.4,190.4 109.5,176.9 114.5,155 						"/>
						<polygon class="st4" points="240,199 165.3,226.2 183.6,160.4 						"/>
					</g>
					<g>
						<g>
							
								<rect x="136.2" y="208.3" transform="matrix(-0.9397 0.342 -0.342 -0.9397 535.5839 463.9516)" class="st2" width="181.4" height="141.7"/>
						</g>
						
							<rect x="277.1" y="265.6" transform="matrix(0.9397 -0.342 0.342 0.9397 -82.5806 120.219)" class="st8" width="45.1" height="57.4"/>
						<text transform="matrix(-0.9397 0.342 -0.342 -0.9397 307.2443 267.2398)" class="st4 st9 st10">K</text>
						<polygon class="st4" points="273,256.6 277.9,234.8 295.8,248.3 290.8,270.2 						"/>
						<polygon class="st4" points="165.3,226.2 240,199 221.7,264.8 						"/>
					</g>
				</g>
				<polygon class="st3" points="240,199 221.7,264.8 165.3,226.2 183.6,160.4 				"/>
			</g>
			<g>
				<g>
					<g>
						<g>
							
								<rect x="130.7" y="75.3" transform="matrix(0.9848 -0.1736 0.1736 0.9848 -22.022 40.6622)" class="st2" width="181.4" height="141.7"/>
						</g>
						
							<rect x="129.8" y="90" transform="matrix(0.9848 -0.1736 0.1736 0.9848 -18.298 28.2638)" class="st8" width="45.1" height="57.4"/>
						<text transform="matrix(0.9848 -0.1736 0.1736 0.9848 137.5271 144.5085)" class="st4 st9 st10">Q</text>
						<polygon class="st4" points="172,160.4 163.4,181.1 148.2,164.6 156.8,143.9 						"/>
						<polygon class="st4" points="272.8,209.1 194.6,222.9 224,161.2 						"/>
					</g>
					<g>
						<g>
							
								<rect x="155.3" y="214.9" transform="matrix(-0.9848 0.1736 -0.1736 -0.9848 537.8608 524.4859)" class="st2" width="181.4" height="141.7"/>
						</g>
						
							<rect x="292.4" y="284.5" transform="matrix(0.9848 -0.1736 0.1736 0.9848 -49.6106 59.4552)" class="st8" width="45.1" height="57.4"/>
						<text transform="matrix(-0.9848 0.1736 -0.1736 -0.9848 329.8344 287.4522)" class="st11 st9 st10">Q</text>
						<polygon class="st3" points="295.3,271.6 304,250.9 319.2,267.3 310.5,288 						"/>
						<polygon class="st3" points="194.6,222.9 272.8,209.1 243.3,270.7 						"/>
					</g>
				</g>
				<polygon class="st3" points="272.8,209.1 243.3,270.7 194.6,222.9 224,161.2 				"/>
			</g>
			<g>
				<g>
					<g>
						<g>
							<rect x="173.2" y="82.9" class="st2" width="181.4" height="141.7"/>
						</g>
						<rect x="178.2" y="86" class="st8" width="45.1" height="57.4"/>
						<text transform="matrix(1 0 0 1 184.3359 137.5869)" class="st4 st9 st10">A</text>
						<polygon class="st4" points="212.9,159.2 200.7,178.1 188.6,159.2 200.7,140.4 						"/>
						<polygon class="st4" points="303.6,224.7 224.2,224.7 263.9,169.1 						"/>
					</g>
					<g>
						<g>
							
								<rect x="173.2" y="224.7" transform="matrix(-1 -4.489887e-11 4.489887e-11 -1 527.8408 591.0932)" class="st2" width="181.4" height="141.7"/>
						</g>
						<rect x="304.6" y="305.9" class="st8" width="45.1" height="57.4"/>
						<text transform="matrix(-1 0 0 -1 343.5049 311.769)" class="st4 st9 st10">A</text>
						<polygon class="st4" points="315,290.1 327.1,271.2 339.2,290.1 327.1,309 						"/>
						<polygon class="st4" points="224.2,224.7 303.6,224.7 263.9,280.3 						"/>
					</g>
				</g>
				<polygon class="st4" points="303.6,224.7 263.9,280.3 224.2,224.7 263.9,169.1 				"/>
			</g>
		</g>
	</g>
</g>
</svg>
