<?xml version="1.0" encoding="utf-8"?>
<!-- Generator: Adobe Illustrator 21.0.2, SVG Export Plug-In . SVG Version: 6.00 Build 0)  -->
<svg version="1.1" id="レイヤー_1" xmlns="http://www.w3.org/2000/svg" xmlns:xlink="http://www.w3.org/1999/xlink" x="0px"
	 y="0px" viewBox="0 0 425.2 425.2" style="enable-background:new 0 0 425.2 425.2;" xml:space="preserve">
<style type="text/css">
	.st0{fill:#D83A35;}
	.st1{fill:#FFFFFF;}
</style>
<g>
	<g>
		<path class="st0" d="M0,376.6c0,26.8,21.8,48.6,48.6,48.6h328c26.8,0,48.6-21.8,48.6-48.6v-328c0-26.8-21.8-48.6-48.6-48.6h-328
			C21.8,0,0,21.8,0,48.6V376.6z"/>
	</g>
	<g>
		<path id="XMLID_33_" class="st1" d="M212.1,378.5c0-46.7-112.1-47.7-169,0l70.2-143.1c16-26.4,99.3-25.4,99.3,0
			c0-25.4,83.3-26.4,99.3,0l70.2,143.1C325.2,330.9,212.1,331.9,212.1,378.5v-3.9l0.5-139.7"/>
		<g>
			<path class="st1" d="M159.1,221.8c0,0,1.3-38.9,5.2-45.7l4.9,11.6c0,0,2.3-11.9,5.6-23.8c4.3-15.5,34.3-61.4,32.7-56
				c-3.3,10.6-9.9,40.9-9.9,40.9s17.2-32.1,30.7-52.1c1.4-2.1,10.1,11.6,10.6,20.3c0,0,2.5-9.3-0.4-16.1c-2.3-5.5-5.6-10.4-4.6-11.5
				C246.2,76,279,39.9,290,43.2c8.2,2.5,24.1,16.2,16.7,30.7c-6.8,13.2-22.5,43.2-37.8,66.9c-3.7,5.7-26.1,18.8-40.3,23.7
				c-6.5,2.2-11.2,3.8-11.2,3.8s7.3-0.8,11.5-1.6c8-1.4,28.6-9.8,32.5-11.1c3.8-1.3-44.2,38-44.2,38s10.6-0.8,17.6-1.6
				c2.9-0.3-48.9,46.7-48.9,46.7L159.1,221.8z"/>
			<path class="st0" d="M186.1,240L158,222.4l0-0.6c0.1-1.6,1.3-39.2,5.3-46.2l1.1-1.9l4.4,10.4c0.9-4.4,2.7-12.5,4.9-20.5
				c3.8-13.8,30.4-56.5,33.4-57.2l0.6-0.1l0.5,0.5c0.5,0.5,0.3,1.2,0.2,1.5c-2.2,7.2-6,23.8-8.2,33.5c5.8-10.5,17.4-31.2,27.1-45.6
				c0.4-0.6,1.1-0.8,1.8-0.6c2.4,0.6,7.3,8.4,9.6,15.5c0.2-3,0.1-6.7-1.2-9.7c-0.8-2-1.8-3.8-2.6-5.5c-1.9-3.8-3-5.9-1.8-7.1
				l1.5-1.7c22-23.8,45.9-47.7,55.7-44.8c5.1,1.5,14,7.6,17.8,16.4c2.3,5.4,2.1,10.8-0.4,15.8c-9.6,18.7-24,45.5-37.9,67
				c-4,6.2-27.4,19.5-40.8,24.1c-0.2,0.1-0.5,0.2-0.7,0.3c0.2,0,0.4-0.1,0.5-0.1c6-1.1,19.2-6.1,27-9.1c2.4-0.9,4.3-1.7,5.3-2
				l0.8-0.3l0.6,0.8c0.5,1,1,1.9-42,37.2c3.7-0.3,9.7-0.8,14.2-1.3l0.8-0.1l0.4,0.7c0.4,0.9,1,2.3-49.3,47.9L186.1,240z
				 M160.1,221.2l25.7,16.1c16.9-15.4,41.2-37.8,46.9-44.1c-6.8,0.7-15.4,1.4-15.5,1.4l-3.4,0.3l2.6-2.2c14-11.4,33.9-28,41.3-34.7
				c-0.4,0.2-0.8,0.3-1.2,0.5c-7.9,3-21.2,8.1-27.4,9.2c-4.2,0.7-11.5,1.6-11.6,1.6l-10.1,1.2l9.7-3.2c0,0,4.7-1.6,11.2-3.8
				c14-4.8,36.3-17.8,39.8-23.2c13.8-21.4,28.2-48.1,37.8-66.8c2.3-4.5,2.4-9.2,0.4-14c-3.4-8.1-11.8-13.8-16.4-15.2
				c-10-3-41.6,31.3-53.6,44.2l-1.5,1.7c0,0.4,1.2,2.8,2.2,4.7c0.9,1.7,1.8,3.6,2.7,5.6c2.9,7,0.5,16.4,0.4,16.8l-1.7,6.4l-0.4-6.6
				c-0.4-7.5-6.9-17.8-8.9-19.3c-13.3,19.8-30.2,51.3-30.3,51.6l-3.6,6.7l1.6-7.5c0.1-0.3,5.3-24.3,8.7-36.9
				c-7.3,10.1-26.2,40.6-29.5,52.6c-3.3,11.8-5.6,23.6-5.6,23.8l-0.7,3.4l-5.2-12.4C161.9,187.1,160.6,209.1,160.1,221.2z"/>
		</g>
		<path class="st0" d="M168.7,206.4l-9.7,15.4l2.1,9.3l-42,66.4l-3.4,18.6c7-8.9,17.3-16,24.1-17.3l36.5-57.9l9.5-2.2l9.7-15.4
			l5.1-38L168.7,206.4z"/>
		<rect x="209" y="223.7" class="st0" width="6.1" height="158.5"/>
	</g>
</g>
</svg>
