<?xml version="1.0" encoding="utf-8"?>
<!-- Generator: Adobe Illustrator 21.0.2, SVG Export Plug-In . SVG Version: 6.00 Build 0)  -->
<svg version="1.1" id="レイヤー_1" xmlns="http://www.w3.org/2000/svg" xmlns:xlink="http://www.w3.org/1999/xlink" x="0px"
	 y="0px" viewBox="0 0 425.2 425.2" style="enable-background:new 0 0 425.2 425.2;" xml:space="preserve">
<style type="text/css">
	.st0{fill:#0075C2;}
	.st1{fill:#FFFFFF;}
	.st2{fill:none;}
</style>
<g>
	<g>
		<path class="st0" d="M0,376.6c0,26.8,21.8,48.6,48.6,48.6h328c26.8,0,48.6-21.8,48.6-48.6v-328c0-26.8-21.8-48.6-48.6-48.6h-328
			C21.8,0,0,21.8,0,48.6V376.6z"/>
	</g>
	
		<rect x="53.9" y="-20.7" transform="matrix(0.707 0.7073 -0.7073 0.707 56.6961 -23.4905)" class="st1" width="5.7" height="154.7"/>
	
		<rect x="181.4" y="-73.5" transform="matrix(0.7071 0.7071 -0.7071 0.7071 184.276 -76.3296)" class="st1" width="5.7" height="515.5"/>
	
		<rect x="309" y="154.3" transform="matrix(0.7071 0.7071 -0.7071 0.7071 311.8351 -129.1663)" class="st1" width="5.7" height="315"/>
	
		<rect x="209.8" y="-6.7" transform="matrix(0.2588 -0.9659 0.9659 0.2588 -47.785 362.9171)" class="st1" width="5.7" height="438.7"/>
	
		<rect x="215.9" y="-140.4" transform="matrix(0.2588 -0.9659 0.9659 0.2588 92.0709 265.0693)" class="st1" width="5.7" height="425.9"/>
	
		<rect x="203.6" y="139.7" transform="matrix(0.2588 -0.9659 0.9659 0.2588 -187.6601 460.7908)" class="st1" width="5.7" height="425.9"/>
	<path class="st0" d="M376.6,12.1c20.1,0,36.4,16.3,36.4,36.4v328c0,20.1-16.3,36.4-36.4,36.4h-328c-20.1,0-36.4-16.3-36.4-36.4
		v-328c0-20.1,16.3-36.4,36.4-36.4H376.6 M376.6,0h-328C21.8,0,0,21.8,0,48.6v328c0,26.8,21.8,48.6,48.6,48.6h328
		c26.8,0,48.6-21.8,48.6-48.6v-328C425.2,21.8,403.4,0,376.6,0L376.6,0z"/>
	<path class="st2" d="M317.5,265.9"/>
	<g>
		<path class="st1" d="M242.5,330.1l-76.3-36.4l-2.7-27.3l39-19l115.2,9.5L242.5,330.1z"/>
		<polygon class="st1" points="319.2,271.6 244.2,343.7 243.9,332.4 319.3,259.3 		"/>
		<polygon class="st1" points="241.3,332.4 241.6,343.7 166.8,301.7 166.5,296.6 		"/>
	</g>
</g>
</svg>
