<?xml version="1.0" encoding="utf-8"?>
<!-- Generator: Adobe Illustrator 21.0.2, SVG Export Plug-In . SVG Version: 6.00 Build 0)  -->
<svg version="1.1" id="レイヤー_1" xmlns="http://www.w3.org/2000/svg" xmlns:xlink="http://www.w3.org/1999/xlink" x="0px"
	 y="0px" viewBox="0 0 425.2 425.2" style="enable-background:new 0 0 425.2 425.2;" xml:space="preserve">
<style type="text/css">
	.st0{fill:none;stroke:#000000;stroke-width:4.4291;stroke-miterlimit:10;}
	.st1{fill:#FFFFFF;stroke:#FFFFFF;stroke-width:2.2146;stroke-miterlimit:10;}
	.st2{fill:none;stroke:#FFFFFF;stroke-width:2.2146;stroke-miterlimit:10;}
	.st3{fill:#3C3C3C;}
	.st4{fill:#FFFFFF;}
</style>
<path class="st0" d="M145.6,514.1"/>
<path class="st1" d="M145.6,495"/>
<path class="st2" d="M145.6,494.1"/>
<path class="st2" d="M145.6,493.9"/>
<path class="st2" d="M145.6,487.9"/>
<path class="st1" d="M145.6,496.4"/>
<path class="st1" d="M145.6,517.8"/>
<path class="st2" d="M145.6,490.7"/>
<path class="st2" d="M145.6,517.8"/>
<g>
	<path class="st3" d="M212.6,425.2c117.4,0,212.6-95.2,212.6-212.6C425.2,95.2,330,0,212.6,0C95.2,0,0,95.2,0,212.6
		C0,330,95.2,425.2,212.6,425.2L212.6,425.2z"/>
	<path class="st4" d="M212.6,410.5C322.2,410.5,411,321.6,411,212c0-109.6-88.8-198.4-198.4-198.4C103,13.6,14.2,102.5,14.2,212
		C14.2,321.6,103,410.5,212.6,410.5L212.6,410.5z"/>
	<polyline class="st3" points="248.8,348.4 248.8,165.1 146.3,165.1 146.3,185.1 176.3,185.1 176.3,348.4 146.3,348.4 146.3,368.4 
		278.9,368.4 278.9,348.4 248.8,348.4 	"/>
	<path class="st3" d="M212.6,144.4c24.9,0,45-20.2,45-45c0-24.9-20.2-45-45-45s-45,20.2-45,45C167.6,124.2,187.7,144.4,212.6,144.4"
		/>
</g>
</svg>
