<?xml version="1.0" encoding="utf-8"?>
<!-- Generator: Adobe Illustrator 21.0.2, SVG Export Plug-In . SVG Version: 6.00 Build 0)  -->
<svg version="1.1" id="レイヤー_1" xmlns="http://www.w3.org/2000/svg" xmlns:xlink="http://www.w3.org/1999/xlink" x="0px"
	 y="0px" viewBox="0 0 425.2 425.2" style="enable-background:new 0 0 425.2 425.2;" xml:space="preserve">
<style type="text/css">
	.st0{fill:#D83A35;}
	.st1{fill:#FFFFFF;}
</style>
<g>
	<g>
		<path class="st0" d="M0,376.6c0,26.8,21.8,48.6,48.6,48.6h328c26.8,0,48.6-21.8,48.6-48.6v-328c0-26.8-21.8-48.6-48.6-48.6h-328
			C21.8,0,0,21.8,0,48.6V376.6z"/>
	</g>
	<g>
		<path class="st1" d="M78.7,347.2c3-6.8,5.4-14.7,7.4-24c0-1.1,0.3-2.2,0.7-3.3c0.2-1,2-1,5.4-0.1c3.3,1,4.2,2.1,2.8,3.1
			c-1.9,2.5-3.6,6-5.5,10.5c-2,4.6-3.3,7.7-3.8,9.6c-0.6,1.5-0.8,3.1-0.6,4.8c1.5-0.2,3-0.7,5-1.7c3-1.7,7-3.2,11.7-5
			c1-0.3,1.9,0.6,2.6,2.8c0.4,2.3,0.3,3.7-0.4,4.3c-2.3,1.6-4.9,3.1-7.9,4.5c-0.2,0.3-0.4,0.5-0.5,0.7c-0.8,0.8-1.4,5-1.6,12.4
			c-0.2,3.9-0.9,7.5-2,10.5c1.8,1.9,3.5,3.5,4.9,5c1.7,1.8,5.2,3.8,10.7,5.9c4.7,2.5,8.2,4.5,10.6,6c2.3,1.5,3.3,2.4,3.3,2.9
			c-0.2,0.6-1,1-2.6,1c-7.5,0.5-14.4,0-20.8-1.7c-1,0-1.6-1.6-1.6-4.8c-0.2-3.3-1.8-5.7-4.8-7.4c-1-0.5-2-0.9-2.8-1.6
			c-0.6,0.8-1.2,1.7-1.9,2.5c-6.6,7.1-13.8,10.6-22.1,10.4c-2.1-0.4-1.7-1.3,1.4-2.7c7.8-3,12.9-6.5,15.6-10.3
			c0.8-1.5,1.7-2.8,2.5-4.2c-1.6-2.1-4.3-3.9-7.8-5.6c-1.7-0.8-2-2.8-1-6.2c0.6-3.2,1.6-4.1,2.8-2.6c0.9,1.9,2.6,3.7,5,5.7
			c1,0.8,2.2,1.9,3.4,2.9c0.6-2.1,0.9-4.1,1.1-6.1c0.2-3.4,0.2-6.6,0.1-9.4c-1.6,0.3-3.3-0.3-4.9-2.4c-0.4,0.4-0.8,0.8-1,1.2
			c-2.3,2.1-5.2,4.5-8.6,7.1c-0.4,0.2-0.8,0.4-1,0.4c0.6,0.6,0.9,1,0.9,1c-0.2,0.4-0.9,0.9-2.3,1.5c-1.4,0.5-3.3,1.9-5.5,4
			c-1,0.7-2,1.5-2.8,2c0.2,0.5,0.2,1.5,0.2,2.8c0,0.1,0,0.1,0,0.2c3.6-1.4,6.1-2.2,7.5-2.5c0.4,0,0.6,0.5,0.6,1.5
			c-0.2,0.9-0.7,1.6-1.5,2.1c-2.5,1.6-4.6,2.9-6.7,4.1c0,2.2,0,4.8,0,7.9c0,6.6-0.1,10.9-0.2,13.3c0,1.6-1,2-3,1.2
			c-2.1-0.6-4-1.4-5.8-2.2c-3.8-1.3-7.1-3.1-9.6-5.8c-1.4-1.5-1.2-1.9,0.4-1.4c4.7,1.7,8.4,2,11.2,0.7c0.8-0.8,1.2-4.1,1.2-9.9
			c-0.2-0.4-0.2-0.6-0.1-0.9c-0.6,0.3-1,0.5-1.4,0.6c-4.7,2-7.7,3.5-9.2,4.6c-1.2,1.1-2.5,0.6-3.9-1.5c-1.5-2.1-2.1-3.3-1.9-4
			c0.2-0.5,0.8-0.9,2-1.1c4.5-1.3,9.1-2.6,13.7-4.4c-0.4-2.3-0.9-4-1.6-5.3c-1.2-1.3-0.6-1.8,2.1-1.8c0.9,0,1.9,0.1,2.7,0.1
			c2.6-2.4,3.6-4.4,2.9-6.2c-0.4-1-3-0.5-7.9,1.5c-1,0.3-2,0.6-2.7,1c-3.3,3.3-6.8,6.8-10.5,10.4c-1.2,1.3-1.8,2.4-1.9,3.6
			c-0.2,1.3-2.9,2.9-7.9,4.7c-2.2,0.8-4.3,1-5.9,0.6c-1.9-0.3-2.2-0.8-0.9-1.7c2.2-1.6,4.9-3.4,7.9-5.5c2.8-2.1,6.2-5,10.3-9
			c0.2-0.2,0.4-0.4,0.7-0.8c-0.2-0.2-0.4-0.4-0.4-0.6c-1.2-2.3-1.2-3.4,0.1-3.3c0.6,0.1,2.7-0.5,6.4-2c2.3-2.4,4.4-4.7,6.3-6.7
			c-2.7,0.6-5.1,1.2-7.6,2c-8.8,2.9-13.9,4.7-15,5.5c-2.3,1.8-3.6,2.1-4.1,0.8c-0.6-1.3-1.4-2.5-2.2-3.7c-0.9-1.3-0.9-1.9,0-2.1
			c0.8-0.1,1.8-0.3,2.8-0.5c4.5-1.3,10.8-3,19.2-5.2c1-0.3,2.3-0.7,3.9-1.1c0.2-1,0.4-3,0.5-6c0-0.6,0-1.3,0-2c-0.6,0-1,0-1.2-0.1
			c-1.5-0.4-3.2,0-5.4,1c-1.5,0.8-2.3,0.4-2.5-1.3c-0.4-1.7-0.9-3.2-1.8-4.7c-1-1.6-0.1-2.3,2.6-2.2c2.9-0.4,5.7-0.9,8.4-1.6
			c0-1.5,0-3,0.2-4.6c0.2-6.3,0.1-10-0.1-11.2c-1.1-3,0.1-4,4-2.9c3.8,1.1,5.3,2.3,4.4,3.6c-0.6,0.6-0.9,4.9-1.2,12.6
			c2.2-0.8,4.1-1.4,5.5-1.5c1.2-0.2,2.1,0.7,2.5,2.8c0.2,2.1-0.1,3.4-1.1,3.8c-2.6,1.1-5.1,2.2-7.2,3.1c-0.2,4.4-0.2,7.4,0.1,9
			c0,0,0.2,0,0.5-0.2c0.1-0.4,0.4-0.8,0.8-1.2c2.9-4.9,4.5-7.7,5.1-8.4c0.2-0.9,1.4-0.8,3.5,0.2c2.1,1.3,2.4,2.4,1,3.2
			c-0.4,0.4-1.7,1.9-3.9,4.6c1.2-0.3,2.4-0.6,3.9-0.9c0.6-0.3,1.2,0.7,1.9,3.1c0.4,2.6-0.4,3.4-2.3,2.7c-2.8,0.3-5.6,0.9-8.4,1.6
			c-1.5,1.7-3,3.4-4.7,5.4c1.9-0.5,3.3-0.7,4.7-0.6c2.7-0.1,5,0.7,7.2,2.4c0.2,0.1,0.4,0.3,0.8,0.5c0-0.2,0.1-0.4,0.3-0.6
			C73.3,357,75.6,352.5,78.7,347.2z"/>
	</g>
	<g>
		<circle class="st1" cx="208.4" cy="188.1" r="117.3"/>
		
			<rect x="203" y="29" transform="matrix(0.9171 0.3986 -0.3986 0.9171 92.2484 -67.4887)" class="st1" width="10.8" height="318.2"/>
		<g>
			<polygon class="st0" points="169.8,199.9 176,207.8 179.9,199.5 			"/>
			<polygon class="st0" points="188.9,168.4 170.5,200 178.8,200 197,175 			"/>
			<polygon class="st0" points="151.1,250 132.9,273.9 157.3,281.9 167.1,276.6 175.6,284.1 189.7,281.3 193.5,253.9 173.7,259.6 
							"/>
			<polygon class="st0" points="199.1,152.4 192.1,163.3 205.8,162.7 			"/>
			<polygon class="st0" points="167,211.1 167.4,193.5 160.6,193.4 			"/>
			<path class="st0" d="M242.7,116.3c8-0.1-15.1,20.3-15.1,20.3l-9.3-2.5L213,140h-7.5l7.2-9.5l-45.3,20.9l-0.1,13.6h-9.1l-1.4-11.9
				l-15.4,44l-28.9-1l-8.5,35.6c-30.2-99.1,52.8-143,52.8-143S191.7,117.2,242.7,116.3z"/>
			<path class="st0" d="M298.2,120l-44.1,4.1l20.6,25.2l20.6,17.8l15.2,36.6l-27.4,58.7c0,0,2.5,9.1,4.7,6.6
				C355.8,193.4,298.2,120,298.2,120z"/>
		</g>
		<path class="st1" d="M270,52.8L265,64.2c48,21.6,81.5,69.9,81.5,126c0,76.3-61.8,138.1-138.1,138.1c-19,0-37.1-3.8-53.5-10.8
			l-4.5,10.5c17.9,7.5,37.5,11.7,58.1,11.7c82.8,0,150-67.1,150-150C358.4,128.7,322.1,76.3,270,52.8z"/>
		<rect x="200.5" y="335.2" class="st1" width="15.8" height="49.9"/>
		<rect x="141.3" y="366.1" class="st1" width="134.2" height="19.1"/>
	</g>
</g>
</svg>
