<?xml version="1.0" encoding="utf-8"?>
<!-- Generator: Adobe Illustrator 21.0.2, SVG Export Plug-In . SVG Version: 6.00 Build 0)  -->
<svg version="1.1" id="レイヤー_1" xmlns="http://www.w3.org/2000/svg" xmlns:xlink="http://www.w3.org/1999/xlink" x="0px"
	 y="0px" viewBox="0 0 425.2 425.2" style="enable-background:new 0 0 425.2 425.2;" xml:space="preserve">
<style type="text/css">
	.st0{fill:none;stroke:#000000;stroke-width:4.4291;stroke-miterlimit:10;}
	.st1{fill:#FFFFFF;stroke:#FFFFFF;stroke-width:2.2146;stroke-miterlimit:10;}
	.st2{fill:none;stroke:#FFFFFF;stroke-width:2.2146;stroke-miterlimit:10;}
	.st3{stroke:#000000;stroke-width:6.0742;stroke-miterlimit:10;}
	.st4{fill:#FFFFFF;}
</style>
<path class="st0" d="M145.6,514.1"/>
<path class="st1" d="M145.6,495"/>
<path class="st2" d="M145.6,494.1"/>
<path class="st2" d="M145.6,493.9"/>
<path class="st2" d="M145.6,487.9"/>
<path class="st1" d="M145.6,496.4"/>
<path class="st1" d="M145.6,517.8"/>
<path class="st2" d="M145.6,490.7"/>
<path class="st2" d="M145.6,517.8"/>
<g>
	<path d="M26.6,425.2C11.9,425.2,0,413.3,0,398.6v-372C0,11.9,11.9,0,26.6,0h372c14.7,0,26.6,11.9,26.6,26.6v372
		c0,14.7-11.9,26.6-26.6,26.6H26.6L26.6,425.2z"/>
	<path class="st3" d="M425.2,177"/>
	<g>
		<rect x="38.6" y="125.8" width="348.1" height="173.4"/>
		<path class="st4" d="M386.6,305.3H38.6c-3.4,0-6.1-2.7-6.1-6.1V125.8c0-3.4,2.7-6.1,6.1-6.1h348.1c3.4,0,6.1,2.7,6.1,6.1v173.4
			C392.7,302.6,390,305.3,386.6,305.3z M44.6,293.1h335.9V131.8H44.6V293.1z"/>
	</g>
	<circle class="st4" cx="317.1" cy="329.9" r="52"/>
	<g>
		<path d="M344.3,298.7L327,328.4h11v6.4h-14.5v6.7H338v6.4h-14.4v13.4h-13.1v-13.4h-14.4v-6.4h14.5v-6.7h-14.5v-6.4h10.7
			l-16.9-29.7h15.1l12.3,24.9l12.3-24.9H344.3z"/>
	</g>
	<g>
		<path class="st4" d="M92,184.5H68.1v-8.6h57.9v8.6h-23.9v69.7H92V184.5z"/>
		<path class="st4" d="M145.9,182.2c0.1,3.5-2.4,6.3-6.5,6.3c-3.6,0-6.2-2.8-6.2-6.3c0-3.6,2.7-6.4,6.4-6.4
			C143.4,175.8,145.9,178.6,145.9,182.2z M134.5,254.2V198h10.2v56.2H134.5z"/>
		<path class="st4" d="M201.7,252.1c-2.7,1.4-8.6,3.3-16.1,3.3c-17,0-28-11.5-28-28.7c0-17.3,11.8-29.8,30.2-29.8
			c6,0,11.4,1.5,14.2,2.9l-2.3,7.9c-2.4-1.4-6.3-2.7-11.8-2.7c-12.9,0-19.9,9.5-19.9,21.2c0,13,8.4,21,19.5,21
			c5.8,0,9.6-1.5,12.5-2.8L201.7,252.1z"/>
		<path class="st4" d="M223.8,223.8h0.2c1.4-2,3.4-4.4,5-6.4l16.5-19.4h12.3l-21.7,23.1l24.7,33.1h-12.4L229,227.3l-5.2,5.8v21.1
			h-10.1v-82.4h10.1V223.8z"/>
		<path class="st4" d="M273.9,228c0.2,13.8,9.1,19.5,19.3,19.5c7.3,0,11.7-1.3,15.6-2.9l1.7,7.3c-3.6,1.6-9.8,3.5-18.7,3.5
			c-17.3,0-27.6-11.4-27.6-28.3s10-30.3,26.4-30.3c18.3,0,23.2,16.1,23.2,26.5c0,2.1-0.2,3.7-0.3,4.8H273.9z M303.8,220.7
			c0.1-6.5-2.7-16.6-14.2-16.6c-10.3,0-14.9,9.5-15.7,16.6H303.8z"/>
		<path class="st4" d="M338.7,181.9V198h14.6v7.8h-14.6v30.3c0,7,2,10.9,7.7,10.9c2.7,0,4.6-0.3,5.9-0.7l0.5,7.7
			c-2,0.8-5.1,1.4-9.1,1.4c-4.8,0-8.6-1.5-11-4.3c-2.9-3-3.9-8-3.9-14.6v-30.7H320V198h8.7v-13.5L338.7,181.9z"/>
	</g>
</g>
</svg>
