<?xml version="1.0" encoding="utf-8"?>
<!-- Generator: Adobe Illustrator 21.0.2, SVG Export Plug-In . SVG Version: 6.00 Build 0)  -->
<svg version="1.1" id="レイヤー_1" xmlns="http://www.w3.org/2000/svg" xmlns:xlink="http://www.w3.org/1999/xlink" x="0px"
	 y="0px" viewBox="0 0 425.2 425.2" style="enable-background:new 0 0 425.2 425.2;" xml:space="preserve">
<style type="text/css">
	.st0{fill:none;stroke:#000000;stroke-width:4.4291;stroke-miterlimit:10;}
	.st1{fill:#FFFFFF;stroke:#FFFFFF;stroke-width:2.2146;stroke-miterlimit:10;}
	.st2{fill:none;stroke:#FFFFFF;stroke-width:2.2146;stroke-miterlimit:10;}
	.st3{fill:#3C3C3C;}
	.st4{fill:#FFFFFF;}
</style>
<path class="st0" d="M145.6,514.1"/>
<path class="st1" d="M145.6,495"/>
<path class="st2" d="M145.6,494.1"/>
<path class="st2" d="M145.6,493.9"/>
<path class="st2" d="M145.6,487.9"/>
<path class="st1" d="M145.6,496.4"/>
<path class="st1" d="M145.6,517.8"/>
<path class="st2" d="M145.6,490.7"/>
<path class="st2" d="M145.6,517.8"/>
<g>
	<g>
		<path class="st3" d="M212.6,425.2c117.4,0,212.6-95.2,212.6-212.6C425.2,95.2,330,0,212.6,0C95.2,0,0,95.2,0,212.6
			C0,330,95.2,425.2,212.6,425.2L212.6,425.2z"/>
		<path class="st4" d="M212.6,410.5C322.2,410.5,411,321.6,411,212c0-109.6-88.8-198.4-198.4-198.4C103,13.6,14.2,102.5,14.2,212
			C14.2,321.6,103,410.5,212.6,410.5L212.6,410.5z"/>
	</g>
	<path class="st3" d="M212.6,295.4c-24.9,0-45,20.2-45,45c0,24.9,20.2,45,45,45c24.9,0,45-20.2,45-45
		C257.6,315.6,237.5,295.4,212.6,295.4"/>
	<path class="st3" d="M220,55.2c-26.6,0-74.6,6-102.8,44.8c-15.5,21-17.1,39.3-18.3,55.2h69.7c4.4-22.4,16.5-40.9,48.2-40.9
		c9.5,0,40.1,1.6,40.1,25c0,17.1-15.9,29-46.8,53.6C185.5,212.4,178,229,178,251.3v23h64.3v-7.5c0-23.8,9.9-33.3,38.1-54.8
		c36.9-28.2,50.4-46,50.4-73.8C330.7,94.5,290.7,55.2,220,55.2"/>
</g>
</svg>
