<?xml version="1.0" encoding="utf-8"?>
<!-- Generator: Adobe Illustrator 21.0.2, SVG Export Plug-In . SVG Version: 6.00 Build 0)  -->
<svg version="1.1" id="レイヤー_1" xmlns="http://www.w3.org/2000/svg" xmlns:xlink="http://www.w3.org/1999/xlink" x="0px"
	 y="0px" viewBox="0 0 425.2 425.2" style="enable-background:new 0 0 425.2 425.2;" xml:space="preserve">
<style type="text/css">
	.st0{fill:none;stroke:#000000;stroke-width:4.4291;stroke-miterlimit:10;}
	.st1{fill:#FFFFFF;}
</style>
<path class="st0" d="M145.6,514.1"/>
<g>
	<g>
		<path d="M0,376.6c0,26.8,21.8,48.6,48.6,48.6h328c26.8,0,48.6-21.8,48.6-48.6v-328c0-26.8-21.8-48.6-48.6-48.6h-328
			C21.8,0,0,21.8,0,48.6V376.6z"/>
	</g>
	<g>
		<path class="st1" d="M302.3,401.5H122.9c-3.4,0-6.1-2.7-6.1-6.1V252.1H40.2c-3.4,0-6.1-2.7-6.1-6.1V64.6c0-3.4,2.7-6.1,6.1-6.1
			h121.5l22.1-30c1.1-1.6,3-2.5,4.9-2.5l47.7-0.2c1.7,0,3.8,0.9,5,2.5l22.1,30.2H385c3.4,0,6.1,2.7,6.1,6.1V246
			c0,3.4-2.7,6.1-6.1,6.1h-76.7v143.3C308.3,398.8,305.6,401.5,302.3,401.5z M129,389.3h167.2V246c0-3.4,2.7-6.1,6.1-6.1h76.7V70.7
			H260.4c-1.9,0-3.8-0.9-4.9-2.5l-22-30.2l-41.6,0.2l-22.1,30c-1.1,1.6-3,2.5-4.9,2.5H46.3v169.3h76.7c3.4,0,6.1,2.7,6.1,6.1V389.3z
			"/>
		<g>
			<path class="st1" d="M200.2,92.9c3.3,0,6.9,1.5,10.5,4.5c3.7,3,7.1,6.5,10.4,10.5c0.3-0.1,1-0.3,2.3-0.6c1.3-0.3,2.3-0.5,2.9-0.6
				c0.8-0.4,3.3-2.2,7.5-5.5c4.3-3.3,7.5-4.9,9.9-4.9c6.4,0,13.5,3.9,21.3,11.8c7.7,7.9,11.6,15,11.6,21.5c0,2.1-0.6,3.6-1.8,4.7
				c-1.2,1.1-2.7,1.9-4.5,2.3c-1.8,0.5-4,0.7-6.7,0.9c-2.6,0.1-4.4,0.3-5.3,0.6c0.8,0.6,3.1,2.5,7.1,5.4c3.9,3,7.3,5.7,10,8.2
				c2.7,2.5,5,5.2,6.9,8.1c1.9,2.9,2.8,5.8,2.8,8.6c0,3.1-0.7,5.5-2.2,7.1c-1.5,1.6-3.8,2.4-6.9,2.4c-3,0-7-2-12.1-6.1
				c-5.1-4.1-9.4-7.6-12.9-10.5c-0.5,1.3-1.2,2.3-2,3.1c-0.8,0.8-1.9,1.4-3.2,1.7c3.7,2.1,8.7,4.9,14.9,8.6
				c6.2,3.7,9.3,7.1,9.3,10.2c0,1.3-0.3,2.3-0.9,2.9c-0.6,0.6-1.5,1-2.8,1c-0.9,0-2.8-0.5-5.6-1.5c-2.8-1-4.4-1.5-4.8-1.5
				c0.9,0.8,3.2,2.7,6.9,5.9c3.7,3.2,6.6,5.9,8.7,8.3c2.1,2.4,3.9,5.1,5.3,8c1.4,3,2.1,6.2,2.1,9.7c0,2.8-1.1,5.4-3.2,7.8
				c-2.1,2.4-4.5,3.6-7.3,3.6c-1.2,0-3.7-1.2-7.7-3.5c-4-2.3-6.8-4-8.5-5c-5.4-0.6-10.1-1.3-13.9-1.8c-3.9-0.6-7.6-1.2-11-1.8
				c-0.6,4.3-2.1,7.7-4.4,10.3c-2.3,2.6-5.4,3.9-9.4,3.9c-1.9,0-3.7-0.4-5.2-1.3c-1.5-0.8-3-2-4.5-3.6c-1.5-1.8-5.5-3.8-11.8-6
				c-6.3-2.2-11.2-3.8-14.7-4.8c-0.4,0.4-1.4,1.6-3,3.8c-1.6,2.1-3.1,3.9-4.4,5.3c-1.3,1.4-2.7,2.6-4.3,3.6c-1.5,1-3.1,1.5-4.6,1.5
				c-3.2,0-6.1-2.3-8.5-6.9c-2.5-4.6-4.1-7.4-5-8.6c3.7-3.5,7.1-7.1,10.1-10.7c3-3.7,5.2-7.4,6.6-11.1c-2.5-1.4-4.7-3.1-6.8-4.9
				c-2.1-1.9-3.1-3.8-3.1-5.7c0-1,0.3-1.8,1-2.3c0.6-0.5,1.5-0.8,2.7-0.8c1,0,2.2,0.2,3.5,0.5c1.3,0.3,2.8,0.7,4.4,1.3l64.3-13.2
				c1.7-0.4,3.6-0.6,5.7-0.7c2.1-0.1,4.6-0.2,7.3-0.3c-2.2-1.2-4.5-2.3-6.9-3.3c-2.4-1-4-1.5-4.9-1.5c-1.4,0-3.2,0.3-5.3,1
				c-2.1,0.6-4,1.4-5.7,2.1c-4.1,1.4-8.3,2.5-12.6,3.3c-4.3,0.8-8.6,1.2-13.2,1.2c-1.9,0-3.9-0.4-6-1.3c-2.1-0.8-4-1.8-5.8-3
				c-4.1,3.1-8.2,5.7-12.3,7.7c-4.1,2.1-8.1,3.1-12.1,3.1c-2.2,0-4.8-0.5-7.8-1.4c-3-0.9-6-1.9-9-3.1c4-2.4,8.5-5.8,13.5-10
				c5-4.2,9.1-8,12.2-11.5l-5.6-7.4c-1.2,0.4-2.3,0.7-3.3,1.1c-1,0.3-1.9,0.5-2.7,0.5c-2.4,0-4.1-0.8-5-2.4
				c-0.9-1.6-1.4-3.7-1.4-6.3c0-1.5,0.1-2.9,0.4-4c0.3-1.1,0.8-2,1.7-2.8c1.2-1.2,3.8-3.6,7.8-7.4c4.1-3.7,7.2-6.6,9.4-8.7l0.6-3.1
				c-0.9-1.2-1.7-2.4-2.4-3.9c-0.7-1.4-1.1-2.6-1.1-3.5c0-1,0.3-1.7,1-2c0.7-0.3,1.6-0.5,2.7-0.5c1.8,0,3.7,0.6,5.7,1.9
				c2,1.3,4,2.9,5.9,4.8c2.4-2.3,5.7-5.1,9.7-8.3C194.6,94.5,197.8,92.9,200.2,92.9 M192.3,122.9l12.4-13.7l-1.4-2.3L187.5,119v1.4
				L192.3,122.9 M239.5,120.7c-2.1,0-4.6-0.8-7.7-2.5c-3.1-1.7-5.9-3.3-8.3-4.8v3.1l19,11.4l13-8.7c-0.3-1.2-0.7-2.3-1.4-3.4
				c-0.6-1.1-1.4-2.1-2.1-3c-1.9,1.7-4.1,3.4-6.5,5.2C243,119.8,241.1,120.7,239.5,120.7 M191.9,155c3.4-1.2,8.7-2.9,16-5.3
				c7.3-2.4,12-3.6,14-3.6c2.1,0,5,0.5,8.8,1.4c3.8,0.9,6.2,1.5,7.3,1.7l-22.4-21.7h-1.2L191.9,155 M177.6,138.5h1l3.5-4.1l-5.6-5.2
				l-4.3,3.9L177.6,138.5 M227.3,214.8h0.8c4,0,8.1-0.2,12.2-0.7c4.1-0.5,8.3-1,12.4-1.6c-1-3.2-2.5-6.4-4.3-9.6
				c-1.8-3.2-4-6.9-6.6-11.3c-0.5-0.6-1-2-1.5-4.1c-0.5-2.1-0.7-3.2-0.7-3.5l-17,4.1c1.5,1.7,2.7,3.6,3.6,5.6
				c0.8,2.1,1.3,4.3,1.3,6.6c0,1.5,0,3.9-0.1,7.2C227.4,210.6,227.3,213.1,227.3,214.8 M203.3,215.4c0-1.7,0-4.2,0.1-7.5
				c0.1-3.3,0.1-5.7,0.1-7.3c0-1.8-0.1-3.4-0.4-4.7c-0.3-1.4-0.7-2.8-1.4-4.4l-21.5,5c0.4,0.9,0.8,2,1.3,3.2c0.5,1.2,0.7,2.2,0.7,3
				c0,0.8-0.5,2.3-1.4,4.5c-0.9,2.3-1.6,4-2.1,5.1L203.3,215.4 M200.2,85.6c-4.3,0-8.8,2.1-14.3,6.5c-1.9,1.5-3.6,3-5.2,4.3
				c-0.6-0.4-1.2-0.9-1.8-1.3c-3.2-2.1-6.5-3.1-9.7-3.1c-2.3,0-4.3,0.4-5.9,1.2c-3.2,1.6-5,4.8-5,8.6c0,2.1,0.6,4.3,1.8,6.8
				c0.2,0.3,0.4,0.7,0.5,1c-1.8,1.7-4,3.7-6.5,6c-4.1,3.8-6.6,6.1-7.9,7.4c-1.9,1.7-3.3,4-3.9,6.5c-0.4,1.7-0.6,3.5-0.6,5.6
				c0,3.8,0.8,7.1,2.3,9.9c1.3,2.3,4.4,6.1,11.2,6.1c-1.6,1.4-3.3,2.9-5.1,4.4c-4.8,4-9,7.1-12.7,9.4l-12.5,7.7l13.6,5.4
				c2.7,1.1,5.5,2,8.2,2.9c0,0.3,0,0.7,0,1c0,2.8,0.9,7,5.5,11.1c0.8,0.7,1.5,1.3,2.3,2c-0.8,1.4-1.8,2.7-2.9,4.1
				c-2.7,3.4-5.9,6.8-9.4,10l-4.9,4.5l4.1,5.3c0.2,0.2,1.1,1.6,4.4,7.6c4.7,8.9,10.7,10.7,14.9,10.7c2.9,0,5.8-0.9,8.5-2.6
				c2.1-1.3,4-2.9,5.8-4.8c1.4-1.5,2.9-3.3,4.6-5.6c2.7,0.9,6,2,9.7,3.3c7.1,2.5,8.7,3.9,8.8,4c2,2.2,4.1,3.9,6.4,5.1
				c2.6,1.4,5.6,2.1,8.7,2.1c6.1,0,11.2-2.2,14.9-6.4c1.7-2,3.1-4.2,4.1-6.7c1.5,0.3,3.1,0.5,4.7,0.7c3.6,0.5,7.9,1.1,12.6,1.7
				c1.7,1,4.2,2.5,7.3,4.3c6.4,3.7,9.1,4.5,11.4,4.5c3.3,0,8.3-1,12.7-6c3.3-3.7,5-8.1,5-12.7c0-4.6-1-8.9-2.8-12.8
				c-1.7-3.6-3.9-6.8-6.5-9.7c-0.7-0.8-1.5-1.7-2.4-2.5c0,0,0,0,0.1-0.1c1.2-1.3,2.6-3.7,2.7-7.5c5.7-0.3,9.1-2.7,11-4.7
				c2.8-3,4.1-7,4.1-12c0-4.2-1.3-8.5-4-12.6c-2.2-3.4-4.9-6.6-8-9.5c-1.4-1.3-2.9-2.6-4.6-4c1.5-0.7,2.8-1.6,4-2.6
				c1.9-1.7,4.3-4.9,4.3-10.2c0-8.5-4.5-17.2-13.7-26.6c-9.3-9.4-17.9-14-26.5-14c-4.1,0-8.5,2-14.3,6.5c-3.1,2.4-4.8,3.7-5.7,4.3
				c-2.7-2.9-5.4-5.6-8.3-8C210.4,87.7,205.3,85.6,200.2,85.6L200.2,85.6z M213.2,140.4l2.3-2.8l1.8,1.8
				C216.2,139.6,214.9,139.9,213.2,140.4L213.2,140.4z M233.7,192.9l0.6-0.1c0.4,1.1,0.9,2,1.4,2.8c2.5,4.2,4.6,7.9,6.4,10.9
				c0,0,0,0,0,0.1c-0.9,0.1-1.7,0.2-2.6,0.3c-1.6,0.2-3.2,0.3-4.8,0.4c0.1-3.1,0.1-5.5,0.1-7C234.8,197.7,234.4,195.3,233.7,192.9
				L233.7,192.9z M189.5,201.9l6.7-1.6c0,0.1,0,0.2,0,0.3c0,1.4,0,3.6-0.1,6.5l-7.2-0.8c0.4-1.4,0.6-2.5,0.6-3.5
				C189.5,202.5,189.5,202.2,189.5,201.9L189.5,201.9z"/>
		</g>
		<polygon class="st1" points="308.2,347.7 302.3,341.8 302.3,329.7 296.2,335.8 292.8,332.4 284.3,323.8 272.3,335.8 260.4,323.8 
			248.4,335.8 236.5,323.8 224.6,335.8 212.6,323.8 200.7,335.8 188.7,323.8 176.8,335.8 164.8,323.8 152.9,335.8 140.9,323.8 
			129,335.8 122.9,329.7 122.9,341.8 117,347.7 122.9,353.6 123,353.6 123,365.7 129,359.7 140.9,371.6 152.9,359.7 164.8,371.6 
			176.8,359.7 188.7,371.6 200.7,359.7 212.6,371.6 224.6,359.7 236.5,371.6 248.4,359.7 260.4,371.6 272.3,359.7 284.3,371.6 
			292.8,363.1 296.2,359.7 302.3,365.7 302.3,353.6 		"/>
		<g>
			<line class="st1" x1="122.9" y1="305.5" x2="302.3" y2="305.5"/>
			<rect x="122.9" y="304.3" class="st1" width="179.3" height="2.4"/>
		</g>
		<g>
			<line class="st1" x1="122.9" y1="294.4" x2="302.3" y2="294.4"/>
			<rect x="122.9" y="293.2" class="st1" width="179.3" height="2.4"/>
		</g>
		<rect x="155.9" y="67.6" class="st1" width="113.4" height="3"/>
	</g>
</g>
</svg>
