<?xml version="1.0" encoding="utf-8"?>
<!-- Generator: Adobe Illustrator 21.0.2, SVG Export Plug-In . SVG Version: 6.00 Build 0)  -->
<svg version="1.1" id="レイヤー_1" xmlns="http://www.w3.org/2000/svg" xmlns:xlink="http://www.w3.org/1999/xlink" x="0px"
	 y="0px" viewBox="0 0 425.2 425.2" style="enable-background:new 0 0 425.2 425.2;" xml:space="preserve">
<style type="text/css">
	.st0{fill:none;stroke:#000000;stroke-width:4.4291;stroke-miterlimit:10;}
	.st1{fill:#FFFFFF;stroke:#FFFFFF;stroke-width:2.2146;stroke-miterlimit:10;}
	.st2{fill:none;stroke:#FFFFFF;stroke-width:2.2146;stroke-miterlimit:10;}
	.st3{fill:#3C3C3C;}
	.st4{fill:#FFFFFF;}
</style>
<path class="st0" d="M145.6,514.1"/>
<path class="st1" d="M145.6,495"/>
<path class="st2" d="M145.6,494.1"/>
<path class="st2" d="M145.6,493.9"/>
<path class="st2" d="M145.6,487.9"/>
<path class="st1" d="M145.6,496.4"/>
<path class="st1" d="M145.6,517.8"/>
<path class="st2" d="M145.6,490.7"/>
<path class="st2" d="M145.6,517.8"/>
<g>
	<path class="st3" d="M26.6,425.2C11.9,425.2,0,413.3,0,398.6v-372C0,11.9,11.9,0,26.6,0h372c14.7,0,26.6,11.9,26.6,26.6v372
		c0,14.7-11.9,26.6-26.6,26.6H26.6L26.6,425.2z"/>
	<path class="st4" d="M39,411c-13.7,0-24.8-11.1-24.8-24.8V29.3c0-8.4,6.8-15.1,15.1-15.1h366.6c8.4,0,15.1,6.8,15.1,15.1v366.6
		c0,8.4-6.8,15.1-15.1,15.1H39L39,411z"/>
	<g>
		<path class="st3" d="M253.9,120.9c12.9,0,23.4-10.5,23.4-23.4c0-12.9-10.5-23.4-23.4-23.4c-12.9,0-23.4,10.5-23.4,23.4
			C230.5,110.4,241,120.9,253.9,120.9"/>
		<path class="st3" d="M192.5,74.1c-12.9,0-23.4,10.5-23.4,23.4c0,12.9,10.5,23.4,23.4,23.4c12.9,0,23.4-10.5,23.4-23.4
			C215.9,84.6,205.5,74.1,192.5,74.1"/>
		<path class="st3" d="M208.8,129.3c-3.2-0.7-6.6-1.1-10.1-1.1c-6.5,0-12.7,1.3-18.4,3.7l-96.6,39v19.8l67.1-15.5l-4.4,28l-53.4-6.5
			c-1.3-0.2-2.6-0.2-4-0.1c-9.2,0.5-16.8,6.3-20.1,14.3l-34.1,84.2l25.1,6.7l17.7-30.6v65.5h27.5l8.6-81.7h52.5
			c14.7,0,26.9-10.8,29.1-24.9l15.5-97.8C211.1,130.9,210.2,129.6,208.8,129.3"/>
		<path class="st3" d="M363.8,228.5c-1.5-7.8-8-13.9-16-14.9l-47.1-5.8l-6.3-39.6c-3.6-22.6-23.1-39.9-46.8-39.9
			c-3.5,0-6.8,0.4-10.1,1.1c-1.4,0.3-2.3,1.6-2.1,3l15.5,97.8c2.2,14.1,14.4,24.9,29.1,24.9h50.6l28.2,81.7h26L363.8,228.5"/>
		<polyline class="st3" points="127,265.6 127,281.8 317.5,281.8 317.5,265.6 127,265.6 		"/>
	</g>
</g>
</svg>
