<?xml version="1.0" encoding="utf-8"?>
<!-- Generator: Adobe Illustrator 21.0.2, SVG Export Plug-In . SVG Version: 6.00 Build 0)  -->
<svg version="1.1" id="レイヤー_1" xmlns="http://www.w3.org/2000/svg" xmlns:xlink="http://www.w3.org/1999/xlink" x="0px"
	 y="0px" viewBox="0 0 425.2 425.2" style="enable-background:new 0 0 425.2 425.2;" xml:space="preserve">
<style type="text/css">
	.st0{fill:none;stroke:#000000;stroke-width:4.4291;stroke-miterlimit:10;}
	.st1{stroke:#000000;stroke-width:6.0742;stroke-miterlimit:10;}
	.st2{fill:#FFFFFF;}
	.st3{fill:#040000;}
</style>
<path class="st0" d="M145.6,514.1"/>
<g>
	<g>
		<path d="M0,376.6c0,26.8,21.8,48.6,48.6,48.6h328c26.8,0,48.6-21.8,48.6-48.6v-328c0-26.8-21.8-48.6-48.6-48.6h-328
			C21.8,0,0,21.8,0,48.6V376.6z"/>
	</g>
	<g>
		<path class="st1" d="M425.2,177.1"/>
		<g>
			<line x1="16" y1="19" x2="409.2" y2="19"/>
			<rect x="16" y="16" class="st2" width="393.2" height="6.1"/>
		</g>
		<g>
			<line x1="16" y1="57.1" x2="409.2" y2="57.1"/>
			<rect x="16" y="54" class="st2" width="393.2" height="6.1"/>
		</g>
		<polygon class="st2" points="363.1,59.6 326.3,22.8 291.1,58 287.6,58 252.4,22.8 216.4,58.8 213,58.8 176.9,22.7 140.1,59.5 
			136.7,59.5 100.3,23 64.1,59.2 60.7,59.2 22.2,20.7 25.6,17.3 62.4,54 98.6,17.9 102,17.9 138.4,54.3 175.2,17.5 178.6,17.5 
			214.7,53.6 250.7,17.6 254.1,17.6 289.3,52.8 324.6,17.6 328,17.6 364.8,54.4 400.8,18.5 404.2,21.9 366.5,59.6 		"/>
		<rect x="7.6" y="369" class="st2" width="411.3" height="6.1"/>
		<path class="st2" d="M219.1,58c-7.6-2.1-15.5,2.3-17.6,9.9l0.1,0l-7.2,25.5l27.2,7.7l7.2-25.5l0.1,0C231.1,68,226.7,60.1,219.1,58
			z"/>
		<path class="st2" d="M52.5,64.2c-4.7,6.3-3.5,15.2,2.8,20l0.1-0.1L76.5,100l17-22.6L72.4,61.5l0.1-0.1
			C66.2,56.6,57.3,57.9,52.5,64.2z"/>
		<path class="st2" d="M376.3,61.1c-6.3-4.8-15.2-3.6-20,2.6l0.1,0.1l-16.1,21l22.5,17.2l16.1-21l0.1,0.1
			C383.7,74.8,382.5,65.9,376.3,61.1z"/>
		<g>
			<path class="st2" d="M145.6,276.1c-6.1,0.3-11.8,0.9-17.5,0.8c-5.6-0.1-11.2-1-18.1-1.7c2,12.4,3.9,24.2,5.7,36
				c1.1,7-2.6,12.6-8.8,13.9c-6.7,1.4-13-2.2-14-9c-2.7-17.7-5.1-35.4-7.3-53.2c-0.9-7.5,5.3-12.9,13.2-12.3c5,0.4,9.9,1,15.5,1.6
				c0.4-5.8,0.7-11.4,1.1-17c0.4-5.6,0.8-11.3,1.2-17.5c-3.7,1.1-7,2.2-10.4,3.2c-14.9,4.5-24.2,0.7-31.1-12.7
				c-2.6-5.2-4.9-10.5-7.1-16c-2.1-5.2,0-10,4.6-11.8c4.5-1.7,9.1,0.3,11.4,5.1c2.3,4.9,4.3,10,6.6,14.8c2.5,5.1,4,6,9.3,4.1
				c8.1-3,15.9-6.8,23.9-10c3.2-1.3,6.6-2.5,10-2.4c7.8,0,15.7,0.4,23.5,1.5c3.4,0.4,7.2,2.1,9.7,4.3c6.9,6.1,14.6,10.4,23.3,12.9
				c2.7,0.8,6.9,0,9-1.8c5.9-5.1,11.2-11,16.6-16.6c3.1-3.2,6.6-4.3,10.2-2.8c3.6,1.5,5.5,4.4,5.3,8.3c-0.1,1.7-0.6,3.7-1.7,4.8
				c-5.6,6.2-11.1,12.7-17.3,18.3c-9.3,8.3-20.1,10.1-31.8,5.1c-3.1-1.3-6.2-2.7-9.8-4.2c-0.2,2.8-0.2,5.5-0.5,8.1
				c-3.2,26.9-1.1,53.9,0.7,80.8c0.5,7.2-0.3,13.7-4.2,20.2c-6.2,10.1-11.5,20.6-17.3,30.9c-3.7,6.6-10.5,8.8-16.5,5.5
				c-5.9-3.3-7.5-10.3-3.9-16.9c5.3-9.6,10.5-19.3,16-28.8c1.8-3.2,2.7-6.2,2.5-9.9C146.7,299.9,146.3,288.5,145.6,276.1z"/>
			<path class="st2" d="M143.5,144.9c12.5-2,24.4,6.7,26.3,19.1c2,12.5-6.7,24.3-19.2,26.2c-12.6,2-24.5-6.7-26.4-19.1
				C122.4,158.7,131.1,146.8,143.5,144.9z"/>
		</g>
		<g>
			<path class="st2" d="M300,268.6c-1.1-0.1-2-0.1-2.8-0.2c-4.4-0.8-6.7,0.9-8.6,5.3c-5.2,12.3-11,24.2-16.4,36.5
				c-0.9,2.1-1.1,4.9-0.6,7.1c2.5,11.6,5.4,23.2,8.2,34.8c1.8,7.5-1.7,14-8.5,15.9c-6.8,1.9-13.1-1.9-14.9-9.4
				c-3.6-14.4-7.2-28.8-10.2-43.4c-0.7-3.1,0.2-7.1,1.5-10.1c5.4-12.5,11.2-24.8,16.7-37.3c1-2.2,1.6-4.8,1.6-7.2
				c0.1-21,0-41.9,0.2-62.9c0-3.5-1.1-4.7-4.2-5.7c-18.6-6.3-57.4-22.1-75.9-28.7c-5.5-2-8-5.9-7.5-10.4c0.8-6.6,6.6-9.8,13.1-7.5
				c20.5,7.2,61.4,23.7,82,30.7c2.9,1,6.1,1,9.1,1.2c2.7,0.2,5.4,0.3,8.1,0c20.7-2.4,37.8,7,54.3,17.9c9.4,6.2,10.9,16.7,4.3,26
				c-5.5,7.8-13.2,11.9-22.2,13.6c-1.4,0.3-2.8,0.4-4.3,0.7c-0.8,12.6-0.1,24.8,2.7,37c6,26.5,11.4,53.2,17,79.9
				c1.6,7.9-2.1,14.4-9,16c-6.9,1.6-13.1-2.9-14.8-11c-5.8-27.2-11.5-54.4-17.3-81.6C301.1,273.4,300.5,271,300,268.6z M334.4,211.7
				c0-0.5,0-1.1-0.1-1.6c-3.6-2.1-7.3-4.3-11.3-6.7c0,4.7,0,8.7,0,13.9C327.3,215.2,330.8,213.5,334.4,211.7z"/>
			<path class="st2" d="M294.5,125.7c13.1,0,23.8,11.1,24,24.6c0.2,13.6-10.9,25.1-24,25.1c-13.2,0-24.1-11.5-23.9-25.2
				C270.7,136.6,281.4,125.7,294.5,125.7z"/>
		</g>
		<path class="st3" d="M376.6,12.1c20.1,0,36.4,16.3,36.4,36.4v328c0,20.1-16.3,36.4-36.4,36.4h-328c-20.1,0-36.4-16.3-36.4-36.4
			v-328c0-20.1,16.3-36.4,36.4-36.4H376.6 M376.6,0h-328C21.8,0,0,21.8,0,48.6v328c0,26.8,21.8,48.6,48.6,48.6h328
			c26.8,0,48.6-21.8,48.6-48.6v-328C425.2,21.8,403.4,0,376.6,0L376.6,0z"/>
	</g>
</g>
</svg>
