<?xml version="1.0" encoding="utf-8"?>
<!-- Generator: Adobe Illustrator 21.0.2, SVG Export Plug-In . SVG Version: 6.00 Build 0)  -->
<svg version="1.1" xmlns="http://www.w3.org/2000/svg" xmlns:xlink="http://www.w3.org/1999/xlink" x="0px" y="0px"
	 viewBox="0 0 425.2 425.2" style="enable-background:new 0 0 425.2 425.2;" xml:space="preserve">
<style type="text/css">
	.st0{fill:#D83A35;}
	.st1{fill:#FFFFFF;}
</style>
<g id="レイヤー_1">
</g>
<g id="レイヤー_2">
	<g>
		<g>
			<path class="st0" d="M0,376.6c0,26.8,21.8,48.6,48.6,48.6h328c26.8,0,48.6-21.8,48.6-48.6v-328c0-26.8-21.8-48.6-48.6-48.6h-328
				C21.8,0,0,21.8,0,48.6V376.6z"/>
		</g>
		<path class="st1" d="M78.7,347.2c3-6.8,5.4-14.7,7.4-24c0-1.1,0.3-2.2,0.7-3.3c0.2-1,2-1,5.4-0.1c3.3,1,4.2,2.1,2.8,3.1
			c-1.9,2.5-3.6,6-5.5,10.5c-2,4.6-3.3,7.7-3.8,9.6c-0.6,1.5-0.8,3.1-0.6,4.8c1.5-0.2,3-0.7,5-1.7c3-1.7,7-3.2,11.7-5
			c1-0.3,1.9,0.6,2.6,2.8c0.4,2.3,0.3,3.7-0.4,4.3c-2.3,1.6-4.9,3.1-7.9,4.5c-0.2,0.3-0.4,0.5-0.5,0.7c-0.8,0.8-1.4,5-1.6,12.4
			c-0.2,3.9-0.9,7.5-2,10.5c1.8,1.9,3.5,3.5,4.9,5c1.7,1.8,5.2,3.8,10.7,5.9c4.7,2.5,8.2,4.5,10.6,6c2.3,1.5,3.3,2.4,3.3,2.9
			c-0.2,0.6-1,1-2.6,1c-7.5,0.5-14.4,0-20.8-1.7c-1,0-1.6-1.6-1.6-4.8c-0.2-3.3-1.8-5.7-4.8-7.4c-1-0.5-2-0.9-2.8-1.6
			c-0.6,0.8-1.2,1.7-1.9,2.5c-6.6,7.1-13.8,10.6-22.1,10.4c-2.1-0.4-1.7-1.3,1.4-2.7c7.8-3,12.9-6.5,15.6-10.3
			c0.8-1.5,1.7-2.8,2.5-4.2c-1.6-2.1-4.3-3.9-7.8-5.6c-1.7-0.8-2-2.8-1-6.2c0.6-3.2,1.6-4.1,2.8-2.6c0.9,1.9,2.6,3.7,5,5.7
			c1,0.8,2.2,1.9,3.4,2.9c0.6-2.1,0.9-4.1,1.1-6.1c0.2-3.4,0.2-6.6,0.1-9.4c-1.6,0.3-3.3-0.3-4.9-2.4c-0.4,0.4-0.8,0.8-1,1.2
			c-2.3,2.1-5.2,4.5-8.6,7.1c-0.4,0.2-0.8,0.4-1,0.4c0.6,0.6,0.9,1,0.9,1c-0.2,0.4-0.9,0.9-2.3,1.5c-1.4,0.5-3.3,1.9-5.5,4
			c-1,0.7-2,1.5-2.8,2c0.2,0.5,0.2,1.5,0.2,2.8c0,0.1,0,0.1,0,0.2c3.6-1.4,6.1-2.2,7.5-2.5c0.4,0,0.6,0.5,0.6,1.5
			c-0.2,0.9-0.7,1.6-1.5,2.1c-2.5,1.6-4.6,2.9-6.7,4.1c0,2.2,0,4.8,0,7.9c0,6.6-0.1,10.9-0.2,13.3c0,1.6-1,2-3,1.2
			c-2.1-0.6-4-1.4-5.8-2.2c-3.8-1.3-7.1-3.1-9.6-5.8c-1.4-1.5-1.2-1.9,0.4-1.4c4.7,1.7,8.4,2,11.2,0.7c0.8-0.8,1.2-4.1,1.2-9.9
			c-0.2-0.4-0.2-0.6-0.1-0.9c-0.6,0.3-1,0.5-1.4,0.6c-4.7,2-7.7,3.5-9.2,4.6c-1.2,1.1-2.5,0.6-3.9-1.5c-1.5-2.1-2.1-3.3-1.9-4
			c0.2-0.5,0.8-0.9,2-1.1c4.5-1.3,9.1-2.6,13.7-4.4c-0.4-2.3-0.9-4-1.6-5.3c-1.2-1.3-0.6-1.8,2.1-1.8c0.9,0,1.9,0.1,2.7,0.1
			c2.6-2.4,3.6-4.4,2.9-6.2c-0.4-1-3-0.5-7.9,1.5c-1,0.3-2,0.6-2.7,1c-3.3,3.3-6.8,6.8-10.5,10.4c-1.2,1.3-1.8,2.4-1.9,3.6
			c-0.2,1.3-2.9,2.9-7.9,4.7c-2.2,0.8-4.3,1-5.9,0.6c-1.9-0.3-2.2-0.8-0.9-1.7c2.2-1.6,4.9-3.4,7.9-5.5c2.8-2.1,6.2-5,10.3-9
			c0.2-0.2,0.4-0.4,0.7-0.8c-0.2-0.2-0.4-0.4-0.4-0.6c-1.2-2.3-1.2-3.4,0.1-3.3c0.6,0.1,2.7-0.5,6.4-2c2.3-2.4,4.4-4.7,6.3-6.7
			c-2.7,0.6-5.1,1.2-7.6,2c-8.8,2.9-13.9,4.7-15,5.5c-2.3,1.8-3.6,2.1-4.1,0.8c-0.6-1.3-1.4-2.5-2.2-3.7c-0.9-1.3-0.9-1.9,0-2.1
			c0.8-0.1,1.8-0.3,2.8-0.5c4.5-1.3,10.8-3,19.2-5.2c1-0.3,2.3-0.7,3.9-1.1c0.2-1,0.4-3,0.5-6c0-0.6,0-1.3,0-2c-0.6,0-1,0-1.2-0.1
			c-1.5-0.4-3.2,0-5.4,1c-1.5,0.8-2.3,0.4-2.5-1.3c-0.4-1.7-0.9-3.2-1.8-4.7c-1-1.6-0.1-2.3,2.6-2.2c2.9-0.4,5.7-0.9,8.4-1.6
			c0-1.5,0-3,0.2-4.6c0.2-6.3,0.1-10-0.1-11.2c-1.1-3,0.1-4,4-2.9c3.8,1.1,5.3,2.3,4.4,3.6c-0.6,0.6-0.9,4.9-1.2,12.6
			c2.2-0.8,4.1-1.4,5.5-1.5c1.2-0.2,2.1,0.7,2.5,2.8c0.2,2.1-0.1,3.4-1.1,3.8c-2.6,1.1-5.1,2.2-7.2,3.1c-0.2,4.4-0.2,7.4,0.1,9
			c0,0,0.2,0,0.5-0.2c0.1-0.4,0.4-0.8,0.8-1.2c2.9-4.9,4.5-7.7,5.1-8.4c0.2-0.9,1.4-0.8,3.5,0.2c2.1,1.3,2.4,2.4,1,3.2
			c-0.4,0.4-1.7,1.9-3.9,4.6c1.2-0.3,2.4-0.6,3.9-0.9c0.6-0.3,1.2,0.7,1.9,3.1c0.4,2.6-0.4,3.4-2.3,2.7c-2.8,0.3-5.6,0.9-8.4,1.6
			c-1.5,1.7-3,3.4-4.7,5.4c1.9-0.5,3.3-0.7,4.7-0.6c2.7-0.1,5,0.7,7.2,2.4c0.2,0.1,0.4,0.3,0.8,0.5c0-0.2,0.1-0.4,0.3-0.6
			C73.3,357,75.6,352.5,78.7,347.2z"/>
		<polygon class="st1" points="362.7,154.9 375.3,159.5 317.9,318.5 298.4,311.4 		"/>
		<path class="st1" d="M295.4,317.6c0,0-18.1,13.4-19.7,20.2c-2.5,10.7,1.8,48.6,1.8,48.6s33.9-23.7,38.6-33.9
			c1.6-3.6-0.8-27.8-0.8-27.8L295.4,317.6z"/>
		<path class="st1" d="M315.1,119.1c34.3,59.1,6,139.3-63.2,179c-69.2,39.7-153.1,24-187.5-35.1c-34.3-59.1-6-139.3,63.2-179
			C196.9,44.3,280.8,60,315.1,119.1z"/>
		<ellipse class="st0" cx="218.4" cy="104.4" rx="22.7" ry="19.1"/>
		<ellipse class="st0" cx="156.3" cy="277.4" rx="22.7" ry="19.1"/>
		<ellipse class="st0" cx="106.6" cy="234.1" rx="22.7" ry="19.1"/>
		<ellipse class="st0" cx="106.6" cy="172.3" rx="22.7" ry="19.1"/>
		<ellipse class="st0" cx="150.1" cy="123.4" rx="22.7" ry="19.1"/>
		<path class="st0" d="M315.1,119.1c6.1,13,0.2,38.6-26.8,38.9c-62,0.7-35.8,71.5,8.3,33.4c10.2-8.8,29.8,6,26.8,20.1
			c-7.5,35.4,31.1-68.9,31.1-68.9S298.4,83.5,315.1,119.1z"/>
	</g>
</g>
</svg>
