<?xml version="1.0" encoding="utf-8"?>
<!-- Generator: Adobe Illustrator 21.0.2, SVG Export Plug-In . SVG Version: 6.00 Build 0)  -->
<svg version="1.1" xmlns="http://www.w3.org/2000/svg" xmlns:xlink="http://www.w3.org/1999/xlink" x="0px" y="0px"
	 viewBox="0 0 425.2 425.2" style="enable-background:new 0 0 425.2 425.2;" xml:space="preserve">
<style type="text/css">
	.st0{fill:#D83A35;}
	.st1{fill:#FFFFFF;}
	.st2{display:none;}
	.st3{display:inline;}
	.st4{stroke:#FFFFFF;stroke-miterlimit:10;}
	.st5{fill:none;stroke:#FFFFFF;stroke-miterlimit:10;}
</style>
<g id="レイヤー_1">
	<g>
		<g>
			<path class="st0" d="M0,376.6c0,26.8,21.8,48.6,48.6,48.6h328c26.8,0,48.6-21.8,48.6-48.6v-328c0-26.8-21.8-48.6-48.6-48.6h-328
				C21.8,0,0,21.8,0,48.6V376.6z"/>
		</g>
		<g>
			<path class="st0" d="M376.6,12.1c20.1,0,36.4,16.3,36.4,36.4v328c0,20.1-16.3,36.4-36.4,36.4h-328c-20.1,0-36.4-16.3-36.4-36.4
				v-328c0-20.1,16.3-36.4,36.4-36.4H376.6 M376.6,0h-328C21.8,0,0,21.8,0,48.6v328c0,26.8,21.8,48.6,48.6,48.6h328
				c26.8,0,48.6-21.8,48.6-48.6v-328C425.2,21.8,403.4,0,376.6,0L376.6,0z"/>
			<g>
				<g>
					<rect x="21.3" y="83.4" class="st1" width="67" height="67"/>
					<path class="st1" d="M90.7,152.9h-72v-72h72V152.9z M23.8,147.9h62v-62h-62V147.9z"/>
				</g>
				<g>
					<rect x="212.6" y="83.4" class="st1" width="38.3" height="38.3"/>
					<path class="st1" d="M253.4,124.2h-43.3V80.9h43.3V124.2z M215.1,119.2h33.3V85.9h-33.3V119.2z"/>
				</g>
				<g>
					<rect x="327.4" y="140.8" class="st1" width="38.3" height="38.3"/>
					<path class="st1" d="M368.2,181.6h-43.3v-43.3h43.3V181.6z M329.9,176.6h33.3v-33.3h-33.3V176.6z"/>
				</g>
				<rect x="21.3" y="147.9" class="st1" width="67" height="5"/>
				<polygon class="st1" points="212.6,239 181.4,239 181.4,150.4 186.4,150.4 186.4,234 212.6,234 				"/>
				<rect x="136.1" y="195.7" class="st1" width="28.7" height="5"/>
				<rect x="116.9" y="80.9" class="st1" width="95.7" height="5"/>
				<rect x="181.4" y="83.4" class="st1" width="5" height="67"/>
				<rect x="212.6" y="80.9" class="st1" width="76.5" height="5"/>
				<rect x="248.4" y="45.2" class="st1" width="5" height="114.8"/>
				<rect x="212.6" y="195.7" class="st1" width="76.5" height="5"/>
				<polygon class="st1" points="406.4,239 375.2,239 375.2,234 401.4,234 401.4,85.9 289.1,85.9 289.1,80.9 406.4,80.9 				"/>
				<path class="st1" d="M368.2,181.6h-43.3v-43.3h43.3V181.6z M329.9,176.6h33.3v-33.3h-33.3V176.6z"/>
				
					<rect x="-8.5" y="305.8" transform="matrix(0.7071 -0.7071 0.7071 0.7071 -190.7365 156.0603)" class="st1" width="202.9" height="5"/>
				<path class="st1" d="M163,381.8L15.2,234h99.2V85.9H90.7v67h-72V45.2h5v35.8h90.7V45.2h5v102.7h64.5v5h-64.5V239H27.3
					l139.2,139.2L163,381.8z M23.8,147.9h62v-62h-62V147.9z"/>
				<rect x="162.3" y="284.4" class="st1" width="5" height="47.8"/>
				<rect x="210.1" y="284.4" class="st1" width="5" height="47.8"/>
				<polygon class="st1" points="262.9,380 257.9,380 257.9,281.9 406.4,281.9 406.4,332.2 401.4,332.2 401.4,286.9 262.9,286.9 
									"/>
				<rect x="279.6" y="234" class="st1" width="28.7" height="5"/>
				<path class="st1" d="M403.9,382.5h-98.2v-220h-95.7V42.7h81.5v81.5h-76.5v33.3h95.7v220h93.2V382.5z M215.1,119.2h71.5V47.7
					h-71.5V119.2z"/>
				<rect x="57" y="150.4" class="st1" width="5" height="86.1"/>
			</g>
		</g>
	</g>
</g>
<g id="レイヤー_2" class="st2">
	<g class="st3">
		<polygon class="st4" points="64.6,387 64.6,387.6 55.9,387.6 55.9,417.7 55.2,417.7 55.2,387.6 46.5,387.6 46.5,387 		"/>
		<polygon class="st5" points="64.6,387 64.6,387.6 55.9,387.6 55.9,417.7 55.2,417.7 55.2,387.6 46.5,387.6 46.5,387 		"/>
		<path class="st4" d="M77.7,403l-0.4,0.4c-0.5-0.6-1.1-1-1.9-1.3c-0.8-0.3-1.5-0.4-2-0.4c-0.4,0-0.8,0.1-1.2,0.2
			c-0.4,0.1-0.9,0.3-1.2,0.6c-0.4,0.3-0.7,0.6-0.9,1.1c-0.2,0.4-0.4,1-0.4,1.6c0,0.8,0.2,1.5,0.7,1.9c0.4,0.5,1,0.9,1.6,1.2
			c0.6,0.3,1.4,0.6,2.1,0.8c0.8,0.2,1.5,0.5,2.1,0.9c0.6,0.3,1.2,0.8,1.6,1.3c0.4,0.5,0.7,1.2,0.7,2.2c0,0.6-0.1,1.2-0.3,1.8
			c-0.2,0.6-0.5,1.1-1,1.5c-0.4,0.4-1,0.8-1.6,1.1c-0.6,0.3-1.4,0.4-2.2,0.4c-0.8,0-1.7-0.2-2.6-0.5c-1-0.3-1.8-0.8-2.4-1.6
			c0.1-0.1,0.2-0.1,0.2-0.2c0.1-0.1,0.2-0.1,0.2-0.2c0.2,0.3,0.5,0.5,0.8,0.7c0.4,0.2,0.8,0.4,1.2,0.6c0.4,0.2,0.9,0.3,1.3,0.4
			c0.4,0.1,0.8,0.1,1.2,0.1s0.8-0.1,1.3-0.2c0.5-0.1,1-0.4,1.4-0.7c0.5-0.3,0.8-0.7,1.2-1.2c0.3-0.5,0.5-1.1,0.5-1.9
			c0-0.9-0.2-1.6-0.7-2.1c-0.4-0.5-1-0.9-1.6-1.2c-0.6-0.3-1.4-0.6-2.1-0.8c-0.8-0.2-1.5-0.5-2.1-0.8c-0.6-0.3-1.2-0.7-1.6-1.3
			c-0.4-0.5-0.7-1.2-0.7-2.2c0-0.7,0.1-1.3,0.4-1.8c0.2-0.5,0.6-0.9,1-1.3c0.4-0.3,0.9-0.6,1.4-0.7c0.5-0.2,1.1-0.2,1.6-0.2
			c0.6,0,1.4,0.1,2.2,0.4C76.4,401.8,77.1,402.3,77.7,403"/>
		<path class="st5" d="M77.7,403l-0.4,0.4c-0.5-0.6-1.1-1-1.9-1.3c-0.8-0.3-1.5-0.4-2-0.4c-0.4,0-0.8,0.1-1.2,0.2
			c-0.4,0.1-0.9,0.3-1.2,0.6c-0.4,0.3-0.7,0.6-0.9,1.1c-0.2,0.4-0.4,1-0.4,1.6c0,0.8,0.2,1.5,0.7,1.9c0.4,0.5,1,0.9,1.6,1.2
			c0.6,0.3,1.4,0.6,2.1,0.8c0.8,0.2,1.5,0.5,2.1,0.9c0.6,0.3,1.2,0.8,1.6,1.3c0.4,0.5,0.7,1.2,0.7,2.2c0,0.6-0.1,1.2-0.3,1.8
			c-0.2,0.6-0.5,1.1-1,1.5c-0.4,0.4-1,0.8-1.6,1.1c-0.6,0.3-1.4,0.4-2.2,0.4c-0.8,0-1.7-0.2-2.6-0.5c-1-0.3-1.8-0.8-2.4-1.6
			c0.1-0.1,0.2-0.1,0.2-0.2c0.1-0.1,0.2-0.1,0.2-0.2c0.2,0.3,0.5,0.5,0.8,0.7c0.4,0.2,0.8,0.4,1.2,0.6c0.4,0.2,0.9,0.3,1.3,0.4
			c0.4,0.1,0.8,0.1,1.2,0.1s0.8-0.1,1.3-0.2c0.5-0.1,1-0.4,1.4-0.7c0.5-0.3,0.8-0.7,1.2-1.2c0.3-0.5,0.5-1.1,0.5-1.9
			c0-0.9-0.2-1.6-0.7-2.1c-0.4-0.5-1-0.9-1.6-1.2c-0.6-0.3-1.4-0.6-2.1-0.8c-0.8-0.2-1.5-0.5-2.1-0.8c-0.6-0.3-1.2-0.7-1.6-1.3
			c-0.4-0.5-0.7-1.2-0.7-2.2c0-0.7,0.1-1.3,0.4-1.8c0.2-0.5,0.6-0.9,1-1.3c0.4-0.3,0.9-0.6,1.4-0.7c0.5-0.2,1.1-0.2,1.6-0.2
			c0.6,0,1.4,0.1,2.2,0.4C76.4,401.8,77.1,402.3,77.7,403z"/>
		<path class="st4" d="M96.4,417.7h-0.4l0-4.3c-0.6,1.4-1.5,2.5-2.8,3.4c-1.3,0.8-2.8,1.3-4.4,1.3c-1.6,0-2.8-0.5-3.7-1.4
			c-0.9-0.9-1.4-2.1-1.4-3.6v-11.9h0.6v12.2c0.1,1.1,0.4,2,1.2,2.7c0.7,0.8,1.7,1.2,3,1.3c1,0,1.9-0.2,2.8-0.5
			c0.9-0.3,1.7-0.8,2.4-1.3c0.7-0.6,1.2-1.3,1.6-2.1c0.4-0.8,0.6-1.7,0.6-2.6v-9.7h0.6V417.7z"/>
		<path class="st5" d="M96.4,417.7h-0.4l0-4.3c-0.6,1.4-1.5,2.5-2.8,3.4c-1.3,0.8-2.8,1.3-4.4,1.3c-1.6,0-2.8-0.5-3.7-1.4
			c-0.9-0.9-1.4-2.1-1.4-3.6v-11.9h0.6v12.2c0.1,1.1,0.4,2,1.2,2.7c0.7,0.8,1.7,1.2,3,1.3c1,0,1.9-0.2,2.8-0.5
			c0.9-0.3,1.7-0.8,2.4-1.3c0.7-0.6,1.2-1.3,1.6-2.1c0.4-0.8,0.6-1.7,0.6-2.6v-9.7h0.6V417.7z"/>
		<path class="st4" d="M113.4,400.9c0.1,0.1,0.1,0.1,0.2,0.2c0.1,0.1,0.1,0.2,0.2,0.2c-1.1,1.1-2.2,2.1-3.2,3.1c-1,1-2.1,2-3.2,3.1
			c1.3,1.7,2.5,3.4,3.8,5.2c1.3,1.7,2.5,3.4,3.8,5.2h-0.8c-1.2-1.7-2.4-3.3-3.6-4.9c-1.2-1.6-2.4-3.3-3.6-4.9
			c-0.6,0.5-1.1,1-1.6,1.5c-0.5,0.5-1.1,1-1.6,1.5v6.8H103v-32.9h0.6V410c1.7-1.6,3.3-3.1,4.9-4.6
			C110.1,404,111.8,402.5,113.4,400.9"/>
		<path class="st5" d="M113.4,400.9c0.1,0.1,0.1,0.1,0.2,0.2c0.1,0.1,0.1,0.2,0.2,0.2c-1.1,1.1-2.2,2.1-3.2,3.1c-1,1-2.1,2-3.2,3.1
			c1.3,1.7,2.5,3.4,3.8,5.2c1.3,1.7,2.5,3.4,3.8,5.2h-0.8c-1.2-1.7-2.4-3.3-3.6-4.9c-1.2-1.6-2.4-3.3-3.6-4.9
			c-0.6,0.5-1.1,1-1.6,1.5c-0.5,0.5-1.1,1-1.6,1.5v6.8H103v-32.9h0.6V410c1.7-1.6,3.3-3.1,4.9-4.6
			C110.1,404,111.8,402.5,113.4,400.9z"/>
		<path class="st4" d="M131.8,417.7h-0.4l0-4.3c-0.6,1.4-1.5,2.5-2.8,3.4c-1.3,0.8-2.8,1.3-4.4,1.3c-1.6,0-2.8-0.5-3.7-1.4
			c-0.9-0.9-1.4-2.1-1.4-3.6v-11.9h0.6v12.2c0.1,1.1,0.4,2,1.2,2.7c0.7,0.8,1.7,1.2,3,1.3c1,0,1.9-0.2,2.8-0.5
			c0.9-0.3,1.7-0.8,2.4-1.3c0.7-0.6,1.2-1.3,1.6-2.1c0.4-0.8,0.6-1.7,0.6-2.6v-9.7h0.6V417.7z"/>
		<path class="st5" d="M131.8,417.7h-0.4l0-4.3c-0.6,1.4-1.5,2.5-2.8,3.4c-1.3,0.8-2.8,1.3-4.4,1.3c-1.6,0-2.8-0.5-3.7-1.4
			c-0.9-0.9-1.4-2.1-1.4-3.6v-11.9h0.6v12.2c0.1,1.1,0.4,2,1.2,2.7c0.7,0.8,1.7,1.2,3,1.3c1,0,1.9-0.2,2.8-0.5
			c0.9-0.3,1.7-0.8,2.4-1.3c0.7-0.6,1.2-1.3,1.6-2.1c0.4-0.8,0.6-1.7,0.6-2.6v-9.7h0.6V417.7z"/>
		<path class="st4" d="M148.8,400.9c0.1,0.1,0.1,0.1,0.2,0.2c0.1,0.1,0.1,0.2,0.2,0.2c-1.1,1.1-2.2,2.1-3.2,3.1c-1,1-2.1,2-3.2,3.1
			c1.3,1.7,2.5,3.4,3.8,5.2c1.3,1.7,2.5,3.4,3.8,5.2h-0.8c-1.2-1.7-2.4-3.3-3.6-4.9c-1.2-1.6-2.4-3.3-3.6-4.9
			c-0.6,0.5-1.1,1-1.6,1.5c-0.5,0.5-1.1,1-1.6,1.5v6.8h-0.6v-32.9h0.6V410c1.7-1.6,3.3-3.1,4.9-4.6
			C145.5,404,147.2,402.5,148.8,400.9"/>
		<path class="st5" d="M148.8,400.9c0.1,0.1,0.1,0.1,0.2,0.2c0.1,0.1,0.1,0.2,0.2,0.2c-1.1,1.1-2.2,2.1-3.2,3.1c-1,1-2.1,2-3.2,3.1
			c1.3,1.7,2.5,3.4,3.8,5.2c1.3,1.7,2.5,3.4,3.8,5.2h-0.8c-1.2-1.7-2.4-3.3-3.6-4.9c-1.2-1.6-2.4-3.3-3.6-4.9
			c-0.6,0.5-1.1,1-1.6,1.5c-0.5,0.5-1.1,1-1.6,1.5v6.8h-0.6v-32.9h0.6V410c1.7-1.6,3.3-3.1,4.9-4.6
			C145.5,404,147.2,402.5,148.8,400.9z"/>
		<path class="st4" d="M153.2,409.5c0-1.2,0.2-2.3,0.7-3.3c0.4-1.1,1-2,1.8-2.7c0.8-0.8,1.7-1.4,2.7-1.8c1-0.5,2.1-0.7,3.3-0.7
			c1.2,0,2.3,0.2,3.3,0.7c1.1,0.5,2,1.1,2.7,1.8c0.8,0.8,1.4,1.7,1.8,2.7c0.5,1.1,0.7,2.2,0.7,3.3c0,1.2-0.2,2.3-0.7,3.3
			c-0.5,1-1.1,1.9-1.8,2.7c-0.8,0.8-1.7,1.4-2.7,1.8c-1.1,0.4-2.2,0.7-3.3,0.7c-1.2,0-2.3-0.2-3.3-0.7c-1-0.4-1.9-1-2.7-1.8
			c-0.8-0.8-1.4-1.7-1.8-2.7C153.4,411.8,153.2,410.7,153.2,409.5 M153.8,409.5c0,1.1,0.2,2.1,0.6,3.1c0.4,1,1,1.8,1.7,2.5
			c0.7,0.7,1.6,1.3,2.5,1.7c1,0.4,2,0.6,3.1,0.6c1.1,0,2.1-0.2,3.1-0.6c1-0.4,1.8-1,2.5-1.7c0.7-0.7,1.3-1.6,1.7-2.5
			c0.4-1,0.6-2,0.6-3.1c0-1.1-0.2-2.1-0.6-3.1c-0.4-1-1-1.8-1.7-2.5c-0.7-0.7-1.6-1.3-2.5-1.7c-1-0.4-2-0.6-3.1-0.6
			c-1.1,0-2.1,0.2-3.1,0.6c-1,0.4-1.8,1-2.5,1.7c-0.7,0.7-1.3,1.6-1.7,2.5C154,407.4,153.8,408.4,153.8,409.5"/>
		<path class="st5" d="M153.2,409.5c0-1.2,0.2-2.3,0.7-3.3c0.4-1.1,1-2,1.8-2.7c0.8-0.8,1.7-1.4,2.7-1.8c1-0.5,2.1-0.7,3.3-0.7
			c1.2,0,2.3,0.2,3.3,0.7c1.1,0.5,2,1.1,2.7,1.8c0.8,0.8,1.4,1.7,1.8,2.7c0.5,1.1,0.7,2.2,0.7,3.3c0,1.2-0.2,2.3-0.7,3.3
			c-0.5,1-1.1,1.9-1.8,2.7c-0.8,0.8-1.7,1.4-2.7,1.8c-1.1,0.4-2.2,0.7-3.3,0.7c-1.2,0-2.3-0.2-3.3-0.7c-1-0.4-1.9-1-2.7-1.8
			c-0.8-0.8-1.4-1.7-1.8-2.7C153.4,411.8,153.2,410.7,153.2,409.5z M153.8,409.5c0,1.1,0.2,2.1,0.6,3.1c0.4,1,1,1.8,1.7,2.5
			c0.7,0.7,1.6,1.3,2.5,1.7c1,0.4,2,0.6,3.1,0.6c1.1,0,2.1-0.2,3.1-0.6c1-0.4,1.8-1,2.5-1.7c0.7-0.7,1.3-1.6,1.7-2.5
			c0.4-1,0.6-2,0.6-3.1c0-1.1-0.2-2.1-0.6-3.1c-0.4-1-1-1.8-1.7-2.5c-0.7-0.7-1.6-1.3-2.5-1.7c-1-0.4-2-0.6-3.1-0.6
			c-1.1,0-2.1,0.2-3.1,0.6c-1,0.4-1.8,1-2.5,1.7c-0.7,0.7-1.3,1.6-1.7,2.5C154,407.4,153.8,408.4,153.8,409.5z"/>
		<path class="st4" d="M175.6,401.3h0.4l0,4.3c0.6-1.4,1.5-2.5,2.8-3.3c1.3-0.8,2.8-1.3,4.4-1.3c1.4,0,2.6,0.4,3.5,1.2
			c0.9,0.8,1.4,1.9,1.6,3.2c0.6-1.3,1.6-2.4,2.8-3.2c1.3-0.8,2.7-1.2,4.3-1.2c1.6,0,2.8,0.5,3.7,1.4c0.9,0.9,1.4,2.1,1.4,3.6v11.9
			H200v-12.2c-0.1-1.1-0.4-2-1.2-2.7c-0.7-0.8-1.7-1.2-3-1.3c-1,0-1.9,0.2-2.8,0.5c-0.9,0.3-1.7,0.7-2.3,1.3c-0.7,0.6-1.2,1.2-1.6,2
			c-0.4,0.8-0.7,1.6-0.7,2.5v9.9h-0.6v-12.2c-0.1-1.1-0.4-2-1.2-2.7c-0.7-0.8-1.7-1.2-3-1.3c-1,0-1.9,0.2-2.8,0.5
			c-0.9,0.3-1.7,0.8-2.4,1.3c-0.7,0.6-1.2,1.3-1.6,2.1c-0.4,0.8-0.6,1.7-0.6,2.6v9.7h-0.6V401.3z"/>
		<path class="st5" d="M175.6,401.3h0.4l0,4.3c0.6-1.4,1.5-2.5,2.8-3.3c1.3-0.8,2.8-1.3,4.4-1.3c1.4,0,2.6,0.4,3.5,1.2
			c0.9,0.8,1.4,1.9,1.6,3.2c0.6-1.3,1.6-2.4,2.8-3.2c1.3-0.8,2.7-1.2,4.3-1.2c1.6,0,2.8,0.5,3.7,1.4c0.9,0.9,1.4,2.1,1.4,3.6v11.9
			H200v-12.2c-0.1-1.1-0.4-2-1.2-2.7c-0.7-0.8-1.7-1.2-3-1.3c-1,0-1.9,0.2-2.8,0.5c-0.9,0.3-1.7,0.7-2.3,1.3c-0.7,0.6-1.2,1.2-1.6,2
			c-0.4,0.8-0.7,1.6-0.7,2.5v9.9h-0.6v-12.2c-0.1-1.1-0.4-2-1.2-2.7c-0.7-0.8-1.7-1.2-3-1.3c-1,0-1.9,0.2-2.8,0.5
			c-0.9,0.3-1.7,0.8-2.4,1.3c-0.7,0.6-1.2,1.3-1.6,2.1c-0.4,0.8-0.6,1.7-0.6,2.6v9.7h-0.6V401.3z"/>
		<path class="st4" d="M205.8,409.5c0-1.2,0.2-2.3,0.7-3.3c0.4-1.1,1-2,1.8-2.7c0.8-0.8,1.7-1.4,2.7-1.8c1-0.5,2.1-0.7,3.3-0.7
			c1.8,0,3.4,0.5,4.9,1.5c1.4,1,2.5,2.3,3.1,3.9c0-0.9,0-1.7,0-2.5c0-0.8,0.1-1.7,0.1-2.5h0.4v16.5h-0.6v-2.4c0-0.5,0-0.9,0-1.4
			s0-0.9,0-1.4c-0.3,0.8-0.7,1.5-1.3,2.2c-0.5,0.7-1.1,1.2-1.8,1.7c-0.7,0.5-1.4,0.9-2.3,1.1c-0.8,0.3-1.7,0.4-2.6,0.4
			c-1.2,0-2.3-0.2-3.3-0.7c-1-0.4-1.9-1-2.7-1.8c-0.8-0.8-1.4-1.7-1.8-2.7C206,411.8,205.8,410.7,205.8,409.5 M206.4,409.5
			c0,1.1,0.2,2.1,0.6,3.1c0.4,1,1,1.8,1.7,2.5c0.7,0.7,1.6,1.3,2.5,1.7c1,0.4,2,0.6,3.1,0.6c1.1,0,2.1-0.2,3.1-0.6
			c1-0.4,1.8-1,2.5-1.7c0.7-0.7,1.3-1.6,1.7-2.5c0.4-1,0.6-2,0.6-3.1c0-1.1-0.2-2.1-0.6-3.1c-0.4-1-1-1.8-1.7-2.5
			c-0.7-0.7-1.6-1.3-2.5-1.7c-1-0.4-2-0.6-3.1-0.6c-1.1,0-2.1,0.2-3.1,0.6c-1,0.4-1.8,1-2.5,1.7c-0.7,0.7-1.3,1.6-1.7,2.5
			C206.6,407.4,206.4,408.4,206.4,409.5"/>
		<path class="st5" d="M205.8,409.5c0-1.2,0.2-2.3,0.7-3.3c0.4-1.1,1-2,1.8-2.7c0.8-0.8,1.7-1.4,2.7-1.8c1-0.5,2.1-0.7,3.3-0.7
			c1.8,0,3.4,0.5,4.9,1.5c1.4,1,2.5,2.3,3.1,3.9c0-0.9,0-1.7,0-2.5c0-0.8,0.1-1.7,0.1-2.5h0.4v16.5h-0.6v-2.4c0-0.5,0-0.9,0-1.4
			s0-0.9,0-1.4c-0.3,0.8-0.7,1.5-1.3,2.2c-0.5,0.7-1.1,1.2-1.8,1.7c-0.7,0.5-1.4,0.9-2.3,1.1c-0.8,0.3-1.7,0.4-2.6,0.4
			c-1.2,0-2.3-0.2-3.3-0.7c-1-0.4-1.9-1-2.7-1.8c-0.8-0.8-1.4-1.7-1.8-2.7C206,411.8,205.8,410.7,205.8,409.5z M206.4,409.5
			c0,1.1,0.2,2.1,0.6,3.1c0.4,1,1,1.8,1.7,2.5c0.7,0.7,1.6,1.3,2.5,1.7c1,0.4,2,0.6,3.1,0.6c1.1,0,2.1-0.2,3.1-0.6
			c1-0.4,1.8-1,2.5-1.7c0.7-0.7,1.3-1.6,1.7-2.5c0.4-1,0.6-2,0.6-3.1c0-1.1-0.2-2.1-0.6-3.1c-0.4-1-1-1.8-1.7-2.5
			c-0.7-0.7-1.6-1.3-2.5-1.7c-1-0.4-2-0.6-3.1-0.6c-1.1,0-2.1,0.2-3.1,0.6c-1,0.4-1.8,1-2.5,1.7c-0.7,0.7-1.3,1.6-1.7,2.5
			C206.6,407.4,206.4,408.4,206.4,409.5z"/>
		<rect x="229.4" y="417.1" class="st4" width="17.6" height="0.6"/>
		<rect x="229.4" y="417.1" class="st5" width="17.6" height="0.6"/>
		<path class="st4" d="M255.3,385.6c1.4,2,2.7,4,3.9,5.7c1.2,1.8,2.4,3.5,3.5,5.1c1.1,1.7,2.3,3.3,3.4,4.9c1.1,1.6,2.3,3.3,3.6,5.1
			c0.6-0.9,1.5-2.2,2.5-3.7c1-1.5,2.1-3.2,3.4-5.1c1.3-1.9,2.6-3.8,4-5.9c1.4-2.1,2.9-4.1,4.4-6.1v32.2h-0.6v-28.3c0-0.3,0-0.7,0-1
			c0-0.3,0-0.7,0-1c-2.5,3.6-4.9,7.1-7.2,10.5c-2.3,3.4-4.4,6.7-6.5,9.8c-0.7-0.9-1.4-1.9-2.3-3.1c-0.8-1.2-1.7-2.4-2.6-3.8
			c-0.9-1.3-1.8-2.7-2.7-4c-0.9-1.4-1.8-2.7-2.5-3.9c-0.8-1.2-1.5-2.3-2.2-3.3c-0.6-1-1.1-1.7-1.5-2.3c0,0.3,0,0.7,0,1
			c0,0.3,0,0.7,0,1v28.3h-0.6V385.6z"/>
		<path class="st5" d="M255.3,385.6c1.4,2,2.7,4,3.9,5.7c1.2,1.8,2.4,3.5,3.5,5.1c1.1,1.7,2.3,3.3,3.4,4.9c1.1,1.6,2.3,3.3,3.6,5.1
			c0.6-0.9,1.5-2.2,2.5-3.7c1-1.5,2.1-3.2,3.4-5.1c1.3-1.9,2.6-3.8,4-5.9c1.4-2.1,2.9-4.1,4.4-6.1v32.2h-0.6v-28.3c0-0.3,0-0.7,0-1
			c0-0.3,0-0.7,0-1c-2.5,3.6-4.9,7.1-7.2,10.5c-2.3,3.4-4.4,6.7-6.5,9.8c-0.7-0.9-1.4-1.9-2.3-3.1c-0.8-1.2-1.7-2.4-2.6-3.8
			c-0.9-1.3-1.8-2.7-2.7-4c-0.9-1.4-1.8-2.7-2.5-3.9c-0.8-1.2-1.5-2.3-2.2-3.3c-0.6-1-1.1-1.7-1.5-2.3c0,0.3,0,0.7,0,1
			c0,0.3,0,0.7,0,1v28.3h-0.6V385.6z"/>
		<polygon class="st4" points="294.4,417.7 294.4,387 312.6,387 312.6,387.6 295,387.6 295,401.9 310.9,401.9 310.9,402.5 
			295,402.5 295,417.1 313.3,417.1 313.3,417.7 		"/>
		<polygon class="st5" points="294.4,417.7 294.4,387 312.6,387 312.6,387.6 295,387.6 295,401.9 310.9,401.9 310.9,402.5 
			295,402.5 295,417.1 313.3,417.1 313.3,417.7 		"/>
		<path class="st4" d="M335.2,388.4l-0.3,0.5c-0.4-0.2-0.9-0.4-1.4-0.5c-0.5-0.2-1.1-0.3-1.7-0.5c-0.6-0.2-1.3-0.3-1.9-0.4
			c-0.7-0.1-1.3-0.1-2-0.1c-1.2,0-2.3,0.2-3.2,0.5c-1,0.3-1.8,0.8-2.5,1.4c-0.7,0.6-1.2,1.3-1.6,2c-0.4,0.8-0.5,1.6-0.5,2.4
			c0,1.4,0.4,2.5,1.2,3.3c0.8,0.8,1.9,1.5,3.1,2c1.2,0.6,2.6,1.1,4,1.6c1.4,0.5,2.8,1.1,4,1.8c1.2,0.7,2.3,1.6,3.1,2.7
			c0.8,1.1,1.2,2.6,1.2,4.4c0,1.3-0.2,2.5-0.7,3.6c-0.5,1.1-1.2,2-2,2.7c-0.9,0.7-1.9,1.3-3,1.7c-1.2,0.4-2.4,0.6-3.8,0.6
			c-1.2,0-2.3-0.1-3.3-0.4c-1-0.3-1.9-0.6-2.7-0.9c-0.8-0.4-1.4-0.7-2-1.1c-0.5-0.4-0.9-0.6-1.2-0.7l0.4-0.6c0.4,0.3,1,0.7,1.6,1
			c0.6,0.4,1.4,0.7,2.1,1c0.8,0.3,1.6,0.6,2.5,0.8c0.9,0.2,1.8,0.3,2.7,0.3c1.1,0,2.2-0.2,3.2-0.5c1.1-0.3,2-0.8,2.8-1.5
			c0.8-0.7,1.5-1.5,2-2.5c0.5-1,0.8-2.2,0.8-3.5c0-1.7-0.4-3.1-1.2-4.2c-0.8-1.1-1.9-1.9-3.1-2.6c-1.2-0.7-2.6-1.2-4-1.7
			c-1.4-0.5-2.8-1-4-1.6c-1.2-0.6-2.3-1.3-3.1-2.2c-0.8-0.9-1.2-2-1.2-3.4c0-1,0.2-1.9,0.6-2.8c0.4-0.9,1-1.6,1.7-2.3
			c0.7-0.6,1.6-1.1,2.6-1.5c1-0.4,2.1-0.5,3.2-0.5c0.5,0,1.1,0,1.8,0.1c0.7,0.1,1.3,0.2,2,0.3c0.7,0.1,1.3,0.3,2,0.5
			C334.1,388,334.7,388.2,335.2,388.4"/>
		<path class="st5" d="M335.2,388.4l-0.3,0.5c-0.4-0.2-0.9-0.4-1.4-0.5c-0.5-0.2-1.1-0.3-1.7-0.5c-0.6-0.2-1.3-0.3-1.9-0.4
			c-0.7-0.1-1.3-0.1-2-0.1c-1.2,0-2.3,0.2-3.2,0.5c-1,0.3-1.8,0.8-2.5,1.4c-0.7,0.6-1.2,1.3-1.6,2c-0.4,0.8-0.5,1.6-0.5,2.4
			c0,1.4,0.4,2.5,1.2,3.3c0.8,0.8,1.9,1.5,3.1,2c1.2,0.6,2.6,1.1,4,1.6c1.4,0.5,2.8,1.1,4,1.8c1.2,0.7,2.3,1.6,3.1,2.7
			c0.8,1.1,1.2,2.6,1.2,4.4c0,1.3-0.2,2.5-0.7,3.6c-0.5,1.1-1.2,2-2,2.7c-0.9,0.7-1.9,1.3-3,1.7c-1.2,0.4-2.4,0.6-3.8,0.6
			c-1.2,0-2.3-0.1-3.3-0.4c-1-0.3-1.9-0.6-2.7-0.9c-0.8-0.4-1.4-0.7-2-1.1c-0.5-0.4-0.9-0.6-1.2-0.7l0.4-0.6c0.4,0.3,1,0.7,1.6,1
			c0.6,0.4,1.4,0.7,2.1,1c0.8,0.3,1.6,0.6,2.5,0.8c0.9,0.2,1.8,0.3,2.7,0.3c1.1,0,2.2-0.2,3.2-0.5c1.1-0.3,2-0.8,2.8-1.5
			c0.8-0.7,1.5-1.5,2-2.5c0.5-1,0.8-2.2,0.8-3.5c0-1.7-0.4-3.1-1.2-4.2c-0.8-1.1-1.9-1.9-3.1-2.6c-1.2-0.7-2.6-1.2-4-1.7
			c-1.4-0.5-2.8-1-4-1.6c-1.2-0.6-2.3-1.3-3.1-2.2c-0.8-0.9-1.2-2-1.2-3.4c0-1,0.2-1.9,0.6-2.8c0.4-0.9,1-1.6,1.7-2.3
			c0.7-0.6,1.6-1.1,2.6-1.5c1-0.4,2.1-0.5,3.2-0.5c0.5,0,1.1,0,1.8,0.1c0.7,0.1,1.3,0.2,2,0.3c0.7,0.1,1.3,0.3,2,0.5
			C334.1,388,334.7,388.2,335.2,388.4z"/>
		<path class="st4" d="M358.5,388.4l-0.3,0.5c-0.4-0.2-0.9-0.4-1.4-0.5c-0.5-0.2-1.1-0.3-1.7-0.5c-0.6-0.2-1.3-0.3-1.9-0.4
			c-0.7-0.1-1.3-0.1-2-0.1c-1.2,0-2.3,0.2-3.2,0.5c-1,0.3-1.8,0.8-2.5,1.4c-0.7,0.6-1.2,1.3-1.6,2c-0.4,0.8-0.5,1.6-0.5,2.4
			c0,1.4,0.4,2.5,1.2,3.3c0.8,0.8,1.9,1.5,3.1,2c1.2,0.6,2.6,1.1,4,1.6c1.4,0.5,2.8,1.1,4,1.8c1.2,0.7,2.3,1.6,3.1,2.7
			c0.8,1.1,1.2,2.6,1.2,4.4c0,1.3-0.2,2.5-0.7,3.6c-0.5,1.1-1.2,2-2,2.7c-0.8,0.7-1.9,1.3-3,1.7c-1.2,0.4-2.4,0.6-3.8,0.6
			c-1.2,0-2.3-0.1-3.3-0.4c-1-0.3-1.9-0.6-2.7-0.9c-0.8-0.4-1.4-0.7-2-1.1c-0.5-0.4-0.9-0.6-1.2-0.7l0.4-0.6c0.4,0.3,1,0.7,1.6,1
			c0.6,0.4,1.4,0.7,2.1,1c0.8,0.3,1.6,0.6,2.5,0.8c0.9,0.2,1.8,0.3,2.7,0.3c1.1,0,2.2-0.2,3.2-0.5c1.1-0.3,2-0.8,2.8-1.5
			c0.8-0.7,1.5-1.5,2-2.5c0.5-1,0.8-2.2,0.8-3.5c0-1.7-0.4-3.1-1.2-4.2c-0.8-1.1-1.9-1.9-3.1-2.6c-1.2-0.7-2.6-1.2-4-1.7
			c-1.4-0.5-2.8-1-4-1.6c-1.2-0.6-2.3-1.3-3.1-2.2c-0.8-0.9-1.2-2-1.2-3.4c0-1,0.2-1.9,0.6-2.8c0.4-0.9,1-1.6,1.7-2.3
			c0.7-0.6,1.6-1.1,2.6-1.5c1-0.4,2.1-0.5,3.2-0.5c0.5,0,1.1,0,1.8,0.1c0.7,0.1,1.3,0.2,2,0.3c0.7,0.1,1.3,0.3,2,0.5
			C357.4,388,358,388.2,358.5,388.4"/>
		<path class="st5" d="M358.5,388.4l-0.3,0.5c-0.4-0.2-0.9-0.4-1.4-0.5c-0.5-0.2-1.1-0.3-1.7-0.5c-0.6-0.2-1.3-0.3-1.9-0.4
			c-0.7-0.1-1.3-0.1-2-0.1c-1.2,0-2.3,0.2-3.2,0.5c-1,0.3-1.8,0.8-2.5,1.4c-0.7,0.6-1.2,1.3-1.6,2c-0.4,0.8-0.5,1.6-0.5,2.4
			c0,1.4,0.4,2.5,1.2,3.3c0.8,0.8,1.9,1.5,3.1,2c1.2,0.6,2.6,1.1,4,1.6c1.4,0.5,2.8,1.1,4,1.8c1.2,0.7,2.3,1.6,3.1,2.7
			c0.8,1.1,1.2,2.6,1.2,4.4c0,1.3-0.2,2.5-0.7,3.6c-0.5,1.1-1.2,2-2,2.7c-0.8,0.7-1.9,1.3-3,1.7c-1.2,0.4-2.4,0.6-3.8,0.6
			c-1.2,0-2.3-0.1-3.3-0.4c-1-0.3-1.9-0.6-2.7-0.9c-0.8-0.4-1.4-0.7-2-1.1c-0.5-0.4-0.9-0.6-1.2-0.7l0.4-0.6c0.4,0.3,1,0.7,1.6,1
			c0.6,0.4,1.4,0.7,2.1,1c0.8,0.3,1.6,0.6,2.5,0.8c0.9,0.2,1.8,0.3,2.7,0.3c1.1,0,2.2-0.2,3.2-0.5c1.1-0.3,2-0.8,2.8-1.5
			c0.8-0.7,1.5-1.5,2-2.5c0.5-1,0.8-2.2,0.8-3.5c0-1.7-0.4-3.1-1.2-4.2c-0.8-1.1-1.9-1.9-3.1-2.6c-1.2-0.7-2.6-1.2-4-1.7
			c-1.4-0.5-2.8-1-4-1.6c-1.2-0.6-2.3-1.3-3.1-2.2c-0.8-0.9-1.2-2-1.2-3.4c0-1,0.2-1.9,0.6-2.8c0.4-0.9,1-1.6,1.7-2.3
			c0.7-0.6,1.6-1.1,2.6-1.5c1-0.4,2.1-0.5,3.2-0.5c0.5,0,1.1,0,1.8,0.1c0.7,0.1,1.3,0.2,2,0.3c0.7,0.1,1.3,0.3,2,0.5
			C357.4,388,358,388.2,358.5,388.4z"/>
		<polygon class="st4" points="367.8,417.7 367.8,387 386,387 386,387.6 368.4,387.6 368.4,401.9 384.3,401.9 384.3,402.5 
			368.4,402.5 368.4,417.1 386.6,417.1 386.6,417.7 		"/>
		<polygon class="st5" points="367.8,417.7 367.8,387 386,387 386,387.6 368.4,387.6 368.4,401.9 384.3,401.9 384.3,402.5 
			368.4,402.5 368.4,417.1 386.6,417.1 386.6,417.7 		"/>
	</g>
</g>
</svg>
