<?xml version="1.0" encoding="utf-8"?>
<!-- Generator: Adobe Illustrator 21.0.2, SVG Export Plug-In . SVG Version: 6.00 Build 0)  -->
<svg version="1.1" id="レイヤー_1" xmlns="http://www.w3.org/2000/svg" xmlns:xlink="http://www.w3.org/1999/xlink" x="0px"
	 y="0px" viewBox="0 0 425.2 425.2" style="enable-background:new 0 0 425.2 425.2;" xml:space="preserve">
<style type="text/css">
	.st0{fill:none;stroke:#000000;stroke-width:4.4291;stroke-miterlimit:10;}
	.st1{fill:#FFFFFF;stroke:#FFFFFF;stroke-width:2.2146;stroke-miterlimit:10;}
	.st2{fill:none;stroke:#FFFFFF;stroke-width:2.2146;stroke-miterlimit:10;}
	.st3{fill:#3C3C3C;}
	.st4{fill:#FFFFFF;}
</style>
<path class="st0" d="M145.6,514.1"/>
<path class="st1" d="M145.6,495"/>
<path class="st2" d="M145.6,494.1"/>
<path class="st2" d="M145.6,493.9"/>
<path class="st2" d="M145.6,487.9"/>
<path class="st1" d="M145.6,496.4"/>
<path class="st1" d="M145.6,517.8"/>
<path class="st2" d="M145.6,490.7"/>
<path class="st2" d="M145.6,517.8"/>
<g>
	<path class="st3" d="M26.6,425.2C11.9,425.2,0,413.3,0,398.6v-372C0,11.9,11.9,0,26.6,0h372c14.7,0,26.6,11.9,26.6,26.6v372
		c0,14.7-11.9,26.6-26.6,26.6H26.6L26.6,425.2z"/>
	<path class="st4" d="M39,411c-13.7,0-24.8-11.1-24.8-24.8V29.3c0-8.4,6.8-15.1,15.1-15.1h366.6c8.4,0,15.1,6.8,15.1,15.1v366.6
		c0,8.4-6.8,15.1-15.1,15.1H39L39,411z"/>
	<path class="st3" d="M342.8,174.5c-11,0-20.8,5.2-27,13.3l-43.1,52.7l0-163.1c0-11.4-9.2-20.6-20.6-20.6
		c-11.4,0-20.6,9.2-20.6,20.6v110.8l-8,0l-0.1-131.5c0-10.4-8.7-18.8-19.1-18.8c-10.4,0-18.6,8.5-18.5,18.9l0,131.4l-8,0V75.7
		c0-10.4-8.7-18.8-19.1-18.8c-10.4,0-18.5,8.5-18.5,18.9l0,128.1l-8,0l0-82.2c0-10.4-8.7-18.8-19.1-18.8c-10.4,0-18.6,8.5-18.6,18.9
		l-0.1,146.4c0,44.7,20,84.9,50.8,112.7h121l96.2-200.3C357,176.6,350.1,174.5,342.8,174.5L342.8,174.5z M264.5,129.7h-20.6
		l20.6-22.9C264.5,114.1,264.5,122,264.5,129.7L264.5,129.7z M239.7,77.3c0-3.3,1.3-6.4,3.6-8.8s5.5-3.6,8.8-3.6
		c3.3,0,6.4,1.3,8.8,3.6c2.3,2.3,3.6,5.5,3.6,8.8c0,0,0,5.5,0,13.8h-24.8V77.3L239.7,77.3z M239.7,99.4h20.5l-20.5,22.7V99.4
		L239.7,99.4z M249.1,300.4h-35.5v35.5h-35.5v-35.5h-35.5v-35.5h35.5v-35.5h35.5v35.5h35.5V300.4L249.1,300.4z M239.7,168.2l0-30.3
		h24.8c0,0,0,22,0,30.3H239.7"/>
</g>
</svg>
