<?xml version="1.0" encoding="utf-8"?>
<!-- Generator: Adobe Illustrator 22.0.0, SVG Export Plug-In . SVG Version: 6.00 Build 0)  -->
<svg version="1.1"
	 id="svg2" xmlns:cc="http://creativecommons.org/ns#" xmlns:dc="http://purl.org/dc/elements/1.1/" xmlns:rdf="http://www.w3.org/1999/02/22-rdf-syntax-ns#" xmlns:svg="http://www.w3.org/2000/svg"
	 xmlns="http://www.w3.org/2000/svg" xmlns:xlink="http://www.w3.org/1999/xlink" x="0px" y="0px" viewBox="0 0 1150 500"
	 style="enable-background:new 0 0 1150 500;" xml:space="preserve">
<style type="text/css">
	.st0{fill:#FAFAFA;}
</style>
<g id="g10" transform="matrix(1.25,0,0,-1.25,0,931.8875)">
	<g id="g12" transform="scale(0.1,0.1)">
		<path id="path14" class="st0" d="M4443.4,6553.4c37.5,0,53.6,33,53.6,70c0,34.8-10.5,70.5-51.3,70.5c-22,0-40.8-15.1-56.3-29.8
			C4389.8,6568.5,4415.5,6553.4,4443.4,6553.4z M4498.8,6786.6c-14.2,12.4-29.3,22.9-49,22.9c-55.4,0-59.1-70.5-60.5-111.3
			c18.3,15.6,36.6,24.8,60.9,24.8c57.7,0,78.8-47.6,78.8-98c0-54.5-29.3-100.3-87.9-100.3c-78.8,0-83.8,95.2-83.8,153.4
			c0,62.3,7.8,160.3,91.1,160.3c25.2,0,49.5-9.6,67.8-26.6L4498.8,6786.6"/>
		<path id="path16" class="st0" d="M4695.2,6553.4c37.6,0,53.6,33,53.6,70c0,34.8-10.5,70.5-51.3,70.5c-22,0-40.8-15.1-56.3-29.8
			C4641.6,6568.5,4667.2,6553.4,4695.2,6553.4z M4750.6,6786.6c-14.2,12.4-29.3,22.9-49,22.9c-55.4,0-59.1-70.5-60.5-111.3
			c18.3,15.6,36.6,24.8,60.9,24.8c57.7,0,78.8-47.6,78.8-98c0-54.5-29.3-100.3-87.9-100.3c-78.8,0-83.8,95.2-83.8,153.4
			c0,62.3,7.8,160.3,91.1,160.3c25.2,0,49.5-9.6,67.8-26.6L4750.6,6786.6"/>
		<path id="path18" class="st0" d="M4931.8,6739.8h-66v27.5h161.2v-27.5h-64.6v-211.1h-30.7V6739.8"/>
		<path id="path20" class="st0" d="M5120.4,6767.3h30.7v-98.9h94.4v98.9h30.7v-238.6h-30.7v112.2h-94.4v-112.2h-30.7V6767.3"/>
		<path id="path22" class="st0" d="M5687.1,6806.7h-66v27.5h161.2v-27.5h-64.6v-278h-30.7V6806.7"/>
		<path id="path24" class="st0" d="M5997.5,6764.6c-5,22.5-16,44.9-42.1,44.9c-28.9,0-40.3-23.4-40.3-49c0-24.7,5-32.5,53.1-61.4
			c37.6-22.5,63.2-41.2,63.2-88.4c0-48.1-25.6-86.1-76.9-86.1c-54.1,0-73.8,35.7-78.3,84.3l30.7,4.1c4.1-33.9,11.5-59.5,48.5-59.5
			c26.6,0,45.3,17.9,45.3,54.5c0,40.3-26.1,54.1-57.7,72.4c-35.2,20.6-58.6,35.2-58.6,80.1c0,41.2,27.5,77.9,71,77.9
			c43.1,0,64.1-30.7,71.9-69.2L5997.5,6764.6"/>
		<path id="path26" class="st0" d="M6161.4,6834.2v-222.1c0-30.2,6-58.6,44-58.6c38,0,44.4,28.8,44.4,58.6v222.1h30.7v-231.3
			c0-47.6-29.8-78.3-75.1-78.3c-46.2,0-74.6,31.6-74.6,77v232.6H6161.4"/>
		<path id="path28" class="st0" d="M6424.6,6708.2h8.2l85.2,131.9l24.7-15.6l-83.8-129.2l100.3-157.1l-25.6-15.5l-98.5,158h-10.5
			v-152.1h-30.7v305.5h30.7L6424.6,6708.2"/>
		<path id="path30" class="st0" d="M6664.9,6834.2v-222.1c0-30.2,6-58.6,44-58.6s44.4,28.8,44.4,58.6v222.1h30.7v-231.3
			c0-47.6-29.8-78.3-75.1-78.3c-46.2,0-74.7,31.6-74.7,77v232.6H6664.9"/>
		<path id="path32" class="st0" d="M6928.1,6708.2h8.3l85.2,131.9l24.7-15.6l-83.8-129.2l100.3-157.1l-25.7-15.5l-98.5,158h-10.5
			v-152.1h-30.7v305.5h30.7L6928.1,6708.2"/>
		<path id="path34" class="st0" d="M7159.7,6681.7c0-82.5,9.6-128.2,52.7-128.2c53.1,0,52.7,75.1,52.7,128.2
			c0,57.7,1.4,127.8-52.7,127.8C7158.4,6809.5,7159.7,6726.6,7159.7,6681.7z M7297.1,6681.7c0-38.5,1.4-157.1-84.8-157.1
			c-87,0-84.7,117.7-84.7,157.1c0,50.4,3.2,156.6,84.7,156.6C7298.5,6838.3,7297.1,6722,7297.1,6681.7"/>
		<path id="path36" class="st0" d="M7508.1,6834.2h38.5l9.2-305.5h-32.5l-5.9,254.7h-0.9l-52.2-153.4l-52.2,153.4h-0.9l-5.9-254.7
			H7373l9.2,305.5h38l44-129.6L7508.1,6834.2"/>
		<path id="path38" class="st0" d="M7716.4,6793.4h-0.9l-33.9-142.9h68.7L7716.4,6793.4L7716.4,6793.4z M7674.3,6623.1l-23.8-100.3
			l-30.2,8.2l77.4,303.2h36.7l77.4-303.2l-30.2-8.2l-23.8,100.3H7674.3"/>
		<path id="path40" class="st0" d="M8162.6,6834.2h150.2v-27.5h-119.5V6706h100.3v-27.5h-100.3v-149.8h-30.7L8162.6,6834.2"/>
		<path id="path42" class="st0" d="M8405.7,6834.2h148.9v-27.5h-118.2V6706h97.5v-27.5h-97.5v-122.3h118.2v-27.5h-148.9V6834.2"/>
		<path id="path44" class="st0" d="M8766.9,6764.6c-5,22.5-16,44.9-42.2,44.9c-28.8,0-40.3-23.4-40.3-49c0-24.7,5-32.5,53.1-61.4
			c37.6-22.5,63.2-41.2,63.2-88.4c0-48.1-25.7-86.1-77-86.1c-54,0-73.8,35.7-78.3,84.3l30.7,4.1c4.1-33.9,11.5-59.5,48.5-59.5
			c26.6,0,45.4,17.9,45.4,54.5c0,40.3-26.1,54.1-57.7,72.4c-35.2,20.6-58.6,35.2-58.6,80.1c0,41.2,27.5,77.9,71,77.9
			c43.1,0,64.2-30.7,71.9-69.2L8766.9,6764.6"/>
		<path id="path46" class="st0" d="M8953.6,6528.7h42.2v67.8h-42.2V6528.7z"/>
		<path id="path48" class="st0" d="M4570.5,5191.9c0-20.2,16.4-36.6,36.6-36.6h60.3c142.7,0,252,37,252,481.1
			c0,447.6-119.8,482.8-223.8,482.8h-88.2c-20.4,0-36.9-16.5-36.9-36.9V5191.9z M4357.3,6119.2V6225h310.1
			c236.1,0,375.3-103.9,375.3-588.6c0-259-14.1-586.8-371.8-586.8h-313.7v105.7h58.6c20.2,0,36.6,16.4,36.6,36.6v890.5
			c0,20.3-16.5,36.8-36.8,36.8H4357.3"/>
		<path id="path50" class="st0" d="M5545.1,5155.4h93.8c19.2,0,34.8,15.6,34.8,34.8v635.5c0,20-16.2,36.3-36.3,36.3h-92.4v105.7
			h377.1V5862h-95.1c-19.5,0-35.3-15.8-35.3-35.3V5191c0-19.7,16-35.6,35.6-35.6h94.8v-105.7h-377.1V5155.4"/>
		<path id="path52" class="st0" d="M7120.6,5241.7c-74-116.3-162.1-192-304.8-192c-267.9,0-352.4,246.7-352.4,474
			c0,366.5,193.8,475.8,341.9,475.8c142.7,0,225.5-74,290.7-195.6l-107.5-54.6c-38.8,74-91.6,139.2-181.5,139.2
			c-183.3,0-220.3-222-220.3-363c0-142.7,33.5-364.8,220.3-364.8c107.5,0,162.1,65.2,216.7,148L7120.6,5241.7"/>
		<path id="path54" class="st0" d="M7596.5,5967.7h572.7V5862h-418.5c-20,0-36.2-16.2-36.2-36.2v-201.5c0-20.6,16.7-37.2,37.2-37.2
			h338.1v-105.7h-337.7c-20.8,0-37.7-16.9-37.7-37.6v-252.4c0-19.9,16.1-35.9,36-35.9h418.7v-105.7h-572.7L7596.5,5967.7"/>
		<path id="path56" class="st0" d="M4373.6,4124.1l104.1,134.4c13.1,16.9,23.6,29.9,23.6,52.7c0,26.5-17.7,45.9-45.1,45.9
			c-33.3,0-50.1-26.1-54.4-56.4l-27.8,3.8c6.7,46.8,32.4,79.2,82.2,79.2c44.2,0,74.6-27,74.6-71.6c0-27-13.5-48-29.5-68.7
			l-91.9-119.2h120.9v-25.3h-156.7L4373.6,4124.1"/>
		<path id="path58" class="st0" d="M4656,4239.2c0-110.4,20.2-117.5,48.9-117.5c32.4,0,48.9,13,48.9,117.5c0,108.7-19,118-48.9,118
			C4651.7,4357.1,4656,4295.2,4656,4239.2z M4783.2,4239.2c0-45.1,7.6-144.1-78.4-144.1c-86,0-78.4,95.6-78.4,144.1
			c0,66.1-3.4,144.5,78.4,144.5C4794.1,4383.7,4783.2,4270.8,4783.2,4239.2"/>
		<path id="path60" class="st0" d="M4948.8,4345.8l-51.4-19.8l-8.8,25.7l88.5,33.7v-261.2h60.3v-25.3H4878v25.3h70.8V4345.8"/>
		<path id="path62" class="st0" d="M5260.6,4354.6h-115.9v25.3h156.7l-127.7-286.5l-25.3,11.4L5260.6,4354.6"/>
		<path id="path64" class="st0" d="M5444,4098.9h38.8v62.4H5444V4098.9z"/>
		<path id="path66" class="st0" d="M5707.3,4345.8l-51.4-19.8l-8.9,25.7l88.5,33.7v-261.2h60.2v-25.3h-159.3v25.3h70.8
			L5707.3,4345.8"/>
		<path id="path68" class="st0" d="M5960.2,4345.8l-51.4-19.8l-8.9,25.7l88.5,33.7v-261.2h60.2v-25.3h-159.3v25.3h70.8
			L5960.2,4345.8"/>
		<path id="path70" class="st0" d="M6202.5,4098.9h38.8v62.4h-38.8V4098.9z"/>
		<path id="path72" class="st0" d="M6429.2,4269.1l83,85.5H6395v25.3h155.9v-25.3L6473,4275c43.8,0.8,81.3-24.9,81.3-71.6
			c0-37.5-19.8-66.6-51-85.5c-23.2-14.3-50.5-22.8-104.5-22.8v26.6c46.4,0,66.1,5,80.9,13.5c24.9,13.5,45.1,37.9,45.1,67.4
			c0,35.8-31.6,47.2-62.8,47.2c-10.9,0-21.9-2.1-32.9-3.4L6429.2,4269.1"/>
		<path id="path74" class="st0" d="M6728.1,4317.5c-28.4-27.2-39.2-67.3-39.2-104.9c0-37.9,10.7-77.7,39.2-104.9l-12.7-12.6
			c-33.1,28.1-48.6,75.8-48.6,117.5c0,41.7,15.5,89.4,48.6,117.2L6728.1,4317.5"/>
		<path id="path76" class="st0" d="M6846.3,4326.9H6950v-19h-82.5v-69.5h69.2v-19h-69.2v-103.3h-21.2L6846.3,4326.9"/>
		<path id="path78" class="st0" d="M7052.7,4229h31c18.3,0,29.7,13.6,29.7,42c0,27.5-13.3,37-34.8,37h-25.9L7052.7,4229L7052.7,4229
			z M7031.6,4326.9h56.9c20.9,0,47-18,47-55.9c0-25.9-10.4-50.5-36.3-59.4l43.6-90.4l-19-9.1l-47.4,97.9h-23.7v-93.8h-21.2
			L7031.6,4326.9"/>
		<path id="path80" class="st0" d="M7254.1,4308h-28.4v19h78.4v-19h-28.8v-172.8h28.8v-18.9h-78.4v18.9h28.4V4308"/>
		<path id="path82" class="st0" d="M7434.9,4329.8c33.2-27.8,48.6-75.5,48.6-117.2c0-41.7-15.5-89.4-48.6-117.5l-12.6,12.6
			c28.4,27.2,39.2,67,39.2,104.9c0,37.6-10.8,77.7-39.2,104.9L7434.9,4329.8"/>
		<path id="path84" class="st0" d="M7628.9,4195.3h93.5v26.6h-93.5V4195.3z"/>
		<path id="path86" class="st0" d="M7859.9,4379.9H8004v-25.3h-115.9v-86.4c13.9,5,27,8.8,41.7,8.8c41.3,0,76.3-27.8,76.3-74.6
			c0-36.7-19.4-67-49.7-86.4c-21.9-13.9-50.5-21.1-105.3-21.1v26.6c35,0,63.2,2.1,82.2,12.2c25.3,13.5,43.4,39.2,43.4,68.7
			c0,29.9-20.2,48-49.7,48c-17.7,0-31.6-6.8-46.8-14.8h-20.2L7859.9,4379.9"/>
		<path id="path88" class="st0" d="M8182,4317.5c-28.4-27.2-39.2-67.3-39.2-104.9c0-37.9,10.8-77.7,39.2-104.9l-12.6-12.6
			c-33.2,28.1-48.6,75.8-48.6,117.5c0,41.7,15.5,89.4,48.6,117.2L8182,4317.5"/>
		<path id="path90" class="st0" d="M8369.7,4278.9c-3.5,15.5-11.1,31-29.1,31c-19.9,0-27.8-16.1-27.8-33.8
			c0-17.1,3.5-22.4,36.6-42.4c25.9-15.5,43.6-28.4,43.6-60.9c0-33.2-17.7-59.4-53.1-59.4c-37.3,0-50.9,24.6-54,58.1l21.2,2.9
			c2.8-23.4,7.9-41.1,33.5-41.1c18.3,0,31.3,12.3,31.3,37.6c0,27.8-18,37.3-39.8,49.9c-24.3,14.2-40.4,24.4-40.4,55.3
			c0,28.4,19,53.7,48.9,53.7c29.7,0,44.2-21.2,49.6-47.7L8369.7,4278.9"/>
		<path id="path92" class="st0" d="M8498.7,4326.9v-153.2c0-20.9,4.1-40.4,30.3-40.4c26.2,0,30.6,19.9,30.6,40.4v153.2h21.2v-159.5
			c0-32.9-20.5-54-51.8-54c-31.9,0-51.5,21.8-51.5,53.1v160.5H8498.7"/>
		<path id="path94" class="st0" d="M8663.7,4326.9h26.5l62.5-177.2l0.6,0.6l-1,47.1v129.5h21.2v-210.7h-26.6l-62.5,177.5l-0.6-0.6
			l0.9-47.7v-129.2h-21.2V4326.9"/>
		<path id="path96" class="st0" d="M8888.7,4329.8c33.2-27.8,48.6-75.5,48.6-117.2c0-41.7-15.5-89.4-48.6-117.5l-12.7,12.6
			c28.4,27.2,39.2,67,39.2,104.9c0,37.6-10.8,77.7-39.2,104.9L8888.7,4329.8"/>
		<rect x="6386.6" y="4678.7" class="st0" width="579.8" height="13"/>
		<path id="path102" class="st0" d="M8824.9,5310.4H8987v-260.8h-162.1V5310.4z M8847.8,5414.4L8816,6225h179.7l-35.2-810.6H8847.8"
			/>
		<path id="path104" class="st0" d="M718.4,4685.2H372.2V6225h346.2l-173.1,299.9l1333.4,769.8
			c-939.2-87.3-1674.5-877.5-1674.5-1839.5s735.3-1752.2,1674.5-1839.6L545.3,4385.4L718.4,4685.2"/>
		<path id="path106" class="st0" d="M1878.8,3615.5c57-5.3,114.7-8.1,173.1-8.1c58.4,0,116.1,2.8,173.1,8.1l-173.1,299.8
			L1878.8,3615.5"/>
		<path id="path108" class="st0" d="M2225,7294.7c-57,5.3-114.7,8.1-173.1,8.1c-58.4,0-116.1-2.8-173.1-8.1l173.1-299.8L2225,7294.7
			"/>
		<path id="path110" class="st0" d="M3385.3,6225h346.3V4685.2h-346.2l173.1-299.9l-1333.4-769.8
			c939.2,87.3,1674.5,877.5,1674.5,1839.6s-735.3,1752.2-1674.5,1839.5l1333.4-769.8L3385.3,6225"/>
		<path id="path112" class="st0" d="M1911.9,5374.3l140-80.8l140,80.8v161.6l-140,80.8l-140-80.8V5374.3"/>
		<path id="path114" class="st0" d="M2788.6,5191.4l-456.8,263.7l-140-80.8v-161.6l456.8-263.7l-152.3-263.7h889l-444.5,769.9
			L2788.6,5191.4"/>
		<path id="path116" class="st0" d="M1315.2,5718.8l456.8-263.7l140,80.8v161.6l-456.8,263.7l152.3,263.7h-889l444.5-769.9
			L1315.2,5718.8"/>
		<path id="path118" class="st0" d="M1911.9,5212.7v161.6l-140,80.8l-456.8-263.7l-152.3,263.7l-444.5-769.9h889L1455.1,4949
			L1911.9,5212.7"/>
		<path id="path120" class="st0" d="M2191.9,5212.7l-140,80.8l-140-80.8v-527.5h-304.5l444.5-769.9l444.5,769.9h-304.5V5212.7"/>
		<path id="path122" class="st0" d="M2191.9,5697.5v-161.6l140-80.8l456.8,263.7l152.3-263.7l444.5,769.9h-889l152.3-263.7
			L2191.9,5697.5"/>
		<path id="path124" class="st0" d="M1911.9,6225v-527.5l140-80.8l140,80.8V6225h304.5l-444.5,769.9L1607.4,6225H1911.9"/>
	</g>
</g>
</svg>
