<?xml version="1.0" encoding="utf-8"?>
<!-- Generator: Adobe Illustrator 22.0.0, SVG Export Plug-In . SVG Version: 6.00 Build 0)  -->
<svg version="1.1" id="レイヤー_1" xmlns="http://www.w3.org/2000/svg" xmlns:xlink="http://www.w3.org/1999/xlink" x="0px"
	 y="0px" viewBox="0 0 113.4 85" style="enable-background:new 0 0 113.4 85;" xml:space="preserve">
<style type="text/css">
	.st0{clip-path:url(#SVGID_2_);}
	.st1{clip-path:url(#SVGID_4_);fill:#FFFFFF;}
	.st2{clip-path:url(#SVGID_4_);}
	.st3{clip-path:url(#SVGID_6_);fill:url(#SVGID_7_);}
	.st4{filter:url(#Adobe_OpacityMaskFilter);}
	.st5{clip-path:url(#SVGID_9_);fill:url(#SVGID_11_);}
	.st6{clip-path:url(#SVGID_9_);mask:url(#SVGID_10_);fill:url(#SVGID_12_);}
	.st7{clip-path:url(#SVGID_4_);fill:#B5E0F8;}
	.st8{clip-path:url(#SVGID_14_);fill:none;stroke:#231815;stroke-width:0.8999;stroke-miterlimit:10;}
	.st9{filter:url(#Adobe_OpacityMaskFilter_1_);}
	.st10{clip-path:url(#SVGID_14_);fill:url(#SVGID_16_);}
	.st11{clip-path:url(#SVGID_14_);mask:url(#SVGID_15_);fill:url(#SVGID_17_);}
	.st12{filter:url(#Adobe_OpacityMaskFilter_2_);}
	.st13{clip-path:url(#SVGID_14_);fill:url(#SVGID_19_);}
	.st14{clip-path:url(#SVGID_14_);mask:url(#SVGID_18_);fill:url(#SVGID_20_);}
	.st15{filter:url(#Adobe_OpacityMaskFilter_3_);}
	.st16{clip-path:url(#SVGID_14_);fill:url(#SVGID_22_);}
	.st17{clip-path:url(#SVGID_14_);mask:url(#SVGID_21_);fill:url(#SVGID_23_);}
	.st18{clip-path:url(#SVGID_14_);fill:#98D5F5;}
	.st19{filter:url(#Adobe_OpacityMaskFilter_4_);}
	.st20{clip-path:url(#SVGID_14_);fill:url(#SVGID_25_);}
	.st21{clip-path:url(#SVGID_14_);mask:url(#SVGID_24_);fill:url(#SVGID_26_);}
	.st22{clip-path:url(#SVGID_14_);fill:#EEF3F6;}
	.st23{clip-path:url(#SVGID_14_);fill:#B5DCF1;}
	.st24{clip-path:url(#SVGID_14_);fill:#231815;}
	.st25{filter:url(#Adobe_OpacityMaskFilter_5_);}
	.st26{clip-path:url(#SVGID_28_);fill:url(#SVGID_30_);}
	.st27{clip-path:url(#SVGID_28_);mask:url(#SVGID_29_);fill:url(#SVGID_31_);}
</style>
<g>
	<g>
		<defs>
			<rect id="SVGID_1_" x="0" y="0" width="113.4" height="84.9"/>
		</defs>
		<clipPath id="SVGID_2_">
			<use xlink:href="#SVGID_1_"  style="overflow:visible;"/>
		</clipPath>
		<g class="st0">
			<defs>
				<rect id="SVGID_3_" x="0" y="0" width="113.4" height="84.9"/>
			</defs>
			<clipPath id="SVGID_4_">
				<use xlink:href="#SVGID_3_"  style="overflow:visible;"/>
			</clipPath>
			<rect x="0" y="0" class="st1" width="113.4" height="41.8"/>
			<g class="st2">
				<defs>
					<rect id="SVGID_5_" x="0" y="41.9" width="113.4" height="43"/>
				</defs>
				<clipPath id="SVGID_6_">
					<use xlink:href="#SVGID_5_"  style="overflow:visible;"/>
				</clipPath>
				
					<linearGradient id="SVGID_7_" gradientUnits="userSpaceOnUse" x1="0.8199" y1="83.9199" x2="0.9999" y2="83.9199" gradientTransform="matrix(0 239.1516 239.1516 0 -20012.8828 -154.1516)">
					<stop  offset="0" style="stop-color:#95CEEB"/>
					<stop  offset="0.3772" style="stop-color:#97CFEB"/>
					<stop  offset="0.5493" style="stop-color:#9FD2EC"/>
					<stop  offset="0.6797" style="stop-color:#ABD7ED"/>
					<stop  offset="0.7892" style="stop-color:#BDDEEE"/>
					<stop  offset="0.8854" style="stop-color:#D5E7F1"/>
					<stop  offset="0.9711" style="stop-color:#F1F2F3"/>
					<stop  offset="1" style="stop-color:#FDF7F4"/>
				</linearGradient>
				<rect x="0" y="41.9" class="st3" width="113.4" height="43"/>
			</g>
			<g class="st2">
				<defs>
					<rect id="SVGID_8_" x="0" y="0" width="113.4" height="41.8"/>
				</defs>
				<clipPath id="SVGID_9_">
					<use xlink:href="#SVGID_8_"  style="overflow:visible;"/>
				</clipPath>
				<defs>
					<filter id="Adobe_OpacityMaskFilter" filterUnits="userSpaceOnUse" x="0" y="0" width="113.4" height="41.8">
						<feColorMatrix  type="matrix" values="1 0 0 0 0  0 1 0 0 0  0 0 1 0 0  0 0 0 1 0"/>
					</filter>
				</defs>
				<mask maskUnits="userSpaceOnUse" x="0" y="0" width="113.4" height="41.8" id="SVGID_10_">
					<g class="st4">
						
							<linearGradient id="SVGID_11_" gradientUnits="userSpaceOnUse" x1="-0.8446" y1="86.111" x2="-0.6646" y2="86.111" gradientTransform="matrix(0 -232.5 -232.5 0 20077.498 -154.5)">
							<stop  offset="0" style="stop-color:#666666"/>
							<stop  offset="0.8529" style="stop-color:#666666"/>
							<stop  offset="1" style="stop-color:#666666"/>
						</linearGradient>
						<rect x="0" y="0" class="st5" width="113.4" height="41.8"/>
					</g>
				</mask>
				
					<linearGradient id="SVGID_12_" gradientUnits="userSpaceOnUse" x1="-0.8446" y1="86.111" x2="-0.6646" y2="86.111" gradientTransform="matrix(0 -232.5 -232.5 0 20077.5 -154.5)">
					<stop  offset="0" style="stop-color:#CADA38"/>
					<stop  offset="0.3873" style="stop-color:#CBDA3A"/>
					<stop  offset="0.5637" style="stop-color:#CEDC41"/>
					<stop  offset="0.6973" style="stop-color:#D3DF4E"/>
					<stop  offset="0.8095" style="stop-color:#DAE360"/>
					<stop  offset="0.907" style="stop-color:#E4E878"/>
					<stop  offset="0.9948" style="stop-color:#EFEF94"/>
					<stop  offset="1" style="stop-color:#F0EF96"/>
				</linearGradient>
				<rect x="0" y="0" class="st6" width="113.4" height="41.8"/>
			</g>
			<polygon class="st7" points="0,14.1 0,41.9 113.4,41.9 113.4,38.1 88.8,14.1 			"/>
			<g class="st2">
				<defs>
					<rect id="SVGID_13_" x="0" y="0" width="113.4" height="84.9"/>
				</defs>
				<clipPath id="SVGID_14_">
					<use xlink:href="#SVGID_13_"  style="overflow:visible;"/>
				</clipPath>
				<polygon class="st8" points="117.3,41.9 88.8,14.1 -0.7,14.1 -0.7,41.9 				"/>
				<defs>
					<filter id="Adobe_OpacityMaskFilter_1_" filterUnits="userSpaceOnUse" x="47.4" y="24.3" width="25.6" height="6.1">
						<feColorMatrix  type="matrix" values="1 0 0 0 0  0 1 0 0 0  0 0 1 0 0  0 0 0 1 0"/>
					</filter>
				</defs>
				<mask maskUnits="userSpaceOnUse" x="47.4" y="24.3" width="25.6" height="6.1" id="SVGID_15_">
					<g class="st9">
						
							<radialGradient id="SVGID_16_" cx="-3.9483" cy="78.9501" r="0.1799" gradientTransform="matrix(51.1953 11.8874 11.8874 -51.1953 -676.1458 4116.1191)" gradientUnits="userSpaceOnUse">
							<stop  offset="0" style="stop-color:#B3B3B3"/>
							<stop  offset="0.4003" style="stop-color:#B1B1B1"/>
							<stop  offset="0.5445" style="stop-color:#AAAAAA"/>
							<stop  offset="0.6473" style="stop-color:#9E9E9E"/>
							<stop  offset="0.7305" style="stop-color:#8D8D8D"/>
							<stop  offset="0.8017" style="stop-color:#777777"/>
							<stop  offset="0.8647" style="stop-color:#5C5C5C"/>
							<stop  offset="0.9217" style="stop-color:#3C3C3C"/>
							<stop  offset="0.9724" style="stop-color:#171717"/>
							<stop  offset="1" style="stop-color:#000000"/>
						</radialGradient>
						<polygon class="st10" points="5.8,-25 132.1,4.4 107.6,110 -18.7,80.6 						"/>
					</g>
				</mask>
				
					<radialGradient id="SVGID_17_" cx="-3.9494" cy="78.9501" r="0.18" gradientTransform="matrix(51.1953 11.8874 11.8874 -51.1953 -676.15 4116.1196)" gradientUnits="userSpaceOnUse">
					<stop  offset="0" style="stop-color:#009FE8"/>
					<stop  offset="1" style="stop-color:#009FE8"/>
				</radialGradient>
				<path class="st11" d="M47.7,24.3c0,0,2.3,3.5,8,3.5c1.3,0,2.8-0.2,4.6-0.7c1.8-0.5,3.3-0.7,4.7-0.7c5.8,0,8.1,3.7,8.1,3.7
					l-0.3,0.2c0,0-2.1-3.5-7.8-3.5c-1.3,0-2.8,0.2-4.6,0.7c-1.7,0.5-3.3,0.7-4.6,0.7c-5.9,0-8.3-3.7-8.3-3.7L47.7,24.3L47.7,24.3z"
					/>
				<defs>
					<filter id="Adobe_OpacityMaskFilter_2_" filterUnits="userSpaceOnUse" x="59.5" y="32.9" width="25.6" height="6.1">
						<feColorMatrix  type="matrix" values="1 0 0 0 0  0 1 0 0 0  0 0 1 0 0  0 0 0 1 0"/>
					</filter>
				</defs>
				<mask maskUnits="userSpaceOnUse" x="59.5" y="32.9" width="25.6" height="6.1" id="SVGID_18_">
					<g class="st12">
						
							<radialGradient id="SVGID_19_" cx="-5.1407" cy="79.4383" r="0.18" gradientTransform="matrix(51.1953 11.8874 11.8874 -51.1953 -608.8493 4163.8657)" gradientUnits="userSpaceOnUse">
							<stop  offset="0" style="stop-color:#B3B3B3"/>
							<stop  offset="0.4003" style="stop-color:#B1B1B1"/>
							<stop  offset="0.5445" style="stop-color:#AAAAAA"/>
							<stop  offset="0.6473" style="stop-color:#9E9E9E"/>
							<stop  offset="0.7305" style="stop-color:#8D8D8D"/>
							<stop  offset="0.8017" style="stop-color:#777777"/>
							<stop  offset="0.8647" style="stop-color:#5C5C5C"/>
							<stop  offset="0.9217" style="stop-color:#3C3C3C"/>
							<stop  offset="0.9724" style="stop-color:#171717"/>
							<stop  offset="1" style="stop-color:#000000"/>
						</radialGradient>
						<polygon class="st13" points="5.8,-25 132.1,4.4 107.6,110 -18.7,80.6 						"/>
					</g>
				</mask>
				
					<radialGradient id="SVGID_20_" cx="-5.1407" cy="79.4383" r="0.18" gradientTransform="matrix(51.1953 11.8874 11.8874 -51.1953 -608.8539 4163.8657)" gradientUnits="userSpaceOnUse">
					<stop  offset="0" style="stop-color:#009FE8"/>
					<stop  offset="1" style="stop-color:#009FE8"/>
				</radialGradient>
				<path class="st14" d="M59.8,32.9c0,0,2.3,3.5,8,3.5c1.3,0,2.8-0.2,4.6-0.7c1.8-0.5,3.3-0.7,4.7-0.7c5.8,0,8.1,3.7,8.1,3.7
					l-0.3,0.2c0,0-2.1-3.5-7.8-3.5c-1.3,0-2.8,0.2-4.6,0.7c-1.7,0.5-3.3,0.7-4.6,0.7c-5.9,0-8.3-3.7-8.3-3.7L59.8,32.9L59.8,32.9z"
					/>
				<defs>
					<filter id="Adobe_OpacityMaskFilter_3_" filterUnits="userSpaceOnUse" x="67" y="19.3" width="25.6" height="6.1">
						<feColorMatrix  type="matrix" values="1 0 0 0 0  0 1 0 0 0  0 0 1 0 0  0 0 0 1 0"/>
					</filter>
				</defs>
				<mask maskUnits="userSpaceOnUse" x="67" y="19.3" width="25.6" height="6.1" id="SVGID_21_">
					<g class="st15">
						
							<radialGradient id="SVGID_22_" cx="-5.5135" cy="78.1477" r="0.18" gradientTransform="matrix(51.1953 11.8874 11.8874 -51.1953 -566.8691 4088.6953)" gradientUnits="userSpaceOnUse">
							<stop  offset="0" style="stop-color:#B3B3B3"/>
							<stop  offset="0.4003" style="stop-color:#B1B1B1"/>
							<stop  offset="0.5445" style="stop-color:#AAAAAA"/>
							<stop  offset="0.6473" style="stop-color:#9E9E9E"/>
							<stop  offset="0.7305" style="stop-color:#8D8D8D"/>
							<stop  offset="0.8017" style="stop-color:#777777"/>
							<stop  offset="0.8647" style="stop-color:#5C5C5C"/>
							<stop  offset="0.9217" style="stop-color:#3C3C3C"/>
							<stop  offset="0.9724" style="stop-color:#171717"/>
							<stop  offset="1" style="stop-color:#000000"/>
						</radialGradient>
						<polygon class="st16" points="5.8,-25 132.1,4.4 107.6,110 -18.7,80.6 						"/>
					</g>
				</mask>
				
					<radialGradient id="SVGID_23_" cx="-5.5135" cy="78.1477" r="0.18" gradientTransform="matrix(51.1953 11.8874 11.8874 -51.1953 -566.873 4088.6956)" gradientUnits="userSpaceOnUse">
					<stop  offset="0" style="stop-color:#009FE8"/>
					<stop  offset="1" style="stop-color:#009FE8"/>
				</radialGradient>
				<path class="st17" d="M67.3,19.3c0,0,2.3,3.5,8,3.5c1.3,0,2.8-0.2,4.6-0.7c1.8-0.5,3.3-0.7,4.7-0.7c5.8,0,8.1,3.7,8.1,3.7
					l-0.3,0.2c0,0-2.1-3.5-7.8-3.5c-1.3,0-2.8,0.2-4.6,0.7c-1.7,0.5-3.3,0.7-4.6,0.7c-5.9,0-8.3-3.7-8.3-3.7L67.3,19.3L67.3,19.3z"
					/>
				<polyline class="st8" points="14.4,42 14.4,49.9 9.2,56.4 				"/>
				<polyline class="st8" points="22.2,42 22.2,64.3 32.3,64.3 32.3,60.5 				"/>
				<line class="st18" x1="18.8" y1="41.9" x2="18.8" y2="28.1"/>
				<line class="st8" x1="18.8" y1="41.9" x2="18.8" y2="28.1"/>
				<defs>
					<filter id="Adobe_OpacityMaskFilter_4_" filterUnits="userSpaceOnUse" x="4.7" y="27.8" width="14.4" height="14.4">
						<feColorMatrix  type="matrix" values="1 0 0 0 0  0 1 0 0 0  0 0 1 0 0  0 0 0 1 0"/>
					</filter>
				</defs>
				<mask maskUnits="userSpaceOnUse" x="4.7" y="27.8" width="14.4" height="14.4" id="SVGID_24_">
					<g class="st19">
						
							<linearGradient id="SVGID_25_" gradientUnits="userSpaceOnUse" x1="-0.2596" y1="82.0872" x2="-7.963604e-02" y2="82.0872" gradientTransform="matrix(80.759 0 0 -80.759 25.5764 6671.7798)">
							<stop  offset="0" style="stop-color:#000000"/>
							<stop  offset="5.560328e-02" style="stop-color:#040404"/>
							<stop  offset="0.1133" style="stop-color:#111111"/>
							<stop  offset="0.1719" style="stop-color:#252525"/>
							<stop  offset="0.2312" style="stop-color:#434343"/>
							<stop  offset="0.2911" style="stop-color:#686868"/>
							<stop  offset="0.3514" style="stop-color:#969696"/>
							<stop  offset="0.4109" style="stop-color:#CBCBCB"/>
							<stop  offset="0.4617" style="stop-color:#FFFFFF"/>
							<stop  offset="1" style="stop-color:#FFFFFF"/>
						</linearGradient>
						<rect x="0" y="0" class="st20" width="113.4" height="84.9"/>
					</g>
				</mask>
				
					<linearGradient id="SVGID_26_" gradientUnits="userSpaceOnUse" x1="-0.2596" y1="82.1802" x2="-7.963611e-02" y2="82.1802" gradientTransform="matrix(80.759 0 0 -80.759 25.5764 6671.7832)">
					<stop  offset="0" style="stop-color:#000000"/>
					<stop  offset="0.2311" style="stop-color:#040303"/>
					<stop  offset="0.4617" style="stop-color:#100B0A"/>
					<stop  offset="1" style="stop-color:#231815"/>
				</linearGradient>
				<polyline class="st21" points="5.2,27.8 19.1,41.7 18.6,42.2 4.7,28.3 				"/>
				<line class="st18" x1="28.6" y1="32.2" x2="23.4" y2="37.4"/>
				<line class="st8" x1="28.6" y1="32.2" x2="23.4" y2="37.4"/>
				<line class="st18" x1="74" y1="49.2" x2="63.3" y2="59.9"/>
				<line class="st8" x1="74" y1="49.2" x2="63.3" y2="59.9"/>
				<line class="st18" x1="89" y1="64.3" x2="73.8" y2="49.1"/>
				<line class="st8" x1="89" y1="64.3" x2="73.8" y2="49.1"/>
				<polyline class="st8" points="48.1,54.4 43.5,61.5 38.9,54.4 43.5,47.3 52.7,47.3 57.2,54.4 52.7,61.5 				"/>
				<path class="st22" d="M52,29.9c0,2.4-4.6,3.7-7.7,3.7c-5.7,0-13.5,0-13.5-3.7c0-5.9,4.8-10.6,10.6-10.6C47.2,19.2,52,24,52,29.9
					"/>
				<path class="st23" d="M49.8,27.4c-0.7,0.8-2.9,0-4.7-1.7c-1.9-1.7-2.8-3.8-2.1-4.6c0.7-0.8,2.9,0,4.7,1.7
					C49.6,24.6,50.6,26.6,49.8,27.4"/>
				<path class="st24" d="M13.1,81c0,0.1-0.1,0.2-0.3,0.2c-0.9,0.1-1.8,0.1-2.7,0.1c-0.7,0-1-0.3-1-1c0-0.1,0-1,0-2.9v-3.8
					c0-0.2,0.1-0.3,0.2-0.3c0.1,0,0.2,0.1,0.2,0.3v1.1c1.2-0.1,2.1-0.4,2.9-0.8c0.1,0,0.1-0.1,0.2-0.1c0.1,0,0.1,0,0.1,0.1
					c0,0,0,0.1-0.1,0.2c-0.6,0.6-1.6,1-3.1,1.1l0,5c0,0.2,0,0.4,0.1,0.5c0.1,0.1,0.2,0.2,0.5,0.2c1,0,1.8,0,2.6-0.1
					c0.1,0,0.1,0,0.1,0C13,80.8,13.1,80.9,13.1,81"/>
				<path class="st24" d="M22.7,79.1c0,0.7,0,1.1,0,1.4c0,0.3-0.1,0.6-0.2,0.8c-0.1,0.2-0.3,0.3-0.5,0.4c-0.1,0-0.4,0-0.7,0
					c-0.2,0-0.4,0-0.4-0.1c0-0.1,0.1-0.1,0.4-0.1c0.4,0,0.6-0.1,0.7-0.2c0.2-0.2,0.2-0.9,0.2-2.1c0-1.3-0.1-2.5-0.2-3.6
					c-0.1-0.3-0.1-0.6-0.2-0.7c-0.1-0.1-0.3-0.1-0.5-0.1c-0.2,0-0.4,0-0.7,0c-0.2,0.6-0.4,1.3-0.6,2.2c-0.1,0.8-0.3,1.6-0.4,2.5
					c-0.2,1.1-0.5,1.8-0.9,2.2c-0.1,0.1-0.1,0.1-0.2,0.1c-0.1,0-0.1,0-0.1-0.1c0,0,0-0.1,0-0.1c0.3-0.5,0.5-1.3,0.7-2.4
					c0.1-0.7,0.2-1.4,0.3-2.2c0.2-0.9,0.3-1.6,0.5-2.1c-0.2,0-0.6,0.1-1,0.1c-0.1,0-0.1,0-0.1,0c-0.2,0-0.3-0.1-0.3-0.2
					c0-0.1,0.1-0.2,0.3-0.3c0.4-0.1,0.8-0.1,1.3-0.2c0.1-0.3,0.4-0.5,0.7-0.8c0,0,0.1-0.1,0.1-0.1c0.1,0,0.1,0,0.1,0.1
					c0,0,0,0.1-0.1,0.1c-0.1,0.2-0.3,0.4-0.4,0.7c0.1,0,0.3,0,0.5,0c0.4,0,0.6,0.1,0.8,0.3c0.2,0.2,0.3,0.5,0.4,0.9
					C22.7,76.6,22.7,77.8,22.7,79.1"/>
				<path class="st24" d="M28.8,73.7c0-0.1,0,0.2-0.1,0.9c-0.1,0.6-0.1,1.2-0.1,1.7c0,0.2,0,0.6,0,1.1c0,0.5,0,0.9,0,0.9
					c0,0.2,0,0.3-0.1,0.3c-0.1,0-0.1-0.1-0.2-0.3c-0.1-0.5-0.2-1.3-0.2-2.2c0-0.5,0-1,0.1-1.5c0.1-0.4,0.2-0.8,0.3-1
					c0.1-0.1,0.1-0.2,0.2-0.2C28.8,73.5,28.8,73.5,28.8,73.7 M32.1,73.6c0,0,0,0.2,0,0.7c0,0.5,0,0.9,0,1.3c0,0.2,0,0.5,0,0.8v0.7
					c0,0.9-0.1,1.6-0.2,2.1c-0.2,0.9-0.7,1.6-1.3,2.2c0,0-0.1,0-0.1,0c-0.1,0-0.1,0-0.1-0.1c0,0,0-0.1,0.1-0.1
					c0.8-0.9,1.2-2.4,1.2-4.3c0-1,0-1.6,0-1.7c0-0.7,0.1-1.2,0.2-1.7c0-0.1,0.1-0.2,0.1-0.2C32.1,73.4,32.1,73.5,32.1,73.6"/>
				<path class="st24" d="M49.8,73.5c0,0,0,0.1,0,0.2c-0.2,1-0.3,1.8-0.4,2.5c-0.3,1.2-0.6,2.2-1,3c-0.5,1-1.2,1.7-2.1,2.4
					c-0.1,0.1-0.2,0.1-0.2,0.1c-0.1,0-0.1,0-0.1-0.1c0-0.1,0-0.1,0.1-0.2c0.9-0.8,1.6-1.9,2.1-3c0.4-1,0.9-2.6,1.3-4.7
					c0-0.2,0.1-0.3,0.2-0.3C49.8,73.2,49.8,73.3,49.8,73.5"/>
				<path class="st24" d="M66.3,75c0,0.1-0.1,0.2-0.3,0.2c-0.3,0-0.8,0-1.5,0c0,0,0,0.5,0,1.5v1.6c0,0.6-0.2,1.3-0.6,1.9
					c-0.4,0.5-0.8,1-1.4,1.3c-0.1,0-0.1,0.1-0.2,0.1c-0.1,0-0.1,0-0.1-0.1c0,0,0-0.1,0.1-0.2c0.5-0.5,0.9-1,1.2-1.4
					c0.3-0.6,0.5-1.2,0.5-1.9c0-0.3,0-0.8,0-1.5c0-0.4,0-0.8,0-1.3c-0.1,0-0.5,0-0.9,0c-0.5,0-0.7,0-0.9,0c-0.2,0-0.3-0.1-0.3-0.2
					c0-0.2,0.1-0.2,0.3-0.2c0.1,0,0.7,0,1.9,0c1.1,0,1.7,0,1.8,0C66.2,74.8,66.3,74.9,66.3,75 M65.8,73.8c0,0.1-0.1,0.2-0.3,0.2
					h-2.8c-0.2,0-0.3-0.1-0.3-0.2c0-0.1,0.1-0.2,0.3-0.2h2.8C65.7,73.6,65.8,73.6,65.8,73.8"/>
				<path class="st24" d="M75.8,74.2c0,0,0,0.1-0.1,0.1c0,0.1-0.1,0.2-0.1,0.5c-0.1,0.7-0.2,1.3-0.3,2c-0.1,0.7-0.3,1.4-0.5,1.9
					c-0.3,0.7-0.8,1.4-1.4,1.9c-0.5,0.4-0.9,0.7-1.4,0.9c0,0-0.1,0-0.2,0c-0.2,0-0.3-0.1-0.3-0.2c0-0.1,0-0.2,0.1-0.2
					c1.1-0.5,2-1.4,2.6-2.6c0.3-0.5,0.4-1.1,0.6-1.8c0.1-0.6,0.2-1.3,0.3-1.9c0.1-0.3,0.2-0.5,0.3-0.6
					C75.6,74.2,75.7,74.1,75.8,74.2C75.8,74.1,75.8,74.2,75.8,74.2 M73.5,75.3c0,0.1-0.1,0.2-0.2,0.2c0,0-0.1,0-0.1,0
					c-0.5-0.2-0.9-0.5-1.2-0.8c-0.1,0-0.1-0.1-0.1-0.2c0-0.1,0.1-0.2,0.2-0.2c0,0,0.1,0,0.1,0c0.4,0.3,0.7,0.5,1.2,0.8
					C73.4,75.1,73.5,75.2,73.5,75.3"/>
				<path class="st24" d="M84.8,74.2c0,0,0,0.1-0.1,0.1c-0.1,0.1-0.2,0.6-0.3,1.6c-0.1,1.2-0.3,2.1-0.6,2.8
					c-0.3,0.7-0.8,1.4-1.4,1.9c-0.5,0.4-0.9,0.7-1.4,0.9c0,0-0.1,0-0.2,0c-0.2,0-0.3-0.1-0.3-0.2c0-0.1,0.1-0.2,0.2-0.2
					c1.1-0.5,2-1.4,2.6-2.6c0.3-0.5,0.5-1.1,0.6-1.8c0.1-0.6,0.2-1.3,0.3-1.9c0.1-0.3,0.2-0.5,0.3-0.6
					C84.6,74.2,84.7,74.1,84.8,74.2C84.8,74.1,84.8,74.2,84.8,74.2 M82.5,76c0,0.1-0.1,0.2-0.2,0.2c-0.2,0-0.5-0.1-0.9-0.3
					c-0.5-0.2-0.7-0.4-0.7-0.5c0-0.1,0.1-0.1,0.3-0.1c0.1,0,0.4,0.1,0.8,0.2c0.4,0.1,0.6,0.2,0.7,0.3C82.4,75.8,82.5,75.9,82.5,76
					 M83,74.6c0,0.1-0.1,0.2-0.3,0.2c-0.1,0-0.4-0.1-0.7-0.3c-0.3-0.2-0.5-0.3-0.7-0.4c-0.1-0.1-0.2-0.2-0.2-0.2
					c0,0,0.1-0.1,0.2-0.1c0,0,0.1,0,0.1,0c0.2,0,0.5,0.1,0.9,0.2c0.4,0.2,0.7,0.3,0.7,0.4C83,74.5,83,74.5,83,74.6 M85.5,74
					c0,0.1-0.1,0.1-0.2,0.1c-0.1,0-0.1,0-0.2-0.1C85,74,85,73.9,84.9,73.8c-0.2-0.2-0.3-0.3-0.3-0.3c0,0,0.1-0.1,0.2-0.1
					c0.1,0,0.3,0.1,0.4,0.2C85.4,73.8,85.5,73.9,85.5,74 M85.9,73.7c0,0.1,0,0.1-0.1,0.1c0,0-0.2-0.1-0.5-0.4c0,0-0.1-0.1-0.2-0.2
					c0,0,0-0.1,0-0.1c0-0.1,0-0.1,0.1-0.1c0.1,0,0.3,0.1,0.6,0.4C85.8,73.5,85.9,73.6,85.9,73.7"/>
				<path class="st24" d="M94.5,76.1c0,0.3,0,0.7-0.1,1.2c-0.1,0.4-0.2,0.8-0.3,1.2c-0.2,1.3-0.4,2.1-0.4,2.5h0.3
					c0.1,0,0.2,0.1,0.2,0.2c0,0.1-0.1,0.2-0.2,0.2h-0.3c-0.2,0-0.4,0-0.5,0c-0.2,0-0.5,0-1,0l-0.7,0c-0.2,0-0.3-0.1-0.3-0.2
					c0-0.1,0.1-0.2,0.2-0.2c0.5,0,1.1,0,1.8,0h0.2c0-0.6,0.1-1.2,0.2-2c0.1-0.7,0.2-1.3,0.3-2c-0.2,0-0.7,0-1.4,0c-0.6,0-0.9,0-1,0
					c-0.1,0-0.2-0.1-0.2-0.2c0-0.1,0.1-0.2,0.2-0.2c0.1,0,0.5,0,1.1,0c0.7,0,1.1,0,1.3,0c0-0.3,0.1-0.5,0.1-0.7c0-0.1,0-0.1-0.1-0.1
					c-0.1,0-0.2,0-0.5,0c-0.2,0-0.5,0-1,0c-0.5,0-0.7,0-0.8,0c-0.2,0-0.3-0.1-0.3-0.2c0-0.1,0.1-0.2,0.2-0.2c0.6,0,1.2,0,1.8,0
					c0.3,0,0.6,0,0.7,0C94.3,75.7,94.5,75.9,94.5,76.1"/>
				<path class="st24" d="M104.4,74.4v0.5c0,0.2,0,0.4,0,0.5c0,0.5-0.1,0.9-0.2,1.2c-0.1,0.3-0.3,0.7-0.6,1.1
					c-0.3,0.5-0.9,1.3-1.5,2.3c-0.4,0.6-0.6,1-0.7,1.4c0,0.1-0.1,0.2-0.2,0.2c-0.1,0-0.1,0-0.1-0.1c0,0,0-0.1,0-0.1
					c0.1-0.6,0.7-1.7,1.7-3.2c0.4-0.6,0.7-1.1,0.8-1.3c0.2-0.5,0.4-1,0.4-1.5v-0.8c0-0.1-0.1-0.1-0.2-0.1c-0.2,0-0.7,0-1.5,0
					c-0.8,0-1.3,0-1.4,0c-0.1,0-0.1,0-0.1,0.1c0,0.1,0,0.3,0,0.6c0,0.2-0.1,0.3-0.2,0.3c-0.1,0-0.2-0.1-0.2-0.3l0-0.7
					c0-0.2,0-0.3,0.1-0.4c0.1-0.1,0.2-0.1,0.4-0.1c0.1,0,0.5,0,1.3,0v-0.2c0-0.2,0.1-0.3,0.2-0.3c0.1,0,0.2,0.1,0.2,0.3v0.2l1.4,0
					c0.2,0,0.4,0,0.4,0.1C104.3,74,104.4,74.2,104.4,74.4"/>
				<path class="st24" d="M102.1,50h-0.9l0-7.7l-8.7-0.9l0-6.9h-4.8v-0.7h4.8l0-5.2h0.9l0,5.2h7.8l0-5.2h0.8l0,5.2h5.3v0.7h-5.3V50z
					 M93.4,38.1c0,1.2,0,2,0,3.3h7.8v-6.9h-7.8V38.1z"/>
				<path class="st8" d="M93,42.2c0,3.1-4.4,7-12.1,7"/>
				<line class="st8" x1="81" y1="49.2" x2="65.4" y2="49.2"/>
				<line class="st8" x1="74" y1="49.1" x2="74" y2="41.6"/>
			</g>
			<g class="st2">
				<defs>
					<path id="SVGID_27_" d="M84.5,25.7l7.1,6.6h-7.8l-7.1-6.6h-0.9l7.1,6.6H78l0.7,0.6h4.8l9,8.5h8.7l-7.8,0
						c-1.7-1.6-2.8-2.6-4.4-4.1l-4.7-4.4h7.8l9,8.5h0.9l-9-8.5h5.3l-0.7-0.6h-5.3l-7.1-6.6H84.5z"/>
				</defs>
				<clipPath id="SVGID_28_">
					<use xlink:href="#SVGID_27_"  style="overflow:visible;"/>
				</clipPath>
				<defs>
					<filter id="Adobe_OpacityMaskFilter_5_" filterUnits="userSpaceOnUse" x="73.1" y="25.7" width="31.7" height="15.7">
						<feColorMatrix  type="matrix" values="1 0 0 0 0  0 1 0 0 0  0 0 1 0 0  0 0 0 1 0"/>
					</filter>
				</defs>
				<mask maskUnits="userSpaceOnUse" x="73.1" y="25.7" width="31.7" height="15.7" id="SVGID_29_">
					<g class="st25">
						
							<linearGradient id="SVGID_30_" gradientUnits="userSpaceOnUse" x1="3.0898" y1="79.9023" x2="3.2698" y2="79.9023" gradientTransform="matrix(15.028 87.3929 87.3929 0 -6941.7285 -244.3226)">
							<stop  offset="0" style="stop-color:#000000"/>
							<stop  offset="0.1013" style="stop-color:#121212"/>
							<stop  offset="0.3036" style="stop-color:#3F3F3F"/>
							<stop  offset="0.5882" style="stop-color:#898989"/>
							<stop  offset="0.9411" style="stop-color:#EEEEEE"/>
							<stop  offset="1" style="stop-color:#FFFFFF"/>
						</linearGradient>
						<polygon class="st26" points="102.1,25.7 104.8,41.4 75.8,41.4 73.1,25.7 						"/>
					</g>
				</mask>
				
					<linearGradient id="SVGID_31_" gradientUnits="userSpaceOnUse" x1="3.0898" y1="79.9023" x2="3.2698" y2="79.9023" gradientTransform="matrix(15.028 87.3929 87.3929 0 -6941.7285 -244.3226)">
					<stop  offset="0" style="stop-color:#000000"/>
					<stop  offset="0.5366" style="stop-color:#110C0A"/>
					<stop  offset="1" style="stop-color:#231815"/>
				</linearGradient>
				<polygon class="st27" points="102.1,25.7 104.8,41.4 75.8,41.4 73.1,25.7 				"/>
			</g>
		</g>
	</g>
</g>
</svg>
