<?xml version="1.0" encoding="utf-8"?>
<!-- Generator: Adobe Illustrator 22.0.0, SVG Export Plug-In . SVG Version: 6.00 Build 0)  -->
<svg version="1.1" id="レイヤー_1" xmlns="http://www.w3.org/2000/svg" xmlns:xlink="http://www.w3.org/1999/xlink" x="0px"
	 y="0px" viewBox="0 0 113.4 85" style="enable-background:new 0 0 113.4 85;" xml:space="preserve">
<style type="text/css">
	.st0{fill:#231815;}
	.st1{fill-rule:evenodd;clip-rule:evenodd;fill:#231815;}
</style>
<g>
	<path class="st0" d="M39.7,12.2c4.8,0,9.5,1.8,13.2,5.5l4.2,4.2l3.4-3.4c3.6-3.6,8.4-5.5,13.2-5.5s9.5,1.8,13.2,5.5
		c7.3,7.3,7.3,19.1,0,26.3L57.1,74.6L26.5,44c-7.3-7.3-7.3-19.1,0-26.3C30.2,14,34.9,12.2,39.7,12.2 M39.7,9.5c-2.8,0-5.5,0.5-8,1.6
		c-2.6,1.1-5,2.6-7,4.7c-2,2-3.6,4.4-4.7,7c-1,2.6-1.6,5.2-1.6,8c0,2.8,0.5,5.5,1.6,8c1.1,2.6,2.6,5,4.7,7l30.6,30.6l1.9,1.9
		l1.9-1.9l29.7-29.7c2-2,3.6-4.4,4.7-7c1-2.6,1.6-5.2,1.6-8s-0.5-5.5-1.6-8c-1.1-2.6-2.6-5-4.7-7c-2-2-4.4-3.6-7-4.7
		c-2.6-1-5.2-1.6-8-1.6s-5.5,0.5-8,1.6c-2.6,1.1-5,2.6-7,4.7l-1.5,1.5l-2.4-2.4c-2-2-4.4-3.6-7-4.7C45.2,10.1,42.5,9.5,39.7,9.5
		L39.7,9.5z"/>
	<g>
		<path class="st0" d="M25.6,40.7l3.8-3.8l2.3,2.3l-0.8,0.8l-1.3-1.3l-0.7,0.7l1.3,1.3l-0.8,0.8l-1.3-1.3l-1.5,1.5L25.6,40.7z"/>
		<path class="st0" d="M32.5,45.1c-0.2,0.2-0.4,0.3-0.7,0.4c-0.2,0.1-0.5,0.1-0.8,0.1c-0.3,0-0.5-0.1-0.8-0.2
			c-0.2-0.1-0.5-0.3-0.7-0.5c-0.2-0.2-0.4-0.4-0.5-0.7C29,44.1,29,43.8,29,43.6c0-0.3,0-0.5,0.1-0.8c0.1-0.2,0.2-0.5,0.4-0.7
			c0.2-0.2,0.4-0.3,0.7-0.4c0.2-0.1,0.5-0.1,0.8-0.1c0.3,0,0.5,0.1,0.8,0.2c0.2,0.1,0.5,0.3,0.7,0.5c0.2,0.2,0.4,0.4,0.5,0.7
			c0.1,0.2,0.2,0.5,0.2,0.8c0,0.3,0,0.5-0.1,0.8C32.8,44.7,32.7,44.9,32.5,45.1z M31.6,44.2c0.2-0.2,0.3-0.4,0.3-0.6
			c0-0.2-0.1-0.4-0.2-0.6c-0.2-0.2-0.4-0.2-0.6-0.2c-0.2,0-0.4,0.1-0.6,0.3c-0.2,0.2-0.3,0.4-0.3,0.6c0,0.2,0.1,0.4,0.2,0.6
			c0.2,0.2,0.4,0.2,0.6,0.2C31.2,44.5,31.4,44.3,31.6,44.2z"/>
		<path class="st0" d="M35.8,48.4c-0.2,0.2-0.4,0.3-0.7,0.4c-0.2,0.1-0.5,0.1-0.8,0.1c-0.3,0-0.5-0.1-0.8-0.2
			c-0.2-0.1-0.5-0.3-0.7-0.5c-0.2-0.2-0.4-0.4-0.5-0.7c-0.1-0.2-0.2-0.5-0.2-0.8c0-0.3,0-0.5,0.1-0.8c0.1-0.2,0.2-0.5,0.4-0.7
			c0.2-0.2,0.4-0.3,0.7-0.4c0.2-0.1,0.5-0.1,0.8-0.1c0.3,0,0.5,0.1,0.8,0.2c0.2,0.1,0.5,0.3,0.7,0.5c0.2,0.2,0.4,0.4,0.5,0.7
			c0.1,0.2,0.2,0.5,0.2,0.8c0,0.3,0,0.5-0.1,0.8C36.2,48,36,48.2,35.8,48.4z M34.9,47.5c0.2-0.2,0.3-0.4,0.3-0.6
			c0-0.2-0.1-0.4-0.2-0.6c-0.2-0.2-0.4-0.2-0.6-0.2c-0.2,0-0.4,0.1-0.6,0.3c-0.2,0.2-0.3,0.4-0.3,0.6c0,0.2,0.1,0.4,0.2,0.6
			c0.2,0.2,0.4,0.2,0.6,0.2C34.5,47.8,34.7,47.7,34.9,47.5z"/>
		<path class="st0" d="M41.9,49l-4,4L37,52.2l0.4-0.4c-0.3,0.1-0.6,0.1-0.8,0c-0.2-0.1-0.4-0.2-0.6-0.4c-0.4-0.4-0.5-0.8-0.5-1.3
			c0-0.5,0.3-0.9,0.7-1.4c0.4-0.4,0.9-0.6,1.3-0.7c0.5,0,0.9,0.1,1.2,0.5c0.2,0.2,0.4,0.4,0.4,0.7c0.1,0.2,0.1,0.5,0,0.8
			c0.1-0.1,0.1-0.2,0.2-0.2c0.1-0.1,0.2-0.2,0.2-0.3l1.4-1.4L41.9,49z M38.4,51c0.2-0.2,0.3-0.4,0.3-0.6c0-0.2-0.1-0.4-0.3-0.6
			c-0.2-0.2-0.4-0.3-0.6-0.3c-0.2,0-0.4,0.1-0.6,0.3c-0.2,0.2-0.3,0.4-0.3,0.6c0,0.2,0.1,0.4,0.3,0.6c0.2,0.2,0.4,0.3,0.6,0.3
			C38,51.3,38.2,51.2,38.4,51z"/>
		<path class="st0" d="M40.3,55.5l3.8-3.8l1,1l-2.9,2.9l1.3,1.3l-0.9,0.9L40.3,55.5z"/>
		<path class="st0" d="M47.2,59.8c-0.2,0.2-0.4,0.3-0.7,0.4c-0.2,0.1-0.5,0.1-0.8,0.1c-0.3,0-0.5-0.1-0.8-0.2
			c-0.2-0.1-0.5-0.3-0.7-0.5c-0.2-0.2-0.4-0.4-0.5-0.7c-0.1-0.2-0.2-0.5-0.2-0.8c0-0.3,0-0.5,0.1-0.8c0.1-0.2,0.2-0.5,0.4-0.7
			c0.2-0.2,0.4-0.3,0.7-0.4c0.2-0.1,0.5-0.1,0.8-0.1c0.3,0,0.5,0.1,0.8,0.2c0.2,0.1,0.5,0.3,0.7,0.5c0.2,0.2,0.4,0.4,0.5,0.7
			c0.1,0.2,0.2,0.5,0.2,0.8c0,0.3,0,0.5-0.1,0.8C47.6,59.4,47.4,59.6,47.2,59.8z M46.3,58.9c0.2-0.2,0.3-0.4,0.3-0.6
			c0-0.2-0.1-0.4-0.2-0.6c-0.2-0.2-0.4-0.2-0.6-0.2c-0.2,0-0.4,0.1-0.6,0.3c-0.2,0.2-0.3,0.4-0.3,0.6c0,0.2,0.1,0.4,0.2,0.6
			c0.2,0.2,0.4,0.2,0.6,0.2C45.9,59.2,46.1,59.1,46.3,58.9z"/>
		<path class="st0" d="M47.2,62.4l1.5-3.8l1,1L49,61.2c0,0,0,0,0,0.1c-0.1,0.2-0.2,0.4-0.3,0.5c0.1-0.1,0.2-0.2,0.4-0.2
			c0,0,0.1,0,0.1,0l1.6-0.7l1,1L48,63.2L47.2,62.4z"/>
		<path class="st0" d="M53.3,66.2l-2-2c-0.2,0.2-0.3,0.4-0.3,0.6c0,0.2,0.1,0.4,0.3,0.6c0.1,0.1,0.3,0.2,0.4,0.3c0.1,0,0.3,0,0.5,0
			l0.4,1c-0.3,0.1-0.6,0.1-0.9,0c-0.3-0.1-0.6-0.3-0.9-0.6c-0.5-0.5-0.7-1-0.7-1.5c0-0.5,0.2-1,0.6-1.4c0.4-0.4,0.9-0.6,1.4-0.6
			c0.5,0,1,0.2,1.5,0.6c0.4,0.4,0.6,0.9,0.6,1.4C54.1,65.2,53.8,65.7,53.3,66.2L53.3,66.2z M52.9,64.8c0.1-0.2,0.2-0.3,0.2-0.5
			c0-0.2-0.1-0.4-0.2-0.5c-0.2-0.2-0.3-0.2-0.5-0.2c-0.2,0-0.4,0.1-0.6,0.2L52.9,64.8z"/>
		<path class="st0" d="M52.7,67.9l2.6-2.6l0.9,0.9l-0.6,0.6c0.3-0.1,0.6-0.2,0.9-0.1c0.3,0,0.5,0.2,0.7,0.4c0,0,0.1,0.1,0.1,0.1
			c0,0,0.1,0.1,0.1,0.1L56.5,68c0-0.1-0.1-0.1-0.1-0.2c0-0.1-0.1-0.1-0.1-0.2c-0.2-0.2-0.5-0.3-0.7-0.3c-0.3,0-0.5,0.2-0.8,0.4
			l-1.1,1.1L52.7,67.9z"/>
		<path class="st0" d="M55.1,69.8l0.9-0.5c0,0.3,0.1,0.5,0.2,0.7c0.1,0.2,0.2,0.4,0.4,0.6c0.1,0.1,0.2,0.2,0.3,0.2
			c0.1,0,0.2,0,0.3-0.1c0.1-0.1,0.1-0.3-0.1-0.6C57,70,56.9,70,56.9,69.9c-0.2-0.4-0.3-0.7-0.3-0.9c0-0.3,0.1-0.5,0.3-0.7
			c0.3-0.3,0.6-0.4,0.9-0.3c0.3,0,0.7,0.2,1,0.6c0.2,0.2,0.3,0.4,0.5,0.6c0.1,0.2,0.3,0.5,0.4,0.7l-0.8,0.4c0-0.2-0.1-0.4-0.2-0.6
			c-0.1-0.2-0.2-0.3-0.3-0.4c-0.1-0.1-0.2-0.2-0.3-0.2c-0.1,0-0.2,0-0.2,0.1c-0.1,0.1-0.1,0.3,0.1,0.6c0,0.1,0.1,0.1,0.1,0.2
			c0.2,0.4,0.3,0.7,0.3,1c0,0.3-0.1,0.5-0.3,0.7c-0.3,0.3-0.6,0.4-1,0.3c-0.4,0-0.7-0.2-1.1-0.6c-0.2-0.2-0.4-0.5-0.6-0.7
			C55.3,70.4,55.2,70.1,55.1,69.8z"/>
	</g>
	<path class="st0" d="M31.3,17.7l-5.7,5.7c-1.3,1.3-1.3,3.3,0,4.6l10,10c1.3,1.3,3.3,1.3,4.6,0l1.9-1.9l6,6c0,0.5,0.2,0.9,0.5,1.3
		l16.5,16.5c0.7,0.7,1.9,0.7,2.6,0l0,0c0.7-0.7,0.7-1.9,0-2.6L51.3,40.8c-0.4-0.4-0.8-0.5-1.3-0.5l-6-6l1.9-1.9
		c1.3-1.3,1.3-3.3,0-4.6l-10-10C34.6,16.4,32.5,16.4,31.3,17.7z M67,59.1c-0.4,0.4-0.9,0.4-1.3,0c-0.4-0.4-0.4-0.9,0-1.3
		c0.4-0.4,0.9-0.4,1.3,0C67.3,58.1,67.3,58.7,67,59.1z M30.2,23.9c-0.4-0.4-0.4-1.1,0-1.5l0.1-0.1c0.4-0.4,1.1-0.4,1.5,0l8.6,8.6
		c0.4,0.4,0.4,1.1,0,1.5l-0.1,0.1c-0.4,0.4-1.1,0.4-1.5,0L30.2,23.9z M37.3,34c0.4,0.4,0.4,1.1,0,1.5l-0.1,0.1
		c-0.4,0.4-1.1,0.4-1.5,0L27.2,27c-0.4-0.4-0.4-1.1,0-1.5l0.1-0.1c0.4-0.4,1.1-0.4,1.5,0L37.3,34z M43.5,27.9c0.4,0.4,0.4,1.1,0,1.5
		l-0.1,0.1c-0.4,0.4-1.1,0.4-1.5,0l-8.6-8.6c-0.4-0.4-0.4-1.1,0-1.5l0.1-0.1c0.4-0.4,1.1-0.4,1.5,0L43.5,27.9z"/>
	<g>
		<g>
			<path class="st0" d="M82,23.2c-2.5-2.5-6.6-2.5-9.2,0c-2.5,2.5-2.5,6.6,0,9.2c2.5,2.5,6.6,2.5,9.2,0C84.5,29.9,84.5,25.8,82,23.2
				z"/>
			<path class="st0" d="M85,20.2c-4.2-4.2-11-4.2-15.2,0c-3.9,3.9-4.2,10-0.9,14.2c0.3,0.3,0.6,0.7,0.9,1c0.4,0.4,0.8,0.7,1.2,1
				c4.2,3.1,10.1,2.8,14-1C89.2,31.2,89.2,24.4,85,20.2z M72.4,35c-0.4-0.3-0.8-0.6-1.2-1c-0.3-0.3-0.6-0.7-0.9-1
				c-2.5-3.4-2.2-8.3,0.9-11.4c3.4-3.4,9-3.4,12.4,0c3.4,3.4,3.4,9,0,12.4C80.6,37.1,75.8,37.4,72.4,35z"/>
			<path class="st0" d="M68.9,36.3c-0.3-0.3-0.6-0.7-0.9-1l-9.7,8.7c-0.5,0.5-0.5,1.3,0,1.8l1.3,1.3c0.5,0.5,1.3,0.5,1.8,0l8.8-9.6
				C69.8,37.1,69.3,36.7,68.9,36.3z M61.2,45.4c-0.4,0.4-1,0.4-1.3,0c-0.4-0.4-0.4-1,0-1.3c0.4-0.4,1-0.4,1.3,0
				C61.6,44.4,61.6,45,61.2,45.4z"/>
		</g>
	</g>
	<g>
		<g>
			<polygon class="st0" points="68,16.3 68,16.3 68,16.3 			"/>
			<path class="st0" d="M66.5,16.2L59,23.7c0,0,1.5,1.5,3.1,3.1l0.3-0.3L62,24.7l6.4-6.6c0.3-0.3,0.3-0.8-0.1-1.2l-0.5-0.5
				C67.4,16,66.8,15.9,66.5,16.2z M67,17.6c0.2,0.2,0.2,0.6,0,0.8c-0.2,0.2-0.6,0.2-0.8,0c-0.2-0.2-0.2-0.6,0-0.8
				C66.4,17.3,66.8,17.3,67,17.6z"/>
			<path class="st0" d="M61.7,27.7l-0.5-0.5l-2.8-2.8l0,0l0,0l-0.5,0.5L47.2,35.5c1,0.7,5.8,2.9,15.5-6.7L61.7,27.7L61.7,27.7z"/>
		</g>
	</g>
	<path class="st1" d="M39.4,42C39.4,42,39.4,42,39.4,42C39.4,42,39.4,42,39.4,42C39.5,42,39.5,42,39.4,42c0.1-0.1,0.1-0.1,0.1-0.1
		c0.4-0.4,1.1-0.3,1.7,0.2c0.1,0.1,0.2,0.2,0.2,0.2c0,0,0,0,0,0l12.7,13.3c0.3,0.3,0.7,0.4,1.1,0.3c0.7-0.3,1.4-0.3,2.2-0.1
		c0.8,0.3,1.7,0.8,2.5,1.7c1.1,1.1,2.1,2.7,2.6,4.1c0.6,1.5,0.5,2.7-0.1,3.4c-0.6,0.6-1.8,0.7-3.4,0.1c-1.4-0.5-3-1.5-4.1-2.6
		c-0.8-0.8-1.4-1.7-1.7-2.5c-0.2-0.8-0.2-1.5,0.1-2.2c0.2-0.4,0-0.8-0.3-1.1L39.9,44c0,0,0,0,0,0c0,0-0.1-0.1-0.2-0.2l0,0
		C39.1,43.2,39,42.4,39.4,42z"/>
	<path class="st0" d="M74.6,47.4c-0.5-0.1-0.8-0.2-1.9,0.9c-1.1,1-5.8,6-5.8,6l0.6,0.6l5-4.8c0,0,0.1-0.1,0.3,0.1
		c0.2,0.2,0.1,0.3,0.1,0.3l-4.8,4.8l0.6,0.6c0,0,4.6-4.5,4.9-4.8c0,0,0.2,0,0.3,0.1c0.1,0.1,0.1,0.3,0.1,0.3
		c-0.3,0.3-4.8,4.9-4.8,4.9l0.6,0.6l4.8-4.8c0,0,0.1-0.1,0.3,0.1c0.2,0.2,0.1,0.3,0.1,0.3l-4.7,5l0.6,0.6c0,0,5-4.7,6-5.9
		c1-1.1,1-1.5,0.9-1.9c-0.1-0.5-0.1-1.1,0.1-1.5c0.7-1.2,3.4-3.9,4.9-5.2c1.3-1.2,3.6-3.2,5.3-4.3c1.7-1.1,2.6-1.7,1.1-3.1
		c-1.4-1.4-2-0.6-3.1,1.1c-1.1,1.7-3.1,4-4.3,5.3c-1.4,1.5-4.1,4.2-5.2,4.9C75.7,47.5,75,47.5,74.6,47.4z"/>
	<g>
		<path class="st0" d="M46.8,15.2c0.4,0.4-5.2,6-5.6,5.6s0.5-2,2.1-3.6C44.8,15.7,46.4,14.8,46.8,15.2z"/>
		<g>
			
				<rect x="49.3" y="26.4" transform="matrix(0.7071 -0.7071 0.7071 0.7071 -3.466 45.2102)" class="st0" width="7.1" height="0.8"/>
			<path class="st0" d="M54.5,23.4l-7.1-7.1l-5,5l7.1,7.1L54.5,23.4z M43.7,21.5c-0.1-0.1-0.1-0.3,0-0.4l3.5-3.5
				c0.1-0.1,0.3-0.1,0.4,0l5.6,5.6c0.1,0.1,0.1,0.3,0,0.4l-3.5,3.5c-0.1,0.1-0.3,0.1-0.4,0L43.7,21.5z"/>
		</g>
		<g>
			<polygon class="st0" points="48.9,21.1 48.6,21.9 49.3,22.6 50.2,22.3 50.4,21.5 49.7,20.8 			"/>
			<polygon class="st0" points="47.5,22.6 46.9,23.2 47.1,24.1 48,24.3 48.6,23.7 48.4,22.8 			"/>
			<polygon class="st0" points="48.7,24.4 48.5,25.3 49.1,26 50,25.7 50.2,24.8 49.6,24.2 			"/>
			<polygon class="st0" points="50.9,22.4 50.2,23.1 50.5,24 51.4,24.2 52,23.5 51.8,22.7 			"/>
		</g>
	</g>
	<g>
		<path class="st0" d="M55.7,40.6c0-0.1,0.1-0.1,0.1-0.2c0-0.1,0.1-0.1,0.2-0.2c0.3-0.3,0.6-0.4,0.9-0.4c0.4,0,0.7,0.2,1,0.4
			c0.3,0.3,0.5,0.7,0.5,1.1c0,0.4-0.2,0.8-0.6,1.2c-0.4,0.4-0.7,0.5-1.2,0.6c-0.4,0-0.8-0.2-1.1-0.5c-0.2-0.2-0.3-0.4-0.4-0.7
			c-0.1-0.3-0.2-0.7-0.4-1.3l-0.2-1.1l0.9-0.9L55.7,40.6z M56.3,41.1c-0.1,0.1-0.2,0.3-0.2,0.5c0,0.2,0.1,0.3,0.2,0.5
			c0.1,0.1,0.3,0.2,0.5,0.2c0.2,0,0.3-0.1,0.5-0.2c0.1-0.1,0.2-0.3,0.2-0.5c0-0.2-0.1-0.3-0.2-0.5c-0.1-0.1-0.3-0.2-0.5-0.2
			C56.6,40.9,56.4,40.9,56.3,41.1z"/>
		<path class="st0" d="M58.4,37.9c0-0.1,0.1-0.1,0.1-0.2c0-0.1,0.1-0.1,0.2-0.2c0.3-0.3,0.6-0.4,0.9-0.4c0.4,0,0.7,0.2,1,0.4
			c0.3,0.3,0.5,0.7,0.5,1.1c0,0.4-0.2,0.8-0.6,1.2c-0.4,0.4-0.7,0.5-1.2,0.6c-0.4,0-0.8-0.2-1.1-0.5c-0.2-0.2-0.3-0.4-0.4-0.7
			c-0.1-0.3-0.2-0.7-0.4-1.3l-0.2-1.1l0.9-0.9L58.4,37.9z M59,38.4c-0.1,0.1-0.2,0.3-0.2,0.5c0,0.2,0.1,0.3,0.2,0.5
			c0.1,0.1,0.3,0.2,0.5,0.2c0.2,0,0.3-0.1,0.5-0.2c0.1-0.1,0.2-0.3,0.2-0.5c0-0.2-0.1-0.3-0.2-0.5c-0.1-0.1-0.3-0.2-0.5-0.2
			C59.3,38.1,59.1,38.2,59,38.4z"/>
		<path class="st0" d="M62.2,38.1l-1.6-1.6l-0.3,0.3l-0.5-0.5l0.3-0.3l-0.6-0.6l0.7-0.7l0.6,0.6l0.3-0.3l0.5,0.5l-0.3,0.3l1.6,1.6
			L62.2,38.1z"/>
		<path class="st0" d="M63.6,36.7l-3.3-3.3l0.7-0.7l1.2,1.2c0.1,0.1,0.1,0.1,0.2,0.2c0.1,0.1,0.1,0.1,0.2,0.2
			c-0.1-0.3-0.1-0.5,0-0.7c0.1-0.2,0.2-0.4,0.3-0.6c0.1-0.1,0.3-0.2,0.4-0.3c0.2-0.1,0.3-0.1,0.5-0.1c0.1,0,0.3,0.1,0.4,0.1
			c0.1,0.1,0.3,0.2,0.5,0.4l1.2,1.2l-0.8,0.8L64,34c-0.2-0.2-0.3-0.3-0.5-0.3c-0.1,0-0.3,0-0.4,0.2C63,34,63,34.2,63,34.4
			c0,0.2,0.2,0.4,0.5,0.7l0.9,0.9L63.6,36.7z"/>
	</g>
	<g>
		<path class="st0" d="M26,36.9l-2.4-2.4c-0.6-0.6-0.6-1.5,0-2.1c0.6-0.6,1.5-0.6,2.1,0l0.3,0.3l0.3-0.3c0.6-0.6,1.5-0.6,2.1,0
			c0.6,0.6,0.6,1.5,0,2.1L26,36.9z"/>
	</g>
	<g>
		<path class="st0" d="M39.6,18.9l-2.4-2.4c-0.6-0.6-0.6-1.5,0-2.1c0.6-0.6,1.5-0.6,2.1,0l0.3,0.3l0.3-0.3c0.6-0.6,1.5-0.6,2.1,0
			c0.6,0.6,0.6,1.5,0,2.1L39.6,18.9z"/>
	</g>
	<path class="st0" d="M76.6,42h-8c-0.4,0-0.8,0.4-0.8,0.8c0,0.4,0.4,0.8,0.8,0.8H69v1.1c0,0.7,0.6,1.3,1.3,1.3H75
		c0.7,0,1.3-0.6,1.3-1.3v-1.1h0.4c0.4,0,0.8-0.4,0.8-0.8C77.4,42.4,77.1,42,76.6,42z M75,40h-1.5c0-0.1,0.1-0.2,0.1-0.3
		c0-0.3-0.3-0.6-0.6-0.6h-0.6c-0.3,0-0.6,0.3-0.6,0.6c0,0.1,0,0.2,0.1,0.3h-1.5c-0.7,0-1.3,0.6-1.3,1.3h7.3C76.3,40.5,75.7,40,75,40
		z"/>
	<g>
		<path class="st0" d="M65.4,52.8l-2.8-2.8c-0.7-0.7-0.7-1.8,0-2.4c0.7-0.7,1.8-0.7,2.4,0l0.4,0.4l0.3-0.3c0.7-0.7,1.8-0.7,2.4,0
			c0.7,0.7,0.7,1.8,0,2.4L65.4,52.8z"/>
	</g>
</g>
</svg>
