<?xml version="1.0" encoding="utf-8"?>
<!-- Generator: Adobe Illustrator 22.0.0, SVG Export Plug-In . SVG Version: 6.00 Build 0)  -->
<svg version="1.1" id="レイヤー_1" xmlns="http://www.w3.org/2000/svg" xmlns:xlink="http://www.w3.org/1999/xlink" x="0px"
	 y="0px" viewBox="0 0 113.4 85" style="enable-background:new 0 0 113.4 85;" xml:space="preserve">
<style type="text/css">
	.st0{clip-path:url(#SVGID_2_);}
	.st1{clip-path:url(#SVGID_4_);}
	.st2{opacity:0.7;clip-path:url(#SVGID_6_);}
	.st3{clip-path:url(#SVGID_8_);fill:#646465;}
	.st4{clip-path:url(#SVGID_8_);}
	.st5{clip-path:url(#SVGID_10_);}
	.st6{clip-path:url(#SVGID_12_);fill:#1E2D5D;}
	.st7{clip-path:url(#SVGID_12_);fill:#115E32;}
	.st8{clip-path:url(#SVGID_12_);fill:#7FB628;}
	.st9{clip-path:url(#SVGID_12_);fill:#1357A7;}
	.st10{clip-path:url(#SVGID_12_);fill:#1D923B;}
	.st11{clip-path:url(#SVGID_12_);fill:#4691C2;}
	.st12{clip-path:url(#SVGID_12_);fill:#129DAD;}
	.st13{fill:#231815;}
	.st14{font-family:'YuGo-Medium-83pv-RKSJ-H';}
	.st15{font-size:8px;}
	.st16{clip-path:url(#SVGID_14_);fill:none;stroke:#231815;stroke-width:0.25;stroke-miterlimit:10;}
	.st17{fill:#00913A;}
	.st18{font-size:7px;}
	.st19{clip-path:url(#SVGID_16_);fill:none;stroke:#231815;stroke-width:0.25;stroke-miterlimit:10;}
	.st20{clip-path:url(#SVGID_18_);fill:none;stroke:#231815;stroke-width:0.25;stroke-miterlimit:10;}
	.st21{font-family:'HGPMinchoE';}
	.st22{font-size:14px;}
	.st23{clip-path:url(#SVGID_20_);fill:none;stroke:#006934;stroke-width:0.25;stroke-miterlimit:10;}
	.st24{clip-path:url(#SVGID_20_);}
	.st25{clip-path:url(#SVGID_22_);}
	.st26{clip-path:url(#SVGID_24_);fill:#79C06A;}
	.st27{clip-path:url(#SVGID_24_);fill:#2DBAEE;}
</style>
<g>
	<g>
		<defs>
			<rect id="SVGID_1_" x="0" y="0" width="113.4" height="85"/>
		</defs>
		<clipPath id="SVGID_2_">
			<use xlink:href="#SVGID_1_"  style="overflow:visible;"/>
		</clipPath>
		<g class="st0">
			<defs>
				<rect id="SVGID_3_" x="0" y="0" width="113.4" height="85"/>
			</defs>
			<clipPath id="SVGID_4_">
				<use xlink:href="#SVGID_3_"  style="overflow:visible;"/>
			</clipPath>
			<g class="st1">
				<defs>
					<rect id="SVGID_5_" x="0" y="0" width="113.4" height="85"/>
				</defs>
				<clipPath id="SVGID_6_">
					<use xlink:href="#SVGID_5_"  style="overflow:visible;"/>
				</clipPath>
				<g class="st2">
					<g>
						<defs>
							<rect id="SVGID_7_" x="32.5" y="8" width="56" height="43.2"/>
						</defs>
						<clipPath id="SVGID_8_">
							<use xlink:href="#SVGID_7_"  style="overflow:visible;"/>
						</clipPath>
						<path class="st3" d="M88.5,44.7L85.1,45c-0.6-0.5-1.5-1.3-2.4-2.3c-2.5-2.5-5.5-5.8-5.9-6.3c-1.2,1.9-3.3,4.8-5.2,7.2
							c-0.6,0.8-1.3,1.6-1.8,2.2L68.5,46c2.1-2.7,6.4-9.2,7.3-12.2l1.8,1.4c0,0.2,0,0.2-0.2,0.5C79.5,38.8,85,42,88.5,44.7"/>
						<path class="st3" d="M72.5,48.5c0.9-1.3,3.1-3.9,3.1-3.9l-3.5,0.2l-0.3-0.9l10.7-0.7l0.3,1.1l-5.9,0.3c-0.9,1.2-1.3,2-2.4,3.7
							c2.1-0.2,3.8-0.2,6.1-0.7c0,0-0.4-0.8-1.1-1.7l0.3-0.6c1.5,1.3,3.2,3.3,4,4.5l-1.4,0.8c-0.2-0.3-1-1.9-1.4-2.3
							c-3.3,0.6-5.4,1.4-7.7,1.8c-0.2,0-0.4,0.1-0.5,0.1L72.5,48.5z"/>
						<polygon class="st3" points="80.1,40.9 80.3,42.1 73.5,42.4 73.4,41.5 						"/>
						<path class="st3" d="M77.7,15.3l0.7,0.7c0,0.1,0,0.1,0,0.3c-1.2,8.9-2.9,12.5-3.9,13.2c0,0-0.3-0.3-0.7-0.7
							c-0.4-0.4-0.9-0.9-1.2-1.3l-0.2-0.6c0.9,0.5,1.3,0.5,1.7,0.6l0.1-0.2c0.3-0.7,1.8-2.9,2.9-10.6l-6.2-0.8
							c-0.7,1.1-1.4,1.9-2.1,2.6l-0.4-0.3c1.3-1.4,2.5-6,3.1-8.5l2.4,1.4c-0.1,0.1-0.2,0.2-0.4,0.1c-0.3,0.8-1.6,2.8-2,3.6
							L77.7,15.3z"/>
						<path class="st3" d="M74.2,19.1l0.4,0.4l-0.8,4.2l0.2,0l-0.1,0.9l-4.3-0.6l0.4-5.4L74.2,19.1z M72.7,23.6l0.7-3.6l-2.5-0.2
							l-0.2,3.6L72.7,23.6z"/>
						<path class="st3" d="M73.3,50.1c0.8-0.1-0.6,0.2-0.5,0.1C72.9,50.2,73.1,50.2,73.3,50.1"/>
						<path class="st3" d="M68.9,12l-0.1,1.1L66.3,13l-0.2,1.7l2.1,0.1L68,16.1l-2.1-0.3l-0.2,1.7l2.1,0.2l-0.1,1.2l-2.1-0.3
							l-0.2,1.6l2.7,0.2l0,0.2c0,0.1,0,0.4,0,0.5c-0.8,4.6-1.2,6.9-1.7,7.3c0,0-1.9-0.6-2.5-1.1c0,0-0.1-0.2-0.2-0.4
							c0,0,0-0.1,0-0.1c0.6,0.1,1.8,0.1,2,0.1c0,0,0.3-0.5,0.7-2.3l-0.8,0.3c-0.3-0.8-0.3-1.5-0.6-2.7l0.4-0.1
							c0.3,0.8,0.9,1.7,1,2.3h0c0.1-0.8,0.3-1.7,0.5-3L62.4,21l-1-0.1l1.1-9.2L68.9,12z M65.1,14.5l0.2-1.7l-1.9-0.1l-0.2,1.7
							L65.1,14.5z M64.7,17.2l0.2-1.7l-1.9-0.3l-0.2,1.9L64.7,17.2z M64.4,19.9l0.2-1.6l-1.9-0.3l-0.2,1.9L64.4,19.9z"/>
						<path class="st3" d="M66.4,42.5l-1.6,0.8c-0.2-0.4-0.6-1.1-0.9-1.6c-3.2,0.2-6.1,0.6-8.1,0.7h0l-0.6-1l0.7-1.2
							c0,0,2.2-4,2.2-6.2l2.3,1.2c-0.1,0.1-0.3,0.3-0.5,0.3c0,0-2.3,4-3.1,5.7c1.7-0.1,4.8-0.4,6.8-0.5c-0.6-1-1.1-1.7-1.8-2.5
							l0.5-0.3C63.6,39.4,65.7,41.1,66.4,42.5"/>
						<path class="st3" d="M64.7,25.2l-0.9-0.1c0-0.8,0-1.9-0.2-2.9l0.4-0.1C64.3,23.2,64.7,24.4,64.7,25.2"/>
						<path class="st3" d="M64.4,43.7l-0.1,6.7l-1.1-0.1l0-0.6L57,49.8l-0.9,0.1l-0.3-6.3l7.8-0.3L64.4,43.7z M63,48.6l0-4.1
							l-5.9,0.3l0.2,3.9L63,48.6z"/>
						<path class="st3" d="M63.6,26.8c0,0,0-0.1,0-0.1C63.6,26.8,63.6,26.8,63.6,26.8"/>
						<path class="st3" d="M62.8,22.2c0.3,1.1,0.5,2,0.3,2.9l-0.9,0.3c0.1-0.9,0.2-2.1,0.1-3.2L62.8,22.2z"/>
						<path class="st3" d="M61.8,22.1c0,1.7-0.8,2.5-1.4,3.5l-0.8-1.1c0.8-0.8,1.4-1.2,1.9-2.7L61.8,22.1z"/>
						<path class="st3" d="M55.9,23.7c1,2.2,1.8,3.6,0,4l-0.8,0.1c-0.3,0.1-1,0.2-1.3,0.1c-0.3-0.2-0.7-0.3-1-1.5l-1.2-7.1l-4.1,1.1
							l0.6,2.8c0.2,2,0.5,2.6-1.8,5l-0.8,0.3c1.7-3,1.8-3.1,1.5-5.1l-0.9-3.8l6.7-1.9l1,8.5c0.2,0.9,0.9,0.8,1.3,0.7l0.4-0.1
							c0.2-0.2,0.2-0.5,0.2-0.5c0.1-0.5-0.1-1.6-0.4-2.7L55.9,23.7z"/>
						<path class="st3" d="M55.7,42.4C55.8,42.4,55.7,42.5,55.7,42.4L55.7,42.4z"/>
						<path class="st3" d="M54.9,36.4l-0.8,1.4c-0.7-0.6-1.9-2.1-3.1-2.6l0.5-0.6C52.7,35,54.1,35.8,54.9,36.4"/>
						<path class="st3" d="M54.2,43.8c0.7,0.6,0.3,0.7,0.4,0.7c-0.8,2.1-1.9,3.9-2.6,5.5c0.1,0.1,0.1,0.2,0.1,0.2s0,0.1-0.1,0.2
							l-1.9-1.3C51.1,47.8,53.2,45.8,54.2,43.8"/>
						<path class="st3" d="M54.1,13.1l0.4,1.5l-3.4,0.5l-1.6,3l-0.5,0c0.3-1.1,0.6-1.5,0.6-2.7l-1.9,0.3c-0.4,1-1,2-1.6,2.7
							c-0.2-0.2,0,0-0.4-0.2c1.2-1.5,1.1-6.7,0.9-9.7l2.8,0.6c0,0.1-0.1,0.2-0.3,0.2c-0.1,0.4-0.9,4.7-1,5.2L54.1,13.1z"/>
						<path class="st3" d="M53.1,40.7l-0.8,1.5c-0.7-0.6-2.1-1.8-3.3-2.3l0.5-0.7C50.7,39.6,52.4,40.1,53.1,40.7"/>
						<path class="st3" d="M51.9,24l-1,1.1c-0.7-1-0.9-1.9-2.1-2.9l0.2-0.5C50.2,22.4,51.2,23.3,51.9,24"/>
						<path class="st3" d="M46.1,14.5l0.2,1.5l-3.1,0.5c1.1,2.1,0.8,1.6,1.1,2.1l-0.6,0.4c-0.4-0.5-1.2-1.5-1.8-2.3l-0.7,0.1
							c-0.4,1.1-0.8,2.1-1.3,2.8c-0.3-0.1,0,0-0.4-0.3c0.7-1.7,1.1-5.2,0.4-7.6l2.3,0.3c0,0.1-0.2,0.2-0.3,0.2
							c-0.1,0.4-0.2,3-0.4,3.4L46.1,14.5z"/>
						<path class="st3" d="M46.2,25l-0.1,0.9c-2,1.1-3.6,2.1-4.9,2.8c0,0,0,0,0,0L40.4,27c0.7-0.2,1.6-0.5,2.6-0.8L42.3,22L40,22.7
							l-0.2-1.5l5.8-0.8l0.1,0.7l-2.2,0.6l0.7,4.1C44.7,25.5,45.5,25.3,46.2,25"/>
						<path class="st3" d="M43.7,37.9l0.1,13.2h-1.8l0-1l-6.7,0.2v0.5l-1.6,0l-0.6-13l1,0.1c0.4-0.9,1.2-2.3,1.9-4.6l1.9,1l-0.3,0.2
							l-2.6,3.3l8.2-0.5L43.7,37.9z M42,41.5l0-3l-7.1,0.3l0.1,3L42,41.5z M42,45.4l0-3l-6.9,0.2l0.1,2.9L42,45.4z M42,49.3l0-3
							l-6.8,0.2l0.1,3L42,49.3z"/>
						<g class="st4">
							<defs>
								<rect id="SVGID_9_" x="32.5" y="8" width="55.4" height="42.6"/>
							</defs>
							<clipPath id="SVGID_10_">
								<use xlink:href="#SVGID_9_"  style="overflow:visible;"/>
							</clipPath>
							<g class="st5">
								<defs>
									<rect id="SVGID_11_" x="32.5" y="8" width="55.4" height="42.6"/>
								</defs>
								<clipPath id="SVGID_12_">
									<use xlink:href="#SVGID_11_"  style="overflow:visible;"/>
								</clipPath>
								<path class="st6" d="M87.9,44.1l-3.4,0.4c-0.6-0.5-1.5-1.3-2.4-2.3c-2.5-2.5-5.5-5.8-5.9-6.3c-1.2,1.9-3.3,4.8-5.2,7.2
									c-0.6,0.8-1.3,1.6-1.8,2.2l-1.2,0.1c2.1-2.7,6.4-9.2,7.3-12.2l1.8,1.4c0,0.2,0,0.2-0.2,0.5C78.9,38.2,84.4,41.5,87.9,44.1"
									/>
								<path class="st6" d="M72,47.9c0.9-1.3,3.1-3.9,3.1-3.9l-3.5,0.2l-0.3-0.9l10.7-0.7l0.3,1.1l-5.9,0.3c-0.9,1.2-1.3,2-2.4,3.7
									c2.1-0.2,3.8-0.2,6.1-0.7c0,0-0.4-0.8-1.1-1.7l0.3-0.6c1.5,1.3,3.2,3.3,4,4.5L81.8,50c-0.2-0.3-1-1.9-1.4-2.3
									c-3.3,0.6-5.4,1.4-7.7,1.8c-0.2,0-0.4,0.1-0.5,0.1L72,47.9z"/>
								<polygon class="st6" points="79.5,40.4 79.7,41.5 73,41.9 72.8,40.9 								"/>
								<path class="st7" d="M77.2,14.7l0.7,0.7c0,0.1,0,0.1,0,0.3c-1.2,8.9-2.9,12.5-3.9,13.2c0,0-0.3-0.3-0.7-0.7
									c-0.4-0.4-0.9-0.9-1.2-1.3l-0.2-0.6c0.9,0.5,1.3,0.5,1.7,0.6l0.1-0.2c0.3-0.7,1.8-2.9,2.9-10.6l-6.2-0.8
									c-0.7,1.1-1.4,1.9-2.1,2.6l-0.4-0.3c1.3-1.4,2.5-6,3.1-8.5l2.4,1.4c-0.1,0.1-0.2,0.2-0.4,0.1c-0.3,0.8-1.6,2.8-2,3.6
									L77.2,14.7z"/>
								<path class="st7" d="M73.6,18.6L74,19l-0.8,4.2l0.2,0l-0.1,0.9L69,23.5l0.4-5.4L73.6,18.6z M72.1,23l0.7-3.6l-2.5-0.2
									l-0.2,3.6L72.1,23z"/>
								<path class="st8" d="M72.7,49.6c0.8-0.1-0.6,0.2-0.5,0.1C72.4,49.6,72.5,49.6,72.7,49.6"/>
								<path class="st7" d="M68.4,11.4l-0.1,1.1l-2.5-0.1l-0.2,1.7l2.1,0.1l-0.2,1.3l-2.1-0.3l-0.2,1.7l2.1,0.2l-0.1,1.2L65,17.9
									l-0.2,1.6l2.7,0.2l0,0.2c0,0.1,0,0.4,0,0.5c-0.8,4.6-1.2,6.9-1.7,7.3c0,0-1.9-0.6-2.5-1.1c0,0-0.1-0.2-0.2-0.4
									c0,0,0-0.1,0-0.1c0.6,0.1,1.8,0.1,2,0.1c0,0,0.3-0.5,0.7-2.3l-0.8,0.3c-0.3-0.8-0.3-1.5-0.6-2.7l0.4-0.1
									c0.3,0.7,0.9,1.7,1,2.3h0c0.1-0.8,0.3-1.7,0.5-3l-4.5-0.4l-1-0.1l1.1-9.2L68.4,11.4z M64.5,14l0.2-1.7l-1.9-0.1l-0.2,1.7
									L64.5,14z M64.2,16.7l0.2-1.7l-1.9-0.3l-0.2,1.9L64.2,16.7z M63.9,19.3l0.2-1.6l-1.9-0.3l-0.2,1.9L63.9,19.3z"/>
								<path class="st9" d="M65.8,42l-1.6,0.8c-0.2-0.4-0.6-1.1-0.9-1.6c-3.2,0.2-6.1,0.6-8.1,0.7h0l-0.6-1l0.7-1.2
									c0,0,2.2-4,2.2-6.2l2.3,1.2c-0.1,0.1-0.3,0.3-0.5,0.3c0,0-2.3,4-3.1,5.7c1.7-0.1,4.8-0.4,6.8-0.5c-0.6-1-1.1-1.7-1.8-2.5
									l0.5-0.3C63,38.8,65.1,40.6,65.8,42"/>
								<path class="st7" d="M64.1,24.6l-0.9-0.1c0-0.8,0-1.9-0.2-2.9l0.4-0.1C63.8,22.6,64.1,23.8,64.1,24.6"/>
								<path class="st9" d="M63.8,43.1l-0.1,6.7l-1.1-0.1l0-0.6l-6.1,0.1l-0.9,0.1L55.2,43l7.8-0.3L63.8,43.1z M62.4,48.1l0-4.1
									l-5.9,0.3l0.2,3.9L62.4,48.1z"/>
								<path class="st8" d="M63,26.3c0,0,0-0.1,0-0.1C63,26.2,63,26.2,63,26.3"/>
								<path class="st7" d="M62.2,21.7c0.3,1.1,0.5,2,0.3,2.9l-0.9,0.3c0.1-0.9,0.2-2.1,0.1-3.2L62.2,21.7z"/>
								<path class="st7" d="M61.3,21.5c0,1.7-0.8,2.5-1.4,3.5L59.1,24c0.8-0.8,1.4-1.2,1.9-2.7L61.3,21.5z"/>
								<path class="st10" d="M55.3,23.2c1,2.2,1.8,3.6,0,4l-0.8,0.1c-0.3,0.1-1,0.2-1.3,0.1c-0.3-0.2-0.7-0.3-1-1.5l-1.2-7.1
									l-4.1,1.1l0.6,2.8c0.2,2,0.5,2.6-1.8,5L45.1,28c1.7-3,1.8-3.1,1.5-5.1l-0.9-3.8l6.7-1.9l1,8.5c0.2,0.9,0.9,0.8,1.3,0.7
									l0.4-0.1c0.2-0.2,0.2-0.5,0.2-0.5c0.1-0.5-0.1-1.6-0.4-2.7L55.3,23.2z"/>
								<path class="st11" d="M55.2,41.8C55.2,41.8,55.1,42,55.2,41.8L55.2,41.8z"/>
								<path class="st9" d="M54.3,35.8l-0.8,1.4c-0.7-0.6-1.9-2.1-3.1-2.6l0.5-0.6C52.1,34.4,53.6,35.2,54.3,35.8"/>
								<path class="st9" d="M53.7,43.3c0.7,0.6,0.3,0.7,0.4,0.7c-0.8,2.1-1.9,3.9-2.6,5.5c0.1,0.1,0.1,0.2,0.1,0.2
									c0,0.1,0,0.1-0.1,0.2l-1.9-1.3C50.5,47.3,52.7,45.3,53.7,43.3"/>
								<path class="st10" d="M53.6,12.5l0.4,1.5l-3.4,0.5l-1.6,3l-0.5,0c0.3-1.1,0.6-1.5,0.6-2.7l-1.9,0.3c-0.4,1-1,2-1.6,2.7
									c-0.2-0.2,0,0-0.4-0.2c1.2-1.5,1.1-6.7,0.9-9.7L49,8.6c0,0.1-0.1,0.2-0.3,0.2c-0.1,0.4-0.9,4.7-1,5.2L53.6,12.5z"/>
								<path class="st9" d="M52.6,40.1l-0.8,1.5c-0.7-0.6-2.1-1.8-3.3-2.3l0.5-0.7C50.1,39.1,51.8,39.5,52.6,40.1"/>
								<path class="st10" d="M51.3,23.5l-1,1.1c-0.7-1-0.9-1.9-2.1-2.9l0.2-0.5C49.6,21.8,50.6,22.7,51.3,23.5"/>
								<path class="st10" d="M45.5,13.9l0.2,1.5l-3.1,0.5c1.1,2.1,0.8,1.6,1.1,2.1l-0.6,0.4c-0.4-0.5-1.2-1.5-1.8-2.3l-0.7,0.1
									c-0.4,1.1-0.8,2.1-1.3,2.8c-0.3-0.1,0,0-0.4-0.3c0.7-1.7,1.1-5.2,0.4-7.6l2.3,0.3c0,0.1-0.2,0.2-0.3,0.2
									c-0.1,0.4-0.2,3-0.4,3.4L45.5,13.9z"/>
								<path class="st10" d="M45.6,24.4l-0.1,0.9c-2,1.1-3.6,2.1-4.9,2.8c0,0,0,0,0,0l-0.8-1.8c0.7-0.2,1.6-0.5,2.6-0.8l-0.6-4.1
									l-2.3,0.7l-0.2-1.5l5.8-0.8l0.1,0.7l-2.2,0.6l0.7,4.1C44.2,25,44.9,24.7,45.6,24.4"/>
								<path class="st12" d="M43.1,37.4l0.1,13.2h-1.8l0-1l-6.7,0.2v0.5l-1.6,0l-0.6-13l1,0.1c0.4-0.9,1.2-2.3,1.9-4.6l1.9,1
									l-0.3,0.2l-2.6,3.3l8.2-0.5L43.1,37.4z M41.4,41l0-3l-7.1,0.3l0.1,3L41.4,41z M41.4,44.8l0-3l-6.9,0.2l0.1,2.9L41.4,44.8z
									 M41.4,48.7l0-3l-6.8,0.2l0.1,3L41.4,48.7z"/>
							</g>
						</g>
					</g>
				</g>
			</g>
			<g class="st1">
				<text transform="matrix(1.0969 0 0 1 33.0353 63.7602)" class="st13 st14 st15">創立</text>
			</g>
			<g class="st1">
				<defs>
					<rect id="SVGID_13_" x="0" y="0" width="113.4" height="85"/>
				</defs>
				<clipPath id="SVGID_14_">
					<use xlink:href="#SVGID_13_"  style="overflow:visible;"/>
				</clipPath>
				<path class="st16" d="M37,58.8C37,58.7,37,58.7,37,58.8c-0.1-0.1-0.2,0-0.7,0h-0.5c-0.5,0-0.6,0-0.6,0c-0.1,0-0.1,0-0.1,0.1v0.3
					c0,0.1,0,0.1,0.1,0.1c0,0,0.2,0,0.6,0h0.5c0.5,0,0.6,0,0.6,0c0.1,0,0.1,0,0.1-0.1V58.8z M38.7,61.1c0,0.7,0,1,0,1
					c0,0.1,0,0.1,0.1,0.1h0.4c0.1,0,0.1,0,0.1-0.1c0,0,0-0.3,0-1v-2.2c0-0.6,0-0.7,0-0.8c0,0,0-0.1,0-0.1c0,0,0-0.1-0.1-0.1
					c-0.2,0-0.4,0-0.6,0c0.1,0.3,0.1,0.5,0.1,1.1V61.1z M36.3,57.3C36.4,57.3,36.4,57.3,36.3,57.3c0.1-0.1,0-0.2,0-0.2
					c-0.2,0-0.3-0.1-0.5-0.1c0,0.1-0.1,0.2-0.2,0.4c-0.5,0.7-1.2,1.3-2.2,1.7c0.1,0.1,0.2,0.1,0.2,0.3c0,0.1,0.1,0.1,0.1,0.1
					c0,0,0.1,0,0.1,0c0.8-0.4,1.6-1.1,2.2-1.9c0.6,0.6,1.1,1,1.8,1.4c0.1,0,0.1,0.1,0.1,0.1s0.1,0,0.1-0.1c0.1-0.1,0.1-0.2,0.2-0.3
					C37.4,58.3,36.9,58,36.3,57.3L36.3,57.3z M40.4,63.3c0,0.3-0.1,0.4-0.4,0.4c-0.4,0-0.5,0-0.8,0c0.1,0.1,0.1,0.2,0.2,0.4
					c0,0.2,0.1,0.2,0.2,0.2c0.8,0,1,0,1.2-0.2c0.2-0.1,0.3-0.3,0.3-0.6c0-0.3,0-0.8,0-1.2v-3.9c0-0.5,0-0.6,0-0.7
					c0-0.1,0.1-0.1,0.1-0.2c0,0,0-0.1-0.1-0.1c-0.2,0-0.4,0-0.6,0c0.1,0.3,0.1,0.5,0.1,1V63.3z M37.4,63.6h-2v-0.9h2V63.6z
					 M37.9,62.8c0-0.3,0-0.4,0-0.5c0-0.1,0-0.1-0.1-0.1c-0.1,0-0.3,0-0.9,0h-1c-0.7,0-0.9,0-0.9,0c-0.1,0-0.1,0-0.1,0.1
					c0,0,0,0.2,0,0.6v0.5c0,0.6,0,0.8,0,0.9c0,0,0,0.1,0.1,0.1h0.4c0.1,0,0.1,0,0.1-0.1v-0.3h2v0.2c0,0.1,0,0.1,0.1,0.1h0.4
					c0.1,0,0.1,0,0.1-0.1c0,0,0-0.2,0-0.9V62.8z M37.2,60.5h-2.3V60h2.3V60.5z M37.2,61.4h-2.4c0-0.2,0-0.3,0-0.5h2.4V61.4z
					 M37.7,60.3c0-0.5,0-0.6,0-0.6c0-0.1,0-0.1-0.1-0.1c0,0-0.3,0-1,0h-1.2c-0.7,0-0.9,0-1,0c-0.1,0-0.1,0-0.1,0.1
					c0,0.1,0,0.3,0,0.9c0,0.8-0.1,1.3-0.2,1.7c-0.1,0.5-0.4,0.9-0.8,1.4c0.1,0,0.2,0.1,0.3,0.2c0.1,0.1,0.1,0.1,0.1,0.1
					c0,0,0.1,0,0.1-0.1c0.4-0.5,0.6-0.9,0.7-1.3c0.1-0.2,0.1-0.5,0.2-0.8h1.9c0.7,0,0.9,0,1,0c0.1,0,0.1,0,0.1-0.1c0,0,0-0.2,0-0.6
					V60.3z"/>
				<path class="st16" d="M44,59.9c-0.1,0-0.1,0-0.1,0.1c0.4,0.9,0.6,1.7,0.8,2.8c0,0.1,0,0.1,0.2,0l0.3-0.1c0.1,0,0.1,0,0.1-0.1
					c-0.2-1.1-0.5-2-0.9-2.8c0,0,0,0-0.1,0L44,59.9z M49.6,58.7C49.6,58.7,49.6,58.7,49.6,58.7c-0.1-0.1-0.4,0-1.3,0h-2V58
					c0-0.3,0-0.5,0.1-0.6c0-0.1,0-0.1,0-0.1c0,0,0-0.1-0.1-0.1c-0.2,0-0.3,0-0.6,0c0,0.2,0.1,0.4,0.1,0.8v0.7H44c-0.9,0-1.2,0-1.2,0
					c-0.1,0-0.1,0-0.1,0.1v0.4c0,0.1,0,0.1,0.1,0.1c0.1,0,0.3,0,1.2,0h4.3c0.9,0,1.2,0,1.2,0c0.1,0,0.1,0,0.1-0.1V58.7z M50.1,63.4
					C50.1,63.3,50.1,63.3,50.1,63.4c-0.1-0.1-0.4,0-1.2,0h-1.7c0.5-1,0.8-1.9,1.1-2.9c0.1-0.2,0.1-0.3,0.2-0.4c0,0,0.1-0.1,0.1-0.1
					c0,0,0-0.1-0.1-0.1c-0.2-0.1-0.4-0.1-0.6-0.2c0,0.3-0.1,0.5-0.2,0.8c-0.2,0.8-0.6,1.8-1.1,2.8h-3.1c-0.8,0-1.1,0-1.1,0
					c-0.1,0-0.1,0-0.1,0.1v0.4c0,0.1,0,0.1,0.1,0.1c0,0,0.3,0,1.1,0h5.4c0.8,0,1.1,0,1.1,0c0.1,0,0.1,0,0.1-0.1V63.4z"/>
			</g>
			<g class="st1">
				<text transform="matrix(1.0969 0 0 1 50.5861 63.7602)" class="st17 st14 st15">        </text>
			</g>
			<g class="st1">
				<text transform="matrix(1.0969 0 0 1 70.5939 63.3804)" class="st13 st14 st18">周年</text>
			</g>
			<g class="st1">
				<defs>
					<rect id="SVGID_15_" x="0" y="0" width="113.4" height="85"/>
				</defs>
				<clipPath id="SVGID_16_">
					<use xlink:href="#SVGID_15_"  style="overflow:visible;"/>
				</clipPath>
				<path class="st19" d="M76.4,60.3C76.4,60.3,76.3,60.3,76.4,60.3c-0.1-0.1-0.3,0-1,0h-0.6v-0.7h0.4c0.6,0,0.8,0,0.9,0
					c0.1,0,0.1,0,0.1-0.1v-0.3c0,0,0-0.1-0.1-0.1c0,0-0.2,0-0.9,0h-0.4v-0.1c0-0.2,0-0.3,0-0.4c0,0,0,0,0-0.1c0,0,0-0.1-0.1-0.1
					c-0.1,0-0.3,0-0.5,0c0,0.1,0.1,0.3,0.1,0.6v0.1h-0.3c-0.6,0-0.8,0-0.9,0c-0.1,0-0.1,0-0.1,0.1v0.3c0,0,0,0.1,0.1,0.1
					c0,0,0.2,0,0.9,0h0.3v0.7h-0.5c-0.7,0-0.9,0-1,0c-0.1,0-0.1,0-0.1,0.1v0.3c0,0,0,0.1,0.1,0.1c0,0,0.3,0,1,0h1.6c0.7,0,0.9,0,1,0
					c0.1,0,0.1,0,0.1-0.1V60.3z M75.4,62.4h-1.8v-0.9h1.8V62.4z M75.8,61.7c0-0.3,0-0.4,0-0.5s0,0-0.1,0c0,0-0.2,0-0.8,0H74
					c-0.6,0-0.8,0-0.8,0c-0.1,0-0.1,0-0.1,0s0,0.2,0,0.6v0.3c0,0.8,0,0.9,0,1c0,0,0,0.1,0.1,0.1h0.3c0.1,0,0.1,0,0.1-0.1v-0.3h1.8
					V63c0,0,0,0.1,0.1,0.1h0.3c0.1,0,0.1,0,0.1-0.1c0,0,0-0.2,0-0.9V61.7z M72.9,58c-0.8,0-1,0-1.1,0c-0.1,0-0.1,0-0.1,0.1
					c0,0,0,0.4,0,1.1v1c0,2-0.3,2.7-0.8,3.5c0.1,0,0.2,0.1,0.3,0.2c0.1,0,0.1,0.1,0.1,0.1c0,0,0,0,0.1-0.1c0.5-0.8,0.8-1.6,0.8-3.7
					v-1.7h4.6v4.7c0,0.2-0.1,0.3-0.3,0.3c-0.2,0-0.5,0-0.7,0c0.1,0.1,0.1,0.2,0.1,0.3c0,0.1,0,0.1,0.2,0.1c0.6,0,0.8,0,0.9-0.1
					c0.2-0.1,0.2-0.3,0.2-0.5c0-0.3,0-0.6,0-0.9v-3.2c0-0.7,0-1,0-1.1c0,0,0-0.1-0.1-0.1c0,0-0.3,0-1.1,0H72.9z"/>
				<path class="st19" d="M82.2,61.8h-1.6v-1.3h1.6V61.8z M85.4,61.9C85.4,61.8,85.4,61.8,85.4,61.9c-0.1-0.1-0.3,0-1.1,0h-1.7v-1.3
					h0.9c0.8,0,1,0,1.1,0c0,0,0.1,0,0.1-0.1v-0.3c0,0,0-0.1-0.1-0.1c0,0-0.3,0-1.1,0h-0.9V59h1.3c0.8,0,1,0,1.1,0
					c0.1,0,0.1,0,0.1-0.1v-0.3c0,0,0-0.1-0.1-0.1c0,0-0.3,0-1.1,0h-3.2c0.1-0.1,0.2-0.3,0.3-0.5c0.1-0.1,0.1-0.2,0.2-0.3
					c0,0,0.1-0.1,0.1-0.1s0-0.1-0.1-0.1c-0.1,0-0.3-0.1-0.5-0.1c0,0.1-0.1,0.3-0.2,0.5c-0.3,0.6-0.8,1.2-1.5,1.8
					c0.1,0,0.2,0.1,0.3,0.2c0.1,0.1,0.1,0.1,0.1,0.1c0,0,0.1,0,0.1-0.1c0.4-0.4,0.7-0.7,1-1.1h1.8v1.2h-1c-0.8,0-1,0-1.1,0
					c-0.1,0-0.1,0-0.1,0.1c0,0,0,0.2,0,0.6v1h-0.2c-0.7,0-1,0-1,0c-0.1,0-0.1,0-0.1,0.1v0.3c0,0,0,0.1,0.1,0.1c0,0,0.3,0,1,0h2.3
					v0.5c0,0.8,0,1.1,0,1.2c0,0,0,0,0.1,0h0.4c0,0,0.1,0,0.1,0c0,0,0-0.4,0-1.2v-0.5h1.7c0.7,0,1,0,1,0c0.1,0,0.1,0,0.1-0.1V61.9z"
					/>
			</g>
			<g class="st1">
				<text transform="matrix(1.0969 0 0 1 41.9416 77.7602)" class="st13 st14 st15">記念企画</text>
			</g>
			<g class="st1">
				<defs>
					<rect id="SVGID_17_" x="0" y="0" width="113.4" height="85"/>
				</defs>
				<clipPath id="SVGID_18_">
					<use xlink:href="#SVGID_17_"  style="overflow:visible;"/>
				</clipPath>
				<path class="st20" d="M45.6,74.9C45.6,74.8,45.6,74.8,45.6,74.9c-0.1-0.1-0.3,0-0.8,0H44c-0.6,0-0.7,0-0.8,0
					c-0.1,0-0.1,0-0.1,0.1v0.3c0,0,0,0.1,0.1,0.1c0,0,0.2,0,0.8,0h0.8c0.5,0,0.7,0,0.7,0c0.1,0,0.1,0,0.1-0.1V74.9z M45.6,73.8
					C45.6,73.7,45.6,73.7,45.6,73.8c-0.1-0.1-0.3,0-0.8,0H44c-0.6,0-0.7,0-0.8,0c-0.1,0-0.1,0-0.1,0.1v0.3c0,0.1,0,0.1,0.1,0.1
					c0,0,0.2,0,0.8,0h0.8c0.5,0,0.7,0,0.7,0c0.1,0,0.1,0,0.1-0.1V73.8z M45.7,71.6C45.7,71.5,45.7,71.5,45.7,71.6
					c-0.1-0.1-0.3,0-0.9,0h-0.9c-0.6,0-0.8,0-0.8,0c-0.1,0-0.1,0-0.1,0.1v0.3c0,0.1,0,0.1,0.1,0.1c0,0,0.2,0,0.8,0h0.9
					c0.6,0,0.8,0,0.8,0c0.1,0,0.1,0,0.1-0.1V71.6z M46.1,72.7C46.1,72.6,46.1,72.6,46.1,72.7c-0.1-0.1-0.3,0-1.1,0h-1.4
					c-0.7,0-0.9,0-1,0c-0.1,0-0.1,0-0.1,0.1V73c0,0.1,0,0.1,0.1,0.1c0,0,0.3,0,1,0H45c0.7,0,0.9,0,1,0c0.1,0,0.1,0,0.1-0.1V72.7z
					 M45.1,77.4h-1.5v-1.2h1.5V77.4z M45.6,76.5c0-0.4,0-0.5,0-0.6c0-0.1,0-0.1-0.1-0.1c-0.1,0-0.2,0-0.8,0h-0.8c-0.6,0-0.8,0-0.8,0
					c-0.1,0-0.1,0-0.1,0.1c0,0,0,0.2,0,0.7v0.5c0,1,0,1.1,0,1.2c0,0.1,0,0.1,0.1,0.1h0.4c0.1,0,0.1,0,0.1-0.1v-0.4h1.5v0.3
					c0,0.1,0,0.1,0.1,0.1h0.4c0.1,0,0.1,0,0.1-0.1c0,0,0-0.2,0-1.1V76.5z M46.9,74.6h2.2V75c0,0.1,0,0.1,0.1,0.1h0.4
					c0.1,0,0.1,0,0.1-0.1c0,0,0-0.2,0-0.8v-1.6c0-0.6,0-0.8,0-0.8c0-0.1,0-0.1-0.1-0.1c-0.1,0-0.3,0-1,0h-1.2c-0.7,0-0.9,0-1,0
					c-0.1,0-0.1,0-0.1,0.1v0.4c0,0.1,0,0.1,0.1,0.1c0,0,0.3,0,1,0h1.7v2h-1.8c-0.6,0-0.9,0-0.9,0c-0.1,0-0.1,0-0.1,0.1
					c0,0,0,0.3,0,0.9v2.2c0,0.4,0,0.6,0.2,0.7c0.2,0.1,0.6,0.2,1.4,0.2c1.2,0,1.6-0.1,1.8-0.3c0.2-0.2,0.3-0.4,0.4-1
					c0-0.2,0-0.2-0.2-0.2c-0.1,0-0.3-0.1-0.3-0.2c0,0.6-0.1,0.9-0.2,1c-0.2,0.2-0.5,0.2-1.4,0.2c-0.6,0-1,0-1.1-0.1
					c-0.1-0.1-0.1-0.2-0.1-0.5V74.6z"/>
				<path class="st20" d="M54.6,75.7c-0.1,0.1-0.1,0.1,0,0.1c0.4,0.3,0.7,0.6,1.1,1c0.1,0.1,0.1,0.1,0.2,0l0.2-0.2
					c0.1-0.1,0.1-0.1,0-0.1c-0.3-0.4-0.7-0.6-1.1-0.9c-0.1,0-0.1,0-0.1,0L54.6,75.7z M57.4,76.1c-0.1,0-0.1,0.1-0.1,0.1
					c0.4,0.4,0.7,0.9,1,1.4c0,0,0,0,0.1,0c0,0,0.1,0,0.1,0l0.3-0.1c0.1-0.1,0.1-0.1,0.1-0.1c-0.3-0.5-0.6-0.9-1-1.4c0,0-0.1,0-0.1,0
					L57.4,76.1z M52.3,76c-0.1,0-0.1,0-0.2,0c-0.2,0.6-0.4,1-0.9,1.5c0,0,0,0.1,0,0.1l0.3,0.2c0.1,0,0.1,0,0.1,0c0,0,0,0,0.1,0
					c0.4-0.5,0.7-1,0.9-1.6c0,0,0-0.1-0.1-0.1L52.3,76z M56.6,73C56.6,73,56.6,73,56.6,73c-0.1-0.1-0.3,0-1,0h-1c-0.7,0-0.9,0-0.9,0
					c-0.1,0-0.1,0-0.1,0.1v0.3c0,0.1,0,0.1,0.1,0.1c0.1,0,0.2,0,0.9,0h1c0.7,0,0.9,0,0.9,0c0.1,0,0.1,0,0.1-0.1V73z M54,76.5
					c0-0.2,0-0.4,0-0.4c0,0,0-0.1,0-0.1c0,0,0,0-0.1-0.1c-0.2,0-0.3,0-0.6,0c0,0.2,0,0.4,0,0.6v0.9c0,0.4,0.2,0.6,0.4,0.7
					c0.3,0.1,0.7,0.1,1.3,0.1c0.8,0,1.3,0,1.6-0.2c0.2-0.1,0.4-0.4,0.5-0.9c0-0.1,0-0.2-0.1-0.2c-0.1,0-0.3-0.1-0.4-0.2
					c0,0.4-0.1,0.7-0.3,0.8c-0.2,0.1-0.6,0.2-1.3,0.2c-0.4,0-0.8,0-1-0.1C54,77.6,54,77.5,54,77.2V76.5z M53.8,74
					c-0.9,0-1.2,0-1.2,0c-0.1,0-0.1,0-0.1,0.1v0.3c0,0.1,0,0.1,0.1,0.1c0,0,0.3,0,1.2,0h2.9c-0.3,0.4-0.6,0.7-0.9,1.1
					c-0.1,0.1-0.1,0.1,0.1,0.2c0.1,0.1,0.2,0.1,0.2,0.1c0,0,0.1,0,0.1,0c0.4-0.4,0.7-0.8,1-1.1c0.1-0.1,0.2-0.2,0.3-0.2
					c0.1,0,0.1-0.1,0.1-0.1c0,0,0-0.1-0.2-0.2C57.2,74,57.1,74,57.1,74c0,0-0.1,0-0.1,0c0,0-0.1,0-0.2,0H53.8z M55.5,71.3
					C55.5,71.2,55.5,71.2,55.5,71.3c0.1-0.1,0-0.1,0-0.2c-0.2,0-0.4-0.1-0.6-0.1c-0.1,0.1-0.2,0.3-0.3,0.4c-0.8,0.8-1.9,1.6-3.5,2.1
					c0.1,0.1,0.2,0.2,0.3,0.3c0.1,0.1,0.1,0.2,0.2,0.1c1.5-0.6,2.6-1.3,3.5-2.2c0.9,0.9,2.2,1.7,3.6,2.1c0.1,0,0.1,0,0.1,0
					c0,0,0.1,0,0.1-0.1c0.1-0.1,0.1-0.2,0.2-0.3C57.5,72.9,56.2,72.1,55.5,71.3L55.5,71.3z"/>
				<path class="st20" d="M64.2,71.3C64.3,71.3,64.3,71.3,64.2,71.3c0.1-0.1,0-0.2-0.1-0.2c-0.2,0-0.3-0.1-0.6-0.1
					c0,0.2-0.1,0.3-0.2,0.5c-0.7,1-1.9,2-3.6,2.7c0.1,0.1,0.2,0.2,0.3,0.3c0.1,0.1,0.1,0.1,0.1,0.1c0,0,0.1,0,0.1,0
					c1.4-0.7,2.6-1.5,3.6-2.8c0.9,1.2,2.2,2.1,3.7,2.8c0.1,0,0.1,0,0.1,0c0,0,0.1,0,0.1-0.1c0.1-0.1,0.2-0.2,0.3-0.3
					C66.5,73.6,65.2,72.7,64.2,71.3L64.2,71.3z M67.8,77.6C67.8,77.5,67.7,77.5,67.8,77.6c-0.1-0.1-0.4,0-1.2,0h-2.2v-1.9h1.1
					c0.8,0,1,0,1.1,0c0.1,0,0.1,0,0.1-0.1v-0.3c0-0.1,0-0.1-0.1-0.1c-0.1,0-0.3,0-1.1,0h-1.1v-0.8c0-0.4,0-0.6,0-0.7
					c0-0.1,0.1-0.1,0.1-0.2c0,0,0-0.1-0.1-0.1c-0.2,0-0.4,0-0.6,0c0.1,0.2,0.1,0.5,0.1,1v3.2h-1.6v-1.8c0-0.4,0-0.6,0-0.7
					c0-0.1,0.1-0.1,0.1-0.2c0,0,0-0.1-0.1-0.1c-0.2,0-0.4,0-0.6,0c0.1,0.2,0.1,0.5,0.1,1v1.8h-0.4c-0.8,0-1.1,0-1.1,0
					c-0.1,0-0.1,0-0.1,0.1V78c0,0.1,0,0.1,0.1,0.1c0,0,0.3,0,1.1,0h5.2c0.8,0,1.1,0,1.1,0c0.1,0,0.1,0,0.1-0.1V77.6z"/>
				<path class="st20" d="M75.7,77.4h-6.1V74c0-0.4,0-0.6,0-0.7c0-0.1,0.1-0.1,0.1-0.2c0,0,0-0.1-0.1-0.1c-0.2,0-0.3,0-0.6,0
					c0,0.2,0.1,0.5,0.1,1v2.8c0,1,0,1.5,0,1.5c0,0.1,0,0.1,0.1,0.1h0.4c0.1,0,0.1,0,0.1-0.1v-0.4h6.1v0.4c0,0.1,0,0.1,0.1,0.1h0.4
					c0.1,0,0.1,0,0.1-0.1c0,0,0-0.5,0-1.5V74c0-0.5,0-0.7,0.1-0.7c0,0,0-0.1,0-0.1c0,0,0-0.1-0.1-0.1c-0.1,0-0.3,0-0.6,0
					c0.1,0.2,0.1,0.6,0.1,1V77.4z M72.4,74.6h-1.3v-1.1h1.3V74.6z M74.2,74.6h-1.4v-1.1h1.4V74.6z M72.4,76.2h-1.3v-1.3h1.3V76.2z
					 M74.2,76.2h-1.4v-1.3h1.4V76.2z M76.4,71.6C76.4,71.5,76.4,71.5,76.4,71.6c-0.1-0.1-0.4-0.1-1.2-0.1h-5c-0.8,0-1.1,0-1.2,0
					c-0.1,0-0.1,0-0.1,0.1v0.4c0,0,0,0.1,0.1,0.1c0,0,0.3,0,1.2,0h2.2v1h-0.6c-0.8,0-1.1,0-1.1,0c-0.1,0-0.1,0-0.1,0.1
					c0,0,0,0.3,0,0.9v1.7c0,0.6,0,0.8,0,0.9c0,0.1,0,0.1,0.1,0.1c0.1,0,0.3,0,1.1,0h1.8c0.8,0,1.1,0,1.1,0c0.1,0,0.1,0,0.1-0.1
					c0,0,0-0.3,0-0.9v-1.7c0-0.6,0-0.8,0-0.9c0-0.1,0-0.1-0.1-0.1c-0.1,0-0.3,0-1.1,0h-0.7v-1h2.3c0.8,0,1.1,0,1.2,0
					c0.1,0,0.1,0,0.1-0.1V71.6z"/>
			</g>
			<g class="st1">
				<text transform="matrix(1 0 0 1 52.8913 65.73)" class="st17 st21 st22">70</text>
			</g>
			<g class="st1">
				<defs>
					<rect id="SVGID_19_" x="0" y="0" width="113.4" height="85"/>
				</defs>
				<clipPath id="SVGID_20_">
					<use xlink:href="#SVGID_19_"  style="overflow:visible;"/>
				</clipPath>
				<path class="st23" d="M54.1,59.1c0.1-0.5,0.2-0.9,0.3-1.2c0.1-0.1,0.2-0.3,0.3-0.4c0.1-0.1,0.4-0.2,0.7-0.2h2.7l-0.8,1.6
					c-0.8,1.7-1.3,2.8-1.5,3.4c-0.4,1.1-0.5,2.1-0.4,2.8c0.1,0.5,0.4,0.8,0.9,0.8c0.4,0,0.7-0.3,0.8-0.8c0.1-0.4,0.1-0.8,0-1.4
					c0-0.3-0.1-0.7-0.1-1.3c0-1.2,0.4-2.6,1.1-4.2c0.4-0.8,0.7-1.5,1.1-2.1v-0.5H54l-0.3,3.5H54.1z"/>
				<path class="st23" d="M63.1,65.2c-0.4-0.4-0.7-1.9-0.7-4.5c0-2.5,0.2-4,0.7-4.4c0.2-0.2,0.4-0.3,0.6-0.3c0.2,0,0.4,0.1,0.6,0.3
					c0.4,0.4,0.7,1.9,0.7,4.4c0,2.6-0.2,4.1-0.7,4.5c-0.2,0.2-0.4,0.3-0.6,0.3C63.5,65.5,63.3,65.4,63.1,65.2z M65.1,65.3
					c0.7-0.7,1.1-1.9,1.4-3.6c0.1-0.7,0.1-1.4,0-2.1c-0.2-1.6-0.7-2.8-1.4-3.5c-0.4-0.4-0.9-0.6-1.4-0.6c-0.5,0-1,0.2-1.4,0.6
					c-0.7,0.7-1.1,1.9-1.4,3.5c-0.1,0.7-0.1,1.4,0,2.1c0.2,1.7,0.7,2.9,1.4,3.6c0.4,0.4,0.9,0.7,1.4,0.7
					C64.2,65.9,64.7,65.7,65.1,65.3z"/>
				<g class="st24">
					<defs>
						<rect id="SVGID_21_" x="-15" y="-26.5" width="144.1" height="139.4"/>
					</defs>
					<clipPath id="SVGID_22_">
						<use xlink:href="#SVGID_21_"  style="overflow:visible;"/>
					</clipPath>
					<g class="st25">
						<defs>
							<rect id="SVGID_23_" x="-15" y="-26.5" width="144.1" height="139.4"/>
						</defs>
						<clipPath id="SVGID_24_">
							<use xlink:href="#SVGID_23_"  style="overflow:visible;"/>
						</clipPath>
						<path class="st26" d="M129,39l-0.9,0.1l-27.3,1.5c-0.2-2.6-0.6-5.1-1.3-7.6l26.8-6.2l0.8-0.2C128.1,30.6,128.8,34.7,129,39"/>
						<path class="st27" d="M127.7,51.5l1,0.1c-0.5,4.2-1.4,8.3-2.7,12.3l-0.8-0.3l-26.5-8c0.9-2.4,1.5-4.9,1.8-7.4L127.7,51.5z"/>
						<path class="st27" d="M122.9,14.7l-0.4,0.2l-25.7,11c-1.1-2.2-2.5-4.4-4.1-6.4L116.6,4l0.1,0C119,7.3,121.1,10.9,122.9,14.7"
							/>
						<path class="st26" d="M120.5,75.2l0.5,0.3c-2,3.7-4.3,7.2-6.9,10.4l-0.2-0.1l-23-17.2c1.7-1.9,3.2-3.9,4.5-6L120.5,75.2z"/>
						<path class="st26" d="M108.6-5.5l-21,19.6c-1.8-1.6-3.8-3.1-5.9-4.4l17.4-23.2C102.5-11.1,105.7-8.4,108.6-5.5"/>
						<path class="st27" d="M85.4,73.6l20,21.3c-3.1,2.7-6.4,5.2-10,7.3L79.3,77.5C81.5,76.4,83.5,75,85.4,73.6"/>
						<path class="st27" d="M88.4-19.6l-13.2,26c-2.2-0.9-4.4-1.6-6.8-2.2L77-23.8C80.9-22.7,84.8-21.3,88.4-19.6"/>
						<path class="st26" d="M72.7,80.4l11.7,27.3c-3.8,1.5-7.7,2.7-11.8,3.6l-6.8-29.2C68.2,81.7,70.5,81.1,72.7,80.4"/>
						<path class="st26" d="M65-26.1L61.4,3.3c-1.1-0.1-2.3-0.1-3.4-0.1c-1.2,0-2.4,0.1-3.6,0.1l-1.6-29.6c1.4-0.1,2.8-0.1,4.2-0.1
							C59.7-26.5,62.4-26.3,65-26.1"/>
						<path class="st27" d="M58.8,82.8l1.7,30.1c-1.2,0.1-2.3,0.1-3.5,0.1c-3,0-5.9-0.2-8.8-0.5l3.6-30.1c2,0.3,4.1,0.4,6.2,0.4
							C58.3,82.8,58.6,82.8,58.8,82.8"/>
						<path class="st27" d="M40.8-24.7l6.8,29.1c-2.3,0.5-4.5,1.2-6.6,2.1L29.2-21.1C32.9-22.6,36.8-23.8,40.8-24.7"/>
						<path class="st26" d="M45.1,80.9L36.3,110c-4-1.1-7.8-2.6-11.4-4.4l13.8-27.2C40.7,79.4,42.8,80.3,45.1,80.9"/>
						<path class="st26" d="M18.3-15.6L34.8,9.5c-2,1.2-3.9,2.6-5.7,4.1L8.5-8.3C11.5-11,14.8-13.5,18.3-15.6"/>
						<path class="st27" d="M32.6,75L14.2,99.3c-3.4-2.4-6.5-5.1-9.4-8l22.3-20.8C28.8,72.1,30.6,73.6,32.6,75"/>
						<path class="st27" d="M-0.1,0.6l24.2,18.1c-1.5,1.8-2.9,3.8-4,5.8l-27-13.6C-4.9,7.2-2.6,3.8-0.1,0.6"/>
						<path class="st26" d="M22.5,65.2L-3.1,81.8c-2.4-3.4-4.4-7-6.1-10.8l0,0l28-11.9C19.9,61.2,21.1,63.2,22.5,65.2"/>
						<path class="st26" d="M-11.8,22.3l29,8.8c-0.8,2.2-1.3,4.6-1.6,7l-30-3.6l-0.2,0C-14,30.2-13.1,26.2-11.8,22.3"/>
						<path class="st27" d="M16.4,52.3L-13,59.2l-0.2,0.1c-1-4-1.6-8.1-1.8-12.3l0.2,0l30.1-1.6C15.5,47.6,15.8,50,16.4,52.3"/>
					</g>
				</g>
			</g>
		</g>
	</g>
</g>
</svg>
