<?xml version="1.0" encoding="utf-8"?>
<!-- Generator: Adobe Illustrator 22.0.0, SVG Export Plug-In . SVG Version: 6.00 Build 0)  -->
<svg version="1.1" id="レイヤー_1" xmlns="http://www.w3.org/2000/svg" xmlns:xlink="http://www.w3.org/1999/xlink" x="0px"
	 y="0px" viewBox="0 0 113.4 85" style="enable-background:new 0 0 113.4 85;" xml:space="preserve">
<style type="text/css">
	.st0{fill:#E73828;}
	.st1{fill:#FFF000;}
	.st2{fill:#FFFFFF;}
	.st3{fill:#E73828;stroke:#FFFFFF;stroke-width:0.6736;stroke-miterlimit:10;}
	.st4{fill:#060001;}
	.st5{fill:none;stroke:#FFFFFF;stroke-width:0.6736;stroke-miterlimit:10;}
	.st6{fill:none;stroke:#E73828;stroke-width:0.8981;stroke-miterlimit:10;}
	.st7{fill:none;stroke:#E73828;stroke-width:0.6736;stroke-miterlimit:10;}
	.st8{fill:none;stroke:#E73828;stroke-width:0.6736;stroke-linecap:square;stroke-miterlimit:10;}
	.st9{fill:#FFFFFF;stroke:#E73828;stroke-width:0.6736;stroke-miterlimit:10;}
</style>
<rect class="st0" width="113.4" height="85"/>
<g>
	<g>
		<path class="st1" d="M-131.2,122.9l3.8,2.3l0,6.4l-14.8,4l0-15.7l12.4-3.3l0,2.3l-8.9,2.4l0,3.7L-131.2,122.9z M-130.9,126.9
			l-2-1.2l-5.8,1.6l0,5l7.9-2.1L-130.9,126.9z"/>
	</g>
	<g>
		<path class="st1" d="M-111.8,117.7l3.8,2.3l0,6.4l-14.8,4l0-15.7l12.4-3.3l0,2.3l-8.9,2.4l0,3.7L-111.8,117.7z M-111.4,121.7
			l-2-1.2l-5.8,1.6l0,5l7.9-2.1L-111.4,121.7z"/>
	</g>
	<g>
		<path class="st1" d="M-97.4,121.2l3.1-0.8l0,2.3l-6.6,1.8l0-9.2l-2.4,0.7l0-2.3l2.4-0.7c0-1,0-3.1,0-4.1l3.5-0.9l0,4.1l3-0.8
			l0,2.3l-3,0.8L-97.4,121.2z"/>
	</g>
	<g>
		<path class="st1" d="M-78.3,118.4l0-7.3l-2.1-1.3l-5.7,1.5l0,9.2l-3.5,0.9l0-15.6l3.5-0.9l0,4.2l7.4-2l4,2.3l0,8.1L-78.3,118.4z"
			/>
	</g>
</g>
<g>
	<g>
		<path class="st0" d="M56.9,31.2c0,0,23.1,6.6,23.5,0c0.7-11.4-23.7,0-23.7,0"/>
		<circle class="st2" cx="56.7" cy="42.7" r="21.8"/>
		<g>
			<path class="st0" d="M50.2,34.6l1.9,2.5l-1,4.8h-9.6L44,30.1h8l-0.4,1.7h-5.8l-0.6,2.8H50.2z M49.7,37.6l-1-1.3h-3.8l-0.8,3.8
				h5.1L49.7,37.6z"/>
		</g>
		<path class="st3" d="M68.3,7.1c-6.1-1-11.1,4.7-11.8,4.7s-5.6-5.7-11.8-4.7c-6.5,1-7.6,10-10.1,19.9l22.1,2.2l11.8-3.5
			c0,0,9.2-1.4,8.9-2.8C75.5,14.7,73.9,8,68.3,7.1z"/>
		<g>
			<path class="st0" d="M56.7,27.5v3.7c0,0,24.4-11.3,23.7,0c-0.1,1.6-1.6,2.5-3.8,2.8c0.5,1,0.8,2.1,1.1,3.3
				c7.6,0.9,14.4-0.4,14.4-7.9C92.1,12.1,56.7,27.5,56.7,27.5z"/>
		</g>
		<path class="st0" d="M56.7,27.5c0,0-35.4-15.3-35.4,1.8s35.4,1.8,35.4,1.8"/>
		<path class="st0" d="M21.4,27.1c2.1,16.6,35.3,0.4,35.3,0.4"/>
		<path class="st4" d="M56.7,23.3"/>
		<g>
			<path class="st5" d="M35.7,21.4c-7.6-0.9-14.4,0.4-14.4,7.9c0,17.2,35.4,1.8,35.4,1.8"/>
			<path class="st5" d="M35.7,21.4"/>
			<path class="st5" d="M56.7,27.5"/>
			<path class="st5" d="M56.7,31.1c0,0,35.4,15.3,35.4-1.8s-35.4-1.8-35.4-1.8"/>
			<path class="st5" d="M56.7,27.5c0,0-32.8,16-35.3-0.1"/>
			<path class="st5" d="M56.7,23.3"/>
			<path class="st5" d="M56.9,31.2c0,0,23.1,6.6,23.5,0c0.7-11.4-23.7,0-23.7,0"/>
		</g>
		<path class="st5" d="M44.8,7.1c-6.5,1-7.6,10-10.1,19.9"/>
		<g>
			<path class="st0" d="M69.9,34.6l1.9,2.5l-1,4.8h-9.6l2.5-11.8h8l-0.4,1.7h-5.8l-0.6,2.8H69.9z M69.5,37.6l-1-1.3h-3.8l-0.8,3.8
				H69L69.5,37.6z"/>
		</g>
		<path class="st6" d="M71,26.3c4.6,4,7.5,9.9,7.5,16.5c0,12-9.8,21.8-21.8,21.8s-21.8-9.8-21.8-21.8c0-2.5,0.4-4.8,1.2-7"/>
		<path class="st5" d="M73.2,26.2c-1.1,0.1-2.4,0.3-3.6,0.6"/>
		<g>
			<g>
				<path class="st1" d="M40.6,43.8c-1,0.3-1.6,2.8-1.5,3.9c0.3,2.8,3.5,8.1,5.5,9.9c0.5,0.4,1-2.1,0.9-2.2
					c-1.3-1.3-4.3-5.8-3.3-6.5c1-0.8,3.3,1.7,4.1,2.8l1.5-2.3C44.3,47.9,40.6,43.8,40.6,43.8z"/>
			</g>
			<g>
				<path class="st1" d="M47.9,49.6c-3.9,4-1.4,9.3-1.4,9.3l5.3,2.4c0.4-0.3,2.5-3.6,2.5-5.8c0-1.3,1.2,5.1,2.2,6.6l2.6-0.1
					c0-0.3,2.3-6.7,2-7.2c-0.1-0.2,0.7,0.7,1,0.2c0-0.1,0.6-1.2,0.6-1.2s1.5-1.1,1.7-0.6c0.6,2.4-1.4,7.2-1.1,7.7
					c0.5,0.7,2.1-0.8,2.6-1.1c0.4-0.2,0.4-7.4,0.9-7.6c0.5-0.1,0.9-0.5,1.3-0.4c0,0-0.2,1.2,0.3,2.3c0.4,1.2,1.5,2.4,1.8,2.1
					c1.8-1.3,3.6-6,4-7.6c0.6-2-1.3-4.3-1.4-4.1c-4.4,5.2-13,6.8-13,6.7c0-0.6-1.9,8.1-2,8c-0.8-1-1.9-7.8-1.9-7.8
					C53.8,51.4,47.9,49.6,47.9,49.6z"/>
			</g>
			<g>
				<g>
					<path class="st7" d="M56.7,51.4c-7.5,0-14.1-3.9-17.8-9.9c-0.1,0.8-0.2,1.7-0.2,2.6c0,9.9,8,18,18,18s18-8,18-18
						c0-0.8-0.1-1.7-0.2-2.5C70.8,47.5,64.2,51.4,56.7,51.4z"/>
				</g>
				<path class="st7" d="M44.8,57.4c0,0,1.3-2.5,0.7-2.2c-0.4,0.2-4.5-5.6-3.1-6.5c0.7-0.4,3.6,2.2,4,3.1"/>
				<path class="st7" d="M47.7,49.6c0,0-1.1,1.6-1.3,2.2c-0.3,0.9-0.7,2.7-0.7,3.6c0,0.9,1,3.6,1,3.6"/>
				<path class="st7" d="M49.5,60.5c0,0,5.2-4.2,2.2-9.8"/>
				<path class="st8" d="M51.8,61.2c1.9-1.7,2.2-4,2.5-5.8c0.2-1.9,0.6,4.5,2.1,6.3"/>
				<path class="st7" d="M55.7,51.4c0,2.1,1,5.4,1.7,7.6c0.6,2,0.9-6.1,2.2-7.8"/>
				<path class="st7" d="M61.5,50.8c0,4.1-2.5,11.1-2.5,11.1"/>
				<path class="st7" d="M63,60.9c0,0,1.8-5.7,1.3-7.7c-0.1-0.6-1.6,0.2-1.8,0.4C62.1,54,62.3,55,61.7,55c-0.3,0-0.5-0.8-0.5-1.1"/>
				<path class="st7" d="M65.4,59.8c0.9-1.9,0.5-6.6,1.2-7.7c0.2-0.4,1.2-0.4,1.2-0.4"/>
				<path class="st8" d="M74,48.5c0-1-0.1-3.7-1.4-4.1"/>
				<path class="st7" d="M68.2,48c-0.4,2-1,7.1,1.8,8.1"/>
				
					<ellipse transform="matrix(0.2192 -0.9757 0.9757 0.2192 -15.2302 90.7748)" class="st9" cx="49.1" cy="54.9" rx="2.6" ry="1.1"/>
				<path class="st7" d="M39.2,48.2c0-1.1,0.2-4,1.4-4.4"/>
				<path class="st9" d="M71.9,47c-0.5,0.7-1.1,1.3-2.1,1.7c-0.3,0.1,0,0.8,0.3,0.9c0.8,0.3,1.9-0.9,2.1-1.7
					C72.3,47.7,72.1,46.9,71.9,47z"/>
				<path class="st9" d="M73.9,48.8c0,0-2.7,3.2-4.1,2.6c-0.2-0.1,0.1,1.8,0.3,1.8C70.9,53.5,73.9,48.8,73.9,48.8z"/>
			</g>
		</g>
	</g>
	<g>
		<path class="st2" d="M28.1,72.8l1.7,1.7v3.5h-6.5v-8.5h5.4v1.2h-4.1v2H28.1z M28.6,75.1l-1-1h-3v2.7h4V75.1z"/>
		<path class="st2" d="M35.5,72.8l1.7,1.7v3.5h-6.5v-8.5h5.4v1.2h-4.1v2H35.5z M36,75.1l-1-1h-3v2.7h4V75.1z"/>
		<path class="st2" d="M40.5,76.8h1.5v1.2h-2.7v-5h-1.1v-1.2h1.1l0-2.2l1.2,0l0,2.2h1.4v1.2h-1.4V76.8z"/>
		<path class="st2" d="M47,73.1h-3v5h-1.2v-8.5h1.2v2.2h3.5l1.8,1.8v4.5h-1.2v-3.9L47,73.1z"/>
		<path class="st2" d="M54,78.1v-6.7l1.8-1.8h4.1v1.2h-3.6l-1,1v4.9l4.6,0v1.2L54,78.1z"/>
		<path class="st2" d="M67.2,76.3l-1.8,1.8h-4.7v-6.6l1.8-1.9h4.8V76.3z M66,70.9h-3L62,72v4.9h3l1-1V70.9z"/>
		<path class="st2" d="M69.4,78.1h-1.2v-8.5H69l4.7,6.5v-6.5h1.2v8.5h-1.4l-4.2-5.8V78.1z"/>
		<path class="st2" d="M75.8,69.6h7.5v1.2h-3.1v7.2h-1.2v-7.2h-3.1V69.6z"/>
		<path class="st2" d="M90.1,76.8v1.2h-5.9v-8.5h5.9v1.2h-4.6v2.2h3.4v1.2h-3.4v2.5H90.1z"/>
	</g>
</g>
</svg>
