<?xml version="1.0" encoding="utf-8"?>
<!-- Generator: Adobe Illustrator 22.0.0, SVG Export Plug-In . SVG Version: 6.00 Build 0)  -->
<svg version="1.1" id="レイヤー_1" xmlns="http://www.w3.org/2000/svg" xmlns:xlink="http://www.w3.org/1999/xlink" x="0px"
	 y="0px" viewBox="0 0 113.4 85" style="enable-background:new 0 0 113.4 85;" xml:space="preserve">
<style type="text/css">
	.st0{fill:#352824;}
	.st1{fill:none;stroke:#FFFFFF;stroke-width:0.4393;stroke-linecap:round;stroke-miterlimit:10;}
	.st2{fill:#FFFFFF;}
	.st3{fill:none;stroke:#FFFFFF;stroke-width:0.4257;stroke-miterlimit:10;}
</style>
<g>
	<rect x="0" y="0" class="st0" width="113.4" height="85"/>
	<g>
		<line class="st1" x1="40.7" y1="39.3" x2="79.2" y2="39.3"/>
		<g>
			<path class="st2" d="M42.8,12.8c0.9-0.7,2-1,3.3-1c0.7,0,1.6,0.1,2.1,0.3c0.1,0,0.2,0.1,0.3,0c0,0.3,0.1,1,0.2,1.8
				c-0.1,0.1-0.2,0.1-0.3,0c-0.2-0.8-0.7-1.8-2.5-1.8c-1.9,0-3.4,1.2-3.4,3.7c0,2.5,1.6,4,3.6,4c1.6,0,2.3-1,2.5-1.7
				c0.1-0.1,0.3,0,0.3,0c-0.1,0.6-0.4,1.4-0.6,1.7c-0.1,0-0.3,0.1-0.4,0.1c-0.3,0.1-1.1,0.3-1.9,0.3c-1.1,0-2.1-0.2-3-0.8
				c-1-0.7-1.7-1.8-1.7-3.3C41.2,14.7,41.9,13.5,42.8,12.8z"/>
			<path class="st2" d="M54,17.5c0.2-0.1,0.2-0.2,0.2-0.4l0-0.6c0-0.4-0.1-1.1-0.9-1.1c-0.3,0-0.8,0.2-0.8,0.5c0,0.2,0,0.3-0.1,0.4
				c-0.2,0.1-0.5,0.2-0.7,0.2c-0.1,0-0.2-0.1-0.2-0.2c0-0.6,1.4-1.5,2.3-1.5c0.9,0,1.3,0.5,1.3,1.4L55,18.6c0,0.6,0.1,1.1,0.6,1.1
				c0.1,0,0.2,0,0.3-0.1c0.1,0,0.1-0.1,0.2-0.1c0,0,0.1,0.1,0.1,0.2c0,0.1-0.4,0.5-1,0.5c-0.3,0-0.6-0.1-0.8-0.4
				c0-0.1-0.1-0.2-0.2-0.2c-0.1,0-0.2,0.1-0.5,0.2c-0.3,0.1-0.5,0.3-0.9,0.3c-0.4,0-0.6-0.1-0.8-0.3c-0.2-0.2-0.4-0.5-0.4-0.8
				c0-0.5,0.2-0.8,1-1L54,17.5z M53.2,19.6c0.2,0,0.6-0.2,0.7-0.3c0.1-0.1,0.1-0.3,0.2-0.6l0-0.7c0-0.1,0-0.2-0.1-0.2
				c-0.1,0-0.3,0-0.5,0.1c-0.7,0.2-1.1,0.4-1.1,0.9C52.4,19.1,52.6,19.6,53.2,19.6z"/>
			<path class="st2" d="M60.3,15.7c-0.2,0-0.2,0-0.2,0.4v2.6c0,0.9,0,1,0.5,1.1l0.4,0c0.1,0.1,0.1,0.3,0,0.3c-0.5,0-0.9,0-1.3,0
				c-0.4,0-0.8,0-1.2,0c-0.1,0-0.1-0.2,0-0.3l0.3,0c0.4-0.1,0.5-0.2,0.5-1.1v-2.6c0-0.3,0-0.4-0.2-0.4h-0.4c-0.1,0-0.1-0.2,0-0.2
				l0.5-0.3c0.1,0,0.2-0.1,0.2-0.2c0-0.7,0.1-1.5,0.4-2.1c0.3-0.7,1-1.5,2.2-1.5c0.6,0,1.2,0.3,1.2,0.7c0,0.2-0.2,0.4-0.5,0.4
				c-0.1,0-0.2,0-0.3-0.1c-0.2-0.3-0.6-0.5-1-0.5c-0.4,0-0.7,0.2-0.9,0.7c-0.2,0.6-0.3,1.4-0.3,2v0.4c0,0.3,0,0.3,0.2,0.3h1.4
				c0.1,0.1,0,0.5-0.1,0.5H60.3z"/>
			<path class="st2" d="M64.9,16.9c-0.3,0-0.3,0-0.3,0.3c0,1.2,0.7,2.3,2,2.3c0.4,0,0.7-0.1,1.1-0.6c0.1,0,0.2,0,0.2,0.1
				c-0.4,0.8-1.3,1.1-1.9,1.1c-0.8,0-1.4-0.3-1.8-0.8c-0.4-0.5-0.5-1-0.5-1.6c0-1.5,1-2.7,2.4-2.7c1,0,1.7,0.7,1.7,1.4
				c0,0.2,0,0.3,0,0.3c0,0.1-0.2,0.1-0.7,0.1H64.9z M65.7,16.5c0.9,0,1.2,0,1.3-0.1c0,0,0.1-0.1,0.1-0.2c0-0.3-0.2-0.8-0.9-0.8
				c-0.7,0-1.3,0.7-1.3,1.1c0,0,0,0.1,0.1,0.1H65.7z"/>
		</g>
		<g>
			<path class="st2" d="M48.8,31.1c0,0.4,0,1.8,0,2.1c0,0.1-0.1,0.1-0.2,0.1c-0.1-0.2-0.5-0.6-1.6-1.8l-2.8-3.2
				c-0.3-0.4-1.2-1.4-1.4-1.6h0c0,0.1-0.1,0.4-0.1,0.8v2.6c0,0.6,0,2.1,0.2,2.5c0.1,0.1,0.3,0.2,0.6,0.2l0.4,0
				c0.1,0.1,0.1,0.2,0,0.3c-0.5,0-1,0-1.4,0c-0.5,0-0.8,0-1.3,0c-0.1-0.1-0.1-0.2,0-0.3l0.3,0c0.3,0,0.5-0.1,0.5-0.2
				c0.2-0.4,0.2-1.9,0.2-2.5v-3.5c0-0.3,0-0.6-0.3-0.9c-0.2-0.2-0.5-0.3-0.8-0.3l-0.2,0c-0.1-0.1-0.1-0.3,0-0.3c0.5,0,1.2,0,1.4,0
				c0.2,0,0.4,0,0.6,0c0.2,0.6,1.7,2.2,2.1,2.7l1.2,1.3c0.8,0.9,1.4,1.6,2,2.2h0c0-0.1,0-0.3,0-0.5v-2.6c0-0.6,0-2.1-0.2-2.5
				c-0.1-0.1-0.3-0.2-0.8-0.2l-0.2,0c-0.1-0.1-0.1-0.3,0-0.3c0.6,0,1,0,1.4,0c0.5,0,0.8,0,1.2,0c0.1,0.1,0.1,0.2,0,0.3l-0.2,0
				c-0.4,0.1-0.6,0.2-0.7,0.3c-0.2,0.4-0.2,1.9-0.2,2.5V31.1z"/>
			<path class="st2" d="M53.6,31.3c0,0.8,0.2,1.4,1.1,1.4c0.3,0,0.7-0.1,1-0.4c0.2-0.1,0.2-0.3,0.2-0.7v-2c0-0.8-0.1-0.8-0.4-1
				l-0.2-0.1c-0.1,0-0.1-0.2,0-0.3c0.5,0,1.2-0.1,1.4-0.2c0.1,0,0.1,0,0.1,0.1c0,0.2,0,0.6,0,1.1v2c0,1,0,1.3,0.4,1.3
				c0.1,0,0.3,0,0.5-0.1c0.1,0.1,0.1,0.3,0,0.4c-0.5,0.1-1.2,0.2-1.6,0.4c-0.1,0-0.1,0-0.1-0.1v-0.5c0-0.1,0-0.2-0.1-0.2
				c-0.4,0.2-1,0.6-1.7,0.6c-1.1,0-1.5-0.5-1.5-1.5v-2c0-0.8,0-0.9-0.4-1l-0.1-0.1c-0.1-0.1-0.1-0.2,0-0.3c0.6,0,1-0.1,1.3-0.2
				c0.1,0,0.1,0,0.1,0.1c0,0.2,0,0.5,0,1.1V31.3z"/>
			<path class="st2" d="M62.7,30.6c0.2-0.1,0.2-0.2,0.2-0.4l0-0.6c0-0.4-0.1-1.1-0.9-1.1c-0.3,0-0.8,0.2-0.8,0.5
				c0,0.2,0,0.3-0.1,0.4c-0.2,0.1-0.5,0.2-0.7,0.2c-0.1,0-0.2-0.1-0.2-0.2c0-0.6,1.4-1.5,2.3-1.5c0.9,0,1.3,0.5,1.3,1.4l-0.1,2.1
				c0,0.6,0.1,1.1,0.6,1.1c0.1,0,0.2,0,0.3-0.1c0.1,0,0.1-0.1,0.2-0.1c0,0,0.1,0.1,0.1,0.2c0,0.1-0.4,0.5-1,0.5
				c-0.3,0-0.6-0.1-0.8-0.4c0-0.1-0.1-0.2-0.2-0.2c-0.1,0-0.2,0.1-0.5,0.2c-0.3,0.1-0.5,0.3-0.9,0.3c-0.4,0-0.6-0.1-0.8-0.3
				c-0.2-0.2-0.4-0.5-0.4-0.8c0-0.5,0.2-0.8,1-1L62.7,30.6z M62,32.8c0.2,0,0.6-0.2,0.7-0.3c0.1-0.1,0.1-0.3,0.2-0.6l0-0.7
				c0-0.1,0-0.2-0.1-0.2c-0.1,0-0.3,0-0.5,0.1c-0.7,0.2-1.1,0.4-1.1,0.9C61.2,32.2,61.3,32.8,62,32.8z"/>
			<path class="st2" d="M72.2,28.6c0.1,0.1,0.1,0.5-0.1,0.5h-0.9c0,0.2,0,0.4,0,0.6c0,0.8-0.5,1.9-2,1.9c-0.2,0-0.4,0-0.5,0
				c-0.1,0.1-0.5,0.3-0.5,0.7c0,0.3,0.3,0.5,0.8,0.5c0.4,0,0.9,0,1.4,0c0.7,0,1.7,0.1,1.7,1.3c0,1.3-1.4,2.3-3,2.3
				c-1.5,0-2-0.8-2-1.4c0-0.2,0-0.4,0.1-0.4c0.2-0.2,0.5-0.5,0.8-0.8c0.1-0.1,0.2-0.2,0.1-0.3c-0.5-0.1-0.9-0.5-0.9-1
				c0-0.1,0-0.1,0.2-0.2c0.2-0.1,0.4-0.3,0.6-0.6c0.1-0.1,0.1-0.2,0.1-0.2c-0.4-0.2-0.9-0.7-0.9-1.5c0-1,0.9-1.8,2-1.8
				c0.5,0,0.9,0.1,1.2,0.2c0.4,0.2,0.5,0.2,0.7,0.2H72.2z M69.6,33.5c-0.4,0-0.9,0-1,0.1c-0.3,0.2-0.6,0.6-0.6,1
				c0,0.7,0.5,1.2,1.6,1.2c1.1,0,1.8-0.6,1.8-1.3c0-0.7-0.5-1.1-1.4-1.1H69.6z M70.4,30c0-0.8-0.3-1.5-1.1-1.5c-0.6,0-1,0.5-1,1.4
				c0,0.9,0.5,1.4,1.1,1.4C70.1,31.3,70.4,30.8,70.4,30z"/>
			<path class="st2" d="M75.6,30c-0.3,0-0.3,0-0.3,0.3c0,1.2,0.7,2.3,2,2.3c0.4,0,0.7-0.1,1.1-0.6c0.1,0,0.2,0,0.2,0.1
				c-0.4,0.8-1.3,1.1-1.9,1.1c-0.8,0-1.4-0.3-1.8-0.8c-0.4-0.5-0.5-1-0.5-1.6c0-1.5,1-2.7,2.4-2.7c1,0,1.7,0.7,1.7,1.4
				c0,0.2,0,0.3,0,0.3c0,0.1-0.2,0.1-0.7,0.1H75.6z M76.3,29.7c0.9,0,1.2,0,1.3-0.1c0,0,0.1-0.1,0.1-0.2c0-0.3-0.2-0.8-0.9-0.8
				c-0.7,0-1.3,0.7-1.3,1.1c0,0,0,0.1,0.1,0.1H76.3z"/>
		</g>
		<g>
			<path class="st2" d="M34.4,12.9c-0.4,0-0.5,0-0.5,0.2l0,0.1c0,0-0.1,0-0.1,0c0-0.2,0-0.4,0-0.5c0-0.2,0-0.3,0-0.5
				c0,0,0.1,0,0.1,0l0,0.1c0,0.2,0.1,0.2,0.5,0.2h1.7c0.1,0,0.1,0,0.1-0.1v-0.2c0-0.2,0-0.4-0.1-0.5c-0.1-0.1-0.2-0.1-0.3-0.2
				c0,0,0-0.1,0-0.1c0.2,0.1,0.4,0.1,0.6,0.1c0,0,0,0.1,0,0.1c-0.1,0-0.1,0.2-0.1,0.3v1.6c0,0.2,0,0.2,0.1,0.3c0,0,0,0.1,0,0.1
				c-0.2,0-0.5-0.1-0.6-0.1c0,0,0-0.1,0-0.1c0.1,0,0.2,0,0.3-0.1c0.1-0.1,0.1-0.2,0.1-0.4V13c0-0.1,0-0.1-0.1-0.1H34.4z"/>
			<path class="st2" d="M33.8,15.6c0-0.3,0.1-0.5,0.1-0.6c0.1,0,0.4-0.1,0.5-0.1c0,0,0,0.1,0,0.1c-0.2,0.1-0.6,0.2-0.6,0.7
				c0,0.3,0.2,0.5,0.4,0.5c0.2,0,0.4,0,0.5-0.3l0.2-0.4c0.1-0.2,0.3-0.4,0.7-0.4c0.4,0,0.7,0.3,0.7,0.8c0,0.1,0,0.3,0,0.4
				c0,0.1,0,0.1,0,0.1c-0.1,0-0.3,0.1-0.5,0.1c0,0,0-0.1,0-0.1c0.2,0,0.4-0.2,0.4-0.5c0-0.4-0.3-0.5-0.4-0.5c-0.2,0-0.4,0.2-0.5,0.3
				L35.2,16c-0.2,0.2-0.4,0.5-0.7,0.5C34,16.4,33.8,16.1,33.8,15.6z"/>
			<path class="st2" d="M35.4,19.8c0.2,0,0.7,0,0.8-0.1c0,0,0.1-0.1,0.1-0.2l0-0.1c0,0,0.1,0,0.1,0c0,0.1,0,0.3,0,0.4
				c0,0.2,0,0.3,0,0.4c0,0-0.1,0-0.1,0l0-0.1c0-0.1,0-0.2-0.1-0.2c-0.1-0.1-0.6-0.1-0.8-0.1H35c-0.3,0-0.7-0.1-0.9-0.3
				c-0.2-0.2-0.3-0.5-0.3-0.7c0-0.3,0-0.5,0.2-0.7c0.2-0.2,0.5-0.3,0.9-0.3h0.9c0.4,0,0.5,0,0.5-0.2l0-0.1c0,0,0.1,0,0.1,0
				c0,0.2,0,0.3,0,0.5c0,0.2,0,0.3,0,0.5c0,0-0.1,0-0.1,0l0-0.1c0-0.2-0.1-0.2-0.5-0.2H35c-0.6,0-1,0.2-1,0.8c0,0.6,0.4,0.8,1,0.8
				H35.4z"/>
			<path class="st2" d="M35.8,21.6c0.4,0,0.5,0,0.5-0.2l0-0.1c0,0,0.1,0,0.1,0c0,0.2,0,0.3,0,0.5c0,0.2,0,0.3,0,0.4c0,0-0.1,0-0.1,0
				l0-0.1c0-0.2-0.1-0.2-0.5-0.2h-0.4c-0.1,0-0.1,0-0.1,0.1c0,0,0,0.1,0,0.1c0,0.1,0.1,0.2,0.2,0.2l0.4,0.4c0.1,0.1,0.3,0.3,0.3,0.3
				c0,0,0,0,0.1,0s0,0,0-0.1l0-0.1c0,0,0.1,0,0.1,0c0,0.1,0,0.3,0,0.4s0,0.3,0,0.4c0,0-0.1,0-0.1,0c0-0.1,0-0.3-0.1-0.4
				c-0.1-0.1-0.2-0.3-0.4-0.5l-0.3-0.3c-0.1-0.1-0.1-0.1-0.1-0.1c0,0-0.1,0-0.1,0.1c-0.4,0.4-0.8,0.7-1.1,1
				c-0.1,0.1-0.1,0.2-0.2,0.3l0,0.1c0,0-0.1,0-0.1,0c0-0.1,0-0.3,0-0.4c0-0.2,0-0.3,0-0.5c0,0,0.1,0,0.1,0l0,0.1c0,0.1,0,0.1,0,0.1
				c0,0,0.1,0,0.1-0.1c0.1-0.1,0.2-0.2,0.4-0.3l0.3-0.3c0.2-0.2,0.3-0.3,0.3-0.4c0-0.1-0.1-0.1-0.2-0.1h-0.5c-0.4,0-0.5,0-0.5,0.2
				l0,0.1c0,0-0.1,0-0.1,0c0-0.2,0-0.3,0-0.5c0-0.2,0-0.3,0-0.4c0,0,0.1,0,0.1,0l0,0.1c0,0.2,0.1,0.2,0.5,0.2H35.8z"/>
			<path class="st2" d="M35.4,26.8c0.2,0,0.7,0,0.8-0.1c0,0,0.1-0.1,0.1-0.2l0-0.1c0,0,0.1,0,0.1,0c0,0.1,0,0.3,0,0.4
				c0,0.2,0,0.3,0,0.4c0,0-0.1,0-0.1,0l0-0.1c0-0.1,0-0.2-0.1-0.2C36.1,27,35.6,27,35.4,27H35c-0.3,0-0.7-0.1-0.9-0.3
				c-0.2-0.2-0.3-0.5-0.3-0.7c0-0.3,0-0.5,0.2-0.7c0.2-0.2,0.5-0.3,0.9-0.3h0.9c0.4,0,0.5,0,0.5-0.2l0-0.1c0,0,0.1,0,0.1,0
				c0,0.2,0,0.3,0,0.5c0,0.2,0,0.3,0,0.5c0,0-0.1,0-0.1,0l0-0.1c0-0.2-0.1-0.2-0.5-0.2H35c-0.6,0-1,0.2-1,0.8c0,0.6,0.4,0.8,1,0.8
				H35.4z"/>
			<path class="st2" d="M35.8,28.6c0.4,0,0.5,0,0.5-0.2l0-0.1c0,0,0.1,0,0.1,0c0,0.2,0,0.3,0,0.5c0,0.2,0,0.3,0,0.4c0,0-0.1,0-0.1,0
				l0-0.1c0-0.2-0.1-0.2-0.5-0.2h-0.4c-0.1,0-0.1,0-0.1,0.1c0,0,0,0.1,0,0.1c0,0.1,0.1,0.2,0.2,0.2l0.4,0.4c0.1,0.1,0.3,0.3,0.3,0.3
				c0,0,0,0,0.1,0s0,0,0-0.1l0-0.1c0,0,0.1,0,0.1,0c0,0.1,0,0.3,0,0.4s0,0.3,0,0.4c0,0-0.1,0-0.1,0c0-0.1,0-0.3-0.1-0.4
				c-0.1-0.1-0.2-0.3-0.4-0.5l-0.3-0.3c-0.1-0.1-0.1-0.1-0.1-0.1c0,0-0.1,0-0.1,0.1c-0.4,0.4-0.8,0.7-1.1,1
				c-0.1,0.1-0.1,0.2-0.2,0.3l0,0.1c0,0-0.1,0-0.1,0c0-0.1,0-0.3,0-0.4c0-0.2,0-0.3,0-0.5c0,0,0.1,0,0.1,0l0,0.1c0,0.1,0,0.1,0,0.1
				c0,0,0.1,0,0.1-0.1c0.1-0.1,0.2-0.2,0.4-0.3l0.3-0.3c0.2-0.2,0.3-0.3,0.3-0.4c0-0.1-0.1-0.1-0.2-0.1h-0.5c-0.4,0-0.5,0-0.5,0.2
				l0,0.1c0,0-0.1,0-0.1,0c0-0.2,0-0.3,0-0.5c0-0.2,0-0.3,0-0.4c0,0,0.1,0,0.1,0l0,0.1c0,0.2,0.1,0.2,0.5,0.2H35.8z"/>
			<path class="st2" d="M35.1,31.7c0.8,0,1.4,0.6,1.4,1.4c0,0.9-0.6,1.3-1.3,1.3c-0.8,0-1.3-0.6-1.3-1.3
				C33.8,32.2,34.4,31.7,35.1,31.7z M35,34c0.6,0,1.3-0.3,1.3-1c0-0.4-0.3-0.9-1.1-0.9c-0.6,0-1.3,0.3-1.3,1
				C33.9,33.6,34.2,34,35,34z"/>
			<path class="st2" d="M34.8,36.9c-0.2,0.1-0.4,0.2-0.5,0.3v0c0.2,0.1,0.4,0.2,0.6,0.3l0.7,0.4c0.4,0.2,0.6,0.3,0.7,0.3
				c0,0.1,0,0.2,0,0.3c0,0.1,0,0.2,0,0.3c0,0-0.1,0-0.1,0l0-0.1c0-0.2-0.1-0.3-0.4-0.3c-0.4,0-1.1,0-1.7,0c-0.2,0-0.3,0-0.3,0.2
				l0,0.1c0,0-0.1,0-0.1,0c0-0.2,0-0.3,0-0.5c0-0.1,0-0.3,0-0.5c0,0,0.1,0,0.1,0l0,0.1c0,0.2,0.1,0.2,0.3,0.2l1.6,0v0
				c0,0-0.4-0.2-0.5-0.3l-0.7-0.3c-0.3-0.2-0.7-0.3-0.9-0.4c0,0,0,0,0,0c0,0,0,0,0,0c0.2-0.1,0.6-0.3,0.8-0.3l0.7-0.3
				c0.2-0.1,0.4-0.2,0.6-0.2v0c-0.2,0-0.5,0-0.7,0c-0.2,0-0.6,0-0.9,0c-0.3,0-0.3,0-0.4,0.2l0,0.1c0,0-0.1,0-0.1,0
				c0-0.1,0-0.3,0-0.4c0-0.1,0-0.3,0-0.4c0,0,0.1,0,0.1,0l0,0.1c0,0.2,0,0.2,0.3,0.2c0.3,0,0.5,0,0.8,0.1c0.3,0,0.6,0,0.9,0
				c0.2,0,0.3,0,0.3-0.3l0-0.1c0,0,0.1,0,0.1,0c0,0.1,0,0.2,0,0.3c0,0.1,0,0.2,0,0.3c-0.2,0-0.4,0.1-0.6,0.2L34.8,36.9z"/>
			<path class="st2" d="M34.7,41.2c0.1,0,0.1,0,0.1-0.2v-0.6c0-0.1,0-0.1-0.1-0.1l-0.4-0.1c-0.2-0.1-0.3-0.1-0.3-0.1
				c0,0-0.1,0-0.1,0.1l0,0.1c0,0-0.1,0-0.1,0c0-0.1,0-0.2,0-0.4c0-0.1,0-0.3,0-0.4c0,0,0.1,0,0.1,0l0,0.1c0,0.1,0,0.2,0.2,0.2
				c0.2,0.1,0.4,0.2,0.9,0.3l1,0.4c0.1,0.1,0.2,0.1,0.3,0.1c0,0.1,0.1,0.2,0.1,0.2c0,0,0,0.1,0,0.1c-0.2,0-0.3,0.1-0.5,0.2l-1.6,0.5
				c-0.3,0.1-0.4,0.2-0.4,0.3l0,0.1c0,0-0.1,0-0.1,0c0-0.2,0-0.3,0-0.5c0-0.2,0-0.3,0-0.4c0,0,0.1,0,0.1,0l0,0.1
				c0,0.1,0,0.1,0.1,0.1c0,0,0.1,0,0.2-0.1L34.7,41.2z M35.1,40.5C35,40.4,35,40.4,35.1,40.5L35,41c0,0.1,0,0.1,0.1,0.1l0.6-0.2
				c0.1,0,0.2-0.1,0.2-0.1v0c0,0-0.1-0.1-0.2-0.1L35.1,40.5z"/>
			<path class="st2" d="M35.3,45.4c-0.1,0-0.1,0-0.1,0.1v0.3c0,0.2,0,0.3,0,0.3c0,0,0,0.1,0.1,0.1l0.2,0c0,0,0,0.1,0,0.1
				c-0.1,0-0.2,0-0.4,0c-0.1,0-0.3,0-0.4,0c0,0,0-0.1,0-0.1l0.2,0c0.1,0,0.1,0,0.1-0.1c0-0.1,0-0.2,0-0.3v-0.3c0-0.1,0-0.1-0.1-0.1
				h-0.5c-0.4,0-0.5,0-0.5,0.2l0,0.1c0,0-0.1,0-0.1,0c0-0.2,0-0.4,0-0.5c0-0.2,0-0.3,0-0.5c0,0,0.1,0,0.1,0l0,0.1
				c0,0.2,0.1,0.2,0.5,0.2h1.4c0.4,0,0.5,0,0.5-0.2l0-0.1c0,0,0.1,0,0.1,0c0,0.2,0,0.3,0,0.4v0.7c0,0.2,0,0.5,0,0.5
				c-0.2,0-0.4,0-0.5,0c0,0,0-0.1,0-0.1c0.2,0,0.3-0.1,0.4-0.3c0-0.1,0-0.2,0-0.4v-0.2c0-0.1,0-0.1-0.2-0.1H35.3z"/>
			<path class="st2" d="M34.8,47.9c0-0.1,0-0.1-0.1-0.1c-0.4,0-0.7,0.2-0.7,0.6c0,0.1,0,0.2,0.2,0.4c0,0,0,0.1,0,0.1
				c-0.3-0.1-0.4-0.4-0.4-0.6c0-0.3,0.1-0.4,0.3-0.6c0.2-0.1,0.3-0.2,0.5-0.2c0.5,0,0.9,0.3,0.9,0.8c0,0.3-0.2,0.5-0.5,0.5
				c-0.1,0-0.1,0-0.1,0c0,0,0-0.1,0-0.2V47.9z M34.9,48.2c0,0.3,0,0.4,0,0.4c0,0,0,0,0.1,0c0.1,0,0.2-0.1,0.2-0.3
				c0-0.2-0.2-0.4-0.3-0.4c0,0,0,0,0,0V48.2z"/>
			<path class="st2" d="M35.3,50.8c-0.1,0-0.2,0.1-0.3,0.1c0,0,0-0.1,0-0.1c0.2-0.1,0.3-0.2,0.3-0.3c0-0.2-0.1-0.2-0.2-0.2
				c-0.2,0-0.2,0.2-0.3,0.3c-0.1,0.2-0.2,0.4-0.5,0.4c-0.3,0-0.4-0.3-0.4-0.6c0-0.2,0-0.3,0.1-0.4c0.1,0,0.3-0.1,0.4,0
				c0,0,0,0.1,0,0.1c-0.2,0.1-0.4,0.2-0.4,0.4c0,0.1,0.1,0.3,0.2,0.3c0.2,0,0.3-0.2,0.4-0.3c0.1-0.2,0.3-0.4,0.5-0.4
				c0.3,0,0.4,0.2,0.4,0.5C35.4,50.6,35.3,50.8,35.3,50.8z"/>
			<path class="st2" d="M35.2,52.4C35.2,52.4,35.2,52.4,35.2,52.4l-0.8-0.1c-0.2,0-0.4,0-0.4,0.3c0,0,0,0.1,0,0.1
				c0,0,0.1,0.1,0.1,0.1c0,0,0,0-0.1,0c-0.1-0.1-0.2-0.2-0.2-0.4c0-0.3,0.2-0.4,0.4-0.4h0.9c0.1,0,0.1,0,0.1-0.1v-0.1
				c0,0,0.1,0,0.1,0c0,0.1,0.1,0.2,0.1,0.2c0,0.1,0.2,0.1,0.2,0.2c0,0,0,0.1,0,0.1h-0.2c-0.1,0-0.1,0-0.1,0.1v0.4c0,0-0.1,0-0.2,0
				V52.4z"/>
			<path class="st2" d="M34.9,54.1c0.2,0,0.2,0,0.2-0.1l0,0c0,0,0.1,0,0.1,0c0,0.1,0.1,0.3,0.2,0.4c0,0,0,0,0,0c-0.1,0-0.3,0-0.5,0
				h-0.7c-0.3,0-0.3,0-0.3,0.1l0,0.1c0,0-0.1,0-0.1,0c0-0.1,0-0.2,0-0.4c0-0.1,0-0.3,0-0.4c0,0,0.1,0,0.1,0l0,0.1
				c0,0.1,0.1,0.1,0.3,0.1H34.9z M36,54.4c-0.1,0-0.2-0.1-0.2-0.2c0-0.1,0.1-0.2,0.2-0.2c0.1,0,0.2,0.1,0.2,0.2
				C36.2,54.3,36.1,54.4,36,54.4z"/>
			<path class="st2" d="M35,55.8c0.1-0.1,0.3-0.1,0.3-0.2l0-0.1c0,0,0.1,0,0.1,0c0,0.1,0,0.2,0,0.4c0,0.1,0,0.2,0,0.3
				c0,0-0.1,0-0.1,0l0,0c0-0.1,0-0.1-0.2-0.1c-0.3,0.1-0.5,0.2-0.7,0.3c-0.1,0-0.1,0-0.1,0.1c0,0,0.1,0,0.1,0.1l0.6,0.2
				c0.1,0.1,0.2,0.1,0.2,0.1c0,0,0.1,0,0.1-0.1l0-0.1c0,0,0.1,0,0.1,0c0,0.1,0,0.2,0,0.3c0,0.1,0,0.2,0,0.3c0,0-0.1,0-0.1,0l0-0.1
				c0-0.1-0.1-0.2-0.3-0.3c-0.1-0.1-0.7-0.3-0.8-0.4c-0.1,0-0.2-0.1-0.3-0.1c0,0,0,0,0,0c0,0,0,0,0-0.1c0.1,0,0.3-0.1,0.4-0.1
				L35,55.8z"/>
			<path class="st2" d="M34.6,58.8c0,0.1,0.1,0.1,0.1,0.1l0.2,0c0.1,0,0.3,0,0.3-0.3c0-0.1-0.1-0.2-0.2-0.2c-0.1,0-0.1,0-0.1,0
				c0-0.1-0.1-0.2-0.1-0.2c0,0,0-0.1,0.1-0.1c0.2,0,0.5,0.4,0.5,0.7c0,0.3-0.2,0.4-0.5,0.4l-0.7,0c-0.2,0-0.3,0-0.3,0.2
				c0,0,0,0.1,0,0.1c0,0,0,0,0,0c0,0,0,0,0,0c0,0-0.2-0.1-0.2-0.3c0-0.1,0-0.2,0.1-0.3c0,0,0.1,0,0.1-0.1c0,0,0-0.1-0.1-0.2
				c0-0.1-0.1-0.2-0.1-0.3c0-0.1,0-0.2,0.1-0.3c0.1-0.1,0.2-0.1,0.3-0.1c0.2,0,0.2,0.1,0.3,0.3L34.6,58.8z M33.9,58.6
				c0,0.1,0.1,0.2,0.1,0.2c0,0,0.1,0,0.2,0l0.2,0c0,0,0.1,0,0.1,0c0,0,0-0.1,0-0.2c-0.1-0.2-0.1-0.3-0.3-0.3
				C34.1,58.4,33.9,58.4,33.9,58.6z"/>
			<path class="st2" d="M34.2,60.9c-0.3,0-0.3,0-0.3,0.1l0,0.1c0,0-0.1,0-0.1,0c0-0.1,0-0.2,0-0.4c0-0.1,0-0.3,0-0.4
				c0,0,0.1,0,0.1,0l0,0.1c0,0.1,0.1,0.1,0.3,0.1H36c0.2,0,0.3,0,0.3-0.1l0,0c0,0,0.1,0,0.1,0c0,0.1,0.1,0.3,0.2,0.4c0,0,0,0,0,0
				c-0.1,0-0.3,0-0.5,0H34.2z"/>
			<path class="st2" d="M34.1,64.9c0,0.2,0,0.3,0.1,0.4c0.1,0.1,0.1,0.1,0.2,0.1c0,0,0,0.1,0,0.1c-0.2,0-0.4-0.1-0.5-0.2
				c0-0.2,0-0.3,0-0.5v-0.6c0-0.2,0-0.3,0-0.4c0,0,0,0,0.1,0c0,0,0,0,0,0c0.1,0.2,0.2,0.3,0.6,0.6c0.3,0.3,0.6,0.6,1.1,0.6
				c0.4,0,0.6-0.2,0.6-0.5c0-0.2-0.2-0.4-0.4-0.5c0,0,0-0.1,0.1-0.1c0.3,0.1,0.5,0.4,0.5,0.8c0,0.4-0.3,0.6-0.6,0.6
				c-0.2,0-0.5-0.1-0.8-0.4l-0.3-0.2c-0.4-0.3-0.4-0.4-0.4-0.4c0,0,0,0,0,0.1V64.9z"/>
			<path class="st2" d="M35,68.2c-0.6,0-1.3-0.2-1.3-0.8s0.7-0.8,1.3-0.8c0.6,0,1.3,0.2,1.3,0.8S35.6,68.2,35,68.2z M35,66.9
				c-0.4,0-1.1,0-1.1,0.5s0.8,0.5,1.1,0.5c0.4,0,1.1,0,1.1-0.5S35.4,66.9,35,66.9z"/>
			<path class="st2" d="M35.6,70c0.3,0,0.3,0,0.4-0.2l0-0.2c0,0,0.1,0,0.1,0c0.1,0.3,0.2,0.5,0.2,0.6c0,0,0,0,0,0
				c-0.1,0-0.3,0-0.5,0h-1.5c-0.3,0-0.4,0-0.4,0.2l0,0.2c0,0-0.1,0-0.1,0c0-0.2,0-0.3,0-0.5c0-0.1,0-0.3,0-0.5c0,0,0.1,0,0.1,0
				l0,0.2c0,0.2,0.1,0.2,0.4,0.2H35.6z"/>
			<path class="st2" d="M36,72.4c0-0.2,0-0.3-0.2-0.4c0,0,0-0.1,0-0.1c0.1,0,0.3,0.1,0.4,0.1c0,0.1,0,0.2,0,0.4v0.7
				c0,0.2,0,0.5,0,0.5c0,0,0,0,0,0c-0.2-0.1-0.4-0.2-0.7-0.4l-2-1c0-0.1,0-0.1,0.1-0.1l2.2,1.1c0.1,0.1,0.1,0,0.1-0.1V72.4z"/>
		</g>
		<circle class="st3" cx="56" cy="59.8" r="15.3"/>
		<g>
			<path class="st2" d="M58.5,64.4c2-0.7,3.5-1.9,4.3-3.3c0-0.1,0-0.2-0.1-0.3c-0.6-1.8-3.2-2.7-6-1.8c-2.7,0.8-4.5,3-4,4.8
				c0.1,0.2,0.2,0.5,0.3,0.7C54.5,65.1,56.5,65.1,58.5,64.4z"/>
		</g>
		<g>
			<g>
				<g>
					<path class="st2" d="M61.3,68c0,0-0.2,0.2-0.7,0.5c-0.5,0.3-1.3,0.7-2.5,0.8c-0.9,0.1-1.9-0.1-2.8-0.5c-0.9-0.4-1.8-1-2.4-1.7
						c-0.6-0.7-1.1-1.3-1.4-1.8c-0.3-0.5-0.4-0.8-0.4-0.8s0.1,0.3,0.4,0.8c0.3,0.5,0.8,1.1,1.4,1.8c0.7,0.6,1.5,1.2,2.4,1.5
						c0.9,0.4,1.9,0.5,2.7,0.4c1.1-0.1,1.9-0.4,2.4-0.6C61.1,68.1,61.3,68,61.3,68z"/>
				</g>
			</g>
		</g>
		<g>
			<g>
				<g>
					<path class="st2" d="M63.5,66.9c0,0,0.1,0.1,0.2,0.3c0.1,0.2,0.1,0.7,0,1.1c-0.3,0.9-1.3,1.9-2.7,2.4c-1.4,0.5-2.8,0.3-3.6-0.1
						c-0.4-0.2-0.7-0.5-0.8-0.8c0-0.3,0.1-0.4,0.1-0.4c0,0-0.1,0.1,0,0.4c0.1,0.2,0.4,0.5,0.8,0.6c0.8,0.3,2.2,0.4,3.5-0.1
						c1.3-0.5,2.3-1.4,2.7-2.2C63.9,67.4,63.4,66.9,63.5,66.9z"/>
				</g>
			</g>
		</g>
		<g>
			<path class="st2" d="M61.6,56c-1.6-0.5-3.2-0.4-4.8,0c-1.6,0.4-3,1.1-4.2,2.2c-1.2,1-2.2,2.5-2,4.2c0.1,0.8,0.6,1.5,1.2,2
				c0.6,0.5,1.4,0.8,2.2,1c1.6,0.3,3.2,0.1,4.7-0.4c1.5-0.5,2.9-1.4,4-2.6c1-1.2,1.5-2.9,0.7-4.3c-0.4-0.7-1.1-1.2-1.8-1.5
				c-0.7-0.3-1.5-0.5-2.4-0.5l0,0c1.6-0.1,3.4,0.4,4.4,1.8c0.5,0.7,0.7,1.6,0.5,2.5C64,61.2,63.5,62,63,62.6
				c-1.1,1.3-2.6,2.2-4.2,2.7c-1.6,0.5-3.3,0.6-4.9,0.2c-0.8-0.2-1.6-0.5-2.2-1.1c-0.6-0.5-1.1-1.3-1.2-2.1c-0.1-0.8,0-1.7,0.4-2.4
				c0.4-0.8,0.9-1.4,1.5-2c1.2-1.1,2.8-1.9,4.4-2.2C58.3,55.3,60,55.3,61.6,56L61.6,56z"/>
		</g>
		<g>
			<g>
				<g>
					<g>
						<path class="st2" d="M62.3,67.4c0,0,0.1-0.1,0.3-0.4c0.2-0.3,0.6-0.7,0.9-1.3c0.6-0.9,1-2.3,1-3.4c0-0.6,0-1.1-0.1-1.4
							c-0.1-0.3-0.1-0.6-0.1-0.6s0.1,0.2,0.2,0.6c0.1,0.4,0.2,0.9,0.2,1.4c0,1.2-0.3,2.6-0.9,3.5c-0.4,0.6-0.8,1-1.1,1.3
							C62.4,67.3,62.3,67.4,62.3,67.4z"/>
					</g>
				</g>
			</g>
		</g>
		<g>
			<g>
				<g>
					<g>
						<path class="st2" d="M66.4,61.9c0,0,0.2-0.2,0.3-0.5c0.2-0.3,0.3-0.9-0.1-1.3c-0.4-0.3-1-0.3-1.3-0.1
							c-0.3,0.2-0.5,0.4-0.5,0.3c0,0,0.1-0.2,0.4-0.5c0.3-0.2,1-0.4,1.6,0c0.3,0.2,0.4,0.6,0.3,0.9c0,0.3-0.2,0.5-0.3,0.7
							C66.6,61.7,66.4,61.9,66.4,61.9z"/>
					</g>
				</g>
			</g>
			<g>
				<g>
					<g>
						<path class="st2" d="M66.3,65.2c0.1-0.1,0.2-0.3,0.1-0.4c-0.1-0.1-0.2,0.1-0.3,0.1c-0.3,0.4-0.9,0.1-1-0.2
							c-0.2-0.3-0.1-0.7,0-1c0.2-0.6,0.5-0.9,0.7-1.2c0.4-0.5,0.4-0.5,0.4-0.5s0,0-0.5,0.4c-0.2,0.2-0.5,0.5-0.8,1.2
							c-0.1,0.3-0.2,0.7,0,1.2c0.1,0.2,0.3,0.5,0.6,0.6C65.7,65.5,66.1,65.4,66.3,65.2z"/>
					</g>
				</g>
			</g>
			<g>
				<g>
					<g>
						<path class="st2" d="M65.9,64.8c0,0-0.1,0.2-0.4,0.1c-0.2-0.1-0.4-0.3-0.3-0.6c0-0.2,0.1-0.3,0.1-0.3c0,0,0,0.1,0,0.3
							c0,0.2,0.2,0.3,0.3,0.3C65.8,64.7,65.9,64.8,65.9,64.8z"/>
					</g>
				</g>
			</g>
		</g>
		<g>
			<path class="st0" d="M57.7,53.9c0-1.4-1.2-2.6-2.6-2.6c-0.2,0-0.4,0-0.6,0.1c-0.4-0.8-1.3-1.4-2.3-1.4c-1.2,0-2.1,0.8-2.5,1.8
				c-0.3-0.1-0.7-0.2-1-0.2c-1.4,0-2.6,1.2-2.6,2.6c0,1.3,0.9,2.4,2.2,2.5c0.5,0.5,1.2,0.9,1.9,0.9c0.3,0,0.7-0.1,1-0.2
				c0.5,0.6,1.2,1,2,1c1.2,0,2.2-0.8,2.5-1.9C56.8,56.1,57.7,55.1,57.7,53.9z"/>
			<path class="st2" d="M55.1,56.5c1.4,0,2.6-1.2,2.6-2.6c0-1.4-1.2-2.6-2.6-2.6c-0.2,0-0.4,0-0.6,0.1c-0.4-0.8-1.3-1.4-2.3-1.4
				c-1.4,0-2.6,1.2-2.6,2.6c0,0.4,0.1,0.9,0.3,1.2c-0.3-0.4-0.4-0.9-0.4-1.4c0-0.2,0-0.4,0.1-0.6c-0.3-0.1-0.6-0.2-0.9-0.2
				c-1.4,0-2.6,1.2-2.6,2.6c0,1.2,0.8,2.2,2,2.5c-0.3-0.4-0.5-1-0.5-1.5c0,0,0,0,0-0.1c0,1.4,1.2,2.5,2.6,2.5c0.8,0,1.5-0.3,2-0.9
				c-0.2,0.3-0.6,0.6-0.9,0.8c0.5,0.6,1.4,0.9,2.2,0.8c1.1-0.1,1.9-0.9,2.2-1.8C55.5,56.5,55.3,56.6,55.1,56.5
				c-1,0.1-1.9-0.5-2.3-1.4c0,0,0,0,0,0C53.2,55.9,54.1,56.5,55.1,56.5z"/>
		</g>
		<g>
			<g>
				<g>
					<path class="st2" d="M66,12.6c0,0,0.1,0,0.2,0.1c0.1,0.1,0.2,0.3,0.1,0.6c-0.1,0.4-0.5,0.8-1,0.8c-0.4,0-0.6-0.2-0.6-0.2
						c0,0,0.3,0,0.6-0.1c0.3-0.1,0.4-0.4,0.5-0.7C65.8,12.8,66,12.6,66,12.6z"/>
				</g>
			</g>
		</g>
	</g>
</g>
</svg>
