<?xml version="1.0" encoding="utf-8"?>
<!-- Generator: Adobe Illustrator 22.0.0, SVG Export Plug-In . SVG Version: 6.00 Build 0)  -->
<svg version="1.1" id="レイヤー_1" xmlns="http://www.w3.org/2000/svg" xmlns:xlink="http://www.w3.org/1999/xlink" x="0px"
	 y="0px" viewBox="0 0 113.4 85" style="enable-background:new 0 0 113.4 85;" xml:space="preserve">
<style type="text/css">
	.st0{fill:#CD294E;}
</style>
<g>
	<g>
		<polygon class="st0" points="31,23.2 24.2,18.6 29.7,13.7 		"/>
		<polygon class="st0" points="42,22.4 45.8,19.3 47.7,25.3 		"/>
		<polygon class="st0" points="59.3,22.7 55.1,14.9 61.6,14.2 		"/>
		<polygon class="st0" points="70.1,25 71.7,19.6 75.4,21.6 		"/>
		<polygon class="st0" points="87.2,21.4 87.2,14.3 93.8,18.9 		"/>
	</g>
	<g>
		<g>
			<g>
				<path class="st0" d="M48.6,38C48.5,38,48.5,38,48.6,38c0,0.2-0.1,0.3-0.2,0.4c0,0,0,0.1,0,0.1c-0.1,0.1-0.2,0.1-0.3,0.2
					c0,0.1-0.1,0.1-0.2,0.2c-0.1,0.1-0.3,0.2-0.4,0.3c-0.1,0.1-0.2,0.2-0.3,0.3c-0.1,0.1-0.2,0.2-0.3,0.3c0,0-0.1,0-0.1,0
					c-0.1,0.1-0.2,0.2-0.3,0.3c-0.2,0.1-0.3,0.3-0.5,0.3c0,0,0,0.1-0.1,0.1c-0.1,0.1-0.2,0.2-0.3,0.3c-0.1,0-0.2,0.2-0.3,0.3
					C45.1,41,45,41,44.9,41.1c-0.1,0-0.1,0.1-0.2,0.2c0,0-0.1,0-0.1,0c0,0-0.1,0-0.1,0c0,0.2-0.2,0.3-0.3,0.3
					c-0.1,0-0.1,0.1-0.2,0.2c-0.1,0.1-0.2,0.2-0.3,0.2c0,0,0,0,0,0c-0.3,0.3-0.6,0.5-0.9,0.8c-0.1,0-0.1,0-0.2,0.1
					c-0.2,0.1-0.3,0.2-0.4,0.4c0,0-0.1,0.1-0.1,0.1c-0.1,0.1-0.2,0.2-0.3,0.3c0,0-0.1,0-0.2-0.1c-0.1-0.1-0.2-0.3-0.2-0.4
					c-0.1-0.2-0.1-0.4-0.2-0.6c-0.1-0.1-0.2-0.3-0.2-0.4c-0.2-0.2-0.3-0.4-0.2-0.6c0,0-0.1,0-0.1,0c0-0.3-0.3-0.4-0.7-0.5
					c0,0-0.1,0-0.1,0c-0.2,0-0.4-0.1-0.6-0.1c-0.2,0-0.4,0-0.6,0c-0.1,0-0.2,0-0.3,0c-0.2,0-0.4-0.1-0.6-0.1c-0.1,0-0.3,0-0.4,0
					c-0.2,0-0.4,0-0.6,0c-0.2,0-0.4,0-0.5,0c-0.1,0-0.2,0-0.2-0.1c0,0-0.1,0-0.1,0c-0.2,0-0.3,0-0.5,0c-0.2,0-0.3,0-0.5,0
					c-0.2,0-0.4,0-0.6,0c-0.1,0-0.2,0-0.3,0c-0.1,0-0.2-0.2-0.3,0c0,0-0.1-0.1-0.1-0.1c0,0,0,0,0,0.1c-0.3,0-0.6,0-0.9,0
					c0,0,0,0,0,0.1c0,0,0-0.1,0-0.1c-0.1,0-0.2,0-0.3,0c-0.2,0-0.4-0.1-0.6-0.1c0,0,0,0,0,0c-0.1,0-0.2,0.1-0.3,0.1
					c-0.1,0-0.3-0.1-0.4-0.1c-0.3,0-0.7,0-1,0c-0.4,0-0.7-0.1-1.1-0.1c-0.3,0-0.6,0-1,0c-0.1,0-0.1-0.1-0.2-0.1c-0.3,0-0.6,0-0.9,0
					c-0.2,0-0.4-0.1-0.7-0.1c0,0,0,0,0,0c-0.9,0-1.8-0.1-2.7-0.1c0,0,0,0,0,0c-0.5,0.1-1,0-1.6,0c-0.1-0.1-0.1-0.1-0.2,0
					c-0.1,0-0.1-0.1-0.2-0.1c0,0,0,0.1,0,0.1c-0.3,0-0.5,0-0.8,0c0,0-0.1,0-0.1,0c0,0-0.1-0.1-0.1,0c-0.2,0.1-0.4,0-0.5,0
					c-0.2,0-0.4,0.1-0.6,0.1c-0.1,0-0.2,0-0.3-0.1c0,0,0,0-0.1,0.1c0,0-0.1-0.1-0.1-0.1c-0.2,0-0.4,0-0.6,0c-0.1,0-0.2,0-0.4,0
					c-0.1,0-0.1-0.1-0.2-0.1c-0.1,0-0.1,0.1-0.2,0.1c-0.1-0.1-0.3-0.1-0.4,0c0,0-0.1-0.1-0.1-0.1c0,0-0.1,0-0.1,0
					c-0.1-0.1-0.2-0.2-0.4-0.3c0,0,0,0,0,0c0,0,0-0.1,0-0.1c-0.2,0.1-0.2-0.1-0.3-0.1c-0.1-0.1-0.3-0.2-0.4-0.2
					c-0.2,0-0.1-0.2-0.2-0.2c-0.1-0.1-0.2-0.1-0.2-0.3c0-0.1,0.1-0.2,0.1-0.4c0-0.1,0.1-0.1,0.1-0.3c0,0,0-0.1,0-0.1
					c0-0.1,0.1-0.2,0.1-0.3c0-0.3,0-0.5,0.1-0.8c0-0.1,0-0.3,0.2-0.3c0,0,0-0.1,0-0.2c0.1-0.3,0.1-0.6,0.2-0.9
					c0-0.1-0.1-0.3,0.1-0.3c0-0.2,0-0.4,0.1-0.6c0.1-0.2,0.1-0.4,0.1-0.6c0.1-0.2,0-0.3,0.2-0.5c0,0,0-0.1,0-0.2
					c0,0,0.1-0.1,0.1-0.1c-0.1-0.1-0.1-0.2,0-0.2c0,0,0.2-0.1,0-0.2c0.1-0.1,0.1-0.1,0.2-0.2c0-0.3,0.1-0.6,0.1-0.9c0,0,0,0,0.1,0
					c0,0,0-0.1-0.1-0.2c0.2,0,0.2-0.1,0.2-0.2c0-0.1,0-0.2,0-0.2c0.1-0.2,0-0.3,0.1-0.5c0.1-0.1,0.1-0.3,0.1-0.5c0,0,0,0,0.1,0
					c0-0.2,0-0.3,0.1-0.5c0,0,0,0,0.1,0c0-0.1-0.1-0.1-0.1-0.2c0.1,0,0.1,0.1,0.1,0.1c0.1-0.1-0.2-0.3,0.2-0.3c0,0-0.1,0-0.2-0.1
					c0.2-0.1,0.2-0.2,0.1-0.3c0.2-0.4,0.1-0.8,0.3-1.1c0-0.1,0-0.2,0-0.3c0-0.2,0.1-0.3,0.1-0.4c0-0.1,0.1-0.1,0.1-0.1
					c0-0.2,0-0.4,0.1-0.6c0.1-0.1,0-0.2,0.1-0.3c0-0.1,0-0.1,0-0.2c0-0.2,0.1-0.4,0.1-0.6c0-0.1,0.1-0.2,0.1-0.3
					c0-0.1,0-0.2,0.1-0.2c0,0,0-0.1,0-0.1c-0.1-0.2,0.1-0.4,0.1-0.6c0-0.2,0-0.4,0.1-0.5c0.1-0.1,0-0.2,0-0.3c0-0.1,0.1-0.2,0.1-0.3
					c0-0.1,0.1-0.1,0.1-0.2c0,0,0,0,0-0.1c-0.1-0.3,0.1-0.6,0.1-0.9c0,0,0,0,0-0.1c0.2-0.1,0.1-0.3,0.2-0.5c0.1-0.2,0.1-0.4,0.2-0.6
					c0.2,0,0.3,0,0.4,0.2c0.1,0.1,0.3,0.1,0.4,0.2c0.1,0.2,0.4,0.2,0.4,0.4c0,0,0.1,0,0.2,0c0,0,0,0.1,0.1,0.2c0,0,0,0,0,0
					c0,0,0-0.1,0-0.1c0.1,0.1,0.3,0.2,0.5,0.3c0.1,0.1,0.3,0.2,0.4,0.3c0,0,0,0,0-0.1c0.3,0.2,0.6,0.5,1,0.7c0.1,0,0.2,0,0.2,0.1
					c0.1,0,0.3-0.1,0.3,0.2c0,0.1,0.2,0.2,0.3,0.2c0.2,0,0.2,0.1,0.3,0.2c0.1,0.1,0.2,0.1,0.3,0.2c0.1,0.1,0.3,0.1,0.4,0.2
					c0.1,0,0.1,0.1,0.1,0.2c0,0,0.1-0.1,0.1-0.1c0.1,0.1,0.1,0.1,0.2,0.2c0,0,0.1,0,0.1,0c0.1,0.1,0.2,0.1,0.3,0.2
					c0.1,0.1,0.3,0.2,0.4,0.2c0.2,0.1,0.4,0.3,0.7,0.4c0.1,0.1,0.2,0.1,0.2,0.2c0,0,0,0,0.1,0c0.2-0.1,0.3,0.1,0.4,0.2
					c0.2,0.1,0.3,0.2,0.5,0.3c0.1,0.1,0.4,0.1,0.4,0.3c0,0,0.1,0,0.1,0c0.2-0.1,0.3,0.1,0.4,0.2c0.1,0,0.1,0,0.2,0.1
					c0.1,0.1,0.2,0.2,0.3,0.3c0,0,0,0,0,0c0.2,0,0.4,0.2,0.6,0.3c0.2,0.1,0.3,0.2,0.1,0.4c0,0,0,0,0,0.1c0,0,0,0.1,0,0.1
					c-0.1,0-0.2,0-0.2,0c0,0.2-0.1,0.2-0.3,0.2c0,0,0,0.1-0.1,0.1c-0.2,0.2-0.4,0.5-0.6,0.7c-0.1,0.1-0.2-0.1-0.2,0.1
					c0,0.1-0.2,0.2-0.4,0.3c-0.1,0.1-0.2,0.2-0.3,0.3c0,0,0,0,0,0c-0.2,0-0.3,0.2-0.4,0.3c-0.1,0.1-0.2,0.1-0.3,0.2
					c0,0.1-0.2,0.2-0.3,0.3c-0.1,0.2-0.3,0.3-0.4,0.4c-0.1,0.1-0.2,0.2-0.3,0.3c-0.1,0.1-0.2,0.2-0.4,0.3c-0.2,0.1-0.3,0.3-0.5,0.4
					c0,0-0.1,0.1-0.2,0.1c0,0,0.1,0.1-0.1,0.2c-0.1,0-0.2,0.2-0.4,0.3c0,0,0,0.1,0,0.1c-0.2,0.1-0.4,0.3-0.6,0.4
					c-0.1,0.1-0.1,0.2-0.1,0.2c-0.1,0.1-0.3,0.2-0.4,0.3c0,0-0.1,0.1-0.1,0.1c0,0-0.1,0.1-0.1,0.1c-0.2,0-0.2,0.1-0.3,0.2
					c-0.1,0.1-0.3,0.3-0.4,0.4c-0.1,0.2-0.4,0.3-0.5,0.4c-0.1,0.2-0.4,0.3-0.5,0.5c0,0-0.1,0-0.1,0.1c0,0,0.1,0.2-0.1,0.1
					c0,0,0,0,0,0c-0.2,0.3-0.4,0.5-0.7,0.8c-0.1,0.1-0.2,0.1-0.3,0.2c-0.1,0-0.2,0.1-0.2,0.2c-0.4,0.4-0.7,0.7-1.1,1.1
					c0.2,0,0.4,0,0.6,0.1c0.1,0,0.1,0,0.2-0.1c0.1,0,0.3,0,0.4-0.1c0,0,0,0,0-0.1c0.3,0,0.6,0,0.8-0.1c0.3-0.1,0.5,0,0.8-0.2
					c0.1-0.1,0.2,0,0.4,0c0,0-0.1-0.1-0.1-0.1c0.2,0,0.3-0.1,0.5-0.1c0.2,0,0.4-0.1,0.6-0.1c0.2,0,0.3-0.1,0.5-0.1c0,0,0.1,0,0.1,0
					c0.2,0,0.3,0.1,0.5-0.1c0,0,0.1,0,0.2,0c0.2,0,0.4-0.1,0.6-0.1c0.2-0.1,0.4-0.1,0.6-0.1c0.3,0,0.7-0.1,1-0.1
					c0.1,0,0.1-0.1,0.2-0.1c0.1,0,0.3,0.1,0.5,0c0,0,0.1,0,0.2,0c0.1,0,0.2,0,0.2-0.1c0.1,0,0.2-0.1,0.2,0c0.1,0,0.3,0,0.4,0
					c0,0,0,0,0,0.1c0.1-0.1,0.2-0.1,0.3-0.2c0,0,0.1,0.1,0.1,0.1c0.1,0,0.2-0.1,0.3-0.1c0.2,0,0.3,0,0.4-0.1c0,0,0,0,0.1,0
					c0.2,0,0.4,0,0.6-0.1c0.2,0,0.4-0.1,0.6-0.1c0,0,0,0.1,0.1,0.1c0.1-0.1,0.5-0.2,0.8-0.1c0,0,0-0.1,0.1-0.1c0.1,0,0.1,0,0.2,0
					c0.2,0,0.4-0.1,0.7-0.1c0.2,0,0.3-0.1,0.5-0.1c0.1,0,0.2,0,0.3,0c0.2,0,0.4-0.1,0.6-0.2c0.2,0,0.3,0,0.5,0
					c0.1,0,0.3-0.1,0.4-0.1c0.1,0,0.2-0.1,0.2-0.1c0.1,0.1,0.2,0,0.3,0c0.1,0,0.3-0.1,0.3-0.1c0.2,0.1,0.3-0.2,0.5-0.2
					c0-0.1,0-0.3-0.1-0.4c-0.1-0.2-0.2-0.5-0.4-0.7c-0.1-0.1-0.1-0.3-0.2-0.4c-0.1-0.1-0.1-0.3-0.1-0.4c0,0,0.1,0,0,0
					c0.1-0.1,0.2-0.2,0.3-0.3c0.2-0.2,0.4-0.5,0.7-0.6c0,0,0.1,0,0.1,0c0.2,0.1,0.3,0.2,0.5,0.3c0.2,0.1,0.5,0.3,0.8,0.4
					c0,0,0,0,0,0.1c0.1,0,0.1,0,0.2,0.1c0,0,0,0,0.1,0c0.1,0,0.1,0,0.2,0.1c0.3,0.2,0.6,0.4,0.9,0.6c0.2,0.1,0.3,0.2,0.5,0.3
					c0,0,0,0,0.1,0c0.1,0,0.2,0.1,0.2,0.1c0.2,0.1,0.4,0.2,0.5,0.3c0.1,0.1,0.2,0.1,0.4,0.2c0.1,0,0.1,0.1,0.2,0.2
					c0.1,0,0.1,0,0.2,0c0.2,0.1,0.4,0.2,0.5,0.3c0.2,0.1,0.4,0.1,0.5,0.3c0.1,0.2,0.4,0.2,0.5,0.4c0,0.1,0.2,0.1,0.2,0.1
					c0,0,0.1,0.1,0.1,0.1c0.1,0,0.1,0.1,0.2,0.1c0,0,0,0,0,0c0.1,0,0.1,0.1,0.2,0.1c0.2,0,0.4,0.1,0.5,0.3c0,0,0,0,0,0
					c0.2,0.1,0.4,0.1,0.6,0.2c0.2,0.1,0.3,0.1,0.4,0.3c0.2,0.2,0.5,0.2,0.7,0.4c0,0,0.1,0.1,0.2,0.1c0.2,0.1,0.4,0.1,0.5,0.3
					c0.3,0,0.4,0.4,0.7,0.3c0.1,0,0.2,0.1,0.3,0.2C48.4,37.9,48.5,37.9,48.6,38z"/>
				<path class="st0" d="M26.5,59.5c-0.1-0.1-0.1-0.2-0.2-0.4c-0.1,0-0.2,0.1-0.3,0.1c0.1,0,0.1,0,0.1,0c-0.1,0.2-0.2,0.3-0.4,0.5
					c-0.1,0.1-0.1,0.1-0.2,0.2c-0.1,0.1-0.1,0.2-0.2,0.3c0,0.1-0.1,0.1-0.2,0.1c0,0.1,0,0.2-0.2,0.2c0,0-0.1,0.1-0.1,0.1
					c-0.1,0.1-0.2,0.2-0.4,0.3c-0.1,0-0.2,0.1-0.3,0.2c-0.1,0-0.2,0.1-0.3,0.2c0,0-0.1,0-0.2,0c-0.2,0-0.3,0.2-0.5,0.1
					c0,0-0.1,0.1-0.2,0.1c-0.1,0-0.3,0.1-0.4,0c-0.1,0-0.3,0-0.4,0c-0.1,0-0.2,0-0.3,0c-0.1,0-0.3,0-0.4,0c-0.2,0-0.3-0.1-0.5-0.1
					c0,0,0,0-0.1,0c-0.2,0-0.4-0.1-0.5-0.2c-0.1-0.1-0.3-0.1-0.4-0.1c-0.2-0.1-0.3-0.2-0.4-0.3c-0.1,0-0.1-0.2-0.2-0.1
					c0-0.1-0.1-0.1-0.1-0.2c-0.2,0-0.6-0.5-0.6-0.6c-0.1-0.1-0.1-0.2-0.1-0.3c0,0,0-0.1,0-0.1c-0.2-0.1-0.2-0.3-0.3-0.5
					c0-0.1-0.1-0.1-0.1-0.2c0-0.1,0-0.1,0-0.2c-0.1-0.2-0.2-0.4-0.1-0.7c0,0,0,0,0-0.1c-0.1-0.2,0-0.4-0.1-0.6c0-0.2,0-0.3-0.1-0.5
					c0,0,0,0,0-0.1c0.1-0.3,0.1-0.7,0.2-1c0.1-0.2,0.1-0.5,0.3-0.6c0,0,0-0.1,0.1-0.2c0.1-0.2,0.2-0.5,0.4-0.6
					c0.1-0.1,0.2-0.4,0.4-0.4c0.1,0,0.1-0.1,0.2-0.2c0.2,0,0.3-0.4,0.5-0.4c0.1-0.1,0.2-0.2,0.3-0.2c0.2,0,0.2-0.3,0.5-0.1
					c0,0,0-0.1,0-0.1c0.1,0,0.2,0,0.2-0.1c0.1-0.1,0.4-0.1,0.5,0c0.1-0.1,0.1-0.1,0.2-0.2c0,0,0.1,0,0.2,0c0.1,0,0.2,0.1,0.2,0
					c0.1-0.1,0.2,0.1,0.2,0c0.3,0,0.5,0,0.8,0.1c0.2,0,0.5,0.1,0.7,0.2c0.1,0,0.3,0,0.3,0.1c0,0,0.1,0,0.2,0c0,0,0,0.1,0,0.1
					c0.1,0,0.2,0.1,0.3,0.1c0.1,0.1,0.2,0.1,0.3,0.2c0.1,0.1,0.2,0.2,0.3,0.2c0.2,0,0.2,0.3,0.4,0.3c0,0,0.1,0,0.1,0.1
					c0.1,0.1,0.1,0.1,0.2,0.2c0,0,0,0.1,0.1,0.1c0.1,0.1,0.1,0.2,0.2,0.2c0.1,0.1,0.2,0.3,0.3,0.4c0.1,0.2,0.2,0.4,0.3,0.5
					c0,0.1,0.1,0.1,0.1,0.2c0.1,0.2,0.1,0.4,0.2,0.7c0,0.2,0.1,0.4,0.1,0.5c0,0.1,0,0.1,0,0.2c0,0.1,0,0.3,0,0.4
					c0,0.1,0,0.3-0.1,0.4c0,0,0,0.1,0,0.2c-0.1,0.1-0.2,0.2-0.1,0.3c0,0,0,0.1,0,0.1c0,0.1-0.1,0.2-0.1,0.3c0,0-0.1,0.1-0.1,0.1
					c0,0.1,0,0.1,0.1,0.2c0.1,0,0.2,0.1,0.3,0.2c0,0,0,0,0,0c0.4,0,0.8,0,1.2,0c0,0.1,0.3,0.1,0.4-0.1c0.2,0.1,0.3,0.1,0.5,0.2
					c0,0,0,0,0-0.1c0.6,0.1,1.2,0,1.7,0.1c0.1,0,0.2-0.2,0.3,0c0,0.1,0.3,0,0.4,0c0.1,0,0.2,0,0.3,0c0.2,0,0.3,0,0.5,0.1
					c0,0,0,0,0,0.1c0.1,0,0.1-0.1,0.2-0.1c0.1,0,0.2,0,0.3,0c0.1,0,0.1,0,0.2-0.1c0.1-0.1,0.1-0.1,0.2-0.2c0.1-0.1,0-0.3,0.2-0.4
					c0.1,0,0-0.2,0-0.3c0.2-0.2,0.2-0.5,0.3-0.8c0-0.1,0-0.1,0.1-0.2c0.1-0.1,0.1-0.1,0-0.3c0.1,0,0.1,0,0.2-0.1c0,0-0.1,0-0.1-0.1
					c0-0.1,0-0.2,0-0.3c0,0,0,0,0,0c0-0.2,0.1-0.4,0.1-0.5c0-0.2,0.2-0.4,0.2-0.6c0,0,0.1-0.1,0.1-0.1c0-0.2,0.1-0.5,0.2-0.7
					c0,0,0-0.1,0-0.1c0.1-0.1,0.2-0.2,0.1-0.3c0,0,0,0,0-0.1c0.2-0.2,0.2-0.5,0.2-0.8c0.1-0.2,0.1-0.3,0.2-0.5
					c0.1-0.2,0.1-0.3,0.1-0.5c0,0,0.1-0.1,0.1-0.1c0.1-0.3,0.2-0.6,0.3-0.9c0.1-0.2,0.2-0.4,0-0.7c0,0-0.1-0.1-0.1-0.1
					c-0.2,0-0.4,0-0.6,0c0,0,0-0.1,0-0.1c-0.2,0.1-0.3,0.1-0.3,0.1c-0.1,0-0.3,0-0.4,0c-0.2,0-0.4,0-0.6,0c-0.1,0-0.1,0-0.2-0.1
					c0,0,0,0,0,0c0,0,0,0,0.1,0.1c0,0,0,0,0,0c-0.1,0-0.1-0.1-0.1-0.1c-0.1,0-0.2,0-0.3,0c-0.4,0.1-0.9-0.1-1.3,0c0,0,0,0.1-0.1,0
					c-0.1,0-0.2-0.1-0.2-0.1c-0.2,0.1-0.3,0-0.5,0c-0.1,0-0.2,0-0.3,0c-0.1,0-0.2,0-0.3,0c-0.1,0-0.1,0-0.2-0.1c-0.1,0-0.3,0-0.4,0
					c-0.2,0-0.3-0.1-0.5,0c-0.2,0.1-0.4,0-0.7,0c-0.1,0-0.1,0-0.2,0c0,0-0.1,0-0.2,0.1c0,0,0,0-0.1-0.1c0,0,0,0,0,0.1
					c-0.2,0-0.4,0-0.6,0c0,0,0,0,0,0c-0.2,0-0.4,0-0.6,0c-0.2,0-0.4,0-0.5-0.1c-0.1,0-0.2,0.1-0.2,0c0,0-0.1,0-0.1,0
					c-0.1,0.1-0.2,0.1-0.4,0c-0.3,0-0.6,0-0.8,0c-0.1,0-0.3,0-0.4,0c-0.2,0-0.3,0-0.5,0c-0.1,0-0.2,0-0.4,0c-0.2,0-0.3,0-0.4,0
					c0,0-0.1,0-0.1,0c0,0,0.1,0,0.1,0c0,0,0,0,0,0c-0.1,0-0.2,0-0.2,0c-0.2,0.1-0.4,0-0.6,0c0,0-0.1,0-0.2,0c-0.1,0-0.2-0.2-0.2-0.3
					c0,0,0-0.1,0-0.1c-0.1-0.1-0.1-0.2,0-0.2c0-0.2,0-0.3,0-0.4c0-0.1,0-0.2,0-0.2c0-0.2,0-0.4,0-0.5c0,0-0.1-0.1-0.1-0.1
					c0-0.2,0-0.4,0.1-0.6c0,0,0,0,0,0c0.2,0,0.3-0.1,0.5-0.1c0,0,0-0.1,0-0.1c0.1,0,0.1,0,0.2,0c0.1,0,0.1-0.1,0.2-0.1
					c0.1,0,0.2-0.1,0.4-0.1c0.1,0,0.2,0,0.3,0c0.2,0,0.3-0.1,0.5-0.1c0.2-0.1,0.3-0.1,0.5-0.2c0.2-0.1,0.5-0.1,0.7-0.2
					c0.2,0,0.3-0.2,0.5-0.2c0.2,0,0.4-0.1,0.6-0.2c0,0,0.1,0,0.2,0c0.1,0,0.1,0,0.1,0c0.1-0.2,0.4-0.1,0.5-0.2
					c0.3,0.2,0.4-0.2,0.6-0.1c0,0,0,0,0.1-0.1c0,0,0,0.1,0,0.2c0.2-0.2,0.4-0.3,0.7-0.3c0.1,0,0.3-0.1,0.4-0.1c0,0,0.1,0,0.2,0
					c0.2,0,0.3-0.2,0.5-0.1c0,0,0.1,0,0.1-0.1c0.2-0.1,0.3-0.1,0.5-0.2c0,0,0,0,0,0c0.2,0.1,0.3-0.1,0.5-0.1c0.1,0,0.2-0.1,0.4-0.1
					c0,0,0-0.1,0-0.1c0.1,0,0.2,0.1,0.2-0.1c0,0,0.1,0,0.1,0c0.2-0.1,0.4-0.2,0.6-0.2c0.3,0,0.5-0.3,0.8-0.2c0.2,0,0.4-0.1,0.6-0.1
					c0.1,0,0.1,0,0.2-0.1c0.1,0,0.1,0,0.2-0.1c0,0,0,0,0,0c0.1,0,0.2,0,0.3-0.1c0.2-0.1,0.4,0,0.5-0.2c0,0,0.2,0,0.3,0
					c0.2,0,0.3,0,0.4-0.2c0,0,0.2,0,0.3,0c0,0,0.1-0.1,0.1-0.1c0,0,0,0.1,0,0.1c0,0,0,0,0,0c0,0,0.1-0.1,0.1-0.1
					c0.3,0.1,0.5-0.2,0.8-0.2c0.2,0,0.4-0.2,0.6-0.1c0,0,0.1,0,0.2,0c0,0,0-0.1,0-0.1c0.1,0.1,0.2,0.3,0.3,0.4
					c0.1,0.1,0.1,0.2,0.2,0.3c0.1,0.2,0.1,0.5,0.2,0.6c0.2,0.2,0.2,0.5,0.4,0.6c0.1,0.1,0.1,0.2,0.1,0.3c0,0,0,0.1,0,0.1
					c0,0,0.1,0,0.1,0c0,0.3,0.3,0.4,0.3,0.7c0,0,0,0,0,0.1c0.1,0.1,0.1,0.2,0.2,0.3c0.1,0.2,0.2,0.3,0.2,0.5
					c0.1,0.1,0.1,0.3,0.2,0.4c0,0.1,0.1,0.1,0.1,0.2c0.1,0.1,0.1,0.1,0.1,0.2c0,0.1,0.1,0.3,0.1,0.3c0.2,0,0.1,0.1,0.1,0.2
					c0.1,0.1,0.1,0.3,0.2,0.4c0,0.1,0.1,0.2,0.1,0.3c0.2,0.1,0.2,0.2,0.2,0.5c0,0.1,0.1,0.1,0.1,0.2c0.1,0.2,0.2,0.3,0.2,0.5
					c0.1,0.1,0.2,0.3,0.2,0.4c-0.1,0.2,0.1,0.4-0.1,0.5c-0.1,0.1,0,0.2-0.1,0.3c0,0.2-0.2,0.4-0.1,0.6c0.1,0.3-0.2,0.4-0.1,0.6
					c0,0,0,0.1,0,0.1c0,0.1,0,0.2-0.1,0.3c0.1,0.2,0.1,0.4-0.1,0.5c0,0,0,0.1,0,0.2c0,0.1,0,0.3-0.1,0.4c0,0.3-0.1,0.5-0.1,0.8
					c0,0,0,0.1-0.1,0.1c0,0.1-0.1,0.2-0.1,0.4c0,0,0.1,0,0,0c0,0.2,0,0.3-0.1,0.5c0,0.1-0.1,0.2-0.1,0.4c0,0.1,0,0.3,0,0.4
					c0,0.2-0.1,0.4-0.1,0.6c0,0.1-0.1,0.2-0.1,0.2c0,0.2,0,0.3-0.1,0.5C39,58.8,39,59,38.9,59.2c0,0,0,0,0,0c0,0.2,0,0.3-0.1,0.5
					c0,0-0.1,0-0.1,0c0,0.1,0,0.2,0,0.4c0,0.1,0,0.3,0,0.4c0,0.1-0.1,0.3-0.1,0.4c0,0,0,0.1,0,0.1c0.1,0.2,0,0.2-0.1,0.3
					c0.1,0,0.1,0,0.2,0c-0.2,0.2-0.4,0.2-0.7,0.2c-0.2,0-0.3-0.2-0.5,0c-0.1,0.1-0.3,0-0.5,0c0-0.2-0.1,0-0.2,0
					c-0.1,0.1-0.1,0.1-0.2,0c0,0-0.1,0-0.2,0c-0.2,0-0.4,0.1-0.5,0c-0.1-0.1-0.3-0.1-0.4-0.1c-0.2,0-0.5,0-0.7-0.1c0,0-0.1,0-0.1,0
					c-0.1,0.1-0.3,0-0.4,0c-0.1,0-0.2,0-0.3,0c-0.1,0.1-0.3,0.1-0.6-0.1c0,0.1,0,0.1,0,0.1c-0.2,0-0.5,0-0.7-0.1
					c-0.2,0-0.3,0-0.3-0.1c0,0-0.1,0.1-0.2,0.1c0,0,0,0,0,0c0,0-0.1,0-0.1,0c-0.1,0-0.3,0-0.4,0c-0.2,0-0.5-0.1-0.7,0
					c0,0-0.1,0-0.1,0c-0.1,0-0.2-0.1-0.3,0c-0.1,0.1-0.2,0-0.3,0c0,0-0.1,0-0.1,0c-0.1,0-0.2,0.1-0.3-0.1c0,0-0.1,0-0.1,0
					c-0.2,0.1-0.3,0.1-0.5,0c-0.1,0-0.3,0-0.4,0c0,0-0.1,0-0.1,0c-0.3-0.1-0.7,0-1-0.1c0,0-0.1,0-0.1,0c-0.1,0-0.1-0.1-0.2,0
					c0,0.1-0.3-0.1-0.4-0.2c-0.1-0.2-0.2-0.4-0.2-0.5c-0.1-0.2-0.2-0.4-0.3-0.6C26.5,59.6,26.5,59.5,26.5,59.5
					C26.5,59.5,26.5,59.5,26.5,59.5z"/>
			</g>
			<g>
				<path class="st0" d="M47,50.9c-0.1,0-0.1,0-0.2,0c0,0-0.1,0-0.1,0.1c0,0.2-0.2,0.2-0.3,0.3c0,0,0,0.1-0.1,0.1
					c-0.1,0.1-0.2,0.1-0.3,0.2c0-0.1,0-0.1,0-0.1c0,0,0,0,0,0c0-0.1-0.1-0.3-0.1-0.4c-0.1-0.2,0-0.3-0.1-0.5c-0.1-0.1,0-0.3-0.1-0.3
					c-0.1-0.2-0.1-0.4-0.1-0.6c0-0.1-0.1-0.1-0.1-0.2c-0.1-0.3-0.2-0.7-0.2-1c-0.1-0.1-0.1-0.1-0.1-0.2c0-0.1,0-0.2-0.1-0.3
					c0,0,0-0.1,0-0.1c-0.1-0.2-0.2-0.5-0.2-0.7c0-0.2-0.1-0.2-0.1-0.4c0-0.1,0-0.1,0-0.2c0-0.1-0.1-0.2-0.2-0.3c0,0,0-0.1,0.1-0.1
					c0,0-0.1-0.1-0.1-0.1c0,0,0.1,0,0.1-0.1c0,0,0,0,0,0c-0.1,0-0.1,0-0.1-0.1c0-0.2-0.1-0.4-0.2-0.6c0-0.1-0.1-0.2-0.1-0.3
					c0,0,0.1,0,0.1-0.1c-0.1-0.1-0.2-0.5-0.2-0.6c0,0-0.1,0-0.1,0c0,0,0,0,0,0c0.8-0.3,1.6-0.6,2.4-0.8c0,0,0,0,0,0c0,0,0,0-0.1-0.1
					c0.2-0.1,0.4-0.2,0.6-0.2c0.2,0,0.3-0.2,0.4-0.3c0.1-0.1,0.1-0.3,0.1-0.4c0-0.2,0-0.3,0-0.5c0-0.1,0.1-0.2,0.1-0.3
					c0,0,0.1,0,0.1,0c0,0,0,0,0,0c0,0-0.1,0-0.1,0c0.4,0,0.7-0.1,1.1-0.1c0.2,0,0.3,0,0.5,0c0.1,0,0.1,0,0.2,0c0.2,0,0.4,0,0.6,0
					c0.1,0,0.2-0.1,0.3-0.1c0.2,0,0.5-0.2,0.7,0c0,0,0.1,0,0.1,0c0.1-0.2,0.2-0.1,0.4,0c0.1,0,0.2,0,0.3-0.1c0.1,0,0.2,0,0.3,0
					c0.1,0,0.2,0,0.2,0.1c0.1,0,0.3-0.1,0.4-0.1c0.2,0,0.4-0.1,0.6-0.1c0.1,0,0.3,0,0.4,0c0.1,0,0.1,0,0.2-0.1
					c-0.3-0.2-0.5-0.4-0.7-0.5c-0.2-0.1-0.3-0.2-0.4-0.4c-0.1-0.2-0.4-0.4-0.4-0.7c0,0-0.1,0-0.1,0c0-0.1,0-0.1,0-0.2
					C52,39.2,52.2,39,52,38.8c0,0,0-0.1,0-0.1c0-0.1,0-0.2-0.1-0.3c0-0.3,0-0.6,0.1-0.9c0-0.1,0-0.3,0.1-0.4
					c0.1-0.2,0.2-0.4,0.3-0.6c0.1-0.1,0.1-0.2,0.2-0.3c0,0,0,0,0.1-0.1c0,0,0.1,0,0.1,0c0-0.3,0.3-0.4,0.5-0.5
					c0.1-0.1,0.4-0.2,0.6-0.3c0.2-0.1,0.4-0.1,0.6-0.2c0.1,0,0.2,0,0.3,0c0,0,0-0.1,0-0.1c0.1,0,0.2,0.1,0.3,0.1
					c0-0.2,0.2,0.1,0.2,0c0.1,0.1,0.2,0,0.3,0c0.2,0,0.3,0.1,0.4,0.2c0.1-0.1,0.1-0.1,0.2,0c0.1,0.1,0.2,0.1,0.3,0.1
					c0.1,0,0.1,0.1,0.1,0.1c0.2,0.1,0.3,0.2,0.5,0.3c0.1,0.1,0.1,0.1,0.2,0.2c0.1,0.1,0.3,0.1,0.3,0.3c0,0,0.1,0.1,0.1,0.1
					c0.1,0.1,0.2,0.3,0.3,0.4c0.1,0,0.1,0.1,0.1,0.2c0,0.1-0.1,0.1,0.1,0.1c0,0,0,0,0,0c0,0.1,0,0.3,0,0.4c0,0,0,0,0,0
					c0.2,0.1,0.1,0.3,0.1,0.4c0,0.2,0,0.3,0,0.5c0,0,0,0.1,0,0.1c0,0.1-0.1,0.2-0.1,0.4c0,0.1,0,0.2-0.1,0.3c0,0.1,0,0.2-0.2,0.2
					c0,0,0,0,0,0.1c0,0.1,0,0.2-0.2,0.2c0,0,0,0.1-0.1,0.2c-0.1,0.1-0.2,0.2-0.3,0.3c-0.2,0.2-0.4,0.4-0.6,0.5
					c0.1,0,0.2,0.1,0.3,0.1c0.1,0,0.2-0.1,0.3,0c0,0,0.1,0,0.1,0c0.1-0.1,0.3,0,0.4,0c0.2-0.1,0.4,0,0.5-0.1c0.2,0,0.4,0,0.6-0.1
					c0,0,0,0,0,0.1c0.1,0,0.3,0,0.4-0.1c0,0,0,0,0,0c0,0,0.1,0.1,0.1,0.1c0,0,0,0,0-0.1c0.1,0,0.1,0,0.2,0c0.1,0,0.1,0,0.2,0
					c0.1,0,0.2,0,0.2,0c0.1,0.2,0.2,0,0.2-0.1c0.1,0,0.2,0,0.4,0.1c0,0,0,0,0,0c0.1,0,0.2-0.1,0.3-0.1c0.2,0,0.5-0.1,0.8,0
					c0.1-0.1,0.1-0.2,0.3-0.1c0.1,0.1,0.3,0,0.4,0c0.2,0,0.3,0,0.4-0.1c0,0,0.1,0.1,0.3,0c0.1,0,0.2,0,0.3,0
					c0.2-0.1,0.4,0.1,0.5-0.1c0.1,0.1,0.3,0.2,0.4,0.3c0.1,0.1,0.1,0.2,0.1,0.3c0,0.1,0.1,0.2,0.1,0.3c0,0,0.1,0.1,0.1,0.1
					c0,0.1,0.2,0.1,0.1,0.3c0,0,0,0,0,0.1c0,0.1,0.1,0.2,0.1,0.4c0.1,0.2,0.2,0.5,0.4,0.7c0,0,0,0-0.1,0c0,0.1,0,0.1,0,0.1
					c0.1,0,0.1,0.1,0.2,0.2c0,0.2,0.2,0.3,0.2,0.5c0.1,0.3,0.3,0.6,0.4,0.9c0,0,0,0.1,0.1,0.1c0.1,0,0.1-0.1,0.1-0.1
					c0.1,0,0.2-0.1,0.2-0.2c0.1-0.2,0.2-0.4,0.3-0.6c0.1-0.1,0.2-0.3,0.2-0.4c0,0,0.1,0,0.1,0c0.1-0.1,0.1-0.1,0.2-0.1
					c0.2,0,0.4,0,0.6,0c0.1,0,0.3,0,0.4,0.1c0.2,0,0.4,0,0.6,0.1c0.1,0,0.2,0,0.3,0.1c0,0,0,0,0,0c0.1-0.1,0.2,0,0.4,0
					c0.2,0,0.5,0,0.7,0.1c0.2,0,0.5,0.1,0.7,0.1c0.1,0,0.3,0.1,0.4,0.1c0,0,0.1,0,0.1,0c0.1-0.2,0.2,0,0.3,0.1c0,0,0.1-0.1,0.1-0.1
					c0,0.1,0.1,0.1,0.1,0.2c0,0.1-0.1,0.1-0.2,0.2c0,0,0.1,0.1-0.1,0.1c-0.1,0-0.2,0.1-0.3,0.3c0,0.1-0.1,0.2-0.2,0.2
					c-0.2,0.1-0.3,0.3-0.5,0.4c-0.1,0.1-0.1,0.2-0.2,0.2c-0.1,0.1-0.2,0.2-0.3,0.2c-0.1,0.1-0.2,0.2-0.4,0.3c0,0,0,0.1,0,0.1
					c-0.1,0-0.1,0-0.2,0c0,0,0.1,0.1,0.1,0.1c-0.1,0.1-0.2,0.2-0.3,0.3c-0.1,0.1-0.2,0.2-0.4,0.3c0,0,0,0,0,0
					c-0.1,0.1-0.2,0.3-0.3,0.3c-0.3,0.1-0.3,0.3-0.5,0.5c-0.2,0.1-0.4,0.4-0.5,0.5c-0.1,0.1-0.2,0.3-0.4,0.3c0,0-0.1,0-0.1,0
					c0.1,0.2-0.1,0.2-0.2,0.3c0,0-0.1,0-0.2,0.1c0,0,0,0.1-0.1,0.1c-0.1,0.1-0.2,0.2-0.3,0.3c-0.1,0.2-0.3,0.3-0.4,0.5
					c0,0.1-0.1,0.1-0.2,0.1c0,0-0.1,0-0.1,0c0,0.2-0.2,0.2-0.3,0.3c-0.2,0.2-0.4,0.4-0.6,0.6c-0.1,0.1-0.2,0.3-0.3,0.4
					c-0.1,0-0.1,0.1-0.2,0.2c0,0-0.1,0-0.1,0c0,0,0,0.1,0,0.1c-0.2,0-0.3,0.2-0.3,0.3c-0.2-0.1-0.2,0.3-0.4,0c0,0.1,0,0.1,0,0.2
					c-0.4-0.2-0.8-0.3-1.1-0.4c0.1-0.2,0.2-0.4,0.3-0.6c0.1-0.2,0.2-0.3,0.3-0.5c0.1-0.2,0.2-0.4,0.3-0.6c0-0.1,0.1-0.1,0.2-0.2
					c0-0.1,0.1-0.2,0.1-0.3c0.1-0.2,0.2-0.3,0.3-0.5c0,0,0-0.1,0-0.2c0,0,0.1,0,0.1,0c0.1-0.2,0.2-0.3,0.3-0.5c0-0.1,0-0.1,0.1-0.2
					c0-0.2,0.3-0.3,0.3-0.6c0,0,0-0.1,0.1-0.1c0.1-0.1,0.2-0.3,0.3-0.5c0-0.1,0.1-0.1,0.1-0.2c-0.1-0.1-0.3-0.2-0.4-0.2
					c0,0-0.1,0-0.1,0c-0.2,0-0.3-0.1-0.4-0.1c-0.4,0-0.7,0-1,0c0,0,0-0.1,0.1-0.1c0,0,0,0,0,0c0,0-0.1,0.1-0.1,0.1
					c0,0-0.1-0.1-0.2-0.1c-0.1,0.1-0.2,0.1-0.3,0c0,0-0.1,0-0.1,0c-0.1,0-0.3,0.1-0.4,0c0,0-0.1,0-0.1,0.1C62,46,61.9,46,61.8,46
					c-0.3,0-0.5,0.1-0.8,0c0,0-0.1,0-0.1,0c-0.1,0.1-0.2,0.1-0.3,0c0,0-0.1,0-0.1,0c0,0,0-0.1,0-0.1c-0.3,0-0.6,0-0.9,0
					c0,0,0-0.1,0-0.1c-0.1,0-0.1,0-0.2,0c-0.2-0.1-0.4,0-0.7,0c-0.1,0-0.1,0-0.2,0.1c0-0.1,0.1-0.1,0.1-0.1c-0.2,0-0.4,0-0.6,0
					c0,0,0-0.1,0-0.1c-0.1,0-0.1,0.1-0.2,0.1c-0.3,0-0.5,0-0.8-0.1c-0.1,0-0.2,0-0.4,0c0,0-0.1-0.1-0.1-0.1c0,0,0,0,0,0.1
					c-0.1,0-0.1,0-0.2,0c0,0-0.1,0-0.1,0c-0.1,0-0.1,0-0.2,0c-0.1,0-0.3,0-0.4,0c-0.1,0-0.1,0-0.2,0c-0.1,0-0.1,0-0.2,0
					c-0.3,0-0.6,0-0.9-0.1c0,0-0.1,0-0.1,0c-0.2,0.2-0.4,0-0.6,0c-0.2,0.1-0.4,0-0.6-0.1c-0.1,0-0.1,0-0.2,0.1c0,0-0.1-0.1-0.1-0.1
					c-0.2,0-0.4,0.2-0.6,0c0,0-0.1,0-0.1,0c-0.3,0-0.5-0.1-0.8-0.1c-0.1,0-0.3,0-0.4,0c-0.1,0-0.2-0.1-0.3,0c0,0,0,0,0,0
					c-0.3-0.1-0.6,0.1-0.8-0.1c0,0-0.1,0-0.1,0c0,0-0.1,0-0.1,0c-0.2-0.1-0.4,0-0.6,0c0,0-0.1,0-0.1,0c0,0.2-0.4-0.1-0.3,0.2
					c0,0,0.1,0,0.1,0.1c0.1,0.2,0.1,0.4,0.2,0.6c0.2,0.2,0.1,0.4,0.3,0.5c0,0,0.1,0.1,0.1,0.2c0.1,0.3,0.3,0.6,0.5,0.8
					c0.1,0.1,0.2,0.2,0.1,0.3c0,0,0,0.1,0,0.1c0.2,0,0.1,0.1,0.1,0.2c0,0.1-0.1,0.2-0.2,0.3c0,0-0.1,0-0.1,0.1
					c-0.1,0.1-0.2,0.2-0.3,0.3c0,0,0,0,0,0.1c0,0,0,0,0,0c-0.1,0.1-0.2,0.1-0.2,0.2c-0.1,0.1-0.1,0.2-0.3,0.2c0,0-0.1,0-0.1,0
					c-0.1,0.1-0.2,0.2-0.3,0.3c-0.1,0.1-0.1,0.1-0.2,0.2c-0.2,0.1-0.2,0.3-0.4,0.3c0,0-0.1,0.1-0.1,0.1c-0.1,0-0.2,0-0.3,0.2
					c0,0.1-0.1,0.2-0.2,0.2c0,0,0,0,0,0c0,0.1-0.1,0.1-0.2,0.2C47,50.8,47,50.8,47,50.9C47,50.9,47,50.9,47,50.9z"/>
				<path class="st0" d="M59,64.4c-0.1-0.1-0.1-0.1-0.2-0.2c0.1-0.1,0.1-0.2,0.2-0.3c-0.1,0-0.1,0.1-0.1,0.1c0,0,0,0,0,0
					c0,0,0.1-0.1,0.1-0.1c0,0,0,0,0-0.1c0-0.1,0.1-0.3,0.1-0.4c0-0.1,0.1-0.2,0.2-0.4c0-0.2,0.1-0.3,0.1-0.5c0-0.1,0-0.1,0-0.2
					c-0.1-0.3-0.2-0.5-0.3-0.8c0-0.1-0.1-0.2-0.1-0.4c0,0-0.1-0.3-0.2-0.4c0,0,0-0.1,0-0.1c-0.1-0.2-0.2-0.4-0.3-0.5
					c-0.1,0.1-0.2,0-0.3,0.2c0,0.1-0.1,0.1-0.2,0.1c0,0-0.1,0.1-0.1,0.1c0,0.2-0.2,0.3-0.3,0.4c-0.1,0.1-0.1,0.1-0.2,0.2
					c-0.1,0.2-0.2,0.3-0.4,0.4c0,0-0.1,0.1-0.1,0.2c0,0.1-0.2,0.1-0.2,0.3c0,0.1-0.1,0.1-0.2,0.2c-0.1,0.1-0.2,0.2-0.3,0.3
					c-0.1,0.1-0.2,0.2-0.3,0.3c0,0,0,0.1,0,0.1c0,0.1-0.1,0.1-0.1,0.1c-0.2,0-0.2,0.1-0.2,0.2c-0.1,0.1-0.1,0.2-0.2,0.3
					c0,0-0.1,0-0.2,0.1c0,0,0,0.1,0,0.1c-0.2,0.2-0.4,0.4-0.5,0.6c-0.1,0.1-0.2,0.2-0.3,0.3c0,0,0,0.1-0.1,0.1
					c-0.1,0.1-0.2,0.2-0.3,0.2c-0.2-0.2-0.3-0.5-0.2-0.8c0.1-0.2,0.2-0.4,0.4-0.7c0,0,0-0.1-0.1-0.1c0.1,0,0.1,0,0.1,0.1
					c0,0,0,0,0,0c0.1-0.1,0.1-0.2,0.2-0.3c0,0,0-0.1,0-0.1c0.1-0.1,0.2-0.3,0.2-0.4c0,0,0-0.1,0-0.1c0,0,0.1-0.1,0.1-0.1
					c0,0,0.1-0.1,0.2-0.1c-0.1,0-0.1,0-0.1,0c0.3-0.6,0.6-1.2,1-1.8c0,0,0,0,0,0c0.1-0.1,0.1-0.2,0.2-0.3c0-0.1,0.1-0.1,0.1-0.2
					c0.1-0.1,0.1-0.2,0.2-0.3c0,0,0,0,0-0.1c0,0,0.1,0,0.1,0c-0.1-0.2,0.1-0.4,0.2-0.5c0.1-0.1,0.1-0.2,0.1-0.3
					c0-0.1,0.1-0.2,0.1-0.2c0-0.1,0.1-0.1,0.1-0.2c0.3-0.2,0.4-0.3,0.4-0.1c0.1,0,0.1,0,0.2,0c0,0-0.1,0.1-0.1,0.1
					c0.1,0.1,0.3,0.1,0.4,0.2c0-0.1,0.1-0.2,0.1-0.2c0-0.1-0.1-0.1-0.1-0.2c0-0.1,0-0.3-0.2-0.4c-0.1,0-0.1-0.2-0.1-0.3
					c-0.1-0.2-0.1-0.5-0.2-0.7c-0.1-0.2-0.1-0.3-0.2-0.5c0,0,0-0.1-0.1-0.2c0-0.1,0.1-0.2-0.1-0.2c0,0,0,0,0-0.1
					c0.1-0.2-0.1-0.3-0.2-0.5c-0.1,0.1-0.2,0.1-0.3,0.2c-0.1,0.2-0.3,0.3-0.4,0.5c-0.1,0.1-0.2,0.3-0.3,0.5
					c-0.1,0.1-0.1,0.2-0.2,0.3c0,0,0,0.1-0.1,0.1c-0.2,0.2-0.4,0.4-0.5,0.6c0,0-0.1,0-0.1,0.1c0,0-0.1,0.1-0.1,0.1
					c0.1,0.2-0.2,0.3-0.2,0.4c-0.1,0.2-0.3,0.4-0.5,0.6c-0.1,0.1-0.2,0.2-0.3,0.3c-0.1,0.1-0.1,0.1-0.1,0.2c0,0.1,0,0.1,0,0.2
					c0,0-0.1,0-0.1,0c0,0.1,0,0.1,0,0.2c-0.2,0-0.5,0.4-0.5,0.5c-0.1,0.1-0.1,0.1-0.2,0.2c0,0,0,0.1,0,0.1c-0.1,0.1-0.2,0.2-0.3,0.3
					c0,0-0.1,0.1-0.1,0.1c-0.1,0.1-0.1,0.2-0.2,0.3c0,0-0.1,0.1-0.1,0.1c0,0-0.1,0.1-0.1,0.2c0,0.1-0.2,0.3-0.3,0.2
					c-0.1,0.1-0.2,0.2-0.3,0.4c-0.2-0.3-0.3-0.6-0.5-0.9c0,0,0.1,0,0.1,0c-0.2-0.3-0.4-0.7-0.5-1.1c0,0,0,0-0.1,0
					c0-0.1,0-0.2-0.1-0.3c0-0.1-0.1-0.1-0.1-0.2c-0.1-0.1-0.1-0.1,0-0.2c0.1-0.2,0.4-0.3,0.5-0.5c0,0,0.1-0.1,0.1-0.1
					c0.1,0,0.3-0.3,0.3-0.4c0.1,0,0.4-0.2,0.4-0.3c0,0,0-0.1,0.1-0.1c0.2-0.2,0.4-0.3,0.6-0.5c0.1-0.1,0.2-0.2,0.3-0.3
					c0,0,0.1,0,0.1-0.1c0,0,0.1-0.1,0.1-0.2c0,0,0.1,0,0.2-0.1c0,0-0.1,0-0.1-0.1c0.2,0,0.2-0.3,0.4-0.3c0,0,0.1-0.2,0.2-0.3
					c0,0,0-0.1,0-0.1c0.2,0,0.3-0.3,0.5-0.3c0,0,0-0.1,0-0.1c0.2-0.2,0.4-0.4,0.6-0.5c0.1-0.1,0.2-0.2,0.3-0.4
					c0.1-0.1,0.3-0.2,0.5-0.1c0.1,0,0.3,0.1,0.4,0.1c0,0,0,0,0,0.1c0.1-0.1,0.2,0,0.3,0c0.1,0,0.1,0.1,0.2,0.1c0.2,0,0.3,0,0.5,0.1
					c0-0.3-0.1-0.5-0.1-0.7c-0.1,0-0.1-0.1-0.1-0.2c0-0.1,0-0.2-0.1-0.2c0,0,0,0,0,0C56,53.5,56,53.2,55.9,53
					c-0.1-0.2-0.2-0.4-0.2-0.6c0,0-0.1,0-0.1,0c-0.1,0-0.3,0-0.4,0.2c-0.3,0-0.4,0.3-0.6,0.4c-0.1,0-0.3,0.2-0.4,0.3
					c0,0-0.1,0-0.2,0.1c0,0,0,0.1,0,0.1c-0.2,0.1-0.3,0.2-0.5,0.3c-0.2,0.1-0.3,0.3-0.5,0.4c-0.1,0.1-0.2,0.1-0.3,0.2
					c-0.1,0.1-0.3,0.2-0.4,0.3c-0.2,0.1-0.3,0.3-0.5,0.4c-0.1,0.1-0.2,0.2-0.4,0.3c-0.3,0.1-0.4,0.3-0.7,0.5
					c-0.2,0.1-0.4,0.3-0.6,0.4c-0.1,0-0.1,0.1-0.2,0.1c-0.1,0-0.2,0-0.3,0c0-0.2,0-0.3-0.1-0.5c0-0.1,0.1-0.2,0-0.2
					c0-0.1,0.1-0.1,0.1-0.2c0,0-0.1,0-0.1,0c0,0,0.1,0,0.1-0.1c-0.3,0-0.1-0.2-0.1-0.3c0-0.1,0-0.1,0-0.2c-0.1-0.3-0.1-0.5,0.1-0.7
					c0.1-0.1,0.2-0.3,0.3-0.2c0.1-0.2,0.4-0.2,0.5-0.4c0.2-0.2,0.4-0.3,0.7-0.5c0.1,0,0.2-0.2,0.3-0.3c0.1-0.1,0.3-0.2,0.5-0.4
					c0,0.1,0,0.1-0.1,0.2c0,0,0.1,0,0.1-0.1c0-0.1,0-0.2,0.2-0.2c0.1,0,0.2-0.1,0.3-0.2c0.1-0.1,0.3-0.2,0.4-0.3
					c0.1,0,0.1-0.1,0.2-0.2c0.1,0,0.1,0,0.2-0.1c0.1-0.1,0.2-0.1,0.3-0.2c0.1-0.1,0.3-0.2,0.4-0.3c0,0-0.1,0-0.1,0.1c0,0,0,0,0,0
					c0.1,0,0.1-0.1,0.2-0.1c0.2-0.1,0.3-0.3,0.5-0.3c0,0,0.1-0.1,0.1-0.2c0-0.1,0.1-0.1,0.1-0.2c-0.2-0.1-0.4-0.2-0.7-0.2
					c-0.2-0.1-0.5-0.1-0.7-0.1c-0.1,0-0.2-0.1-0.3-0.1c0,0,0,0,0,0c-0.3,0-0.5-0.1-0.8-0.1c-0.1,0-0.3-0.1-0.4-0.1
					c-0.1-0.1-0.3-0.2-0.5-0.1c0,0-0.1,0-0.2,0c0,0,0,0,0,0c0,0,0,0,0.1,0c0,0-0.1-0.1-0.1,0c-0.2,0-0.2,0-0.1-0.1
					c0-0.1,0-0.3,0.2-0.3c-0.1-0.2,0.2-0.3,0.2-0.4c0.1-0.1,0.1-0.3,0.2-0.4c0,0-0.1,0-0.1,0.1c0,0,0,0,0,0c0.1,0,0.1-0.1,0.2-0.1
					c0.1,0,0.1-0.1,0.2-0.1c0.1,0,0.1,0,0.2,0.1c0,0,0,0,0,0.1c0.1,0,0.2,0,0.3,0c0.1,0,0.2-0.2,0.3,0c0.1-0.1,0.2-0.1,0.4,0
					c0,0,0.1,0,0.1,0c0.1-0.2,0.2,0,0.2,0c0.1,0,0.1-0.1,0.1-0.1c0.1,0,0.3,0,0.4,0c0,0,0.1,0.1,0.1,0.1c0.1,0,0.2,0,0.3,0
					c0.2,0,0.4,0,0.7,0c0.2,0,0.4,0,0.6,0c0.1,0,0.1,0,0.2,0.1c0,0,0-0.1,0-0.1c0.2,0,0.4,0,0.6,0c0.1,0,0.2,0,0.3,0
					c0.1,0,0.3,0,0.4,0c0.1,0,0.2,0,0.3,0c0.1,0,0.1,0,0.2,0c0.2-0.1,0.5-0.1,0.8,0c0.1,0,0.1-0.2,0.2,0c0,0,0,0,0,0
					c0.1,0,0.2-0.1,0.2-0.1c0.1,0,0.2,0.1,0.4,0.1c0.2,0,0.4,0,0.5,0c0.1,0,0.3,0,0.4,0c0.1,0,0.2,0,0.3,0c0.1,0,0.3-0.1,0.3,0
					c0.1,0.1,0.3-0.1,0.4,0.2c0,0,0,0,0,0.1c0,0,0,0,0,0.1c0,0.2-0.1,0.4-0.1,0.6c0,0.1-0.1,0.1-0.1,0.1c0,0.2-0.1,0.3-0.1,0.5
					c0,0.1-0.1,0.3-0.2,0.4c-0.1,0.1,0,0.4-0.2,0.4c0,0.1,0.1,0.1,0.1,0.2c0,0-0.1,0-0.1,0.1c-0.1,0.3-0.1,0.5-0.3,0.8
					c-0.1,0.1-0.2,0.1-0.3,0.1c-0.2-0.1-0.3-0.2-0.5-0.1c0,0-0.1,0-0.2-0.1c0,0,0,0,0-0.1c-0.1,0-0.2,0-0.3,0.1c0,0.2,0,0.3,0,0.5
					c0,0,0,0,0,0.1C59,51.8,59,51.9,59,52c0,0.1,0,0.1,0.1,0.2c0.1,0.2,0.1,0.4,0.3,0.6c0,0,0,0,0,0.1c0,0.2,0.1,0.4,0.2,0.6
					c0-0.1,0-0.1,0-0.1c0.2,0,0.3,0.1,0.5,0.2c0-0.1,0-0.1-0.1-0.2c0.1,0.1,0.2,0.1,0.3,0c0.1-0.1,0.3-0.1,0.4-0.2
					c0.1-0.1,0.3,0,0.5-0.2c0.1-0.1,0.3-0.2,0.4-0.2c0.2,0,0.3-0.2,0.5-0.2c0.1,0,0.3,0,0.3,0.1c0,0.3,0.1,0.5,0.1,0.8
					c0,0,0,0.1,0.1,0.1c0,0.1,0.1,0.3,0.1,0.4c0,0,0,0,0,0c0,0,0.1,0,0.1,0c0,0.2,0.1,0.4,0.1,0.6c0,0.1,0.1,0.2,0.1,0.3
					c0,0,0,0.1-0.1,0.1c0,0,0.1,0.1,0.1,0.1c0,0.1-0.1,0.2-0.1,0.2c-0.1,0-0.2,0-0.4,0c-0.2,0-0.3,0.1-0.5,0.1c-0.1,0-0.2,0-0.3,0
					c-0.1,0.1-0.3,0.1-0.5,0c0,0,0,0.1,0,0.1c-0.1,0-0.2,0-0.2,0c0,0-0.1,0-0.1,0c-0.1-0.1-0.2,0-0.3,0c-0.1,0-0.2,0.1-0.2-0.1
					c0,0.1,0,0.2,0,0.3c0,0,0.1,0.1,0.2,0.1c0,0,0,0-0.1,0c0,0,0,0,0,0c0.2,0,0.4,0,0.5,0c0.1,0,0.1,0.1,0.2,0.1
					c0.1,0,0.2,0.1,0.4,0c0,0,0,0,0.1,0c0.2,0.1,0.4,0.1,0.5,0.1c0.1,0,0.2,0.1,0.3,0.1c0,0,0,0,0-0.1c0.1,0,0.2,0.1,0.3,0.1
					c0.3,0,0.5,0,0.8,0.1c0.1,0,0.2,0,0.3,0c0,0,0.1,0,0.1,0c0,0-0.1,0.1-0.1,0.1c0.1,0,0.2,0,0.2,0c0.2,0,0.3,0,0.5,0
					c0.1,0,0.3,0,0.4,0c0.1,0,0.3,0.1,0.4,0.1c0.1,0,0.2,0,0.2,0c0.2,0,0.4,0.1,0.6,0.1c0,0,0.1,0,0.1,0c0.1,0,0.3,0,0.4,0
					c0.1,0,0.2,0.1,0.3,0.1c0,0.2-0.2,0.5-0.1,0.7c0,0.3-0.1,0.5-0.1,0.7c0,0,0.1,0,0.1,0c0,0,0,0,0,0.1c0,0-0.1,0.1-0.1,0.1
					c0,0.1,0,0.3-0.1,0.3c0,0,0,0.1,0,0.1c0,0.1,0,0.3,0,0.4c0,0.1,0,0.2,0,0.4c0,0.1,0,0.1,0,0.2c0,0-0.1,0-0.1,0
					c0,0.1,0.1,0.1,0.1,0.1c-0.1,0.1-0.1,0.1-0.1,0.1c-0.3-0.1-0.6-0.3-0.9-0.5c-0.2-0.1-0.5-0.2-0.7-0.4c-0.2-0.1-0.5-0.3-0.7-0.3
					c-0.2,0-0.3-0.3-0.5-0.3c0,0-0.1,0-0.1,0c-0.1-0.1-0.2-0.1-0.3-0.2c-0.1,0-0.8-0.3-0.9-0.5c0,0,0,0-0.1,0.1c0,0,0,0,0,0
					c-0.4-0.1-0.7-0.4-1.1-0.5c0,0.3,0.1,0.5,0.2,0.7c0.1,0.1,0.1,0.2,0.1,0.4c0,0.1,0,0.1,0.1,0.2c0.1,0.2,0.2,0.3,0.3,0.5
					c-0.1,0.1-0.1,0.1,0,0.2c0,0,0,0,0,0.1c0.1,0.2,0.2,0.3,0.2,0.5c0,0,0.1,0.1,0.1,0.1c0,0.2,0,0.3,0,0.4c0,0,0.1,0,0.1,0
					c0,0.1,0.1,0.2,0.1,0.3c0.1,0.2,0.2,0.5,0.3,0.7c0,0-0.1,0-0.1,0c0.1,0.2,0.2,0.4,0.3,0.6c0.1,0.2,0.1,0.4,0.1,0.6
					c-0.1,0-0.2,0-0.3,0c-0.1,0.1-0.2,0.2-0.4,0.2c-0.1,0-0.2,0.1-0.3,0.2c-0.2,0.1-0.4,0.1-0.6,0.2c-0.2,0.1-0.5,0.2-0.7,0.3
					c-0.3,0.1-0.6,0.3-0.9,0.4C59.4,64.3,59.2,64.3,59,64.4C59.1,64.4,59,64.4,59,64.4z"/>
			</g>
			<g>
				<path class="st0" d="M76.8,59.8c-0.1-0.1-0.2-0.1-0.2-0.1c-0.1,0-0.2-0.1-0.2-0.2c0-0.1-0.1-0.1-0.1-0.1
					c-0.2-0.1-0.4-0.2-0.4-0.3c-0.1-0.1-0.2-0.1-0.3-0.2c-0.3-0.2-0.6-0.3-0.8-0.6c-0.3-0.3-0.6-0.4-0.9-0.6c0,0-0.1-0.1-0.1-0.2
					c0,0-0.1,0-0.1,0c0-0.1,0-0.2-0.1-0.2c-0.3,0-0.4-0.3-0.6-0.3c-0.1,0-0.2-0.1-0.3-0.2c-0.1,0-0.1-0.1-0.2-0.1
					c-0.1-0.1-0.2-0.2-0.3-0.2c-0.1-0.1-0.2-0.1-0.3-0.2c-0.2-0.1-0.3-0.3-0.4-0.5c0,0,0.1,0,0.1,0c-0.1-0.1-0.1-0.2,0-0.3
					c0.1-0.1,0.1-0.3,0.1-0.4c0-0.2,0-0.4,0.1-0.6c0-0.1,0.1-0.2,0.2-0.3c0-0.1,0-0.1,0-0.2c0.1-0.3,0.1-0.6,0.2-0.9
					c0,0.1,0.1,0.1,0.1,0.2c0,0,0-0.1,0-0.1c-0.1-0.2,0.1-0.4,0-0.6c0,0,0-0.1,0-0.1c0.3-0.2,0.1-0.5,0.2-0.7c0,0,0,0,0.1,0
					c0-0.2,0-0.5,0.1-0.7c0.2-0.2,0.1-0.4,0.1-0.5c0.1-0.2,0.1-0.4,0.2-0.6c0-0.1,0-0.2,0-0.3c0-0.1,0.1-0.2,0.1-0.4
					c0,0,0.1,0,0.1,0c0-0.1,0.1-0.2,0-0.3c0-0.2,0-0.3,0.1-0.4c0.1-0.3,0.3-0.5,0.3-0.7c-0.1-0.4,0.2-0.6,0.2-0.9
					c0-0.2,0.2-0.5,0.2-0.7c0-0.1,0-0.3,0.1-0.4c0-0.1,0.1-0.2,0.1-0.4c0-0.1,0-0.3,0.1-0.4c0-0.1,0.1-0.2,0.2-0.3
					c0.1-0.1,0-0.2,0-0.3c0-0.2,0.1-0.4,0.2-0.5c0-0.2,0-0.4,0.1-0.5c0.1-0.2,0.2-0.3,0.2-0.5c0,0,0-0.1,0-0.2c0,0,0.1-0.1,0.1-0.1
					c-0.1,0-0.1,0-0.1,0c0-0.1,0-0.1,0.1-0.2c0-0.1,0-0.2,0-0.3c0-0.2,0.1-0.4,0.2-0.6c0-0.1-0.1-0.2-0.1-0.3
					c-0.2,0-0.4,0.1-0.6,0.2c-0.1,0.1-0.3,0.1-0.4,0.1c-0.1,0-0.2,0.1-0.3,0.2c-0.1,0.1-0.2,0.1-0.2,0c-0.2,0.1-0.4,0.2-0.5,0.3
					c-0.1,0.1-0.3,0.1-0.4,0.2c-0.2,0.1-0.3,0.1-0.5,0.2c-0.2,0.1-0.4,0.2-0.5,0.2c-0.1,0.1-0.2,0.1-0.3-0.1
					C71,42.3,71,42.1,71,41.8c0-0.3-0.1-0.5-0.1-0.8c0-0.3-0.2-0.6-0.1-0.9c0-0.2-0.1-0.3-0.2-0.5c0-0.1,0-0.2,0-0.3
					c0-0.1,0-0.2,0-0.3c-0.1-0.3-0.1-0.7-0.2-1c0-0.2-0.1-0.4,0-0.6c0.1-0.2,0.2-0.3,0.4-0.2c0.1,0,0.2,0.1,0.3,0c0,0,0,0-0.1,0
					c0,0,0,0,0-0.1c0.1,0,0.3,0,0.4,0.1c0.2-0.1,0.5-0.1,0.8,0c0,0,0,0,0,0c0.2,0,0.4,0,0.6,0c0.2,0,0.4-0.1,0.7,0
					c0.2,0,0.4,0,0.6-0.1c0.1,0,0.2,0,0.3,0c0.3,0,0.3-0.1,0.3-0.3c0-0.2,0-0.3-0.2-0.5c0,0,0-0.1,0-0.1c0-0.1,0-0.2-0.1-0.3
					c-0.1-0.1-0.1-0.2-0.1-0.3c0-0.1-0.1-0.1-0.1-0.2c0,0,0-0.1-0.1-0.1c0-0.1,0-0.2,0-0.2c0-0.1-0.1-0.2-0.1-0.3c0,0-0.1,0-0.1-0.1
					c0-0.2-0.1-0.4-0.2-0.6c0-0.1,0-0.1,0-0.2c0,0-0.1-0.1-0.1-0.1c0-0.3-0.2-0.4-0.3-0.6c-0.1-0.3-0.2-0.5-0.3-0.7
					c0,0,0.1,0,0.1-0.1c-0.1-0.1-0.2-0.2-0.2-0.3c0-0.1,0-0.1,0-0.2c0.1,0,0.2-0.1,0.4-0.1c0.3,0,0.5,0,0.8-0.1c0,0,0,0,0-0.1
					c0.3,0.1,0.5,0.1,0.7-0.1c0.1,0.1,0.2,0,0.3,0c0,0,0.1,0,0.1,0c0.1,0.1,0.2,0,0.2,0c0.1-0.1,0.2,0,0.3,0c0.1,0,0.2-0.1,0.3-0.1
					c0.1,0,0.1,0,0.2,0c0,0,0-0.1,0-0.1c0.1,0,0.1,0.1,0.2,0.1c0,0,0,0,0-0.1c0.1,0,0.2,0,0.3-0.1c0.1,0,0.1,0,0.2-0.1
					c0,0,0.1-0.1,0.1,0c0.1,0.1,0.3-0.1,0.4,0c0.1,0.1,0.1,0.1,0.2,0.1c0,0,0-0.1,0-0.1c0,0,0.1,0.1,0.1,0.1c0.2,0,0.3-0.1,0.5-0.1
					c0,0,0,0.1,0,0.1c0,0,0.1,0,0.2,0c0,0,0,0,0,0.1c-0.1,0.1-0.1,0.3-0.1,0.5c0,0.2-0.1,0.3-0.1,0.5c0,0.1,0,0.2-0.1,0.3
					c0,0.1,0,0.2,0,0.3c0,0.1,0,0.2,0,0.3c0,0,0,0.1,0,0.1c-0.3,0.1,0,0.2,0,0.2c-0.1,0.1-0.1,0.2-0.1,0.2c0,0.1,0.1,0.2,0.1,0.2
					c-0.2,0.2-0.1,0.4-0.1,0.5c0,0.1-0.1,0.2-0.1,0.4c0,0.1,0,0.2,0,0.2c-0.2,0.2-0.1,0.4-0.1,0.6c0,0,0,0.1,0,0.2
					c0,0-0.1-0.1-0.1-0.1c0,0,0,0-0.1,0c0,0.2,0,0.3,0,0.5c0,0.2-0.2,0.3-0.3,0.4c-0.4,0.1-0.8,0.2-1.3,0.4c0,0,0,0,0,0
					c0.3,0,0.5,0,0.8,0c0,0,0.1,0.1,0.1,0.1c0.2,0,0.4,0,0.6,0c0.2,0,0.5,0,0.7,0c0.1,0,0.2-0.1,0.3-0.1c0,0.1,0,0.1,0,0.1
					c0.1-0.2,0.3,0,0.4-0.1c0.2,0,0.3,0,0.5,0c0.1,0,0.2-0.1,0.3-0.1c0.2,0,0.4,0,0.6,0c0.1,0,0.3,0,0.4,0c0.1-0.1,0.2-0.2,0.2-0.3
					c0.1-0.1,0.1-0.2,0-0.3c0,0,0-0.2,0-0.2c0-0.1,0.1-0.2,0.1-0.2c0-0.1,0-0.2,0-0.3c0-0.2,0.1-0.5,0.1-0.7c0-0.2,0.1-0.3,0-0.5
					c0-0.1,0.1-0.2,0.1-0.3c0-0.2-0.2-0.4,0.1-0.6c0,0,0,0,0-0.1c0-0.1,0-0.1,0.1-0.1c-0.1-0.1-0.1-0.3,0-0.3c0-0.1,0-0.2,0-0.3
					c0.1-0.2,0.1-0.4,0.1-0.6c0-0.2,0.1-0.5,0.1-0.7c0-0.1,0.1-0.1,0.2-0.2c0,0.1,0,0.1,0,0.1c0.1-0.1,0.3-0.2,0.4-0.2
					c0.1,0,0.2,0,0.3,0c0.1,0,0.2,0,0.2-0.1c0,0,0.1,0,0.1,0c0.2,0.1,0.2,0,0.3-0.1c0.1,0,0.2,0,0.4,0c0.1,0,0.2,0.1,0.3,0.1
					c0.1,0.2,0.2,0.5,0.2,0.7c0,0.1,0,0.2,0,0.3c0,0.1,0,0.1,0.1,0.2c0.1,0.1,0.2,0.1,0.1,0.3c0,0,0.1,0.1,0.1,0.1c0,0-0.1,0-0.1,0
					c0.1,0.1,0.1,0.1,0.2,0.2c0,0-0.1,0-0.1,0.1c0,0,0,0,0,0c0.2,0,0.3,0,0.5,0c0,0,0.1-0.1,0.1-0.1c0.1-0.2,0.3-0.1,0.4-0.2
					c0.1-0.1,0.1-0.2,0.2-0.2c0.1-0.1,0.2-0.1,0.3-0.1c0.2-0.1,0.4-0.2,0.6-0.3c0.1,0,0.1-0.1,0.2-0.1c0.1-0.1,0.3-0.1,0.4-0.2
					c0,0,0-0.1-0.1-0.1c0.1-0.1,0.3-0.1,0.4-0.1c0,0,0.1,0,0.1,0c0,0,0-0.1,0.1-0.1c0.2-0.1,0.4-0.1,0.6-0.2
					c0.1-0.1,0.3-0.1,0.4-0.3c0.1-0.1,0.2-0.1,0.3-0.1c0.3-0.1,0.5-0.3,0.8-0.5c0.2-0.1,0.4-0.2,0.6-0.2c0,0-0.1-0.1-0.1-0.1
					c0.2-0.1,0.5-0.2,0.7-0.4c0.1,0,0.2-0.1,0.3-0.2c0,0,0,0,0,0c0.3,0,0.6-0.3,0.8-0.5c0.1-0.1,0.3-0.1,0.4-0.1c0,0,0.1,0,0.1-0.1
					c0.1-0.1,0.2-0.1,0.3,0c0.2,0.3,0.4,0.5,0.4,0.9c0,0.1,0.1,0.3,0.2,0.4c0,0.1,0.1,0.2,0.1,0.3c0.1,0,0.2,0.2,0.2,0.4
					c0.1,0,0.1,0.1,0.2,0.1c0,0.1-0.1,0.1-0.1,0.1c0.1,0.2,0.3,0.3,0.3,0.5c0.1,0.1,0.1,0.2,0.2,0.3c0.1,0.2,0.1,0.5,0.2,0.7
					c0.1,0.2,0.1,0.4,0.3,0.6c0,0.1,0,0.1,0,0.2c0.1,0.1,0.1,0.1,0.2,0.2c-0.1,0-0.1,0.1-0.2,0.1c-0.4,0-0.7,0.1-1.1,0.1
					c-0.3,0-0.7,0.2-1,0.1c-0.3,0-0.5,0.2-0.8,0c0,0-0.1,0-0.2,0c-0.2,0-0.5,0.1-0.7,0.1c-0.1,0-0.1-0.1-0.2,0c-0.1,0-0.2-0.1-0.3,0
					c-0.1,0-0.3,0-0.4,0.1c-0.2,0-0.4,0-0.6,0.1c-0.1,0-0.1,0-0.2,0c-0.1-0.1-0.2,0-0.3,0c-0.2,0.1-0.3,0.2-0.5,0c0,0-0.1,0-0.1,0
					c-0.1,0-0.2,0.1-0.2,0.1c-0.2-0.1-0.3,0-0.5,0c-0.1,0-0.2,0.2-0.2,0c-0.1,0-0.1,0.1-0.1,0.1c-0.2,0-0.4,0.1-0.6,0.1
					c-0.1,0-0.2-0.1-0.3-0.1c-0.2,0-0.3,0.1-0.5,0.1c0,0-0.1,0-0.1,0c-0.2,0-0.5,0-0.7,0c-0.1,0-0.2,0.1-0.4,0.1
					c0.1,0.5,0.2,1,0.3,1.5c0,0,0,0,0,0c0,0,0,0.1,0,0.1c0,0.1,0.1,0.2,0.1,0.3c0,0.2,0.3,0.4,0.1,0.6c0,0,0,0.1,0.1,0.2
					c0.1,0.1,0.1,0.3,0.2,0.4c-0.3-0.1-0.6,0.3-0.8,0c-0.3,0.2-0.8,0.2-0.9,0.1c-0.5,0.2-1,0-1.4,0.2c0.1,0.2-0.1,0.4-0.3,0.5
					c-0.2,0.1-0.4,0.2-0.7,0.3c-0.1,0-0.1,0.1-0.2,0.1c-0.1,0-0.2,0-0.3,0.1c-0.1,0.1-0.3,0.2-0.4,0.3c0,0-0.1,0-0.2-0.1
					c-0.1,0.2-0.3,0.2-0.5,0.3c0,0-0.1,0-0.1,0.1c0,0-0.1,0.1-0.1,0.1c-0.1,0-0.2,0-0.3,0.1c0,0-0.2,0-0.2,0
					c-0.2,0.1-0.3,0.2-0.5,0.2c-0.2,0-0.5,0.2-0.5,0.4c-0.1,0.2,0,0.4,0,0.6c0,0.1,0,0.2,0,0.2c0,0.1,0,0.1,0,0.2c0,0.1,0,0.1,0,0.2
					c0,0.2,0,0.4,0,0.5c-0.1,0.1,0,0.3,0,0.5c0,0.1,0,0.2,0,0.3c0,0,0.1,0,0.1,0c0,0.1-0.1,0.1-0.1,0.2c0,0.2,0,0.4,0,0.7
					c0,0.1,0,0.3,0,0.4c0,0.3-0.1,0.6-0.1,0.8c0,0.1,0,0.2,0,0.3c0,0.1-0.1,0.2-0.1,0.4c0,0.1,0,0.3,0,0.4c0,0,0,0.1-0.1,0.1
					c0.3,0.1,0.1,0.4,0.1,0.6c0,0.1,0,0.2,0,0.3c0,0.1,0,0.2-0.1,0.3c0,0,0,0,0,0c0.1,0.2,0,0.3,0,0.5c0,0.2,0,0.3,0,0.5
					c0,0.2,0.1,0.3,0.3,0.3c0.2,0,0.3,0.1,0.5,0.1c0.2,0,0.5,0,0.7,0c0.2,0,0.4,0,0.6,0c0.3,0,0.5,0,0.8,0.1c0.2,0,0.3,0.1,0.5,0.1
					c0.1,0,0.2,0,0.2,0c0.1,0,0.2,0,0.2,0c0,0,0,0,0-0.1c0.1,0,0.2,0,0.4,0.1c0.2,0,0.4,0,0.5,0c0.1,0,0.1,0.1,0.2,0.1
					c0.1,0.2,0.3,0.4,0.3,0.7c0,0.3,0.3,0.4,0.3,0.7c0,0.1,0,0.1,0,0.2c0,0,0.1,0,0.1,0c0,0.1,0,0.2-0.1,0.3c0,0,0,0,0.1,0
					c0,0.3,0.3,0.5,0.4,0.8c0,0,0,0.1,0.1,0.1c0.1,0.2,0.1,0.5,0.2,0.6c0.1,0.1,0.1,0.2,0.1,0.4c0,0,0,0.1,0,0.1
					c0.3,0,0.1,0.4,0.3,0.5c0,0,0,0.1,0.1,0.2c0,0,0,0-0.1,0c0,0,0,0,0.1,0c0,0,0.1,0.1,0.1,0.1c0,0.2,0,0.4,0.2,0.5
					c0,0,0.1,0.1,0.1,0.2c0.1,0.2,0.2,0.5,0.2,0.8c0,0.1,0,0.1,0,0.1c-0.1,0.1-0.3,0.2-0.4,0.3c-0.1,0-0.2,0-0.2,0
					c-0.1,0-0.1,0.1-0.2,0.2c-0.1,0.1-0.2,0.1-0.3,0.2c0,0-0.1,0-0.1,0c-0.1,0.3-0.5,0.2-0.7,0.4c0,0-0.1,0-0.1,0
					c-0.1,0.1-0.2,0.1-0.3,0.1c-0.2,0.1-0.2,0-0.2,0.2c-0.1,0-0.3-0.1-0.3,0.2c0,0-0.1,0.1-0.1,0.1c-0.2,0.1-0.4,0.2-0.5,0.2
					c-0.2,0.1-0.4,0.2-0.6,0.4c0,0-0.1,0-0.2,0c0-0.3,0-0.7,0-1c0-0.2,0.1-0.4,0.1-0.6c0-0.1,0-0.1,0-0.2c0,0,0-0.1,0-0.1
					c0-0.2-0.1-0.3,0.1-0.4c0-0.1,0-0.3,0-0.4c0,0,0,0,0,0c0-0.1,0-0.1,0-0.2c0.1-0.2,0-0.2,0-0.4c0-0.1,0-0.2,0-0.2
					c0-0.1,0-0.2,0-0.3c0,0,0,0,0.1,0c0,0-0.1-0.1-0.1-0.1c0,0,0.1-0.1,0.1-0.1c0-0.2-0.1-0.4,0-0.6c0.1-0.2,0-0.5,0.1-0.7
					c0.1-0.2,0-0.4,0-0.6c0-0.1-0.1-0.1-0.2-0.1c-0.1,0-0.3-0.1-0.5,0c-0.1,0.1-0.3,0-0.4,0c0,0-0.1,0-0.1,0c-0.3,0.2-0.6,0.1-0.9,0
					c-0.1,0-0.1,0.1-0.2,0.1c0,0-0.1,0-0.1,0c-0.1-0.1-0.3,0-0.4,0c-0.1,0-0.3,0-0.5,0c0,0.4-0.1,0.8-0.1,1.3c0,0,0.1,0,0.1,0
					c0,0.3-0.1,0.7-0.1,1c0,0,0,0-0.1,0c0.2,0.1,0.2,0.3,0.1,0.5c-0.1,0.1,0,0.3,0,0.5c0,0.2,0,0.4,0,0.7c0,0.2,0.1,0.5-0.1,0.7
					c0,0,0,0,0,0.1c0.1,0.2-0.1,0.4,0.1,0.7c0,0,0,0.2,0,0.3c0,0.3-0.1,0.6-0.1,0.9c0,0.1,0,0.2,0,0.3c0,0.1,0,0.2-0.1,0.3
					c0,0,0,0.1,0,0.1c0.1,0.1,0,0.1,0,0.2c0.1,0.1,0.1,0.1,0.2,0.2c-0.1,0-0.1,0-0.2,0c0,0.2,0,0.3,0,0.5c0,0.1,0,0.3,0,0.4
					c0,0.1-0.1,0.1-0.2,0.1C76.9,59.9,76.8,59.8,76.8,59.8z"/>
				<path class="st0" d="M93.3,49.8c0,0.2,0.2,0.4,0.1,0.6c-0.1,0.2,0.1,0.4,0,0.6c-0.1,0.3,0.2,0.6,0,0.9c0.2,0.2-0.1,0.5,0.1,0.7
					c0,0,0,0.2,0,0.3c0,0.1,0,0.2,0,0.3c0,0.1,0,0.1,0,0.2c0,0.1,0.1,0.2,0.1,0.3c-0.1,0.1,0,0.3,0,0.4c0,0.1-0.1,0.3,0,0.4
					c0.1,0.2-0.1,0.5,0.1,0.7c0,0,0,0.1-0.1,0.1c0,0-0.1,0-0.1,0.1c0.2,0,0.2,0,0.2,0.2c0,0.1,0,0.3,0,0.4c0,0.1,0,0.3,0,0.4
					c0,0.1,0,0.2,0,0.3c0,0-0.1,0-0.1,0c-0.1,0.2-0.3,0.1-0.4,0.1c-0.2,0-0.4,0-0.6,0c-0.1,0-0.3-0.1-0.4-0.1c-0.1,0-0.3,0-0.4,0
					c0,0-0.1,0-0.1,0c0,0,0-0.1,0-0.1c-0.2,0-0.4,0-0.6,0c0,0,0,0,0,0c-0.2,0.1-0.4,0-0.6-0.1c-0.1,0-0.1,0-0.2,0
					c-0.1,0-0.2,0-0.4-0.1c-0.2,0-0.3,0-0.5,0c-0.1,0-0.2-0.1-0.4-0.1C89,56.4,89,56.4,89,56.3c-0.5,0.1-1.1-0.1-1.6-0.2
					c0-0.1,0-0.2,0-0.3c0-0.1,0-0.2,0.1-0.3c0-0.1,0.1-0.1,0.1-0.2c0-0.3,0.1-0.5,0.2-0.8c0,0,0-0.1,0-0.1c0.1-0.2,0.1-0.4,0.2-0.6
					c0.1-0.2,0-0.4,0.2-0.5c0,0,0,0,0-0.1c-0.1-0.2,0-0.3,0-0.5c0-0.1,0.3-0.3,0.1-0.4c0.2-0.1,0.1-0.3,0.1-0.5
					c0.1-0.1,0.1-0.3,0.1-0.4c0.1-0.2,0.1-0.5,0.1-0.7c0-0.1,0.1-0.1,0.1-0.2c0.1-0.2,0.1-0.5,0.1-0.7c0-0.2,0-0.3,0.1-0.5
					c0.1-0.1,0.1-0.2,0.1-0.4c0,0,0,0-0.1,0c0,0,0.1-0.1,0.1-0.1c0-0.1,0.2-0.1,0-0.2c0,0,0-0.2,0-0.2c0.1-0.1,0-0.2,0.1-0.3
					c0-0.1,0.2-0.2,0.2-0.4c0-0.4,0.2-0.9,0.2-1.3c0,0,0,0,0,0c-0.1,0-0.2,0-0.3,0c0,0,0.1-0.1,0.1-0.1c-0.3,0-0.6-0.1-0.8-0.1
					c0,0-0.1,0-0.1,0c-0.1,0-0.2,0-0.3-0.1c0,0-0.1,0-0.1,0c-0.3,0-0.5,0-0.8,0c0,0-0.1-0.1-0.1-0.1c-0.1,0-0.1,0-0.2,0
					c-0.2-0.2-0.3-0.3-0.2-0.6c0-0.1-0.1-0.3-0.1-0.4c0.1,0,0.3,0.2,0.3-0.1c0,0,0.1,0,0.1,0c0.1,0,0.3-0.1,0.4-0.1
					c0.1,0,0.3-0.1,0.4,0c0.1,0,0.1,0,0.2-0.1c0.2-0.1,0.3-0.1,0.5-0.1c0,0,0,0,0.1,0.1c0,0,0-0.1,0-0.1c0.1,0,0.2,0.1,0.3,0.1
					c0,0,0-0.1,0-0.1c0.1,0,0.1,0.1,0.2,0.1c0-0.1,0.1-0.1,0.1-0.1c0.2,0,0.3,0,0.5-0.1c0.1,0,0.3-0.1,0.4-0.1c0,0,0,0,0,0.1
					c0.1-0.2,0.2-0.4,0.4-0.6c0-0.1,0-0.2-0.1-0.3c0.1,0,0.1,0,0.2,0.1c-0.1-0.2-0.1-0.5,0.1-0.6c-0.2-0.1,0-0.2,0-0.4
					c0-0.2,0-0.5,0.2-0.6c0.3-0.2-0.1-0.5,0-0.7c0,0,0,0-0.1,0c-0.1,0-0.2,0-0.2,0c-0.1,0-0.2,0.1-0.3,0.1c-0.1,0-0.1,0.1-0.1,0.1
					c-0.1,0-0.1,0.1-0.2,0.1c0,0-0.1,0-0.1,0c-0.1,0.2-0.3,0.2-0.5,0.2c0,0-0.1,0-0.1,0c-0.1,0.3-0.3,0.1-0.4,0.1c0,0,0,0-0.1,0
					c0,0-0.1,0-0.1,0c-0.1-0.1-0.1-0.2-0.2-0.3c0,0,0-0.1,0-0.1c-0.1-0.2-0.2-0.4-0.2-0.6c-0.1-0.2-0.2-0.2-0.2-0.5
					c-0.1,0.1-0.1,0.1-0.1,0.1c-0.1-0.1-0.1-0.2-0.2-0.4c0,0.2-0.1,0.3-0.1,0.5c0,0.1,0,0.1,0,0.2c-0.1,0.1-0.2,0.1,0,0.2
					c0,0,0.1,0.2,0,0.2c-0.1,0.3,0.1,0.6,0,0.9c0,0,0.1,0.1,0,0.1c0,0.1,0,0.3,0,0.4c0,0,0,0-0.1,0c0,0,0-0.1,0-0.1
					c-0.1,0-0.2,0-0.3,0c-0.1,0-0.2-0.1-0.3-0.1c-0.1,0-0.1-0.1-0.2-0.1c-0.1-0.1-0.2-0.1-0.3-0.2c-0.1,0-0.2-0.1-0.3-0.1
					c-0.2-0.1-0.3-0.3-0.5-0.2c-0.2-0.3-0.6-0.3-0.8-0.4c-0.2-0.1-0.3-0.2-0.5-0.4c0.3-0.4,0.6-0.8,0.9-1.3c0,0,0,0,0,0
					c0.1-0.1,0.1-0.2,0.2-0.3c0.2-0.2,0.4-0.4,0.5-0.6c0.1-0.1,0.1-0.4,0.2-0.4c0.3-0.1,0.1-0.5,0.4-0.6c0.1,0,0.1-0.2,0.1-0.3
					c0-0.2,0.1-0.2,0.2-0.1c0.1-0.1,0.1-0.3,0.2-0.4c0.1,0,0.2,0,0.3,0c0,0-0.1,0.1-0.1,0.1c0.2,0.1,0.1,0.3,0.1,0.5
					c0,0.2,0,0.5,0.1,0.7c0,0.2,0.2,0.2,0.4,0.2c0.2,0.1,0.4,0.1,0.6,0c0.3-0.1,0.5,0.1,0.7,0c0.1,0,0.1,0,0.2,0
					c0.1,0.1,0.1,0.1,0.3,0.1c0.1,0,0.3,0,0.4,0c0,0,0.1,0,0.1,0c0,0,0,0,0.1,0.1c0,0,0.1-0.1,0.1-0.1c0,0,0,0,0,0.1
					c0.2,0,0.5,0,0.7,0c0,0,0,0,0,0.1c0.2,0,0.4,0,0.6,0c0,0,0.1,0,0.1,0c0,0,0.1,0,0.1,0c0.2,0.2,0.3,0,0.5,0c0.1,0,0.3,0,0.4,0
					c0.2,0,0.4,0,0.5,0c0.4,0,0.8,0,1.2,0c0.2,0,0.5,0.2,0.5,0.4c0,0.2,0.1,0.2,0.3,0.2c-0.1,0.1-0.1,0.1-0.1,0.1
					c0,0.1,0.1,0.1,0.1,0.1c-0.1,0.2-0.4,0.3-0.7,0.3c0,0.3-0.3,0.3-0.5,0.3c-0.2,0-0.3,0.1-0.3,0.1c-0.2,0.1-0.3,0.2-0.5,0.2
					c-0.1,0-0.2,0.1-0.2,0.1c-0.1,0-0.2,0.1-0.2,0.1c0,0.1-0.1,0.3-0.1,0.5c0.1,0.1,0.2,0.3,0,0.5c-0.1,0.1,0.1,0.3,0.1,0.5
					c0,0.3,0,0.6,0,0.9c0,0.2,0,0.5,0.1,0.7c0,0.2,0.2,0.2,0.3,0.2c0.2,0,0.4-0.1,0.7-0.1c0.2,0,0.3-0.1,0.5-0.1
					c0.2,0,0.3,0,0.5-0.1c0.2,0,0.4-0.1,0.6-0.2c0,0,0.1,0,0.1,0c0.2,0,0.5-0.1,0.7-0.1c0,0.1,0,0.2,0.1,0.1c0,0.1,0.1,0.3,0.1,0.4
					c0,0.2,0,0.3,0,0.5c0,0,0,0.1,0,0.1c0,0.1,0,0.1,0,0.2c-0.1,0.1-0.1,0.2,0,0.3c0.1,0.2,0,0.4,0,0.6c0,0,0,0.1,0,0.1
					c0,0,0.1,0.1,0,0.1c-0.1,0.2,0.1,0.4-0.1,0.7c0,0,0.1,0.2,0.1,0.3c0,0.3,0.1,0.6,0,0.8c0,0.1,0,0.2,0.1,0.2c0.1,0,0.2,0,0.3,0
					c0.1,0,0.2,0,0.3,0c0.1,0,0.2,0,0.3,0c0.2,0,0.4,0,0.6,0.1c0.1,0.1,0.3,0.1,0.5,0.2c0.2,0.1,0.3,0.1,0.5,0.2c0,0,0,0.1,0,0.1
					c0.3-0.1,1.1,0.9,1,1.1c0,0,0.1,0,0.1,0c0,0.3,0.3,0.5,0.3,0.8c0,0.2,0.1,0.3,0.1,0.5c0,0.2,0,0.4,0,0.6c0,0.1,0,0.3-0.1,0.4
					c0,0,0,0,0.1,0c0,0-0.1,0.1-0.1,0.1c0,0.1,0.1,0.2-0.1,0.3c-0.1,0-0.1,0.2-0.1,0.3c-0.1,0.3-0.1,0.5-0.4,0.7
					c-0.1,0-0.1,0.1-0.2,0.2c-0.2,0.3-0.4,0.4-0.7,0.5c-0.1,0.1-0.2,0.2-0.3,0.2c-0.1,0.1-0.3,0.2-0.4,0.2c-0.2,0-0.3,0.2-0.4,0
					c0,0-0.1,0.1-0.2,0.1c-0.1,0-0.3,0-0.4,0c-0.1,0-0.2,0-0.3,0c-0.1,0-0.2-0.1-0.2-0.1c-0.2,0-0.3,0-0.5-0.1
					c-0.3-0.1-0.7-0.2-0.9-0.5c-0.1-0.1-0.3-0.3-0.4-0.4c-0.2-0.2-0.4-0.4-0.5-0.6c-0.1-0.3-0.2-0.6-0.2-0.9c0-0.1-0.1-0.1-0.1-0.2
					c0-0.1,0-0.3,0-0.5c0-0.1,0-0.2,0-0.3c0-0.1,0-0.2,0-0.3c0-0.2,0.1-0.3,0.2-0.4c0.1-0.2,0.1-0.3,0.1-0.5
					c0.2-0.4,0.5-0.7,0.8-1.1c0.2,0.1,0.2-0.3,0.5-0.2c0.1,0,0.2-0.2,0.3-0.3c0.1-0.1,0.2-0.1,0.3-0.1c-0.2-0.1-0.4-0.2-0.5-0.3
					c-0.2,0.1-0.5-0.1-0.8-0.1c-0.1,0.1-0.1,0.1-0.3-0.1c-0.1,0-0.2,0-0.3,0c-0.1,0-0.1,0-0.2,0c-0.1,0-0.2,0.1-0.2-0.1
					c0,0-0.1,0-0.2,0c0,0,0,0-0.1-0.1c-0.2,0.1-0.5,0.1-0.5,0.4c0,0.1,0,0.2,0,0.2c0,0.2,0,0.3,0,0.5c0,0.1,0.1,0.2,0,0.3
					c0.1,0-0.1,0.2,0,0.2c0,0,0.1,0.2,0.1,0.3c0,0.3,0,0.5,0.1,0.8C93.4,49.6,93.3,49.7,93.3,49.8z"/>
			</g>
		</g>
	</g>
	<g>
		<path class="st0" d="M35.9,70.4c-0.1-0.1-0.3-0.2-0.4-0.3c-0.1-0.2-0.2-0.4-0.2-0.6c0-0.2-0.1-0.5,0-0.7c0-0.3,0.1-0.5,0.2-0.7
			c0.1-0.2,0.2-0.4,0.3-0.6c0.1-0.2,0.3-0.3,0.5-0.3c0.2-0.1,0.4-0.1,0.6-0.1c0.2,0,0.3,0.1,0.4,0.1c0.1,0.1,0.2,0.2,0.4,0.3l0,0.1
			l-0.2,0.7h0c-0.1-0.1-0.3-0.1-0.4-0.1c-0.2,0-0.3,0.1-0.5,0.3l0,0.1h0.1c0.1,0,0.2-0.1,0.4,0c0.2,0.1,0.4,0.2,0.5,0.4
			c0.2,0.2,0.2,0.5,0.2,0.8c0,0.3-0.1,0.5-0.3,0.7c-0.1,0.1-0.3,0.2-0.5,0.2c-0.2,0-0.4,0.1-0.6,0C36.2,70.5,36,70.5,35.9,70.4z
			 M36.9,69.6l0-0.1l-0.1-0.2c-0.1-0.1-0.2-0.1-0.2-0.1l-0.2,0.1l-0.1,0.2l0.1,0.2c0.1,0.1,0.2,0.1,0.3,0.1l0.1-0.1L36.9,69.6z"/>
		<path class="st0" d="M40.8,70.4c-0.1-0.1-0.3-0.2-0.4-0.3c-0.1-0.2-0.2-0.4-0.2-0.6c0-0.2-0.1-0.5,0-0.7c0-0.3,0.1-0.5,0.2-0.7
			c0.1-0.2,0.2-0.4,0.3-0.6c0.1-0.2,0.3-0.3,0.5-0.3c0.2-0.1,0.4-0.1,0.6-0.1c0.2,0,0.3,0.1,0.4,0.1c0.1,0.1,0.2,0.2,0.4,0.3l0,0.1
			l-0.2,0.7h0c-0.1-0.1-0.3-0.1-0.4-0.1c-0.2,0-0.3,0.1-0.5,0.3l0,0.1h0.1c0.1,0,0.2-0.1,0.4,0c0.2,0.1,0.4,0.2,0.5,0.4
			c0.2,0.2,0.2,0.5,0.2,0.8c0,0.3-0.1,0.5-0.3,0.7c-0.1,0.1-0.3,0.2-0.5,0.2c-0.2,0-0.4,0.1-0.6,0C41.1,70.5,40.9,70.5,40.8,70.4z
			 M41.9,69.6l0-0.1l-0.1-0.2c-0.1-0.1-0.2-0.1-0.2-0.1l-0.2,0.1l-0.1,0.2l0.1,0.2c0.1,0.1,0.2,0.1,0.3,0.1l0.1-0.1L41.9,69.6z"/>
		<path class="st0" d="M45.8,69H45v-0.1l0.1-0.9l0.7-0.1l0-0.7H46l0.6,0v0.5l0,0.2h0.7l0.1,0.9h-0.8l0,1.5l-0.7,0.1V69z"/>
		<path class="st0" d="M49.9,70.1L49.8,67l0.1,0l0.9,0.1v1.3h0c0.1-0.1,0.2-0.2,0.4-0.2c0.1,0,0.3-0.1,0.4-0.1
			c0.2,0,0.4,0.1,0.6,0.3c0.2,0.2,0.3,0.4,0.3,0.7c0,0.2,0.1,0.5,0,0.8l-0.1,0.7l-0.8,0v0c0.1-0.2,0.1-0.5,0.1-0.7
			c0-0.3-0.1-0.5-0.2-0.7C51.5,69,51.4,69,51.2,69c-0.1,0-0.2,0.1-0.3,0.2l-0.1,0.1v1.1l-1,0.1V70.1z"/>
		<path class="st0" d="M59.7,70.3c-0.1-0.1-0.3-0.2-0.4-0.3v0l0.3-0.6h0c0.1,0.1,0.3,0.1,0.4,0.1l0.1-0.2c-0.1-0.1-0.2-0.2-0.3-0.3
			c-0.2-0.1-0.3-0.2-0.3-0.3c0-0.1-0.1-0.3,0-0.4c0-0.3,0.1-0.5,0.3-0.6c0.2-0.2,0.5-0.2,0.8-0.2c0.2,0,0.3,0.1,0.5,0.1
			c0.1,0.1,0.3,0.1,0.5,0.2v0.1l-0.2,0.7h0c-0.2-0.1-0.4-0.2-0.6-0.2l-0.1,0.1l0,0.3c0.1,0.2,0.2,0.3,0.4,0.3
			c0.2,0.1,0.3,0.2,0.3,0.3l0.1,0.3c0,0.2-0.1,0.4-0.2,0.5c-0.1,0.1-0.3,0.2-0.4,0.2c-0.1,0-0.3,0-0.5,0
			C60,70.4,59.9,70.3,59.7,70.3z"/>
		<path class="st0" d="M64.8,69H64v-0.1L64,68l0.7-0.1l0-0.7H65l0.6,0v0.5l0,0.2h0.7l0.1,0.9h-0.8l0,1.5l-0.7,0.1V69z"/>
		<path class="st0" d="M70.5,70.1L70.5,70.1c-0.2,0.1-0.3,0.1-0.4,0.2c-0.2,0-0.3,0.1-0.5,0.1c-0.2,0-0.4-0.1-0.6-0.3
			c-0.1-0.2-0.2-0.5-0.2-0.7c0-0.2,0.1-0.4,0.3-0.5c0.1-0.1,0.3-0.2,0.4-0.2c0.2,0,0.3,0,0.5,0l0.4,0v0c-0.1-0.1-0.1-0.2-0.2-0.2
			l-0.4-0.1h-1v-0.1l0.1-0.7c0.3,0,0.5-0.1,0.8,0c0.3,0,0.5,0.1,0.8,0.1c0.3,0.1,0.5,0.2,0.7,0.4c0.1,0.3,0.2,0.7,0.2,1.1
			c0,0.4,0,0.8,0,1.2l-1,0.1V70.1z M70.4,69.6l0-0.4l-0.2,0L70,69.2l0,0.2l0.1,0.1C70.1,69.6,70.2,69.7,70.4,69.6L70.4,69.6
			L70.4,69.6z"/>
		<path class="st0" d="M74.6,71.2c-0.1-0.1-0.3-0.2-0.4-0.3c-0.1-0.1-0.1-0.2-0.2-0.4l0.8-0.3c0.1,0.1,0.2,0.2,0.3,0.2h0.2
			c0.1,0,0.2-0.1,0.2-0.2c0.1-0.1,0.1-0.3,0.1-0.4h-0.1C75.2,69.9,75,70,74.7,70c-0.2,0-0.4-0.1-0.6-0.3c-0.1-0.2-0.2-0.5-0.2-0.8
			c0-0.1,0-0.3,0.1-0.4c0-0.1,0.1-0.2,0.2-0.3c0.2-0.2,0.4-0.2,0.7-0.2c0.2,0.1,0.4,0.1,0.5,0.2v-0.1l0-0.2l0.9,0l0.1,0.6v1.3
			c0,0.2,0,0.5-0.1,0.7c0,0.2-0.2,0.4-0.3,0.6c-0.1,0.1-0.3,0.2-0.4,0.2c-0.2,0.1-0.4,0.1-0.5,0.1C74.8,71.3,74.7,71.3,74.6,71.2z
			 M75.5,69L75.5,69c-0.1-0.2-0.2-0.2-0.3-0.2L75,68.9l0,0.3l0,0.1c0.1,0.1,0.2,0.1,0.3,0.1l0.2-0.1C75.5,69.2,75.5,69.1,75.5,69z"
			/>
		<path class="st0" d="M79.2,70.2c-0.1-0.2-0.2-0.4-0.3-0.7c0-0.2-0.1-0.5-0.1-0.8c0-0.2,0.1-0.3,0.1-0.4c0.1-0.1,0.1-0.2,0.2-0.4
			c0.2-0.2,0.3-0.3,0.5-0.4c0.2-0.1,0.4-0.1,0.6-0.1c0.1,0,0.3,0.1,0.4,0.1c0.1,0.1,0.2,0.1,0.4,0.3c0.1,0.2,0.2,0.5,0.2,0.7l0,0.3
			l-1.6,0.5v0c0,0.1,0.1,0.2,0.2,0.2l0.4,0c0.2,0,0.3-0.1,0.4-0.1c0.1-0.1,0.3-0.1,0.4-0.2l0.1,0.8c-0.2,0.1-0.5,0.2-0.7,0.3
			c-0.3,0.1-0.5,0.1-0.8,0.1C79.5,70.6,79.3,70.5,79.2,70.2z M80.1,68.3c-0.1,0-0.2,0.1-0.3,0.2c-0.1,0.1-0.1,0.2-0.1,0.4h0.1
			l0.9-0.3C80.5,68.4,80.3,68.3,80.1,68.3z"/>
	</g>
</g>
</svg>
