<?xml version="1.0" encoding="utf-8"?>
<!-- Generator: Adobe Illustrator 22.0.0, SVG Export Plug-In . SVG Version: 6.00 Build 0)  -->
<svg version="1.1" id="レイヤー_1" xmlns="http://www.w3.org/2000/svg" xmlns:xlink="http://www.w3.org/1999/xlink" x="0px"
	 y="0px" viewBox="0 0 113.4 85" style="enable-background:new 0 0 113.4 85;" xml:space="preserve">
<style type="text/css">
	.st0{clip-path:url(#SVGID_2_);}
	.st1{clip-path:url(#SVGID_4_);}
	.st2{clip-path:url(#SVGID_6_);fill:url(#SVGID_7_);}
	.st3{clip-path:url(#SVGID_9_);fill:#A9CA4A;}
	.st4{clip-path:url(#SVGID_9_);fill:#78ADCD;}
	.st5{clip-path:url(#SVGID_9_);fill:#EDBD2A;}
	.st6{clip-path:url(#SVGID_9_);fill:#E8E059;}
	.st7{clip-path:url(#SVGID_9_);fill:#AACA4E;}
	.st8{clip-path:url(#SVGID_9_);fill:#DF5A1C;}
	.st9{clip-path:url(#SVGID_9_);fill:#CF3B2B;}
	.st10{clip-path:url(#SVGID_9_);fill:#9E71AE;}
	.st11{clip-path:url(#SVGID_9_);fill:#EBBF33;}
	.st12{clip-path:url(#SVGID_9_);fill:#9BC6C4;}
	.st13{clip-path:url(#SVGID_9_);fill:#A175B1;}
	.st14{clip-path:url(#SVGID_9_);fill:#E9F0CB;}
	.st15{clip-path:url(#SVGID_9_);fill:#C5D590;}
	.st16{clip-path:url(#SVGID_9_);fill:#C66566;}
	.st17{clip-path:url(#SVGID_9_);fill:#D8E1A4;}
	.st18{opacity:0.2;clip-path:url(#SVGID_9_);}
	.st19{clip-path:url(#SVGID_11_);fill:#FFFFFF;}
	.st20{clip-path:url(#SVGID_13_);fill:none;stroke:#FFFFFF;stroke-width:1.06;stroke-miterlimit:10;}
	.st21{clip-path:url(#SVGID_13_);fill:#192649;}
</style>
<g>
	<g>
		<defs>
			<rect id="SVGID_1_" x="0" y="0" width="113.4" height="85"/>
		</defs>
		<clipPath id="SVGID_2_">
			<use xlink:href="#SVGID_1_"  style="overflow:visible;"/>
		</clipPath>
		<g class="st0">
			<defs>
				<rect id="SVGID_3_" x="0" y="0" width="113.4" height="85"/>
			</defs>
			<clipPath id="SVGID_4_">
				<use xlink:href="#SVGID_3_"  style="overflow:visible;"/>
			</clipPath>
			<g class="st1">
				<defs>
					<rect id="SVGID_5_" x="0" y="0" width="113.4" height="85"/>
				</defs>
				<clipPath id="SVGID_6_">
					<use xlink:href="#SVGID_5_"  style="overflow:visible;"/>
				</clipPath>
				
					<linearGradient id="SVGID_7_" gradientUnits="userSpaceOnUse" x1="-6.403802e-05" y1="84.9999" x2="0.9999" y2="84.9999" gradientTransform="matrix(99.2126 -99.2126 -99.2126 -99.2126 8440.1572 8525.1572)">
					<stop  offset="0" style="stop-color:#CCEAFB"/>
					<stop  offset="0.5268" style="stop-color:#FFFFFF"/>
					<stop  offset="1" style="stop-color:#DDF1FC"/>
				</linearGradient>
				<polygon class="st2" points="-42.5,42.5 56.7,-56.7 155.9,42.5 56.7,141.7 				"/>
			</g>
			<g class="st1">
				<defs>
					<rect id="SVGID_8_" x="0" y="0" width="113.4" height="85"/>
				</defs>
				<clipPath id="SVGID_9_">
					<use xlink:href="#SVGID_8_"  style="overflow:visible;"/>
				</clipPath>
				<path class="st3" d="M101.4,66.1c-1.7,1.5-3.4,3-5.1,4.5c-1.4,1.2-2.8,2.4-4.1,3.6c-1.1,1-2.3,2-3.3,3.1
					c-0.1,0.1-0.1,0.1-0.2,0.2c-0.3,0-0.4,0-0.2-0.3c0.1-0.2,0.3-0.5,0.4-0.7c0.2-0.5,0.6-1,0.6-1.6c0.5-1.1,0.9-2.2,1.4-3.4
					c0.4-1.1,0.9-2.2,1.3-3.4c0.4-1.1,0.8-2.1,1.2-3.2c0.4-0.9,0.7-1.9,1.1-2.8c0.5-1.3,1-2.7,1.6-4c0.6-1.4,1.1-2.9,1.7-4.3
					c0.6-1.5,1.2-3,1.7-4.5c0.4-1,0.7-2,1.1-2.9c0.3-0.9,0.7-1.9,1-2.9c0.1-0.4,0.3-0.8,0.4-1.3c0.1-0.5,0.6-0.6,1-0.3
					c0.4,0.4,0.6,0.9,0.8,1.4c0.7,1.8,1.4,3.6,2.1,5.4c0.6,1.5,1.2,3,1.7,4.6c0.4,1.5,0.9,3,1.4,4.5c0.1,0.4,0.3,0.7,0.3,1.1
					c0,0.4-0.1,0.8-0.5,1c-0.7,0.7-1.4,1.4-2.2,2c-0.3,0.3-0.7,0.6-1,0.9c-0.5,0.1-0.7,0.6-1.1,0.8c-0.7,0.5-1.3,1-1.9,1.6
					C102.2,65.4,101.7,65.6,101.4,66.1L101.4,66.1C101.5,66,101.4,66,101.4,66.1"/>
				<path class="st4" d="M7.1,32.5c0.3-1.3,0.5-2.6,0.7-3.9c0.3-1.5,0.6-3.1,0.8-4.6c0.3-1.6,0.5-3.1,0.6-4.7c0-0.2,0.1-0.3,0.3-0.4
					c1.1-0.8,2.4-1.4,3.7-2c1.8-0.8,3.5-1.6,5.3-2.3c1.6-0.7,3.1-1.3,4.7-1.9c0.9-0.4,1.8-0.8,2.8-1.2c1.1-0.4,2.1-0.9,3.2-1.2
					c0.2-0.1,0.5-0.2,0.6,0c0.1,0.2-0.2,0.4-0.3,0.5c-0.8,0.7-1.6,1.5-2.4,2.2c-1.3,1.2-2.6,2.4-3.9,3.6c-2,1.9-4,3.7-6,5.6
					c-1.6,1.5-3.1,3-4.6,4.5c-1.2,1.3-2.4,2.6-3.6,3.9c-0.5,0.5-0.9,1.1-1.4,1.6C7.3,32.3,7.2,32.4,7.1,32.5"/>
				<path class="st5" d="M89.1,13.6c-0.6-0.2-1.1-0.4-1.7-0.6c-1-0.4-1.9-0.7-2.9-1.1c-0.9-0.3-1.8-0.7-2.6-1.2
					c-0.3-0.2-0.2-0.3,0-0.4c0.5-0.4,1-0.6,1.6-0.9c1.5-0.8,3-1.6,4.6-2.3c1.2-0.6,2.5-1.3,3.7-1.9c0.3-0.1,0.6-0.3,0.9-0.4
					c0.5-0.2,0.9,0,1.1,0.4c1,1.4,1.8,2.9,2.7,4.3c0.5,0.9,1.1,1.7,1.7,2.6c0.6,0.8,1.1,1.6,1.7,2.3c0.3,0.4,0.5,0.7,0.8,1.1
					c0.5,0.7,1,1.4,1.4,2c0.4,0.5,0.8,1.1,1.2,1.7c0.5,0.7,0.9,1.4,1.4,2.1c0.1,0.1,0.1,0.2,0,0.3c-0.1,0.1-0.2,0-0.3,0
					c-0.7-0.5-1.5-0.9-2.2-1.4c-0.8-0.5-1.6-0.9-2.3-1.3c-0.9-0.6-1.9-1.1-2.8-1.6c-0.7-0.4-1.4-0.7-2.1-1c-1.3-0.6-2.7-1.2-4-1.8
					c-0.3-0.2-0.6-0.5-1.1-0.4l0,0C89.7,13.6,89.4,13.5,89.1,13.6"/>
				<path class="st6" d="M10.8,58.8c-1-1.2-1.9-2.4-2.8-3.6c-0.7-0.9-1.3-1.7-1.9-2.6c-0.5-0.8-1-1.6-1.5-2.4
					c-0.1-0.2-0.2-0.6,0-0.8c0.2-0.2,0.5-0.1,0.8,0c0.7,0.2,1.3,0.6,2,0.8c1.2,0.4,2.4,0.9,3.6,1.2c1.8,0.4,3.7,0.7,5.5,1
					c1.5,0.2,2.9,0.4,4.4,0.5c1,0,2,0.3,3,0.5c0.4,0.1,0.5,0.5,0.5,0.9c0,0.7,0,1.5,0,2.2c0,1.2,0.2,2.4,0.4,3.6
					c0.1,0.7,0.2,1.4,0.3,2.1c0.3,1.9,0.6,3.9,0.9,5.8c0.2,0.8,0.2,1.6,0.3,2.5c0.2,1.2,0.5,2.5,0.7,3.7c0.1,0.5,0.3,1.1,0.3,1.6
					c0.1,1.2,0.5,2.4,0.7,3.5c0.2,0.9,0.5,1.8,0.5,2.7c0,0.5,0.3,0.9,0.3,1.5c0,0.1,0.1,0.3-0.1,0.3c-0.2,0.1-0.2-0.1-0.3-0.2
					c-0.4-0.8-0.9-1.6-1.2-2.5c-0.1-0.8-0.5-1.5-1.2-2c-0.4-0.7-0.9-1.3-1.3-2c-0.3-0.6-0.7-1.1-1-1.7c-1.4-2-2.8-4-4.3-5.9
					c-1-1.2-2-2.3-2.9-3.5c-0.7-0.9-1.5-1.7-2.2-2.7c-0.4-0.5-0.9-1.1-1.3-1.6c-0.5-0.6-1.1-1.2-1.4-1.9
					C11.4,59.4,11.3,58.9,10.8,58.8"/>
				<path class="st7" d="M48.2,12.1c0.3,0.1,0.5,0.3,0.7,0.5c0.6,0.5,0.6,0.5,0.1,1c-1,0.9-1.8,2-2.8,3c-0.1,0.1-0.2,0.2-0.4,0.3
					c-0.2,0-0.5,0-0.7-0.1c-0.5-1-0.9-2-1.4-3C43,12.3,42.4,11,42,9.7c-0.1-0.5-0.3-1.1-0.6-1.5c-0.1-0.3-0.1-0.6-0.4-0.8
					c0-0.1,0-0.3-0.1-0.4c-0.1-0.1-0.1-0.3,0-0.4c0.1-0.1,0.2,0.1,0.4,0c1.3,0.9,2.6,1.9,3.9,2.8c0,0,0,0.1,0.1,0.1
					c0.2,0.3,0.5,0.6,0.8,0.8c0.7,0.4,1.2,0.9,1.7,1.4C47.8,12,48,12.1,48.2,12.1"/>
				<path class="st8" d="M65.9,5.2c1-0.4,2-0.8,3-1.1c1-0.4,2-0.8,3.2-1.1c-0.3,0.5-0.5,0.9-0.8,1.2c-1,1.3-1.9,2.6-2.6,4.1
					c-0.1,0.3-0.3,0.4-0.6,0.2c-1.3-0.7-2.8-1-4.2-1.4C63.7,7,63.3,7,63.2,6.7c-0.1-0.4,0.4-0.3,0.6-0.5C64,6,64.2,6,64.4,5.9
					C64.9,5.7,65.4,5.5,65.9,5.2"/>
				<path class="st9" d="M49.2,78.5c-4.7-2.3-9.2-4.8-13.9-6.8c0.5-0.3,1.2-0.5,1.9-0.8c0.7-0.3,1.4-0.5,2.2-0.8
					c0.2-0.1,0.4,0,0.6,0.1c2.8,2.7,5.8,5,8.8,7.4c0,0.1,0,0.3,0.2,0.4C49.2,78.1,49.2,78.3,49.2,78.5"/>
				<path class="st10" d="M72.6,71.8c0.4,0.5,0.7,1,0.9,1.5c0.8,1.5,1.6,3,2.3,4.5c0.1,0.1,0.2,0.2,0,0.3c-0.1,0.1-0.2,0-0.3,0
					c-1.1-0.2-2.2-0.4-3.3-0.5c-0.3,0-0.4-0.2-0.4-0.4c0-1.3,0.3-2.7,0.4-4c0-0.4,0.1-0.8,0.1-1.2C72.5,71.9,72.5,71.8,72.6,71.8"/>
				<path class="st11" d="M17.9,44.9c-1.3-0.3-2.5-0.8-3.8-1.3c-0.8-0.3-1-0.8-0.9-1.6c0-1.1,0-2.1,0-3.2c0-0.1-0.1-0.3,0.1-0.4
					c0.2-0.1,0.3,0.1,0.4,0.2c1.3,1.3,2.4,2.7,3.5,4.1c0.1,0.2,0.2,0.3,0.4,0.5c0,0.1,0,0.2,0.1,0.3c0.2,0.3,0.5,0.6,0.7,0.9
					c0.1,0.1,0.2,0.2,0.1,0.3c-0.1,0.2-0.2,0.1-0.3,0.1C18,44.9,17.9,44.9,17.9,44.9"/>
				<path class="st12" d="M90.7,29.5c0.5,0.4,0.6,0.9,0.9,1.2c1.3,2,2.6,4.1,3.9,6.2c0.1,0.2,0.1,0.4,0.2,0.6
					c0.1,0.3,0.4,0.6,0.2,0.8c-0.2,0.2-0.6,0-0.9-0.1c-0.9-0.5-1.9-0.9-2.8-1.3c-0.5-0.2-0.8-0.6-0.9-1.2c-0.2-1.8-0.7-3.6-0.6-5.4
					C90.7,30,90.7,29.8,90.7,29.5"/>
				<path class="st13" d="M15.1,5.4c-0.6,0.6-1.3,1-1.9,1.5c-0.7,0.6-1.4,1.2-1.9,1.9C11,9.2,10.7,9.2,10.4,9
					C10,8.7,9.6,8.6,9.2,8.4C8.9,8.3,8.8,8.1,9.1,8c1.8-1.1,3.6-2.1,5.7-2.6C14.8,5.4,14.9,5.4,15.1,5.4"/>
				<path class="st14" d="M100.9,66.4c0.2-0.4,0.6-0.6,0.9-0.8c0.6-0.5,1.1-1,1.7-1.4c0.3-0.2,0.5-0.7,1-0.8c-0.1,0.5-0.5,0.7-0.9,1
					c-0.4,0.3-1,0.5-1.1,1.1c0,0-0.1,0.1-0.1,0.1c-0.6,0-0.8,0.6-1.3,0.8C101,66.4,100.9,66.4,100.9,66.4"/>
				<path class="st15" d="M89.8,74.4c0,0.6-0.3,1-0.5,1.5c-0.1,0.2-0.2,0.4-0.3,0.7c-0.2,0.3,0,0.3,0.2,0.3
					c-0.1,0.3-0.5,0.8-0.8,0.8c-0.1,0-0.1-0.1-0.2-0.2c-0.1-0.1,0-0.1,0-0.2c0.4-0.4,0.6-0.9,0.8-1.4C89.2,75.3,89.3,74.8,89.8,74.4
					"/>
				<path class="st15" d="M46.8,11.1c-0.2,0-0.3-0.1-0.5-0.3c-0.4-0.4-0.8-0.8-1.4-1.1c-0.2-0.1-0.5-0.3-0.6-0.6
					c0.4,0.1,0.6,0.4,1,0.6c0.4,0.2,0.7,0.5,1,0.8C46.5,10.7,46.8,10.8,46.8,11.1"/>
				<path class="st16" d="M49.2,78.5c0-0.2,0.1-0.4-0.2-0.4c-0.2,0-0.2-0.2-0.2-0.4c0.6,0.4,1.2,0.9,1.7,1.4
					C50,79.1,50,79.1,49.2,78.5"/>
				<path class="st17" d="M41.1,7.4c0.2,0.1,0.2,0.4,0.3,0.6c0.2,0.4,0.4,0.8,0.4,1.2c-0.2-0.1-0.3-0.2-0.3-0.4
					c0-0.2-0.1-0.4-0.2-0.5C41.2,8,41,7.7,41.1,7.4"/>
				<path class="st17" d="M26.1,79.1c0.7,0.5,1.1,1.2,1.2,2c-0.2,0-0.4,0-0.5-0.3C26.7,80.2,26,79.8,26.1,79.1"/>
				<path class="st17" d="M41.2,6.8c-0.1,0-0.2-0.1-0.3,0c-0.1,0.1,0,0.2,0,0.3c0.1,0.1,0.1,0.2,0.1,0.3c-0.3-0.2-0.4-0.5-0.5-0.8
					c0-0.1,0-0.2,0.1-0.3c0.1,0,0.2,0,0.2,0.1C41,6.6,41.2,6.6,41.2,6.8"/>
				<path class="st14" d="M66.6,5c-0.4,0.3-0.9,0.4-1.3,0.6c-0.1-0.2,0.1-0.4,0.2-0.4C65.8,5.2,66.2,4.8,66.6,5"/>
				<path class="st17" d="M44.3,14.7c0.2,0.1,0.4,0.1,0.5,0.1c0.1,0.2,0,0.4-0.2,0.4C44.3,15.2,44.3,15,44.3,14.7"/>
				<path class="st14" d="M100.8,66.5C100.8,66.4,100.8,66.4,100.8,66.5C100.9,66.4,100.8,66.4,100.8,66.5"/>
				<g class="st18">
					<g>
						<defs>
							<rect id="SVGID_10_" x="0" y="0" width="113.4" height="85"/>
						</defs>
						<clipPath id="SVGID_11_">
							<use xlink:href="#SVGID_10_"  style="overflow:visible;"/>
						</clipPath>
						<rect x="0" y="0" class="st19" width="113.4" height="85"/>
					</g>
				</g>
			</g>
			<g class="st1">
				<defs>
					<rect id="SVGID_12_" x="0" y="0" width="113.4" height="85"/>
				</defs>
				<clipPath id="SVGID_13_">
					<use xlink:href="#SVGID_12_"  style="overflow:visible;"/>
				</clipPath>
				<path class="st20" d="M27.1,38.7c-0.2,0-0.4,0-0.5-0.2L16.5,25c-0.1-0.2-0.1-0.4,0-0.5l10-12c0.2-0.2,0.5-0.2,0.7-0.1
					c0.2,0.2,0.2,0.5,0.1,0.7l-9.6,11.4c-0.1,0.2-0.1,0.4,0,0.5l9.7,12.8c0.2,0.2,0.1,0.5-0.1,0.7C27.2,38.6,27.1,38.7,27.1,38.7z"
					/>
				<path class="st21" d="M27.1,38.7c-0.2,0-0.4,0-0.5-0.2L16.5,25c-0.1-0.2-0.1-0.4,0-0.5l10-12c0.2-0.2,0.5-0.2,0.7-0.1
					c0.2,0.2,0.2,0.5,0.1,0.7l-9.6,11.4c-0.1,0.2-0.1,0.4,0,0.5l9.7,12.8c0.2,0.2,0.1,0.5-0.1,0.7C27.2,38.6,27.1,38.7,27.1,38.7"/>
				<path class="st20" d="M59.5,70.5c-0.2,0-0.3,0-0.5-0.2L21.9,25c-0.1-0.2-0.1-0.4,0-0.5L31,12.8c0.2-0.2,0.5-0.2,0.7,0
					c0.2,0.2,0.2,0.5,0,0.7l-8.6,10.9c-0.2,0.2-0.1,0.5,0,0.7l36.6,44.7c0.2,0.2,0.1,0.5-0.1,0.7C59.6,70.4,59.5,70.5,59.5,70.5z"/>
				<path class="st21" d="M59.5,70.5c-0.2,0-0.3,0-0.5-0.2L21.9,25c-0.1-0.2-0.1-0.4,0-0.5L31,12.8c0.2-0.2,0.5-0.2,0.7,0
					c0.2,0.2,0.2,0.5,0,0.7l-8.6,10.9c-0.2,0.2-0.1,0.5,0,0.7l36.6,44.7c0.2,0.2,0.1,0.5-0.1,0.7C59.6,70.4,59.5,70.5,59.5,70.5"/>
				<path class="st20" d="M40.9,37.6c-0.5,0.1-0.9,0.1-1,0.1c-0.3,0-0.5-0.2-0.5-0.4c0-0.3,0.2-0.5,0.4-0.5c0,0,4.8-0.4,6.8-3
					c0.8-1.1,1.1-2.5,0.7-4.2c-1.4-6.6-11.7-5.4-11.8-5.4c-0.3,0-0.5-0.2-0.5-0.5l-0.5-8.8c0-0.3,0.2-0.5,0.5-0.5
					c0.2,0,0.4,0.2,0.5,0.5l0.5,8c0,0.1,0.1,0.2,0.2,0.2c1-0.1,3-0.1,5,0.3c4,0.8,6.4,2.8,7.1,5.9c0.4,1.9,0.1,3.6-0.9,5
					C45.7,36.6,42.5,37.3,40.9,37.6z"/>
				<path class="st21" d="M40.9,37.6c-0.5,0.1-0.9,0.1-1,0.1c-0.3,0-0.5-0.2-0.5-0.4c0-0.3,0.2-0.5,0.4-0.5c0,0,4.8-0.4,6.8-3
					c0.8-1.1,1.1-2.5,0.7-4.2c-1.4-6.6-11.7-5.4-11.8-5.4c-0.3,0-0.5-0.2-0.5-0.5l-0.5-8.8c0-0.3,0.2-0.5,0.5-0.5
					c0.2,0,0.4,0.2,0.5,0.5l0.5,8c0,0.1,0.1,0.2,0.2,0.2c1-0.1,3-0.1,5,0.3c4,0.8,6.4,2.8,7.1,5.9c0.4,1.9,0.1,3.6-0.9,5
					C45.7,36.6,42.5,37.3,40.9,37.6"/>
				<path class="st20" d="M24.3,79.9c-0.1,0-0.1,0-0.2,0c-0.3-0.1-0.4-0.3-0.4-0.6l6.9-30.5c0.1-0.3,0.3-0.4,0.6-0.4
					c0.3,0.1,0.4,0.3,0.4,0.6l-6.9,30.5C24.7,79.7,24.5,79.8,24.3,79.9z"/>
				<path class="st21" d="M24.3,79.9c-0.1,0-0.1,0-0.2,0c-0.3-0.1-0.4-0.3-0.4-0.6l6.9-30.5c0.1-0.3,0.3-0.4,0.6-0.4
					c0.3,0.1,0.4,0.3,0.4,0.6l-6.9,30.5C24.7,79.7,24.5,79.8,24.3,79.9"/>
				<path class="st20" d="M56.5,12.2c0-0.2-0.1-0.3-0.3-0.4c-0.1-0.1-0.3,0-0.5,0c-0.1,0.1-3.3,2.4-1.8,12.2
					c1.6,9.8,5.8,11.3,5.9,11.3c0.1,0,0.2,0,0.2,0c0.1,0,0.2-0.1,0.2-0.1c0.1-0.1,0.2-0.3,0.2-0.4L56.5,12.2z"/>
				<path class="st21" d="M56.5,12.2c0-0.2-0.1-0.3-0.3-0.4c-0.1-0.1-0.3,0-0.5,0c-0.1,0.1-3.3,2.4-1.8,12.2
					c1.6,9.8,5.8,11.3,5.9,11.3c0.1,0,0.2,0,0.2,0c0.1,0,0.2-0.1,0.2-0.1c0.1-0.1,0.2-0.3,0.2-0.4L56.5,12.2z"/>
				<path class="st20" d="M66.7,10.3c-0.1-0.1-0.4-0.2-0.6-0.1c-0.2,0.1-0.3,0.3-0.3,0.5l0.8,5.4l-3.5,1.2c-0.3,0.1-0.4,0.4-0.3,0.6
					c0.1,0.2,0.3,0.4,0.5,0.3c0,0,0,0,0.1,0l3.4-1.1l2.6,16.9c0,0.2,0.2,0.4,0.4,0.4c0,0,0.1,0,0.1,0c0.2,0,0.3-0.1,0.4-0.3
					c0.1-0.3,3.2-7.2,2.2-13C71.7,15.3,66.9,10.5,66.7,10.3z"/>
				<path class="st21" d="M66.7,10.3c-0.1-0.1-0.4-0.2-0.6-0.1c-0.2,0.1-0.3,0.3-0.3,0.5l0.8,5.4l-3.5,1.2c-0.3,0.1-0.4,0.4-0.3,0.6
					c0.1,0.2,0.3,0.4,0.5,0.3c0,0,0,0,0.1,0l3.4-1.1l2.6,16.9c0,0.2,0.2,0.4,0.4,0.4c0,0,0.1,0,0.1,0c0.2,0,0.3-0.1,0.4-0.3
					c0.1-0.3,3.2-7.2,2.2-13C71.7,15.3,66.9,10.5,66.7,10.3"/>
				<path class="st20" d="M43.5,47.9c-0.1,0-0.1,0-0.2,0c-0.3-0.1-0.4-0.3-0.3-0.6c0-0.2,1.1-3.9,5.2-6.5c4-2.5,8.7-2.8,8.9-2.8
					c0.3,0,0.5,0.2,0.5,0.4c0,0.3-0.2,0.5-0.4,0.5c0,0-4.7,0.3-8.4,2.7c-3.7,2.3-4.7,5.9-4.7,5.9C43.9,47.7,43.7,47.8,43.5,47.9z"/>
				<path class="st21" d="M43.5,47.9c-0.1,0-0.1,0-0.2,0c-0.3-0.1-0.4-0.3-0.3-0.6c0-0.2,1.1-3.9,5.2-6.5c4-2.5,8.7-2.8,8.9-2.8
					c0.3,0,0.5,0.2,0.5,0.4c0,0.3-0.2,0.5-0.4,0.5c0,0-4.7,0.3-8.4,2.7c-3.7,2.3-4.7,5.9-4.7,5.9C43.9,47.7,43.7,47.8,43.5,47.9"/>
				<path class="st20" d="M66.9,61.2c-0.1,0-0.2,0-0.4-0.1c-0.2-0.2-0.3-0.5-0.1-0.7c2.6-3.7,3.4-8.1,2.2-12.1
					c-0.9-3.2-2.1-4.3-11-4.4c-8.5,0-10.4,5.7-10.4,5.8c-0.1,0.3-0.3,0.4-0.6,0.3c-0.3-0.1-0.4-0.3-0.3-0.6c0-0.1,0.5-1.7,2.2-3.3
					c1.5-1.5,4.3-3.2,9.1-3.2c9,0,10.8,1.2,11.9,5c1.3,4.3,0.4,9-2.4,13C67.1,61.1,67,61.2,66.9,61.2z"/>
				<path class="st21" d="M66.9,61.2c-0.1,0-0.2,0-0.4-0.1c-0.2-0.2-0.3-0.5-0.1-0.7c2.6-3.7,3.4-8.1,2.2-12.1
					c-0.9-3.2-2.1-4.3-11-4.4c-8.5,0-10.4,5.7-10.4,5.8c-0.1,0.3-0.3,0.4-0.6,0.3c-0.3-0.1-0.4-0.3-0.3-0.6c0-0.1,0.5-1.7,2.2-3.3
					c1.5-1.5,4.3-3.2,9.1-3.2c9,0,10.8,1.2,11.9,5c1.3,4.3,0.4,9-2.4,13C67.1,61.1,67,61.2,66.9,61.2"/>
				<path class="st20" d="M75.9,53.6c-0.3,0-0.5,0.1-0.8,0.1c0.1-2.5-0.1-4.2-0.1-4.3c0-0.3-0.3-0.5-0.5-0.4c-0.3,0-0.5,0.3-0.4,0.5
					c0,0,0.2,1.9,0.1,4.6c-1.6,0.8-2.2,2.3-2.3,2.4c-0.1,0.2,0,0.5,0.3,0.6c0.2,0.1,0.5,0,0.6-0.3c0,0,0.4-0.9,1.3-1.6
					c-0.1,1.3-0.2,2.7-0.5,4.1c-0.9,5.1-4.6,7.9-4.7,7.9c-0.2,0.2-0.3,0.5-0.1,0.7c0.1,0.2,0.3,0.2,0.5,0.2c0.1,0,0.1,0,0.2-0.1
					c0.2-0.1,4.1-3.1,5-8.5c0.3-1.7,0.4-3.3,0.5-4.8c0.3-0.1,0.5-0.1,0.9-0.1c2.9-0.2,3.4,2,3.5,2.5c0.2,1.3,0.1,5.9,0.1,5.9
					c0,0.3,0.2,0.5,0.5,0.5c0,0,0.1,0,0.1,0c0.2,0,0.4-0.2,0.4-0.5c0-0.2,0.1-4.7-0.1-6.1C80.2,55.3,78.8,53.5,75.9,53.6z"/>
				<path class="st21" d="M75.9,53.6c-0.3,0-0.5,0.1-0.8,0.1c0.1-2.5-0.1-4.2-0.1-4.3c0-0.3-0.3-0.5-0.5-0.4c-0.3,0-0.5,0.3-0.4,0.5
					c0,0,0.2,1.9,0.1,4.6c-1.6,0.8-2.2,2.3-2.3,2.4c-0.1,0.2,0,0.5,0.3,0.6c0.2,0.1,0.5,0,0.6-0.3c0,0,0.4-0.9,1.3-1.6
					c-0.1,1.3-0.2,2.7-0.5,4.1c-0.9,5.1-4.6,7.9-4.7,7.9c-0.2,0.2-0.3,0.5-0.1,0.7c0.1,0.2,0.3,0.2,0.5,0.2c0.1,0,0.1,0,0.2-0.1
					c0.2-0.1,4.1-3.1,5-8.5c0.3-1.7,0.4-3.3,0.5-4.8c0.3-0.1,0.5-0.1,0.9-0.1c2.9-0.2,3.4,2,3.5,2.5c0.2,1.3,0.1,5.9,0.1,5.9
					c0,0.3,0.2,0.5,0.5,0.5c0,0,0.1,0,0.1,0c0.2,0,0.4-0.2,0.4-0.5c0-0.2,0.1-4.7-0.1-6.1C80.2,55.3,78.8,53.5,75.9,53.6"/>
				<path class="st20" d="M84.6,59C84.6,59,84.6,59,84.6,59c-0.3,0-0.6-0.2-0.6-0.5c0,0,0-1.8-1.6-4.9c-1.5-3-3.6-3.1-3.6-3.1
					c-0.3,0-0.5-0.2-0.5-0.5c0-0.3,0.2-0.5,0.5-0.5c0.1,0,2.7,0.2,4.4,3.7c1.7,3.3,1.7,5.3,1.7,5.3C85,58.7,84.8,58.9,84.6,59z"/>
				<path class="st21" d="M84.6,59C84.6,59,84.6,59,84.6,59c-0.3,0-0.6-0.2-0.6-0.5c0,0,0-1.8-1.6-4.9c-1.5-3-3.6-3.1-3.6-3.1
					c-0.3,0-0.5-0.2-0.5-0.5c0-0.3,0.2-0.5,0.5-0.5c0.1,0,2.7,0.2,4.4,3.7c1.7,3.3,1.7,5.3,1.7,5.3C85,58.7,84.8,58.9,84.6,59"/>
				<path class="st20" d="M88.5,51.2L85.3,41c0-0.2-0.2-0.3-0.3-0.3c-0.2,0-0.3,0-0.5,0.1l-2.8,2.7c-0.2,0.2-0.2,0.5,0,0.7l6,7.5
					c0.1,0.1,0.3,0.2,0.5,0.2c0.1,0,0.1,0,0.2-0.1C88.4,51.6,88.5,51.4,88.5,51.2z"/>
				<path class="st21" d="M88.5,51.2L85.3,41c0-0.2-0.2-0.3-0.3-0.3c-0.2,0-0.3,0-0.5,0.1l-2.8,2.7c-0.2,0.2-0.2,0.5,0,0.7l6,7.5
					c0.1,0.1,0.3,0.2,0.5,0.2c0.1,0,0.1,0,0.2-0.1C88.4,51.6,88.5,51.4,88.5,51.2"/>
				<path class="st20" d="M78.4,32.3c-0.1,0.1-0.2,0.1-0.3,0.1c-0.1,0-0.3,0-0.4-0.1c-0.2-0.2-0.2-0.5,0-0.7c0,0,1.8-1.8,2.7-3.3
					c0.2-0.3,0.2-0.6,0.1-0.9c-0.3-0.8-1.4-1.5-1.9-1.6c-0.2-0.1-0.6,0-0.9,0.1c0.1,0.5,0.5,2.5,0.5,3.2c0,0.2,0,0.3,0,0.4
					c0,0.3,0,0.6-0.4,0.8c-0.4,0.3-0.9,0.2-1.6-0.1c-0.9-0.3-1.4-1-1.5-1.8c-0.1-0.9,0.2-1.9,0.8-2.4c0.7-0.6,2.3-1.5,3.5-1.2
					c0.8,0.2,2.1,1.1,2.6,2.2c0.2,0.6,0.2,1.2-0.2,1.8 M77.2,29.5c0-0.1,0.1-0.3,0.1-0.6c0-0.4-0.3-1.8-0.5-2.7
					c-0.3,0.2-0.6,0.4-0.8,0.6c-0.3,0.2-0.5,0.9-0.4,1.4c0.1,0.5,0.4,0.9,0.9,1.1"/>
				<path class="st21" d="M78.4,32.3c-0.1,0.1-0.2,0.1-0.3,0.1c-0.1,0-0.3,0-0.4-0.1c-0.2-0.2-0.2-0.5,0-0.7c0,0,1.8-1.8,2.7-3.3
					c0.2-0.3,0.2-0.6,0.1-0.9c-0.3-0.8-1.4-1.5-1.9-1.6c-0.2-0.1-0.6,0-0.9,0.1c0.1,0.5,0.5,2.5,0.5,3.2c0,0.2,0,0.3,0,0.4
					c0,0.3,0,0.6-0.4,0.8c-0.4,0.3-0.9,0.2-1.6-0.1c-0.9-0.3-1.4-1-1.5-1.8c-0.1-0.9,0.2-1.9,0.8-2.4c0.7-0.6,2.3-1.5,3.5-1.2
					c0.8,0.2,2.1,1.1,2.6,2.2c0.2,0.6,0.2,1.2-0.2,1.8 M77.2,29.5c0-0.1,0.1-0.3,0.1-0.6c0-0.4-0.3-1.8-0.5-2.7
					c-0.3,0.2-0.6,0.4-0.8,0.6c-0.3,0.2-0.5,0.9-0.4,1.4c0.1,0.5,0.4,0.9,0.9,1.1"/>
				<path class="st20" d="M45.9,12.1c-1-0.6-2.2-0.2-2.4-0.1c-0.3,0-1.3,0.3-2,1.2c-0.6,0.8-0.8,1.9-0.6,3.1
					c0.2,1.3,0.7,2.2,1.5,2.7c0.9,0.5,1.9,0.3,2.2,0.2c0.1,0,0.3,0,0.5,0c0.5-0.1,1.3-0.3,1.8-0.9c0.7-0.7,0.9-1.8,0.6-3.2
					C47.4,13.5,46.8,12.5,45.9,12.1z"/>
				<path class="st21" d="M45.9,12.1c-1-0.6-2.2-0.2-2.4-0.1c-0.3,0-1.3,0.3-2,1.2c-0.6,0.8-0.8,1.9-0.6,3.1
					c0.2,1.3,0.7,2.2,1.5,2.7c0.9,0.5,1.9,0.3,2.2,0.2c0.1,0,0.3,0,0.5,0c0.5-0.1,1.3-0.3,1.8-0.9c0.7-0.7,0.9-1.8,0.6-3.2
					C47.4,13.5,46.8,12.5,45.9,12.1"/>
				<path class="st20" d="M73.1,10.8c-0.1-0.4-0.4-0.7-0.9-1c-0.6-0.3-1-0.2-1.2-0.1c-0.5,0.2-0.7,0.7-0.7,0.8c0,0,0,0,0,0.1
					c-0.1,0.4,0.1,1.1,1.2,1.5c0.3,0.1,0.6,0.2,0.9,0.1c0.1,0,0.3-0.1,0.4-0.2c0.2-0.2,0.3-0.4,0.4-0.6C73.1,11.3,73.2,11,73.1,10.8
					z"/>
				<path class="st21" d="M73.1,10.8c-0.1-0.4-0.4-0.7-0.9-1c-0.6-0.3-1-0.2-1.2-0.1c-0.5,0.2-0.7,0.7-0.7,0.8c0,0,0,0,0,0.1
					c-0.1,0.4,0.1,1.1,1.2,1.5c0.3,0.1,0.6,0.2,0.9,0.1c0.1,0,0.3-0.1,0.4-0.2c0.2-0.2,0.3-0.4,0.4-0.6C73.1,11.3,73.2,11,73.1,10.8
					"/>
				<path class="st20" d="M74.7,14.6c-0.3-0.6-1-1-1.1-1c-0.1,0-0.7-0.3-1.2,0c-0.2,0.1-0.5,0.3-0.6,0.8c-0.1,0.5,0,0.8,0.2,1
					c0.3,0.4,0.7,0.5,0.9,0.6c0.2,0.1,0.6,0.3,1,0.2c0,0,0.1,0,0.1,0c0.2-0.1,0.5-0.2,0.7-0.7C74.8,15.2,74.8,14.9,74.7,14.6z"/>
				<path class="st21" d="M74.7,14.6c-0.3-0.6-1-1-1.1-1c-0.1,0-0.7-0.3-1.2,0c-0.2,0.1-0.5,0.3-0.6,0.8c-0.1,0.5,0,0.8,0.2,1
					c0.3,0.4,0.7,0.5,0.9,0.6c0.2,0.1,0.6,0.3,1,0.2c0,0,0.1,0,0.1,0c0.2-0.1,0.5-0.2,0.7-0.7C74.8,15.2,74.8,14.9,74.7,14.6"/>
				<path class="st20" d="M48,68c-0.4-0.7-1.4-1.9-3-1.2c-1.3,0.6-1.4,1.7-1.2,2.6L40,71l-1.1-5.4c1.7-0.5,4-1.7,4-3.5
					c0-1.8-1.6-3.7-2.8-3.8c-0.7-0.1-1.9,0.3-2.6,0.6l-0.4-2l3.7-1.2c0.2-0.1,0.4-0.3,0.3-0.5c-0.2-1.4-0.8-4.8-2.3-4.7
					c-1.4,0.1-2.6,1.4-2.7,1.6l-4.8,4.5c-0.1,0.1-0.2,0.3-0.1,0.4l0.2,1.2c0,0.1,0.1,0.3,0.2,0.3c0.1,0.1,0.2,0.1,0.3,0.1
					c0,0,0.1,0,0.1,0l4.1-1.4l0.4,2.1c-3.7,1.5-3.9,3.8-3.4,5.6c0.4,1.5,3,1.3,4.5,1.1c0.1,0,0.2,0,0.3,0l1.1,5.6l-6,2.7
					c-0.2,0.1-0.3,0.4-0.2,0.6c0.1,0.2,0.3,0.3,0.5,0.3c0,0,0.1,0,0.1,0l10.7-4.9c0.3,0.3,0.9,1,1.8,1.1c0.5,0.1,1-0.1,1.4-0.4
					C48.8,69.8,48.4,68.5,48,68z M34.2,64.6c-0.5-2,0.4-3.4,2.7-4.4l0.9,4.7C35.9,65.3,34.3,65.1,34.2,64.6z M37.8,59.8
					c0.5-0.2,1.2-0.5,1.8-0.5c0.2,0,0.4,0,0.5,0c0.6,0.1,1.9,1.5,1.9,2.9c0,1.1-1.8,2.1-3.2,2.6L37.8,59.8z"/>
				<path class="st21" d="M48,68c-0.4-0.7-1.4-1.9-3-1.2c-1.3,0.6-1.4,1.7-1.2,2.6L40,71l-1.1-5.4c1.7-0.5,4-1.7,4-3.5
					c0-1.8-1.6-3.7-2.8-3.8c-0.7-0.1-1.9,0.3-2.6,0.6l-0.4-2l3.7-1.2c0.2-0.1,0.4-0.3,0.3-0.5c-0.2-1.4-0.8-4.8-2.3-4.7
					c-1.4,0.1-2.6,1.4-2.7,1.6l-4.8,4.5c-0.1,0.1-0.2,0.3-0.1,0.4l0.2,1.2c0,0.1,0.1,0.3,0.2,0.3c0.1,0.1,0.2,0.1,0.3,0.1
					c0,0,0.1,0,0.1,0l4.1-1.4l0.4,2.1c-3.7,1.5-3.9,3.8-3.4,5.6c0.4,1.5,3,1.3,4.5,1.1c0.1,0,0.2,0,0.3,0l1.1,5.6l-6,2.7
					c-0.2,0.1-0.3,0.4-0.2,0.6c0.1,0.2,0.3,0.3,0.5,0.3c0,0,0.1,0,0.1,0l10.7-4.9c0.3,0.3,0.9,1,1.8,1.1c0.5,0.1,1-0.1,1.4-0.4
					C48.8,69.8,48.4,68.5,48,68 M34.2,64.6c-0.5-2,0.4-3.4,2.7-4.4l0.9,4.7C35.9,65.3,34.3,65.1,34.2,64.6 M37.8,59.8
					c0.5-0.2,1.2-0.5,1.8-0.5c0.2,0,0.4,0,0.5,0c0.6,0.1,1.9,1.5,1.9,2.9c0,1.1-1.8,2.1-3.2,2.6L37.8,59.8z"/>
				<path class="st20" d="M58.6,50c-1.5-0.2-3.1,0.3-4.1,1.2c-0.8,0.7-1.1,1.7-1,2.7c0.2,3.2,2.7,3.6,4.8,3.6c0.3,0,0.5,0,0.7-0.1
					c2-0.3,3-2.1,3.1-3.7C62.3,52.5,60.8,50.3,58.6,50z"/>
				<path class="st21" d="M58.6,50c-1.5-0.2-3.1,0.3-4.1,1.2c-0.8,0.7-1.1,1.7-1,2.7c0.2,3.2,2.7,3.6,4.8,3.6c0.3,0,0.5,0,0.7-0.1
					c2-0.3,3-2.1,3.1-3.7C62.3,52.5,60.8,50.3,58.6,50"/>
				<path class="st20" d="M94,43.1c-0.9-1.3-1.4-1.8-2.5-1.2c-1,0.5-1.8,1.2-0.8,3.8c0.2,0.6,0.6,1,1.1,1.2C92.1,47,92.6,47,93,47
					c0.5-0.1,0.8-0.2,0.9-0.3c0.1,0,0.2-0.1,0.2-0.2C94.1,46.5,95.1,44.7,94,43.1z"/>
				<path class="st21" d="M94,43.1c-0.9-1.3-1.4-1.8-2.5-1.2c-1,0.5-1.8,1.2-0.8,3.8c0.2,0.6,0.6,1,1.1,1.2C92.1,47,92.6,47,93,47
					c0.5-0.1,0.8-0.2,0.9-0.3c0.1,0,0.2-0.1,0.2-0.2C94.1,46.5,95.1,44.7,94,43.1"/>
				<path class="st20" d="M85.9,76.5c-0.8,0.1-1.3-0.3-1.8-0.7c-0.3-0.2-0.5-0.4-0.8-0.6c-0.1,0-0.2,0-0.4,0c-0.5,0.6-1,1.1-1.1,1.2
					c-0.1,0.1-0.3,0.1-0.5,0c-0.1-0.1-0.2-0.3-0.1-0.4c0.2-0.4,0.7-1,1.2-1.3c0.3-0.3,0.5-0.7,0.5-0.9c0.7-2.6-0.5-3.4-1.1-3.6
					c-0.4-0.1-0.7-0.1-0.9,0c-0.5,0.3-0.6,1.3-0.6,1.6c0,0.2-0.2,0.4-0.4,0.4c-0.2,0-0.4-0.2-0.4-0.4c0-0.2,0-1.6,0.9-2.2
					c0.4-0.3,0.9-0.3,1.5-0.1c2.3,0.8,1.7,3.6,1.5,4.4c-0.1,0.2-0.2,0.4-0.3,0.6c0,0,0.1,0,0.1,0c0.4,0.2,0.7,0.4,1,0.7
					c0.5,0.4,0.7,0.6,1.3,0.5c0.8-0.2,0.7-1.3,0.7-1.4c0-0.2,0.1-0.4,0.3-0.4c0.2,0,0.4,0.1,0.4,0.3c0.1,0.6-0.1,1.9-1.3,2.1
					C86,76.5,86,76.5,85.9,76.5z"/>
				<path class="st21" d="M85.9,76.5c-0.8,0.1-1.3-0.3-1.8-0.7c-0.3-0.2-0.5-0.4-0.8-0.6c-0.1,0-0.2,0-0.4,0c-0.5,0.6-1,1.1-1.1,1.2
					c-0.1,0.1-0.3,0.1-0.5,0c-0.1-0.1-0.2-0.3-0.1-0.4c0.2-0.4,0.7-1,1.2-1.3c0.3-0.3,0.5-0.7,0.5-0.9c0.7-2.6-0.5-3.4-1.1-3.6
					c-0.4-0.1-0.7-0.1-0.9,0c-0.5,0.3-0.6,1.3-0.6,1.6c0,0.2-0.2,0.4-0.4,0.4c-0.2,0-0.4-0.2-0.4-0.4c0-0.2,0-1.6,0.9-2.2
					c0.4-0.3,0.9-0.3,1.5-0.1c2.3,0.8,1.7,3.6,1.5,4.4c-0.1,0.2-0.2,0.4-0.3,0.6c0,0,0.1,0,0.1,0c0.4,0.2,0.7,0.4,1,0.7
					c0.5,0.4,0.7,0.6,1.3,0.5c0.8-0.2,0.7-1.3,0.7-1.4c0-0.2,0.1-0.4,0.3-0.4c0.2,0,0.4,0.1,0.4,0.3c0.1,0.6-0.1,1.9-1.3,2.1
					C86,76.5,86,76.5,85.9,76.5"/>
				<path class="st20" d="M88.8,71.3c-0.1-0.1-0.4-0.1-0.5,0c-0.5,0.5-1.5,0.4-1.5,0.4c-0.2,0-0.4,0.1-0.4,0.3
					c0,0.2,0.1,0.4,0.3,0.4c0,0,0.4,0,0.8,0c0.4-0.1,0.9-0.2,1.3-0.6C88.9,71.7,88.9,71.4,88.8,71.3z"/>
				<path class="st21" d="M88.8,71.3c-0.1-0.1-0.4-0.1-0.5,0c-0.5,0.5-1.5,0.4-1.5,0.4c-0.2,0-0.4,0.1-0.4,0.3
					c0,0.2,0.1,0.4,0.3,0.4c0,0,0.4,0,0.8,0c0.4-0.1,0.9-0.2,1.3-0.6C88.9,71.7,88.9,71.4,88.8,71.3"/>
				<path class="st20" d="M94.7,71.7c-0.1-0.2-0.3-0.3-0.5-0.2l-1.1,0.3l-1.1-3c-0.1-0.2-0.3-0.3-0.5-0.2c-0.2,0.1-0.3,0.3-0.2,0.5
					l1.1,3l-1.8,0.6l0.9-5.8c0-0.2-0.1-0.4-0.3-0.4c-0.2,0-0.4,0.1-0.4,0.3l-1,6.4c0,0.1,0,0.2,0.1,0.3c0.1,0.1,0.2,0.1,0.3,0.1
					c0,0,0,0,0.1,0l2.4-0.8l1,2.7c0.1,0.2,0.2,0.3,0.4,0.2c0,0,0,0,0.1,0c0.2-0.1,0.3-0.3,0.2-0.5l-1-2.6l1.1-0.3
					C94.6,72.1,94.7,71.9,94.7,71.7z"/>
				<path class="st21" d="M94.7,71.7c-0.1-0.2-0.3-0.3-0.5-0.2l-1.1,0.3l-1.1-3c-0.1-0.2-0.3-0.3-0.5-0.2c-0.2,0.1-0.3,0.3-0.2,0.5
					l1.1,3l-1.8,0.6l0.9-5.8c0-0.2-0.1-0.4-0.3-0.4c-0.2,0-0.4,0.1-0.4,0.3l-1,6.4c0,0.1,0,0.2,0.1,0.3c0.1,0.1,0.2,0.1,0.3,0.1
					c0,0,0,0,0.1,0l2.4-0.8l1,2.7c0.1,0.2,0.2,0.3,0.4,0.2c0,0,0,0,0.1,0c0.2-0.1,0.3-0.3,0.2-0.5l-1-2.6l1.1-0.3
					C94.6,72.1,94.7,71.9,94.7,71.7"/>
				<path class="st20" d="M104,73.3c-1.1-1.2-2.1-1.9-3.1-2c0.3-0.4,0.4-1,0.3-1.6c-0.2-0.7-0.5-1-0.8-1.1c-0.7-0.3-1.6,0.1-2,0.3
					l-1.3-4c-0.1-0.2-0.3-0.3-0.5-0.2c-0.2,0.1-0.3,0.3-0.2,0.5l0.7,2.1l-1.7,0.6c-0.2,0.1-0.3,0.3-0.2,0.5c0.1,0.2,0.2,0.3,0.4,0.2
					c0,0,0,0,0.1,0l1.7-0.6l2.2,7.1c0.1,0.2,0.2,0.3,0.4,0.2c0,0,0,0,0.1,0c0.2-0.1,0.3-0.3,0.2-0.5l-0.7-2.3
					c0.3-0.1,0.5-0.2,0.8-0.4c0.1,0,0.1,0,0.2,0c0.9,0,2,0.6,3.1,1.9c0.1,0.1,0.2,0.1,0.3,0.1c0.1,0,0.1,0,0.2-0.1
					C104.1,73.6,104.1,73.4,104,73.3z M99.9,71.2c-0.3,0.1-0.6,0.2-0.8,0.3l-0.6-2c0.4-0.2,1.1-0.5,1.5-0.4c0.1,0,0.3,0.1,0.4,0.6
					C100.6,70.4,100.3,70.9,99.9,71.2z"/>
				<path class="st21" d="M104,73.3c-1.1-1.2-2.1-1.9-3.1-2c0.3-0.4,0.4-1,0.3-1.6c-0.2-0.7-0.5-1-0.8-1.1c-0.7-0.3-1.6,0.1-2,0.3
					l-1.3-4c-0.1-0.2-0.3-0.3-0.5-0.2c-0.2,0.1-0.3,0.3-0.2,0.5l0.7,2.1l-1.7,0.6c-0.2,0.1-0.3,0.3-0.2,0.5c0.1,0.2,0.2,0.3,0.4,0.2
					c0,0,0,0,0.1,0l1.7-0.6l2.2,7.1c0.1,0.2,0.2,0.3,0.4,0.2c0,0,0,0,0.1,0c0.2-0.1,0.3-0.3,0.2-0.5l-0.7-2.3
					c0.3-0.1,0.5-0.2,0.8-0.4c0.1,0,0.1,0,0.2,0c0.9,0,2,0.6,3.1,1.9c0.1,0.1,0.2,0.1,0.3,0.1c0.1,0,0.1,0,0.2-0.1
					C104.1,73.6,104.1,73.4,104,73.3 M99.9,71.2c-0.3,0.1-0.6,0.2-0.8,0.3l-0.6-2c0.4-0.2,1.1-0.5,1.5-0.4c0.1,0,0.3,0.1,0.4,0.6
					C100.6,70.4,100.3,70.9,99.9,71.2"/>
				<path class="st20" d="M95.2,71.3c-0.2,0-0.4-0.1-0.4-0.3l-1.4-4.9c-0.1-0.2,0.1-0.4,0.3-0.4c0.2-0.1,0.4,0.1,0.4,0.3l1.4,4.9
					C95.6,71.1,95.4,71.3,95.2,71.3C95.2,71.3,95.2,71.3,95.2,71.3z"/>
				<path class="st21" d="M95.2,71.3c-0.2,0-0.4-0.1-0.4-0.3l-1.4-4.9c-0.1-0.2,0.1-0.4,0.3-0.4c0.2-0.1,0.4,0.1,0.4,0.3l1.4,4.9
					C95.6,71.1,95.4,71.3,95.2,71.3C95.2,71.3,95.2,71.3,95.2,71.3"/>
			</g>
		</g>
	</g>
</g>
</svg>
