<?xml version="1.0" encoding="utf-8"?>
<!-- Generator: Adobe Illustrator 22.0.0, SVG Export Plug-In . SVG Version: 6.00 Build 0)  -->
<svg version="1.1" id="レイヤー_1" xmlns="http://www.w3.org/2000/svg" xmlns:xlink="http://www.w3.org/1999/xlink" x="0px"
	 y="0px" viewBox="0 0 113.4 85" style="enable-background:new 0 0 113.4 85;" xml:space="preserve">
<style type="text/css">
	.st0{clip-path:url(#SVGID_2_);fill:#727171;}
	.st1{clip-path:url(#SVGID_2_);fill:#C9CACA;}
	.st2{clip-path:url(#SVGID_2_);}
	.st3{clip-path:url(#SVGID_4_);fill:#C9BC9C;}
	.st4{clip-path:url(#SVGID_4_);fill:#231815;}
	.st5{fill:#FFFFFF;}
	.st6{font-family:'ToppanBunkyuMidashiGothicStdN-ExtraBold-83pv-RKSJ-H';}
	.st7{font-size:11.1785px;}
	.st8{font-size:11.1784px;}
	.st9{clip-path:url(#SVGID_6_);fill:#FFFFFF;}
</style>
<g>
	<g>
		<defs>
			<rect id="SVGID_1_" x="0" y="0" width="113.4" height="85"/>
		</defs>
		<clipPath id="SVGID_2_">
			<use xlink:href="#SVGID_1_"  style="overflow:visible;"/>
		</clipPath>
		<rect x="0" y="71" class="st0" width="113.4" height="14"/>
		<rect x="0" y="0" class="st1" width="113.4" height="14"/>
		<g class="st2">
			<defs>
				<rect id="SVGID_3_" x="0" y="0" width="113.4" height="85"/>
			</defs>
			<clipPath id="SVGID_4_">
				<use xlink:href="#SVGID_3_"  style="overflow:visible;"/>
			</clipPath>
			<path class="st3" d="M-7.8,14.1V14h-37.9V15c12.2,3.2,21.1,14.3,21.1,27.5c0,13.2-9,24.2-21.1,27.5V71h37.9v-0.1
				C7.6,70.5,20,58,20,42.5C20,27,7.6,14.5-7.8,14.1"/>
			<path class="st3" d="M37.5,14.1V14H-0.4V15c12.2,3.2,21.1,14.3,21.1,27.5c0,13.2-9,24.2-21.1,27.5V71h37.9v-0.1
				C52.9,70.5,65.3,58,65.3,42.5C65.3,27,52.9,14.5,37.5,14.1"/>
			<path class="st3" d="M82.8,14.1V14H44.9V15C57,18.3,66,29.3,66,42.5c0,13.2-9,24.2-21.1,27.5V71h37.9v-0.1
				c15.4-0.4,27.7-12.9,27.7-28.4C110.5,27,98.2,14.5,82.8,14.1"/>
			<path class="st3" d="M128,14.1V14H90.1V15c12.2,3.2,21.1,14.3,21.1,27.5c0,13.2-9,24.2-21.1,27.5V71H128v-0.1
				c15.4-0.4,27.7-12.9,27.7-28.4C155.8,27,143.4,14.5,128,14.1"/>
			<path class="st4" d="M45.7,5.2c20.6-6.5,42.6,5,49.1,25.6c6.5,20.6-5,42.6-25.6,49.1c-20.6,6.5-42.6-5-49.1-25.6
				C13.6,33.6,25,11.6,45.7,5.2"/>
		</g>
		<g class="st2">
			<text transform="matrix(0.9775 -0.2108 0.2108 0.9775 85.3781 40.8559)" class="st5 st6 st7">す</text>
		</g>
		<g class="st2">
			<text transform="matrix(0.9936 0.1134 -0.1134 0.9936 84.4455 49.8423)" class="st5 st6 st7">し</text>
		</g>
		<g class="st2">
			<text transform="matrix(0.9059 0.4235 -0.4235 0.9059 80.6954 58.0623)" class="st5 st6 st7">ま</text>
		</g>
		<g class="st2">
			<text transform="matrix(0.7244 0.6894 -0.6894 0.7244 74.5196 64.6871)" class="st5 st6 st7">ん</text>
		</g>
		<g class="st2">
			<text transform="matrix(0.4653 0.8851 -0.8851 0.4653 66.5707 68.9645)" class="st5 st6 st7">ざ</text>
		</g>
		<g class="st2">
			<text transform="matrix(0.1612 0.9869 -0.9869 0.1612 57.6442 70.5138)" class="st5 st6 st7">い</text>
		</g>
		<g class="st2">
			<text transform="matrix(-0.1632 0.9866 -0.9866 -0.1632 48.7315 69.1261)" class="st5 st6 st7">　</text>
		</g>
		<g class="st2">
			<text transform="matrix(-0.4688 0.8833 -0.8833 -0.4688 40.6843 64.9566)" class="st5 st6 st7">　</text>
		</g>
		<g class="st2">
			<text transform="matrix(-0.7249 0.6889 -0.6889 -0.7249 34.403 58.4763)" class="st5 st6 st8">　</text>
		</g>
		<g class="st2">
			<text transform="matrix(-0.9074 0.4202 -0.4202 -0.9074 30.5284 50.3156)" class="st5 st6 st8">　</text>
		</g>
		<g class="st2">
			<text transform="matrix(-0.9938 0.1114 -0.1114 -0.9938 29.4254 41.326)" class="st5 st6 st8">す</text>
		</g>
		<g class="st2">
			<text transform="matrix(-0.977 -0.2131 0.2131 -0.977 31.2631 32.4807)" class="st5 st6 st7">し</text>
		</g>
		<g class="st2">
			<text transform="matrix(-0.8588 -0.5123 0.5123 -0.8588 35.8263 24.66)" class="st5 st6 st7">ま</text>
		</g>
		<g class="st2">
			<text transform="matrix(-0.651 -0.7591 0.7591 -0.651 42.6274 18.7046)" class="st5 st6 st7">ん</text>
		</g>
		<g class="st2">
			<text transform="matrix(-0.3739 -0.9275 0.9275 -0.3739 50.9716 15.251)" class="st5 st6 st8">ざ</text>
		</g>
		<g class="st2">
			<text transform="matrix(-6.083110e-02 -0.9981 0.9981 -6.083110e-02 59.9965 14.6038)" class="st5 st6 st7">い</text>
		</g>
		<g class="st2">
			<defs>
				<rect id="SVGID_5_" x="0" y="0" width="113.4" height="85"/>
			</defs>
			<clipPath id="SVGID_6_">
				<use xlink:href="#SVGID_5_"  style="overflow:visible;"/>
			</clipPath>
			<path class="st9" d="M48.9,15.3c15-4.7,31,3.6,35.7,18.6c4.7,15-3.6,31-18.6,35.7c-15,4.7-31-3.6-35.7-18.6
				C25.5,36,33.9,20.1,48.9,15.3"/>
		</g>
	</g>
</g>
</svg>
