<?xml version="1.0" encoding="utf-8"?>
<!-- Generator: Adobe Illustrator 22.0.0, SVG Export Plug-In . SVG Version: 6.00 Build 0)  -->
<svg version="1.1" id="レイヤー_1" xmlns="http://www.w3.org/2000/svg" xmlns:xlink="http://www.w3.org/1999/xlink" x="0px"
	 y="0px" viewBox="0 0 113.4 85" style="enable-background:new 0 0 113.4 85;" xml:space="preserve">
<style type="text/css">
	.st0{fill:#892584;}
	.st1{fill:none;stroke:#F2C81F;stroke-width:0.5;stroke-miterlimit:10;}
	.st2{fill:none;stroke:#FFFFFF;stroke-width:0.5;stroke-miterlimit:10;}
	.st3{fill:#F2C81F;}
	.st4{fill:#FFFFFF;}
	.st5{clip-path:url(#SVGID_2_);}
	.st6{clip-path:url(#SVGID_4_);}
	.st7{clip-path:url(#SVGID_6_);}
	.st8{clip-path:url(#SVGID_8_);}
	.st9{clip-path:url(#SVGID_10_);}
	.st10{clip-path:url(#SVGID_12_);}
	.st11{clip-path:url(#SVGID_14_);}
	.st12{clip-path:url(#SVGID_16_);}
	.st13{clip-path:url(#SVGID_18_);}
</style>
<g>
	<rect x="0" y="0" class="st0" width="113.4" height="85"/>
	<polygon class="st1" points="56.7,81.1 26.6,66.5 19.1,33.9 40,7.8 73.4,7.8 94.3,33.9 86.8,66.5 	"/>
	<polygon class="st2" points="56.7,81.1 23.3,61.8 23.3,23.3 56.7,4 90.1,23.3 90.1,61.8 	"/>
	<polygon class="st2" points="56.7,81.1 29.4,69.8 18.2,42.5 29.4,15.3 56.7,4 83.9,15.3 95.2,42.5 83.9,69.8 	"/>
	<g>
		<g>
			<polygon class="st3" points="37.5,60.4 38.9,58 36.2,58 			"/>
			<rect x="43.2" y="58" transform="matrix(0.7071 0.7071 -0.7071 0.7071 54.6443 -13.9411)" class="st4" width="2" height="2"/>
			<polygon class="st4" points="45.3,49.4 44.9,49.1 46.2,47 35.6,47 35.6,49.3 35.2,49.3 35.2,46.6 47,46.6 			"/>
			<g>
				<polygon class="st4" points="41.8,48.5 40.8,47.9 39.8,48.5 39.8,49.6 40.8,50.2 41.8,49.6 				"/>
				<polygon class="st3" points="39.6,49 37.6,47.9 37.6,50.2 				"/>
				<polygon class="st3" points="42.1,49 44.1,47.9 44.1,50.2 				"/>
			</g>
			<rect x="39.8" y="44.3" transform="matrix(0.7071 0.7071 -0.7071 0.7071 43.9438 -15.6089)" class="st3" width="2" height="2"/>
			<g>
				<defs>
					<circle id="SVGID_1_" cx="31.3" cy="47.3" r="1.8"/>
				</defs>
				<clipPath id="SVGID_2_">
					<use xlink:href="#SVGID_1_"  style="overflow:visible;"/>
				</clipPath>
				<g class="st5">
					
						<rect x="32.3" y="44.1" transform="matrix(0.7071 -0.7071 0.7071 0.7071 -23.0971 36.4616)" class="st4" width="0.2" height="4"/>
					
						<rect x="31.9" y="44.6" transform="matrix(0.7071 -0.7071 0.7071 0.7071 -23.5581 36.2707)" class="st4" width="0.2" height="4"/>
					<rect x="31.4" y="45" transform="matrix(0.7071 -0.7071 0.7071 0.7071 -24.019 36.0798)" class="st4" width="0.2" height="4"/>
					
						<rect x="31" y="45.5" transform="matrix(0.7071 -0.7071 0.7071 0.7071 -24.4799 35.8889)" class="st4" width="0.2" height="4"/>
					
						<rect x="30.5" y="45.9" transform="matrix(0.7071 -0.7071 0.7071 0.7071 -24.9408 35.6979)" class="st4" width="0.2" height="4"/>
					<rect x="30" y="46.4" transform="matrix(0.7071 -0.7071 0.7071 0.7071 -25.4018 35.507)" class="st4" width="0.2" height="4"/>
				</g>
			</g>
			<rect x="30" y="50.8" transform="matrix(0.7071 0.7071 -0.7071 0.7071 46.0046 -6.891)" class="st3" width="2.6" height="2.6"/>
			<rect x="28.5" y="57" transform="matrix(0.5641 -0.8257 0.8257 0.5641 -33.3101 51.3487)" class="st4" width="7" height="0.5"/>
			<g>
				<defs>
					<circle id="SVGID_3_" cx="42.2" cy="53" r="1.1"/>
				</defs>
				<clipPath id="SVGID_4_">
					<use xlink:href="#SVGID_3_"  style="overflow:visible;"/>
				</clipPath>
				<g class="st6">
					
						<rect x="41.7" y="53.6" transform="matrix(0.7071 -0.7071 0.7071 0.7071 -25.3788 46.0537)" class="st4" width="2.4" height="0.1"/>
					
						<rect x="41.4" y="53.3" transform="matrix(0.7071 -0.7071 0.7071 0.7071 -25.2626 45.7733)" class="st4" width="2.4" height="0.1"/>
					
						<rect x="41.1" y="53" transform="matrix(0.7071 -0.7071 0.7071 0.7071 -25.1465 45.493)" class="st4" width="2.4" height="0.1"/>
					
						<rect x="40.8" y="52.8" transform="matrix(0.7071 -0.7071 0.7071 0.7071 -25.0304 45.2127)" class="st4" width="2.4" height="0.1"/>
					
						<rect x="40.6" y="52.5" transform="matrix(0.7071 -0.7071 0.7071 0.7071 -24.9143 44.9323)" class="st4" width="2.4" height="0.1"/>
					
						<rect x="40.3" y="52.2" transform="matrix(0.7071 -0.7071 0.7071 0.7071 -24.7981 44.6519)" class="st4" width="2.4" height="0.1"/>
				</g>
			</g>
			<path class="st3" d="M40.8,50.3l-3.5,2v4l3.5,2l3.5-2v-4L40.8,50.3z M39.5,56.8c-0.6,0-1.1-0.5-1.1-1.1s0.5-1.1,1.1-1.1
				s1.1,0.5,1.1,1.1S40.1,56.8,39.5,56.8z M39.5,54.1c-0.6,0-1.1-0.5-1.1-1.1s0.5-1.1,1.1-1.1s1.1,0.5,1.1,1.1S40.1,54.1,39.5,54.1z
				 M43,56.5c-0.4,0.4-1.1,0.4-1.6,0c-0.4-0.4-0.4-1.1,0-1.6c0.4-0.4,1.1-0.4,1.6,0C43.4,55.3,43.4,56,43,56.5z M43,53.7
				c-0.4,0.4-1.1,0.4-1.6,0c-0.4-0.4-0.4-1.1,0-1.6c0.4-0.4,1.1-0.4,1.6,0C43.4,52.6,43.4,53.3,43,53.7z"/>
			<g>
				<defs>
					<circle id="SVGID_5_" cx="39.5" cy="55.7" r="1.1"/>
				</defs>
				<clipPath id="SVGID_6_">
					<use xlink:href="#SVGID_5_"  style="overflow:visible;"/>
				</clipPath>
				<g class="st7">
					<rect x="38.3" y="56.6" class="st4" width="2.4" height="0.1"/>
					<rect x="38.3" y="56.2" class="st4" width="2.4" height="0.1"/>
					<rect x="38.3" y="55.8" class="st4" width="2.4" height="0.1"/>
					<rect x="38.3" y="55.4" class="st4" width="2.4" height="0.1"/>
					<rect x="38.3" y="55" class="st4" width="2.4" height="0.1"/>
					<rect x="38.3" y="54.6" class="st4" width="2.4" height="0.1"/>
				</g>
			</g>
		</g>
		<g>
			<polygon class="st3" points="57.8,45.4 55.8,44.3 55.8,46.6 			"/>
			<polygon class="st4" points="59.1,49.5 58.7,49.2 59.9,47.1 52.6,47.1 52.6,46.7 60.8,46.7 			"/>
			<g>
				<defs>
					<polyline id="SVGID_7_" points="52.6,46.9 52.6,59.9 48.8,59.9 52.6,46.9 					"/>
				</defs>
				<clipPath id="SVGID_8_">
					<use xlink:href="#SVGID_7_"  style="overflow:visible;"/>
				</clipPath>
				<g class="st8">
					<rect x="48.1" y="54.6" class="st4" width="6.2" height="0.3"/>
					<rect x="48.1" y="55.6" class="st4" width="6.2" height="0.3"/>
					<rect x="48.1" y="56.6" class="st4" width="6.2" height="0.3"/>
					<rect x="48.1" y="57.6" class="st4" width="6.2" height="0.3"/>
					<rect x="48.1" y="58.6" class="st4" width="6.2" height="0.3"/>
					<rect x="48.1" y="59.6" class="st4" width="6.2" height="0.3"/>
					<rect x="48.1" y="48.5" class="st4" width="6.2" height="0.3"/>
					<rect x="48.1" y="49.5" class="st4" width="6.2" height="0.3"/>
					<rect x="48.1" y="50.5" class="st4" width="6.2" height="0.3"/>
					<rect x="48.1" y="51.5" class="st4" width="6.2" height="0.3"/>
					<rect x="48.1" y="52.5" class="st4" width="6.2" height="0.3"/>
					<rect x="48.1" y="53.5" class="st4" width="6.2" height="0.3"/>
					<rect x="48.1" y="47.5" class="st4" width="6.2" height="0.3"/>
				</g>
			</g>
			<g>
				<g>
					<defs>
						<polygon id="SVGID_9_" points="57.8,51 57.8,48.7 56.8,49.3 56.8,49.3 56.8,48.2 55.8,47.6 54.8,48.2 54.8,49.3 55.8,49.9 
													"/>
					</defs>
					<clipPath id="SVGID_10_">
						<use xlink:href="#SVGID_9_"  style="overflow:visible;"/>
					</clipPath>
					<g class="st9">
						
							<rect x="57.7" y="45.9" transform="matrix(0.7071 -0.7071 0.7071 0.7071 -17.0935 54.9667)" class="st3" width="0.2" height="4.5"/>
						
							<rect x="57.2" y="46.3" transform="matrix(0.7071 -0.7071 0.7071 0.7071 -17.5543 54.7767)" class="st3" width="0.2" height="4.5"/>
						
							<rect x="56.8" y="46.8" transform="matrix(0.7071 -0.7071 0.7071 0.7071 -18.0153 54.5849)" class="st3" width="0.2" height="4.5"/>
						
							<rect x="56.3" y="47.3" transform="matrix(0.7071 -0.7071 0.7071 0.7071 -18.4762 54.394)" class="st3" width="0.2" height="4.5"/>
						
							<rect x="55.8" y="47.7" transform="matrix(0.7071 -0.7071 0.7071 0.7071 -18.9371 54.203)" class="st3" width="0.2" height="4.5"/>
						
							<rect x="55.4" y="48.2" transform="matrix(0.7071 -0.7071 0.7071 0.7071 -19.3981 54.0121)" class="st3" width="0.2" height="4.5"/>
					</g>
				</g>
				<g>
					<path class="st4" d="M55.8,47.6l1,0.6v1.1l0,0h0v0l1-0.6V51l-2-1.2l-1-0.6v-1.2L55.8,47.6 M55.8,47.3l-0.1,0.1l-1,0.6L54.6,48
						v0.1v1.2v0.1l0.1,0.1l1,0.6l2,1.2l0.3,0.2V51v-2.3v-0.4l-0.3,0.2L57,48.9v-0.7V48L56.9,48l-1-0.6L55.8,47.3L55.8,47.3z"/>
				</g>
			</g>
			<rect x="54.1" y="52.3" class="st4" width="5.1" height="0.3"/>
			
				<rect x="52.9" y="54.2" transform="matrix(0.5492 -0.8357 0.8357 0.5492 -20.5687 70.6842)" class="st4" width="4.6" height="0.3"/>
			
				<rect x="53.6" y="56.2" transform="matrix(0.5492 -0.8357 0.8357 0.5492 -21.9662 72.1209)" class="st4" width="4.6" height="0.3"/>
			
				<rect x="54.2" y="58.3" transform="matrix(0.5492 -0.8357 0.8357 0.5492 -23.3378 73.6057)" class="st4" width="4.6" height="0.3"/>
			<g>
				<polygon class="st3" points="57.1,54 57.4,52.6 56,53.1 				"/>
				<polygon class="st3" points="57.5,55.2 57.8,53.8 56.4,54.3 				"/>
				<polygon class="st3" points="58,56.4 58.2,55 56.8,55.5 				"/>
				<polygon class="st3" points="58.4,57.6 58.7,56.2 57.3,56.7 				"/>
				<polygon class="st3" points="58.8,58.8 59.1,57.3 57.7,57.8 				"/>
				<polygon class="st3" points="59.3,60 59.5,58.5 58.1,59 				"/>
			</g>
			<polygon class="st4" points="59.5,53.8 58.8,53.4 58.1,53.8 58.1,54.6 58.8,55 59.5,54.6 			"/>
			
				<rect x="59.2" y="55.5" transform="matrix(0.7071 0.7071 -0.7071 0.7071 57.2635 -25.8476)" class="st3" width="1.3" height="1.3"/>
			<rect x="62.2" y="49.1" class="st4" width="0.3" height="7.1"/>
			<rect x="64.9" y="46.6" class="st4" width="0.5" height="13.3"/>
		</g>
		<g>
			<g>
				<defs>
					<polyline id="SVGID_11_" points="76.9,46.2 76.9,54.9 75,54.9 75,60.2 73.1,60.2 76.9,46.2 					"/>
				</defs>
				<clipPath id="SVGID_12_">
					<use xlink:href="#SVGID_11_"  style="overflow:visible;"/>
				</clipPath>
				<g class="st10">
					
						<rect x="75.4" y="51.1" transform="matrix(0.4789 -0.8779 0.8779 0.4789 -9.5212 95.454)" class="st3" width="0.4" height="9.3"/>
					
						<rect x="74.8" y="52.2" transform="matrix(0.4789 -0.8779 0.8779 0.4789 -10.7759 95.4995)" class="st3" width="0.4" height="9.3"/>
					
						<rect x="74.3" y="53.3" transform="matrix(0.4789 -0.8779 0.8779 0.4789 -12.0307 95.5451)" class="st3" width="0.4" height="9.3"/>
					
						<rect x="73.7" y="54.4" transform="matrix(0.4789 -0.8779 0.8779 0.4789 -13.2855 95.5906)" class="st3" width="0.4" height="9.3"/>
					
						<rect x="73.1" y="55.4" transform="matrix(0.4789 -0.8779 0.8779 0.4789 -14.5402 95.6361)" class="st3" width="0.4" height="9.3"/>
					
						<rect x="72.5" y="56.5" transform="matrix(0.4789 -0.8779 0.8779 0.4789 -15.795 95.6817)" class="st3" width="0.4" height="9.3"/>
					
						<rect x="79" y="44.6" transform="matrix(0.4789 -0.8779 0.8779 0.4789 -1.9925 95.1808)" class="st3" width="0.4" height="9.3"/>
					
						<rect x="78.4" y="45.7" transform="matrix(0.4789 -0.8779 0.8779 0.4789 -3.2476 95.2257)" class="st3" width="0.4" height="9.3"/>
					
						<rect x="77.8" y="46.8" transform="matrix(0.4789 -0.8779 0.8779 0.4789 -4.502 95.2719)" class="st3" width="0.4" height="9.3"/>
					
						<rect x="77.2" y="47.9" transform="matrix(0.4789 -0.8779 0.8779 0.4789 -5.7568 95.3174)" class="st3" width="0.4" height="9.3"/>
					
						<rect x="76.6" y="49" transform="matrix(0.4789 -0.8779 0.8779 0.4789 -7.0115 95.3629)" class="st3" width="0.4" height="9.3"/>
					<rect x="76" y="50" transform="matrix(0.4789 -0.8779 0.8779 0.4789 -8.2663 95.4085)" class="st3" width="0.4" height="9.3"/>
					
						<rect x="79.6" y="43.6" transform="matrix(0.4789 -0.8779 0.8779 0.4789 -0.7377 95.1352)" class="st3" width="0.4" height="9.3"/>
				</g>
			</g>
			<polygon class="st4" points="73.2,52.3 74.6,50 71.9,50 			"/>
			<g>
				<polygon class="st3" points="69.9,49.5 71.9,46 67.9,46 				"/>
				<polygon class="st3" points="69.9,56.4 71.9,59.9 67.9,59.9 				"/>
				<g>
					<defs>
						<circle id="SVGID_13_" cx="69.9" cy="53" r="1.8"/>
					</defs>
					<clipPath id="SVGID_14_">
						<use xlink:href="#SVGID_13_"  style="overflow:visible;"/>
					</clipPath>
					<g class="st11">
						
							<rect x="71" y="49.8" transform="matrix(0.7071 -0.7071 0.7071 0.7071 -15.8189 65.441)" class="st4" width="0.2" height="4"/>
						
							<rect x="70.5" y="50.3" transform="matrix(0.7071 -0.7071 0.7071 0.7071 -16.2798 65.2501)" class="st4" width="0.2" height="4"/>
						
							<rect x="70" y="50.7" transform="matrix(0.7071 -0.7071 0.7071 0.7071 -16.7408 65.0592)" class="st4" width="0.2" height="4"/>
						
							<rect x="69.6" y="51.2" transform="matrix(0.7071 -0.7071 0.7071 0.7071 -17.2017 64.8683)" class="st4" width="0.2" height="4"/>
						
							<rect x="69.1" y="51.7" transform="matrix(0.7071 -0.7071 0.7071 0.7071 -17.6626 64.6774)" class="st4" width="0.2" height="4"/>
						
							<rect x="68.7" y="52.1" transform="matrix(0.7071 -0.7071 0.7071 0.7071 -18.1235 64.4865)" class="st4" width="0.2" height="4"/>
					</g>
				</g>
			</g>
			<rect x="76.9" y="59.5" class="st4" width="7" height="0.5"/>
			
				<rect x="78.6" y="51.2" transform="matrix(0.7071 0.7071 -0.7071 0.7071 61.022 -41.3268)" class="st3" width="3.5" height="3.5"/>
			<rect x="76.9" y="46" class="st4" width="7" height="0.5"/>
			<polygon class="st4" points="81.1,48 80.4,47.5 79.7,48 79.7,48.8 80.4,49.2 81.1,48.8 			"/>
			<polygon class="st4" points="81.1,57.2 80.4,56.8 79.7,57.2 79.7,58 80.4,58.4 81.1,58 			"/>
		</g>
	</g>
	<g>
		<g>
			<path class="st3" d="M44.6,26.2L39.8,29v5.6l4.9,2.8l4.9-2.8V29L44.6,26.2z M47,34.2c-1.3,1.3-3.4,1.3-4.7,0s-1.3-3.4,0-4.7
				c1.3-1.3,3.4-1.3,4.7,0C48.3,30.8,48.3,32.9,47,34.2z"/>
			<g>
				<defs>
					<circle id="SVGID_15_" cx="44.6" cy="31.9" r="3.3"/>
				</defs>
				<clipPath id="SVGID_16_">
					<use xlink:href="#SVGID_15_"  style="overflow:visible;"/>
				</clipPath>
				<g class="st12">
					
						<rect x="46.5" y="26.1" transform="matrix(0.7071 -0.7071 0.7071 0.7071 -7.3609 41.7661)" class="st4" width="0.4" height="7.3"/>
					
						<rect x="45.7" y="27" transform="matrix(0.7071 -0.7071 0.7071 0.7071 -8.1972 41.4197)" class="st4" width="0.4" height="7.3"/>
					
						<rect x="44.9" y="27.8" transform="matrix(0.7071 -0.7071 0.7071 0.7071 -9.0336 41.0733)" class="st4" width="0.4" height="7.3"/>
					
						<rect x="44" y="28.6" transform="matrix(0.7071 -0.7071 0.7071 0.7071 -9.8699 40.7273)" class="st4" width="0.4" height="7.3"/>
					
						<rect x="43.2" y="29.5" transform="matrix(0.7071 -0.7071 0.7071 0.7071 -10.7064 40.3804)" class="st4" width="0.4" height="7.3"/>
					
						<rect x="42.3" y="30.3" transform="matrix(0.7071 -0.7071 0.7071 0.7071 -11.5428 40.0335)" class="st4" width="0.4" height="7.3"/>
				</g>
			</g>
			<polygon class="st3" points="43.4,24.9 40,23 40,26.9 			"/>
			
				<rect x="41.3" y="18.8" transform="matrix(0.7071 0.7071 -0.7071 0.7071 26.7414 -24.3107)" class="st4" width="2.7" height="2.7"/>
			<polygon class="st3" points="45.2,20.1 48.6,18.2 48.6,22.1 			"/>
		</g>
		<g>
			<path class="st4" d="M56.3,26.2L51.5,29v5.6l4.9,2.8l4.9-2.8V29L56.3,26.2z M58.7,34.2c-1.3,1.3-3.4,1.3-4.7,0s-1.3-3.4,0-4.7
				c1.3-1.3,3.4-1.3,4.7,0C60,30.8,60,32.9,58.7,34.2z"/>
			<g>
				<defs>
					<circle id="SVGID_17_" cx="56.4" cy="31.9" r="3.3"/>
				</defs>
				<clipPath id="SVGID_18_">
					<use xlink:href="#SVGID_17_"  style="overflow:visible;"/>
				</clipPath>
				<g class="st13">
					
						<rect x="54.8" y="33.7" transform="matrix(0.7071 -0.7071 0.7071 0.7071 -6.8848 51.2792)" class="st3" width="7.3" height="0.4"/>
					
						<rect x="54" y="32.9" transform="matrix(0.7071 -0.7071 0.7071 0.7071 -6.5384 50.4429)" class="st3" width="7.3" height="0.4"/>
					
						<rect x="53.1" y="32.1" transform="matrix(0.7071 -0.7071 0.7071 0.7071 -6.1919 49.6065)" class="st3" width="7.3" height="0.4"/>
					
						<rect x="52.3" y="31.2" transform="matrix(0.7071 -0.7071 0.7071 0.7071 -5.8455 48.7701)" class="st3" width="7.3" height="0.4"/>
					
						<rect x="51.5" y="30.4" transform="matrix(0.7071 -0.7071 0.7071 0.7071 -5.499 47.9337)" class="st3" width="7.3" height="0.4"/>
					
						<rect x="50.6" y="29.6" transform="matrix(0.7071 -0.7071 0.7071 0.7071 -5.1526 47.0973)" class="st3" width="7.3" height="0.4"/>
				</g>
			</g>
			<polygon class="st4" points="55.1,24.9 51.7,23 51.7,26.9 			"/>
			
				<rect x="58.3" y="18.8" transform="matrix(0.7071 0.7071 -0.7071 0.7071 31.7134 -36.3144)" class="st3" width="2.7" height="2.7"/>
			<polygon class="st4" points="56.7,20.1 53.4,18.2 53.4,22.1 			"/>
		</g>
		<g>
			<rect x="65.8" y="27.5" class="st4" width="0.5" height="9.2"/>
			<rect x="64.3" y="30" class="st4" width="3.7" height="0.5"/>
			<rect x="70.3" y="26.6" class="st4" width="0.5" height="10.1"/>
			<polygon class="st4" points="73.6,36.8 73.1,36.8 73.1,31.9 70.6,31.9 70.6,31.4 73.6,31.4 			"/>
		</g>
	</g>
</g>
</svg>
