<?xml version="1.0" encoding="utf-8"?>
<!-- Generator: Adobe Illustrator 22.0.0, SVG Export Plug-In . SVG Version: 6.00 Build 0)  -->
<svg version="1.1" id="レイヤー_1" xmlns="http://www.w3.org/2000/svg" xmlns:xlink="http://www.w3.org/1999/xlink" x="0px"
	 y="0px" viewBox="0 0 113.4 85" style="enable-background:new 0 0 113.4 85;" xml:space="preserve">
<style type="text/css">
	.st0{fill:#FFFFFF;}
	.st1{fill:#00A0E9;}
	.st2{fill:#E4007F;}
	.st3{fill:#601986;}
</style>
<g>
	<rect width="113.4" height="85"/>
	<g>
		<g>
			<rect x="7.1" y="23.7" class="st0" width="37.6" height="37.6"/>
			<polygon class="st1" points="13.3,55 13.3,30 19.6,30 19.6,23.7 7.1,23.7 7.1,61.3 19.6,61.3 19.6,55 			"/>
			<g>
				<path class="st1" d="M32.1,48.8L32.1,48.8l-6.3-12.5v0v12.5v10.8C29.6,57.5,32.1,53.4,32.1,48.8"/>
				<path class="st1" d="M27.1,26.2l5,10v0C32.1,32.2,30.2,28.5,27.1,26.2"/>
				<path class="st2" d="M19.6,61.3h6.3v-1.7C24,60.7,21.9,61.3,19.6,61.3"/>
				<path class="st2" d="M25.9,23.7h12.5v25l-6.3-12.5v12.5l6.3,12.5h6.3V23.7h-25c2.8,0,5.4,0.9,7.5,2.5L25.9,23.7z"/>
				<polygon class="st2" points="19.6,23.7 19.6,23.7 19.6,23.7 19.6,23.7 44.7,23.7 44.7,61.3 38.4,61.3 25.9,61.3 19.6,61.3 
					19.6,61.3 19.6,61.3 19.6,61.3 44.7,61.3 44.7,23.7 				"/>
				<path class="st3" d="M32.1,48.8c0,4.6-2.5,8.7-6.3,10.8v1.7h12.5L32.1,48.8L32.1,48.8z"/>
				<path class="st3" d="M38.4,23.7H25.9l1.3,2.5c3,2.3,5,5.9,5,10v0l6.3,12.5V23.7z"/>
				<rect x="7.1" y="61.3" class="st2" width="12.5" height="0"/>
				<rect x="7.1" y="23.7" class="st2" width="12.5" height="0"/>
				<rect x="19.6" y="30" class="st2" width="0" height="25"/>
				<rect x="13.3" y="30" class="st3" width="6.3" height="25"/>
				<path class="st2" d="M19.6,30L19.6,30l0,25h0c3.5,0,6.3-2.8,6.3-6.3V36.3C25.9,32.8,23.1,30,19.6,30"/>
			</g>
		</g>
		<g>
			<path class="st0" d="M53.3,31.1H54v2c0,0.2,0.1,0.4,0.2,0.5c0.1,0.1,0.3,0.2,0.5,0.2c0.2,0,0.3-0.1,0.5-0.2
				c0.1-0.1,0.2-0.3,0.2-0.5v-2h0.6v3.3h-0.6V34h0c-0.2,0.3-0.5,0.4-0.8,0.4c-0.3,0-0.5-0.1-0.7-0.3c-0.2-0.2-0.4-0.5-0.4-0.8V31.1z
				"/>
			<rect x="56.8" y="32.2" class="st0" width="1.9" height="0.7"/>
			<path class="st0" d="M59,31.1h0.7l0.8,2.3h0l0.8-2.3h0.7l-1.4,4c-0.1,0.2-0.2,0.4-0.4,0.5c-0.2,0.1-0.3,0.1-0.5,0.1h-0.2v-0.6
				h0.2c0.1,0,0.2,0,0.2-0.1c0.1,0,0.1-0.1,0.2-0.2l0.2-0.6L59,31.1z"/>
			<path class="st0" d="M64.1,34.1L64.1,34.1c-0.1,0.1-0.2,0.2-0.3,0.2c-0.1,0.1-0.3,0.1-0.5,0.1c-0.4,0-0.6-0.1-0.8-0.3
				c-0.2-0.2-0.3-0.4-0.3-0.7c0-0.3,0.1-0.5,0.3-0.7c0.2-0.2,0.4-0.3,0.8-0.3h0.9v-0.4c0-0.3-0.2-0.4-0.7-0.4c-0.2,0-0.3,0-0.4,0.1
				c-0.1,0-0.2,0.1-0.2,0.2l-0.5-0.4c0.2-0.3,0.6-0.5,1.1-0.5c0.4,0,0.7,0.1,1,0.2c0.2,0.2,0.4,0.5,0.4,0.9v2.3h-0.6V34.1z M64.1,33
				h-0.8c-0.4,0-0.6,0.1-0.6,0.4c0,0.1,0,0.2,0.1,0.3c0.1,0.1,0.2,0.1,0.5,0.1c0.3,0,0.5,0,0.6-0.1c0.1-0.1,0.2-0.2,0.2-0.5V33z"/>
			<path class="st0" d="M71.2,33c0,0.3,0.1,0.5,0.2,0.6c0.1,0.1,0.3,0.2,0.5,0.2c0.3,0,0.5-0.1,0.7-0.3l0.5,0.4
				c-0.3,0.4-0.7,0.5-1.2,0.5c-0.2,0-0.3,0-0.5-0.1c-0.1,0-0.2-0.1-0.2-0.1c-0.1,0-0.2-0.1-0.2-0.2c-0.1-0.1-0.2-0.3-0.3-0.5
				c-0.1-0.2-0.1-0.5-0.1-0.8c0-0.3,0-0.6,0.1-0.8c0.1-0.2,0.2-0.4,0.3-0.5c0.1-0.1,0.3-0.2,0.4-0.3c0.2-0.1,0.3-0.1,0.5-0.1
				c0.4,0,0.7,0.1,0.9,0.4c0.3,0.2,0.4,0.6,0.4,1V33H71.2z M72.6,32.4c0-0.3-0.1-0.5-0.2-0.6c-0.1-0.1-0.3-0.2-0.5-0.2
				c-0.2,0-0.4,0.1-0.5,0.2c-0.1,0.1-0.2,0.3-0.2,0.6H72.6z"/>
			<path class="st0" d="M74.1,33.4c0.3,0.3,0.6,0.4,1,0.4c0.2,0,0.3,0,0.5-0.1c0.1-0.1,0.2-0.2,0.2-0.3c0-0.1,0-0.2-0.1-0.2
				c-0.1,0-0.2-0.1-0.3-0.1L74.8,33c-0.3,0-0.5-0.1-0.7-0.3c-0.2-0.2-0.3-0.4-0.3-0.7c0-0.3,0.1-0.6,0.3-0.8
				c0.2-0.2,0.5-0.3,0.8-0.3c0.1,0,0.3,0,0.4,0c0.1,0,0.2,0.1,0.3,0.1c0.2,0.1,0.4,0.2,0.5,0.3L75.9,32c-0.1-0.1-0.3-0.2-0.4-0.2
				c-0.1-0.1-0.3-0.1-0.5-0.1c-0.2,0-0.3,0-0.4,0.1c-0.1,0.1-0.1,0.2-0.1,0.3c0,0.1,0,0.1,0.1,0.2c0.1,0.1,0.2,0.1,0.3,0.1l0.5,0
				c0.3,0,0.6,0.1,0.7,0.3c0.1,0.2,0.2,0.4,0.2,0.7c0,0.3-0.1,0.6-0.4,0.7c-0.2,0.2-0.6,0.3-0.9,0.3c-0.5,0-1-0.2-1.4-0.6L74.1,33.4
				z"/>
			<polygon class="st0" points="80.1,31.1 80.8,31.1 81.5,33.4 81.6,33.4 82.3,31.1 83,31.1 81.8,34.4 81.3,34.4 			"/>
			<path class="st0" d="M85.1,34.1L85.1,34.1c-0.1,0.1-0.2,0.2-0.3,0.2c-0.1,0.1-0.3,0.1-0.5,0.1c-0.4,0-0.6-0.1-0.8-0.3
				c-0.2-0.2-0.3-0.4-0.3-0.7c0-0.3,0.1-0.5,0.3-0.7c0.2-0.2,0.4-0.3,0.8-0.3h0.9v-0.4c0-0.3-0.2-0.4-0.7-0.4c-0.2,0-0.3,0-0.4,0.1
				c-0.1,0-0.2,0.1-0.2,0.2l-0.5-0.4c0.2-0.3,0.6-0.5,1.1-0.5c0.4,0,0.7,0.1,1,0.2c0.2,0.2,0.4,0.5,0.4,0.9v2.3h-0.6V34.1z M85.1,33
				h-0.8c-0.4,0-0.6,0.1-0.6,0.4c0,0.1,0,0.2,0.1,0.3c0.1,0.1,0.2,0.1,0.5,0.1c0.3,0,0.5,0,0.6-0.1c0.1-0.1,0.2-0.2,0.2-0.5V33z"/>
			<g>
				<path class="st0" d="M49.3,33.1c-0.1,0.4-0.3,0.8-0.6,1c-0.3,0.2-0.6,0.3-1,0.3c-0.4,0-0.7-0.1-0.9-0.3
					c-0.2-0.2-0.4-0.4-0.5-0.6c0-0.1-0.1-0.1-0.1-0.2c0-0.1,0-0.1-0.1-0.2c0-0.2,0-0.5,0-1.1c0-0.5,0-0.9,0-1.1
					c0-0.2,0.1-0.3,0.2-0.4c0.1-0.2,0.3-0.4,0.5-0.6c0.2-0.2,0.5-0.3,0.9-0.3c0.4,0,0.8,0.1,1.1,0.4c0.3,0.3,0.4,0.6,0.5,1h-0.7
					c-0.1-0.2-0.2-0.3-0.3-0.5c-0.2-0.1-0.3-0.2-0.6-0.2c-0.2,0-0.3,0-0.4,0.1c-0.1,0.1-0.2,0.1-0.3,0.2c-0.1,0.1-0.1,0.2-0.2,0.4
					c0,0.2-0.1,0.5-0.1,0.9c0,0.5,0,0.8,0.1,0.9c0,0.2,0.1,0.3,0.2,0.4c0.1,0.1,0.2,0.2,0.3,0.2c0.1,0.1,0.3,0.1,0.4,0.1
					c0.4,0,0.7-0.2,0.9-0.6H49.3z"/>
				<path class="st0" d="M49.8,29.7h0.6v1.7h0c0.2-0.3,0.5-0.4,0.8-0.4c0.3,0,0.5,0.1,0.7,0.3c0.2,0.2,0.3,0.5,0.3,0.9v2.2h-0.6v-2
					c0-0.2-0.1-0.4-0.2-0.5c-0.1-0.1-0.3-0.2-0.5-0.2c-0.2,0-0.3,0.1-0.5,0.2c-0.1,0.1-0.2,0.3-0.2,0.5v2h-0.6V29.7z"/>
				<polygon class="st0" points="67.3,29.7 70.2,29.7 70.2,30.4 68,30.4 68,31.8 69.9,31.8 69.9,32.4 68,32.4 68,34.4 67.3,34.4 
									"/>
				<path class="st0" d="M77.2,30.1h0.6v1h0.5v0.5h-0.5v1.9c0,0.2,0.1,0.3,0.2,0.2h0.2v0.6H78c-0.2,0-0.4-0.1-0.6-0.2
					c-0.1-0.1-0.2-0.3-0.2-0.6v-2h-0.3v-0.5h0.3V30.1z"/>
				<path class="st0" d="M79,29.7h0.6v0.7H79V29.7z M79,31.1h0.6v3.3H79V31.1z"/>
				<path class="st0" d="M86.7,29.7h0.6v3.8c0,0.2,0.1,0.2,0.2,0.2h0.2v0.6h-0.3c-0.2,0-0.4-0.1-0.6-0.2c-0.2-0.1-0.2-0.3-0.2-0.6
					V29.7z"/>
				<path class="st0" d="M89.8,33.7l1.8-2.3c0.1-0.1,0.1-0.2,0.1-0.3c0-0.1,0-0.1,0-0.2c0-0.2-0.1-0.3-0.2-0.5
					c-0.1-0.1-0.3-0.2-0.5-0.2c-0.2,0-0.3,0.1-0.4,0.2c-0.1,0.1-0.2,0.3-0.2,0.5h-0.6c0-0.4,0.1-0.7,0.4-1c0.2-0.2,0.5-0.4,0.9-0.4
					c0.4,0,0.7,0.1,0.9,0.4c0.2,0.2,0.4,0.6,0.4,0.9c0,0.3-0.1,0.6-0.3,0.8l-1.5,1.9h1.7v0.7h-2.6V33.7z"/>
				<path class="st0" d="M92.9,31c0-0.4,0.1-0.8,0.4-1c0.2-0.2,0.5-0.3,0.9-0.3c0.4,0,0.6,0.1,0.9,0.3c0.3,0.2,0.4,0.6,0.4,1v2.1
					c0,0.4-0.1,0.8-0.4,1c-0.2,0.2-0.5,0.3-0.9,0.4c-0.3,0-0.6-0.1-0.9-0.4c-0.3-0.2-0.4-0.6-0.4-1V31z M94.9,31.1
					c0-0.5-0.2-0.7-0.6-0.7c-0.4,0-0.6,0.2-0.6,0.7v2c0,0.5,0.2,0.7,0.6,0.7c0.4,0,0.6-0.2,0.6-0.7V31.1z"/>
				<polygon class="st0" points="97.1,30.4 96.4,30.9 96.4,30.2 97.1,29.7 97.7,29.7 97.7,34.4 97.1,34.4 				"/>
				<polygon class="st0" points="99.3,29.7 101.9,29.7 101.9,30.4 100.3,34.4 99.6,34.4 101.1,30.4 100,30.4 100,31.1 99.3,31.1 
									"/>
			</g>
		</g>
		<g>
			<polygon class="st0" points="47.3,24.4 46.1,24.4 46.1,23.7 49.2,23.7 49.2,24.4 48,24.4 48,28.4 47.3,28.4 			"/>
			<path class="st0" d="M49.9,27.4c0.3,0.3,0.6,0.4,1,0.4c0.2,0,0.3,0,0.5-0.1c0.1-0.1,0.2-0.2,0.2-0.3c0-0.1,0-0.2-0.1-0.2
				c-0.1,0-0.2-0.1-0.3-0.1L50.5,27c-0.3,0-0.5-0.1-0.7-0.3c-0.2-0.2-0.3-0.4-0.3-0.7c0-0.3,0.1-0.6,0.3-0.8
				c0.2-0.2,0.5-0.3,0.8-0.3c0.1,0,0.3,0,0.4,0c0.1,0,0.2,0.1,0.3,0.1c0.2,0.1,0.4,0.2,0.5,0.3L51.7,26c-0.1-0.1-0.3-0.2-0.4-0.2
				c-0.1-0.1-0.3-0.1-0.5-0.1c-0.2,0-0.3,0-0.4,0.1c-0.1,0.1-0.1,0.2-0.1,0.3c0,0.1,0,0.1,0.1,0.2c0.1,0.1,0.2,0.1,0.3,0.1l0.5,0
				c0.3,0,0.6,0.1,0.7,0.3c0.1,0.2,0.2,0.4,0.2,0.7c0,0.3-0.1,0.6-0.4,0.7c-0.2,0.2-0.6,0.3-0.9,0.3c-0.5,0-1-0.2-1.4-0.6L49.9,27.4
				z"/>
			<path class="st0" d="M52.9,25.1h0.6v2c0,0.2,0.1,0.4,0.2,0.5c0.1,0.1,0.3,0.2,0.5,0.2c0.2,0,0.3-0.1,0.5-0.2
				c0.1-0.1,0.2-0.3,0.2-0.5v-2h0.6v3.3h-0.6V28h0c-0.2,0.3-0.5,0.4-0.8,0.4c-0.3,0-0.5-0.1-0.7-0.3c-0.2-0.2-0.4-0.5-0.4-0.8V25.1z
				"/>
			<polygon class="st0" points="56.4,23.7 57.1,23.7 57.1,26.6 57.1,26.6 58.3,25.1 59.1,25.1 58,26.4 59.2,28.4 58.4,28.4 
				57.6,26.8 57.1,27.4 57.1,28.4 56.4,28.4 			"/>
			<path class="st0" d="M59.8,25.1h0.6v2c0,0.2,0.1,0.4,0.2,0.5c0.1,0.1,0.3,0.2,0.5,0.2c0.2,0,0.3-0.1,0.5-0.2
				c0.1-0.1,0.2-0.3,0.2-0.5v-2h0.6v3.3h-0.6V28h0c-0.2,0.3-0.5,0.4-0.8,0.4c-0.3,0-0.5-0.1-0.7-0.3c-0.2-0.2-0.4-0.5-0.4-0.8V25.1z
				"/>
			<polygon class="st0" points="63.3,23.7 64,23.7 64,26.6 64,26.6 65.2,25.1 66,25.1 64.9,26.4 66.1,28.4 65.3,28.4 64.5,26.8 
				64,27.4 64,28.4 63.3,28.4 			"/>
			<path class="st0" d="M66.6,26.7c0-0.3,0-0.6,0.1-0.8c0.1-0.2,0.1-0.3,0.3-0.5c0.1-0.1,0.2-0.2,0.4-0.3c0.2-0.1,0.4-0.1,0.6-0.1
				c0.3,0,0.5,0,0.6,0.1c0.2,0.1,0.3,0.2,0.4,0.3c0.1,0.1,0.2,0.3,0.3,0.5c0.1,0.2,0.1,0.5,0.1,0.8c0,0.3,0,0.6-0.1,0.8
				c-0.1,0.2-0.1,0.3-0.3,0.5c0,0-0.1,0.1-0.2,0.1c-0.1,0.1-0.1,0.1-0.2,0.1c-0.2,0.1-0.4,0.1-0.6,0.1c-0.2,0-0.4-0.1-0.6-0.1
				c-0.2-0.1-0.3-0.2-0.4-0.3c-0.1-0.1-0.2-0.3-0.3-0.5C66.6,27.3,66.6,27.1,66.6,26.7 M68.6,26.7c0-0.2,0-0.4,0-0.5
				c0-0.1-0.1-0.2-0.1-0.3c0-0.1-0.1-0.1-0.2-0.2c-0.1,0-0.2-0.1-0.3-0.1c-0.1,0-0.2,0-0.3,0.1c-0.1,0-0.2,0.1-0.2,0.2
				c-0.1,0.1-0.1,0.2-0.1,0.3c0,0.1,0,0.3,0,0.5c0,0.2,0,0.4,0,0.5c0,0.1,0.1,0.2,0.1,0.3c0.1,0.1,0.1,0.1,0.2,0.2
				c0.1,0,0.2,0.1,0.3,0.1c0.1,0,0.2,0,0.3-0.1c0.1,0,0.2-0.1,0.2-0.2c0.1-0.1,0.1-0.2,0.1-0.3C68.6,27.1,68.6,27,68.6,26.7"/>
			<path class="st0" d="M70,25.1h0.6v0.4h0c0.2-0.3,0.5-0.4,0.9-0.4c0.2,0,0.4,0,0.6,0.1c0.1,0.1,0.3,0.2,0.4,0.3
				c0.3-0.3,0.6-0.4,1-0.4c0.3,0,0.5,0.1,0.8,0.3c0.2,0.2,0.3,0.5,0.4,0.9v2.2h-0.6v-2c0-0.2-0.1-0.4-0.2-0.5
				c-0.1-0.1-0.3-0.2-0.5-0.2c-0.2,0-0.4,0.1-0.5,0.2c-0.1,0.1-0.2,0.3-0.2,0.5v2H72v-2c0-0.2-0.1-0.4-0.2-0.5
				c-0.1-0.1-0.3-0.2-0.5-0.2s-0.4,0.1-0.5,0.2c-0.1,0.1-0.2,0.3-0.2,0.5v2H70V25.1z"/>
			<path class="st0" d="M77.3,28.1L77.3,28.1c-0.1,0.1-0.2,0.2-0.3,0.2c-0.1,0.1-0.3,0.1-0.5,0.1c-0.4,0-0.6-0.1-0.8-0.3
				c-0.2-0.2-0.3-0.4-0.3-0.7c0-0.3,0.1-0.5,0.3-0.7c0.2-0.2,0.4-0.3,0.8-0.3h0.9v-0.4c0-0.3-0.2-0.4-0.7-0.4c-0.2,0-0.3,0-0.4,0.1
				c-0.1,0-0.2,0.1-0.2,0.2l-0.5-0.4c0.2-0.3,0.6-0.5,1.1-0.5c0.4,0,0.7,0.1,1,0.2c0.2,0.2,0.4,0.5,0.4,0.9v2.3h-0.6V28.1z M77.3,27
				h-0.8c-0.4,0-0.6,0.1-0.6,0.4c0,0.1,0,0.2,0.1,0.3c0.1,0.1,0.2,0.1,0.5,0.1c0.3,0,0.5,0,0.6-0.1c0.1-0.1,0.2-0.2,0.2-0.5V27z"/>
		</g>
		<g>
			<path class="st0" d="M52.9,39.5c-0.7-1.2-1.8-1.8-3.2-1.8h-3.7v10.9h3.6c0.8,0,1.5-0.2,2-0.5c0.5-0.3,1-0.8,1.3-1.3
				c0.1-0.2,0.2-0.4,0.3-0.6c0.1-0.2,0.1-0.4,0.2-0.6c0.1-0.5,0.1-1.3,0.1-2.5c0-1.1,0-1.9-0.1-2.3C53.4,40.3,53.2,39.9,52.9,39.5
				 M52,45.2c-0.1,0.4-0.2,0.7-0.4,0.9c-0.4,0.7-1.1,1-2,1h-2v-8.1h2c0.8,0,1.5,0.3,2,1c0.2,0.3,0.4,0.6,0.4,1
				c0,0.4,0.1,1.1,0.1,2.1C52,44.2,52,44.9,52,45.2"/>
			<path class="st0" d="M58.6,37.7l-3.8,10.9h1.5l0.8-2.5h4.2l0.8,2.5h1.5l-3.8-10.9H58.6z M57.6,44.8l1.6-5h0.1l1.6,5H57.6z"/>
			<polygon class="st0" points="65.3,37.7 65.3,48.6 66.8,48.6 66.8,40.7 66.9,40.7 71.8,48.6 73.2,48.6 73.2,37.7 71.7,37.7 
				71.7,45.5 71.6,45.5 71.6,45.5 66.7,37.7 			"/>
			<path class="st0" d="M78.3,46.9c-0.3-0.1-0.5-0.3-0.7-0.6c-0.2-0.2-0.4-0.6-0.4-1C77.1,45,77,44.2,77,43.1c0-1.1,0-1.8,0.1-2.2
				c0.1-0.4,0.2-0.7,0.4-1c0.2-0.2,0.4-0.4,0.7-0.6c0.3-0.2,0.6-0.2,1-0.2c0.5,0,1,0.2,1.4,0.5c0.3,0.3,0.6,0.7,0.7,1.1H83
				c-0.2-0.9-0.6-1.6-1.2-2.2c-0.6-0.6-1.5-0.9-2.5-0.9c-0.8,0-1.5,0.2-2.1,0.6c-0.6,0.4-1,0.8-1.2,1.3c-0.2,0.3-0.3,0.6-0.4,1
				c-0.1,0.4-0.1,1.3-0.1,2.6c0,1.3,0,2.1,0.1,2.5c0,0.2,0.1,0.4,0.1,0.6c0.1,0.1,0.1,0.3,0.2,0.5c0.3,0.5,0.7,0.9,1.2,1.3
				c0.5,0.4,1.2,0.6,2.1,0.6c0.9,0,1.7-0.3,2.4-0.8c0.6-0.5,1.1-1.3,1.3-2.2h-1.6c-0.5,1-1.2,1.5-2.1,1.5
				C78.9,47.2,78.6,47.1,78.3,46.9"/>
			<rect x="84.6" y="37.7" class="st0" width="1.5" height="10.9"/>
			<polygon class="st0" points="88.6,37.7 88.6,48.6 90,48.6 90,40.7 90.2,40.7 95,48.6 96.4,48.6 96.4,37.7 95,37.7 95,45.5 
				94.8,45.5 94.8,45.5 90,37.7 			"/>
			<path class="st0" d="M104.8,44.7c0,0.7-0.2,1.3-0.7,1.7c-0.4,0.5-1,0.7-1.6,0.7c-0.4,0-0.7-0.1-1-0.3c-0.3-0.1-0.5-0.3-0.7-0.6
				c-0.2-0.2-0.4-0.6-0.4-1c-0.1-0.4-0.1-1.1-0.1-2.2c0-1.1,0-1.8,0.1-2.2c0.1-0.4,0.2-0.7,0.4-1c0.2-0.2,0.4-0.4,0.7-0.6
				c0.3-0.2,0.6-0.2,1-0.2c0.5,0,1,0.2,1.4,0.5c0.3,0.3,0.6,0.7,0.7,1.1h1.6c-0.2-0.9-0.6-1.6-1.2-2.2c-0.6-0.6-1.5-0.9-2.5-0.9
				c-0.8,0-1.5,0.2-2.1,0.6c-0.6,0.4-1,0.8-1.2,1.3c-0.2,0.3-0.3,0.6-0.4,1c-0.1,0.4-0.1,1.3-0.1,2.6c0,1.3,0,2.1,0.1,2.5
				c0,0.2,0.1,0.4,0.1,0.6c0.1,0.1,0.1,0.3,0.2,0.5c0.3,0.5,0.7,0.9,1.2,1.3c0.5,0.4,1.2,0.6,2.1,0.6c1.1,0,2-0.4,2.7-1.1
				c0.7-0.7,1.1-1.6,1.1-2.7v-2.2h-3.6v1.4h2.2V44.7z"/>
			<polygon class="st0" points="46.1,50.3 46.1,61.2 47.5,61.2 47.5,53.4 47.7,53.4 52.5,61.2 54,61.2 54,50.3 52.5,50.3 52.5,58.2 
				52.3,58.2 47.5,50.3 			"/>
			<rect x="56.7" y="50.3" class="st0" width="1.5" height="10.9"/>
			<path class="st0" d="M66.4,57.4c0,0.7-0.2,1.3-0.7,1.7c-0.4,0.5-1,0.7-1.6,0.7c-0.4,0-0.7-0.1-1-0.3c-0.3-0.1-0.5-0.3-0.7-0.6
				c-0.2-0.2-0.4-0.6-0.4-1c-0.1-0.4-0.1-1.1-0.1-2.2c0-1.1,0-1.8,0.1-2.2c0.1-0.4,0.2-0.7,0.4-1c0.2-0.2,0.4-0.4,0.7-0.6
				c0.3-0.2,0.6-0.2,1-0.2c0.5,0,1,0.2,1.4,0.5c0.3,0.3,0.6,0.7,0.7,1.1h1.6c-0.2-0.9-0.6-1.6-1.2-2.2c-0.6-0.6-1.5-0.9-2.5-0.9
				c-0.8,0-1.5,0.2-2.1,0.6c-0.6,0.4-1,0.8-1.2,1.3c-0.2,0.3-0.3,0.6-0.4,1c-0.1,0.4-0.1,1.3-0.1,2.6c0,1.3,0,2.1,0.1,2.5
				c0,0.2,0.1,0.4,0.1,0.6c0.1,0.1,0.1,0.3,0.2,0.5c0.3,0.5,0.7,0.9,1.2,1.3c0.5,0.4,1.2,0.6,2.1,0.6c1.1,0,2-0.4,2.7-1.1
				c0.7-0.7,1.1-1.6,1.1-2.7v-2.2h-3.6v1.4h2.2V57.4z"/>
			<polygon class="st0" points="71.6,50.3 70.2,50.3 70.2,61.2 71.6,61.2 71.6,56.4 76,56.4 76,61.2 77.5,61.2 77.5,50.3 76,50.3 
				76,55.1 71.6,55.1 			"/>
			<polygon class="st0" points="82,61.2 83.5,61.2 83.5,51.7 86.4,51.7 86.4,50.3 79.1,50.3 79.1,51.7 82,51.7 			"/>
		</g>
	</g>
</g>
</svg>
