<?xml version="1.0" encoding="utf-8"?>
<!-- Generator: Adobe Illustrator 22.0.0, SVG Export Plug-In . SVG Version: 6.00 Build 0)  -->
<svg version="1.1" id="レイヤー_1" xmlns="http://www.w3.org/2000/svg" xmlns:xlink="http://www.w3.org/1999/xlink" x="0px"
	 y="0px" viewBox="0 0 113.4 85" style="enable-background:new 0 0 113.4 85;" xml:space="preserve">
<style type="text/css">
	.st0{clip-path:url(#SVGID_2_);fill:#595757;}
	.st1{clip-path:url(#SVGID_2_);fill:#A32227;}
	.st2{clip-path:url(#SVGID_2_);}
	.st3{clip-path:url(#SVGID_4_);fill:#FFFFFF;}
	.st4{clip-path:url(#SVGID_4_);fill:#231815;}
	.st5{clip-path:url(#SVGID_4_);fill:none;stroke:#231815;stroke-width:9.000000e-03;stroke-miterlimit:10;}
</style>
<g>
	<g>
		<defs>
			<rect id="SVGID_1_" x="0" y="0" width="113.4" height="85"/>
		</defs>
		<clipPath id="SVGID_2_">
			<use xlink:href="#SVGID_1_"  style="overflow:visible;"/>
		</clipPath>
		<rect x="0" y="0" class="st0" width="113.4" height="85"/>
		<polygon class="st1" points="105.5,0 0,38.4 0,85 7.9,85 113.4,46.6 113.4,0 		"/>
		<g class="st2">
			<defs>
				<rect id="SVGID_3_" x="0" y="0" width="113.4" height="85"/>
			</defs>
			<clipPath id="SVGID_4_">
				<use xlink:href="#SVGID_3_"  style="overflow:visible;"/>
			</clipPath>
			<path class="st3" d="M15.7,34.8c0.3,0,0.5,0.2,0.5,0.5c0,0.3-0.2,0.6-0.5,0.6l-3.5,0.2c-0.3,0-0.5,0.2-0.5,0.6l1,16.6
				c0,0.3-0.2,0.5-0.6,0.6c-0.3,0-0.6-0.2-0.6-0.5l-1-16.6c-0.1-1.1,0.4-1.6,1.5-1.7L15.7,34.8z"/>
			<path class="st3" d="M25.5,50.1c0.1-0.7,0.5-2.2,0.9-3.5l2.5-9.3c0.2-0.7,0.4-0.9,1-1c0.6,0,1.1,0.3,1.2,0.8c0,0.3,0,0.4-0.1,0.9
				l-4,13.9c-0.2,0.5-0.6,0.8-1.2,0.8c-0.6,0-1-0.2-1.2-0.7l-5.7-13.3c-0.2-0.4-0.2-0.6-0.3-0.8c0-0.6,0.4-1,1-1
				c0.5,0,0.8,0.2,1.1,0.8l3.6,8.9C24.8,48.4,25.1,49.1,25.5,50.1L25.5,50.1z"/>
			<path class="st3" d="M41.1,41.1c0.1-0.4,0.3-0.6,0.8-0.7c0.5,0,0.9,0.3,1,0.8l0.6,9.6c0,0.5-0.3,0.9-0.8,0.9
				c-0.4,0-0.8-0.2-0.9-0.7L41.4,50c-0.7,1.3-2,2.1-3.4,2.2c-2.8,0.2-4.9-2.1-5.1-5.6c-0.2-3.4,1.6-5.9,4.4-6
				c1.4-0.1,2.6,0.4,3.6,1.6L41.1,41.1z M35,46.4c0.2,2.6,1.4,4.2,3.3,4.1c1.2-0.1,2.3-1,2.7-2.2c0.2-0.6,0.3-1.4,0.2-2.3
				c-0.1-1.1-0.2-1.8-0.6-2.3c-0.7-1.2-1.7-1.8-2.8-1.7C35.9,42.2,34.8,43.9,35,46.4"/>
			<path class="st3" d="M49.3,50.4c0,0.5-0.4,0.9-0.9,0.9c-0.6,0-1-0.3-1-0.8l-0.6-9.6c0-0.5,0.3-0.9,0.8-0.9c0.5,0,0.9,0.3,1,0.8
				l0.2,1.3c0.8-1.5,2.1-2.3,3.6-2.4c2.4-0.1,3.9,1.4,4.1,4.1l0.4,6.2c0,0.5-0.4,0.9-0.9,0.9c-0.6,0-1-0.3-1-0.8l-0.4-6
				c-0.1-2-0.9-2.8-2.5-2.7c-1.4,0.1-2.6,1.2-3,3L49.3,50.4z"/>
			<path class="st3" d="M62.3,35.8c0,0.7-0.5,1.4-1.3,1.4c-0.7,0-1.4-0.5-1.4-1.3c0-0.7,0.5-1.3,1.3-1.4
				C61.6,34.5,62.3,35.1,62.3,35.8 M62.8,49.6c0,0.5-0.4,0.9-0.9,0.9c-0.6,0-1-0.3-1-0.8l-0.6-9.5c0-0.5,0.4-0.9,0.9-1
				c0.6,0,1,0.3,1,0.8L62.8,49.6z"/>
			<path class="st3" d="M70.6,43.5c2.1,0.5,3.3,1.6,3.4,3.2c0.1,1-0.4,1.9-1.2,2.6c-0.6,0.5-1.5,0.8-2.6,0.9c-1.5,0.1-2.7-0.3-3.6-1
				c-0.3-0.3-0.5-0.5-0.5-0.8c0-0.5,0.3-0.9,0.8-0.9c0.3,0,0.4,0,0.9,0.4c0.6,0.5,1.5,0.8,2.4,0.7c1.2-0.1,2-0.7,1.9-1.7
				c-0.1-0.8-0.7-1.3-2.4-1.9l-0.7-0.2c-1-0.3-1.5-0.5-2-0.9c-0.7-0.4-1.1-1.1-1.1-2c-0.1-1.9,1.3-3.3,3.5-3.4
				c2-0.1,3.8,0.7,3.8,1.7c0,0.5-0.3,0.9-0.7,0.9c-0.4,0-0.5,0-0.8-0.4c-0.5-0.5-1.3-0.8-2.2-0.7c-1.2,0.1-1.9,0.8-1.8,1.7
				c0,0.8,0.7,1.2,2.2,1.6L70.6,43.5z"/>
			<path class="st3" d="M79.2,48.6c0,0.5-0.4,0.9-0.9,0.9c-0.6,0-1-0.3-1-0.8l-0.9-14.9c0-0.5,0.4-0.9,0.9-0.9c0.6,0,1,0.3,1,0.8
				l0.4,6.6c0.8-1.5,2.1-2.3,3.5-2.4c2.4-0.1,3.9,1.4,4.1,4.1l0.4,6.2c0,0.5-0.4,0.9-0.9,0.9c-0.6,0-1-0.3-1-0.8l-0.4-6
				c-0.1-2-0.9-2.8-2.5-2.7c-1.4,0.1-2.6,1.2-3,3L79.2,48.6z"/>
			<path class="st3" d="M93.4,47.3c0,0.8-0.6,1.5-1.4,1.6c-0.8,0-1.5-0.6-1.6-1.4c0-0.8,0.6-1.5,1.4-1.5
				C92.6,45.9,93.3,46.5,93.4,47.3 M92.3,44c0,0.3-0.2,0.6-0.6,0.6c-0.3,0-0.6-0.2-0.6-0.6l-1.2-10.5c-0.1-0.6,0.4-1.1,1.1-1.1
				c0.7,0,1.2,0.4,1.2,1L92.3,44z"/>
			<path class="st3" d="M102.8,48.3c0.1,1.1-0.4,1.6-1.5,1.7l-3.7,0.2c-0.3,0-0.5-0.2-0.5-0.5c0-0.3,0.2-0.6,0.5-0.6l3.5-0.2
				c0.3,0,0.5-0.2,0.5-0.6l-1-16.6c0-0.3,0.2-0.5,0.6-0.6c0.3,0,0.6,0.2,0.6,0.5L102.8,48.3z"/>
			<rect x="-14.8" y="76.8" class="st4" width="140.3" height="8.2"/>
			<rect x="-14.8" y="0" class="st4" width="140.3" height="8.2"/>
			<polygon class="st3" points="3.7,8.2 1.5,4.1 3.7,0 6,4.1 			"/>
			<polygon class="st5" points="3.7,8.2 1.5,4.1 3.7,0 6,4.1 			"/>
			<path class="st3" d="M14.6,0.9c-1.2-0.3-1.9,0.9-2.1,1.1c-0.1-0.3-0.9-1.5-2.1-1.1C9,1.3,8.8,3.4,9.7,4.5
				c0.9,1.1,2.7,2.5,2.8,2.8c0,0,0,0,0,0c0.1-0.3,1.9-1.7,2.8-2.8C16.3,3.4,16.1,1.3,14.6,0.9"/>
			<path class="st3" d="M22.8,2.7c-0.6-0.6-1.4-1.8-1.4-1.9C21.3,0.9,20.5,2,20,2.7c-0.6,0.6-1.4,1.6-1.2,2.6
				C18.9,6.1,20,6.7,20.8,6c0.2-0.2,0.3-0.3,0.3-0.3s0.1,1.1-0.5,1.7c-0.1,0.1-0.2,0.1-0.1,0.1h0.8h0.8c0.1,0,0,0-0.1-0.1
				c-0.6-0.6-0.6-1.7-0.5-1.7c0.1,0,0.1,0.2,0.3,0.3c0.8,0.7,1.9,0.1,2.1-0.8C24.2,4.3,23.4,3.3,22.8,2.7"/>
			<path class="st3" d="M31.8,3.3c-0.1,0-0.3,0-0.4,0c0.2-0.3,0.4-0.7,0.4-1.1c0-0.9-0.7-1.6-1.6-1.6c-0.9,0-1.6,0.7-1.6,1.6
				c0,0.4,0.1,0.8,0.4,1.1c-0.1,0-0.3,0-0.4,0C27.7,3.3,27,4,27,4.9s0.7,1.6,1.6,1.6c0.6,0,1.1-0.3,1.4-0.8c0,0.2,0,1.4-0.5,1.8h0.8
				H31c-0.5-0.5-0.5-1.6-0.5-1.8c0.3,0.5,0.8,0.8,1.4,0.8c0.9,0,1.6-0.7,1.6-1.6S32.7,3.3,31.8,3.3"/>
			<polygon class="st3" points="39,8.2 36.8,4.1 39,0 41.3,4.1 			"/>
			<polygon class="st5" points="39,8.2 36.8,4.1 39,0 41.3,4.1 			"/>
			<path class="st3" d="M49.9,0.9c-1.2-0.3-1.9,0.9-2.1,1.1c-0.1-0.3-0.9-1.5-2.1-1.1c-1.5,0.4-1.7,2.5-0.7,3.6
				C46,5.6,47.8,7,47.9,7.3c0,0,0,0,0,0C48,7,49.7,5.6,50.7,4.5C51.6,3.4,51.4,1.3,49.9,0.9"/>
			<path class="st3" d="M58.1,2.7c-0.6-0.6-1.4-1.8-1.4-1.9c-0.1,0.2-0.9,1.3-1.4,1.9c-0.6,0.6-1.4,1.6-1.2,2.6s1.3,1.5,2.1,0.8
				c0.2-0.2,0.3-0.3,0.3-0.3c0.1,0,0.1,1.1-0.5,1.7c-0.1,0.1-0.2,0.1-0.1,0.1h0.8h0.8c0.1,0,0,0-0.1-0.1c-0.6-0.6-0.6-1.7-0.5-1.7
				s0.2,0.2,0.3,0.3c0.8,0.7,1.9,0.1,2.1-0.8C59.5,4.3,58.7,3.3,58.1,2.7"/>
			<path class="st3" d="M67.2,3.3c-0.1,0-0.3,0-0.4,0c0.2-0.3,0.4-0.7,0.4-1.1c0-0.9-0.7-1.6-1.6-1.6s-1.6,0.7-1.6,1.6
				c0,0.4,0.1,0.8,0.4,1.1c-0.1,0-0.3,0-0.4,0c-0.9,0-1.6,0.7-1.6,1.6s0.7,1.6,1.6,1.6c0.6,0,1.1-0.3,1.4-0.8c0,0.2,0,1.4-0.5,1.8
				h0.8h0.8c-0.5-0.5-0.5-1.6-0.5-1.8c0.3,0.5,0.8,0.8,1.4,0.8c0.9,0,1.6-0.7,1.6-1.6S68,3.3,67.2,3.3"/>
			<polygon class="st3" points="74.4,8.2 72.1,4.1 74.4,0 76.6,4.1 			"/>
			<polygon class="st5" points="74.4,8.2 72.1,4.1 74.4,0 76.6,4.1 			"/>
			<path class="st3" d="M85.2,0.9c-1.2-0.3-1.9,0.9-2.1,1.1c-0.1-0.3-0.9-1.5-2.1-1.1c-1.5,0.4-1.7,2.5-0.7,3.6
				c0.9,1.1,2.7,2.5,2.8,2.8c0,0,0,0,0,0C83.3,7,85,5.6,86,4.5C86.9,3.4,86.8,1.3,85.2,0.9"/>
			<path class="st3" d="M93.4,2.7C92.9,2,92.1,0.9,92,0.7C92,0.9,91.1,2,90.6,2.7c-0.6,0.6-1.4,1.6-1.2,2.6s1.3,1.5,2.1,0.8
				c0.2-0.2,0.3-0.3,0.3-0.3c0.1,0,0.1,1.1-0.5,1.7c-0.1,0.1-0.2,0.1-0.1,0.1H92h0.8c0.1,0,0,0-0.1-0.1c-0.6-0.6-0.6-1.7-0.5-1.7
				c0.1,0,0.2,0.2,0.3,0.3c0.8,0.7,1.9,0.1,2.1-0.8C94.8,4.3,94,3.3,93.4,2.7"/>
			<path class="st3" d="M102.5,3.3c-0.1,0-0.3,0-0.4,0c0.2-0.3,0.4-0.7,0.4-1.1c0-0.9-0.7-1.6-1.6-1.6s-1.6,0.7-1.6,1.6
				c0,0.4,0.1,0.8,0.4,1.1c-0.1,0-0.3,0-0.4,0c-0.9,0-1.6,0.7-1.6,1.6s0.7,1.6,1.6,1.6c0.6,0,1.1-0.3,1.4-0.8c0,0.2,0,1.4-0.5,1.8
				h0.8h0.8c-0.5-0.5-0.5-1.6-0.5-1.8c0.3,0.5,0.8,0.8,1.4,0.8c0.9,0,1.6-0.7,1.6-1.6S103.3,3.3,102.5,3.3"/>
			<polygon class="st3" points="109.7,8.2 107.4,4.1 109.7,0 111.9,4.1 			"/>
			<polygon class="st5" points="109.7,8.2 107.4,4.1 109.7,0 111.9,4.1 			"/>
			<polygon class="st3" points="3.7,85 1.5,80.9 3.7,76.8 6,80.9 			"/>
			<polygon class="st5" points="3.7,85 1.5,80.9 3.7,76.8 6,80.9 			"/>
			<path class="st3" d="M14.6,77.7c-1.2-0.3-1.9,0.9-2.1,1.1c-0.1-0.3-0.9-1.5-2.1-1.1c-1.5,0.4-1.7,2.5-0.7,3.6
				c0.9,1.1,2.7,2.5,2.8,2.8c0,0,0,0,0,0c0.1-0.3,1.9-1.7,2.8-2.8C16.3,80.2,16.1,78.2,14.6,77.7"/>
			<path class="st3" d="M22.8,79.5c-0.6-0.6-1.4-1.8-1.4-1.9c-0.1,0.2-0.9,1.3-1.4,1.9c-0.6,0.6-1.4,1.6-1.2,2.6
				c0.2,0.9,1.3,1.5,2.1,0.8c0.2-0.2,0.3-0.3,0.3-0.3s0.1,1.1-0.5,1.7c-0.1,0.1-0.2,0.1-0.1,0.1h0.8h0.8c0.1,0,0,0-0.1-0.1
				c-0.6-0.6-0.6-1.7-0.5-1.7c0.1,0,0.1,0.2,0.3,0.3c0.8,0.7,1.9,0.1,2.1-0.8C24.2,81.1,23.4,80.1,22.8,79.5"/>
			<path class="st3" d="M31.8,80.2c-0.1,0-0.3,0-0.4,0c0.2-0.3,0.4-0.7,0.4-1.1c0-0.9-0.7-1.6-1.6-1.6c-0.9,0-1.6,0.7-1.6,1.6
				c0,0.4,0.1,0.8,0.4,1.1c-0.1,0-0.3,0-0.4,0c-0.9,0-1.6,0.7-1.6,1.6c0,0.9,0.7,1.6,1.6,1.6c0.6,0,1.1-0.3,1.4-0.8
				c0,0.2,0,1.4-0.5,1.8h0.8H31c-0.5-0.5-0.5-1.6-0.5-1.8c0.3,0.5,0.8,0.8,1.4,0.8c0.9,0,1.6-0.7,1.6-1.6
				C33.4,80.9,32.7,80.2,31.8,80.2"/>
			<polygon class="st3" points="39,85 36.8,80.9 39,76.8 41.3,80.9 			"/>
			<polygon class="st5" points="39,85 36.8,80.9 39,76.8 41.3,80.9 			"/>
			<path class="st3" d="M49.9,77.7c-1.2-0.3-1.9,0.9-2.1,1.1c-0.1-0.3-0.9-1.5-2.1-1.1c-1.5,0.4-1.7,2.5-0.7,3.6
				c0.9,1.1,2.7,2.5,2.8,2.8c0,0,0,0,0,0c0.1-0.3,1.9-1.7,2.8-2.8C51.6,80.2,51.4,78.2,49.9,77.7"/>
			<path class="st3" d="M58.1,79.5c-0.6-0.6-1.4-1.8-1.4-1.9c-0.1,0.2-0.9,1.3-1.4,1.9c-0.6,0.6-1.4,1.6-1.2,2.6
				c0.2,0.9,1.3,1.5,2.1,0.8c0.2-0.2,0.3-0.3,0.3-0.3c0.1,0,0.1,1.1-0.5,1.7c-0.1,0.1-0.2,0.1-0.1,0.1h0.8h0.8c0.1,0,0,0-0.1-0.1
				c-0.6-0.6-0.6-1.7-0.5-1.7s0.2,0.2,0.3,0.3c0.8,0.7,1.9,0.1,2.1-0.8C59.5,81.1,58.7,80.1,58.1,79.5"/>
			<path class="st3" d="M67.2,80.2c-0.1,0-0.3,0-0.4,0c0.2-0.3,0.4-0.7,0.4-1.1c0-0.9-0.7-1.6-1.6-1.6s-1.6,0.7-1.6,1.6
				c0,0.4,0.1,0.8,0.4,1.1c-0.1,0-0.3,0-0.4,0c-0.9,0-1.6,0.7-1.6,1.6c0,0.9,0.7,1.6,1.6,1.6c0.6,0,1.1-0.3,1.4-0.8
				c0,0.2,0,1.4-0.5,1.8h0.8h0.8c-0.5-0.5-0.5-1.6-0.5-1.8c0.3,0.5,0.8,0.8,1.4,0.8c0.9,0,1.6-0.7,1.6-1.6
				C68.7,80.9,68,80.2,67.2,80.2"/>
			<polygon class="st3" points="74.4,85 72.1,80.9 74.4,76.8 76.6,80.9 			"/>
			<polygon class="st5" points="74.4,85 72.1,80.9 74.4,76.8 76.6,80.9 			"/>
			<path class="st3" d="M85.2,77.7c-1.2-0.3-1.9,0.9-2.1,1.1c-0.1-0.3-0.9-1.5-2.1-1.1c-1.5,0.4-1.7,2.5-0.7,3.6
				c0.9,1.1,2.7,2.5,2.8,2.8c0,0,0,0,0,0c0.1-0.3,1.9-1.7,2.8-2.8C86.9,80.2,86.8,78.2,85.2,77.7"/>
			<path class="st3" d="M93.4,79.5c-0.6-0.6-1.4-1.8-1.4-1.9c-0.1,0.2-0.9,1.3-1.4,1.9c-0.6,0.6-1.4,1.6-1.2,2.6
				c0.2,0.9,1.3,1.5,2.1,0.8c0.2-0.2,0.3-0.3,0.3-0.3c0.1,0,0.1,1.1-0.5,1.7c-0.1,0.1-0.2,0.1-0.1,0.1H92h0.8c0.1,0,0,0-0.1-0.1
				c-0.6-0.6-0.6-1.7-0.5-1.7c0.1,0,0.2,0.2,0.3,0.3c0.8,0.7,1.9,0.1,2.1-0.8C94.8,81.1,94,80.1,93.4,79.5"/>
			<path class="st3" d="M102.5,80.2c-0.1,0-0.3,0-0.4,0c0.2-0.3,0.4-0.7,0.4-1.1c0-0.9-0.7-1.6-1.6-1.6s-1.6,0.7-1.6,1.6
				c0,0.4,0.1,0.8,0.4,1.1c-0.1,0-0.3,0-0.4,0c-0.9,0-1.6,0.7-1.6,1.6c0,0.9,0.7,1.6,1.6,1.6c0.6,0,1.1-0.3,1.4-0.8
				c0,0.2,0,1.4-0.5,1.8h0.8h0.8c-0.5-0.5-0.5-1.6-0.5-1.8c0.3,0.5,0.8,0.8,1.4,0.8c0.9,0,1.6-0.7,1.6-1.6
				C104.1,80.9,103.3,80.2,102.5,80.2"/>
			<polygon class="st3" points="109.7,85 107.4,80.9 109.7,76.8 111.9,80.9 			"/>
			<polygon class="st5" points="109.7,85 107.4,80.9 109.7,76.8 111.9,80.9 			"/>
		</g>
	</g>
</g>
</svg>
