<svg id="レイヤー_1" data-name="レイヤー 1" xmlns="http://www.w3.org/2000/svg" xmlns:xlink="http://www.w3.org/1999/xlink" viewBox="0 0 907.26 910.98"><defs><style>.cls-1{fill:none;}.cls-2{clip-path:url(#clip-path);}.cls-3{fill:#fff100;}.cls-4{fill:#231815;}</style><clipPath id="clip-path" transform="translate(8.5 31.18)"><rect class="cls-1" x="-8.5" y="-8.5" width="867.4" height="867.4"/></clipPath></defs><title>バカ討論</title><g class="cls-2"><rect class="cls-3" y="22.68" width="867.4" height="867.4"/><path class="cls-4" d="M538.13,312.44c-12.5,0-25-3.5-31-11.5-2.5,0-5.5,1.5-7,2a1.84,1.84,0,0,1-.5-1.5c0-1.5,1.5-3.5,2-4.5-5-10.5-12.5-18-18.51-27.51a24.76,24.76,0,0,0,1-8.5c0-6.5-1.5-13-4-17.51,4-4.5,5-10,5-16.51,0-11-3.5-24-3.5-34.51v-4.5c4.5,4.5,3,12.5,5,19.51,2,6.5,5,11.5,7.5,16,35-21.51,61-53,79-91.53-1.5-6-5-11-11.5-13.51,2.5-6,13.5-8.5,13.5-16a11.77,11.77,0,0,0-1-4c8.5-1.5,11-8.5,21-8.5h2c4-8.5,16-14.51,27.51-14.51,5.5,0,11,1,15.51,4,5.5,3.5,6,10,11,13a38.58,38.58,0,0,0,6.5,16c2,3,6,5,7,8.5a18.74,18.74,0,0,1,.5,5.5v9.5c0,5,.5,10.5,4.5,15-4.5,2.5-3.5,8-6,11-1.5,2.5-6,4-10.5,6.5-2.5,1-2.5,3-6.5,3h-1c-16,12.5-29.51,27-40,45.52a3.74,3.74,0,0,1-2.5.5h-1.5c-10,16-23.51,30-32,47.52s-16.51,35.51-26.51,51.52Zm312.61,7c-13,0-16-10-23.51-18a93.3,93.3,0,0,0-17-14.51c-4.5-18.51-22-23.51-36.51-31.51a11,11,0,0,1,4-.5c8,0,14,6,22.51,6.5-.5-5-7-6-11.51-8-11.5-5-29-11-39-21.51,14.51,2.5,25.51,10.5,40,14-6.5-17-23.51-18.51-37-25.51-5.5-3-13.51-4.5-16.51-10.5h1c15.51,0,25,11,40.51,12.5v-1.5c0-10.5-11-17.51-17.51-26a276.08,276.08,0,0,1-16-23.51l-15-24c-3.5-4.5-9.5-15-10-23,0-3,2-4.5,2.5-7.5v-3.5c0-9.5-4.5-19-6-29h1.5c4.5,3,4.5,10,9.5,12.5,1.5-.5,1.5-1.5,1.5-3v-3c5,.5,8,4,12.5,6,2-.5,3-1.5,5-1.5,17.51,4.5,27.51,17.51,36.51,31.51,1.5,2,4.5,3,6.5,4.5,18,28.51,43,49.52,69,69.52h1c2,0,2.5-1.5,4.5-1.5,1.5,4.5,3.5,9.5,8,11,2-2,2-6,3.5-8,2.5,15.51,15.51,26,20,42,.5,1,.5,3,.5,4.5a17,17,0,0,0,.5,5c1,4.5,3,6,3,11.5v3c0,9-7,24.51-11.5,30-4,5-24,20-34.51,21Zm-135-118.54h2c6.5,0,10.5,2.5,11.5,9-7,0-13.5-1-13.5-8Zm95.53-105c-4.5-3-8-6.5-12-10-5.5,0-8.5,2.5-12.5,4-.5,2.5-1.5,4.5-1.5,7.5-3-1.5-3-6-4.5-9-9.5-3-16-10-26.51-10a39.21,39.21,0,0,0-7,1c.5-2.5,3-2.5,3-5.5-.5-4.5-5-5-10-5h-5.5c-2,0-3.5,0-4.5-.5,2-5,7-6.5,10.5-10-5-5.5-6-14.51-7.5-24,3.5-3,6-9,6-14.51a13.31,13.31,0,0,0-1.5-6c6.5,0,3,9,8,9.5,2-2,1.5-6,2.5-8.5h7.5c3.5-3,7-4,11.5-4,7.5,0,15.51,4.5,20,9.5,1.5,7.5,3.5,13.51,9,19,6.5,6,9.5,7,13.5,17.51a27.77,27.77,0,0,1,2,10.5c0,5.5-2,10.5-5,17,.5,4.5,4.5,6,4.5,10.5Zm62-49.52a7.44,7.44,0,0,0-.5,3.5,11.8,11.8,0,0,0,3.5,8c-.5.5-1,.5-2,.5-2.5,0-4.5-3.5-5.5-4.5a149.49,149.49,0,0,1-16,4c-2.5,2.5-2.5,7.5-4.5,10.5-2.5-18.51-15.51-26-32-29.51v-2a10.09,10.09,0,0,0-1.5-5.5,7.43,7.43,0,0,0-3-.5c-2.5,0-3.5,1-6.5,2,1-4.5,3.5-8,6-11-1-9.5-9.5-11-13.51-17a34,34,0,0,0,1.5-9.5c0-6.5-2.5-12-4.5-19,3,.5,4.5,2.5,7,3,2.5-.5,3.5-2,6.5-3v-5a56.36,56.36,0,0,1,16-2.5c13.51,0,26,5,33,17,4.5-2,7-8.5,11.5-8.5h1.5c-2.5,3-3,6-3,9.5,0,7.5,4,15.51,9,19,3,0,5.5-1.5,8-1.5a4.51,4.51,0,0,1,2.5.5c-3,5-9.5,4-10,9v1c0,4,4,6.5,4.5,11.5,0,1,.5,2,.5,3,0,5.5-2.5,10-2.5,15.51v1.5Z" transform="translate(8.5 31.18)"/><path class="cls-4" d="M734.32,776.69c-6.18-3.8-11.88-8.55-20-10.93-7.13-9.5-12.83-20.9-19.48-30.4a13.83,13.83,0,0,0,1-4.27c0-5.7-4.28-10-4.28-15.2v-.47c0-2.85,1.9-5.23,1.9-8.08v-.47c0-14.73-21.38-20.43-23.75-35.15,10.45,4.75,15.68,14.25,25.18,19.48-7.13-14.25-24.22-25.65-33.73-40.85,16.63,3.8,24.23,22.33,39.43,29.45,0-8.55-9-10.92-9-18.05v-.95c7.6,1.9,10.45,11.88,20.9,11.88h2.85c12.35-1.9,25.18-37.53,30.4-49.4,9-20,16.15-39.42,23.28-54.63a6,6,0,0,1-.48-2.85c0-4.75,3.33-9,4.28-12.83-3.32,0-6.65-.47-10-.47-19.48,0-37,3.8-55.58,8.55-5.7,1.42-13.3,1.9-16.62,4.75-3.8,2.85-9,13.78-11.88,20.43-23.75,53.2-57.48,101.65-80.75,152h-4.75c-4.27,0-8.07.48-10.45,2.85-2.85-4.28-9-3.8-12.83-8.55-5.22-6.65-7.6-22.33-17.1-23.75h-.47c-3.8,0-5.7,2.85-8.55,2.85h-1.43l-.47-.47c0-2.38,8.55-5.7,9.5-9.5a10.73,10.73,0,0,0-7.13-2.38c-9,0-18.52,9-26.6,9.5,5.22-9.5,17.58-11.4,23.28-21.38-17.58,6.18-31.83,15.68-47.5,23.75,1.42-8.55,11.4-11.4,16.62-15.67,18.05-14.73,38-28,55.58-45.13C589,628,608,603.79,626.49,577.67c-17.1,1-30.88,7.6-45.13,12.83-8.55,3.33-16.62,15.67-23.75,16.63a128.05,128.05,0,0,1-15.2-2.38c-10-3.8-9-15.67-15.67-24.7-3.8-5.22-10.45-9-11.88-13.77a35.51,35.51,0,0,1-1.42-9.5c0-14.25,10-22.33,14.25-32.3a37.28,37.28,0,0,1-.95-10c0-19.48,15.2-25.18,29-36.57,8.08-7.13,16.63-12.83,24.23-15.2v.47c0,3.8-6.65,7.6-10.92,11.87-3.8,3.8-8.08,8.08-8.08,13.3,0,.95.48,1.42.48,2.38h.95c3.8,0,5.7-6.18,10.45-7.13v.47c0,2.85-1.9,4.28-1.9,6.18a3.61,3.61,0,0,0,1,1.9c.95,1.9,3.32,2.38,6.17,2.38h3.32c2.38,0,4.28,0,5.23,1.42a18.07,18.07,0,0,0,6.17-4.28h1.43c7.12,0,14.72-4.75,22.8-4.75a16.16,16.16,0,0,1,4.75.47c8.08-7.6,27.08-2.85,36.58-10,0-2.85-.47-5.22-.47-7.6a15.18,15.18,0,0,1,1.42-6.65c-2.38-4.75-5.7-9-8.07-15.2-3.8-9.5-2.85-21.38-13.3-23.28,8.07-11.4,14.73-24.7,25.18-34.2,2.38-1.9,5.22-2.85,6.65-4.27,2.85-2.85,4.75-7.12,7.6-9.5,4.75-4.28,11.88-6.65,17.1-10.93h3.32c17.1,0,24.23,10,33.73,22.33,7.6,10,16.62,12.35,20.43,28,1.9,8.07,6.17,15.2,9,22.8-.47,5.7-1.9,10.45-1.9,16.63V458c6.65-2.38,14.72-1.42,21.85-3.33,8.55-2.38,15.2-7.6,26.6-10,4.27-1,6.65-5.7,10.45-6.65,1.9-1,3.8-1,6.17-1h3.8a17.82,17.82,0,0,0,5.22-.47c11.4-3.8,11.4-20,20.9-25.65v1.9c0,9-10.92,16.15-10.92,28,.95,1.9,2.85,2.38,3.8,4.28,6.18-2.85,5.7-13.3,14.25-14.73-1.9,4.75-6.18,10.45-6.18,15.67,0,1.9,0,3.33,1,4.75,3.8-.47,5.7-2.85,10-2.85,1.42,1.42.95,4.75,1.9,6.65,5.7,0,7.6-4.27,13.3-4.27h2.38c-1.43,4.27-7.6,3.32-8.55,8.55v1.9c0,4.27,2.38,10,7.13,10,.47,0,1.43-.47,1.9-.47-1.43,3.8-1.9,9-1.9,13.77a97.14,97.14,0,0,0,3.32,24.7c-4.75,7.6-9.5,15.67-10.92,27.08-16.15,4.75-26.12,15.67-34.2,28.5,0,.47-.48.47-.48.95h.48c.47,0,2.85-1.9,4.75-1.9a3.6,3.6,0,0,1,1.9.95c-19.47,10.92-21.85,38-33.25,54.63,0,1.9,0,4.28,1,5.23-3.8,5.22-7.6,12.83-7.6,20.9a17.84,17.84,0,0,0,.47,4.75c-4.75.47-4.28,6.17-6.18,10-2.85,8.55-8.55,18.05-8.55,28.5v3.32c-5.7,5.22-9.5,16.63-11.4,27.08-1.42,8.55,0,18.05-2.85,25.18-1.9,4.75-7.6,9-10.92,14.73-6.65,10.92-12.83,18.05-29.93,18.05Zm-68.4-105.45c-3.8,0-7.6-3.32-7.6-6.17a3.47,3.47,0,0,1,2.85-3.33c3.8,1.43,4.28,6.18,6.17,9.5Z" transform="translate(8.5 31.18)"/><path class="cls-4" d="M297.39,294.84c0,1.91,1.91,1.52,3.43,2.29-3,3-6.48,5.34-8.38,9.91-27.82,6.86-53.73,14.48-78.88,24.39S162.88,349,146.11,368.76h-9.53a14.81,14.81,0,0,1-5.72-.76c-4.57-1.52-5.72-6.86-9.15-10.29-3.81-3.81-12.19-5-14.86-9.15a14.17,14.17,0,0,1-1.91-7.62c0-6.48,4.57-12.57,5.34-17.53,2.67-11.81,0-16,8.76-21.72,4.19-3,9.53-5.72,14.1-9.53,6.86-5.34,10.29-9.91,18.67-12.19-1.14,5-10.67,6.86-10.67,14.48h.38c3,0,6.1-4.19,8.38-6.48,1.14.38,1.52.76,1.52,1.14,0,1.14-1.52,2.29-1.52,4.19v1.14c5.34-.38,8.76-2.29,14.1-2.29,4.19-3,8.76-1.9,13.72-3.43,6.86-1.52,13.34-5.72,20.2-7.62a8.39,8.39,0,0,1,3-.38h5c2.67-.76,5.34-2.29,8-3,3.81-.76,7.62-.38,11.05-1.14a312.09,312.09,0,0,0,62.87-22.1,2.86,2.86,0,0,0-.38,1.91,13.54,13.54,0,0,0,.76,3.81c9.15-2.29,15.24-6.86,24.39-8-4.19,6.48-14.86,6.48-16.39,16h1.14c3.43,0,5.33-2.67,8.38-2.67a4.14,4.14,0,0,1,1.91.38c-1.91,3.43-6.1,6.48-6.1,10.67a4.14,4.14,0,0,0,.38,1.91c0,.38.38.38,1.14.38h3.43c-3,5.34-9.15,7.24-9.15,14.86ZM281.77,420.59c0,8.76,9.91,16,9.91,26.67a9.46,9.46,0,0,1-.38,3c-.76,4.19-4.57,3.81-5,9.15-15.62,4.19-20.2,19.81-24.39,35.06-3.81.38-5.33,2.67-8,3.81a38.56,38.56,0,0,0-11-1.52c-11.43,0-21,5-26.29,11.81a14.29,14.29,0,0,1,.38,3.81,23.44,23.44,0,0,1-.38,5c-3.81,1.9-9.15,5.33-14.1,5.33a11.13,11.13,0,0,1-3.43-.76c-5-1.91-9.91-8-14.48-13s-8.76-14.48-16-17.53c-5-1.9-8.76-1.14-13-3.43-6.86-3.81-16.77-13-16.77-25.15a13,13,0,0,1,.38-3.81c.38-4.19,3-7.62,3-11.43v-.76c-.76-6.1-8-11.43-8-18.67V426.3c5,4.19,5,13,11.81,14.86v-.76c0-2.29-2.67-5-2.67-8.76v-.76c5,.76,5.33,6.86,10.67,7.62a20.26,20.26,0,0,1,11.05-3c8.38,0,16,5,20.58,10.29,27.44-7.24,51.06-17.15,72-30.87,2.67,0,5.33,0,6.86.76,3.43-1.14,4.19-3.81,7.24-4.57v5.72c3.43-2.29,5.33-6.48,7.62-9.91a6.44,6.44,0,0,1,.76,1.9c0,3-3.43,6.48-3.43,10.29a5.41,5.41,0,0,0,.76,2.29c.38.38.38.38.76.38.76,0,1.91-1.9,2.67-1.9.38,0,.38,0,.76.38Zm-133-175.28c0,3.81-5.33,4.57-7.62,4.57v-.38a5,5,0,0,1,7.62-4.57ZM192.22,248c-2.29-5-6.86-7.62-10.29-11.43h-1.52c-10.29,0-16,4.19-25.15,5.72,4.19-6.86,18.67-9.14,26.67-14.86v-6.1c-1.14-2.29-3.81-2.67-6.86-2.67,2.29-4.57,9.15-4.57,9.53-9.53V208c0-5.72-8.76-5.34-10.29-11.81,5.72,1.52,9.91,4.57,16.39,5.72,5-2.29,7.24-6.86,12.57-8.76V181.29c3.43,3.43,4.57,7.24,9.53,8h.76c1.91,0,3.43-.76,5-.76h.76c6.86,1.52,11.43,7.24,14.86,11.43,3.43-1.14,4.19-4.57,8.38-4.57h1.14c-3.43,1.52-4.57,3.43-4.57,5.72,0,5,6.1,11.05,9.91,17.53,3,5.72,6.86,14.48,7.62,19.05a17.08,17.08,0,0,1,.38,4.19c0,10.67-9.53,21-20.58,24.39A11.13,11.13,0,0,1,233,267c-3.81,0-8-1.9-13-2.29-4.57-6.1-12.57-12.57-22.1-12.57a19.9,19.9,0,0,0-8,1.52.82.82,0,0,1-.76-.76c0-.76,3-2.67,3-4.57Zm53.73,97.17c0,3,.76,6.86.76,10.29,0,3.81-1.14,6.86-4.19,7.62a7,7,0,0,1,.76,3.43c0,3.81-2.67,5.72-3.43,9.53a162.42,162.42,0,0,0-45.35,19.05,4.92,4.92,0,0,0-4.19-1.91,11.78,11.78,0,0,0-3,.76,31.2,31.2,0,0,0-15.62-14.86c.38-1.91,3-1.14,5-1.52-1.14-1.52-3-1.9-5.72-1.9-2.29,0-4.57.38-6.86.38,4.19-4.57,8.76-4.57,12.57-9.53,3-3.81,4.57-8.76,8.38-11.43,4.57-3,9.53-3,14.86-4.19,10.67-2.29,22.48-8,33.15-10.67,3,.38,2.67,3.81,5.72,3.81h1.14c1.91,0,3-1.14,4.57-1.14a2.89,2.89,0,0,1,1.52.76ZM241.37,416c-5.72,0-9.15,3.81-13.34,5.33-5,1.91-11.81,1.14-13.34,7.24a4.83,4.83,0,0,0-2.29-.38c-2.67,0-4.57,1.9-7.24,1.9h-.38c-7.24,0-10.29-9.53-17.53-11.05,0-5.34-3.43-7.24-7.24-8.76,1.52-2.29,5.72-1.9,8-3.43,1.14-2.29,1.9-5.34,3-7.62,5-1.52,6.86-2.29,13.34-3,12.57-.76,20.2-10.29,29.34-12.57h.76c2.29,0,5.72,3.81,8,3.81,2.67-.38,3.81-2.67,7.24-2.67h.76a9.15,9.15,0,0,0-2.29,5.72,8,8,0,0,0,3,6.1c0,9.91-5.72,13-8,19.43Zm-6.1,38.1c-10.29,2.67-29,9.15-29,20.2a6.49,6.49,0,0,0,.38,2.67c8-2.29,11.81-9.15,22.1-9.15a17.09,17.09,0,0,1,4.19.38c.76-5,2.67-9.15,3.43-14.1Zm158.14,67.45c-4.57,0-11.81-3.81-15.24-6.1-7.62-5.33-11.81-15.24-18.67-20.58-9.53-7.24-22.1-8.76-25.53-19.43,8,3,14.1,7.24,21,10.29-5-5-13-9.15-20.2-13.72-7.24-4.19-14.86-7.62-20.2-13.72a6.49,6.49,0,0,1,2.67-.38c5.72,0,11,4.57,15.62,7.24,8.38,4.57,15.62,10.29,24.77,12.57,0-6.1-9.53-6.86-11.05-13,4.57.76,9.53,5,14.1,5,1.91,0,4.19-1.14,6.1-3.81,4.57-5.72,3.81-15.24,4.57-26.29,1.52-25.15,5.72-57.92,5.72-81.16v-5.34c-27.06,8.76-52.2,19.05-67.83,40a24.54,24.54,0,0,1-10.67,2.67c-6.86,0-13.34-3.43-14.48-10.67-7.62-1.9-13.72-6.1-14.86-14.86,0-.76-.38-1.52-.38-2.67,0-5.34,3-10.67,3.81-16.39v-1.14c0-2.67-.38-5.72-.38-8.38,0-1.52,0-3.43.76-4.57,2.29-5.34,13.72-10.29,20.2-15.62,6.86-6.48,12.58-13.72,17.91-17.91,2.67-2.29,4.19-3.43,6.86-3.43a16.51,16.51,0,0,0,1.91.38c-2.67,5.72-12.19,9.15-12.19,19.05,22.1-3,46.11-18.29,69.35-23.24v-6.48c0-9.15.38-18.29.38-27.82,0-3.81,0-8-.38-12.19-1.14-16-.38-31.63-14.86-31.63-1.14,0-2.29.38-3.43.38,4.57-5.72,12.19-7.62,13.72-15.62,10.29-4.19,16.77-21,29.34-21a17.66,17.66,0,0,1,7.24,1.52c4.57,1.9,8.76,8,13,13.72,5.72,8.38,10.67,14.86,12.57,26.67-1.14,3.43-4.57,4.57-4.57,9.15-1.52,1.14-4.57.38-5,1.9-6.1,2.29-6.1,9.91-8,17.53-.38,2.29-2.67,5.34-2.67,7.24a2.1,2.1,0,0,0,1.14,1.91c-2.67,2.29-3.43,6.48-3.43,11.05,0,3,.38,6.1.38,9.15,4.19-1.14,10.29-5.34,15.62-6.86.76,0,.76.38.76,1.14v2.29c7.62-1.91,11.43-7.24,21-7.24H451c-3.81,3-12.19,4.57-12.19,9.53a9.73,9.73,0,0,0,.76,2.67h1.14c3.43,0,5.72-3.43,9.91-3.43h.76c0,3.43-3.43,3-3.43,6.48,0,3,3.81,4.57,4.57,8v1.14c0,1.91-.38,3.43-.38,5,0,6.48,2.67,13.34,2.67,19.43-2.29,4.19-5.34,7.24-7.62,11.05h-2.67c-14.1,0-22.48,6.1-33.15,10.29-.76,19.43-1.91,41.54-1.91,64,0,28.58,1.91,57.54,9.53,80.4-3.81,7.24-.38,16.39-4.57,22.86-2.29,3.43-6.48,4.19-10.29,6.48-3.81,1.52-6.48,6.1-10.29,6.48Zm-66.3-85a13,13,0,0,0-3.81-.38c-8.38,0-11.81,9.14-19.82,11.43,3.43-5.34,8.38-8.38,10.29-14.86a.37.37,0,0,0-.38-.38c-.76,0-1.91.76-3,.76H310a13,13,0,0,0,5.34-11.05c0-7.62-5.72-15.24-14.86-15.24h-.38c2.67-3,7.62-3.81,12.19-5.34.76-.76,0-3.43,1.14-4.19,3.81-3.81,11.43-3,17.91-4.19,3-.38,6.1-2.67,8.76-2.67h.76c5.72.38,7.62,6.1,12.57,6.1.76,5.34,2.29,9.53,6.1,11.43,0,.76-.38,1.52-.38,2.29,0,6.48,4.19,11.43,4.19,17.53a10.55,10.55,0,0,1-.38,3.43c-2.29,8.38-14.86,7.62-21.34,13a83.7,83.7,0,0,0-6.86-5.34c-3,.38-5,1.52-8,1.91,0-1.14.38-1.91.38-3ZM321,471.65c5,0,9.15,1.52,9.53,6.48-4.19-1.14-9.53-.38-9.53-6.1Z" transform="translate(8.5 31.18)"/><path class="cls-4" d="M295.12,642c-1.14,8.76-9.53,26.67-17.15,28.58-10.67,3-22.48,5.33-33.91,10.29-15.24,6.1-29,9.91-41.15,17.15A83.43,83.43,0,0,0,177,706.8c-8,4.19-15.24,10.67-24.39,10.67h-.76c-9.53,0-17.91-6.86-20.2-17.53-6.1-2.29-9.53-10.29-9.53-18.29,0-6.1,2.29-12.19,7.24-14.48a12.8,12.8,0,0,1-1.52-5.72c0-6.86,7.24-10.29,13-14.1,7.24-4.57,12.57-14.1,19.05-14.48-.76,3.43-3.81,4.57-3.81,8.38V642a18.63,18.63,0,0,0,7.24,1.91c5,0,9.53-2.29,14.1-3.43,16.77-4.19,33.53-8.76,49.54-14.48-6.86-1.9-13.72-3.81-18.29-8.38-2.67,1.14-4.57,0-6.86,1.52,0-2.29,0-4.19,1.14-5.72-2.29-3.43-5-4.57-7.62-4.57-7.62,0-16.39,9.53-22.86,11.43,3.81-8.76,14.86-10.67,19.43-19.05V600.1c0-5-3.43-6.1-8-6.1a51.64,51.64,0,0,0-7.62.76c.38-4.19,5-4.19,7.62-5.72.38-3.43,1.52-6.86,1.52-10.29a13.53,13.53,0,0,0-.76-3.81c-1.14-5-7.62-5.34-7.62-8.76v-.76a22.3,22.3,0,0,0,8.38,1.91A11.83,11.83,0,0,0,196,561.61c-.38-2.67-2.29-4.19-2.29-6.86V554c4.57.38,4.57,3.43,7.62,3.43.38,0,.76-.38,1.52-.38,3-1.14,3.43-6.1,6.86-8.76,7.62,5.72,25.53,4.19,32.39,10.29,5,4.57,2.67,11.81,6.86,19.43,1.52-.38,5-4.19,8.38-4.57-1.52,5.34-5.72,5.34-6.48,10.29v1.9c0,5.72,3,13,3,19.05v1.91c-.76,6.48-7.62,7.62-7.62,13.34v.38c10.67-2.67,22.48-10.67,33.91-16,2.67-1.52,6.1-3.43,9.15-3.43a4.83,4.83,0,0,1,2.29.38c-3,3.43-9.91,3.81-11.43,9.53h.38c2.29,0,5.34-2.29,8-3.43a1.33,1.33,0,0,0,.38.76c0,1.9-3.43,3-3.43,6.48v1.14h.76c3.43,0,5.72-2.67,8.38-2.67.38,0,.76.38,1.14.38v1.14c0,2.67-2.29,3.81-3,6.48V623c0,5.34,2.29,10.29,2.29,16.77Zm93.36,234.35c-9.91,0-16-11.43-22.48-19.05a1.4,1.4,0,0,1,1.14-.38c.76,0,2.29.38,3.43.38h.76c-1.52-5.34-9.91-3.43-12.19-7.62,5.33-.76,11.81-.76,15.62-3,3-11.05,6.48-22.86,6.86-36.58a1.4,1.4,0,0,0-1.14-.38c-.76,0-1.91.38-3.43.38H375.9a11.76,11.76,0,0,0-1.91,6.86c0,4.19.76,8.38.76,12.19a18.56,18.56,0,0,1-.38,4.57c-1.91,5.33-8.38,7.62-11.43,11.43-4.19-2.29-7.24-5.72-11.81-8,3-5.72,3-14.1,3.81-21.72-1.52,0-1.91,1.14-3,1.14h-.76c-1.14,9.15.76,21.34-5,25.53h-1.52a37.55,37.55,0,0,0-6.48.76c-3-3-5-6.48-11.43-6.48,1.91-1.14,3-5,3-8.76a22.49,22.49,0,0,0-.76-5.33c-5.33.38-6.86,2.67-6.86,6.1,0,5,3.43,11.43,3.43,15.62v.38c0,3.81-2.29,9.15-3.81,11.81-1.9,3.81-6.48,5.72-9.53,8.76h-1.14c-9.15,0-11.81-7.24-21-7.24h-.76a4.14,4.14,0,0,0,.38-1.91c0-4.19-9.15-2.67-11.81-3.81,0-4.57,5.33-3.43,8.38-5.33v-3.81c0-13-5-23.63-13-29.34-4.57,1.91-5.33,7.62-6.86,12.19-1.52,4.19-3.81,9.91-4.57,14.86-.76,6.86-1.14,11-5,15.62-2.29,2.67-12.19,14.1-16.77,14.1h-.38c-6.1-.38-4.19-10.29-11-11.05h-1.52c-3,0-5.33,1.91-9.15,3.43-.76,3.43-1.91,6.48-1.91,10.67a12.38,12.38,0,0,1-7.62,2.67c-6.48,0-13.34-5-21.34-5a15.62,15.62,0,0,0-4.19.38v-.76c0-1.52,1.14-2.29,1.14-3.81-7.62-13.34-14.86-27.05-33.91-28.58v-1.52c0-12.57-3.81-19.81-6.86-29,5-1.52,6.48-4.19,6.48-7.24,0-5.72-5.34-13.72-5.72-19.82,5.34,3.81,5.72,12.19,12.19,14.1v-1.52c0-4.19-3.81-8.76-6.1-13.34-2.67-5-5.34-10.67-5.72-16,4.19,2.67,5.34,8.76,8.38,13.34,3,3.43,6.48,8.38,11.81,8.38h.76c0-2.67-3.81-7.24-5.72-10.29,5.33.38,9.91,6.48,14.1,9.53h1.52c6.86,0,10.29,6.48,16,8.76,18.67-3.43,36.2-10.29,51.82-15.24.38-8,9.15-12.57,17.15-12.57,5.33,0,10.67,2.29,12.19,7.24,3-6.48,7.24-11.43,11.05-17.15a13.54,13.54,0,0,0,3.81.76,10.41,10.41,0,0,0,7.24-3c5,1.91,9.91,3.81,13,7.24,18.67-.76,35.44-10.67,54.11-17.15,8.76-3,17.53-4.19,25.91-8s16.77-11.05,25.53-11.05a16,16,0,0,1,8,2.29c-2.67-6.48-9.15-14.1-14.1-19.82-3.43,4.57-4.57,10.67-9.15,14.48-11.81,9.91-37.72,11.05-50.3,17.53-6.1,3-9.15,9.15-15.62,9.15h-.76c-4.19,0-10.67-4.19-15.24-4.19a5.72,5.72,0,0,0-4.19,1.52c.76-1.52.76-4.19,1.52-5.72-1.52-3-3.81-5-5.72-7.62-5,6.1-5.72,13.34-13.72,14.48h-1.52c-2.67,0-6.1-.76-9.15-.76-2.29,0-4.57.38-5.33,3a5.42,5.42,0,0,1-.76-2.29,16.07,16.07,0,0,1,1.14-4.57c-4.19-3.43-8-6.86-10.29-12.19h-.76c-.76,0-1.52.76-2.67.76h-.38a29.51,29.51,0,0,1,.38-3.43,3.3,3.3,0,0,0-1.14-2.29h-.38c-2.29,0-2.29,3.43-3.43,3.43l-.38-.38c1.52-9.15,4.19-17.15,9.53-22.48,10.29-20.58,22.86-45,31.63-70.88,4.19-12.19,11.05-23.24,13.72-35.44,1.14-3,4.19-11.05,4.19-16a16.51,16.51,0,0,0-.38-1.91,4.73,4.73,0,0,0-4.57-3.81c-5,0-12.19,5.34-15.62,5.34a1.33,1.33,0,0,0-.76-.38c1.52-6.86,13-4.19,14.86-11.43a3.44,3.44,0,0,0-1.91-.38c-3,0-4.57,4.19-6.48,4.19h-.76c.38-5.72,7.24-11.05,13.34-15.62,8.38-6.86,14.86-18.29,27.06-19.43,1.14,0,2.67-.38,3.81-.38,6.1,0,13.72,1.52,19.82,2.67,5,12.19,16.39,16,16.77,34.68-1.91,4.57-3.43,9.15-3.43,14.86v1.9c-2.29.76-8.38,4.19-8.76,9.15v1.14c0,3.43,2.67,7.62,4.19,10.29,3,5,8.38,9.15,13,15.24,15.24,18.29,30.87,38.87,47.25,54.49,2.29,1.91,8.76,7.24,9.15,7.24,5.34-.76,3-16.39,7.24-18.29,1.52,1.91,1.91,4.19,1.91,6.86,0,3.43-.76,7.62-.76,11.05a10.38,10.38,0,0,0,1.52,6.1c3.43-5.33,2.67-14.48,3-22.86.38-5,.76-14.1,2.29-19.43,1.91,15.62-.38,34.67,3.43,47.25a31.42,31.42,0,0,0,1.52-10.67c0-6.1-.76-12.57-.76-18.29,0-4.19.38-8.38,1.91-11.43,1.9,4.57,2.29,11,2.29,17.53v7.24c0,9.91.38,19.43,7.24,23.24,0,4.19,1.91,6.48,3.43,8.76a17.25,17.25,0,0,0-1.14,6.1c0,7.62,3.43,16,3.43,23.24v2.29c-.38,5-5,7.62-5,12.57v.38c-7.24.76-9.53,8.38-16.39,8.38h-1.9c-3.81-.76-4.57-5.33-9.53-6.1-1.52,9.15-9.91,11.43-15.24,17.53-6.86,7.24-10.67,22.48-12.19,35.44a102.14,102.14,0,0,0-.76,15.24v5a82.87,82.87,0,0,1-.38,9.91c-1.52,13-9.15,21.34-16.39,29.72a22.14,22.14,0,0,1-8,1.91,7.69,7.69,0,0,1-6.86-3.43ZM164.42,598.58a2.89,2.89,0,0,1-.38-1.52c0-1.9,1.9-2.67,3.81-2.67,1.52,0,3.43.76,3.81,2.67-.38,1.52-2.29,1.52-4.57,1.52Zm99.84,95.26c0,2.29,2.67,1.14,3.81,1.9-5.33,8.38-5.72,21-12.19,27.06-22.1,1.14-38.87,13.34-54.87,22.86-4.57-2.67-11.81-1.9-16.39-5.33a2.3,2.3,0,0,1-.38-1.52v-2.29c-6.48-1.14-9.91-7.24-9.91-13.72a16.27,16.27,0,0,1,3.81-10.29c1.52-2.29,5-3,7.24-4.19,3-1.52,4.57-3.81,7.24-3.81H193c1.14,0,1.14.76,1.14,1.91v1.52c19.82-7.24,38.1-14.1,57.16-22.48,3,.38,3.81,3.43,6.86,3.43,2.67-.38,3.81-2.29,7.62-2.29h1.91c0,3-3.43,2.67-3.43,6.1Zm-13,34.67c3.81,0,9.15,5.34,14.48,5.34a4.83,4.83,0,0,0,2.29-.38,66.74,66.74,0,0,0-1.52,15.24,64.58,64.58,0,0,0,.38,8.38c-1.91,4.57-6.1,5-12.19,6.1-17.15,3.43-35.06,11.05-47.25,20.2-7.62-3.81-21.34-9.15-23.24-19.05v-1.91c0-6.86,5-14.1,10.67-16.77v.76c0,1.91.76,2.29,1.52,3.43,17.91-5.34,37-15.24,53.73-21.34Zm-22.1,88c-5.72,1.9-17.15,5.33-17.15,11.81,0,1.91,1.14,3.81,3.81,6.48,6.86-3.43,13.34-9.53,13.34-17.53Zm97.55-21.34c-2.29,1.91-5,3.43-5,7.62a2.86,2.86,0,0,0,1.91.38c1.52,0,3.81-1.14,5.33-1.52C328.65,799.39,328.27,796.72,326.75,795.2Zm8-112c.38.38.38.38.38.76,0,1.52-3.81,3-3.81,4.19,0,.38.38.38.76.76,18.67-1.14,33.53-8.38,48.39-14.86-6.86-11.43-19.05-23.24-29.34-33.53-11.05,13.72-21,30.49-25.53,48.39,2.67-1.52,5.33-5.72,8.38-5.72Zm19.81,111.65c0-3.81-1.14-6.1-2.29-8.76a25.18,25.18,0,0,0-5.72,1.91l4.57,9.15h.38c1.14,0,1.52-.76,2.67-.76h.38Zm24.77-5.33c2.29,0,2.29-1.91,4.19-1.91.38,0,1.14.38,1.52.38,1.9-2.67,2.29-7.24,2.67-10.67h-1.52a13.92,13.92,0,0,0-5.72,1.14,5.42,5.42,0,0,1,.76,2.29c0,2.29-3,4.19-3,7.62v1.14Zm80.4-141c-1.9,0-2.67-2.29-2.67-4.57s.76-4.57,2.29-4.57c1.52.38,1.91,2.29,1.91,4.57,0,1.91-.38,3.81-1.14,4.57Z" transform="translate(8.5 31.18)"/></g></svg>