<?xml version="1.0" encoding="utf-8"?>
<!-- Generator: Adobe Illustrator 20.1.0, SVG Export Plug-In . SVG Version: 6.00 Build 0)  -->
<svg version="1.1" id="レイヤー_1" xmlns="http://www.w3.org/2000/svg" xmlns:xlink="http://www.w3.org/1999/xlink" x="0px"
	 y="0px" viewBox="0 0 1920 1080" style="enable-background:new 0 0 1920 1080;" xml:space="preserve">
<style type="text/css">
	.st0{fill:none;}
	.st1{fill:#FFFFFF;}
	.st2{fill:#231815;}
	.st3{fill:#1E2C5D;}
	.st4{clip-path:url(#SVGID_2_);}
	.st5{fill:#E3007F;}
	.st6{fill:#68C6EC;}
	.st7{fill:#F4E929;}
	.st8{fill:url(#SVGID_3_);}
	.st9{fill:#FFF000;}
	.st10{fill:url(#SVGID_4_);}
	.st11{fill:url(#SVGID_5_);}
	.st12{fill:#FF7BAC;}
</style>
<pattern  width="23.8" height="23.9" patternUnits="userSpaceOnUse" id="新規パターン_7" viewBox="0 -23.9 23.8 23.9" style="overflow:visible;">
	<g>
		<rect y="-23.9" class="st0" width="23.8" height="23.9"/>
		<path class="st1" d="M23.8-23.9v9.7c-5.4,0-9.7-4.4-9.7-9.7H23.8z"/>
		<path class="st1" d="M0-23.9h9.7c0,5.4-4.4,9.7-9.7,9.7L0-23.9z"/>
		<path class="st1" d="M0,0l0-9.7c5.4,0,9.7,4.4,9.7,9.7L0,0z"/>
		<path class="st1" d="M23.8,0l-9.7,0c0-5.4,4.4-9.7,9.7-9.7V0z"/>
	</g>
</pattern>
<pattern  width="23.9" height="23.9" patternUnits="userSpaceOnUse" id="新規パターン_9" viewBox="0 -23.9 23.9 23.9" style="overflow:visible;">
	<g>
		<rect x="0" y="-23.9" class="st0" width="23.9" height="23.9"/>
		<rect x="0" y="-23.9" class="st1" width="23.9" height="23.9"/>
		<path class="st2" d="M23.8-23.9v9.7c-5.4,0-9.7-4.4-9.7-9.7H23.8z"/>
		<path class="st2" d="M0-23.9h9.7c0,5.4-4.4,9.7-9.7,9.7L0-23.9z"/>
		<path class="st2" d="M0,0l0-9.7c5.4,0,9.7,4.4,9.7,9.7L0,0z"/>
		<path class="st2" d="M23.8,0l-9.7,0c0-5.4,4.4-9.7,9.7-9.7V0z"/>
	</g>
</pattern>
<rect x="-1.5" class="st3" width="1921.5" height="1080"/>
<g>
	<defs>
		<rect id="SVGID_1_" width="1920" height="1081.6"/>
	</defs>
	<clipPath id="SVGID_2_">
		<use xlink:href="#SVGID_1_"  style="overflow:visible;"/>
	</clipPath>
	<g class="st4">
		<g>
			<polygon class="st5" points="2210.8,352 978.3,809.7 2277.2,606.4 			"/>
			<polygon class="st5" points="2241.5,1174.4 2288.7,915.8 978.3,809.7 			"/>
			<polygon class="st5" points="1901.9,-125.9 978.3,809.7 2069.6,76.5 			"/>
			<polygon class="st5" points="1419.9,-428.6 978.3,809.7 1657.4,-316 			"/>
			<polygon class="st5" points="855.2,-499.2 978.3,809.7 1118,-497.5 			"/>
			<polygon class="st5" points="313.5,-324.5 978.3,809.7 552.5,-434.1 			"/>
			<polygon class="st5" points="-103.6,62.7 978.3,809.7 66.7,-137.6 			"/>
			<polygon class="st5" points="-317.9,589.9 978.3,809.7 -248.3,336.4 			"/>
			<polygon class="st5" points="-289.4,1158.3 978.3,809.7 -333.4,899.1 			"/>
		</g>
	</g>
	<g class="st4">
		<g id="上の雲">
			<path class="st6" d="M668.6,953.2c0,0-31.8-30.5-62.8-77.7c-31-47.2-23.5-62.2-74.1-84.3s-118,1.6-164.2-27.2
				s-67.9-36.9-74.7-76.3c-6.9-39.4,4.6-67.9,17.2-87.2c12.7-19.3,44.3-154.1,157-109.4s116.1,109.5,172.8,127.5
				c56.7,18,223.3-98.5,318.8-14.7s88.9,119.7,180.5,114.7c81.5-4.5,135.6-203.2,261.8-160.3c126.2,42.9,324.2,172.5,292.7,262.8
				s-175.2,116.4-175.9,116.5c-0.7,0.1-160.8-63.7-160.8-63.7l-299.7,88.9L904,814.6l-126,12.3L668.6,953.2z"/>
			<g>
				<path class="st7" d="M581.7,915.1c-5.1-36.8-33.9-67.1-71.6-74.9C395,816.4,266.5,763.4,289.6,715.1
					c29.7-62,115.7-146.9,268.5-19s196-25.4,332.8,25.7s61.4,129.5,198,202s143.7-279.1,351.6-208.2s245.8,165.3,38.1,199.3
					c-207.7,34-134.1,90.7-322,193.7c-187.9,103-164.7-224.2-291.3-222.9c-126.6,1.3-94.3,207.4-214.3,121.4
					C602.6,972.6,585.2,940.7,581.7,915.1z"/>
				
					<pattern  id="SVGID_3_" xlink:href="#譁ｰ隕上ヱ繧ｿ繝ｼ繝ｳ_7" patternTransform="matrix(1.0915 0.8771 -0.8617 1.0172 -5044.2705 6368.3247)">
				</pattern>
				<path class="st8" d="M1478.5,915c65.7-10.8,106.9-27.6,125.8-47.8c-81.6-72.1-189-117.6-255.5-44.5
					c-80.2,88.1-171.7,182.2-237.8,109.5c-7-1.5-14.3-4.3-22.1-8.4c-130.2-69.2-67.8-143.6-180.2-194.7c-3.1,0.5-6.3,1.4-9.5,2.5
					c-74.7,27.1-66.3,134.9-167.9,77.7c-34.6-19.5-61.3-43.2-84.9-64.3c-25.4-5.9-54.1-20.4-88.2-49c-2.6-2.2-5.2-4.3-7.8-6.4
					c-12.4,0-25.8,3-40.8,10.1c-86.9,41.1-7.6,101.5,86.2,152.8c60.9,33.3,58.8,114.7,88.2,172.6c82,27.3,68-138.1,181.3-139.3
					c34.6-0.4,58,23.8,77.5,57c11.2-7.8,23.4-5.4,39.3,14.4c51.7,64.2,84.7,155.3,144.8,164.9c9.2-3.2,19.1-7.6,29.6-13.4
					C1344.4,1005.7,1270.8,949,1478.5,915z"/>
			</g>
		</g>
		<g>
			<g>
				<polygon class="st9" points="1280.4,739.2 1245.5,717.7 1246.9,699.4 1202.5,679.3 1215.1,664.8 1174.1,637.9 1178.9,630.6 
					1228.3,663 1216.8,676.2 1256.2,694 1254.7,713 1285,731.8 				"/>
			</g>
			<g>
				<polygon class="st9" points="1382.1,743.1 1416.5,720.6 1414.6,702.4 1458.5,681.1 1445.5,667 1485.8,639 1480.8,631.8 
					1432.2,665.5 1444,678.4 1405.2,697.2 1407.2,716.2 1377.3,735.7 				"/>
			</g>
		</g>
		<g>
			
				<ellipse transform="matrix(0.9927 -0.1204 0.1204 0.9927 -99.6459 167.7434)" class="st3" cx="1338.6" cy="908.6" rx="154.4" ry="154.4"/>
			<g>
				<path class="st3" d="M1362.7,728.1c0,0,0,0.1,0,0.1C1362.8,728.3,1362.9,728.3,1362.7,728.1z"/>
				<path class="st3" d="M1355.9,723.4c-0.1-0.1-0.2-0.2-0.3-0.2C1355.7,723.2,1355.8,723.3,1355.9,723.4z"/>
				<path class="st3" d="M1356,723.4c0,0-0.1-0.1-0.1-0.1C1355.9,723.4,1356,723.4,1356,723.4z"/>
				<path class="st3" d="M1357.4,729c-0.3,0.1-1.3,0-1.2,0.1C1356.6,729,1357.3,729.1,1357.4,729z"/>
				<path class="st3" d="M1304.9,730.4l-0.4,0C1304.7,730.4,1304.8,730.4,1304.9,730.4z"/>
				<polygon class="st3" points="1328.8,755.7 1328.8,755.7 1328.8,755.7 				"/>
				<path class="st3" d="M1328.8,755.7c0.2,0,0.4,0,0.7-0.1C1329.3,755.5,1329,755.6,1328.8,755.7z"/>
				<path class="st3" d="M1341.1,756C1341.1,756,1341.1,756,1341.1,756C1341.1,756,1341.1,756,1341.1,756L1341.1,756z"/>
				<path class="st3" d="M1319,755.9C1319,755.9,1319,755.9,1319,755.9C1319,755.9,1319,755.9,1319,755.9
					C1319,755.9,1319,755.9,1319,755.9z"/>
				<path class="st3" d="M1331.7,755.9C1331.7,755.9,1331.7,755.9,1331.7,755.9C1331.7,755.9,1331.7,755.9,1331.7,755.9z"/>
				<path class="st3" d="M1363.4,728.9c-0.7-0.1-2.1-0.3-1-0.3l0.1,0c0.1-0.1,0.2-0.1,0.3-0.2l-0.1-0.1c0,0,0.1-0.1,0.1-0.1
					c-0.1-0.1-0.4-0.2-0.6-0.4c0.1,0,0-0.2,0.2-0.1c-0.7-0.6-0.9-0.6-1.2-0.8c-0.4-0.3-0.4-0.4,0-0.2c-0.5-0.4-1.4-1.2-1.6-1.6
					c-0.9-0.6,0.1,0.1-0.6-0.3c0-0.2-0.5-0.8-1.2-1.4c-0.7-0.6-1.5-1.2-2.1-1.7c0,0.3-0.1,0.2-0.2,0.1c-0.1-0.1-0.2-0.2-0.4-0.2
					c0.1-0.1-0.6-0.9,0.2-0.3l-0.5-0.4c-0.2-0.4,0.8,0.5,0.6-0.1c-0.5-0.4-1.1-0.4-1.6-1c0.4,0-0.5-0.3-0.2-0.4
					c0.2,0,0.3,0.2,0.5,0.3l-0.1-0.1c-1-1-0.5-0.1-1.2-0.4c-0.7-0.6-0.4-0.6-0.3-0.7c-0.1-0.1-0.4-0.4-0.7-0.5
					c0.5,0.2,0.6,0.8,0.3,0.7c-0.1-0.5-1-0.9-1.2-1c0.7,1.1,0.6,0.6,1.3,1.6c0.2,0,0.3-0.2,0.8,0.4c-0.4-0.2-0.1,0.1,0,0.2
					c0-0.2,0.4,0.3,0.6,0.4c0.1,0.2-0.6,0-0.1,0.5l0.3-0.2c0.2,0.2-0.3,0.1,0.2,0.5c-0.4-0.1-0.1,0.3-0.8-0.2
					c0.5,0.9,1.2,0.8,1.9,1.3c-0.1,0-0.1,0-0.2-0.1c0.2,0,0.4,0.3,0.7,0.4c0.4,0.4-0.5-0.2-0.4,0l0.7,0.6c0,0,0,0,0,0
					c0.2,0.1,0.4,0.3,0.4,0.3c-0.1-0.1-0.2-0.1-0.3-0.1l-5.7-5l0.5-5.7c0,0.1,0.1-0.3,0.2-0.2l0.1-1.5c0.1-0.1,0.1,0.4,0.1,0.2
					c0.1-0.3,0-0.5,0-0.6c0.1-0.1,0.1-1.1,0.3-1c0.3-1-0.3-0.4,0-1.4c0.2-0.1,0,0.7,0.2,0.3l0-1c0.1,0.1,0.2,0.2,0.2,0.6
					c0.1-0.5,0.2-0.9,0.3-1.4c0.1-0.6,0.3-1.1,0.4-1.7c0.3-1.1,0.5-2.4,0.7-3.7c-0.6,0.1-1.2,0.2-2,0.4c-0.4-0.1,0.4-0.2,0.9-0.4
					c-1.4,0.4-2.2,0.5-3.1,0.5c-0.4,0-0.9,0.1-1.4,0.1c-0.3,0-0.6,0-1,0.1l0,0.1c-0.3,0-0.6,0-0.9,0c-0.1,0-0.3,0-0.4,0l-0.2,0
					l-0.3,0c-1,0.2-2.1,0.4-3.2,0.6c-0.1,1-0.3,1.9-0.4,2.9c-0.1,0.6-0.1,0.4-0.1,0.5c0,0,0,0.1-0.1,0.1l0.1,0
					c0.1,0.1,0.1,0.3,0.2,0.5c-0.1-0.1-0.3-0.4-0.2-0.2c0,0,0.1,0,0.2,0.1c-0.1,0.1-0.2,0.2-0.3,0.3c-0.2-0.2-0.4-0.4-0.5-0.6
					l-0.1-0.1l-0.1-0.1l0,0c0,0,0,0-0.1-0.1c-0.4-0.4-0.8-0.8-1.2-1.2c-1.3-1.1-2.6-2.3-3.9-3.4c-0.7-0.6-1.3-1.2-2-1.8
					c-1.2-1.1-2.5-2.2-3.7-3.3c-0.7,0.7-1.4,1.5-2,2.2c-0.6,0.6-1.1,1.3-1.7,1.9c0.4-0.5,0.5,0,0.1,0.3c-1.4,0.6-1.5,1.8-2.8,2.5
					c-1.6,2-3.5,3.3-4.7,5.3l-0.2-0.1c-0.3,0.2-0.3,0.4-0.5,0.6l0,0c-0.6,0.6-1.2,1.5-1.6,1.8l0.1,0.2c-0.3,0.4-0.3,0.1-0.6,0.6
					l-0.1-0.1l-0.3,0.6c-0.2-0.3-1,1.1-1.4,1.3c-0.4,0.5-1.2,1.6-1.9,2.3c-0.3,0-1.1,0.9-1.7,1.5c-0.5,0.6-1.1,1.3-1.8,2
					c-0.3,0.4-0.7,0.7-1,1.1c-0.4,0.4-0.8,0.9-1.2,1.3l0.2,0.1l-0.6,0.7c0,0-0.1,0-0.1-0.1c-0.4,0.2-0.7,0.6-1.1,1.1
					c-0.4,0.4-0.7,0.8-1,1.1c0.6-0.3,0.5-0.5,0.9-0.9c0.6-0.5,0.4,0.1-0.4,0.8l0,0l-0.3,0.5c-0.3,0.1-0.8,0.5-1.2,0.6
					c-1.5,1.7-2.4,2.9-3.6,4.3c0.9,0,1.7,0,2.7,0c-0.7,0.2,2.4,0,1.3,0.3c1.1-0.1,1.1-0.1,1-0.2c-0.1-0.1-0.3-0.2,0.3-0.3
					c0.5,0,1.2-0.1,1.1,0c-0.3,0.1,0.2,0.2-0.2,0.2l1.3,0c0.1,0-0.2,0.1-0.4,0.1c1.4-0.1,2.5,0,3.7,0c0.4,0,0.9,0,1.3,0.1
					c0.3,0,0.6,0,0.9,0c0.1-0.1-0.5,0-0.4-0.2c1.3-0.2,1.1,0.2,2.3,0.1l-0.3,0.2c0.4-0.1,0.6-0.2,1.2-0.1c0.1,0.2-0.5,0.2-0.9,0.2
					c0.4,0,1.5,0,1.2-0.2c0.5-0.1,0.7,0.1,1,0.2c0,0-0.5-0.1-0.2-0.2c0.2,0,0.4,0.1,0.6,0.1c0.1,0,0.2,0,0.3,0c0.1,0,0,0,0.1,0l0,0
					c0,0,0.1,0,0.1,0c0,0,0,0.1-0.1,0.1c0.1-0.2,0.1,0,0,0.1c0,0-0.1,0.1,0,0c0,0,0,0,0.1,0c0.1,0.7,0.1,1.5,0.2,2.2
					c0.1,1.5,0.2,2.9,0.2,4.2c0.3,0.5,0.3,1.4,0.4,2.2l-0.3,0.1l0.1,0.7c-0.1,0.3-0.1-0.5-0.2,0l0.2,0.3c-0.1,0.1,0,1.7-0.3,0.6
					l0.1,2.6c0,0.6,0.3,0.3,0.2,1c-0.1,0.1-0.1-0.2-0.2-0.2c-0.2,1.9,0.7,2.2,0.6,4l0-0.2c0.1,0.3,0.1,0.9,0.2,0.9
					c0.3-0.2-0.2-0.3,0-0.9c0.3,0,0.2,0.7,0.4,0.6c-0.1,0.4,0.1,0.7,0.1,1c-0.1,0.3-0.1,0.7-0.1,1.1c0,0.2,0,0.5,0,0.7
					c0,0.3,0,0.5-0.1,0.7c0.1,0.5,0.4,0.9,0.4,2c-0.2,0.9-0.2,0-0.3,1.1l0.2,0c0,0,0,0.1,0,0.1c0.7,0,0.6,0.1,0.5,0.2
					c0.9,0,0.9-0.2,2-0.1l-0.7,0.2c0.9-0.1,1.2,0,2.5,0c0,0.1-0.5,0.1-0.9,0.1c0.3,0.1,0.6,0.1,0.9,0.1c0.2-0.1,0.3-0.1,0.4-0.1
					c0,0-0.2-0.1-0.3-0.1c0,0-0.1,0-0.1-0.1s0-0.1,0.1-0.1c0.4,0,0.8-0.2,1,0l-0.4,0.2c0.8-0.1,0.4-0.2,1.3-0.1c0,0,0,0.1,0,0.1
					c0.6-0.2,1.3,0,2.1,0l-0.2,0c0.3-0.1,0.5-0.2,0.7-0.2c-0.5-0.1-0.3-0.1-0.4-0.3c0.6,0.3,0.9-0.3,1.9-0.1c0,0.1-0.3,0.2-0.5,0.1
					c-0.3,0.3-0.4,0.5-1,0.6c0.4-0.1,0.8-0.1,0.7,0l0.1-0.3c0.2,0,0.4,0,0.6,0c0.1-0.2-0.5-0.3,0.1-0.4c0.6-0.1,0.3,0.3,0.4,0.2
					c0.8-0.1,0.3-0.3,1.1-0.2c-0.1,0-0.2,0.1-0.3,0c0.6,0.1,1.4,0,1.6,0.3c-0.1,0.1-0.1,0.2-0.3,0.1l0,0c-0.6,0.2,0.4,0,0.3,0.2
					c0.1-0.1,0.8-0.1,1.1,0l-0.1-0.2c1.2-0.6-0.1,0.4,1.1,0.3c0.8-0.1-0.3-0.1,0.2-0.2c0.5,0,0.7,0.2,1.4,0.1
					c0.2,0.1,0.6,0.2,0.7,0.4c0.5-0.1,1.4,0.1,1.6-0.1c-0.8-0.2-0.8,0.2-1.7-0.1l0.3-0.2c0.6,0,1.4-0.1,1.9,0
					c-0.1,0-0.1-0.1-0.1-0.1c0.9-0.1,1.2-0.3,2-0.2c0.1,0.2-0.4,0.2-0.8,0.2c0.6,0.2,0.6,0,1.5,0.1c0,0.2-0.6,0-0.7,0.1l1,0
					c0,0,0,0,0,0c0-0.3,1.1,0,2,0c1.1,0,1.7-0.1,2.1-0.2c-0.1-0.6-0.2-1.1-0.2-1.7c0.1-0.2,0.2-0.3,0.2-0.1c-0.2,0.4-0.1,0.4,0,0.6
					c0-0.7,0.4-1.4,0.5-1c0.1-1.2-0.2,0.4-0.2-0.4l0.2-1.4c-0.2,0.1-0.2,0.5-0.3-0.1c0-0.4,0.1-0.7,0.1-1.2c0.1,0.1,0.2-0.2,0.2,0.3
					c0.1-0.3,0.1-0.7,0-0.9c-0.2,0.6,0-1.1-0.3-0.6l0.2-0.6c0,0.1,0.1,0.2,0,0.4c0.2-0.2,0-0.5,0-0.7c0.1-0.2,0.1-0.8,0.2-0.8
					c0-0.2,0.1-0.7,0.2-0.8c0-0.3-0.1,0-0.2-0.1l0.1-1c0.1,0,0.5-0.1,0.5,0.1c-0.1-0.4-0.3-0.2-0.3-0.8c0.2,0.4,0.3-0.7,0.5-0.2
					c0.2-0.3,0.3-1.3,0.3-1.8c-0.1-0.3-0.2,0.6-0.4,0.5c0.1-1.5-0.4-1.6-0.2-2.7l-0.1,0.3c0-0.7,0-0.6-0.1-1
					c0.2,0.2,0.7-0.7,0.8-1.8c-0.1-0.1-0.3,0.6-0.5,0.4l0-0.7c0-0.1,0.1,0,0.1,0.1c0-0.7,0.4-1.2,0.2-1.4l0.4-0.6l-0.2,0.2
					c-0.1-0.1-0.1-0.8-0.1-1c0-0.8,0.1-1,0.3-1.4c-0.1,0.1-0.4,0.4-0.3-0.2c0.4,0,0.3-1.2,0.5-1.2c0-0.2,0.2-0.7,0-0.7l0.2,0.1
					c-0.3-0.1-0.2-1-0.2-1.6c0.2,0.1,0.2,0,0.2-0.2c0-0.1,0-0.3,0.2-0.3c-0.3-0.2,0-0.7-0.3-1c0,0,0,0,0,0c0.3,0,0.5,0.3,0.6,0.4
					l0.1-0.1c0.1,0.1,0.3,0.1,0.5,0.2c0.1,0,0.2,0,0.3,0.1c0,0,0.1,0,0.1,0c0,0,0.1,0,0.2,0l0.5-0.3l0.2,0.1
					c0.1-0.1,0.5-0.1,0.3-0.2l0.3,0c0-0.3,0.4-0.1,1-0.2c0.1,0,0.1,0.1,0,0.2c0.3,0,0.2,0.2,0.3,0.3c-0.2-0.1,1-0.5,0.3-0.7
					c-0.1-0.1,0.4-0.2,0.7-0.1l0.2,0.3c0,0,0.4-0.3,0.4-0.3c0.5,0,0.8,0.1,1.3,0.2c-0.4,0-1,0.5,0.4,0.5c-0.7,0-1,0.2-1.4,0.2
					c0.3,0,0.5,0,0,0.1c1.1-0.1,0.4-0.2,1.5-0.2c0.1,0.2,0.4,0.3,1.5,0.4l-0.9-0.2c0,0,0.1,0,0.1-0.1c-0.3,0-0.4-0.1-0.5-0.2
					c0.2,0,1-0.3,1.3-0.1c-0.7-0.2-0.3-0.3,0.1-0.3c0.4,0,0.9-0.1,0.4-0.2c0-0.1,0.6-0.1,0.9,0c-0.6,0.2,1,0.3,1.2,0.4
					c0.2-0.1-0.9-0.2-0.7-0.3c0.5,0,1.1,0.1,1.5,0.2l-0.1,0l1,0.1c-0.1-0.1-1.2-0.2-0.6-0.3c0.3,0.1,0.9,0,1.1,0.1
					c0,0.2,0.7,0.4,0.1,0.4c0.6,0,2.3,0,1-0.3L1363.4,728.9z M1356.5,724C1356.5,724,1356.5,724,1356.5,724l-0.2-0.1
					C1356.4,724,1356.5,724,1356.5,724z"/>
				<path class="st3" d="M1340.9,756.1c0,0,0.5-0.1,0.6-0.1c0,0-0.1,0-0.3,0c-0.1,0-0.2,0-0.2,0
					C1341.1,756.1,1341.1,756.1,1340.9,756.1z"/>
				<path class="st3" d="M1324.7,755.7c0,0-0.1,0-0.1,0.1C1324.7,755.8,1324.7,755.8,1324.7,755.7z"/>
				<path class="st3" d="M1319.1,756c0.5,0,0.1-0.1-0.1-0.1C1319,755.9,1319,756,1319.1,756z"/>
				<path class="st3" d="M1345.9,747.5C1345.9,747.4,1345.9,747.4,1345.9,747.5C1345.9,747.4,1345.9,747.5,1345.9,747.5z"/>
				<path class="st3" d="M1351.6,728.6c-0.1,0-0.2,0-0.3,0C1351.4,728.6,1351.5,728.6,1351.6,728.6z"/>
				<path class="st3" d="M1345.2,755c0-0.2,0-0.4,0-0.5C1345.2,754.7,1345.2,754.8,1345.2,755z"/>
				<path class="st3" d="M1351,728.7l-0.4,0c0,0,0,0,0,0L1351,728.7z"/>
				<path class="st3" d="M1353.7,728.9c-0.2,0-0.5,0-0.7,0C1353.2,729,1353.5,729,1353.7,728.9z"/>
				<path class="st3" d="M1346.7,737.8C1346.7,737.8,1346.7,737.8,1346.7,737.8C1346.7,738.1,1346.7,737.9,1346.7,737.8z"/>
				<path class="st3" d="M1349.2,729c0,0,0.1,0,0.1,0C1349.3,729,1349.3,729,1349.2,729C1349.3,729,1349.2,729,1349.2,729z"/>
				<path class="st3" d="M1356.1,729c-0.1,0-0.2,0-0.3,0C1356,729.1,1356.1,729.1,1356.1,729C1356.2,729.1,1356.1,729.1,1356.1,729z
					"/>
				<path class="st3" d="M1347.5,732.4c-0.1-0.1-0.1-0.2-0.1-0.2C1347.4,732.3,1347.4,732.4,1347.5,732.4z"/>
			</g>
		</g>
		<path class="st1" d="M1225.7,800.6c58.3,25.3,51.4,46.8,126.3,39.4c74.9-7.4,99.1-28.9,99.1-28.9s18.4,27.7,22.1,37.4
			c3.7,9.7-79.6,0.9-125.6,16.4c-46,15.4-64.8,23.8-86.7,9.3c-21.9-14.4-32.5-51.7-52.9-60.9l14.2-16L1225.7,800.6z"/>
		<path class="st1" d="M1176.5,893.7c0,0,54.9,51.2,94.5,46.4s55.9-32.2,88.6-31.3c32.6,0.9,64.7,12.3,88.9-2.4
			c24.1-14.7,32.8-31.3,32.8-31.3s3.8,30.1,3.3,37.9c-0.5,7.8-34.9,7.8-64.3,24.9c-29.4,17-128.2,35-155.6,29.6
			c-27.4-5.5-83.5-15.8-85.6-28.5C1179.1,938.9,1174.7,907.5,1176.5,893.7z"/>
		<path class="st1" d="M1226.3,1015.9c44.8-5.4,60.9,14.2,111.6,5.2c50.7-8.9,87-7.9,106.5-22c19.5-14.1,23.6-21.6,23.6-21.6
			s-14.3,28.6-33,43.6c-10.8,8.7-179.2,24.9-195.2,11.5l-18.1-15.4L1226.3,1015.9z"/>
		<g>
			<g>
				
					<pattern  id="SVGID_4_" xlink:href="#譁ｰ隕上ヱ繧ｿ繝ｼ繝ｳ_9" patternTransform="matrix(0.9815 -7.369447e-02 7.369447e-02 0.9815 430.171 -720.1858)">
				</pattern>
				<polygon class="st10" points="881.4,1051.1 911.5,920.3 1042.2,950.5 1012.1,1081.2 				"/>
				<path class="st2" d="M913.7,923.9l124.9,28.8l-28.8,124.9L885,1048.8L913.7,923.9 M909.2,916.8l-31.5,136.6l136.6,31.5
					l31.5-136.6L909.2,916.8L909.2,916.8z"/>
			</g>
			<polygon class="st1" points="1045.6,948.3 909,916.8 977.5,874 1114,905.5 			"/>
			<polygon class="st5" points="1045.8,948.3 1014.3,1084.9 1082.8,1042.1 1114.2,905.5 			"/>
		</g>
		<g>
			<g>
				
					<rect x="551.5" y="829.5" transform="matrix(0.5777 -0.8162 0.8162 0.5777 -465.2488 866.5291)" class="st1" width="106.8" height="106.8"/>
				<path class="st2" d="M592.8,812.7l82.3,58.2l-58.2,82.3l-82.3-58.2L592.8,812.7 M591.4,804.3l-65.2,92.1l92.1,65.2l65.2-92.1
					L591.4,804.3L591.4,804.3z"/>
			</g>
			
				<pattern  id="SVGID_5_" xlink:href="#譁ｰ隕上ヱ繧ｿ繝ｼ繝ｳ_9" patternTransform="matrix(0.5119 0.1665 -0.1665 0.5119 -4513.187 -1915.5134)">
			</pattern>
			<polygon class="st11" points="683.2,869.4 591.2,804.3 655.2,793.3 747.3,858.5 			"/>
			<polygon class="st5" points="683.4,869.5 618.2,961.6 682.3,950.6 747.4,858.6 			"/>
		</g>
		<g>
			<g>
				
					<rect x="461.6" y="649.7" transform="matrix(0.8196 -0.5729 0.5729 0.8196 -298.6891 400.3273)" class="st1" width="49.6" height="49.6"/>
				<path class="st2" d="M491.8,644.1l25,35.8l-35.8,25l-25-35.8L491.8,644.1 M493.3,635.8l-45.6,31.9l31.9,45.6l45.6-31.9
					L493.3,635.8L493.3,635.8z"/>
			</g>
			<polygon class="st1" points="493.2,635.9 447.6,667.7 453.2,636.2 498.8,604.3 			"/>
			<polygon class="st5" points="493.3,635.8 525.2,681.4 530.8,649.9 498.9,604.3 			"/>
		</g>
	</g>
	<g class="st4">
		<path class="st12" d="M967.8,588.1c1.5,0,2.7,0,3.4-0.1C969.1,588,968.1,588,967.8,588.1z"/>
		<path class="st12" d="M1028.4,592c0.2,0,0.4,0,0.5-0.1C1028.6,592,1028.5,592,1028.4,592z"/>
		<path class="st12" d="M703.9,670.5c-0.4,0.8-0.6,1.3-0.7,1.5C703.6,671.2,704,670.5,703.9,670.5z"/>
		<path class="st12" d="M1158.3,868.4c0.3-0.4,0.5-0.7,0.7-0.9C1158.8,867.7,1158.5,868,1158.3,868.4z"/>
		<path class="st12" d="M1171.6,848.7c-0.2,0.4-0.4,0.9-0.6,1.3C1171.2,849.6,1171.4,849.1,1171.6,848.7z"/>
		<path class="st12" d="M1221.7,718.2c0,0.2-0.1,0.4-0.1,0.6C1221.6,718.6,1221.7,718.4,1221.7,718.2z"/>
		<polygon class="st12" points="696.3,708.4 696.5,708.5 696.3,706.2 		"/>
		<path class="st12" d="M920.2,589.7c-0.4,0-0.8,0-1.3,0C919.3,589.7,919.8,589.7,920.2,589.7z"/>
		<path class="st12" d="M1222.3,707.4l0-3.3c0.2-1.7,0.3-3.5,0.3-5.2c0-3.4-0.4-6.8-1.2-10.2c-0.1-0.6-0.2-1.2-0.4-1.9
			c-0.7-1.9-1-3.3-1.4-4.5c-0.4-1.2-0.7-2.1-1.1-3.1c-0.3-1-0.6-2.1-1.3-3.3c-0.6-1.2-1.3-2.8-2.6-4.7c-3.4-4-7.5-10.9-14.1-16
			c1.8,1.3,0-0.4-1.5-1.9c-0.8-0.7-1.5-1.4-1.6-1.6c-0.2-0.2,0.3,0,1.7,1.1c-0.6-0.7-1.7-1.7-3.3-2.8c-1.5-1.2-3.3-2.7-5.4-4
			c-2-1.3-4-2.8-6-4c-2-1.2-3.7-2.4-5.1-3.4c1,0.5,0.8,0.2,2.1,1c-2-1.2-3.3-2-4.3-2.5c-1-0.6-1.6-1-2.1-1.3c-1.1-0.7-1.8-1.4-4.8-3
			l0,0.6c-2.4-1.1-2.9-1.7-5-2.7c1.6,0.9,5,2.9,3,2.1c-2.8-1.3-5.2-2.4-8.3-3.8c0-0.2,2.2,0.7,3.7,1.4c0,0-6.6-3.1-7-3.6
			c2.4,1,5.5,2.4,7.7,3.2c-8.6-4.3-0.6-0.5-4.7-2.8c0.5,0.5-1.4-0.3-4.1-1.5c-2.7-1.1-6.1-2.6-8.5-3.6c-0.4-0.4,3.4,1.4,4.6,1.7
			c-8.8-4.8-13.9-5.5-25.8-9.7c0.3,0,1.8,0.4,2.5,0.6c-5.8-1.7-9.6-3.5-13.4-4.2c-5.5-1.7-0.8-1-9.4-3.3c2.4,1.3-10.1-2.8-10.5-2.1
			l-6.5-1.9c-5.9-1,1.3,1.4-10.1-1c-10.4-2.3,1.2-0.9-4.8-2.4l-2.6-0.1l-5.1-1.2l0.8,0.1c-3.1-0.5-8.7-1.4-8.7-1.6
			c0.5-0.1,3.9,0.5,4.4,0.4c-2.6-0.2-7.6-1.3-12.7-2.2c-5.1-0.8-10.3-1.7-13-1.4c-3-0.5-9.3-1.2-8.5-1.5c-2.8,0.2-13.8-1.5-17.9-1.5
			c0.5-0.1-3.3-0.6-6.5-0.7c4.2,0.5,1.5,0.4-1.3,0.5c-3.6-0.5-14-0.8-15.6-1.4c-5.7,0.1-3.7,0.5-4.9,0.9c-1.8-0.2-5.7-0.4-8.8-0.6
			c-3.1-0.1-5.5-0.3-4.5-0.6c1.6,0.1,4.1,0.1,6.1,0.1c2,0,3.4,0,2.8-0.2c-6-0.4-2.6,0.1-7.5,0.1c0.4-0.1-3.3-0.4-2.4-0.6
			c-2.9,0-7,0-11.1-0.1c6.5,0.2-4.2,0.5-0.2,0.6c0,0,1.6-0.1,3.1-0.2c1.6-0.1,3.1-0.2,3.1-0.2c7.6,0.1,1.6,0.3,4.4,0.5
			c-6.6,0-9.3,0.2-11.9,0.4c-2.6,0.3-5,0.4-11.2,0.8c-2.3,0-6.5-0.1-7.8,0c4.2-0.2,3.3-0.7,1-0.7c-6.4,0.7-11.6,0.3-16.9,0.5
			c3.1-0.1,0.9,0.4-0.7,0.6c-11.9,1.2-4.7,0.1-9.9,0.3c-18.4,1.6-30.1,2.4-44.8,5.1l7-0.6l2.2-0.8c5.5-0.4-0.9,1.2-3.9,1.9
			c-0.8,0-9.8,1.5-6.2,0.7c0,0-2.2,0.4-4.4,0.8c-2.2,0.4-4.3,0.9-4.3,0.9c1.3,0,6.9-1.1,2.9-0.2c-2.9,0.4-11.8,1.9-6.3,0.6
			c-4.6,0.8-10.4,2.2-9.4,2.3c-7.4,1.6,0.6-0.7,3.9-1.6c-5.9,1.2-5.2,0.6-3.4,0.1c0,0-2,0.4-4.1,0.9c-1,0.2-2,0.4-2.8,0.6
			c-0.8,0.2-1.3,0.3-1.3,0.3c1.7-0.5,1.7-0.7,3.4-1.2c-5.4,1-9.1,2.4-13.7,3.1l-1.9,0.9c-3.7,0.9-6.4,1.5-8.5,2
			c-2.1,0.6-3.8,1-5.3,1.4c-1.6,0.4-3.1,0.9-5.1,1.4c-2,0.6-4.4,1.4-7.8,2.4l2.3-0.4c-5,1.8-6.9,2.5-9.2,3.1
			c-1.2,0.3-2.5,0.7-4.3,1.3c-1.8,0.6-4.2,1.5-7.5,2.9c-7.5,3.2-12.2,5.5-11.1,5.5c-4.2,2.2-5.3,2.4-7.3,3.1c-1.6,0.9-4.1,2.4-6.8,4
			c-2.8,1.5-5.7,3.4-8.3,4.7c3.4-2,6-3.8,9.3-5.5c-1.2,0-11.2,6-16.4,9.2c-0.9,0.6-2.2,1.7-3.8,2.9c-1.6,1.2-3.5,2.7-5.3,4.3
			c-1.9,1.6-3.9,3.3-5.6,5.1c-1.7,1.7-3.4,3.3-4.7,4.8c2.7-2.2,2.1-0.9-2.4,4.3c0.2-0.5-1.3,1.2-3.3,3.5c-1,1.1-2,2.5-3,3.9
			c-0.9,1.3-1.9,2.5-2.5,3.6c1-2.3-6,9.1-1,0.1c0.8-1.3,1.5-2.1,2.3-3c0.8-0.9,1.6-2,2.7-3.7c-0.9,0.9-2.2,2.6-4,4.8
			c-0.8,1.1-1.6,2.5-2.5,3.8c-0.4,0.7-0.9,1.4-1.3,2.1c-0.4,0.8-0.8,1.5-1.1,2.3c0-0.3,0.4-1.3,0.9-2.6c0.6-1.3,1.5-2.9,2.4-4.4
			c-0.9,1.8-0.2,0.8,0,0.6c0.4-0.7,0.7-1.3,1-1.8c0.3-0.5,0.6-0.9,0.8-1.2c0.4-0.7,0.6-1.1,0.7-1.2c0.1-0.3-0.3,0.2-1,0.9
			c-0.3,0.4-0.7,0.9-1.1,1.3c-0.3,0.5-0.7,1-0.9,1.4c-0.6,0.8-0.9,1.3-0.8,0.8c-0.4,0.8-0.9,1.7-1.5,2.7c-0.5,1-0.9,2.1-1.3,2.9
			c-0.7,1.7-1.1,2.6-0.2,1.1c-0.4,0.7-0.9,1.5-1.2,2.4c-0.3,0.9-0.7,2-1,3c-0.8,2.1-1.2,4.6-1.6,7.1c-0.3,1.2-0.3,2.5-0.3,3.8
			c-0.1,1.3-0.1,2.5-0.2,3.7c0,2.4,0.2,4.6,0.3,6.5l0.1,1l0-1c0-0.2,0-0.4,0-0.4c0,0.2,0,0.3,0,0.5c0,0.1,0-0.1,0.1-0.4
			c0,0.1,0.1,0.2,0.1,0.3l0.3,1.2c0,0.8,0,1.5,0,2.1l-0.3-0.1l0,0.5l0.3,0c0,3.1-0.2,3.9-0.3,5.1l-0.4,4l1.4,0.1
			c0.1,0.3,0.2,0.7,0.3,1.1c0.4,1.3,0.9,2.9,1.4,4.3c1.1,2.8,2.1,5.2,1.9,4.7c1.2,2.2,0.8,0.9,0.5-0.1c-0.2-0.5-0.2-1-0.1-1
			c0.1,0.1,0.5,0.6,1.3,2.1c2.4,4,5.4,9.5,9,13.5c2,2.6,0.8,1.4-0.9-0.7c-1.8-2.1-4-5.4-4.8-6.5c0,0,0.1,0.3,0.4,0.7
			c0.3,0.4,0.7,1,1.2,1.7c1,1.4,2.4,3.2,3.9,5c1.5,1.8,3.1,3.4,4.2,4.7c1.2,1.2,2,2,2,2c1.8,2,1.3,1.6-0.1,0.3
			c-0.7-0.7-1.7-1.5-2.6-2.6c-0.9-1-1.9-2.2-2.9-3.2c4.5,5.8,11.8,11.8,13.7,12.7c1.7,1.5,3.1,2.5,4.4,3.5c1.3,1,2.7,2,4.4,3.3
			c-1.8-1.1-2.7-1.5-3.9-2.1c-1.1-0.6-2.6-1.3-5.2-3.4c-8.4-7.1,3.3,2.2-3.7-3.9l-0.9-0.2c-0.7-0.7-1.4-1.4-2.1-2
			c-0.7-0.7-1.3-1.3-2-1.9c-0.7-0.6-1.4-1.3-2.1-2c-0.7-0.7-1.4-1.5-2.1-2.3c-1.6-1.9,0.5,0.3,1.6,1.5c-5.4-5.8-8.8-11.1-12-16.3
			c2.3,5,6.3,10.5,10.2,14.9c3.9,4.5,7.8,7.8,9.4,9.5c0,0,0.3,0.2,0.7,0.6c0.5,0.4,1.1,0.9,1.9,1.5c0.8,0.6,1.7,1.3,2.7,2
			c1,0.7,2.1,1.5,3.1,2.2c4.3,3,8.7,5.6,8.7,5.6c0.1-0.1-5.7-4.4-0.7-1.4c0.9,0.8,2.6,2.1,4.9,3.7c1.2,0.7,2.5,1.6,4,2.5
			c0.7,0.5,1.5,0.9,2.3,1.4c0.4,0.2,0.8,0.5,1.2,0.7l0.3,0.2l0,0l0.1,0.1c0-0.2,0.1-0.2,0.3-0.2c0.1,0,0.1,0,0.2,0
			c0.1,0,0.2,0,0.2,0.2c0,0.3,0,0.5,0,0.8c0,0.1,0,0.3,0,0.4l0,0.3c0,0.2,0,0.3,0,0.5c0,0.7,0,1.2,0,1.7c0,0.8,0.1,1.1,0.2,0.1
			c0-0.9,0-1.7,0.1-2.4c0-0.3,0.1-0.6,0.1-0.8c0.1-0.5,0.3-0.8,0.3-0.9c-0.1,0.9,0,1.4,0,1.7c0,0.1,0,0.3,0.1,0.3c0,0.1,0.1,0,0.1,0
			c0.1-0.2,0.3-0.7,0.2,1.3c-1,13.7-0.3-0.5-1.3,12.9c0-1.4-0.1-4-0.1-7.1c0-1.6,0-3.3,0-5c0-0.8,0-1.7,0-2.5l0-0.9
			c-0.1,0.1-0.1,0.3-0.1,0.5c0,0.1,0,0.3,0,0.4c0,0.4-0.1,0.9-0.1,1.3c-0.1,2.2-0.3,4.7-0.5,6.3c0.6-4.4,0.3,3.1,0.6-0.5
			c-0.4,10.9-0.7,23.6-1,36.8c-0.8-2.1,0.4-22.3-0.7-18.2c-0.2,6.5,0.2,6.5-0.1,11.7c-0.3,2.2-0.5,6-0.6,10.4c0,2.2-0.1,4.5,0,7
			c0.1,1.3,0.2,2.6,0.3,3.8c0.1,1.3,0.4,2.5,0.6,3.7c0,0-0.1-1.1-0.2-2.1c-0.2-1-0.1-2.1-0.1-2.1c0.1,0.9,0.3,2,0.5,3.2
			c0.2,1.2,0.4,2.5,0.7,3.8c0.3,1.3,0.6,2.6,1,3.8c0.4,1.2,0.8,2.3,1.1,3.3l-0.5-1c0,0,0.4,1,0.8,1.9c0.4,0.9,0.9,1.8,0.9,1.8
			c0.2,0.6,0.3,0.7,0.3,0.7c1,2,2.9,5.5,5.3,9.2c2.4,3.7,5.4,7.6,8.3,10.7c0.1-0.1-1.3-1.7-2.9-3.7c-1.7-2-3.6-4.4-4.7-6.1
			c-0.7-0.9-4.5-7.7-2.3-4.6c2.7,4.5,5.4,8,8.4,11.5c0.8,0.8,1.5,1.7,2.4,2.6c0.4,0.4,0.8,0.9,1.2,1.3c0.5,0.5,1,1,1.6,1.6
			c0.7,0.7,1.4,1.3,2.1,1.9c0.4,0.3,0.7,0.6,1.1,1l0.5,0.5c0.1,0,0.2,0.2,0.3,0.2l0.3-0.2c0.8-0.5,1.7-1.1,2.5-1.6
			c0.8-0.6,1.7-1.1,2.5-1.7c0,0-1.1,0.7-2.2,1.4c-1.2,0.8-2.3,1.4-2.3,1.4c1.1-0.8,2.3-1.6,3.6-2.6c0.9-0.6,1.9-1.3,2.9-2
			c2-1.3,4.1-2.8,6.3-4.3c8.3-5.3-5.7,4.5-0.6,1.3c-3.2,2.6-8.2,5.5-10.7,7.8c0,0,0.6-0.3,1.4-0.8c0.8-0.5,2.2-1.3,2.7-1.6
			c1.4-0.8,2.7-1.5,2.7-1.5c4.1-3.2,9.1-6,12.1-8.1l-3.4,2c0.2-0.4,1.1-1,2.1-1.7c0.5-0.3,1.1-0.7,1.6-1c0.3-0.2,0.7-0.4,1-0.6
			c0.4-0.3,0.8-0.5,1.1-0.7c0,0-0.3,0.1-0.7,0.3c-0.2,0.1-0.4,0.2-0.7,0.3c-0.2,0.1-0.5,0.3-0.7,0.3c-0.6,0.2-1.3,0.5-1.3,0.5
			c-4.8,3.1-7.7,5.7-11.3,7.7c3.9-2.8,5.5-4,7.1-5.3c0.8-0.6,1.7-1.3,2.8-2.2c0.6-0.4,1.3-0.9,2-1.5c1.2-0.8,2.6-1.8,4.2-2.9
			c-0.1-0.6-0.2-1.5-0.3-2.5c0.1-0.5,0.3,0.9,0.5,2.5c-0.9,0.6-1.9,1.3-2.5,1.8c0.9-0.6,1.8-1.2,2.7-1.8c-0.2-1.4-0.4-2.9-0.7-4.4
			c-0.2-1-0.3-2.1-0.5-3.2c-0.4-2.1-0.7-4.5-1-7.3c0.7,3.8,1.7,9.9,1.4,5l-0.9-3.5c-0.3-3.1,0-1.8-0.2-3.1c-0.5-4.4-0.3,1.1-1.2-5.9
			c-0.1-1-0.3-3.3,0-2.4c-1.1-7.9-0.7-3.8-1.9-11.2c0.9,6.6,0.3,7-0.8,0.1c-1.3-9.7-2.5-16.3-2.9-23.1l-0.9-4.3
			c0.4,1.4,0.2-0.2-0.1-2.5c-0.1-0.7-0.2-1.6-0.3-2.3c-0.1-0.6-0.2-1.3-0.2-1.6c0.1,0,0.2,0.5,0.4,1.1c0.1,0.3,0.1,0.7,0.2,1.1
			c0.1,0.6,0.2,1.2,0.3,1.8c0.5,3.8,1.2,7.7,1.5,7.6c-0.8-6.4-0.2-3.7,0.3-1.6c-1-6.9-0.9-2.5-1.6-5.5c0,0,0-0.2,0-0.5
			c0-0.3-0.1-0.6-0.1-1.1c0-0.4-0.1-1-0.1-1.5c-0.1-1-0.1-1.6,0.2-0.6c0-0.1,0-0.2-0.1-0.4l0-0.2c0-0.1,0-0.1,0-0.1
			c0.2,0.1,0.4,0.1,0.6,0.2c0.4,0.1,0.7,0.1,1,0.2c0.7,0.1,1.2,0.2,2.4,0.7c-0.5,0-0.8,0.2-0.7,0.5c0,0,0.1,0,0.2,0c0,0,0.1,0,0.1,0
			c0.1,0,0.2,0.1,0.4,0.1c0.6,0.2,1.3,0.4,2.1,0.7c1.5,0.5,3.1,1.1,3.7,1.3c-1-0.4,2.1,0.2-2.9-1.2c0.7,0,3.6,0.9,6.3,1.8
			c2.8,0.8,5.3,1.6,5.2,1.4c0.4,0.6,10.8,3.1,16,4.5c-0.3-1-9.9-2.2-11.5-3.4c3.6,0.7,9.5,2.4,16,3.8c3.2,0.8,6.6,1.5,9.9,2.2
			c3.3,0.7,6.5,1.2,9.4,1.7c9.9,2.1-0.1,0.4,1.9,1.1c-9.2-1.6-11.4-2.4-19.4-4c8.6,2.2,22.9,4.9,29.4,5.5c4.8,0.8,7.4,1.4,10.2,2.1
			c2.9,0.7,6,1.3,11.8,1.9c-1.5-0.5-1.2-0.6-4.9-1.1c3.1,0.3,6.7,0.9,10.1,1.3c2.1,0.1-5.1-0.9-0.5-0.5c1.8,0.3,5.7,0.7,4.9,0.9
			l-0.8-0.1c11.1,0.9,8,1.6,17.6,1.8c-0.8-0.2-2.9-0.2-5.2-0.5c-1.8-0.4,4.2-0.2,8.6,0c-0.8,0.2,3.9,0.3,7,0.6
			c2.1,0.5-7.8-0.4-9.3-0.3c0,0,2.1,0.2,4.3,0.3c2.1,0.2,4.3,0.3,4.3,0.3l-1.8-0.2c0,0,2.3,0.1,4.7,0.1c2.3,0.1,4.7,0.1,4.7,0.1
			c-6.5-0.2-3.1-0.6-0.2-0.5c3.2,0.2,6.5,0.4,8.8,0.6c2.3,0.2,3.8,0.3,3.4,0.5c0.8-0.4,8.8-0.1,14.5-0.2c-6.2-0.2-0.8-0.4,1-0.5
			c0,0,2.3,0.1,4.7,0.3c2.3,0.1,4.7,0.2,4.7,0.2c-9.9,0.2,2.1,0.4-0.2,0.6c-2.8,0.5-8.8,0.2-14,0.1c5.1,0.4,8.6,0.4,12.1,0.2
			c3.4-0.2,6.6-0.4,11.1-0.3c0,0.2-0.8,0.4-4.7,0.4c0.8,0.1,2.8-0.1,5.4-0.2c2.6-0.1,5.7-0.3,8.7-0.3c-1.6-0.1-5-0.4,1-0.7
			c0,0,2,0.1,3.9,0.1c2,0,3.9,0,3.9,0c9.1-0.4,3.1-0.6,10.6-1.3c0,0-1.2,0-2.5,0c-1.2,0-2.5,0-2.5,0c0.7-0.4,10.1-0.7,10.3-1.1
			c-4.6,0.3-7.2,0.9-12.1,1c-1.9-0.3,6.2-0.5,9-1c10.1-0.5,8-0.4,15.6-0.7c0.3,0.7-12.3,1.9-10.7,2.6c9.8-0.8,24-2.5,30.5-3.1
			c8.7-1.3,7.9-1.8,6.5-2c3.6-0.6,5.4-0.8,7.7-1.1l-4.1,0.8c5.4-0.9,9.6-1.7,13.9-2.5c4.3-0.8,8.6-1.7,14.2-2.8
			c6.3-1.4,3.7-1.3,2.1-1.3l6.8-1.6l-1.1,0.1c0.7-0.4,2.6-0.9,4.9-1.4c2.3-0.5,4.9-1.2,7.2-1.7c0.1,0.2-2.7,0.9-2.4,0.9
			c4.1-0.8,10.1-2.4,13.3-3.5c0.1,0.2-2.6,1.3-7.4,2.5c-0.5,0.1-0.3,0-0.8,0l-8,2.2c9.3-2.4,14.9-3.6,14.8-3
			c9.2-2.7-7.7,1.6,3.3-1.6c3.7-0.9,7.2-1.8,10.6-2.8c1.7-0.5,3.3-1.1,4.9-1.6c0.8-0.3,1.6-0.5,2.4-0.8l1.2-0.4l0.8-0.3
			c1-0.3,1.9-0.7,2.8-1c0.4-0.1,0.9-0.3,1.3-0.4l0.6-0.2l0.3-0.1l0.1,0c0,0,0,0.1,0,0.1c-0.3,1.6-0.7,3.1-1.1,4.1
			c-0.3,3.3-0.7,7-1.1,11.1c-0.4,4.3-1,9-1.7,14.4c0.4,0.1-0.8,7.2-0.2,6.2c1.9-10.2,1.9-19.3,3.7-27.4c0.4-4.6,0-3.4-0.1-4.6
			c0.1-1.2,0.3-2.3,0.5-3.3c0-0.2,0.1-0.5,0.1-0.7c0.1-0.2-0.1,0-0.2,0c-0.1,0-0.2,0-0.2,0.1c-0.3,0.1-0.4,0.1-0.5,0
			c0.4-0.2,0.8-0.3,1.1-0.4c0.1-0.1,0.1,0.1,0.1,0.1l0,0.2c0,0.1,0,0.2,0,0.3c0,0.4,0,0.8,0,1c0,0.5,0.1,0.7,0.2,1
			c0.1,0.7,0.2,1.1-0.6,7.4c0.1-0.4,0.3-1.3,0.5-2.5c0.2-1.1,0.4-2.5,0.6-4c0.2-1.4,0.4-2.8,0.6-4.2c0-0.3,0.1-0.7,0.1-1
			c0.1-0.3-0.2-0.1-0.3,0l-0.4,0.2c-0.6,0.2-1.1,0.4-1.6,0.5c1.2-0.6,0.3-0.5-2.3,0.2c0.3-0.1,0.6-0.3,1-0.4c1.4-0.5,2.9-1,4.3-1.5
			l-7.6,55.1l0-0.7l-0.3,2.9l-0.4,2.8c0.1-2.9-0.4-3.5,0-8.8c-1,7.2-2.4,16.6-3.4,23.4c1.2,0.8,2.2,1.5,3.2,2.2
			c0.8,0.5,1.5,1,2.1,1.4c1.8,1.5,2.4,2.4,1.4,2c4,2.4,7,4.5,9.7,6.5c0.7,0.5,1.4,1,2.1,1.5c1,0.7,1.9,1.4,2.9,2.1
			c0.5,0.4,1.1,0.7,1.6,1.1l0.4,0.3l0.2,0.1l0.1,0.1c0,0,0.1,0,0.1-0.1l0.8-0.6c1-0.9,2.1-1.8,3.1-2.9c0.4-0.5,0.8-0.9,1.1-1.2
			c0.2-0.3,0.4-0.5,0.5-0.6c0.2-0.3,0.2-0.4,0.1-0.3c-0.1,0.1-0.4,0.3-0.8,0.7c-0.4,0.4-1,0.9-1.5,1.4c-1.2,1.1-2.6,2.2-3.2,2.7
			c-0.3,0.3-0.5,0-0.3,0.1c0.2-0.2,0.5-0.6,1.3-1.3c2.6-2.1,4.9-4.8,6.5-6.8c-0.3,0.4-0.8,0.9-1.2,1.4c-0.4,0.5-1,1-1.5,1.6
			c-0.5,0.6-1.1,1.1-1.9,1.9c-0.8,0.7-1.6,1.5-2.4,2.2l-0.6,0.5c-0.2,0-0.5-0.3-0.7-0.4l-1.4-1c-1.6-1.1-3.2-2.3-4.6-3.3
			c1,0.7,1.7,1.1,2.2,1.4c0.6,0.3,1.1,0.6,1.4,0.7c0.7,0.3,0.9,0.3,1.5,0.6l-6.7-4.6c0.4-0.1,2.3,1.3,4.6,2.8
			c0.6,0.4,1.2,0.9,1.9,1.3l0.9,0.6c0.3,0.2,0.6,0.6,0.9,0.2c1.1-1,2-1.9,2.6-2.7c-0.7,1.1-0.9,1.4-1,1.7c-0.2,0.3-0.3,0.6-1.3,1.9
			c3.3-3.1,5.9-6,8.5-9.3c2.6-3.2,5-6.4,6.5-8.9c1.9-2.8-1.2,2.6-2.3,4.2c1.2-1.1,3.6-5.8,4.5-6.9c-0.2,1.1-2.1,3.7-3.3,5.7
			c0,0,0.7-1,1.7-2.7c1-1.6,2.2-3.8,3.4-6.1c2.3-4.5,3.6-9.5,3.6-9.5c0.1,0-0.1,1.3-0.7,2.9c-0.4,1.1-0.9,2.5-1.4,3.7
			c0.4-0.9,0.8-1.9,1.1-2.8c0.5-1.3,0.9-2.7,1.2-4c0.2-0.7,0.3-1.4,0.5-2.1c0.1-0.7,0.2-1.5,0.3-2.3c0.1-0.8,0.1-1.6,0.2-2.4
			c0-0.8,0-1.7-0.1-2.6c0.2-1.8,0.2-3.5,0.3-5.2c0-1.6,0.1-3.2,0.1-4.4c0.1-2.5,0.1-3.9,0.3-2.7c-0.2-3.1-0.3-1-0.5-1
			c-0.2-9.1-1-10.1-1.3-15.5l-0.1,4.1c-0.1-8.8-0.7-2-0.8-9.8c0.4,1.2,0.8,0.7,1.2-0.6c-0.4-1.3-0.4-6.2-0.6-9.6
			c-0.2,2.1-0.8-7.2-0.8-1.7c-0.4-3.9-0.5-6.7-0.6-9.3c0-0.6-0.1-1.2-0.1-1.8c0-0.5-0.1-1-0.1-1.5c-0.1-0.5-0.1-1.1-0.2-1.6
			c0.3-0.3,0.8-0.6,1.2-0.9c-1.3,0.7-0.3,0,1.1-0.9c1.5-0.9,3-1.9,1.5-1.3c6.5-3.8,11-6.4,9.5-4.9c-1.1,0.7-2.6,1.6-3.7,2.3
			c-1.1,0.7-2,1.2-1.8,1.3c0,0,0.7-0.4,1.8-1.1c1.1-0.7,2.5-1.7,4-2.6c1.5-0.9,2.8-2,3.9-2.7c1.1-0.8,1.8-1.3,1.8-1.3
			c1.4-0.9,3-2.1,4.4-3c1.3-0.9,2.3-1.6,2.7-1.6c1.6-1.6,4.1-3.7,6.4-5.9c1.1-1.1,2.2-2.2,3.2-3.2c0.9-1,1.6-2,2.1-2.7
			c-0.7,1-1.4,1.8-2.1,2.6c-0.7,0.7-1.4,1.4-2.1,2c-1.3,1.2-2.4,2-3.1,2.6c0,0,0.4-0.4,0.8-0.8c0.4-0.4,0.8-0.8,0.8-0.8
			c-0.2,0.2-0.5,0.5-0.8,0.8c0,0,0.2-0.3,0.6-0.7c0.3-0.4,0.8-1,1.3-1.6c0.9-1.2,1.8-2.4,1.8-2.4c-2.1,2-2.2,2.2-2.5,2.7
			c-0.3,0.5-0.7,1.3-3.7,4c-2.8,2.1,0-0.7,2.6-3.6c1.1-1.2,2.1-2.4,2.8-3.2c4.9-5.2,8.8-10.7,11.6-16.3c-0.3,0.9-0.7,2-0.3,1.8
			c1.1-2.2,2.3-4.8,2.7-6.5c0.5-1.4,0.6-2,0.1-1.2c0.2-0.7,0.5-1.4,0.7-2.1c0.2-0.6,0.4-1.2,0.6-1.8c0.4-1.1,0.6-2.3,0.8-3.1
			c0.2-0.9,0.3-1.4,0.3-1.4c0.1-0.2-0.3,2.3-0.7,3.8c0.2-0.8,0.4-1.6,0.6-2.6c0.3-1.2,0.2-2.5,0.2-3.7
			C1222.4,710.1,1222.3,708.6,1222.3,707.4z M701.1,709.2C701,709.2,701,709.2,701.1,709.2l-0.3-0.2l0.1,0L701.1,709.2z
			 M696.4,704.7C696.4,704.6,696.4,704.6,696.4,704.7l0.3,0.2c0,0,0,0.1,0,0.1L696.4,704.7z M1171.6,785.1c-0.2-2.3-0.7-4.3-0.7-7.5
			l-0.2,0.1c-0.1-1.8-0.2-3.6-0.3-5.4c0.2-0.6,0.6-0.3,0.9,3.7C1171.8,780.7,1171.4,781.2,1171.6,785.1z M1198.8,752.3
			c-0.8,0.7-1.8,1.6-2.9,2.5c-1,0.9-2.2,1.8-3,2.4c-0.8,0.7-1.4,1.1-1.4,1.1c-0.6,0.1,2-2.1,2-2.1c-5.3,4.1-8.7,6.1-12.1,8.2
			c-0.1,0.1-0.2,0.1-0.3,0.2c7.7-4.8,14.5-10,20.2-15.3c-0.5,0.6-1.1,1.4-2.3,2.5l1-0.9C1200,751.1,1199.5,751.6,1198.8,752.3z"/>
		<path class="st12" d="M754.3,851.6c-0.3-0.6-0.6-1.1-0.8-1.4C753.8,850.7,754.2,851.6,754.3,851.6z"/>
		<path class="st12" d="M795.4,792.8c0-0.1,0-0.1-0.1-0.2C795.3,792.6,795.3,792.7,795.4,792.8z"/>
		<path class="st12" d="M1203.9,749c0.7-0.7,0.9-1,1.7-1.9L1203.9,749z"/>
	</g>
	<g class="st4">
		<g>
			<polygon class="st1" points="673.5,117.9 608.3,74.9 661.1,28.1 			"/>
			<polygon class="st1" points="777.2,110.3 813.9,81.4 831.4,138 			"/>
			<polygon class="st1" points="941.7,113.5 902.5,39 964.1,32.6 			"/>
			<polygon class="st1" points="1044.3,155.2 1059.7,103.8 1094.8,123.2 			"/>
			<polygon class="st1" points="1207.2,101.3 1206.6,33.6 1269.6,77.6 			"/>
		</g>
		<g>
			<g>
				<g>
					<path class="st1" d="M804.1,338c-0.3,0.2-0.6,0.4-0.8,0.5c1,1.5-0.2,2.4-0.8,3.5c-0.1,0.2-0.2,0.6-0.4,0.7
						c-1.2,0.7-2.4,1.3-3.1,2.6c-0.4,0.7-1.4,1.1-2.1,1.6c-1.5,1.1-3,2.2-4.5,3.4c-1.1,1-2.1,2.1-3.2,3.1c-1,0.9-1.9,1.9-3,2.7
						c-0.3,0.2-1,0-1,0c-1.1,1.1-1.9,2.3-2.9,3.1c-1.6,1.2-2.7,3.1-5,3.2c-0.3,0-0.5,0.8-0.8,1c-1.2,0.9-2,2.1-3.4,2.7
						c-1.1,0.5-1.7,2.2-2.7,3.2c-0.7,0.7-1.7,1-2.5,1.6c-0.6,0.5-1,1.3-1.6,1.9c-0.2,0.2-0.6,0.1-0.9,0.2c-0.4,0.1-1.1,0.1-1.1,0.2
						c-0.4,1.8-1.4,2.9-3.3,3.6c-0.9,0.3-1.5,1.5-2.3,2.2c-1.1,0.9-2.2,1.7-3.3,2.4c0,0,0.2,0.1,0,0c-3.1,2.7-6.3,5.5-9.3,8.2
						c-0.6,0.3-1.2,0.4-1.5,0.7c-1.5,1.3-3,2.6-4.4,3.9c-0.3,0.2-0.5,0.6-0.9,0.9c-0.8,0.9-1.6,2-2.5,2.8c-0.2,0.2-1.3-0.4-1.6-0.8
						c-0.9-1.3-1.8-2.6-2.5-4.1c-0.9-2-1.2-4.3-2.4-6c-1-1.4-1.7-3-2.7-4.3c-1.7-2.5-3-4.1-2.7-6.2c-0.4,0.1-0.8,0.2-1.1,0.4
						c-0.3-2.6-2.7-4.4-7.1-4.9c-0.5,0.2-1,0.5-1.5,0.5c-1.9-0.1-3.9-0.5-5.8-0.5c-2,0-4,0.3-6,0.4c-1,0-1.9-0.2-2.9-0.3
						c-2.1-0.2-4.2-0.7-6.2-0.3c-1.4,0.3-2.7,0.2-4,0.2c-2.1,0-4.1-0.2-6.2-0.1c-1.8,0.1-3.7,0.4-5.5,0.5c-0.8,0-1.6-0.3-2.4-0.5
						c-0.5-0.1-1.1-0.3-1.5-0.2c-1.6,0.4-3.2,0.5-4.9,0.1c-1.6-0.4-3.5,0.4-5.3,0.4c-2.1,0.1-4.2-0.1-6.3-0.2c-1,0-2,0-2.9,0.3
						c-1,0.4-2-1.8-2.9,0.1c-0.3-0.3-0.6-0.6-1-0.9c0,0.2,0,0.3,0,0.5c-2.9,0-5.8,0-8.8,0c0,0.2-0.1,0.4-0.1,0.6
						c-0.2-0.4-0.4-0.7-0.5-0.8c-1,0.1-1.8,0.4-2.6,0.3c-2.1-0.1-4.3-0.4-6.4-0.6c-0.1,0-0.3-0.1-0.4,0c-1,0.3-2,0.8-3.1,0.8
						c-1.3,0-2.6-0.7-3.9-0.5c-3.4,0.5-6.7,0-10.1,0.1c-3.7,0.1-7.4-0.4-11.1-0.4c-3.3,0-6.6,0.5-9.9,0.7c-0.6,0-1.3-0.6-1.9-0.5
						c-2.9,0.2-5.8,0.7-8.7,0.7c-2.3,0-4.6-0.6-6.8-0.9c0-0.1,0.1,0.3,0.2,0.5c-9.2-0.1-18.5-0.1-28-0.2c0,0-0.3-0.4-0.3-0.4
						c-5.3,1.4-10.6,0.2-16,0.9c-1.1-1.2-1.4-1.2-2.5-0.3c-0.7-0.3-1.4-0.6-2.1-0.8c-0.1,0.3-0.1,0.7-0.2,0.9c-2.7,0-5.4,0-8.1,0
						c-0.3,0-0.6-0.2-0.9-0.4c-0.3-0.2-0.8-0.6-1-0.5c-1.9,0.9-3.7,0-5.6,0.1c-2.1,0.2-4.1,0.7-6.1,0.9c-1.1,0.1-2.2-0.4-3.5-0.7
						c-0.1,0.1-0.5,0.5-0.9,0.9c-0.4-0.4-0.8-0.8-0.9-0.9c-2.1,0.1-3.9,0.2-5.7,0.3c-1.2,0.1-2.5,0.2-3.7,0.1
						c-0.7-0.1-1.4-0.7-1.8-0.9c-0.6,0.4-1.2,1.2-1.6,1c-1.4-0.5-2.7-0.6-4.1-0.1c-0.3,0.1-0.8-0.5-1.2-0.6c-0.3-0.1-0.6,0.2-1,0.3
						c-1.2-0.8-2.5-1.6-3.9-2.5c-0.1,0.2-0.3,0.3-0.4,0.5c-0.1-0.5-0.3-1-0.4-1.4c-1.6,0.8-1.9-0.8-2.8-1.3
						c-1.5-0.9-3.1-2.1-4.7-2.1c-1.8-0.1-1.3-1.6-2.2-2.1c-1-0.6-2.5-0.9-2.1-2.6c0.3-1.3,0.6-2.5,0.9-3.7c0.2-0.8,1.3-1.5,0.4-2.6
						c-0.1-0.1,0-0.5,0.1-0.8c0.4-1.2,1-2.3,1.2-3.5c0.4-2.7,0.3-5.5,1-8.1c0.3-1.1-0.1-2.8,1.5-3.6c0.2-0.1-0.1-1.2,0-1.8
						c0.6-3.1,1.1-6.1,1.8-9.2c0.3-1.1-0.9-3,1.4-3.1c0.1-2.3-0.2-4.4,0.8-6.5c0.8-1.7,0.4-3.9,1-5.7c0.5-1.6-0.1-3.5,1.4-4.9
						c0.3-0.3,0-1.3-0.6-2.1c0.4-0.3,0.7-0.7,1.1-1.1c-0.7-0.8-1.5-1.6,0.1-2.4c0.3-0.2,1.7-1.4-0.3-1.9c0.5-0.6,1-1.2,1.9-2.2
						c0.2-2.7,0.5-6.2,0.7-9.7c0.2,0,0.4,0,0.6,0.1c-0.2-0.5-0.5-0.9-0.8-1.6c1.9,0.1,2-0.8,1.6-2.2c-0.2-0.8,0-1.7,0.4-2.4
						c0.9-1.6-0.6-3.5,1-5.3c1-1.1,0.6-3.5,0.8-5.4c0.2,0,0.5,0.2,0.6,0.2c0.1-1.6,0.3-3.3,0.4-5c0.2,0,0.5-0.1,0.9-0.1
						c-0.3-0.5-0.6-1-1.3-2c0.8,0.4,1.1,0.6,1.3,0.7c1-0.7-1.8-3.2,1.8-3.4c-0.5-0.2-0.9-0.5-1.6-0.8c1.8-0.9,2-1.9,0.6-2.8
						c1.7-3.9,0.7-8.5,2.9-11.7c0.1-1.1,0.2-2,0.3-2.8c0.2-1.7,0.5-3.3,0.7-4.6c0.4-0.7,0.8-1.1,0.9-1.5c0.1-2-0.3-3.9,0.9-5.9
						c0.6-0.9,0.2-2.3,0.4-3.5c0.1-0.7,0.4-1.3,0.4-1.9c0.4-2,0.7-3.9,1.2-5.9c0.2-1,0.9-2,0.8-2.9c-0.2-1.2-0.5-2.2,1.2-2.4
						c0.1,0,0.3-0.6,0.1-0.9c-1.1-2.4,0.5-4.4,0.7-6.6c0.2-1.9-0.1-4.3,0.9-5.4c1.4-1.4-0.1-2.2,0.2-3.1c0.4-1.2,0.8-2.4,1.2-3.6
						c0.2-0.7,0.5-1.4,0.8-2c0.1-0.2,0.5-0.4,0.4-0.6c-0.8-3.1,1-6,0.9-9.1c0-0.2,0-0.5,0.1-0.6c1.8-1.2,0.7-3.3,1.5-4.9
						c0.8-1.7,1.1-3.7,1.6-5.8c1.6-0.3,3.1,0.2,4.6,1.4c1.2,1,3.1,1.2,4,2.3c1.3,1.6,3.8,1.4,4.7,3.5c0.1,0.2,1.2,0,2,0.1
						c0.2,0.4,0.5,1,0.9,1.6c0.1-0.1,0.2-0.1,0.3-0.2c0-0.3-0.1-0.6-0.1-0.8c1.6,1,3.2,2.1,4.8,3.1c1.4,0.9,2.9,1.8,4.5,2.7
						c0,0.1,0.2-0.3,0.4-0.7c3.4,2.2,6.8,4.5,10.3,6.6c0.7,0.4,2-0.2,1.6,1.4c1.4,0.1,2.9-0.6,3.3,1.7c0.1,0.7,2,1.7,2.9,1.6
						c1.9-0.2,2.6,1,3.6,2c0.8,0.7,1.8,1.1,2.8,1.5c1.3,0.5,2.7,0.8,3.9,1.5c0.5,0.3,0.7,1.3,1,1.9c0.5-0.3,1.1-0.9,1.3-0.7
						c0.8,0.6,1.5,1.3,2.3,2.2c0.1,0,0.5-0.1,0.9,0.1c1.1,0.6,2.2,1.3,3.3,1.9c1.5,0.8,3,1.6,4.4,2.4c2.3,1.3,4.6,2.6,6.9,4
						c0.9,0.6,1.7,1.3,2.6,2c0.2,0.2,0.5,0.5,0.7,0.4c2.1-0.6,3.2,0.9,4.7,1.9c1.6,1.1,3.5,1.8,5.1,2.9c1.5,1,3.7,1.1,4.4,3.2
						c0.1,0.2,0.5,0.4,0.7,0.4c2.2-1.1,2.7,1.3,4,1.9c0.7,0.3,1.5,0.4,2.1,0.8c1.2,0.8,2.3,1.7,3.4,2.6c0.1,0.1,0,0.3,0,0.4
						c2.4-0.4,3.8,1.7,5.8,2.4c2.4,0.8,2.8,1.7,1.3,3.8c-0.1,0.2-0.2,0.4-0.2,0.6c0,0.3,0,0.5,0,0.8c-0.6,0.2-1.6,0.3-1.7,0.5
						c-0.1,1.8-1.3,2.3-2.7,2.6c-0.3,0.1-0.5,0.6-0.7,1c-1.9,2.4-3.8,4.8-5.6,7.3c-0.5,0.7-1.7-0.7-2,1.2c-0.2,1.2-2.4,2-3.5,3.2
						c-1,1-1.7,2.3-2.6,3.5c-0.1,0.1-0.1,0.3-0.1,0.3c-2.2-0.1-2.5,2.1-3.7,3.1c-0.8,0.8-2.2,1-2.6,2.7c-0.3,1.2-2.1,1.9-3,3.1
						c-1.2,1.7-2.6,3-4.4,4.1c-1.2,0.7-1.8,2.3-2.8,3.4c-1.2,1.3-2.5,2.5-3.7,3.7c-1.5,1.5-3,3-4.6,4.4c-0.4,0.4-1,0.7-1.7,1.1
						c0,0.4,1,1.1-0.7,1.6c-1.5,0.5-2.5,2.4-3.6,3.7c-0.2,0.2-0.2,0.6-0.4,0.7c-1.8,1.6-3.8,3.1-5.5,4.7c-0.6,0.6-0.7,1.8-1.3,2.4
						c-1.2,1.1-2.6,2-3.9,3.1c-0.4,0.3-0.7,0.9-1,1.3c-0.3,0.3-0.5,0.9-0.8,1c-1.6,0.1-1.9,1.4-2.7,2.3c-1.4,1.5-3.1,2.8-4.1,4.6
						c-1.2,2.2-3.8,2.7-4.9,4.5c-1.3,2.2-3.5,3.3-4.9,5.2c-0.2,0.3-0.7,0.4-1.4,0.8c0,0.2,0.9,1.6-1,1.2c-0.1,0-0.3,0-0.3,0.1
						c-2.2,2.7-4.3,5.4-6.6,8c-0.8,0.9-1.9,1.5-3,2c-1.1,0.5-2,1-1.7,2c-3.7,3.8-7.2,7.5-10.8,11.7c2.5,0.2,4.5,0.3,6.5,0.5
						c0.8,0.1,1.1-0.5,1.6-0.7c1.3-0.5,2.9-0.5,4.3-0.7c0,0.1-0.1-0.2-0.2-0.9c2.8-0.2,5.8,0.2,8.1-0.9c2.6-1.1,5.5,0.2,7.8-2
						c0.6-0.5,2.2,0.1,3.8,0.2c-0.5-0.5-0.7-0.7-0.9-0.9c1.6-0.3,3.3-0.7,4.9-0.7c2.3,0,4.4-1.2,6.6-1.3c2-0.1,3.5-0.9,5.3-1.5
						c0.4-0.1,0.9-0.2,1.3-0.2c1.6,0.2,3.2,0.6,4.7-0.9c0.2-0.3,1.4-0.5,2-0.5c2.1,0,3.8-0.7,5.6-1.4c2-0.7,4.2-0.9,6.3-1.2
						c3.5-0.5,7.1-0.8,10.6-1.4c0.6-0.1,1-0.8,1.9-1.6c1.4-0.1,3.4,0.7,5.2-0.6c0.5-0.4,1.4,0,2.1-0.2c0.9-0.2,1.8-0.3,2.5-0.8
						c0.9-0.5,1.6-1,2.3-0.4c1.3-0.1,2.6-0.2,3.9-0.4c0,0.2,0,0.4,0.1,0.5c0.9-0.7,1.8-1.4,2.8-2.1c0.4,0.3,0.7,0.6,0.9,0.8
						c1-0.5,2.1-1.4,2.9-1.2c1.7,0.3,3,0,4.1-1.2c0.1-0.1,0.5,0.1,0.7,0.1c2.1-0.3,4.2-0.5,6.3-0.9c2-0.4,4-1.1,6.2-1.7
						c0.1,0.2,0.4,0.6,0.7,1c1.1-1.4,5.5-2.3,7.9-1.7c0.2-0.5,0.4-1.4,0.7-1.4c0.5-0.1,1.2,0.3,1.6,0.2c2.3-0.5,4.5-1,6.8-1.6
						c1.7-0.5,3.4-1.1,5.1-1.5c0.9-0.2,1.8,0.2,2.7,0c2.2-0.5,4.2-1.4,6.4-1.8c1.7-0.4,3.6-0.3,5.3-0.2c1.3-0.5,2.6-0.9,3.9-1.4
						c0.7-0.3,1.7-1.1,1.9-0.9c1.1,0.9,1.8,0.1,2.7-0.2c1.2-0.4,2.6-1.2,3.5-0.8c2.5,1.1,3.2-2.4,5.3-1.8c-0.3-1.3-0.4-2.7-1-3.8
						c-1.2-2.5-2.7-4.8-4-7.2c-0.8-1.5-1.1-3.1-2.4-4.4c-0.9-0.9-0.9-2.7-1.4-4.1c0.3,0,0.7,0,0.5,0c1.2-1.4,2.1-2.4,2.9-3.5
						c2.1-2.6,4.2-5.2,7.3-6.7c0.3-0.1,0.8-0.2,1-0.1c1.7,0.9,3.2,2,4.9,2.9c2.5,1.3,5.2,2.5,8,3.9c0,0,0,0.4,0,0.9
						c1.3-0.1,1.3-0.1,2.4,1.3c0.1,0.2,0.5,0.2,0.7,0.3c0.7,0.2,1.5,0.2,2.2,0.5c3.3,1.7,6.5,3.7,9.9,5.3c1.9,0.9,3.6,1.8,5.2,3
						c0.1,0.1,0.4-0.1,0.6-0.1c1.1,0,1.6,0.6,1.8,1.2c1.9,0.9,3.8,1.7,5.6,2.7c1.3,0.7,2.5,1.4,3.8,2.2c0.8,0.5,1.5,1,2,1.6
						c0.6,0.1,1.3,0,1.9,0.3c1.8,1,3.8,1.8,5.4,2.9c1.6,1.1,3.8,1.2,4.9,2.5c1.5,1.8,4.1,1.7,5.5,3.6c0.4,0.6,1.7,0.5,2.6,0.8
						c0.4,0.1,0.8,0.5,1.2,0.7c0.7,0.5,1.5,0.9,2.2,1.4c0,0,0.1-0.1,0.1-0.1c0.7,0.4,1.4,1.1,2.1,1.2c2.2,0.3,3.9,1.3,5.1,3.3
						c0.1,0.1,0.1,0.3,0.2,0.4c2,0.6,4,1.1,6,1.9c1.6,0.6,3.3,1.4,4.5,2.6c2,2.1,4.9,1.9,6.9,3.7c0.5,0.5,1.1,0.9,1.7,1.3
						c1.8,1.3,4.4,1,5.7,3.2c3.2-0.5,4.4,3.6,7.6,3.3c0.9-0.1,1.9,1.1,2.8,1.6C802.3,337.2,803,337.5,804.1,338z"/>
					<path class="st1" d="M585.1,567.1c-0.6-1.1-1.3-2.3-2.1-3.7c-0.8,0.4-1.9,0.8-3.4,1.5c0.6,0.2,0.8,0.3,0.7,0.3
						c-1.2,1.7-2.4,3.6-3.7,5.4c-0.5,0.7-1.3,1.2-1.8,1.9c-0.7,1-1.1,2.2-1.8,3.2c-0.4,0.6-1.2,0.9-2,1.1c-0.4,1-0.3,2.5-2.3,2.1
						c-0.3-0.1-0.7,0.6-1,0.9c-1.2,1.3-2.4,2.5-4.1,3.2c-1.3,0.5-2.3,1.5-3.5,2c-1.2,0.5-2.5,0.9-3.4,2c-0.4,0.4-1.4,0.4-2.1,0.3
						c-1.7-0.2-2.9,2.1-4.8,0.8c-0.2-0.2-1,0.6-1.6,0.8c-1.4,0.5-2.5,1-4.2,0.4c-1.2-0.5-2.8,0.5-4.3,0.6c-1.2,0.1-2.4-0.2-3.6-0.3
						c-1.5-0.1-3.1-0.1-4.6-0.3c-1.7-0.2-3.3-0.7-5-1c-0.3-0.1-0.5-0.2-0.8-0.2c-2.1-0.2-3.8-1.1-5.6-2.1c-1.1-0.7-2.7-0.9-4-1.3
						c-1.7-0.5-3.2-2.1-4.7-3.3c-0.6-0.4-0.8-1.6-2-0.9c-0.4-0.7-0.8-1.4-1.4-2.3c-1.9,0-6.1-4.4-5.9-6c-0.7-1.2-1.2-1.9-1.6-2.6
						c-0.1-0.2-0.2-0.6-0.4-0.7c-2.2-0.9-2.4-3.1-3.3-4.9c-0.4-0.8-1.1-1.5-1.2-1.7c-0.1-1,0-1.5-0.2-1.9c-1.3-2.1-2.4-4.2-1.7-6.7
						c0-0.2,0-0.4-0.1-0.6c-1.6-1.8-0.6-4-0.8-6c-0.2-1.7-0.6-3.4-0.9-5.2c0-0.2-0.2-0.4-0.1-0.6c1.4-3.3,0.6-7,1.8-10.1
						c0.8-2.2,0.6-5,2.9-6.6c0.4-0.3,0.2-1.1,0.5-1.6c1.2-2.3,2-5.1,3.8-6.8c1.5-1.4,1.6-4,4.2-4.4c0.8-0.1,1.4-1.5,1.9-2.5
						c2.4-0.4,2.9-4.1,5.2-3.9c1.3-1,2.1-2.1,3.1-2.2c1.7-0.2,2.2-3.3,4.6-1.6c0.1-0.4,0.3-0.9,0.3-1c1-0.4,1.9-0.5,2.4-1
						c1.1-1,4.3-1.5,5.3-0.7c0.8-0.6,1.5-1.4,2.3-1.9c0.4-0.3,1.2-0.4,1.7-0.2c0.9,0.4,1.8,0.9,2.4-0.3c0.5-0.9,1.7,1.4,2-0.4
						c2.8,0.2,5.6,0.1,8.4,0.5c2.6,0.4,5.1,1.1,7.6,2c1,0.4,2.6-0.4,3.2,1.2c0.1,0.1,1.2-0.2,2-0.4c0.2,0.5,0.5,1.1,0.5,1.2
						c1.2,0.4,2.1,0.6,3,1c1,0.5,1.9,1.2,2.8,1.8c1,0.7,1.8,2,2.9,2.2c2.1,0.3,2.5,2.6,4.3,3.2c0.3,0.1,0.6,0.4,0.8,0.6
						c0.6,0.5,1.1,1.1,1.8,1.9c0.1,0.2,0.4,0.7,0.7,1.1c0.6,0.8,1.3,1.6,2,2.5c1,1.3,2,2.6,2.9,4c1,1.8,1.8,3.7,2.8,5.5
						c0.3,0.6,0.9,1.1,1.1,1.8c0.7,2.2,1.4,4.5,2,6.7c0.5,1.8,0.9,3.6,1.2,5.4c0.1,0.6-0.3,1.3-0.3,1.9c0,1.5,0.1,3,0.3,4.5
						c0.2,1.2-0.1,2.8-0.6,3.7c-0.3,0.5,0,1.2,0.2,1.8c-0.8,0.9-1.7,1.9-0.5,3.3c0.2,0.2-0.1,0.7-0.2,1.1c-0.3,1-0.5,2.1-0.9,3
						c-0.2,0.4-0.7,0.8-1.1,1.1c0.2,0.7,0.5,1.5,0.8,2.2c0.9,0.5,1.8,1,2.6,1.4c-0.1,0.1-0.2,0.2-0.3,0.4c3.9-0.1,7.9-0.2,12-0.3
						c0.3,0.6,3,0.4,4.4-0.9c1.7,0.5,3.4,1,5.3,1.5c0-0.1,0-0.4,0-0.6c5.9,0.6,11.9-0.8,17.7,0.2c1.1-0.2,1.9-2,3.5,0.1
						c0.5,0.7,3-0.2,4.5-0.3c1-0.1,1.9-0.2,2.9-0.2c1.8,0.1,3.5,0.3,5.5,0.4c0,0,0.1,0.4,0.3,0.7c0.7-0.4,1.5-0.8,1.7-0.9
						c1.4,0.1,2.4,0.3,3.4,0.2c0.6,0,1.4-0.3,1.8-0.8c0.7-0.7,1.5-1.4,1.9-2.3c0.6-1.2,0.4-2.7,1.7-3.8c0.6-0.5,0.2-2.3-0.1-3.5
						c1.6-2.3,2.3-5,2.3-8c0-0.6,0.4-1.3,0.8-1.8c0.9-1.1,1-1.4,0-2.6c0.7-0.2,1.3-0.4,2.1-0.7c-0.5-0.3-0.8-0.4-1-0.5
						c0.1-1,0.1-1.8,0.2-2.8c0.2,0.2,0.5,0.5,0.4,0.4c0.4-1.7,1.2-3.7,1.3-5.7c0.1-2.3,1.9-4,1.7-6.4c0-0.4,0.9-0.8,0.9-1.2
						c0.1-2.5,1.1-4.8,1.5-7.2c0.1-0.4,0-0.8,0.2-1.1c0.5-0.9,1.6-1.7,0.7-2.9c-0.1-0.1,0.2-0.5,0.3-0.7c1.7-2.3,1.4-5.3,2.2-7.9
						c0.5-1.8,1.1-3.6,1.7-5.5c0.5-1.7,0.9-3.4,1.2-5.1c0.2-0.4,0.5-0.7,0.6-1.1c0.9-3,1.8-6,2.5-9c0.5-2.2,1.7-4.5,0.1-6.8
						c-0.2-0.3-0.7-0.5-1-0.5c-2-0.1-4-0.1-6-0.1c0-0.1-0.1-0.5-0.2-1c-1.5,1.4-2.5,1.4-2.8,0.6c-1.5-0.1-2.8-0.3-4.1-0.3
						c-2,0-4,0.1-5.9,0.2c-0.6-0.2-1.4-0.3-2.1-0.5c-0.1,0.1-0.1,0.2-0.2,0.4c0.3,0.2,0.5,0.4,0.8,0.6c-0.1,0.2-0.2,0.3-0.2,0.5
						c-0.6-0.4-1.2-0.8-1.5-0.9c-1.4,0-2.4,0-3.4,0c-4.5,0.9-9-0.3-13.8,0.1c0,0-0.4,0.6-0.8,0.5c-0.9-0.1-2-1-2.6-0.7
						c-1.7,0.8-3.4,0.1-5,0.4c-0.9,0.2-1.8,0-2.7,0c-1.1,0-2.3,0-3.4-0.1c-0.8-0.1-1.5-0.4-2.1-0.5c-1.3,0-2.6,0.1-3.9,0.1
						c-1.6,0-3.4-0.5-4.9-0.1c-2.3,0.7-4.5,0.5-6.8,0c-0.7-0.1-1.5-0.3-2.3-0.4c-0.5,0-1,0.4-1.8,0.8c-0.1-0.1-0.4-0.4-0.8-0.8
						c0,0.2,0,0.4,0,0.6c-2.2,0-4.4,0.1-6.6,0.1c0-0.2,0-0.5,0-0.2c-2,0-4.1,0-6.2,0c-1.9,0-3.8,0-5.6-0.3c-0.8-0.1-1.6,1.5-2.5-0.1
						c-0.1-0.2-0.7-0.3-1-0.2c-1.2,0.8-2.5,0.6-3.9,0.6c-2.9-0.2-5.8,0.1-8.7,0.1c-1.3,0-2.6-0.3-4-0.4c-1.7,0-3.3,0.1-5,0.1
						c-1.2,0-2.4,0.1-3.6-0.1c-1.6-0.2-3.1,0-4.6,0.5c-0.3,0.1-0.8-0.1-1.1-0.4c0.3,0,0.6-0.1,0.8-0.1c0-0.2,0-0.3-0.1-0.5
						c-0.8,0.1-1.8,0-2.4,0.4c-1.9,1.3-3.8,0-5.7,0.3c-0.5,0.1-1,0.1-1.5,0.1c-1.5-0.2-2.4-1.7-2.1-3.3c0.1-0.4,0.1-1.2-0.1-1.3
						c-1.5-0.8-0.8-1.6-0.5-2.1c-0.2-1.6-0.5-2.7-0.5-3.9c0-0.8,0.1-1.6-0.2-2.5c-0.5-1.8-0.4-3.7-0.6-5.5c0-0.3-0.6-0.6-0.7-0.9
						c-0.3-2.2-0.3-4.3,1.2-6.3c0.1,0.3,0.2,0.5,0.1,0.3c1.8-0.4,3.5-0.8,5.4-1.2c0-0.1,0.1-0.6,0.2-1.3c0.8,0.2,1.4,0.3,1.8,0.4
						c0.7-0.3,1.3-0.7,1.8-0.9c1.3-0.6,2.5-1.2,3.8-1.6c1-0.3,2.1-0.3,3.2-0.6c1.6-0.4,3.2-0.7,4.7-1.2c1.8-0.6,3.5-1.5,5.3-2
						c2.3-0.7,4.8-1.2,7.1-1.9c1.8-0.6,3.4-1.8,5.2-2c2.2-0.3,3.9-1.3,5.9-2.1c0.5-0.2,1.2,0.1,1.7,0.1c0.5,0,1.4,0,1.5-0.2
						c1.1-2.1,3.8-0.8,5.1-2.5c2.7,1.6,4.1-2.1,6.5-1.7c0.2,0,0.4-0.5,1-0.6c-0.1,0.4-0.1,0.8-0.3,1.7c1.9-2.5,4.4-2.8,6.8-3.2
						c1.4-0.2,2.7-1.1,4-1.6c0.5-0.2,1.1-0.1,1.6-0.1c1.7-0.2,3-2.2,5-1.3c0.2,0.1,0.7-0.4,1-0.6c1.5-0.8,3.1-1.5,4.7-2.3
						c0.1,0,0.1,0,0.2,0c1.8,1.1,3.1-0.8,4.8-0.9c1.1-0.1,2.3-1.3,3.8-0.9c0.1-0.3,0.2-0.7,0.3-1c0.9,0.1,2.2,1.1,2.5-0.8
						c0-0.1,1.1,0.2,1.5,0c2-0.7,4-2.1,6.1-2.2c3.1-0.1,5.2-2.9,8.6-2.3c1.7,0.3,3.8-1.1,5.6-1.7c0.5-0.2,1-0.4,1.5-0.6
						c0.6-0.2,1.2-0.4,2-0.6c0,0,0.1,0.2,0,0.1c1.3-0.4,2.5-0.6,3.4-1.2c1.6-1.2,4-0.2,5.5-2c0.4-0.5,1.8,0,2.6-0.2
						c1.6-0.2,3.3-0.2,4.2-2c0.2-0.4,1.9,0.1,3.2,0.2c0.2-0.2,0.7-0.8,1.3-1.4c0.2,0.3,0.3,0.5,0.5,0.9c0.1-0.1,0.1-0.2,0.2-0.3
						c0.4-0.4,0.9-1.3,1.2-1.2c3.1,0.8,5.1-2.4,7.7-2.1c2.3,0.2,3.7-2.3,6.1-1.3c0.4,0.2,1.1-0.3,1.7-0.4c-0.1-0.3-0.2-0.6-0.3-0.9
						c1,1.3,1.9,2.7,2.9,4c0.6,1.2,1,2.4,1.7,3.3c1.4,1.8,1.3,4.9,2.6,5.9c2.3,1.8,1.8,4.7,3.8,6.3c0.8,0.6,1.1,1.9,1.5,3
						c0.1,0.3-0.1,0.7-0.2,1.3c0.1,0,0.8,0.1,0.8,0.3c0.5,2.7,3.7,4.3,3.2,7.5c0,0.2,0.2,0.4,0.3,0.7c0.6,1.1,1.3,2.3,1.9,3.4
						c0.9,1.5,1.8,3,2.6,4.6c0.7,1.3,1.2,2.7,1.8,4.1c0.3,0.6,0.7,1.2,1.2,1.8c0.6,0.7,1.2,1.1,0.8,2.4c-0.2,0.8,0.8,2.8,1.2,2.8
						c1.9-0.1,0.6,1.1,0.9,1.7c0.7,1.3,1.4,2.6,2.1,3.9c0.4,0.8,0.8,1.6,1.5,2.8c1.6,0.8,2.2,2.3,2,4.8c0,0.7,0.9,1.4,1.4,2.1
						c0.9,1.7,1.8,3.5,2.6,5.2c0.7,1.4,2.4,3.1,2,4.3c-0.5,1.9,1.5,3.7-0.4,5.5c-0.6,0.6-0.2,2.1-0.4,3.2c-0.4,2.2-1.6,4.6-1,6.5
						c0.7,2.5-1.5,4.1-1.1,6.3c0.1,0.4,0.1,0.9,0.1,1.3c-0.2,1.1-0.4,2.1-0.9,3.1c0.8,1.9,0.7,3.7-0.7,5.5c-0.3,0.4,0.4,1.4,0.4,2
						c-0.1,1.3-0.4,2.6-0.6,3.9c-0.4,2.6-0.7,5.2-1,7.8c-0.1,0.5-0.4,0.9-0.6,1.3c-0.4,1.3-0.8,2.5-1.2,4c0.2,0.1,0.6,0.3,0.5,0.2
						c-0.2,1.9-0.3,3.5-0.6,5.1c-0.2,1.3-0.4,2.6-0.8,3.8c-0.4,1.4-0.3,2.7-0.2,4.2c0.1,1.9-0.7,3.9-1.1,5.9
						c-0.2,0.8-0.7,1.6-0.8,2.4c-0.2,1.7-0.3,3.4-0.4,5.2c-0.4,2.3-0.9,4.6-1.4,7c0.1,0.1,0.5,0.2,0.4,0.2c-0.1,1.9-0.3,3.6-0.4,5.4
						c-0.2,0.1-0.6,0.2-1,0.3c-0.1,1.2-0.2,2.4-0.3,3.6c-0.1,1.4,0,2.7-0.2,4.1c-0.2,1.3-0.7,2.6-1.1,4c-0.1,0.4-0.4,0.9-0.3,1
						c1.5,1.6,0.4,2.4-1.3,3.3c0.8-0.1,1.1-0.1,1.6-0.1c-2.3,2.4-3.6,2.2-6.9,2.4c-1.8,0.1-3.4-1.7-5.5-0.1c-1,0.8-3.3-0.1-5.1-0.2
						c0.1-2-1.4,0.2-1.9-0.3c-0.5,0.9-0.9,1.2-1.8,0.2c-0.3-0.3-1.5,0.1-2.3,0.1c-1.6,0.1-3.6,0.9-4.8,0.2c-1.6-0.8-3.3-1-4.5-0.7
						c-2.5,0.5-4.7,0.3-7-0.4c-0.2-0.1-0.6-0.1-0.8,0.1c-1.4,1.3-2.9,0.1-4.3,0.3c-1,0.1-2-0.1-3.1-0.2c-0.6,1.2-2.6,1.1-6.6-0.7
						c0.3,0.5,0.5,0.9,0.4,0.9c-2.3-0.1-4.7-0.1-7.2-0.3c-2.2-0.1-2.7-0.3-3.2-0.7c-0.5,0.4-1,0.8-1.5,1.2c0-0.2,0-0.3,0-0.5
						c-0.4,0-0.8-0.1-1.3-0.1c-1.5,0-2.9,0.2-4.4,0.1c-2.4-0.1-4.8-1.1-7.2,0.4c-0.3,0.2-1-0.2-1.5-0.2c-0.9-0.1-1.7-1-2.8-0.2
						c-0.9,0.7-1.9,0.3-2.8-0.3c-0.2-0.1-0.5,0-0.8,0.1c-1.1,0.3-2.3,1.1-3.2-0.4c-0.1-0.2-0.5-0.3-0.7-0.2c-1.6,0.9-3,0.7-4.7,0.1
						c-1.3-0.5-3.1,0.3-4.6,0.5c-0.4,0.1-0.8,0.4-1.1,0.3c-3.4-1.1-6.9-0.1-10.3-0.2c-0.4,0-0.8-0.3-1.2-0.4
						c-0.6-0.1-1.1-1.1-1.9,0.1c-0.4,0.6-3.3-1.2-3.8-2.1c-0.9-1.8-1.8-3.5-2.7-5.3c-1.2-2.2-2.3-4.3-3.5-6.5
						c-0.2-0.4-0.4-0.7-0.6-1C585.3,567.3,585.2,567.2,585.1,567.1z"/>
				</g>
				<g>
					<path class="st1" d="M809.2,501.1c-0.8,0.1-1.6,0-2.4,0.2c-0.5,0.1-1.2,0.4-1.2,0.7c0,2.6-2.4,2.2-3.7,3
						c-0.4,0.3-0.6,0.8-1.1,1c-1.1,0.5-2.3,1-3.8,1.6c0-0.6-0.1-1.2-0.1-1.7c0,0,0.1,0.1,0.1,0.1c-0.4-1.7-0.5-3.6-1.1-5.2
						c-0.8-1.9,0.4-4-1-5.9c-0.7-0.9,0.2-3-0.4-4.2c-1.1-2.3-0.6-4.5-0.8-6.8c-0.1-0.7-0.7-1.3-0.8-1.9c-0.5-4-1-7.9-1.6-12.3
						c-1.4-0.9-1.4-1-0.4-2.6c-0.2-1.5-0.3-2.3-0.4-3.2c0-0.4,0.1-0.8,0-1.1c-0.7-2.8-2.1-5.7-2.1-8.5c0-1.9-1.1-2.9-1.3-4.4
						c-0.1-0.6,0.3-1.3,0.5-2.1c-0.5-1.1-1.1-2.4-1.7-3.8c0.2-0.3,0.5-0.6,0.9-1c-0.4-0.4-0.8-0.9-1.3-1.5c0.6-0.2,1-0.4,1.4-0.6
						c0-0.2,0-0.5-0.1-0.5c-0.9-0.2-1.3-0.5-1.2-1.8c0.1-2.4-0.4-4.8-1.1-7c-0.3-1.1-0.7-2.2-0.9-3.4c0-0.1,0.7-0.4,1.1-0.6
						c-1.3-1.3-2.1-6.1-1.1-7.4c-0.3-0.2-0.6-0.4-1-0.6c0-0.2-0.1-0.4-0.1-0.6c9.9-2.3,19.8-4.7,29.7-7c0.1,0.2,0.1,0.4,0.2,0.6
						c-0.2-0.2-0.5-0.4-0.8-0.7c2.6-0.6,5.2-1.9,7.5-1.5c2.8,0.5,3.3-1.7,4.4-2.8c1.1-1,1.3-3.1,1.7-4.7c0.5-2,0.6-4,1.2-6
						c0.3-1,1.1-1.9,1.8-3c0.3,0,0.9,0.1,1.4,0.2c0.1-0.1,0.1-0.1,0.2-0.2c-0.4-0.2-0.7-0.4-1.1-0.5c4.5,0,8.6-0.6,12.6,0.1
						c2,0.3,3.8-0.1,5.7,0.2c0.6,0.1,1.3-0.1,1.9-0.1c2.4-0.2,4.6,0.3,6.9,1c1.1,0.3,2.6-0.4,3.8-0.3c2.9,0.2,5.9-1.3,8.7,0.6
						c0.2,0.1,0.7,0.1,0.8,0c1.4-1.9,2.8-0.4,4.3-0.1c0.9,0.2,2-0.3,3-0.4c1-0.1,2-0.1,3,0c1,0.1,1.9,0.5,2.8,1
						c1.5-0.1,3-0.3,4.6-0.4c2.4-0.1,4.9-0.2,7.3-0.3c1.6,0,3.2,0.1,4.7,0.1c0.6,0,1.2-0.4,2.4-0.9c-3-2.7-5.6-4.8-8.1-7.1
						c-1.7-1.6-3.7-3.1-4.7-5.1c-1.4-2.7-3.8-5-3.8-8.3c0-0.3-0.5-0.6-0.6-0.6c0.2-0.7,0.5-1.7,0.4-1.7c-2.6-1.3-0.8-4.1-2-5.9
						c-0.3-0.4-0.1-1.1-0.1-1.6c-0.1-1.2-0.2-2.4-0.3-3.5c0-3.6,0.5-7.1,1.9-10.4c0.6-1.3,0.6-2.9,1.2-4.2c1.2-2.2,2.6-4.3,4-6.4
						c0.8-1.2,1.7-2.5,2.5-3.7c0.2-0.3,0.5-0.5,0.8-0.6c0.3-0.2,1-0.2,1-0.3c0.7-3.3,4-4.1,6-5.8c1.8-1.5,4.5-2.3,7.2-2.9
						c2.4-0.5,4.9-1.2,7.4-1.7c1.1-0.2,2.4,0.1,3.6,0.2c0-0.3-0.1-0.7-0.1-1.3c1.3,0.5,2.5,0.9,3.7,1.4c0.4-2.8,1.8,0.9,2.7-0.3
						c1.3,1,2.7,0.1,4.1,0.2c1.9,0.1,3.3,1,4.5,2.5c0.7-0.8,1.5-1.3,2.7,0.2c0.7,0.9,2.2,1.8,3.2,1.7c1.4-0.2,0.9,0.9,1.3,1.2
						c1.9,1.5,3.8,3,5.6,4.6c0.7,0.7,1.3,1.5,2.1,2.1c1.5,1.1,3.1,2,2.9,4.3c0,0.5,1.2,1.1,1.5,1.8c0.9,1.7,1.5,3.5,2.4,5.5
						c1.1,0.2,0.6,1.6,0.4,2.5c-0.1,0.8-1,1.7,0.7,1.7c0.2,0,0.5,0.4,0.5,0.6c0,1.5-0.1,3.1-0.1,4.6c0,0.1-0.1,0.4-0.1,0.4
						c1.7,1.6,0.3,3.4,0.3,5.1c0.1,2.6,0.2,3-1.1,6.3c-0.2,0.5,0.2,1.2,0,1.7c-0.6,1.4-1.3,2.7-1.9,4.1c-0.4,0.9-0.7,1.9-0.9,2.9
						c-0.3,1.3-0.7,2.4-2.3,2.5c-0.1,0-0.2,0.5-0.2,0.7c0.1,1.5-0.7,2.2-2.1,2.6c-0.5,0.1-0.6,1.3-1.1,1.8c-1.1,1.2-2.2,2.4-3.5,3.4
						c-2.5,1.9-5.1,3.7-7.7,5.6c1.2,0.6,2,1.1,2.8,1.5c1-0.2,2.2-0.7,3.4,0.7c0.2,0.2,0.6,0.5,0.8,0.4c1.8-0.7,4,0.7,5.2,0
						c2.3-1.2,4.3,0,6.4-0.3c2.2-0.3,4.4-0.1,6.7,0c-0.1,0.1-0.2,0.3-0.7,0.9c1.8-0.1,3.3-0.2,4.7-0.4c0-0.2,0-0.4,0-0.5
						c0.5,0.5,1,0.9,1.4,1.4c0-0.2,0-0.5,0.1-0.7c0.8-0.1,1.5-0.2,2.3-0.3c0.6,0,1.2-0.1,1.9,0c0.8,0.1,2.1,0,2.4,0.5
						c1.5,2,2.1,0.7,2.8-0.6c1.4,0.4,2.8,0.9,4.2,1.3c0-0.1-0.1-0.2-0.1-0.4c1.4-0.1,2.7-0.5,4.1-0.3c2.8,0.3,5.9-0.7,8.9,1.2
						c0.7-0.6,1.5-1.9,3.4-0.6c1.3,0.8,3.5-0.1,5.2,0.3c1.8,0.5,3.3,0.2,5-0.5c0.4-0.2,1.5,1.2,2.9,0.7c1-0.4,2.4,0.4,3.3,0
						c2.1-1,4.2,1.3,6.1-0.3c1.3,1.2,2.7,2.2,3.8,3.5c0.7,0.9,0.9,2.2,1.2,3.4c0.4,1.3,0.7,2.7,1.1,4c0.1,0.4,0.6,0.8,0.7,1.2
						c0.2,1,2,1.9,0.3,3.2c-0.1,0.1,0.2,0.6,0.3,0.9c0.4,1.5,0.6,3,1.1,4.4c1.1,3,2.3,5.9,3.4,8.9c-0.2,0-0.6,0.1-0.8,0.2
						c0.2,0.6,0.2,0.8,0.2,0.9c1,0.6,1.6,1,1.6,2.6c-0.1,1.9,1.5,3.8,1.9,5.8c0.7,3.9,2.7,7.3,3.6,11.1c0.1,0.5,0.5,0.9,0.7,1.3
						c0.7-0.4,1.2-0.8,1.8-0.9c1.3-0.4,2.2-0.6,2.9-2.3c1-2.5,2.8-4.7,4.3-6.9c1.1-1.6,2.3-3.2,3.4-4.8c0.5,0,1.5,0.2,1.6-0.1
						c0.8-1.4,1.6-0.8,2.8-0.5c2.3,0.7,4.7,0.8,7.1,1.3c1.7,0.3,3.3,0.8,5,1.1c2.3,0.5,4.5,0.9,6.8,1.4c1.2,0.3,2.3,0.7,3.5,1.1
						c0.2,0.1,0.5,0.4,0.5,0.4c1.6-1.4,2.9,0.1,4.3,0.3c2.8,0.5,5.5,1.1,8.3,1.5c2.7,0.4,5.2,1.5,8,1.8c1.3,0.1,3,1.1,4.7,1.4
						c0.4,0.1,1,0.4,1.2,0.2c1.9-1.8,2.2,0.3,3.1,1c0.4-0.2,0.9-0.6,1.4-0.9c0.3,0.8,1,1.6,0.9,2.3c-0.1,0.6-1.2,1.1-2.2,1.9
						c0,0.1,0.9,1.1-1,1.1c-1.3,0-3.1,1.2-3.9,3c-0.5,1.1-1.7,1.9-2.7,2.6c-2.1,1.5-4.3,2.8-6.4,4.3c-0.9,0.7-1.5,1.8-2.4,2.4
						c-1.2,0.9-2.6,1.6-3.9,2.4c-1.5,1-3,2-4.5,3.1c-0.3,0.2-0.2,0.9-0.2,1c-1,0.1-1.8,0.2-2.7,0.3c0.5,0.6,0.9,0.9,0.9,0.9
						c-1.4,1.3-2.5,2.6-3.9,3.7c-1.3,1-2.8,1.7-4.5,2.6c0,0,0.1,0.5,0.1,0.4c-1.5,1.3-2.7,3.4-4,3.5c-3.3,0.3-4.3,3.5-7,4.7
						c-2.6,1.2-4.6,3.9-7,5.8c-1.6,1.3-2.8,3.4-5.4,3.2c-0.2,0-0.7,0.4-0.7,0.4c0.6,1.9-1.9,1.6-2.2,3c-0.1,0.3-1.3,0.3-1.9,0.7
						c-0.4,0.2-0.5,1-0.9,1.3c-1.4,1-3.1,1.9-4.4,3c-1.9,1.6-3.5,3.5-5.4,5.1c-0.6,0.6-1.6,0.8-2.4,1.1c-0.3,0.1-0.9,0.1-0.9,0.3
						c-0.5,2-2.6,2.1-3.8,3.3c-2.2,2.3-4.9,4.2-7.4,6.2c-1.5,1.3-2.8,3.2-4.5,3.8c-1.2,0.5-1.7,1.1-2.4,1.9c-0.2,0.2-1-0.1-1.6-0.2
						c0,0.5,0.1,1,0.1,1.5c-2.3,0.2-4.1,1.6-4.1,3c-1.8-0.9-2.8,3.6-5-0.2c0.2,1.2,0.3,1.6,0.3,2.1c-4.5-2.3-8.7-4.5-12.6-6.6
						c1.3-2.4,2.4-4.5,3.7-6.6c1.2-1.9,2.7-3.6,3.9-5.5c1.4-2.3,3.3-4.2,4.4-6.7c0.4-0.9,1.8-1.3,2.9-2c-0.2-1.3,1.1-2.3,1.6-3.6
						c0.9-2.2,2.7-3.3,4-5.1c0.3-0.4,0.1-1.1,0.2-1.8c0.4,0.1,1,0.3,1.1,0.1c1.4-1.9,2.7-3.7,4-5.7c0.4-0.7,0.6-1.5,0.9-2.3
						c0.8-2.7,4.5-3.7,4.3-7c0-0.4,0.6-0.8,1-1.1c1.9-1.4,3-3.2,3.6-5.4c0.2-0.6,1-1,1.8-1.7c-1.6-1.1-3.1-2.3-4.8-3.3
						c-0.3-0.2-1.1,0.4-1.6,0.2c-1.8-0.6-3.5-1.3-4.4-1.6c-4.2-0.3-7.7-0.5-11.3-0.7c0.4-0.5,0.6-0.8,0.8-1
						c-0.1-0.1-0.2-0.2-0.3-0.3c-0.4,0.5-0.8,0.9-1.2,1.4c-0.5-0.5-1.1-1.1-1.6-1.6c-1,0.9-2.8,0.8-3.8-0.2c-0.2-0.2-0.7-0.3-1-0.3
						c-1.5,0.2-3.1,1-4.5-0.4c-0.1-0.1-0.7,0.4-1.1,0.7c-0.5-1.4-1.4-1.7-3.1-1.9c-3.1-0.3-6.4,0.6-9.2-1.3c-0.3-0.2-0.8-0.4-1-0.2
						c-1.2,0.7-2.2,0.8-3.4-0.1c-0.2-0.2-0.9,0.2-1.5,0.4c0.1-0.5,0.1-0.9,0.2-1.1c-3.3-0.2-6.6-0.4-10-0.6c0.2-0.2,0.4-0.6,0.5-0.9
						c-0.7,0-1.6,0.3-2.1,0c-2.4-1.4-5.1-0.5-7.6-1.2c-0.7-0.2-1.6,0.2-2.8,0.3c0.5-0.6,0.7-0.9,1-1.2c-2.5-0.1-4.9-0.2-7.4-0.4
						c0-0.1-0.2-0.7-0.2-0.9c-0.8,0.2-1.4,0.6-1.9,0.5c-3-0.5-5.9-1.2-8.9-1.7c-1.4-0.3-2.8-0.4-4.3-0.2c-0.5-0.6-1-1.2-1.5-1.8
						c-0.1,0.3-0.2,0.5-0.3,0.8c-0.9-0.1-1.7-0.2-2.6-0.4c-0.5-0.1-0.9-0.2-1.3-0.3c-0.7-0.1-1.5-0.3-2.2-0.4
						c-1.5-0.2-3-0.3-4.5-0.5c-0.8-0.1-1.5-0.5-2.3-0.6c-0.8-0.2-1.6-0.4-2.4-0.4c-3.4-0.1-6.8-0.3-9.9-1.8c-0.4-0.2-1-0.7-1.1-0.6
						c-2.5,2.4-4.6-0.8-7.1-0.4c-2.2,0.4-4.8-1-7.2-1.5c-0.7-0.1-1.6,0.4-2.5,0.7c-0.2-0.4-0.6-0.9-0.9-1.5
						c-2.5,0.3-5.1,1.4-7.4-0.8c-0.3-0.2-0.8-0.2-1.2-0.3c-3-0.6-6-1.3-9-1.8c-1.5-0.3-3.2,0-4.6-0.5c-1.2-0.4-2.2-1.2-3.4-0.1
						c-0.1,0.1-0.3,0.1-0.4,0c-2.8-2-6.8,0-9.5-2.6c-0.2-0.2-0.6-0.1-1-0.1c-0.4,0.1-1,0.4-1.3,0.2c-2-1.5-4.4-0.3-6.5-1.2
						c-0.2-0.1-0.7-0.1-0.7,0c-0.5,2.2-4.2-1.2-3.9,2.1c0.4,0.4,0.9,0.6,1,0.9c0.6,2.4,0.4,5.3,1.8,7c1.7,2.1,1,4.9,2.9,6.7
						c0.5,0.5,0.7,1.3,0.9,2c1,3.6,2.7,6.8,4.4,10.1c0.6,1.1,2,2.2,0.8,3.8c-0.2,0.2,0.2,1.2,0.3,1.2c1.9,0,0.8,1.6,0.7,1.9
						c-0.6,1.3-1.4,2.6-2.3,3.7c-0.2,0.3-1,0-1.3,0.5c-1.5,0.9-2.9,1.8-4.3,2.6c0,0,0.2,0.4,0.4,0.8c-0.2,0.2-0.4,0.2-0.5,0.3
						c-1,0.5-2.1,0.9-2.9,1.5c-1,0.9-1.7,2.4-3.5,1.8c-0.3-0.1-0.8,0-1,0.2c-1.4,1.2-2.8,2.4-4.2,3.6c-0.8,0.7-1.5,1.6-2.5,1.9
						c-2,0.6-2.5,3.4-5.1,3.2c-0.3,0-0.8,0.9-1.3,1.5c-1.4-0.4-2.6,0.3-3.4,1.8c-0.6,1.2-1.1,2.4-2.8,1.8c-0.1,0-0.4,0.2-0.4,0.4
						c-0.2,1.6-1.3,1.6-2.5,1.8c-0.5,0.1-0.9,0.8-1.3,1.2C809,500.7,809.1,500.9,809.2,501.1z"/>
					<path class="st1" d="M933.8,673.7c-0.8-0.8-1.5-1.5-2.4-2.4c0.8-0.9,1.6-1.9,2.8-3.3c-0.9,0.4-1.1,0.5-1.4,0.6
						c-0.1-0.1-0.2-0.3-0.3-0.4c0.5-0.3,1.1-0.6,1.6-0.9c0.2-0.1,0.5-0.3,0.6-0.6c0.7-1.7,1.2-3.4,1.9-5c0.7-1.5,1.9-2.7,2.5-4.2
						c0.7-1.8,1.9-3.5,1.4-5.6c-0.2-0.7,0-1.5,0-2.2c-0.4-3.5-2-6.6-3-9.9c-0.4-1.4-0.5-3-0.6-4.5c-0.1-0.6-1.4-3.7-1.7-4.5
						c-0.2-0.5,0.1-1.2,0.2-1.5c-1-2.3-2-4.4-3-6.6c-1.3,0.5-2.7,0.1-3.2,1.8c-0.2,0.6-1.4,0.9-2.2,1.4c-0.6,0.3-1.6,0.6-1.6,1
						c-0.4,2.3-2.4,3.2-3.9,4.6c-0.8,0.7-1.8,1.2-2.8,1.6c-0.9,2.1-2.5,3.4-4.7,4.3c-0.6,0.2-1.1,1-1.3,1.7c-0.5,1.6-3,1.2-3,3.5
						c0,0.7-1.6,1.6-2.5,2.3c-1.4,1-2.9,1.9-4.2,3c-1.1,1-2.3,2-3.4,3.1c-0.3,0.2-0.3,0.7-0.5,1c-0.5,0.6-1.2,1.6-1.7,1.5
						c-1.8-0.4-2.1,1-2.8,1.9c-0.8,1.1-1.4,2.3-2.3,3.2c-0.4,0.4-1.2,0.4-1.9,0.6c-0.1,0.3-0.1,1.1-0.5,1.3c-2.7,1.6-4.6,4.2-7,6.2
						c-1.3,1.1-2.9,2-4.4,3.1c-0.4,0.3-0.5,0.9-0.8,1.2c-1.2,0.8-2.5,1.6-3.7,2.3c-2.2-3.1-2.8-6.3-1.2-9.4c1.3-2.6,3.4-4.8,5.3-7.5
						c0-0.1-0.3-0.7-0.7-1.8c0.8,0.5,1.2,0.7,1.7,0.9c0-0.1,0.1-0.3,0.2-0.5c0.7-1.1,1.5-2.2,2.2-3.3c0.2-0.4,0-1.1,0.3-1.4
						c1-1.5,2.1-2.9,3.1-4.4c0.3-0.5,0.2-1.1,0.5-1.6c0.3-0.5,0.7-0.9,1.1-1.2c0.5-0.3,1.1-0.5,2.3-1c-1.1-0.2-1.4-0.2-1.6-0.2
						c4.5-6.7,9-13.4,13.5-20.1c-0.1,0-0.1-0.1-0.2-0.1c0.7-1.1,1.4-2.1,2.2-3.2c0.4-0.6,0.9-1.3,1.4-1.9c0.7-1,1.5-2,2.4-3.3
						c0.1,0.1-0.1-0.3-0.4-1c0.6,0.2,0.9,0.3,1.4,0.5c-0.4-2.9,1.8-4,3.4-5.7c0.9-0.9,1.1-2.4,1.7-3.5c0.5-0.9,1.2-1.7,1.7-2.6
						c0.4-0.7,0.8-1.4,0.9-2.2c3.7-2.5,4.7-2.9,5-0.4c0.6,0,1.3-0.1,2.3-0.2c-0.5,0.5-0.7,0.7-1,1.1c1.6,0.8,3.2,1.6,4.5,2.2
						c0.5-1,1-1.7,1.3-2.4c-0.2-0.8-0.5-1.7-0.8-2.6c-0.4-1.6,0.3-3.3-1.4-4.7c-0.7-0.6-0.5-2.3-0.7-3.5c-0.5-2.8-0.5-5.9-1.8-8.3
						c-1.1-1.9-1-4-1.9-5.9c-0.3-0.6-0.3-1.4-0.7-2.1c0.1-1,1-2.2-0.9-2.7c-0.1,0-0.3-0.6-0.2-0.8c0.9-2.6-1.2-3.9-2.2-5.8
						c-1.4,0.7-3,1-3.6,2c-1.4,2.2-3.6,3.4-5.5,5c-1.7,1.4-2.7,3.5-4.1,5.1c-0.9,1-1.9,1.9-3.3,3.2c-0.1,0.2-0.3,1-0.9,1.5
						c-2.4,2.1-5.3,3.8-6.9,6.8c-0.2,0.4-0.9,0.4-1.4,0.6c-0.4,0.2-1.2,0.6-1.2,0.7c0.6,2.5-2.2,2.9-3,4.6c-1.3,2.7-4.4,4.6-6.7,6.7
						c-1.2,1.1-2.5,2-3.7,3c-0.7,0.6-1.3,1.3-1.9,1.8c-0.3,0.7-0.4,1.3-0.8,1.9c-0.1,0.2-0.8-0.1-1.4-0.1c0,0.6,0.1,1.3,0.1,2
						c-1.8,0.2-5.8,4.2-5.9,5.1c-0.9,0.8-1.4,1.3-2.2,2.1c-0.1,0.2-0.3,0.8-0.6,1.2c-1.3,1.3-2.6,2.5-3.9,3.7
						c-0.5,0.5-1.3,0.8-1.8,1.4c-1.1,1.2-2,2.6-3.1,3.8c-0.4,0.5-1.2,0.6-1.7,1c-0.6,0.5-1.1,1.2-1.4,1.9c-0.5,1.6-2.3,2.8-3.2,2.5
						c-1.4,1.4-2.7,2.7-4.4,4.4c-1.6-4.3-2.9-7.8-4.3-11.5c0.5,0.2,0.9,0.4,0.7,0.3c-1.6-4.2-4-8.6-4.2-13.6
						c-0.2,0.1-0.5,0.2-0.8,0.3c-0.2-1.3-0.3-2.6-0.7-3.8c-0.3-0.8-0.9-1.6-1.5-2.3c-0.8-1.1-0.5-1.3,0.4-2.5
						c1.9-2.3,4.6-3.4,6.4-5.6c0.4-0.4,0.9-0.9,1.4-1c1.5-0.3,4.3-3,4.5-4.4c1.1,0.2,4.4-1.7,4.8-2.8c0.2-0.5,0.5-1.1,0.9-1.4
						c2.3-1.6,4.7-3.2,7-4.8c1.3-1,2.5-2.2,3.9-3.2c0.5-0.4,1.3-0.3,1.7-0.6c0.6-0.5,1-1.4,1.6-1.7c0.6-0.4,1.5-0.3,2.4-0.4
						c-0.4-0.3-0.7-0.6-1.1-0.9c2.1-0.1,2.7-2.8,5.2-2.5c0.6,0.1,1.5-1.9,2.2-3c0.2-0.3,0.3-0.9,0.5-0.9c2.5-0.2,3.6-2.7,5.9-3.4
						c0.3-0.1,0.4-0.6,0.6-0.8c2.4-2.2,4.9-4.1,8-5.5c1.7-0.8,3-2.5,4.2-4c1.3-1.6,3.4-2.1,5.8-1.1c1.5,0.6,3,1,4.6,1.5
						c0,0.1-0.2,0.4-0.5,1.2c1.8-1.2,2.5-0.1,3.4,0.8c0.6,0.6,1.5,0.8,2.4,1c1.9,0.5,3.8,0.8,6,1.2c-0.2-3-0.3-5.8-0.4-8.5
						c-1.5-0.3-1.2-1.6-1.2-2.7c0-1.1,0.7-2.4-1-3.1c-0.2-0.1-0.4-0.3-0.4-0.5c-0.6-2.8-1.1-5.6-1.8-8.4c-0.6-2.5-1.4-5-2.1-7.4
						c-0.1-0.2-0.9-0.4-1.3-0.3c-1.6,0.3-3.4-0.1-4.4,1.7c-3.4-0.3-4.8,3.3-7.8,3.9c-1.7,0.4-3.2,1.9-4.8,2.8
						c-0.6,0.3-1.3,0.4-1.9,0.7c-0.3,0.2-0.5,0.6-0.4,1.1c-2,1.1-4,2.5-6.1,3.1c-2.6,0.7-4.4,2.6-6.5,3.9c-1.3,0.8-2.9,0.9-4.2,1.6
						c-1.9,0.9-3.7,1.9-5.4,3c-2.1,1.3-4,2.8-6.1,4.1c-1.6,1-3.2,2.2-4.9,2.7c-3.3,0.8-5.5,3.3-8.4,4.7c-2.4,1.2-4.7,2.5-7,3.8
						c-0.8,0.5-1.6,1.3-2.5,1.4c-1.3,0.2-2.7-0.1-4-0.2c0-2.2,0.2-4.1,0-6c-0.1-0.8,1.1-1.8-0.2-2.4c0.4-0.7,0.8-1.3,1.3-2.2
						c-0.3-0.1-0.8-0.4-1.3-0.7c0.4-0.2,0.8-0.4,1.6-0.9c-3.1-0.6-0.6-2.1-0.9-3.2c-0.2-0.8,0.3-1.7,0.1-2.4
						c-1.2-3.2-0.3-5.7,2.2-8.3c1.3-1.3,2.1-2.9,4.3-2.2c1.6-2.5,4.9-2.3,6.7-3.9c2.6-2.3,5.4-3.6,8.6-4.6c1.4-0.4,2.3-2.1,3.6-2.9
						c1.8-1.1,3.6-2.3,5.8-3.6c-0.4,0.8-0.5,1.3-0.8,2c0.5-0.3,0.9-0.4,1-0.6c0.2-1.3,0.3-1.9,2.1-2.2c1-0.1,2.9-1.1,4.1-2.5
						c1.1-1.3,3.2-1.8,4.9-2.7c0.7-0.4,1.2-0.9,2.1-1.6c1,0.5,1.7,0,2.7-1.4c0.7-1.1,2.8-1.2,4.2-1.8c1.7-0.8,3.3-1.6,4.8-2.7
						c-0.4,0.2-0.9,0.4-1.4,0.6c0.1-0.3,0.1-0.5,0.2-0.5c0.8-0.4,1.7-0.9,2.5-1.2c2-0.9,3.5-3,6.1-2.7c0.4,0,1-1.1,1.5-1.8
						c0.5-0.7,1.1-1.5,1.7-2.4c-2.5-1.1-4.9-2.5-7.6-3.5c-2.5-0.9-5.3-1.3-7.8-2.1c-1.2-0.4-2.1-1.3-3.4-2.1
						c-0.2,0.1-0.6,0.5-0.6,0.5c-3.1-0.9-6.1-1.4-8.8-2.6c-1.4-0.7-3.1-1.2-4.5-2.1c-1.2-0.8-3.3-2.3-5.5-1.3
						c-0.5,0.2-1.2-0.1-1.8-0.2c0-0.2,0-0.4,0-0.6c0.3-0.1,0.5-0.2,0.9-0.4c-0.4-0.2-0.8-0.7-1.2-0.7c-1.8,0.1-1.8,0.2-1.4-1.7
						c0.3-1.5,0.5-3,2.5-3.1c-0.7-2.7,2.3-2.7,3.1-4.3c0.8-1.7,1.4-3.4,3.1-4.6c-0.5,0.2-1.1,0.4-1.6,0.6c-0.1-0.1-0.2-0.3-0.2-0.4
						c0.9-0.5,1.7-0.9,2.6-1.4c0.8-0.4,1.6-1.2,2.5-1.3c0.8-0.1,1.6,0.6,2.6,0.9c0,0.2-0.2,0.5-0.2,0.6c1.3,0.1,2.5,0.1,3.8,0.2
						c1,0,2-1.6,3.1,0.6c1.6-1.5,2.9-1.2,4.3,0.1c0.3,0.3,1.2,0.6,1.3,0.4c1.4-1.9,2.1-0.1,2.8,0.4c0.7-0.3,1.2-0.7,1.7-0.7
						c1.8,0,3.6,0,5.3,0.2c0.4,0,0.8,0.8,1,0.9c1.1,0.1,2,0,3,0.2c2.6,0.4,5.2,1,7.8,1.2c2.5,0.2,5.1,0.1,7.6,0.2
						c0.6,0,1.2,0.7,1.8,1c0.2-0.3,0.4-0.8,0.5-0.8c2.4,0.5,4.9-0.1,7.3,0.8c1.1,0.4,2.5,0,3.7,0.1c1.6,0.2,3.1,0.5,4.7,0.8
						c1,0.2,2,0.3,2.9,0.5c0.7,0.1,1.4,0.1,2.1,0.5c2.1-1,5.6-0.5,9.1,1.4c0.8-0.2,1.4-1.9,2.4-0.2c0,0,0.4-0.1,0.6-0.1
						c0.9-0.2,1.9-0.6,2.7-0.5c1.5,0.2,2.8,1,4.3,1.2c2,0.4,4.1,0.6,6.2,0.7c1.7,0.1,3.4-0.1,5.1,0c1.1,0,2.2,0.3,3.3,0.9
						c1.3-0.1,3.1-0.8,3.9-0.2c1.3,1,4.2-0.4,3.9,2.6c0,0.3-0.3,0.6-0.5,0.8c-0.2,0.3-0.5,0.5-0.6,0.8c-0.8,2.3-1.4,4.7-2.3,7
						c-0.2,0.7-0.9,1.2-1.2,1.5c-0.6,2-1,3.8-1.7,5.4c-0.7,1.7-1.5,3.5-2.6,4.9c-1.1,1.3,0,4.3-3.3,3.8c0.3,0.8,0.6,1.4,0.8,1.9
						c-0.4,0.3-0.9,0.5-1,0.8c-1.1,3-1.7,6.2-4,8.7c-0.9,1-2.5,1.2-3.6,0.6c-1.9-1-3.6-2.7-6.1-1.9c-0.4,0.1-1.1-0.6-1.7-1
						c0.1-0.2,0.2-0.4,0.3-0.7c-1.2,0.2-2.4,0.3-3.3,0.5c-0.3,2.1-0.6,4-0.9,5.9c0,0.2-0.1,0.6,0,0.6c1.7,1,1.4,2.8,1.6,4.3
						c0.1,0.7,0.4,1.5,0.5,2.2c0.5,2.6,0.8,5.3,2.4,7.6c0.1,0.2-0.1,0.5-0.1,0.8c-0.4,2.6,0.4,5,1.3,7.8c0-0.8,0-1.2,0-1.1
						c1.8,0.7,3.7,1.5,6,2.5c-0.2-1.3-0.3-1.8-0.4-2.5c1.3,1.3,1.9,1,3.4,0c1.4-0.9,3.4-1,4.8-1.9c1.8-1.2,4,0.4,5.9-1.3
						c1.3-1.2,3.7-2.2,5.3-1.9c2.7,0.6,4.3-1.7,6.6-1.8c1.4-0.1,3,0.6,3.1,2c0.1,3,0.3,6,0.5,8.9c0,0.6,0.4,1.1,0.5,1.7
						c0.2,1.5,0.4,3.1,0.5,4.6c-0.2,0-0.4,0-0.6-0.1c0.4,0.2,1.1,0.5,1.1,0.7c-0.4,2.5,0.9,5,0.1,7.7c-0.3,1,0.7,2.4,1.2,3.9
						c-0.2,0.3-0.7,0.8-0.9,1.1c0.4,0.6,1,1.3,0.9,1.5c-0.5,0.7-1.2,1.7-1.8,1.7c-1.4,0-2.9-0.7-4.3-0.8c-1.9-0.1-3.9,0.3-5.8,0.3
						c-1,0-2-0.5-3.5-0.9c-1.4,1.2-4.1,1-6.3-0.9c-0.2,0.4-0.3,0.8-0.3,0.7c-1.1,0.1-2,0.1-2.8,0.1c-0.5,0-1.2,0-1.5-0.3
						c-0.9-1.1-1.9-0.6-3-0.4c-0.7,0.1-2.2,1.1-2.1-0.9c0,1.1,0,2.3-0.1,3.8c0.4,0.3,1.3,1,2.5,2c-0.4,0.1-0.6,0.2-0.9,0.3
						c0,0.1-0.1,0.3-0.1,0.4c2.1,0.3,4.3,0.6,6.4,1c0.7,0.1,1.4,0.7,2.1,1c1.3,0.5,2.5,1.7,4.1,0.8c0.2-0.1,0.5-0.1,0.6,0
						c1.7,1.6,4.1,1.1,6,2.2c1,0.6,2.2,0.9,3.3,1.3c0.1-0.2,0.2-0.5,0.2-0.6c1.1,0.4,2.4,1.2,3.7,1.2c3.4-0.1,6.4,1.2,9.4,2.6
						c1.1,0.5,2.5,0.3,3.8,0.5c0.4,0,0.9,0.1,1.3,0.2c-0.4,0.3-0.7,0.5-1.3,0.9c1,0.1,1.9,0.2,2.8,0.4c1.8,0.4,3.7,0.8,5.5,1.1
						c1.7,0.3,3.5,0.4,5.2,0.8c1.5,0.4,2.9,1.2,4.4,1.7c0.8,0.3,1.8,0.3,2.6,0.5c2.4,0.7,4.7,1.4,7.1,2.1c0.4,0.1,0.8,0.3,1.2,0.3
						c1.7-0.3,3.2,0.4,4.6,1.1c1.1,0.5,2,1.2,3.4,2.1c-0.8,2.6-2.4,5.6-2.4,8.5c-0.1,3.2-1.3,5.7-2.6,8.5c0.5,0.1,1,0.1,1.5,0.2
						c-0.1,0.3-0.1,0.5-0.1,0.7c-0.3,0.5-0.9,1.1-0.9,1.6c-0.1,1.5,0,3-1.7,3.8c-0.3,0.2-0.4,1-0.4,1.6c-0.2,1.5-0.2,3.1-0.4,4.6
						c-0.2,1.4-0.6,2.8-0.9,4.2c-0.2,0.8-0.2,1.7-0.3,2.6c-0.5-0.2-0.9-0.4-1.7-0.7c0.3,0.8,0.5,1.3,0.5,1.5
						c-0.7,0.6-1.4,1.2-1.7,1.5c-3.3-2-7-4-10.3-6.4c-2.6-1.9-5.4-3.4-8.1-5.1c-2.6-1.7-5-4.2-7.9-4.9c-2.8-0.7-3.1-3.8-5.7-4.1
						c-0.4,0-0.8-0.1-1.5-0.2c-0.7-0.7-1.7-1.7-3.1-2.9c-1.7,0-8.9-4.5-10.3-6.8c-0.3,0.2-0.6,0.5-0.9,0.7c0.1-0.2,0.2-0.4,0.3-0.5
						c-4.8-1.3-7.7-5.9-12.9-6.7c-0.3,3.1,0.1,6,1.1,8.7c0.5,1.4,1.1,2.7,0.5,4.3c-0.3,0.7,0.1,1.8,0.4,2.6c0.8,2,1.7,3.9,2.5,5.9
						c-1,1.2-1,1.2,0,2.3c0.1,0.1-0.1,0.5-0.1,0.7c0.7,2.1,1.5,4.2,1.4,6.5c0,0.6,0.6,1.2,0.7,1.2c-0.1,2-0.1,3.5-0.1,4.9
						c0,0.1,0.8,0.2,0.9,0.4c0.3,1.1,0.5,2.3,0.8,3.4c0.7,2.8,1.5,5.6,2.3,8.6c-0.2,0-0.7,0-1.2,0c0.9,2.4,2,4.6,2.5,6.9
						c0.5,2.2,0.5,4.5,0.8,7.1c-1.6,0-2.7,0-4-0.1c-1.4,0.5-2.4,2.6-5,1.5c-1-0.4-2.6,1-4,1.4c-2.2,0.6-4.5,1.1-6.7,1.6
						c-2.9,0.8-5.7,1.5-8.6,2.4c-3.6,1.1-7.1,2.3-10.8,3.3c-1.4,0.4-3,0.2-4.5,0.4C934.5,673.1,934.1,673.5,933.8,673.7z"/>
				</g>
				<g>
					<path class="st1" d="M1177.2,579c-1.1-0.6-1.8-1.4-2.3-1.3c-1.4,0.2-1.9-0.5-2.6-1.5c-0.4-0.7-1.3-1.1-1.5-1.3
						c-2.1-1-4.2-1.4-4.8-2.6c-0.8-1.5-2.3-1.4-3.3-2.1c-2.9-2.2-7-2.9-9.6-5.4c-3.2-3-7.2-4.1-10.8-6.3c-0.5-0.3-0.6-1.2-1-2
						c-0.2,0.1-0.6,0.3-1,0.5c-0.2-0.6-0.4-1.8-0.7-1.8c-2.8-0.2-4.3-2.9-7-3.3c-1.1-0.2-2.1-1.3-3.1-2c-0.6-0.4-1.2-0.7-1.8-1.1
						c-1.2-0.8-2.4-1.7-3.7-2.4c-1.3-0.7-2.7-1.2-4-1.9c-2-1.2-3.9-2.5-4.9-4.7c0.3-0.1,0.7-0.2,1.2-0.5c-1.6-1.1-1.5-2.1-0.5-3.6
						c0.8-1.3,1-3.1,1.2-4.6c0.3-2,0.2-4.1,0.6-6.2c0.2-1.3,1.1-2.5,1.5-3.8c0.2-0.6,0.1-1.4,0-2.1c0.3-3.2,0.7-6.4,1.1-10.2
						c0.5,1,0.7,1.5,1,2.1c0.2-0.5,0.4-0.7,0.3-0.9c-1.2-2.3,0.4-4.7-0.2-7c-0.1-0.3,0-0.8,0.3-0.9c3.3-2.3,0.4-5.5,1.7-8.3
						c-0.1,0,0.3,0,0.9,0c0-2.4-0.9-5.6,0.3-7.2c1.5-2,0.6-3.9,1.2-5.8c0.7-2.1,1.2-4.2,1.6-6.3c0.2-1-0.2-2-0.2-3
						c0.1-1.4,0.3-2.7,0.6-4.3c0.3-0.1,0.9-0.1,1.1-0.2c0.1-1.2,0.4-2.1,0.3-3c-0.3-1.6-0.1-3.2,0.3-4.8c0.7-2.8,3-6,2.2-8.2
						c-1.4-3.8,1.6-6.3,1.3-9.7c-0.2-2.6,1.3-5.3,1.8-8c0.3-1.6,0.2-3.2,0.4-4.8c0.1-1.2,0.4-2.4,0.6-4c0.1-1.3,0-3.1,0.3-4.8
						c0.2-1.2,0.9-2.4,1.4-3.5c0.5-1.1,0-2.2,0-3.2c0-2.1,1.2-4.2,1.7-5.7c0.1-2.3,0-4.2,0.3-6c0.4-2,1.4-3.9,2.1-5.9
						c0.1-0.4-0.1-1-0.2-2c0.1-0.1,0.5-0.6,1.2-1.4c-0.6,0.2-0.9,0.3-1.2,0.5c0.2-0.7,0.3-1.4,0.6-2.4c0.1-1,0-2.5,0.3-3.8
						c0.4-2.1,1.2-4.1,1.4-6.2c0.1-0.9-0.8-2-1.3-3.1c-2.5-0.2-4.2,1.6-6.3,2.8c-1.3,0.8-2.9,0.8-4.2,1.5c-1.2,0.6-2.2,1.4-3.2,2.3
						c-1,1-1.6,1.3-1.9,0.1c-1.9,1.3-3.7,2.6-5.5,3.8c-1.3,0.8-2.8,1.4-4.2,2.1c-1.8,0.9-3.7,1.8-5.5,2.7c-1.9,1-3.7,2-5.5,3.1
						c-1.4,0.8-2.4,1.1-3.6-0.5c-1.9-2.5-3-5-3-8.3c0-2.8-1.4-5.6-1.6-8.5c-0.3-3.4-2.2-6.4-1.8-10c0.2-1.7-1.5-3.6-2.1-5.5
						c-0.3-0.9,0.1-2,0.1-3c0-1.1-0.1-2.2-0.4-3.2c-0.9-3.5-2.1-7-2.9-10.5c-0.5-2.1-1.2-4.1-0.6-6.5c0.5-1.9,1.6-3.1,3.8-2.8
						c1.2,0.2,2.5,0.4,3.8,0.3c-0.3-0.1-0.5-0.2-0.8-0.3c0-0.2,0-0.4,0.1-0.6c1.6,0.1,3.2,0.2,4.8,0.3c2.5-0.9,5.4-1.2,8.3-0.9
						c0.1,0,0.2,0.1,0.2,0.1c2.2-0.6,4.5-0.4,6.7-0.7c2.3-0.4,4.6-1,7.1-1c2.1,0,4.1-0.7,6.2-1c1-0.2,2-0.2,2.9-0.2
						c2.8,0,3.4-1,3.1-3.7c-0.2-2-0.2-3.8-2.2-4.9c-0.3-0.2-0.5-1-0.4-1.6c0.1-1.2-0.2-1.9-1.1-2.8c-0.9-0.8-1-2.5-1.7-3.5
						c-0.5-0.7-1-1.3-1.4-2c-0.3-0.5-0.6-1-0.7-1.5c-0.3-0.8-0.3-1.7-0.6-2.4c-0.5-1.1-1.2-2-1.9-3c-0.2-0.3-0.7-0.4-0.7-0.6
						c0.1-2.6-1.8-4.1-2.7-6c-0.1-0.6-0.2-1.3-0.5-1.9c-0.2-0.4-1-0.6-1-0.9c0.3-3.1-2.9-4.2-3.7-6.8c-0.8-2.7-2.7-5.2-4.2-7.8
						c0.5-0.3,0.8-0.5,1.3-0.8c-1-0.9-2-1.8-2.9-2.6c0.1-0.7,0.2-1.6,0.3-2.8c1-0.5,2.4-1.2,3.8-1.9c2.8-0.4,5.7-0.9,8.8-1.3
						c0-0.1-0.1-0.5-0.2-1c2.9,0.6,5.5,0.6,7.8-1.6c1.2,1.3,2.4,0.2,3.7-0.1c0.4-0.1,1.1-0.5,1.2-0.4c0.9,1.3,2.4,0.2,2.7-0.1
						c1.1-1,2.3-0.4,3.3-0.7c1.2-0.3,2.4-1,3.6-1.3c0.6-0.2,1.2,0.1,1.8,0.1c0-0.4,0.1-0.7,0.1-1.4c0.7,0.4,1.2,0.7,1.8,1.1
						c-0.1-0.2-0.1-0.4-0.2-0.6c1.1-0.3,2.1-0.5,3.2-0.8c0.7-0.2,1.5-0.4,2.2-0.7c0.4-0.1,0.9-0.7,1-0.6c1.7,1.4,2.8-0.9,4-0.7
						c0.9,0.5,1.5,0.8,2.1,1.1c0-0.5-0.1-0.9-0.1-1.6c0.5,0.2,1,0.5,1,0.5c1.9-0.6,3.5-1.1,5.4-1.6c0,0.3,0,0.7,0,1.2
						c0.5,0,1.1,0,1.7,0c0.1,0.3,0.1,0.4,0.1,0.5c-0.5,1.7-0.8,3.3-0.6,5.1c0.1,1.9-1.2,3.8-1.2,5.8c0,1.3,0.7,2.6-0.6,3.1
						c0,1.4-0.1,2.6-0.1,3.7c-0.1,1.2-0.2,2.4-0.2,3.7c0,0.3,0.1,0.8,0,0.9c-2.8,0.9-0.4,1.7-0.2,2c-0.6,1.1-1.3,1.8-1.3,2.6
						c0,0.8,1,2,0.7,2.3c-1.7,1.8-0.6,4.1-1.1,6c-0.3,1.2-1,2.5-0.5,3.9c0.3,0.7,0.1,1.8-0.3,2.4c-1.6,2.3-0.6,4.7-0.5,7
						c0,0.5,0,0.9,0,1.7c-0.4-0.5-0.6-0.8-0.8-1c-0.2,0-0.4,0-0.6,0c0.2,1.8,0.8,3.6,0.4,5.2c-0.4,1.7-1.8,3.1-2.8,4.8
						c-4.4,1.6-9,3.4-13.7,5.1c0,0.1,0,0.2,0.1,0.3c2.9-0.1,5.8-0.2,8.7-0.2c0.3,0,0.6,0.7,0.6,0.7c2.1-0.3,4.1-0.7,6.1-0.9
						c2.7-0.2,5.4-0.1,8.1-0.4c0.9-0.1,1.8-1,2.9-1.6c0,0.6,0,0.9-0.1,1.4c1.2-2,3.1-0.7,4.7-0.9c1.8-0.3,3.7-0.1,5.5-0.3
						c1.2-0.2,2.3-0.9,3.5-1c2.1-0.2,4.2-0.1,6.2-0.3c1.4-0.1,2.8-0.4,4.1-0.6c0.7-1.2,1.6-2.6,2.4-4c0.5-1,1.5-1.9,0.2-3.2
						c-0.4-0.5,0-1.7,0.1-2.6c0.1-0.9,0.4-1.8,0.5-2.8c0.1-1.2-0.1-2.3,0-3.5c0.2-2.7,0.4-5.5,0.8-8.2c0.2-1.8,0.7-3.5,0-5.4
						c-0.4-1.2,0.8-2.2,0.9-3.6c0.2-2.3-2.2-4.7,0.3-6.8c0,0-0.2-0.4-0.3-0.5c-0.5-0.9-0.5-1.1,0.7-1.5c-0.9-1.4-1.3-2.7,0.1-3.1
						c-0.1-1.2-0.4-2.2-0.1-2.9c1-2.2,0.7-4.3,0.5-6.6c-0.2-2.6,0.2-5.2,0.6-7.8c0.1-0.9,1.1-1.7,1.9-2.8c0.2,0.6,0.2,0.9,0.4,1.4
						c1.4-0.9,2.7-1.9,4.2-2.6c1-0.4,2.3-0.1,3.4-0.3c0.9-0.1,1.7-0.5,2.6-0.9c0.4-0.1,0.9-0.5,1-0.4c1.9,1.5,2.5-0.2,3.3-0.9
						c1.3-0.3,2.6-0.7,3.9-0.7c1,0,2.5,0.4,2.8,1.1c1.2,2.3,2.1,4.8,3,7.3c0.3,0.9,0.3,2,0.6,3c0.2,0.7,0.3,1.6,0.8,1.9
						c1,0.8,2,1.4,0.9,2.8c-0.1,0.1,0.7,0.6,0.7,0.9c0,0.2-0.5,0.5-0.6,0.6c0.8,0.7,1.5,1.4,2.3,2.1c-0.3,0.2-0.6,0.4-0.9,0.7
						c0.1,0.1,0.2,0.4,0.3,0.4c1.8-0.1,3.5-0.2,5.3-0.4c0.5-0.1,1.1-0.8,1.2-1.3c0.8-2.5,3.2-1.8,4.1-2.3c0.9-1.3,1.3-2.3,2.1-2.9
						c1-0.7,2.4-0.8,3.5-1.5c2-1.2,3.9-2.6,5.8-3.9c0.6-0.4,1.3-0.8,1.9-1.1c1.6-0.9,3.1-1.8,4.6-2.7c-0.2-0.3-0.4-0.5-0.7-0.9
						c1.5-0.7,2.9-1.2,4.2-1.8c0.3-0.1,0.7-0.2,0.9-0.5c0.3-0.3,0.3-0.8,0.6-1c2-1,4.7-1.5,6-3.1c1.2-1.6,3.3-1.9,4.3-3.8
						c0.5-1,2.5-1.1,3.6-1.9c2.9-1.8,5.7-3.9,8.6-5.7c2-1.2,4.3-2,6.7-3c-0.6-0.3-1.1-0.6-1.6-0.9c2.6-1.5,5.2-2.9,7.7-4.4
						c1-0.6,1.9-1.5,2.8-2.3c0.1-0.1,0.1-0.3,0.1-0.3c3.8-0.6,5.9-3.7,8.8-5.6c1.2-0.8,2.8-1.2,4.1-1.9c0.3-0.2,0.7-0.5,0.9-0.8
						c1-1.6,2.5-1.4,3.3-0.4c2,2.8,5.2,4.9,5.3,9c0,1.6,1.4,3.1,2.1,4.7c0.5,1.1,1,2.2,1.5,3.5c1.3,0,2.3,1.7,2,4.5
						c0.7,0.2,1.4,0.5,2.3,0.7c-0.5,0.7-0.8,1.2-1.1,1.6c1.1,2.2,3.8,3.3,3.2,5.6c0.9,1.1,1.7,1.8,2.1,2.7c1.1,2.5,1.5,5.4,3,7.6
						c1.4,2,1.8,4.3,3.4,6.1c0.5,0.5,0.4,1.6,0.5,2.1c0.7,0.8,1.3,1.4,1.9,2.1c-0.7,0.6-1.4,1.5-2.2,1.7c-3.8,0.5-7.4,2-11.5,2
						c-3.5,0-7,2.3-10.4,2c-3.1-0.3-5.8,2.4-8.8,0.5c-0.4-0.3-1.4,0.3-2.1,0.5c-2.6,0.7-5.3,1.6-7.9,2.2c-0.7,0.1-1.3-0.6-2.3-0.2
						c-0.8,0.3-2.1-0.5-3-0.2c-1.5,0.5-3,0.7-4.3,1c-2.1,0.5-4.4,0.6-6.4,1.6c-0.5,0.3-1.6,0.4-1.9,0.1c-1.4-1.4-2.6-0.2-3.7,0.2
						c-1.7,0.7-3.3,2.1-5.1,0.3c-0.1-0.1-0.5,0.2-0.8,0.3c-0.9,0.4-2.2,1.5-2.6,1.2c-1.9-1.4-3.7,0.1-5.5,0.2
						c-0.9,0-1.9,2.3-2.3-0.1c-0.6,0.5-0.9,1.2-1.4,1.3c-2.1,0.5-4.1,1-6.2,1.2c-1,0.1-2-0.5-3-0.4c-1.8,0.3-3.6,0.8-5.4,1.3
						c-0.5,0.1-0.9,0.2-1.4,0.3c-2.5,0.3-5,0.4-7.5,0.8c-1.2,0.2-2.3,1.1-3.8,1.8c1.5,5.4,3,10.7,4.4,16c-0.1,0-0.1,0-0.2,0
						c0.2,0.5,0.4,1.1,0.6,1.6c0.6,1.2,1.7,2.5,1.6,3.6c-0.2,2.3,3.1,3.8,1.4,6.4c-0.2,0.4,0.5,1.4,0.9,2.1c0.7,1.5,1.5,3,2,4.7
						c-3.4-1.1-5.8,3.8-9.1,0.9c-3.1,2-8.4,2.9-9.6,1.8c-4.8,2.8-10.5,1-15.2,3.4c0.8,2-0.7,4.6-2.8,5.5c-2.4,1-4.7,2.5-6.9,3.8
						c-0.6,0.4-1.2,1.1-1.8,1.2c-1.2,0.2-2.2,0.4-3.1,1.4c-1.2,1.3-2.9,2.2-4.5,3.1c-0.4,0.2-1.2-0.2-2-0.5c-0.7,2.4-3,3-5.3,3.4
						c-0.3,0.1-0.5,0.5-0.8,0.7c-0.4,0.3-0.8,1.1-1,1c-1.4-0.4-2.2-0.4-2.7,1.3c-0.1,0.4-1.7,0.3-2.4,0.7c-1.8,1-3.3,2.2-5.5,2.8
						c-2.2,0.5-4.9,2.3-5.6,5c-0.5,2,0.1,4.3,0.2,6.5c0,0.9,0,1.8,0,2.7c0,0.6,0.2,1.2,0.3,1.8c0,0.7-0.1,1.4,0,2c0.1,2,0.7,3.9,0,6
						c-0.5,1.5,0.2,3.3,0.2,5c0,1.1-0.2,2.2-0.2,3.4c0.3,0,0.7,0.1,1.3,0.1c-0.3,0.8-0.8,1.5-0.7,2.1c0.1,2.4,0.4,4.8,0.6,7.1
						c0.1,1.6,0.3,3.2,0.3,4.7c-0.1,3-0.3,6.1-0.3,9.1c0,1.2,0.6,2.3,0.6,3.5c0,1.4-0.6,2.7-0.6,4c0,1.6,0.5,3.2,0.7,4.8
						c0,0.5-0.3,1-0.6,1.6c2.9,1.2,1,4,1.6,6.1c0.3,1.1,0.2,2.4,0.1,3.6c-0.1,1.1-0.4,2.1-0.6,3.1c0,0.1,0,0.2,0,0.2
						c1.4,1.8-0.1,3.8,0.3,5.6c0.3,1.7,0.6,3.4,0.6,5.2c0.1,2.2,0.9,2.9,3.1,3.1c1.8,0.1,3.6,0.7,5.4,0.8c2.7,0.1,5.5-0.1,8.2-0.1
						c2.1,0,4.3,0,6.4,0c2.9,0,5.8-0.1,8.7-0.1c1.8,0,3.7,0.3,5.6,0.4c0.9,0.1,1.7,0.3,2.6,0.3c0.8,0,1.7-0.2,2.5-0.3
						c-0.1-0.3-0.2-0.5-0.2-0.6c1.4,0.1,2.8,0.2,4.1,0.3c2,0,3.9-0.1,5.9,0.1c0.6,0,1.4,0.5,1.8,1.1c1.4,2.2,3.6,4.5,3.9,6.9
						c0.4,3.1,3.2,4.6,3.6,7.4c0.1,0.7,0.3,1.5,0.4,2.2c0.4,0,0.9,0,1.6-0.1c-0.2,1.1-0.4,1.9-0.5,2.8c0.1,0,0.5,0,0.6,0.1
						c0.3,3.7,3.5,5.5,4.8,8.3c0.2,0.5,0.5,1,0.7,1.5c0.8,2.3,1.1,5.1,2.5,6.9c1.1,1.4,1.5,2.3,1.2,3.9c0,0.2,0.2,0.6,0.3,0.6
						c3.6,0,1.8,3.8,3.6,5.1c0.5,0.3,0.6,1.2,1.1,2.2c0.1-0.1-0.2,0.2-0.6,0.5c0.2,0.1,0.4,0.2,0.6,0.3c0.4,0.3,1.2,0.6,1.2,0.8
						c-0.2,2.4,0.4,4.4,2.6,5.7c0.5,0.3,0.7,1.2,1,1.9c1.1,2.6,2.5,5,2.4,8.1c0,0.6,0.3,0.7-0.4,1.1c-1.6,0.9-2.9,2.2-4.4,3.2
						c-0.7,0.4-1.7,0.3-2.5,0.7c-0.8,0.5-1.4,1.3-2.2,1.9c-1.1,0.7-2.3,1.3-3.5,1.9c-0.4,0.2-1.2,0.2-1.3,0.4
						c-1.2,3.3-5.2,2.9-7,5.3c-0.1,0.1-0.7-0.2-0.8,0.2c-1,0.6-1.9,1.4-2.9,1.8c-1.8,0.7-1.8,0.6-2.2,2c-1.4-0.1-3.1-0.6-3,1.9
						c0,0.3-0.8,0.7-1.3,1c-1.9,1-3.8,2-5.6,3.1c-2.2,1.4-4.4,2.9-6.8,4.5c-0.5-0.1-1.3-0.2-2.1-0.4c-0.3-3.5-0.8-7.4-0.8-11.2
						c0-2.3,0.6-4.7,0.5-7.1c0.1-0.8,0.2-1.6,0.2-2.3c0-0.5,0-1.1-0.1-1.6c-0.6-1.6-1.2-3.3,0.4-4c-0.2-1.6-0.4-2.9-0.6-4.1
						c0.1,0,0.2-0.1,0.3-0.1c-0.1-0.7-0.4-1.5-0.2-2.1c0.5-1.7,0.4-2.3-0.3-4.3c-0.3-0.8,0-1.8,0-2.7c0-1.1,0-2.2,0.1-3.4
						c0.1,0,0.4-0.1,0.9-0.3c-0.4-0.3-0.8-0.6-1.2-0.9c0.4-0.5,1-0.9,1-1.3c-0.1-2.2-1-4.5-0.5-6.6c0.5-2.7-0.4-5.3,0.3-8.1
						c0.5-2-0.4-4.4-1-6.5c-0.2-0.6-1.5-1.3-2.1-1.3c-1.6,0.2-3.1-1.3-4.9,0.3c-0.9,0.8-3.2,0.2-4.9,0.3c-0.3,0-0.7-0.3-0.9-0.2
						c-3,2.2-6.4,1-9.7,1.1c-0.7,0-1.4,0.8-2.2,1.2c-0.3,0.2-0.9,0.5-1.1,0.3c-1.7-1.1-3.1,0.4-4.7,0.4c-1.5-0.1-3.1,0.6-5.4,0.6
						c-0.1,4.7-0.3,9.3-0.4,14.1c0.3-0.1,0.6-0.1,0.8-0.2c-0.1,3.7-0.1,7.5-0.2,11.5c0.1,0-0.4,0-1.1,0.1c1.8,1.4,2.4,2.7,1.5,4.9
						c-0.6,1.5-0.1,3.5,0,5.2c0.1,2.4,0.1,4.8,0.5,7.2c0.5,2.6,1.3,5.2-0.2,7.8c-0.1,0.2-0.1,0.5,0,0.7c1.1,2.2-0.8,4.9,1.3,7.1
						c0.4,0.4-0.1,1.8-0.2,2.8c-0.1,3.2-0.1,6.5-0.1,9.7c0,1.2-0.1,2.6,0.3,3.7c0.5,1.4,0.4,2.3-0.6,3.3c-0.2,0.2,0,1.1,0.3,1.2
						c1.7,0.9,0.5,1.4-0.1,1.9c0.6,0.6,1.2,1.3,2.2,2.3c-1,0.2-1.5,0.3-1.7,0.4c0.1,1.7,0.2,3.4,0.3,5.1c0.1,1.4,0.3,2.8,0.1,4.2
						c-0.1,0.7-1.1,1.5-1.8,1.6C1178.4,579.7,1177.6,579.1,1177.2,579z"/>
					<path class="st1" d="M1349.2,456.7c0.6,2.1,2.1,4.6,1.8,6.8c-0.4,2.4,1,4.2,0.7,6.3c-0.4,3.4,2.4,6.5,1.2,10.1
						c1.9,2.1-0.9,5,1.4,7.2c0.5,0.5,0,2,0.1,3.1c0.1,1,0.5,1.9,0.7,2.8c0.1,0.8,0,1.5,0,2.4c0.4,1.1,1.6,2.6,1.2,3.6
						c-0.6,1.6,0.2,2.7,0.4,4.1c0.3,1.6-0.3,3.7,0.5,4.8c1.6,2.4-0.2,5.5,2,7.6c0.1,0.1-0.4,1-0.7,1.5c-0.2,0.3-0.5,0.6-1.3,1.3
						c2.4-0.5,2.4,0.3,2.1,1.8c-0.2,1.3,0.7,2.7,0.6,4.1c-0.2,1.6-0.1,3,0.6,4.5c0.4,1,0.5,2.1,0.8,3.4c-0.5-0.1-1.3-0.3-1.3-0.2
						c-1.1,2.7-2.8,1.4-4.7,1.1c-1.9-0.4-4,0.3-6,0.2c-1.5-0.1-3-0.8-4.6-0.8c-1.5,0-3,0.5-4.6,0.8c-0.4,0.1-0.9-0.1-1.4-0.1
						c0.1-0.5,0.2-0.9,0.1-0.8c-2.3,0-4.6,0.1-6.8,0.1c-0.1,0-0.3-0.3-0.3-0.3c-2.2,0.7-4.2-0.1-6.2-0.5c-0.7-0.1-1.4,0.4-2.5,0.3
						c-1.2-0.2-2.5,0-3.9-0.3c-1.8-0.3-3.7,0-5.5,0c-1.3-0.1-2.6-0.4-4.2-0.6c-1.8,1.3-1.9,1.3-2.2-0.4c-5.9,1.2-11.7,0.2-17.3-1
						c-0.1-0.9-0.2-1.8-0.2-2.8c0-1,0.2-2,0.4-2.9c0.2-0.8,1.1-1.5,0.9-2.2c-0.6-3,0.3-5.7,1.4-8.5c0.1-0.4-0.5-1-0.4-1.4
						c0.4-2.4,0.5-5,1.4-7.2c0.8-2-0.3-4.5,1.6-6.1c0.1-0.1,0.2-0.6,0.1-0.7c-1.6-1.7-0.4-3.3-0.1-5.1c0.2-1.6,2.6-3,0.5-4.8
						c2-1.6,0.3-3.9,0.9-5.7c0.4-1.5,0.7-3.1,1.2-4.6c0.9-2.5,0.3-5.1,0.7-7.7c0.1-0.7,1.1-1.3,1.2-1.9c0.4-2.6,0.4-5.3,0.9-7.9
						c0.3-1.7-0.1-3.4,1.1-5.1c0.8-1,0.6-2.8,0.9-4.3c0,0-0.5-0.1-1-0.2c0.2-0.4,0.5-0.8,0.7-1.2c0.3-0.7,1.6-1.2,0.3-2.2
						c-0.3-0.2-0.2-1.7,0.2-2.2c0.9-1.2,0.2-2.4,0.3-3.6c0.2-1.4,1.6-2.2,1.4-4c-0.4-4.8,1.8-9.5,1-14.4c0-0.1,0.5-0.4-0.2-0.1
						c-1.2,0.1-2.5,0.1-3.7,0.2c0.3-0.6,0.7-1.1,1-1.7c-3.1-0.2-6.2-0.4-9.3-0.6c-0.4,0-0.9,0.2-1.3,0.1c-1.1-0.2-2.4,0.4-3-1.2
						c-0.1-0.2-0.7-0.3-1.1-0.3c-3,0.1-5.9,0.3-8.9,0.4c-0.5,0-1-0.7-1.6-0.8c-0.6-0.2-1.3-0.1-2.1,0.2c-1.9-1.6-3.1-3.5-2.9-6.4
						c0.1-1.4-0.8-2.8-1.3-4.4c1.2-0.1,2.9,1.5,2.7-1.1c0-0.2,0.6-0.4,1-0.6c1.4-0.4,2.8-0.9,4.3-1.2c1.6-0.3,3.2-0.9,4.8-0.7
						c1.2,0.2,1.3-0.6,1.8-0.8c1.7-0.8,3.7-1,5.5-1.5c0.2-0.1,0.6,0.3,1,0.5c0-0.5,0-0.9,0-1.4c1.2,0.2,2.4,0.4,3.7,0.6
						c0-0.4,0-0.9,0.1-1.6c0.8,0.5,1.3,0.8,1.9,1.2c0.4-0.7,0.8-1.3,0.8-1.4c2-0.4,3.6-0.6,5.1-1c1.5-0.4,2.9-1,4.3-1.6
						c0.1,0.2,0.2,0.4,0.3,0.6c1.1-2.1,2.2-4.2,3.4-6.5c-0.2-0.6-0.6-1.7-1-3.3c0.9,0.3,1.4,0.4,1.9,0.6c-1-2.6-1.5-5,0.8-7.2
						c-2.1-1-0.4-2.7-0.3-4.2c0.2-2.3,0-5.3,1.3-6.6c2.9-2.9-1.6-5-0.2-7.4c0-0.1-0.5-0.5-0.8,0c-0.9,0.1-1.7,0.1-2.1,0.1
						c-1.2,0.5-2.1,0.7-2.9,1.1c-0.6,0.3-1,0.7-1.5,1c-0.7,0.4-1.3,0.7-2,1c-0.3,0.1-0.8,0.1-0.9,0.2c-1.1,2.5-3.4,2.1-5.5,2.4
						c-0.4,0-1,0.1-1,0.3c-0.7,3-2.7,1.8-4.4,1.4c-0.2-0.1-0.5,0.2-0.7,0.2c-0.5-0.1-1.1-0.1-1.4-0.4c-0.8-0.9-1.5-1.9-2.1-3
						c-0.2-0.5,0-1.1,0-1.1c-1.2-2.3-2.4-4.1-3.2-6c-0.7-1.6-2.9-2.4-2.2-5.2c-0.6,0.9-0.8,1.3-0.9,1.4c-0.8-1.2-1.7-2.5-2.9-4.2
						c-0.2,2.2-0.3,3.7-0.4,5.3c0.1,0.7,0.6,1.6,0.3,2c-0.7,1-1.9,1.6,0.2,2.5c0.5,0.2,0.9,1.9,0.6,2.7c-1.2,3.4,1.7,6.4,0.7,9.8
						c-0.1,0.2,1.2,1.2,0.3,1.5c0.1,1.5,0.2,2.7,0.3,4c-0.2,0-0.5,0-0.7,0c-0.2-0.4-0.3-1-0.5-1c-1.1-0.1-2.2,0.1-3.2-0.2
						c-1.2-0.3-2.2-0.9-3.4-1.3c-0.8-0.3-1.6-0.6-2.4-0.9c-1.2-0.5-2.4-1.1-3.7-1.5c-1.1-0.4-2.4-0.4-3.5-0.9
						c-1.9-0.8-3.2-3-5.7-2.2c-2.4-3.1-6.2-2.5-9.4-3.6c-1.9-0.7-3.6-2.1-5.9-3.5c3.2-4.9,6.2-9.8,9.3-14.6c-0.1,0-0.1-0.1-0.2-0.1
						c0.6-1.2,1.1-2.6,1.9-3.7c1.7-2.2,3.7-4.2,5.3-6.5c1-1.5,1-4.1,2.3-4.8c2.7-1.6,0.7-5.9,4.4-6.7c0.6-0.1,1.1-1.9,1.1-2.9
						c-0.1-1.8,0.8-1.8,1.8-1.7c0.7-1.6,1.3-3,2.1-4.9c0.8,0.1,1.9,0.2,3,0.2c-0.3,0.3-0.6,0.7-0.9,1c2.3,0.9,1.2,3.3,1.6,5.1
						c0.6,2.5,0.9,5,1.3,7.5c0.4,2.5,2.7,2,4.1,2.3c2.1,0.4,4.6,0.4,6.5-0.5c2.7-1.2,5.5,0.8,8-0.7c0.6-0.3,1.3-0.4,2.1-0.6
						c0.8,1.1,1.7,1.1,3.2,0.4c1.3-0.6,3.2-0.1,4.8-0.1c0.4,0,0.8-0.3,1.6-0.6c-0.1-0.1,0.4,0.2,0.9,0.6c0.3-0.4,0.7-0.9,1.1-1.3
						c0,0.2,0.1,0.5,0.1,0.7c2.7-0.3,5.3-0.5,7.9-0.8c-0.1,0.1-0.3,0.4-0.4,0.6c2.3-0.3,4.5-0.5,6.8-0.8c0.4-0.1,0.7-0.4,1.1-0.6
						c0.3-0.2,0.9-0.5,1-0.4c1.9,2.1,3.4-0.3,5.1-0.4c1.4-0.1,2.9,0,4.3,0.2c2-0.2,4-0.4,5.9-0.6c4.5-0.5,9-0.9,13.6-1.4
						c1.9-0.2,5.1,1.9,5.4,4.1c0.2,1.8,1,2.2,2.9,2c-0.6,0.7-1,1.1-1.1,1.2c0.3,0.5,0.9,1,0.8,1.3c-0.5,2.1-4.5,4.1-7.3,3.4
						c-0.1,3.1-3.3,3.4-4.8,3.2c-2.1-0.3-2.7,1.3-3.7,1.9c-1.8,1.1-3.3,2.4-5.7,2.3c-0.8,0-1.6,1.1-2.4,1.6
						c-0.8,0.5-1.6,0.9-2.4,1.3c-0.3,1.6-0.6,3.3-1,5.6c0.8,1.2,2.3,2.7,0.9,5.3c-0.6,1.1,0.8,3.2,1,4.9c0.4,3.4,0.6,6.7,1,10.1
						c0.3,2.5,0.7,4.9,1.2,7.4c0.4,1.8,2.2,2.4,3.5,2.3c2.4-0.2,4.8-0.9,7.2-1.6c1.8-0.5,3.5-1.1,5.2-1.7c1.7-0.5,3.4-0.8,5-1.3
						c2-0.7,3.9-1.6,5.9-2.2c0.5-0.1,1.2,0.4,1.5,0.3c2.5-0.5,4.9-0.9,7.5-1.4c0.2,0.7,0.6,1.8,1.7,0.6c0.4,1.3,1,2.7,1.3,4.1
						c0.3,1.9,0.3,3.8,0.5,5.7c0,0.3,0.2,0.7,0.2,1c0.1,0.6,0.5,1.4,0.3,1.7c-1,1.3-0.8,2.5,0.1,3.7c1.5,2.1,0.1,4.5,0.7,6.7
						c0.1,0.5,0.3,0.9,0.6,1.3c0.1,0.2,0.6,0.5,0.5,0.6c-1,2.3,2,4.7-0.2,7.2c-0.4,0.5,0.7,2.2,1,3.4c0.6,3,1.9,6,1.2,9.1
						c-0.3,1.4,0.5,1.8,1.1,2.1c0.8,0.4,1.9,0.3,2.8,0.2c1.1-0.1,2.3-0.6,3.4-0.6c1.2-0.1,2.5,0.1,3.7,0.3c2.1,0.3,4.2-0.6,6.3,0.6
						c1.6,0.9,3.6,0.9,5.4,1.4c1.7,0.5,3.4,1.1,5.2,1.7c-0.1,0.4-0.2,0.8-0.2,1.3c3.2-0.9,13.1,8.5,12.2,10.8c0.5,0,1.2,0,1.2,0.1
						c0.5,3.4,4.2,5.2,4.4,8.5c0.1,2,1,3.4,1.4,5.1c0.5,2,0.1,4.3,0,6.4c0,1.5-0.2,2.9-0.3,4.4c0.2,0,0.5,0.1,0.7,0.1
						c-0.4,0.3-0.9,0.7-1.4,1c0.6,1.3,1.3,2.5-0.5,3.7c-0.7,0.5-0.8,2-1,3.1c-0.6,2.9-1,5.8-4,7.5c-0.9,0.5-1.5,1.5-2,2.5
						c-1.4,3-4.2,4.3-6.8,6c-1.2,0.8-2.1,1.9-3.2,2.7c-1.2,0.9-2.6,2.4-3.7,2.2c-1.8-0.2-3,2-4.9,0.7c-0.3-0.2-1.4,0.7-2.1,1
						c-1.4,0.6-2.8,0.5-4.3,0.2c-1-0.2-2.1,0.5-3.1,0.5c-0.9,0-1.8-0.5-2.6-0.6c-1.8-0.2-3.8,0-5.4-0.6c-3.7-1.3-7.7-1.9-10.7-4.8
						c-1.5-1.5-3.5-2.5-5.1-4c-2-1.8-4.2-3.7-5.4-6c-1.6-3-2.2-6.6-3.4-9.9c-0.3-0.8-1-1.4-1.6-2.2c0-1.6,0.2-3.4,0.1-5.3
						c-0.1-1.1-0.6-2.1-0.8-3.1c-0.1-1-0.2-2.2,0-3.2c0.3-1.7,0.9-3.3,1.3-5c0.4-1.7,0.8-3.4,1.2-5.1c1.3-5,5-8.4,7.9-12.4
						c2.8,1,2.3-3.7,5.3-3.1c0.7,0.1,1.9-2.3,3-3.3c0.8-0.7,1.9-1,2.8-1.5c-2.1-0.8-4.1-1.5-6.1-2.3c-2.6,1.4-5.4-0.6-8.5-0.2
						c-1,1.2-1,1.2-2.8-0.6c-1.6,0-2.7,0.1-3.7,0.1c-0.6,0-1.3-0.1-1.9-0.1c-0.9,0-2,0.8-2.6-0.7c-0.1-0.2-1.3,0.1-2.6,0.3
						c0,0-0.6-0.5-0.9-0.7c-2.6,0.8-5.3,1.3-5.2,4.5c0.2,0.8,0.6,1.6,0.7,2.5c0.3,1.8,0.5,3.6,0.8,5.3c0.2,1.1,1.6,2.2-0.1,3.2
						c0.9,0.4-1.4,1.8,0.7,2.1c0.5,0.1,1,1.8,0.9,2.7c-0.2,3.1,0.4,6,1.2,8.9C1349.6,454.2,1349.3,455.3,1349.2,456.7z"/>
				</g>
			</g>
		</g>
		<g>
			<path class="st1" d="M739.5,249.6c-1.8-0.7-3.8-2.2-5.2-4.4c-1.7-2.6-2.7-5.6-3.2-8.7c-0.6-3.2-0.8-6.6-0.6-10
				c0.2-3.6,1.1-6.8,2.1-10c1-3.2,2.5-5.8,4.6-8.5c1.9-2.2,4.2-3.6,6.7-4.6c2.2-1,5-1.5,7.7-1.3c2.1,0.3,4,1,5.9,2
				c1.7,1,3.4,2.5,4.8,4.4l0.2,1.4l-2.5,9.2h-0.5c-1.6-1-3.6-1.4-5.6-1.4c-2.5,0.2-4.6,1.4-6.3,3.6l-0.5,1.2h0.9
				c1.5-0.5,3.2-0.7,4.8-0.5c2.8,0.7,5.2,2.4,7.3,5.1c2.1,3.2,3.2,6.5,2.9,10.7c-0.2,3.7-1.4,7.1-4,9.8c-1.8,1.7-4,2.9-6.3,3.4
				c-2.3,0.5-4.8,0.7-7.5,0.5C743.3,251.3,741.4,250.6,739.5,249.6z M753.7,238.2l0.2-2l-1.2-2.7c-1.1-0.7-2.1-1.2-3.2-1.2l-2.7,1.7
				L746,237l1,2.5c1.3,1,2.7,1.2,4.2,1l1.3-0.7L753.7,238.2z"/>
			<path class="st1" d="M778.1,249.6c-1.8-0.7-3.8-2.2-5.2-4.4c-1.7-2.6-2.7-5.6-3.2-8.7c-0.6-3.2-0.8-6.6-0.6-10
				c0.2-3.6,1.1-6.8,2.1-10c1-3.2,2.5-5.8,4.6-8.5c1.9-2.2,4.2-3.6,6.7-4.6c2.2-1,5-1.5,7.7-1.3c2.1,0.3,4,1,5.9,2
				c1.7,1,3.4,2.5,4.8,4.4l0.2,1.4l-2.5,9.2h-0.5c-1.6-1-3.6-1.4-5.6-1.4c-2.5,0.2-4.6,1.4-6.3,3.6l-0.5,1.2h0.9
				c1.5-0.5,3.2-0.7,4.8-0.5c2.8,0.7,5.2,2.4,7.3,5.1c2.1,3.2,3.2,6.5,2.9,10.7c-0.2,3.7-1.4,7.1-4,9.8c-1.8,1.7-4,2.9-6.3,3.4
				c-2.3,0.5-4.8,0.7-7.5,0.5C781.8,251.3,780,250.6,778.1,249.6z M792.3,238.2l0.2-2l-1.2-2.7c-1.1-0.7-2.1-1.2-3.2-1.2l-2.7,1.7
				l-0.9,2.9l1,2.5c1.3,1,2.7,1.2,4.2,1l1.3-0.7L792.3,238.2z"/>
			<path class="st1" d="M817.8,230.5h-11.2v-1l0.7-12.6l9.8-0.7l0.6-9.7h2.8l7.8,0.2v6.8l-0.2,2.6h9.6l0.8,12.9h-11.1l-0.3,19.9
				l-9.4,1V230.5z"/>
			<path class="st1" d="M844.7,245.8l-1.3-42.6l1.8-0.2l11.8,0.7V221h0.5c1.6-1.5,3.2-2.5,4.9-3.2c1.9-0.5,3.9-0.7,5.9-0.7
				c3.2,0.2,5.9,1.7,8.4,4.4c2.2,2.7,3.6,5.9,4.3,9.2c0.6,3.4,1,7.1,0.6,10.7l-1.1,9.5l-10.7,0.5v-0.5c0.7-3.2,1.1-6.6,1.1-10.2
				c0.2-3.4-0.7-6.3-2.8-9c-1.3-1-2.9-1.2-4.9-1c-1.6,0.5-3.2,1.5-4.5,2.7l-1,1.7v15.1l-13.1,1.2V245.8z"/>
			<path class="st1" d="M921.5,247.6c-2-1-4-2.2-6-3.9v-0.5l4.7-8.5h0.4c1.6,1.2,3.4,2,5.4,2l1.3-2.2c-1.3-1.7-2.9-2.9-4.7-4.1
				c-2.1-1-3.6-2.5-4.8-4.4c-0.6-1.7-0.9-3.6-0.6-5.8c0.4-3.4,2-6.3,4.5-8.8c2.9-2.2,6.5-3.2,10.7-2.6c2.4,0.5,4.7,1.2,6.9,2
				c2,0.7,4.2,1.7,6.4,2.9v1l-2.1,9.2h-0.6c-2.5-1.7-5.2-2.6-8.1-2.6l-1.5,1.7l-0.2,3.4c1.1,2.2,2.9,3.6,4.9,4.6
				c2.1,1,3.6,2.5,4.8,4.6l0.7,4.1c-0.2,2.6-1.4,5.1-2.9,7.1c-1.6,1.7-3.7,2.6-5.7,2.9c-2,0.2-4.2,0.5-6.5,0.2
				C925.8,249.5,923.5,248.8,921.5,247.6z"/>
			<path class="st1" d="M962,230.5h-11.2v-1l0.7-12.6l9.8-0.7l0.6-9.7h2.8l7.8,0.2v6.8l-0.2,2.6h9.6l0.8,12.9h-11.1l-0.3,19.9
				l-9.4,1V230.5z"/>
			<path class="st1" d="M1011,246h-0.5c-2,1-3.8,1.7-5.7,2.2c-2.2,0.5-4.4,0.7-6.5,0.7c-3.1,0-5.6-1.2-7.9-3.9
				c-1.7-2.9-2.3-6.3-2.1-10.2c0.2-2.6,1.5-5.1,3.6-7.1c1.6-1.4,3.8-2.4,6-2.6c2.1-0.3,4.2-0.5,6.4-0.3l5.8,0.5v-0.5
				c-0.7-1.4-2-2.4-3.4-2.9l-5.3-1h-13.3v-2l1.3-10c3.6-0.5,7.5-0.7,11.2-0.5c3.8,0.3,7.4,1,11,2c3.6,1.3,6.7,3.2,9.5,6.1
				c2,4.6,2.9,9.8,3.1,15.3c0,5.6,0,11.2,0.3,16.5l-13.7,1.5V246z M1010.6,238.5l-0.5-6.1l-2.9-0.5l-2.6,1.5l-0.5,3.2l0.7,1.7
				c1.1,0.7,2.8,1.3,4.5,1l1.2-0.2V238.5z"/>
			<path class="st1" d="M1038.1,260.2c-1.8-0.9-3.5-2.2-5-4c-1.3-1.5-1.8-3.1-2.1-4.8l10.7-4.6c1,1.5,2.5,2.6,4,3.3h2.3
				c1.3-0.6,2.1-1.5,2.7-2.6c0.7-1.5,0.9-3.5,0.7-5.5h-0.7c-3.1,1.1-6.5,1.5-10,1.8c-3.4,0-6.1-1.1-8.4-3.6c-1.9-3-2.7-6.6-2.5-10.6
				c0.2-2,0.6-4,1.3-5.7c0.6-1.5,1.7-3.1,3.1-4.6c2.4-2.4,5.4-3.3,9-2.9c2.8,0.7,5,1.8,7.3,3.3v-0.9l-0.3-2.6l11.9-0.6l0.9,8.4v17.8
				c-0.2,3.1-0.4,6.2-1.1,9.1c-0.6,2.9-2.2,5.5-4.6,7.5c-1.8,1.5-3.7,2.6-6,3.3c-2.3,0.7-4.9,0.9-7.3,0.7
				C1041.7,262,1039.8,261.3,1038.1,260.2z M1051.1,229.8l-0.7-1.3c-1-0.9-2.1-1.4-3.5-1.1l-2.5,1.8l-0.6,3.7l0.6,1.8
				c1,0.7,2.3,0.9,3.8,0.7l2.2-0.9C1051.1,232.8,1051.4,231.3,1051.1,229.8z"/>
			<path class="st1" d="M1072.3,247.5c-2-2.6-2.9-5.8-3.6-9.2c-0.6-3.4-0.7-7-0.7-10.7c0.2-2.2,0.7-4.1,1.8-6.1
				c0.9-1.7,1.9-3.4,3.4-5.1c2.3-2.2,4.6-3.9,7.3-4.9c2.6-1,5.3-1.2,8.4-1c1.9,0.3,3.8,1,5.6,1.7c1.7,0.7,3.4,2,4.9,3.7
				c1.9,2.9,3,6.3,2.7,10.2l-0.6,3.8l-21.9,6.8v0.5c0.6,1.3,1.7,2.2,2.8,2.7l5,0.5c2.2-0.3,4.2-1,6.1-1.7c2-0.7,4-1.5,5.9-2.2
				l1.7,11.4c-3.2,1.7-6.4,3.2-9.7,3.9c-3.6,0.7-7.1,1.2-11,1C1077.3,252.3,1074.6,250.7,1072.3,247.5z M1085.4,220.5
				c-1.8,0.5-3.3,1.5-4.4,2.7c-1.1,1.7-1.8,3.4-2,5.6h1l12.4-4.4C1090.6,221.7,1088.2,220.3,1085.4,220.5z"/>
		</g>
	</g>
</g>
</svg>
