<svg id="レイヤー_1" data-name="レイヤー 1" xmlns="http://www.w3.org/2000/svg" viewBox="0 0 850.39 850.39"><defs><style>.cls-1{fill:#d14292;}.cls-2{fill:#fff;}.cls-3{fill:#040000;}</style></defs><title>logo_FINAL_ol</title><rect class="cls-1" width="850.39" height="850.39"/><path class="cls-2" d="M210,272.56c0,14.42-11,18.79-18,18.79-11.88,0-16.8-10.11-17.48-15.25-.75-5.64-.7-15.86,1.64-23.82,6-20.5,20.75-25.4,25.68-25.39a1.67,1.67,0,0,1,1.75,1.65l.31,8.77a1.64,1.64,0,0,1-1.42,1.58c-4.88.68-10.48,5.29-15,13.79-.55,1-.25,1.7.59,1.53C193.65,253.11,210,256.11,210,272.56Zm-10.66,0c0-4.83-3-9.34-7.38-9.34-4,0-7.38,3.76-7.38,9.23,0,4,2,9.95,7.38,10C196.91,282.55,199.37,277.15,199.37,272.55Z"/><path class="cls-2" d="M250,272.56c0,14.42-11,18.79-18,18.79-11.88,0-16.8-10.11-17.48-15.25-.75-5.64-.7-15.86,1.64-23.82,6-20.5,20.75-25.4,25.68-25.39a1.67,1.67,0,0,1,1.75,1.65l.31,8.77a1.64,1.64,0,0,1-1.42,1.58c-4.88.68-10.48,5.29-15,13.79-.55,1-.25,1.7.59,1.53C233.58,253.11,250,256.11,250,272.56Zm-10.66,0c0-4.83-3-9.34-7.38-9.34-4,0-7.38,3.76-7.38,9.23,0,4,2,9.95,7.38,10C236.84,282.55,239.3,277.15,239.3,272.55Z"/><path class="cls-2" d="M274.12,247.18v4.24c0,.69-.23,1.35-1.22,1.35h-4.3c-.66,0-.81.44-.81.91l0,34.22a.92.92,0,0,1-.91.92h-5.14c-1,0-1.07-.49-1-1.08v-34a.83.83,0,0,0-.91-.91H255a1.22,1.22,0,0,1-1.36-1.36v-4.33a1.14,1.14,0,0,1,1.14-1.13H273C273.83,246,274.12,246.36,274.12,247.18Z"/><path class="cls-2" d="M295.55,272.09h-9.87a.91.91,0,0,0-.91.9l.12,14.74a1.07,1.07,0,0,1-1.07,1.08h-5.35a1.15,1.15,0,0,1-1.15-1.13V247a1.15,1.15,0,0,1,1.15-1.17h5.42a.89.89,0,0,1,.89.88l.13,17.19c0,.62.26.9.91.9h9.64c.58,0,.86-.27.86-.9,0,0,0-12.94,0-16.85a1.08,1.08,0,0,1,1.08-1.08h5.39c.82,0,1.15.38,1.15,1.18v40.57c0,.63-.2,1.13-1.15,1.13h-5.36a.87.87,0,0,1-1-1l0-14.82A.91.91,0,0,0,295.55,272.09Z"/><path class="cls-2" d="M357.82,271.82c0,14.6-13,19.53-20,19.53-9.87,0-16.2-9.1-16.2-9.1s-1.37-1.51,0-2.7a35.66,35.66,0,0,1,6.71-3.94,2,2,0,0,1,2.25.17c1.19,1.2,3.25,4.31,7.05,4.62,4.56.37,10.39-2.54,10.39-9.19s-5.11-10.42-13.86-15.2c-5.58-3.06-10.12-7.33-10.12-15.54s6.53-15,16.85-13.83c8.84,1,11.63,3.33,10.41,5.66-.8,1.53-2.64,5.1-2.64,5.1s-.37,1.89-4.1.29a15.85,15.85,0,0,0-5.8-1.15,4.38,4.38,0,0,0-4.32,4.37c0,2.75,1.25,5.88,10.79,11C353.89,256.49,357.82,262.49,357.82,271.82Z"/><path class="cls-2" d="M392.24,228.93v6.35c0,1-.35,2-1.82,2H384c-1,0-1.22.66-1.22,1.36l.07,51.32a1.38,1.38,0,0,1-1.36,1.38h-7.71c-1.47,0-1.6-.73-1.56-1.61l0-50.95a1.24,1.24,0,0,0-1.36-1.37h-7.26a1.83,1.83,0,0,1-2-2v-6.5a1.71,1.71,0,0,1,1.71-1.7h27.3C391.8,227.2,392.24,227.69,392.24,228.93Z"/><path class="cls-2" d="M435.81,288.19a2.32,2.32,0,0,1-2.1,2.89l-7.08,0a2.31,2.31,0,0,1-2.4-1.83L422,278.79a1.37,1.37,0,0,0-1.37-1.08l-10,.29a1.37,1.37,0,0,0-1.31,1.2l-1.24,9.91a2.32,2.32,0,0,1-2.77,2H398a2.31,2.31,0,0,1-1.8-2.71l11.58-59.75a2.31,2.31,0,0,1,2.27-1.86h9.55a2.31,2.31,0,0,1,2.24,1.74Zm-15.58-21.14-4.14-21.79a.87.87,0,0,0-1.68.1l-3.46,22.28a.75.75,0,0,0,.73.89l7.84-.5A.74.74,0,0,0,420.23,267.05Z"/><path class="cls-2" d="M456,290.42c-8-3.21-19.28-14-15.67-34.37,4.21-23.71,25.15-30.12,33.64-28,6.87,1.71,9.26,4.21,10.06,5.75a1.55,1.55,0,0,1-.39,1.88l-5.9,5.08a2.06,2.06,0,0,1-2.32.24,10.48,10.48,0,0,0-4.21-1.14c-1.92-.16-15.74-.72-19,18.81-2.92,17.69,9.38,21.43,10.87,21.7A20.68,20.68,0,0,0,473.26,279c1.39-.64,1.39-.64,1.39-2l-.07-8a1.43,1.43,0,0,0-1.63-1.43l-9.79.07a1.71,1.71,0,0,1-1.92-1.54v-7.52a1.64,1.64,0,0,1,1.52-1.84c5.51,0,14.76.14,20,.14,3.82,0,2.82,2.89,2.82,4.8,0,5.9.12,12.73.12,18C485.71,291.64,464,293.61,456,290.42Z"/><path class="cls-2" d="M516.4,291.35H493.07c-1.41,0-1.73-.52-1.73-1.69V228.59a1.72,1.72,0,0,1,1.73-1.76h23.35a1.56,1.56,0,0,1,1.73,1.73v7.08c0,1-.25,1.73-1.79,1.73l-13.49,0a1.35,1.35,0,0,0-1.41,1.38l.18,10.92c.07,1.06.27,1.34,1.36,1.34h7.76a1.54,1.54,0,0,1,1.73,1.75l-.07,7.54a1.6,1.6,0,0,1-1.73,1.72H502.8a1.24,1.24,0,0,0-1.36,1.34l-.08,15.39c0,.88.23,1.37,1.36,1.37H516.4a1.58,1.58,0,0,1,1.73,1.73v7.77A1.5,1.5,0,0,1,516.4,291.35Z"/><path class="cls-2" d="M125.08,390.25H78.73c-3.27,0-5.93,10.1-6,13.38l-.09,97.25c0,4.18-2.15,7.56-7.57,7.56H30c-4.13,0-6.21-2.75-6.21-7.42V233.48c0-5.36,3.33-7.7,7.57-7.7H144.08c5.56,0,7.57,2.65,7.57,7.56v31c0,4.28-1.26,7.56-7.83,7.56L79.05,272c-4.46-.1-6.2,2.61-6.16,6l-.11,58.2c0,3.24,1.23,5.89,6,5.89H125.4c4.21,0,7.57,2.37,7.57,7.63l-.31,33.05C132.62,386.91,131,390.25,125.08,390.25Z"/><path class="cls-2" d="M203.9,313.41,204.18,504a4.3,4.3,0,0,1-4.25,4.29h-24.7c-4.58,0-5-2.28-4.88-5L169,313.33a5.33,5.33,0,0,1,5.33-5.34h24.14C202.53,308,203.9,309.53,203.9,313.41Z"/><path class="cls-2" d="M268,416.16a2.24,2.24,0,0,0-4.27.77l2.19,85a5,5,0,0,1-5.66,5.09l-27.62.07a5,5,0,0,1-4.42-5.14l-2.67-190.36a5.81,5.81,0,0,1,5.62-5.41l21.15.27a5.82,5.82,0,0,1,5.54,3.55l33.73,88.65a1.93,1.93,0,0,0,3.7-.5l.07-86.32a5.82,5.82,0,0,1,5.76-5.09H324a5.82,5.82,0,0,1,5.8,6.18l2.9,189.57a5.82,5.82,0,0,1-5.41,5.43l-22.56.22a5.79,5.79,0,0,1-5.68-3.4Z"/><path class="cls-2" d="M468.53,498.43a7.24,7.24,0,0,1-6.56,9l-22.1-.05a7.21,7.21,0,0,1-7.49-5.71l-6.89-32.59a4.27,4.27,0,0,0-4.29-3.38l-31.22.89a4.29,4.29,0,0,0-4.1,3.75L382,501.28a7.23,7.23,0,0,1-8.63,6.18l-22.86,0a7.21,7.21,0,0,1-5.61-8.47l36.17-186.51a7.21,7.21,0,0,1,7.08-5.81H418a7.21,7.21,0,0,1,7,5.43Zm-48.64-66-12.92-68a2.71,2.71,0,0,0-5.25.3l-10.8,69.54a2.33,2.33,0,0,0,2.28,2.78l24.47-1.56A2.32,2.32,0,0,0,419.89,432.44Z"/><path class="cls-2" d="M481.46,501.16l-.26-186.56a6.68,6.68,0,0,1,6.19-6.65l24.1,0c4-.3,7.16,2.13,7.16,7l-1.67,157c0,2.58.77,3.1,3.08,3.1l30.32-.94c3.79-.15,4.73,1.39,4.73,5.16l.73,24.07c0,3.55-.7,4.94-5,4.94l-62.36,0C483.81,508.14,481.44,506,481.46,501.16Z"/><path class="cls-3" d="M318.78,524.19q3-4.47,14.07-21.48,9.41-14.54,30-41.92,12-15.87,21.67-26.62,5.8-6.46,10.27-6.46a5.65,5.65,0,0,1,4.28,1.81,4.74,4.74,0,0,1,1.52,3.61q0,3.23-3.9,10.17-.76,1.43-7.79,13.78-12.55,22.24-17,31.75-12.26,26-18,44.39-3.33,10.93-3.33,16.06a15.53,15.53,0,0,0,.19,2.38q.47,3.71.48,4.37a7.64,7.64,0,0,1-2.09,5.13,5.24,5.24,0,0,1-4.09,2.19q-2.66,0-4.37-3.14a13,13,0,0,1-1.43-6.65q0-26.9,44.87-105.7-23.48,25.09-52,71.86-6.27,10.17-10.36,13.78t-7.6,3.52a5.66,5.66,0,0,1-5.32-3.14,10,10,0,0,1-1.14-4.85q0-23.76,28.23-74.81A166.9,166.9,0,0,0,317.55,477a450.49,450.49,0,0,0-28.71,49q-6,12.07-14.54,32.22-4.28,10.27-9.89,10.27a2.89,2.89,0,0,1-2.38-1.24,3,3,0,0,1-.76-2.09q0-1.81,3.52-9.88,7.51-17.77,11.5-25.57a448.47,448.47,0,0,1,48.38-74.9q11.69-14.64,16.16-19,4.66-4.47,7.7-4.47a5.4,5.4,0,0,1,3.71,1.71,6,6,0,0,1,2.19,4.56q0,2.85-4,9.41a299.28,299.28,0,0,0-21,41.82Q321.16,509.65,318.78,524.19Z"/><path class="cls-3" d="M395.75,538.17a71.81,71.81,0,0,1-6.18,9.31q-6,7.42-11.88,7.42-5.13,0-8-4.85a14.61,14.61,0,0,1-1.81-7.41q0-10.55,6.65-23.29,7.41-14.16,17.87-21.77,6.84-4.94,13.21-4.94a9.4,9.4,0,0,1,6.65,2.47,6.69,6.69,0,0,1,2.28,4.94,15.85,15.85,0,0,1-1.62,5.8,6.35,6.35,0,0,1,1.43,3.52q0,2-2.66,6.56a73.15,73.15,0,0,0-5.51,12.36q-2.95,8.18-2.95,13.12a9.27,9.27,0,0,0,2.38,6.56,17.8,17.8,0,0,0,3.9,2.19,4.06,4.06,0,0,1,2.38,4,3.7,3.7,0,0,1-1.33,2.95,4.92,4.92,0,0,1-3.33,1.24q-5.13,0-8.84-4.56a14.2,14.2,0,0,1-3-9.32Q395.37,542.54,395.75,538.17Zm11.88-31.27a9.45,9.45,0,0,0-2.47-3.09,4.67,4.67,0,0,0-2.85-1q-7.23,0-15.68,12.64-9.32,14-9.32,23.67a6.07,6.07,0,0,0,.9,3.61,3.13,3.13,0,0,0,2.71,1.24q4.56,0,10.65-9.7A160.55,160.55,0,0,0,400,518.58a82.82,82.82,0,0,1,4.85-8.93A13.86,13.86,0,0,1,407.63,506.89Z"/><path class="cls-3" d="M446.6,545.67q10.17-7.41,15.11-13.5a101.1,101.1,0,0,0,10.36-14.35q1.52-2.47,3.14-2.47,2.28,0,2.28,2.19,0,2.57-3.61,8.55-11.22,18.25-33.65,31.84-10.46,21.86-15.4,29.66-13.12,20.53-24.71,20.53-6.08,0-8.75-4.75a12.79,12.79,0,0,1-1.52-6.27q0-14.92,19.2-28.61,3-2.28,24.62-14.26,4.18-8.84,6.46-13.88-10,10.46-16.54,10.46-4.09,0-6.37-4.18a12.27,12.27,0,0,1-1.43-5.7q0-6.84,5.61-17.58,8-15.49,19.2-24.52,9.41-7.51,16.63-7.51a8.55,8.55,0,0,1,6.37,2.76,7.22,7.22,0,0,1,1.8,5.32q0,4.37-2.95,10.84,2.19,2.09,2.19,3.14a3.7,3.7,0,0,1-1,1.9q-2.57,3.52-8.27,13.21A152.14,152.14,0,0,0,446.6,545.67ZM428,565.26a61.47,61.47,0,0,0-22.15,16.16,31.13,31.13,0,0,0-6.37,10.65,9.38,9.38,0,0,0-.57,2.85,4.17,4.17,0,0,0,.57,2.19,3.28,3.28,0,0,0,2.95,1.71q5.89,0,13.78-12.64Q423,575.24,428,565.26Zm18-41.54q-1.33-1.43-1.33-2,0-.86,1.43-2.19a45.72,45.72,0,0,0,7.7-9.51q2.38-3.9,2.38-6.08,0-2.57-2.38-2.57-4.09,0-11.69,7.79A69.36,69.36,0,0,0,428,529.8q-2.47,5.7-2.47,8.75a3.76,3.76,0,0,0,.76,2.57,2.77,2.77,0,0,0,2.19.86q3.33,0,9.31-6.84a72.17,72.17,0,0,0,6.46-8.55A16.31,16.31,0,0,0,445.94,523.72Z"/><path class="cls-3" d="M502.49,496.91a3.34,3.34,0,0,1,2.66,1.24,3.55,3.55,0,0,1,.76,2.09q0,1.71-2.76,5.7-9.89,15.3-14.07,25.19A211.7,211.7,0,0,0,481.2,552q-1.52,4.75-4.75,4.75a3.61,3.61,0,0,1-3-1.52,4.05,4.05,0,0,1-1-2.66q0-2.85,6.08-19,4.75-12.74,15.4-28.14a52.7,52.7,0,0,1,5.13-6.75A4.91,4.91,0,0,1,502.49,496.91Zm18.06-35.26q4.28,0,4.28,4.37,0,4-4.18,8.84-4,4.66-7.7,4.66a3.7,3.7,0,0,1-2.95-1.33,4.31,4.31,0,0,1-1.14-3q0-4.56,5-9.7Q517.61,461.65,520.55,461.65Z"/><path class="cls-3" d="M537.67,494.92q7.51,0,7.51,7.89,0,6.94-5.42,14-4.18,5.32-7.32,5.32-2.66,0-2.66-3a4,4,0,0,1,.76-2.57,28.65,28.65,0,0,1,2.28-2.19,20.38,20.38,0,0,0,3.52-4.85,7.79,7.79,0,0,0,1.24-3.52q0-1.52-1.71-1.52-2,0-6.08,3.14-6.46,5-12.93,15.78-6.65,11.22-6.65,17.68a5.93,5.93,0,0,0,1.24,3.71,5.7,5.7,0,0,0,4.85,2.47q6,0,14.16-7.41A92.88,92.88,0,0,0,542.13,527q2.47-3.52,4.28-3.52a2.53,2.53,0,0,1,1.9,1,3,3,0,0,1,.76,1.9q0,3.52-9,13.69-14.35,16-26,16-7,0-10.74-5a14.6,14.6,0,0,1-2.66-8.75q0-9.88,8.17-22.91A72.79,72.79,0,0,1,527,499.29Q533.1,494.92,537.67,494.92Z"/></svg>