<svg id="レイヤー_1" data-name="レイヤー 1" xmlns="http://www.w3.org/2000/svg" viewBox="0 0 492 492"><defs><style>.cls-1{fill:#8fc31f;}.cls-2{fill:#aacf52;}.cls-3{fill:#e60012;}</style></defs><title>合格ゼミナール</title><rect class="cls-1" width="492" height="492"/><rect class="cls-2" x="7.54" y="322.09" width="476.76" height="29.38"/><rect class="cls-2" x="24.69" y="215.76" width="26.63" height="110.06"/><rect class="cls-2" x="94.32" y="215.8" width="26.63" height="110.06"/><rect class="cls-2" x="163.94" y="215.84" width="26.63" height="110.06"/><rect class="cls-2" x="233.57" y="215.87" width="26.63" height="110.06"/><rect class="cls-2" x="303.2" y="215.91" width="26.63" height="110.06"/><rect class="cls-2" x="372.82" y="215.95" width="26.63" height="110.06"/><rect class="cls-2" x="442.45" y="215.99" width="26.63" height="110.06"/><rect class="cls-2" x="9.45" y="159.84" width="474.85" height="58.75"/><polygon class="cls-2" points="257.42 114.89 254.02 112.47 254.02 94.08 243.76 101.39 233.51 94.08 233.51 112.04 229.51 114.89 219.25 107.58 219.25 147.46 229.41 154.69 229.41 154.84 229.51 154.77 229.61 154.84 229.61 154.69 239.76 147.46 239.76 138.41 243.66 141.19 243.66 141.34 243.76 141.27 243.86 141.34 243.86 141.19 247.16 138.84 247.16 147.46 257.31 154.69 257.31 154.84 257.42 154.77 257.51 154.84 257.51 154.69 267.67 147.46 267.67 107.58 257.42 114.89"/><path class="cls-3" d="M7.54,259v-12.4L47.06,228l39.52,18.6V259l-39.52-18.6Zm4.65,14H81.94v38.75H12.19Zm4.65-7.75v-7.75H77.29v7.75Zm10.85,15.5v23.25H66.44V280.66Z"/><path class="cls-3" d="M118.64,269.81l-6.2-9.3v51.15H96.94V276l-6.2,21.7v-27.9l6.2-21.7h-6.2v-7.75h6.2V228h15.5v12.4h6.2v7.23l6.2-19.63h15.5l-1.68,4.65h28v7.75L152,256l17.82,18.47v20.15l-6.2-6.46v23.51H121.74V288l-6.2,6.59V274.46l17.18-18.34-1.94-2.07-1.29,3.36H117.74l.9,1.55Zm-6.2-21.7,3.88,6.85,2.2-6.85Zm36.42,24.8-6.46-6.72L136,272.91ZM137,240.36l5.42,5.68,5.3-5.68Zm.26,63.55h10.85V280.66H137.24Z"/><path class="cls-3" d="M195.68,311.66q-13.95,0-14-15.5v-48H174v-7.75h7.75V228h15.5v12.4h32.55l-1.55,29.45h-15.5l1.16-21.7H197.23v48q0,7.75,9.3,7.75h20.15v7.75Zm43-71.75h-6.57V227h6.57Zm8.76,0h-6.57V227h6.57Z"/><path class="cls-3" d="M251.76,237.71V230l57.35,6.2v7.75Zm0,69.75V292l57.35,6.2v15.5Zm4.65-43.4v-9.3l48,6.2v9.3Z"/><path class="cls-3" d="M341.23,311.66h-24.8v-7.75h14q9.3,0,9.3-7.75V254.31H313.33v-7.75h26.35V228h15.5v18.6h14v7.75h-14v41.85Q355.18,311.66,341.23,311.66Z"/><path class="cls-3" d="M372,271.61v-7.75h46.5v7.75Z"/><path class="cls-3" d="M420.75,311.66l6.2-77.5h15.5l-6.2,77.5Zm24.8,0V228h15.5v76h1.55q6.2,0,6.2-7.75v-17h15.5v17q0,15.5-14,15.5Z"/><path class="cls-3" d="M243.46,186.84H241V165.56l-4.4,3.75-1.51-1.72,6.19-5.09h2.2Z"/><path class="cls-3" d="M259.32,186.84h-2.48V165.56l-4.4,3.75-1.51-1.72,6.19-5.09h2.2Z"/><path class="cls-3" d="M265.13,187.05a1.86,1.86,0,1,1,1.86-1.86A1.85,1.85,0,0,1,265.13,187.05Z"/><path class="cls-3" d="M281.6,178.8h3.58V181H281.6v5.88h-2.41V181H268v-2.41l10.32-16.06h3.23Zm-2.41-13.52h-.07l-8.5,13.52h8.56Z"/><path class="cls-3" d="M318.64,186.84h-2.48V165.56l-4.4,3.75-1.51-1.72,6.19-5.09h2.2Z"/><path class="cls-3" d="M333.94,186.84h-2.48V165.56l-4.4,3.75-1.51-1.72,6.19-5.09h2.2Z"/><path class="cls-3" d="M343.74,174.26a1.86,1.86,0,1,1,1.86-1.86A1.85,1.85,0,0,1,343.74,174.26Zm0,12.79a1.86,1.86,0,1,1,1.86-1.86A1.85,1.85,0,0,1,343.74,187.05Z"/><path class="cls-3" d="M367.1,186.84H351.51v-2.58l10-10.08c1.48-1.51,2.92-3.34,2.92-5.57A4.6,4.6,0,0,0,359.6,164a5.09,5.09,0,0,0-5,4.33l-2.44-.48a7.41,7.41,0,0,1,7.46-6c3.92,0,7.33,2.27,7.33,6.71,0,3.13-1.82,5.23-4,7.36l-8.77,8.7h12.9Z"/><path class="cls-3" d="M385.77,174.7c0,6.33-1.93,12.76-8,12.76s-8-6.43-8-12.76,1.86-12.83,8-12.83S385.77,168.38,385.77,174.7Zm-13.45,0c0,4.85,1.14,10.63,5.47,10.63s5.47-5.78,5.47-10.63S382.05,164,377.79,164,372.32,169.85,372.32,174.7Z"/><path class="cls-3" d="M398,179.48h-7.7v-2H398Z"/><path class="cls-3" d="M412.8,186.84h-2.48V165.56l-4.4,3.75-1.51-1.72,6.19-5.09h2.2Z"/><path class="cls-3" d="M433.67,186.84H418.09v-2.58l10-10.08c1.48-1.51,2.92-3.34,2.92-5.57a4.6,4.6,0,0,0-4.82-4.64,5.1,5.1,0,0,0-5,4.33l-2.44-.48a7.41,7.41,0,0,1,7.46-6c3.92,0,7.33,2.27,7.33,6.71,0,3.13-1.82,5.23-4,7.36l-8.77,8.7h12.9Z"/><path class="cls-3" d="M441.2,174.26a1.86,1.86,0,1,1,1.86-1.86A1.85,1.85,0,0,1,441.2,174.26Zm0,12.79a1.86,1.86,0,1,1,1.86-1.86A1.85,1.85,0,0,1,441.2,187.05Z"/><path class="cls-3" d="M463,174.7c0,6.33-1.93,12.76-8,12.76s-8-6.43-8-12.76,1.86-12.83,8-12.83S463,168.38,463,174.7Zm-13.45,0c0,4.85,1.13,10.63,5.47,10.63s5.47-5.78,5.47-10.63S459.26,164,455,164,449.53,169.85,449.53,174.7Z"/><path class="cls-3" d="M481.58,174.7c0,6.33-1.93,12.76-8,12.76s-8-6.43-8-12.76,1.86-12.83,8-12.83S481.58,168.38,481.58,174.7Zm-13.45,0c0,4.85,1.13,10.63,5.47,10.63s5.47-5.78,5.47-10.63S477.86,164,473.6,164,468.13,169.85,468.13,174.7Z"/><path class="cls-3" d="M31.13,198.25A9.45,9.45,0,0,0,24,195.38c-6.37,0-10.29,5-10.29,10.82S17.59,217,24,217a12.78,12.78,0,0,0,6.69-1.61v-7.53H24.87v-2.21h8.3V216.8a17.94,17.94,0,0,1-9.24,2.42c-7.49,0-12.92-5.5-12.92-13a12.61,12.61,0,0,1,12.92-13,12.27,12.27,0,0,1,9,3.33Z"/><path class="cls-3" d="M52.06,219.22a13,13,0,0,1,0-26,13,13,0,0,1,0,26Zm0-23.84c-6.37,0-10.26,5-10.26,10.82S45.69,217,52.06,217s10.26-5,10.26-10.78S58.43,195.38,52.06,195.38Z"/><path class="cls-3" d="M71,209.35V193.81h2.52v15.26c0,4,1.72,7.91,6.76,7.91S87,213.06,87,209.07V193.81h2.52v15.54c0,4.13-1.85,9.87-9.28,9.87S71,213.48,71,209.35Z"/><path class="cls-3" d="M99.35,204.94h0l11.8-11.13h3.61L102.29,205l13.2,13.55h-3.71l-12.39-13.2h0v13.2H96.83V193.81h2.52Z"/><path class="cls-3" d="M119.5,218.59h-2.77l10.71-24.78h2.45l10.64,24.78h-2.8L135,212.08H122.2Zm3.64-8.82h10.92l-5.46-13.16Z"/><path class="cls-3" d="M147.57,204.94h0l11.8-11.13H163L150.52,205l13.2,13.55H160l-12.39-13.2h0v13.2h-2.52V193.81h2.52Z"/><path class="cls-3" d="M167.77,209.35V193.81h2.52v15.26c0,4,1.72,7.91,6.76,7.91s6.76-3.92,6.76-7.91V193.81h2.52v15.54c0,4.13-1.85,9.87-9.28,9.87S167.77,213.48,167.77,209.35Z"/><path class="cls-3" d="M215.26,197.8a5.94,5.94,0,0,0-5.11-2.49c-2.45,0-5.29,1.47-5.29,4.66s2.63,4,5.39,4.87c3.5,1.15,7.35,2.27,7.35,7.25s-4.17,7.14-8.09,7.14a9.57,9.57,0,0,1-7.81-3.68l2.17-1.61a6.59,6.59,0,0,0,5.67,3.12c2.56,0,5.5-1.61,5.5-4.8,0-3.47-2.91-4.34-6.06-5.32s-6.65-2.45-6.65-6.93c0-4.8,4.27-6.83,7.91-6.83a8.64,8.64,0,0,1,7,3Z"/><path class="cls-3" d="M226.39,216.35h13.27v2.24H223.87V193.81h15.37V196H226.39v8.54h12v2.21h-12Z"/><path class="cls-3" d="M257.72,214.32h0l8.3-20.51h3.85v24.78h-2.52V197.06h-.07l-9,21.53H257l-9-21.53H248v21.53h-2.52V193.81h3.85Z"/><path class="cls-3" d="M279.87,218.59h-2.52V193.81h2.52Z"/><path class="cls-3" d="M304.9,214.91H305V193.81h2.52v24.78h-3.15l-14.42-21.32h-.07v21.32h-2.52V193.81h3.15Z"/><path class="cls-3" d="M314.77,218.59H312l10.71-24.78h2.45l10.64,24.78H333l-2.73-6.51H317.46Zm3.64-8.82h10.92l-5.46-13.16Z"/><path class="cls-3" d="M342.84,218.59h-2.52V193.81h7.28c4.9,0,8.47,1.79,8.47,6.62,0,3.68-2.73,6-6.34,6.37l7.25,11.8H353.9L347,207h-4.2Zm0-13.76h4.38c4,0,6.34-1.47,6.34-4.41,0-3.26-2.49-4.45-6.23-4.45h-4.48Z"/></svg>