<svg id="レイヤー_1" data-name="レイヤー 1" xmlns="http://www.w3.org/2000/svg" viewBox="0 0 414.38 414.38"><defs><style>.cls-1{fill:#171c61;}.cls-2{fill:#e4007f;}.cls-3{fill:#fff;}</style></defs><title>逆転</title><rect class="cls-1" width="414.38" height="414.38"/><rect class="cls-2" x="27.82" y="140.72" width="222" height="125.5"/><path class="cls-2" d="M296.18,214.15c-.07,5.11-.14,10.8-.14,11,.07,2.45.14,3.6,5.9,3.6,5.11,0,7.49,0,9.22-10.66.14-.65.22-1,.29-1,.5,0,1,8.35,3.1,9.72a3.52,3.52,0,0,1,1.87,3.1,5.31,5.31,0,0,1-1.22,3.1c-1.3,1.66-4,3-12.89,3-7.42,0-14-.58-14-8.71a9.61,9.61,0,0,1,.07-1.44c.07-.79.14-6.77.22-11.67h-6.41c-2.09,14-11.3,20.67-26,22.9a19.15,19.15,0,0,1-2.3.22c-.43,0-.58,0-.58-.14s.86-.58,2.3-1c11.23-3.17,17.57-11.59,19.08-21.82-3.38.14-7.2.29-10.51.65h-.07c-1.3,0-3.46-2.74-3.46-3.67,4.25.5,9.65.79,14.26.94.07-.94.14-1.94.14-2.88,0-2.16-.22-6.84-.29-7.49a44.26,44.26,0,0,0-4.54.36H270a2.38,2.38,0,0,1-1.15-.65C261.55,206.31,254.56,209,253,209c-.29,0-.43,0-.43-.14s.72-.86,1.94-1.51c7-3.89,19.37-15.12,24.77-28a1.82,1.82,0,0,0,.14-.5c0-.29-.29-.5-.86-.5h-3a65.91,65.91,0,0,0-8.21.72h-.07c-1,0-3.24-2.88-3.24-3.74a84.14,84.14,0,0,0,11.38,1.08H279a2.24,2.24,0,0,0,1.3-.5c.43-.29,2.09-2.66,2.52-2.88a1,1,0,0,1,.43-.14c1.22,0,8.5,4.32,8.5,5.62,0,.5-.5.94-1.51,1.22a32.72,32.72,0,0,0,4.1,5.11c1.08-1.58,3.74-5.83,4.54-9.22.14-.58.29-.79.5-.79,1.22,0,9.43,5.47,9.43,6.48,0,.22-.14.36-.43.5l.43.22c3.17,1.66,8.35,6.19,8.35,7.06,0,.58-.86.72-2.38.72a3.53,3.53,0,0,0-1.94.43c-1.44.58-5.33,1.87-8.14,2.66a52.43,52.43,0,0,0,17.14,6.34c.72.14,1,.29,1,.43,0,.86-6.62,2.38-9.86,5.26a2.53,2.53,0,0,1-1.87.79c-1.8,0-5.91-2.81-7.71-4.25h-7.85a6.77,6.77,0,0,1,1.15.29c1.08.29,1.73.65,1.73,1.08s-.5.79-1.66,1.37c-.43.22-.43,1.51-.43,1.66-.07.65-.07,3.31-.14,6.48h2.45a1.47,1.47,0,0,0,1.15-.65c1-1.22,2.3-3.82,3.75-4.9a1.7,1.7,0,0,1,.86-.22c1.58,0,8,4.68,8,6.48,0,.5-.36,1.08-1.94,1.08ZM261,181.61c9.58,0,10.66,4.18,10.66,5.83a4.7,4.7,0,0,1-4.46,4.54,4.45,4.45,0,0,1-3.74-2.59c-1.37-2.38-2.09-5-4.18-6.7q-.86-.65-.86-.86c0-.14.36-.22,1.15-.22Zm34.2,18.15c.65,0,.72-.07,3-3.31a49.53,49.53,0,0,1-9.22-16.2,3,3,0,0,0-.94,1.22,56.29,56.29,0,0,1-15.84,17.79c5.62.36,12.75.5,15.19.5Zm-6.7,12.6c0-2.52.07-4.46.07-4.82a33.39,33.39,0,0,0-.36-6h-1.08c-1.22,0-3.46.07-5.9.14l2.45.58c.72.14,1,.43,1,.65s-.36.65-1,1c-1,.58-1.08.5-1.08,3.24,0,1.87-.14,3.6-.29,5.26Zm17.79-30.24a3.1,3.1,0,0,0-1.94.58A69.42,69.42,0,0,1,296,186.5a45.82,45.82,0,0,0,6.41,5c1.58-2.09,5-7.06,5.33-9.07,0-.14,0-.36.07-.43Z"/><path class="cls-2" d="M324.69,208.47c-.14,0-.22-.07-.22-.14s.36-.58,1.08-1.15a63.77,63.77,0,0,0,15.34-19.58h-.22c-4.39,0-3.6.07-10.15.72h-.07c-1.37,0-3-2.66-3-3.6,7.56.86,8.93,1.08,13.46,1.08h.36c0-9.5-.14-10.87-.72-12.89a.78.78,0,0,1-.07-.36.38.38,0,0,1,.43-.43c.36,0,9.87,1.3,9.87,3.24,0,.43-.43.86-1.15,1.22-1.51.79-1.66.29-1.8,2.59-.07,1.51-.14,3.82-.14,6.62h.5a1.53,1.53,0,0,0,1.3-.65c2.45-3.89,3-4.32,3.74-4.32s6.26,3.89,6.26,5.83c0,.5-.36.94-1.58.94h-10.3c0,1.58.07,3.24.07,4.9,4,.07,10.58.43,10.58,5.54a3.84,3.84,0,0,1-3.6,4,4.3,4.3,0,0,1-3.46-2.23c-1.08-1.66-2.09-4-3.53-5.4.07,6.12.22,12.46.5,16.49v.22c0,2-2.38,3-4.18,3s-3.31-.86-3.31-2.74v-.22c.22-3.24.43-8,.5-13C334.48,205.58,325.41,208.47,324.69,208.47Zm7.34,25a4.07,4.07,0,0,1-4.32-4.1c0-2,1.44-4.18,4.68-5.11,3.67-1,5.69-2.38,7.34-5.69.72-1.51,1.15-2.3,1.44-2.3s.36.86.36,2.67C341.54,233.23,332.68,233.45,332,233.45Zm27.51,2.45c-9.72,0-14.55-.94-14.55-7a10.1,10.1,0,0,1,.07-1.44c.14-1.08.14-4.25.14-6.12a24.46,24.46,0,0,0-.58-4.9,5.84,5.84,0,0,1-.14-.65c0-.14.07-.14.36-.14,3.17,0,11.16,2.16,11.16,3.53,0,.36-.43.86-1.58,1.44s-1.08,1.15-1.22,2.23c0,.07-.22,2.66-.22,3.38v.14c.36,2.45,1.44,2.59,6.26,2.59,9.36,0,11-.5,12.53-8.57.07-.5.14-.65.22-.65.36,0,.72,5.26,3.1,6.55a4,4,0,0,1,2.45,3.46C377.54,233.09,373.58,235.9,359.54,235.9Zm7.7-16.13a4.3,4.3,0,0,1-4,4.39c-1.37,0-2.81-.86-3.89-2.88-.86-1.66-2.74-5.11-4.54-6.62-.65-.5-1.58-.86-1.58-1.08s.07-.22,2.38-.22C358.17,213.36,367.25,213.58,367.25,219.77Zm-.07-11.59c0,.43.07.86.07,1.22v.07c0,1.94-2.09,3.38-4.39,3.38-1.87,0-3.6-.94-3.6-3v-.36c.5-5,.65-12,.65-17.35a117.88,117.88,0,0,0-.94-17.35c0-.14-.07-.22-.07-.29s.07-.29.29-.29a39.65,39.65,0,0,1,8.57,3.89h9.15a.88.88,0,0,0,.86-.43c1.94-2.81,2.3-3.17,2.74-3.17,1,0,8.06,4.1,8.06,5.47,0,.43-.36.94-1.37,1.66-1.58,1.15-1.44,1-1.51,2.3,0,.65-.07,2.59-.07,5.26,0,5.69.14,14.69.58,20.81v.14c0,2.16-2.74,3.24-4.82,3.24-1.73,0-3.31-.79-3.31-2.52v-.07c0-.79.07-1.66.07-2.59Zm-.14-12h11.16v-6.91H367.1C367.1,191.47,367,193.85,367,196.22Zm11.09,10.08c.07-2.52.07-5.33.07-8.21H367c0,3,0,5.76.07,8.21Zm-10.87-24.91c-.07,1.44-.14,3.53-.14,6h11.09c0-3-.07-5.33-.07-6.34S377.69,180,377,180h-8.78C367.39,180.53,367.25,180.67,367.25,181.39Zm22.9,45.44c0,2.59-1.87,4.75-4.18,4.75-1.44,0-3.1-.94-4.46-3.17-2.16-3.6-3.75-6.91-5.76-8.42-1.37-1-1.8-1.51-1.8-1.66s.07-.14.22-.14a8.27,8.27,0,0,1,1.15.14c4.83.5,10,1.15,12.89,4.1A6.47,6.47,0,0,1,390.15,226.83Z"/><path class="cls-2" d="M266,160.94a6.65,6.65,0,0,0,.62,1.07,1.74,1.74,0,0,1,.44,1.07,1.06,1.06,0,0,1-.95,1.05.69.69,0,0,1-.49-.27,3.17,3.17,0,0,0-2-.69c-.86,0-1.48.35-1.48.88s.68,1,1.57,1a2.58,2.58,0,0,0,.94-.18,1.1,1.1,0,0,1,.39-.08.83.83,0,0,1,.87.74c0,.62-1,.9-1.88.9a2.52,2.52,0,0,1-2.74-2.09c0-.64.44-1.79,3.33-1.79.36,0,.75,0,1.16,0h0c.13,0,.17-.1.17-.23a6.22,6.22,0,0,0-.44-1.26,7.71,7.71,0,0,1-2.24.4,1.93,1.93,0,0,1-2.16-1.7,1.36,1.36,0,0,1,0-.26c0-.05,0-.07,0-.07a1.22,1.22,0,0,1,.36.18,3.4,3.4,0,0,0,1.82.61A5.78,5.78,0,0,0,265,160l-.39-.84a3.37,3.37,0,0,1-.81.09,2,2,0,0,1-2.29-1.74s0-.06.05-.06a1.4,1.4,0,0,1,.39.17,3.89,3.89,0,0,0,1.68.52,1.37,1.37,0,0,0,.4-.05c-.35-.61-1.26-2-1.92-2H262c-.26,0-.38,0-.38-.17a.83.83,0,0,1,.87-.68,1.28,1.28,0,0,1,1.12.73c.27.51.6,1.2.95,1.92l.2-.12a1.64,1.64,0,0,1,.83-.36.57.57,0,0,1,.57.57c0,.52-.58.87-1.07,1,.13.27.25.55.38.81.3-.12.43-.18.43-.33s-.22-.31-.35-.39-.17-.12-.17-.16,0,0,.1,0l.19,0a8.28,8.28,0,0,0,1.18.13.67.67,0,0,1,.74.61C267.56,160,267.24,160.44,266,160.94Zm1.59-3.6a.46.46,0,0,1-.44.47.52.52,0,0,1-.39-.2,4,4,0,0,0-1-.82c-.16-.08-.23-.14-.23-.19s.46-.14.55-.14C266.65,156.45,267.55,156.7,267.55,157.34Zm1.33-.62a.44.44,0,0,1-.43.47.56.56,0,0,1-.38-.2,3.94,3.94,0,0,0-1.05-.78c-.16-.08-.25-.14-.25-.19s.44-.16.65-.16C268.06,155.85,268.87,156.1,268.87,156.71Z"/><path class="cls-2" d="M280.78,161.28c0,1-1.13,1.63-2,1.63-1.37,0-2-1.55-2.05-1.7a7,7,0,0,0-.56.52l0,.06c1.53,2.39,1.81,2.83,1.81,3.48s-.33.82-.64.82-.6-.26-.6-.79a5.63,5.63,0,0,0-1.12-3.11l0-.08-.14.13a1.8,1.8,0,0,1-1.23.58c-.26,0-1.08-.19-1.08-1,0-.09,0-.12.06-.12a2.6,2.6,0,0,1,.3.12,1,1,0,0,0,.27,0,2.23,2.23,0,0,0,1.07-.36l.27-.16a1.9,1.9,0,0,0-.42-.47.79.79,0,0,1-.36-.62.8.8,0,0,1,.88-.78h.44c.95,0,1.11-.12,1.11-.29a.39.39,0,0,0-.07-.22.84.84,0,0,1-.13-.3s0-.07.1-.07,1.26.08,1.26,1a.61.61,0,0,1-.13.4,3.62,3.62,0,0,1,1-.14C279.83,159.92,280.78,160.39,280.78,161.28Zm-4.1-1.16a2.69,2.69,0,0,0-1-.31s-.39,0-.39.25a1.09,1.09,0,0,0,.17.47,4.59,4.59,0,0,0,.3.51,13.08,13.08,0,0,1,1.27-.65l.21-.09A1.51,1.51,0,0,1,276.69,160.12Zm3.21.91c0-.22-.13-.74-1-.74a3.83,3.83,0,0,0-2,.83l.22.22a2.22,2.22,0,0,0,1.51.53C279.7,161.87,279.9,161.28,279.9,161Z"/><path class="cls-2" d="M291.79,165.24a1,1,0,0,1-.91,1.17c-.36,0-.71-.29-.75-.95a9.61,9.61,0,0,0-1.75-4.29,1.33,1.33,0,0,1-.3-.82c0-.23.05-.94,1.78-3.48a2.8,2.8,0,0,0,.47-1,.24.24,0,0,0,0-.14.85.85,0,0,1-.22-.42c0-.09.07-.14.21-.14a1.42,1.42,0,0,1,1.51,1.27,1.51,1.51,0,0,1-.49,1,19.37,19.37,0,0,0-2.59,2.46.74.74,0,0,0-.09.36.57.57,0,0,0,.13.38c.6.68,2.91,2.59,3.05,4.43Z"/><path class="cls-2" d="M307.84,157.34c0,.36-.35.73-1,.73l-.3,0a6.22,6.22,0,0,0-.68,0,4.53,4.53,0,0,0-2,.39c-.61.36-1.18,1.92-1.18,3.37,0,1.7.82,2.67,1.86,2.67a1.83,1.83,0,0,0,.61-.1,1.53,1.53,0,0,1,.46-.08.85.85,0,0,1,.94.79c0,.36-.35,1-1.85,1s-2.9-.94-2.9-3.43a7.32,7.32,0,0,1,1.17-3.9.36.36,0,0,0,.05-.09h0a13.71,13.71,0,0,0-2.31,1.09,1.81,1.81,0,0,1-.82.18c-.58,0-1.56-.22-1.56-1,0-.16,0-.2.12-.2a1.57,1.57,0,0,1,.27.05,3.28,3.28,0,0,0,.48.05,2.83,2.83,0,0,0,1.05-.23c1.74-.69,3-1.37,4.71-1.9a3.26,3.26,0,0,1,1.07-.31h0C307.82,156.4,307.84,157.23,307.84,157.34Z"/><path class="cls-2" d="M318.05,165.67a1.5,1.5,0,0,1-1.65-1.57,3,3,0,0,1,.12-.78,6.35,6.35,0,0,0,.35-1.68,1,1,0,0,0-1-1.08c-1,0-2.55,1.11-2.78,3.9-.07.88-.47,1.27-.85,1.27s-.68-.35-.68-1a2.42,2.42,0,0,1,.08-.57c.62-2.3,2.41-4.45,3.48-6.54a3.24,3.24,0,0,0,.38-1c0-.1,0-.17-.1-.19-.31-.09-.48-.17-.48-.27a1,1,0,0,1,.79-.4A1.5,1.5,0,0,1,317,157a1.58,1.58,0,0,1-.55,1c-2.26,2.54-2.35,2.86-2.35,2.89h0l.1-.08a3.18,3.18,0,0,1,2-.82,1.74,1.74,0,0,1,1.81,1.87,8.53,8.53,0,0,1-.18,1.6,1.78,1.78,0,0,0,0,.35c0,.42.21.61.66.61a4.38,4.38,0,0,0,2.51-1,3,3,0,0,1,.6-.48s0,0,0,0a2.82,2.82,0,0,1-.35.74A4.25,4.25,0,0,1,318.05,165.67Z"/><path class="cls-2" d="M328.05,165.87c-.1,0-.17,0-.17,0s.2-.1.62-.22a7,7,0,0,0,3.24-2,4.62,4.62,0,0,0,1-2.77,3.48,3.48,0,0,0-3.47-3.56h-.18l-.33,0a2.68,2.68,0,0,1,.61,1.91c0,2.34-1.9,5.56-3.38,5.56-.82,0-1.14-1.05-1.6-1.74a2.26,2.26,0,0,1-.33-1.27,5.26,5.26,0,0,1,5.34-5.08c3,0,4.73,2,4.73,4.2a4.66,4.66,0,0,1-1.59,3.43A7.71,7.71,0,0,1,328.05,165.87Zm.21-8.53h-.09a.56.56,0,0,1-.16,0,4,4,0,0,0-3.08,3.72c0,1.24.74,2,1.09,2,1.07,0,2.59-3,2.59-4.78C328.61,157.87,328.51,157.34,328.26,157.34Z"/><path class="cls-2" d="M338.86,157.37h.91v-1.8h1v1.93h-.91v8.16h-1Zm2.73,5.43h.9v-.9h2.72v-2.6h-3.62v-1h3.62v-2.72h1v2.72H348v1h-1.8v3.5h.9v.91h.9v1h-1v-.91h-.78v.91h-.91v.9h-2.84v-.9h-.9Zm3.62,1.82v-1.69h-2.6v1.69Z"/><path class="cls-2" d="M354.49,164.62h1.82v-.9h1.8v-.91H359v-2.6h-5.31v.91h-1.95v-1h1.83v-.9h5.56v.9h.9v2.84h-.9v.91h-.91v.91h-1.8v.9h-1.94Z"/><path class="cls-2" d="M366.77,161h.9v-.79H364v-1h2.73v-.9h1.81v-.91h1.8v-.78h-4.52v-1h6.46v1h-.9v.9h-.91v.91h-1.8v.78h5.44v1H369.6v.91h-1.82v2.6h.91v.9h3.62v1h-3.74v-.9h-.91v-.91h-.9Z"/><path class="cls-2" d="M378.77,164.62h2.72v-.9h1.8v-.91h.91v-3.5h-4.41v.9h-1.94v-1h1.82v-.9h4.65v.9h.9v3.74h-.9v.91h-.91v.91h-1.8v.9h-2.84Zm0-9.05h2.84v.9h2.72v1h-2.84v-.9h-2.72Z"/><path class="cls-3" d="M37.77,230.07h6v-5.9h6v-17h-12V200.4H56.42v29.67H67.51v-5.9h5.9v-6h5.9v-5.11H67.51V194.5h6.7v11.88h5.11v-17H61.53v-6.77H73.41V177.5h-5.9v-6.7h6.7v5.9h5.9v5.9H85.3v-5.9h5.9v-5.9h6.7v6.7H92v5.11h11.88v6.77H86.09v17H91.2V194.5h6.7v18.58H86.09V219h-6v6h-5.9v5.11h29.67v6.77H55.63v-5.91H44.54v5.91H37.77Zm6-52.56h-6v-6.7h6.77v5.9h6v6.7H43.75Z"/><path class="cls-3" d="M109.77,224.16h12V219h-12V188.59h12v-5.18h-12v-6.7h12v-5.9h6.7v5.9H140.3v6.7H128.42v5.18H140.3V219H128.42v5.18H140.3v6.77H128.42v5.91h-6.7v-5.91h-12Zm12-23.76v-5.11h-5.18v5.11Zm0,11.88v-5.11h-5.18v5.11Zm11.81-11.88v-5.11h-5.11v5.11Zm0,11.88v-5.11h-5.11v5.11Zm11.88-35.57h30.46v6.7H145.41Zm0,47.45h5.9V212.28h6V201.19H145.41v-6.7h30.46v6.7H164v11.88h-5.9V225h-6v5.11H163.2V218.19h6.7v6h6v12.67H169.1v-5.91H164v5.91H145.41Z"/><path class="cls-3" d="M184.72,194.5h6v-5.9h6v-6h5.9v-5.9H233v5.9h5.9v6h5.9V219h-5.9v6H233v6h-6v5.91h-12.6v-6.77h11.81v-5.9h6v-6h5.9v-28.8h-5.9v-6h-17v29.67h-6V225h-5.9v6H190.7v-6h-6Zm17.86,29.67V212.28h5.9V183.41h-5.11v6h-5.9v5.9h-6v28.87Z"/></svg>