<svg id="レイヤー_1" data-name="レイヤー 1" xmlns="http://www.w3.org/2000/svg" viewBox="0 0 445 445"><defs><style>.cls-1{fill:#fff;}.cls-2{fill:#231815;}</style></defs><title>布族裸族</title><rect class="cls-1" width="445" height="445"/><path class="cls-2" d="M302.62,206.32a16.33,16.33,0,0,1-1.63-1l-.84-.62-1,.07a3.7,3.7,0,0,0-1.83.62c-.76-.58-2.16-3.66-2.39-6.94s-.32-7.81.07-9.59l.14-.16a8,8,0,0,0,.71-.92l1.58-2.46L295,183.83a8.55,8.55,0,0,1-.56-1.74,13.74,13.74,0,0,0-.72-2.27l-1.3-2.9-2.74,1.62c-.5.3-1,.58-1.55.86a29.16,29.16,0,0,0-3.1,1.83,14.4,14.4,0,0,0-2.37,2.33,8.22,8.22,0,0,1-1.59,1.57,10.38,10.38,0,0,1-2.67.61,16.43,16.43,0,0,0-4,.95l-.12.05a17.49,17.49,0,0,0-2.44,1.48,11.81,11.81,0,0,1-2.14,1.27l-.12-.21a12.13,12.13,0,0,0-.67-1.08V188l0-.63c-.27-3.75-2.47-6.27-4.42-8.49-1.63-1.86-3-3.46-3.18-5.54a22,22,0,0,1,.25-4.13,26.63,26.63,0,0,0,.28-5.22l-.1-1.42-.65-.72c-1.35-1.5-3.47-2.23-6.47-2.23-.54,0-1.09,0-1.63.06-1.12.08-2.22.21-3.2.32-.75.09-1.45.17-2,.21-.37,0-.75,0-1.14,0-5,0-11.69-2.13-14.27-5.7a11.34,11.34,0,0,1-1.12-2.23,15.1,15.1,0,0,0-2.1-3.83,17.49,17.49,0,0,0-3.5-3,3.92,3.92,0,0,0,0-.5v-.07a4.32,4.32,0,0,0,1.28-.53,19.22,19.22,0,0,0,2.27.13c.61,0,1.23,0,1.84-.07a22.21,22.21,0,0,0,8.34-2.21,3.05,3.05,0,0,0,1.91-1.94,2.47,2.47,0,0,1,.42-.06h.43a17.52,17.52,0,0,1,2.46.25,23,23,0,0,0,3.44.33c.3,0,.6,0,.91,0,1.24-.09,13.16-3.59,14.13-4.06a9.28,9.28,0,0,0,4.17-4.29,7.45,7.45,0,0,1,1.14-1.67l1.91-1.87-1.71-2c0-.08,0-.16-.06-.25l-.12-.45-.48-1.75q1.17-1.1,2.6-2.38c.59-.53,1.09-1,1.45-1.31l2.49-2.34-2.76-2a17.25,17.25,0,0,0-9.29-2.83c-.29,0-.58,0-.85,0a8.09,8.09,0,0,0-5.05,2.13,9.72,9.72,0,0,0-6.08,4.29l-2.32-.56c-8.47-2-14.49-3.88-14.94-10.16-.3-4.17,2.37-11.59,5.63-11.83l.78,0a31.45,31.45,0,0,1,3.7.31c1.14.14,2.33.28,3.51.33a208.48,208.48,0,0,1,21.9,2.78l5.67.91,2.06.32.92-1.88c1-2.12,1.68-5.75,2.42-10,.65-3.68,1.82-10.35,3.1-12a20.63,20.63,0,0,1,2.45,1.22,21.35,21.35,0,0,0,2.06,1.05c1.06.48,2.47,1,4,1.58,5,1.91,12.64,4.8,12.92,8.64.13,1.79-.64,3.91-1.38,5.95l-.3.84-2.62,7.38,6-3.55.82.61,1.43-.52a9.5,9.5,0,0,1,1.51-.39,3.46,3.46,0,0,0,2.25.82h.3a4.43,4.43,0,0,0,2-.74q2-1.05,3.67-1.84l2.65.47a8.41,8.41,0,0,0,1.64.19l.45,0a15.85,15.85,0,0,0,6.5-2.3c.71-.38,1.37-.74,2-1l4-1.72c1.12.21,2.08.3,2.92.39,2.67.27,3.39.34,5.56,4.35l.2.38a13.91,13.91,0,0,1,1.89,5.05c.18,2.48-1,4-3.19,6.55a30.19,30.19,0,0,0-2.83,3.69c-.86,0-1.71.08-2.54.13-1.12.07-2.18.13-3.22.13-.5,0-1,0-1.48-.05a8.83,8.83,0,0,1-2.05-.54,11.81,11.81,0,0,0-4-.84l-.52,0a5.94,5.94,0,0,0-1.92.51l-.23.1-.64,0a28.27,28.27,0,0,1-3.06-.23,32.93,32.93,0,0,0-3.68-.27c-.38,0-.75,0-1.13,0a8.77,8.77,0,0,0-6.54,3.37l-1,1.27.58,1.49a14.12,14.12,0,0,1,.47,1.7,14.35,14.35,0,0,0,1.29,3.75,12.41,12.41,0,0,0-.21,3.52,22.92,22.92,0,0,0,1.27,5.91l1,2.91,2.81-1.26c5.87-2.62,16-5.62,22.77-6.11H338a2.15,2.15,0,0,1,1.14.26c.85,4.24,4,7.46,6.83,10.33,2.08,2.12,4.23,4.31,4.46,6.1,0,.14-.15.37-.22.54a10.07,10.07,0,0,0-.51,1.38,22.76,22.76,0,0,0-.81,5.21,16.6,16.6,0,0,1-.69,4.32,9.78,9.78,0,0,1-1.2,2c-1.08,1.55-2.41,3.49-2.23,6.13a3.08,3.08,0,0,0,.26,1,6.6,6.6,0,0,1-.48,1.09l-1.68.12-.67,1.61a4.37,4.37,0,0,0-.31,1.89,29.35,29.35,0,0,0-3.56,3.93c-1.52,1.9-2.83,3.54-4.65,4.36a15.24,15.24,0,0,1-4.34,1,23.31,23.31,0,0,0-5,1,7.45,7.45,0,0,0-4.52-2h-.34a4.75,4.75,0,0,0-4,3.06l-.48,1.17.55,1.14a9.23,9.23,0,0,1,.8,3.54,39.9,39.9,0,0,1-.12,5.4c-.09,1.4-.18,2.84-.18,4.31a5.15,5.15,0,0,0-.9.46,9.05,9.05,0,0,0-2.66,2.55,5.37,5.37,0,0,1-1,1.08,12.19,12.19,0,0,1-3.33.76A14.41,14.41,0,0,0,302.62,206.32ZM314,176a2.91,2.91,0,0,0,2.09.9h.1l2.15-.15.67-1.62a14.11,14.11,0,0,0,.72-2.62,6.61,6.61,0,0,1,.62-2.06l.11,0,3.28-.73-1.28-3.11a3.4,3.4,0,0,1-.2-.63,9.57,9.57,0,0,1,0-1.15c0-.13,0-.27,0-.42a16.58,16.58,0,0,0,2.79,1.63l1.75.81,1.39-1.34a6.82,6.82,0,0,0,2.14-5.49c-.35-4.9-5.51-9.38-8.6-12.05l-.89-.77-2.82.2a5.59,5.59,0,0,0-5.41,4.73l-.27,1.39.62.69-.15,3.9a38.59,38.59,0,0,0,.14,4.36l.3,4.18c.14,1.93.28,3.92-.34,5.28l-1.95,4.32Zm-28.26-22.29a45.68,45.68,0,0,0-.59,9.49c.49,6.91,4.26,8.72,6.47,9.18l6.26,1.32-3.07-5.24v-.09c0-.17,0-.21.5-.93,1-1.39,2.49-3.49,2.16-8.12-.34-4.78-3.48-5.94-5.35-6.63a8.1,8.1,0,0,1-1.93-.9l-3.81-2.71Z"/><path class="cls-2" d="M319.12,289.19c-.74-.1-1.28-1-1.72-1.77l-.3-.52-.63,0h-.14a3.94,3.94,0,0,1-.5,0c-.75-.1-1.21-.85-1.89-2.07a6.83,6.83,0,0,0-3.4-3.54,2.77,2.77,0,0,0-2.37-1.41l-.31,0c-1.62,0-3.77,1.64-6,3.38a25.28,25.28,0,0,1-4.09,2.76,1.31,1.31,0,0,0-.46-.7l0,0,0,0c-.41-.25-.87-.48-1.32-.7l.54-.27-.24-.71a1.35,1.35,0,0,0-1.11-.9h-.22a2.81,2.81,0,0,0-.65.09l-.26,0c-.91-.12-2.29-1.56-3.5-2.82a18.05,18.05,0,0,0-3.14-2.82c0-.3-.08-.6-.13-.9a13.15,13.15,0,0,1-.18-1.55h.36a4.77,4.77,0,0,1,.55,0l.62.08.28-.21a1,1,0,0,0,.44-.69,1.81,1.81,0,0,0,.72-.36l.28-.21,0-.35c.12-.91-.65-1.45-1.28-1.89-.14-.1-.34-.24-.48-.36l.67.44a16.87,16.87,0,0,0,7.26,3.11h.17a1.19,1.19,0,0,0,1.18-1,6.6,6.6,0,0,0,4.44-1.48l.58-.53-.48-.62a1.32,1.32,0,0,0-.92-.46l-.27,0a3.1,3.1,0,0,0-1.13.26,1.72,1.72,0,0,1-.53.15c-.85-.11-1.08-2.46-1.26-4.17-.25-2.44-.5-5-2.08-6l-.16-.1-.46-.06a5.38,5.38,0,0,0-.72,0,13,13,0,0,0-1.41.1,11.89,11.89,0,0,1-1.29.1,4.27,4.27,0,0,1-.57,0,1.17,1.17,0,0,1-.65-.28l-.39-.38-.51.2a4.74,4.74,0,0,0-2.3,2.47c-.54,1-.91,1.6-1.64,1.75l-.47.1-.16.45a9.44,9.44,0,0,1-.8,1.62,8.5,8.5,0,0,0-1.18,2.86,20.11,20.11,0,0,0-3,3.75c-1.72,2.55-3.34,5-5.89,5a4.35,4.35,0,0,1-.58,0,3.57,3.57,0,0,1-1.26-.44,7.19,7.19,0,0,0-2.55-.8,2.51,2.51,0,0,1-.84-.44,5.22,5.22,0,0,0-1.49-.76,3.06,3.06,0,0,0-.36-.51l0,0,.15-.13-.12-.6a6.71,6.71,0,0,0-.79-1.64c-.28-.43-.39-.6-.11-2.72a3.44,3.44,0,0,1,.47-1.64l.21-.27,0-.34a2.71,2.71,0,0,0-.28-.85l0,0a4.85,4.85,0,0,1,.55-.93,5.48,5.48,0,0,0,1.07-2.32v-.08l-.09-1.29-.74-.05-.56,0a14.07,14.07,0,0,0-6.21,1.91l-1.21.58a2,2,0,0,1-1-.81l-.21-.39-1.25-.17a4.17,4.17,0,0,1-1.11-.41l-.35-.16a2.94,2.94,0,0,0-1.53-2h0A3.86,3.86,0,0,0,253.1,258c-.16-.18-.31-.36-.44-.54a2.13,2.13,0,0,0,.21-.69,4.27,4.27,0,0,0-.17-1.63,2.85,2.85,0,0,1-.13-1,1.09,1.09,0,0,1,.38-.64l.4-.41-.23-.53a14.12,14.12,0,0,1-.88-5.31c0-.45,0-.91-.06-1.37a1.52,1.52,0,0,0-.1-.52,23,23,0,0,1,3.12,1.34,16.77,16.77,0,0,0,5.11,1.83,7.31,7.31,0,0,0,1,.07c3.13,0,4.58-2.27,5.5-4.25.18-.43.38-.86.59-1.31a15.46,15.46,0,0,0,1.25-3.27c.07-.48.1-.93.14-1.38s.07-.83.12-1.23a3.21,3.21,0,0,1,.62-1.73l.7-.75-.87-.55a20.14,20.14,0,0,0-5.68-2.17c-4.14-1.11-7.13-1.91-6.37-7.7a14.38,14.38,0,0,1,.49-2.26c.13-.07.24-.15.35-.22l.11-.07.65.84.6-1.23c.36-.74,1.12-1,2.32-1.31.34-.09.68-.18,1-.3l.53.19a5.46,5.46,0,0,0,1.28.38l.43,0a5.77,5.77,0,0,0,1-.11,4.29,4.29,0,0,1,.71-.08h.2a11.52,11.52,0,0,1,2.78.89,13.37,13.37,0,0,0,3.34,1,7.65,7.65,0,0,0,1,.07,8.11,8.11,0,0,0,1.18-.09l.86-.13-.15-.86c-.81-4.66-2.92-7.45-6-7.86a1.13,1.13,0,0,1-.25-.06,2.4,2.4,0,0,1,1.25-.68,3,3,0,0,0,2.45-2.75,13.19,13.19,0,0,0,0-2.24,11.07,11.07,0,0,1,0-1.81c.06-.46.25-1.88,3.11-1.88a10.3,10.3,0,0,1,1.35.1,17.35,17.35,0,0,1,5.7,2.55c2.22,1.46,3.52,3,3.39,4a8.2,8.2,0,0,1-.81,2.3,9.94,9.94,0,0,0-1,2.92,4.85,4.85,0,0,0,.16,2.25l.22.65.68-.08a10.43,10.43,0,0,0,3.17-1.06,7.35,7.35,0,0,1,3.07-.92,4.12,4.12,0,0,1,.54,0l.22.05c.47,1.84.88,3.82,1.22,5.9l.2,1.19,1.05-.58c2.77-1.53,5.19-8,5.51-10.4a4,4,0,0,0-.35-2.45,1.72,1.72,0,0,1-.19-1.13c.17-1.28,1.07-3.21,2-3.21h.11a5.35,5.35,0,0,1,2.15,1.33,10.74,10.74,0,0,0,1.8,1.29,13.22,13.22,0,0,1,1.57,3.6c.62,2,1.15,3.78,5.37,6.06l.7.37a10.35,10.35,0,0,0,3.44,1.34,3.72,3.72,0,0,0,.49,0,7.53,7.53,0,0,0,2.5-.57,11.83,11.83,0,0,1,1.13-.36,37.83,37.83,0,0,1,10-1.57h.45a7.23,7.23,0,0,1,.73,2,8.29,8.29,0,0,0,.93,2.41l-.06.49a8,8,0,0,1-.87,2.38,9.74,9.74,0,0,0-1,2.76,8.61,8.61,0,0,0-1.41,1.86l-.12.19-.83-.11a9.2,9.2,0,0,0-1.21-.08,10.57,10.57,0,0,0-5.53,1.88c-.42.24-.85.49-1.32.74l-.58-.28h-.84a7.62,7.62,0,0,1-1-.05,15.49,15.49,0,0,1-4.76-1.74,17,17,0,0,0-5.29-1.9l-1.62-.21-.3.32a25.38,25.38,0,0,0-2.15,2.78c-1.33,1.9-2.48,3.54-5,4.42-2.19.8-7.64,2.35-9.37,2.37h-.8l0,.8a35,35,0,0,0,1.09,9.07c.33,1.58.68,3.22.88,4.83l.1.8.8-.06c4.87-.35,6.35-4.9,7.66-8.92.72-2.21,1.4-4.3,2.53-5.49,2-2,2.69-2.06,2.72-2.06.2,0,.34.21.64.76a3.64,3.64,0,0,0,1.17,1.42c.33,1.6.77,3.56,2.53,4.52l.29.16.32-.07c.75-.17,1.49-.3,2.23-.43s1.54-.27,2.32-.45a9.27,9.27,0,0,0,2.09-.95,7.89,7.89,0,0,1,1.68-.78,23.39,23.39,0,0,1,5.2-.73,8.49,8.49,0,0,1,1.1.06,5.31,5.31,0,0,1,1.49.38,2.48,2.48,0,0,1-.19.57l-.15.39,0,.23c.16,1.09,1.25,1.29,1.74,1.37a6.94,6.94,0,0,1,.23.72l.1.35a4.87,4.87,0,0,0-1.59,2.66,2.82,2.82,0,0,0,.09,1.21,2.91,2.91,0,0,0-1,.73l-.15.18,0,.23a6,6,0,0,0,0,1.23,14.7,14.7,0,0,0-5.47,2.56l-1.07.69-.34.21-.23,1.76a1.9,1.9,0,0,0,.72,2.09l.14.08.16,0,.28,0a3.4,3.4,0,0,0,2.06-.93,2.5,2.5,0,0,1,1.4-.71H324l.15,0a6.1,6.1,0,0,1,.39,1.17,5.42,5.42,0,0,0,.86,2,3.1,3.1,0,0,0-.21.79,4.37,4.37,0,0,0,.62,2.55c.11.23.22.46.31.68a4.33,4.33,0,0,0-.69,1.88,10.46,10.46,0,0,0,.13,2.82l.05.38-.93.36A25.13,25.13,0,0,0,320,271l-.45.29.06.53a3.58,3.58,0,0,0,.14.6l.06.23a2.6,2.6,0,0,0-.19.24l-.5.75,1,.62A10.58,10.58,0,0,0,324,276a5.68,5.68,0,0,0,.75,0,11.24,11.24,0,0,0,1.9-.21,9.47,9.47,0,0,1,1.54-.18,3.52,3.52,0,0,1,.47,0,3.68,3.68,0,0,1,.86.26l-.12.2,0,.16a1.4,1.4,0,0,0,.46,1.31,4.62,4.62,0,0,0-1,.48c-1.49,1-3,3.18-4.54,5.53-1.67,2.51-3.75,5.62-5.13,5.62Zm-9.51-34.67c-1.87,0-4.68.08-5.08,3.11l-.08.57.92.52a6.85,6.85,0,0,0,2.5,1l.42,0a3.08,3.08,0,0,0,1.53-.4l.37-.21.34-2.6a5.31,5.31,0,0,0,.06-1.31l-.08-.77Zm-28.44-7a11.93,11.93,0,0,0-4.22,1.81,11,11,0,0,1-3.36,1.54l-.33.07-.19.27a12.83,12.83,0,0,0-2.24,4.35l-.11.44.31.34c1.66,1.82,3.26,2.85,4.77,3.05l.34,0a2.63,2.63,0,0,0,2.73-2,1.59,1.59,0,0,0-.07-.68,7.47,7.47,0,0,0,1.79-3.55,12.71,12.71,0,0,1,.48-1.42c.09-.18.21-.39.32-.6a5.71,5.71,0,0,0,.79-2,2.66,2.66,0,0,0,0-.49,1.5,1.5,0,0,1,0-.17l.06-1.06Zm8-18.27a17.16,17.16,0,0,0-7.1,2c-.69.3-1.39.61-2.12.9-.29.12-.59.23-.89.33a6.52,6.52,0,0,0-2.91,1.66l-.29.34.11.43a2.42,2.42,0,0,0,1.52,1.84l.42.13.35-.27c1.8-1.38,4.69-1.55,7-1.55l1.84,0,1.39,0,.25-.4a13.87,13.87,0,0,1,1.51-1.84,15.38,15.38,0,0,0,1.69-2.08l.72-1.13-2.05-.27A11.09,11.09,0,0,0,289.2,229.27Z"/><path class="cls-2" d="M231.15,303.72a3.83,3.83,0,0,1-1.33-.28l-.31-.12-.31.12a2.48,2.48,0,0,1-.83.21,2.39,2.39,0,0,1-1.13-.36l-.2-.11h-.43a1.49,1.49,0,0,0-.65.17l0,0-.7-.2a9.42,9.42,0,0,0-1.2-.32,21.53,21.53,0,0,0-3.71-.35h-2.41a8.85,8.85,0,0,1-1.9-3.63,17.25,17.25,0,0,0-1.07-2.58c0-.88-.08-1.75-.14-2.59s-.13-1.75-.13-2.59c0-.36,0-.72,0-1.05l.23,0a1.56,1.56,0,0,1,.26,0h.48l.22-.16a3.58,3.58,0,0,0,.65-.63,1.19,1.19,0,0,1,.38-.35l.46-.17.08-.48a2.84,2.84,0,0,1,.69-1.29,5.41,5.41,0,0,0,.81-1.31l.21-.52-.27-.27c.33-.25.7-.49,1.08-.72s.79-.49,1.14-.76a13.65,13.65,0,0,0,1.26-1.14,6.84,6.84,0,0,1,1.89-1.47l.52-.24,0-.58a3.55,3.55,0,0,0-1.08-2.25,2.4,2.4,0,0,1-.81-1.7,1.74,1.74,0,0,0-.91-1.57,1.06,1.06,0,0,1-.28-.22,5.18,5.18,0,0,1-.54-1,4.09,4.09,0,0,0-1.75-2.24,3.9,3.9,0,0,0-.92-1.35,1.68,1.68,0,0,1-.61-1.45,5.88,5.88,0,0,0-.23-1.46,4.42,4.42,0,0,1-.18-1c0-.79,1.1-2.29,1.75-3.19l.47-.66a16.38,16.38,0,0,1,3.34-4l-.3.89,2.18-1.64a1.06,1.06,0,0,1,.23-.14l.18.36.7-.22a19.2,19.2,0,0,0,2.33-1,9.18,9.18,0,0,1,3.77-1.2,8,8,0,0,1,2.2.44,11.58,11.58,0,0,0,2.33.51,15.51,15.51,0,0,1,5.71,1.92l1.39.67a2.67,2.67,0,0,0,.31.62l.16.24.28.09.25.09a2.63,2.63,0,0,0,1,.22,1.71,1.71,0,0,0,.89.82,2.11,2.11,0,0,0,.48.69l0,0v.25a4.84,4.84,0,0,0,1.73,3.1,4.43,4.43,0,0,1,.84,1c0,.28-.21.54-.55.94a4.52,4.52,0,0,0-.77,1.15,2.5,2.5,0,0,0-1.08,1.44,2.51,2.51,0,0,1-.26.54,1.32,1.32,0,0,1-.37.3,3.09,3.09,0,0,0-.76.62c-.33.36-.67.76-1,1.17a21.33,21.33,0,0,1-2.66,2.78l-.48.36a5.32,5.32,0,0,0-1.44,1.34c-1.17.38-2.39,1.21-2.39,2.48,0,1,.94,1.62,1.69,2.13a4.64,4.64,0,0,1,.62.46,9.53,9.53,0,0,1,.65.88,5.49,5.49,0,0,0,2.21,2.2l.54.19.38-.43c1-1.14,2-2.33,2.95-3.49s1.85-2.25,2.82-3.34l.54-.16,1.13-.32c.69-.19,1.41-.39,2.13-.63l.22.09a2.79,2.79,0,0,0,.95.27,24.73,24.73,0,0,0,3.47,2.65c.17.11.46.26.8.44.55.29,2.22,1.17,2.4,1.62h0s-.07.09-.09.16a2.18,2.18,0,0,0-.25.93,2.92,2.92,0,0,0,.22,1,1.81,1.81,0,0,1,.12.42,3.7,3.7,0,0,1-.17.88,7.43,7.43,0,0,0-.21.94,2.82,2.82,0,0,0-1.71,2.51l-.71-.15-.29.58c-.1.19-.45.81-1,.81-.81,0-1.43-.65-2.08-1.33a3.69,3.69,0,0,0-2.52-1.51c-1.65,0-2.88,3.24-2.88,4.1,0,2,5.54,5.3,7,5.45l.27,0c1.82.18,2.34.45,2.34,1.22a1,1,0,0,1-.29.68c-1.57,1.85-3.57,2.16-5.88,2.52a19.23,19.23,0,0,0-3.83.87,4.57,4.57,0,0,0-.53.22,1,1,0,0,1-.59.13c-2.14,0-5.62-1.55-7.54-3l-.3-.23-.38.08a5.1,5.1,0,0,0-2.81,1.87,6.71,6.71,0,0,1-1.09,1,5.13,5.13,0,0,1-1.09.54,4.3,4.3,0,0,0-2.17,1.5l-.09,0A9.19,9.19,0,0,1,231.15,303.72Zm-1.56-17.52c-1.38,0-2.42,1.17-3.34,2.21a7.64,7.64,0,0,1-1.19,1.18l-1,.7,1,.71a10.42,10.42,0,0,0,3,1.27l.81.25.37.12.34-.2a7.92,7.92,0,0,1,1-.48,4.86,4.86,0,0,0,2.27-1.51l.44-.62-.57-.51a6.05,6.05,0,0,1-.63-.91C231.45,287.37,230.72,286.19,229.59,286.19Zm1.19-15.54a1.27,1.27,0,0,0,0,.15,2.58,2.58,0,0,0,1.67,2.14l.43.18.39-.26a26,26,0,0,0,6-6.42l.44-.59-.52-.52a1,1,0,0,0-.44-.26,2.43,2.43,0,0,1,.59-.93,4.93,4.93,0,0,0,.84-1.24l.34-.78-.78-.34a9.82,9.82,0,0,0-3.86-1.09,3.89,3.89,0,0,0-1.1.17,1.14,1.14,0,0,0-.93-.44h-.41l-.21.26-.13,0a2,2,0,0,0-.77.25,2.76,2.76,0,0,0-1,1.24,3.14,3.14,0,0,1-.25.44,8.48,8.48,0,0,1-1,1,4.63,4.63,0,0,0-2,3.33,2.49,2.49,0,0,0,.89,1.81,1.54,1.54,0,0,1,.54.83l.07.43.61.3A4.07,4.07,0,0,1,230.78,270.65Z"/><path class="cls-2" d="M122.39,287.86a11.25,11.25,0,0,1-1.9-.31,25.6,25.6,0,0,0-5.6-.69c-.46,0-.94,0-1.44,0s-1.15.08-1.72.08h-.43a2.62,2.62,0,0,1-.34-1.23c-.11-1.64.7-4.73,1.55-8,1.29-4.94,2.9-11.1,2.53-16.68a13.35,13.35,0,0,0-4.24-9.15l-1.24-1.25-1.67.55a12.82,12.82,0,0,0-4.81,3.09,7.1,7.1,0,0,1-3.18,2l-.51-.69c-1.66-2.26-4.55-2.29-6.67-2.31H92a10.82,10.82,0,0,0-2.84-2,14.06,14.06,0,0,0-2.54-4,8.63,8.63,0,0,0,.18-2.3c-.22-3.28-2.11-5.5-4.26-7.23h.16a6.58,6.58,0,0,0,3.07-.81l1.51-.88-.09-1.42a19.49,19.49,0,0,0,3,.27l.83,0c11-.73,14.87-12.4,17.71-20.92.79-2.35,1.53-4.58,2.31-6.34l.76-1.69a8.27,8.27,0,0,0,1.9-4.35l.64-4.85-4.53,1.85c-1.16.47-4.69,1.92-5.06,6.15v0c-1.12.43-2.21.88-3.28,1.31a52.35,52.35,0,0,1-9.15,3.11l-.93.19-.63.71a8.74,8.74,0,0,1-2.5,1.7c-.37.2-.76.41-1.17.65a10.88,10.88,0,0,0-1.14-.06l-.6,0a19.09,19.09,0,0,0-2.24.32,14.64,14.64,0,0,1-1.58.24h-.23a5.47,5.47,0,0,1-.61,0,5.12,5.12,0,0,1-1.5-3.62c-.17-2.61,2-13.62,3.16-15.7.49-.94,1.45-1.5,3-2.35a20,20,0,0,0,2.88-1.82c4.28-.46,6.59-2.46,8.64-4.23a15.3,15.3,0,0,1,3.75-2.63l1.57-.71.09-1.73c.09-1.81.17-3.64.24-5.46.23-5.63.48-11.44,1.24-17.09a1.17,1.17,0,0,1,.38-.09h0c1.26,0,2.88,1.39,4.19,2.5.37.31.72.62,1.06.89a24.64,24.64,0,0,0,3.19,2.08,15.56,15.56,0,0,1,2.93,2c3,2.81,4.2,6.9,5.52,11.23.18.6.37,1.21.55,1.8l1.07,3.4,2.79-1.64h.28a5.48,5.48,0,0,1,1.46.28,10.56,10.56,0,0,0,3,.49h.45l.23.21a5.78,5.78,0,0,0,3.71,1.83l1.69.07.87-1.45a54.06,54.06,0,0,0,3.2-6.48c2.06-2,3.26-4.66,4.41-7.25,1.93-4.32,3.18-6.78,6.45-7h0c.61,0,1.23.61,2.2,1.62,1.47,1.53,3.49,3.63,6.88,3.63l.54,0a28.5,28.5,0,0,0,8.3-2.2,24.44,24.44,0,0,1,6.88-1.89h.16a8.61,8.61,0,0,1,1.06.1,13.38,13.38,0,0,0,1.8.15l.54,0a9.43,9.43,0,0,0,5-2.22,7.19,7.19,0,0,1,3.85-1.77l.56,0a22.4,22.4,0,0,1,2.68.23l1.19.14c.11.36.24.73.4,1.1l.77,1.89,2.34-.16h.25c.64,0,2.6,0,3.62,5.44.44,2.44,1.89,5.55,3.29,8.55a32.22,32.22,0,0,1,2.27,5.58,7.36,7.36,0,0,1-.62,1.82,19.12,19.12,0,0,0-1.74,9.31c.15,2.33.47,4.63.77,6.87s.59,4.35.73,6.48a16.24,16.24,0,0,1-1.37,8.59c-.44,1.16-.95,2.48-1.47,4.19l-.24.78.27,1c-.62.45-1.2.94-1.77,1.41-1.25,1.05-2.44,2-3.45,2.11l-.63,0h-.15l-.62-.26-.62.06a3.38,3.38,0,0,0-2,.8l-.06.05a8,8,0,0,0-1.46-.14h-.45a7.35,7.35,0,0,0-1.57.28l-.51-.45-1.17.08a12.43,12.43,0,0,0-7.16,2.69,9,9,0,0,0-3.19,7.64,14.39,14.39,0,0,0,1,3.92l.81,2.25,2.37-.38c4.45-.79,8.7-3,12.81-5.12s8-4.12,11.29-4.34l.69,0a8.59,8.59,0,0,1,2.05.24,12.58,12.58,0,0,0,2,1.88l.13.1a5,5,0,0,0,0,.67,6.42,6.42,0,0,0,1.17,3.2,37.14,37.14,0,0,0-2.52,11.3l-.3.11a3.35,3.35,0,0,0-1.58-.38H207l-1,.06-.72.64a7.79,7.79,0,0,1-4.61,2.19c-.34,0-.65,0-.93,0a2.26,2.26,0,0,1-.39,0l-6-1.08,3.11,5.3c.86,1.46,4.49,4.36,16.9,13.48l2.69,2a4.34,4.34,0,0,0,.23.87,14.7,14.7,0,0,0-5,2.19,11.94,11.94,0,0,1-6.41,2.15,13,13,0,0,0-5.41,1.44c-.37,0-.75,0-1.15,0-.62,0-1.24,0-1.86.08s-1,.07-1.5.07a3.65,3.65,0,0,1-1.78-.33c-.78-.4-1.11-1.32-1.65-3.19-.6-2.09-1.36-4.68-3.87-6.34l-3.6-2.38-.76,4.25a10.34,10.34,0,0,0-.22,2.55,26.39,26.39,0,0,0,.69,4.1,21.84,21.84,0,0,1,.57,3.23,6,6,0,0,1-.13,1.29,4.55,4.55,0,0,0-.66,0h-.31c-1.31.09-2.67.78-5.54,3.92l-6.07.4a17.77,17.77,0,0,0-4.65.75c.09-.53.23-1.1.37-1.69a17.56,17.56,0,0,0,.67-5.4,37.14,37.14,0,0,0-1.87-8.41l-.91-3-2.87,1.18a8.11,8.11,0,0,0-4.94,6.39,16.12,16.12,0,0,0-3.12,3.95,19.84,19.84,0,0,1-1.21,1.8,37.52,37.52,0,0,0-5.84,3c-.89-.29-1.77-.5-2.58-.69a16.46,16.46,0,0,1-2.93-.87,11.25,11.25,0,0,0-4.08-3.81A16.57,16.57,0,0,1,136,276.3l.82-1.44-1-1.46A9.51,9.51,0,0,0,134,271.2a3.78,3.78,0,0,0,.42-2,3.74,3.74,0,0,0-.05-.43,32.06,32.06,0,0,0,11.45-5.59l1.35-1.11,2.32-.15a6.42,6.42,0,0,0,5.8-6l.38-3.37-3.39.22a6.84,6.84,0,0,0-6.09,5.75l-1.57-.34c-3.56-.78-4.81-5.63-5-8.38a15.88,15.88,0,0,1,.45-5l.8-3.06-3.13-.46-1.23-.16c-1.55-.19-3.47-.43-4.34-1.11l-1.83-1.46-1.78,1.52a10.2,10.2,0,0,0-3.44,5.4l-.38,1.65.11.1v.33c-.06,1.42-.17,2.87-.28,4.27a61.16,61.16,0,0,0-.25,8.89,16.93,16.93,0,0,0,1.86,7.45,4.62,4.62,0,0,0-.05,1.08l0,.55.24.49a4.52,4.52,0,0,0,.79,1.15l-.73.51.14,2.06a5.49,5.49,0,0,0,1,2.89,6.14,6.14,0,0,0-.25,2.15,7.29,7.29,0,0,0,.38,1.93c-1.23,3.27-3.61,6.73-5.3,6.84Zm17.27-54.33a5.06,5.06,0,0,0-.71,2.76,4,4,0,0,0,3.27,3.56l2.37.61.95-2.26c.11-.27.22-.55.33-.84a6.64,6.64,0,0,1,.52-1.19l2.62-1-1-2.68c-1-2.64-2.94-7.55-7.91-8.61l-1.63-.35-1.1,1.25a5,5,0,0,0-1.37,3.65c.16,2.37,1.9,3.69,3.06,4.57C139.2,233.17,139.46,233.36,139.66,233.53Zm13.75,6.5,3.14-.21a3.48,3.48,0,0,0,1.94-.75,15.14,15.14,0,0,0,3.36.35c.5,0,1,0,1.47-.05a21.82,21.82,0,0,0,3.36-.57l2-.47.16-2.07c.05-.7.14-1.38.23-2.06a23.61,23.61,0,0,0,.28-4.71l-.21-3.11-2-.52a8.84,8.84,0,0,0-2.12-.3h-.35c-3.9.26-5.59,3.7-6.59,6.12a3.77,3.77,0,0,0-.92.43l-2.77-1.16-.8,3.12-.09.21a4.85,4.85,0,0,0-.52,2.31,3.4,3.4,0,0,0,.22,1ZM131,208.56c-3.64.75-5.07,3.47-6.13,5.49a16.25,16.25,0,0,1-1.06,1.83l-1.65,2.33,2.35,1.63a8.71,8.71,0,0,0,4.27,1.7l1.26.1.91-.88a31.26,31.26,0,0,0,4-5.1,29.62,29.62,0,0,1,3.14-4.08,11.16,11.16,0,0,1,1.13-.94,8.68,8.68,0,0,0,3.26-3.85l1.54-4.11-4.69.31c-3.39.23-5.39,2.41-7,4.16C131.95,207.65,131.49,208.15,131,208.56Zm49.52-5c-.94.17-4,1.09-3.69,5.85,0,.3.54,7.3,4.8,7.31h.23c1.22-.08,4-.81,3.69-5.86-.09-1.32-.58-5.72-3.29-7l-.83-.4ZM161,199.7h-.34a7.05,7.05,0,0,0-2.25.6l-1.89.77.17,2.5a19.11,19.11,0,0,1-.15,3,23.62,23.62,0,0,0-.16,4,9.53,9.53,0,0,0,1.2,4.29l.23.39.34.3a3.3,3.3,0,0,0,2.25.83l.44,0c1.57-.1,3.68-1.11,4.78-5.31a18.72,18.72,0,0,0,.62-5.15C166,202.13,164,199.7,161,199.7Zm14.55-21.23a29.73,29.73,0,0,0-.93,8.94l.24,3.59,1.61.68a4.45,4.45,0,0,0,1.76.32c.25,0,.51,0,.77,0a11.14,11.14,0,0,0,4.14-1.29l.62-.29,3.45-1.56L184.76,186a8.42,8.42,0,0,1-1-2.79c-.59-2.28-1.33-5.11-4.09-6.55l-3.22-1.69Zm-17.3.25-.52,0a5.35,5.35,0,0,0-2.47.62l-1,.59-.3,1.13a6.85,6.85,0,0,0-.15,2.3,15.57,15.57,0,0,0,.87,3.86c.16.49.32,1,.45,1.51l.34,1.37,1.31.55a4.45,4.45,0,0,0,1.76.32l.62,0a10.58,10.58,0,0,0,3.47-.84l1.65-.68.1-1.78a11.18,11.18,0,0,1,.16-1.16,11.35,11.35,0,0,0,.22-2.77,7.3,7.3,0,0,0-.62-2.41l-.41-1-1-.47A10.33,10.33,0,0,0,158.27,178.72Z"/><path class="cls-2" d="M195.25,366.12c-.71-.06-1.27-.92-1.73-1.62l-.33-.5-.63.08-.2,0-.42,0c-.72-.06-1.2-.76-1.91-1.9a6.63,6.63,0,0,0-3.47-3.26,2.71,2.71,0,0,0-2.37-1.25H184c-1.6,0-3.64,1.73-5.81,3.57a24.9,24.9,0,0,1-3.79,2.85,1.29,1.29,0,0,0-.48-.64l-.09-.05c-.39-.21-.83-.4-1.26-.59l.48-.27-.27-.69a1.33,1.33,0,0,0-1.14-.84h-.13a2.53,2.53,0,0,0-.71.12l-.25.06c-.87-.07-2.27-1.39-3.51-2.55a17.57,17.57,0,0,0-3.17-2.57c0-.28-.11-.57-.17-.85a13.16,13.16,0,0,1-.25-1.46h.85l.61,0,.27-.23a1,1,0,0,0,.4-.7,1.71,1.71,0,0,0,.67-.37l.27-.23,0-.35a1.74,1.74,0,0,0-.95-1.53,15.93,15.93,0,0,0,6.95,2.52h.11a1.18,1.18,0,0,0,1.17-1.05,6.4,6.4,0,0,0,4.21-1.65l.55-.56-.51-.6a1.31,1.31,0,0,0-.92-.41H177a2.88,2.88,0,0,0-1.2.31,1.51,1.51,0,0,1-.51.17c-.78-.06-1.12-2.31-1.37-3.95-.36-2.36-.73-4.79-2.32-5.7l-.16-.09-.45,0-.4,0a10.38,10.38,0,0,0-1.66.18,9.44,9.44,0,0,1-1.48.16h-.31a1.1,1.1,0,0,1-.62-.23l-.41-.36-.5.23a4.61,4.61,0,0,0-2.11,2.52c-.47,1-.79,1.58-1.48,1.76l-.46.12-.14.46a9,9,0,0,1-.7,1.59,8.26,8.26,0,0,0-1,2.82,19.54,19.54,0,0,0-2.69,3.77c-1.57,2.61-3.06,5.07-5.63,5.07h-.35a3.43,3.43,0,0,1-1.23-.36,7,7,0,0,0-2.51-.65,2.43,2.43,0,0,1-.83-.38,5.06,5.06,0,0,0-1.48-.66,3,3,0,0,0-.37-.47h0l.13-.12-.15-.59a6.52,6.52,0,0,0-.85-1.55c-.28-.39-.4-.56-.23-2.6a3.3,3.3,0,0,1,.37-1.59l.19-.28-.06-.34a2.65,2.65,0,0,0-.31-.81l0,0a4.79,4.79,0,0,1,.48-.91,5.33,5.33,0,0,0,.92-2.31v-.08l-.15-1.27-.89,0c-2.42,0-4.4,1.1-6.32,2.16l-1.13.62a1.87,1.87,0,0,1-1-.72l-.23-.37-1.23-.1a4,4,0,0,1-1.09-.34l-.33-.13a2.87,2.87,0,0,0-1.59-1.86h0a3.77,3.77,0,0,0-1.25-2.33c-.16-.16-.31-.32-.44-.49a2.11,2.11,0,0,0,.17-.67,4.16,4.16,0,0,0-.24-1.57,2.73,2.73,0,0,1-.18-.95,1,1,0,0,1,.32-.62l.38-.43-.26-.51a13.64,13.64,0,0,1-1.11-5.08c0-.43-.08-.87-.13-1.31a1.49,1.49,0,0,0-.1-.45,22.72,22.72,0,0,1,3,1.13,16.25,16.25,0,0,0,5,1.52l.6,0c3.27,0,4.64-2.35,5.46-4.4.15-.42.32-.85.5-1.29a15,15,0,0,0,1.05-3.23c0-.47.05-.9.07-1.34s0-.81.05-1.2a3.08,3.08,0,0,1,.51-1.69l.66-.79-.9-.5a19.48,19.48,0,0,0-5.6-1.82c-4-.87-7-1.5-6.51-7.1a13.77,13.77,0,0,1,.36-2.19l.32-.22.08-.06.68.8.54-1.27c.31-.72,1-1,2.16-1.37.32-.1.65-.21,1-.34l.51.16a5.33,5.33,0,0,0,1.26.31h.25a5,5,0,0,0,1.13-.16,3.49,3.49,0,0,1,.75-.12h.11a11.13,11.13,0,0,1,2.73.72,13,13,0,0,0,3.28.84l.6,0a7.66,7.66,0,0,0,1.51-.15l.85-.17-.19-.85c-1-4.48-3.2-7.08-6.18-7.32l-.21,0a2.34,2.34,0,0,1,1.14-.68,2.91,2.91,0,0,0,2.25-2.8,12.78,12.78,0,0,0-.06-2.17,10.85,10.85,0,0,1-.06-1.75c0-.48.16-2,3.33-2,.29,0,.59,0,.87,0a16.77,16.77,0,0,1,5.62,2.18c2.21,1.3,3.53,2.7,3.46,3.66a7.91,7.91,0,0,1-.67,2.25,9.65,9.65,0,0,0-.82,2.88,4.74,4.74,0,0,0,.27,2.18l.26.64.68-.12a10.11,10.11,0,0,0,3-1.18,6.69,6.69,0,0,1,3.11-1h.33l.2,0c.54,1.75,1,3.64,1.46,5.63l.26,1.18,1-.64c2.62-1.62,4.64-8,4.83-10.34a3.86,3.86,0,0,0-.46-2.37,1.64,1.64,0,0,1-.24-1.07c.1-1.26.88-3.18,1.83-3.18a5,5,0,0,1,2.2,1.18,10.44,10.44,0,0,0,1.81,1.16,12.78,12.78,0,0,1,1.69,3.4c.7,1.93,1.3,3.61,5.51,5.61l.69.32a10.07,10.07,0,0,0,3.41,1.14H191a6.82,6.82,0,0,0,2.59-.68,11.33,11.33,0,0,1,1.08-.4,35.37,35.37,0,0,1,10-2,7,7,0,0,1,.79,1.84,8.07,8.07,0,0,0,1,2.28l0,.47a7.69,7.69,0,0,1-.72,2.34,9.48,9.48,0,0,0-.84,2.72,8.4,8.4,0,0,0-1.27,1.86l-.1.17-.79-.06c-.26,0-.51,0-.75,0-2.41,0-4,1-5.69,2.1-.39.25-.79.51-1.23.77l-.57-.24-.21,0c-.35,0-.74.06-1.11.06l-.44,0a15,15,0,0,1-4.68-1.45,16.49,16.49,0,0,0-5.21-1.58l-1.59-.13-.28.34a24.61,24.61,0,0,0-1.95,2.79c-1.19,1.9-2.22,3.54-4.56,4.5-2.08.88-7.27,2.65-8.94,2.75l-.8,0v.8a33.83,33.83,0,0,0,1.5,8.73c.4,1.51.81,3.07,1.09,4.62l.14.79.8-.1c4.71-.58,5.92-5.06,7-9,.58-2.17,1.14-4.22,2.17-5.42,1.83-2.07,2.5-2.11,2.51-2.11.18,0,.32.19.63.69a3.61,3.61,0,0,0,1.2,1.32c.4,1.54.93,3.4,2.68,4.26l.29.14.31-.09c.71-.2,1.42-.36,2.13-.52s1.48-.33,2.22-.55a9,9,0,0,0,2-1,7.6,7.6,0,0,1,1.58-.84,20.92,20.92,0,0,1,5.49-1l.57,0a5.18,5.18,0,0,1,1.43.29,2.48,2.48,0,0,1-.15.53l-.13.39,0,.22c.21,1.05,1.27,1.2,1.76,1.26a6.61,6.61,0,0,1,.25.67l.11.32a4.72,4.72,0,0,0-1.4,2.65,2.78,2.78,0,0,0,.14,1.15,2.86,2.86,0,0,0-.88.75l-.14.19,0,.24a5.74,5.74,0,0,0,0,1.17,14.28,14.28,0,0,0-5.15,2.74l-1,.72-.33.23-.14,1.72a1.86,1.86,0,0,0,.81,2l.15.07h.34a3.19,3.19,0,0,0,2.07-1c.54-.46.91-.75,1.36-.75l.23,0a6,6,0,0,1,.43,1.09,5.31,5.31,0,0,0,.93,1.92,3,3,0,0,0-.16.76,4.25,4.25,0,0,0,.73,2.45c.12.22.23.42.33.63a4.23,4.23,0,0,0-.57,1.85,10.18,10.18,0,0,0,.26,2.72l.06.35-.87.38a24.29,24.29,0,0,0-4.43,2.34l-.43.31.09.52a3.47,3.47,0,0,0,.17.58l.07.2a2.43,2.43,0,0,0-.17.23l-.46.77,1.06.56a10.25,10.25,0,0,0,3.86,1.42l.43,0a9.63,9.63,0,0,0,2.13-.3,7.94,7.94,0,0,1,1.67-.25h.26a3.44,3.44,0,0,1,.81.19l-.09.18v.16a1.38,1.38,0,0,0,.48,1.24,4.46,4.46,0,0,0-.86.49c-1.4,1-2.72,3.22-4.12,5.58-1.51,2.53-3.38,5.67-4.7,5.67Zm-38.74-38.4a11.56,11.56,0,0,0-4,2,10.68,10.68,0,0,1-3.17,1.65l-.32.08-.18.28a12.41,12.41,0,0,0-2,4.32l-.09.45.32.32c1.69,1.69,3.3,2.6,4.78,2.72h.2a2.58,2.58,0,0,0,2.7-2.14,1.55,1.55,0,0,0-.1-.65,7.29,7.29,0,0,0,1.55-3.52,12.15,12.15,0,0,1,.39-1.39c.08-.18.18-.38.28-.59a5.53,5.53,0,0,0,.67-2,2.62,2.62,0,0,0,0-.48,1.39,1.39,0,0,1,0-.16v-1.05Zm27.85,5.36c-1.81.12-4.55.31-4.79,3.28l0,.57.93.47a6.66,6.66,0,0,0,2.48.88h.26a3,3,0,0,0,1.63-.47l.36-.23.21-2.54a5.12,5.12,0,0,0,0-1.27l-.13-.76Zm-20.43-23.43c-2.81,0-5,1.1-7.31,2.26-.65.33-1.31.66-2,1-.28.13-.56.25-.84.36A6.31,6.31,0,0,0,151,315l-.28.35.13.43a2.37,2.37,0,0,0,1.58,1.72l.42.11.33-.28c2-1.72,5.58-1.82,8.45-1.9l1.37,0,.23-.41a13.39,13.39,0,0,1,1.37-1.85,14.88,14.88,0,0,0,1.53-2.09l.66-1.16-2-.17Q164.35,309.64,163.92,309.65Z"/></svg>