<svg id="レイヤー_1" data-name="レイヤー 1" xmlns="http://www.w3.org/2000/svg" viewBox="0 0 425.2 425.2"><defs><style>.cls-1{fill:#bc8b34;}.cls-2{fill:#231815;}.cls-3,.cls-5{fill:#fff;}.cls-4{fill:#e60012;}.cls-5{font-size:13px;font-family:Bebas, Bebas;letter-spacing:0.5em;}</style></defs><title>紅白</title><rect class="cls-1" width="425.2" height="425.2"/><path class="cls-2" d="M292.7,326.7q-8.95,1.88-12.73-2.17a9.08,9.08,0,0,1-2.35-5.39l-1.55,1.45a58.35,58.35,0,0,0-7.74,8.67,41.47,41.47,0,0,0-3.91,6.21,14.26,14.26,0,0,0-1,2.68l-.12.11-1.83-.53v-.23a43.47,43.47,0,0,1,3.72-7.48,19.85,19.85,0,0,1-4.5-3.39,8.85,8.85,0,0,1-2.65-6.78,10.88,10.88,0,0,1,1.82-5.82l1.8-2.13a19.62,19.62,0,0,1,3.92,3.25A10.32,10.32,0,0,1,268,326.3a57.63,57.63,0,0,1,6.36-7q2.38-2.22,3.93-3.44a6.57,6.57,0,0,1-2.14-1.57,13.4,13.4,0,0,1-3.32-5.6,7.55,7.55,0,0,1,.24-5.13A21.33,21.33,0,0,1,275,300a15.43,15.43,0,0,1,2.1-2.41l.48-.44q8.06,10.32,4.05,16.06,1.66-1.32,6-4.17t5-3.17q-5.61-7.92,1.55-14.6l3.2-2.31q5.13,9.26-.6,14.6l-.25.23q5.52-2.69,12.35-5.49-7-8.85,1.06-16.37l3.83-2.9q3.85,5.55,2.79,10.11a15,15,0,0,1-4.47,7.74l9.82-4.37a70.78,70.78,0,0,0,7.55-3.36l-1.24-1.33a11.34,11.34,0,0,1-3.43-7.63q-.06-4,1.27-5.93a20.68,20.68,0,0,1,2.88-3.37l.48-.45Q338,281.57,333.08,287a88.45,88.45,0,0,0,14.17-9.43,12.76,12.76,0,0,1-3.26-2.54,8.87,8.87,0,0,1-2.44-6,13.21,13.21,0,0,1,.89-5.74l.88-2.16a21.37,21.37,0,0,1,5.17,3.87q4.12,4.41,2,9.76l1.43-1.33a112.94,112.94,0,0,0,9-9.49,10.67,10.67,0,0,1-7.5-3.26,10.29,10.29,0,0,1-2.38-4.47,12.7,12.7,0,0,1-.54-4.4l.18-2q6.43.92,9.21,3.9,3.34,3.58,1.75,9.29a90.22,90.22,0,0,0,7.91-11.84,13.46,13.46,0,0,1-7.37-3.83,8.64,8.64,0,0,1-2.35-5.39,12.26,12.26,0,0,1,.53-5.17l.87-1.93q5.14,1.45,7.59,4.07a9.63,9.63,0,0,1,2.46,8.85A110.37,110.37,0,0,0,376,237.44a10.13,10.13,0,0,1-7.39-3.14,10.29,10.29,0,0,1-2.38-4.58,13.57,13.57,0,0,1-.53-4.52l.06-1.84q6.31,1,9.09,4a9,9,0,0,1,2.3,6.77A134.09,134.09,0,0,0,380.49,221q-7.31,1.25-11-2.69a9.89,9.89,0,0,1-2.17-3.88,12.23,12.23,0,0,1-.67-3.95l-.06-1.5q7.88-.88,11.54,3.06a12.33,12.33,0,0,1,2.91,6,100.48,100.48,0,0,0,.94-13.81q-7.88,1.11-11.55-2.83a8.28,8.28,0,0,1-1.9-3.35,10.21,10.21,0,0,1-.53-3.08l-.07-1.27q6.86-1.72,10.76,2.45a15.78,15.78,0,0,1,3.24,6.34,85.65,85.65,0,0,0-6.84-32l.09.81q-9.24,6.83-16-.44l-2.53-3.66q12-5.35,16.62-.34a2.3,2.3,0,0,1,.27.41,2.6,2.6,0,0,0,.38.53l-2.26-4.58,1.53-1a38.56,38.56,0,0,1,2.27,4.35q-.4-5.2,2.71-8.1a10.47,10.47,0,0,1,3.59-2.12,17.75,17.75,0,0,1,3.55-1l1.39-.18q1.68,8.25-2.74,12.36a11.5,11.5,0,0,1-6.68,3.11A91.43,91.43,0,0,1,381,181.89a12,12,0,0,1,3.24-6.81,9.86,9.86,0,0,1,4.41-2.33,13.08,13.08,0,0,1,4.34-.48l1.72.18q-1.56,8.37-5.14,11.7a6.84,6.84,0,0,1-7.67,1.58A85.9,85.9,0,0,1,383.72,201a12,12,0,0,1,2.55-3.72,10.14,10.14,0,0,1,4.64-2.43,13.94,13.94,0,0,1,4.46-.48l1.84.06q-.79,6.09-3.89,9a8.82,8.82,0,0,1-9.41,1.86,96.12,96.12,0,0,1-6.09,32.43l-.25.68a10.78,10.78,0,0,1,1.93-2.47,8.69,8.69,0,0,1,5.85-2.33,13.27,13.27,0,0,1,5.74.89l2.16.88a24.14,24.14,0,0,1-3.88,5.4,8.47,8.47,0,0,1-5.68,2.51,9.69,9.69,0,0,1-4.59-.74,14.11,14.11,0,0,1-2.54-1.65,77.8,77.8,0,0,1-4.61,9.88q10.15-6.56,15-1.32l1.75,2.83-1.67,1.56q-8.11,7.56-16.59-.58a87.28,87.28,0,0,1-7.54,11q9-6.61,15.89.79l1.55,1.9-.83.78q-8.59,8-15.92.14a9.13,9.13,0,0,1-1.65-2.25,110.77,110.77,0,0,1-8.75,9.27l-1.67,1.56q9.61-.93,13.28,3a6.84,6.84,0,0,1,1.58,2.77,6.3,6.3,0,0,1,.31,2.61l-.15,1q-8.41,2.94-13.08-2.07a12.55,12.55,0,0,1-3.24-6.34,82.85,82.85,0,0,1-17,11.63q6.95-.68,10.17,2.78a8.83,8.83,0,0,1,2,3.41,8,8,0,0,1,.46,3.25l0,1.38q-7.3.78-11.41-3.63a13.43,13.43,0,0,1-3.29-6.16q-3,1.49-8.22,3.52l-5,2.16-4.23,1.81q6.1-.11,8.65,2.63a8.2,8.2,0,0,1,1.9,3.47,11.81,11.81,0,0,1,.52,3.42l-.16,1.26q-7.18.67-11.29-3.74a13.69,13.69,0,0,1-3.15-5.53,129.73,129.73,0,0,0-14.56,7.34q8.55-.39,11.89,3.18a6.84,6.84,0,0,1,1.58,2.77,8.37,8.37,0,0,1,.43,2.5l-.15,1q-8.64,2.93-13.2-2a14.78,14.78,0,0,1-3.14-6,106.47,106.47,0,0,0-12.3,8.57,12.17,12.17,0,0,1,8.87,3.77,12.69,12.69,0,0,1,2,2.9,11,11,0,0,1,1,2.52Zm-8.46,7.66q-9.51,8-15.73,1.3l-1.87-2.72.72-.67a9.65,9.65,0,0,1,7.2-2.92,11.07,11.07,0,0,1,5.83,1.59,22.19,22.19,0,0,1,3.42,2.95Zm97.65-110.45q1.23-5.61,4.21-8.39a9,9,0,0,1,9.06-1.76l1.71.64a11.35,11.35,0,0,1-3.25,7,10.13,10.13,0,0,1-4.87,2.43,13.38,13.38,0,0,1-4.8.35Zm-18.82-45.76q10.78-1.58,14.79,2.71a6.61,6.61,0,0,1,1.63,2.94,10,10,0,0,1,.37,2.55l-.15,1q-8.52,2.82-13.08-2.07a13,13,0,0,1-2.2-3.19,11.13,11.13,0,0,1-1.05-2.92Zm12-7.89.11.12-.12.11Z"/><path class="cls-2" d="M132.7,327.52a11,11,0,0,1,1-2.52,12.69,12.69,0,0,1,2-2.9,12.17,12.17,0,0,1,8.87-3.77,106.47,106.47,0,0,0-12.3-8.57,14.78,14.78,0,0,1-3.14,6q-4.56,4.89-13.2,2l-.15-1a8.37,8.37,0,0,1,.43-2.5,6.84,6.84,0,0,1,1.58-2.77q3.34-3.58,11.89-3.18a129.73,129.73,0,0,0-14.56-7.34,13.69,13.69,0,0,1-3.15,5.53q-4.12,4.41-11.29,3.74l-.16-1.26a11.81,11.81,0,0,1,.52-3.42A8.2,8.2,0,0,1,103,302q2.56-2.74,8.65-2.63l-4.23-1.81-5-2.16q-5.22-2-8.22-3.52a13.43,13.43,0,0,1-3.29,6.16q-4.11,4.41-11.41,3.63l0-1.38a8,8,0,0,1,.46-3.25,8.83,8.83,0,0,1,2-3.41Q85,290.19,92,290.87a82.85,82.85,0,0,1-17-11.63,12.55,12.55,0,0,1-3.24,6.34q-4.67,5-13.08,2.07l-.15-1a6.3,6.3,0,0,1,.31-2.61,6.84,6.84,0,0,1,1.58-2.77q3.67-3.93,13.28-3L72,276.69a110.77,110.77,0,0,1-8.75-9.27,9.13,9.13,0,0,1-1.65,2.25q-7.34,7.87-15.92-.14l-.83-.78,1.55-1.9q6.9-7.39,15.89-.79a87.28,87.28,0,0,1-7.54-11q-8.48,8.14-16.59.58L36.46,254l1.75-2.83q4.89-5.25,15,1.32a77.8,77.8,0,0,1-4.61-9.88,14.11,14.11,0,0,1-2.54,1.65,9.69,9.69,0,0,1-4.59.74,8.47,8.47,0,0,1-5.68-2.51,24.14,24.14,0,0,1-3.88-5.4l2.16-.88a13.27,13.27,0,0,1,5.74-.89,8.69,8.69,0,0,1,5.85,2.33,10.78,10.78,0,0,1,1.93,2.47l-.25-.68A96.12,96.12,0,0,1,41.28,207a8.82,8.82,0,0,1-9.41-1.86q-3.1-2.89-3.89-9l1.84-.06a13.94,13.94,0,0,1,4.46.48A10.14,10.14,0,0,1,38.92,199a12,12,0,0,1,2.55,3.72,85.9,85.9,0,0,1,1.77-15.29,6.84,6.84,0,0,1-7.67-1.58q-3.58-3.34-5.14-11.7l1.72-.18a13.08,13.08,0,0,1,4.34.48,9.86,9.86,0,0,1,4.41,2.33,12,12,0,0,1,3.24,6.81,91.43,91.43,0,0,1,3.76-11.21,11.5,11.5,0,0,1-6.68-3.11q-4.41-4.11-2.74-12.36l1.39.18a17.75,17.75,0,0,1,3.55,1A10.47,10.47,0,0,1,47,160.23q3.1,2.89,2.71,8.1A38.56,38.56,0,0,1,52,164l1.53,1-2.26,4.58a2.6,2.6,0,0,0,.38-.53,2.3,2.3,0,0,1,.27-.41q4.67-5,16.62.34L66,172.61q-6.78,7.28-16,.44l.09-.81a85.65,85.65,0,0,0-6.84,32,15.78,15.78,0,0,1,3.24-6.34q3.89-4.17,10.76-2.45l-.07,1.27a10.21,10.21,0,0,1-.53,3.08,8.28,8.28,0,0,1-1.9,3.35Q51.08,207,43.2,205.94a100.48,100.48,0,0,0,.94,13.81,12.33,12.33,0,0,1,2.91-6q3.67-3.93,11.54-3.06l-.06,1.5a12.23,12.23,0,0,1-.67,3.95A9.89,9.89,0,0,1,55.69,220q-3.67,3.93-11,2.69a134.09,134.09,0,0,0,3.34,13.15,9,9,0,0,1,2.3-6.77q2.78-3,9.09-4l.06,1.84a13.57,13.57,0,0,1-.53,4.52A10.29,10.29,0,0,1,56.6,236a10.13,10.13,0,0,1-7.39,3.14A110.37,110.37,0,0,0,54,249.63a9.63,9.63,0,0,1,2.46-8.85q2.44-2.62,7.59-4.07l.87,1.93a12.26,12.26,0,0,1,.53,5.17,8.64,8.64,0,0,1-2.35,5.39A13.46,13.46,0,0,1,55.69,253a90.22,90.22,0,0,0,7.91,11.84q-1.58-5.71,1.75-9.29,2.78-3,9.21-3.9l.18,2a12.7,12.7,0,0,1-.54,4.4,10.29,10.29,0,0,1-2.38,4.47,10.67,10.67,0,0,1-7.5,3.26,112.94,112.94,0,0,0,9,9.49l1.43,1.33q-2.15-5.35,2-9.76A21.37,21.37,0,0,1,81.88,263l.88,2.16a13.21,13.21,0,0,1,.89,5.74,8.87,8.87,0,0,1-2.44,6A12.76,12.76,0,0,1,78,279.36a88.45,88.45,0,0,0,14.17,9.43q-4.92-5.48,3.69-16.63l.48.45A20.68,20.68,0,0,1,99.17,276q1.33,1.92,1.27,5.93A11.34,11.34,0,0,1,97,289.52l-1.24,1.33a70.78,70.78,0,0,0,7.55,3.36l9.82,4.37a15,15,0,0,1-4.47-7.74q-1.06-4.56,2.79-10.11l3.83,2.9q8.06,7.52,1.06,16.37,6.83,2.8,12.35,5.49l-.25-.23q-5.74-5.35-.6-14.6L131,293q7.15,6.67,1.55,14.6.59.33,5,3.17t6,4.17q-4-5.74,4.05-16.06l.48.44a15.43,15.43,0,0,1,2.1,2.41,21.33,21.33,0,0,1,1.91,3.57,7.55,7.55,0,0,1,.24,5.13A13.4,13.4,0,0,1,149,316a6.57,6.57,0,0,1-2.14,1.57q1.54,1.22,3.93,3.44a57.63,57.63,0,0,1,6.36,7,10.32,10.32,0,0,1,2.38-11.16,19.62,19.62,0,0,1,3.92-3.25l1.8,2.13a10.88,10.88,0,0,1,1.82,5.82,8.85,8.85,0,0,1-2.65,6.78,19.85,19.85,0,0,1-4.5,3.39,43.47,43.47,0,0,1,3.72,7.48v.23l-1.83.53-.12-.11a14.26,14.26,0,0,0-1-2.68,41.47,41.47,0,0,0-3.91-6.21,58.35,58.35,0,0,0-7.74-8.67l-1.55-1.45a9.08,9.08,0,0,1-2.35,5.39q-3.78,4.06-12.73,2.17Zm8.7,8.12a22.19,22.19,0,0,1,3.42-2.95,11.07,11.07,0,0,1,5.83-1.59,9.65,9.65,0,0,1,7.2,2.92l.72.67-1.87,2.72q-6.23,6.68-15.73-1.3ZM41.25,226a13.38,13.38,0,0,1-4.8-.35,10.13,10.13,0,0,1-4.87-2.43,11.35,11.35,0,0,1-3.25-7l1.71-.64a8.13,8.13,0,0,1,4.31-.44,8.16,8.16,0,0,1,4.75,2.2q3,2.78,4.21,8.39Zm20.58-45a11.13,11.13,0,0,1-1.05,2.92,13,13,0,0,1-2.2,3.19Q54,191.95,45.5,189.13l-.15-1a10,10,0,0,1,.37-2.55,6.61,6.61,0,0,1,1.63-2.94q4-4.29,14.79-2.71Zm-11.72-8.7-.12-.11.11-.12Z"/><rect class="cls-3" x="196.66" y="117.36" width="154.55" height="154.55" transform="translate(-57.39 250.71) rotate(-45)"/><rect class="cls-4" x="72.03" y="118.01" width="154.55" height="154.55" transform="translate(-94.36 162.77) rotate(-45)"/><path class="cls-3" d="M123.95,177.51H134.6l3.6,28.65H127.55l-.45-3.6-7.8.15v52.65H107.9v-52.2l-19.95.6,15.3-24.9-15.9-13.65,19.8-30h13.5L102.35,163l6.6,6.15,8.85-13.5h12.15l-22.5,36.75,18.3-.45ZM88.7,247l3.15-30.75h10.5L98.9,247Zm36.6-27.6h10.5l1.5,21.6H126.8ZM181.4,239h27.3v12.15H142.55V239H169.4v-80.4H147.8V146.16h55.65v12.45h-22Z"/><path class="cls-4" d="M284.2,148h53.55V253.36h-93.6V148H268.9l10-15.92H294.1Zm41.7,14.13H256v27.37h69.9ZM256,239.23h69.9V203.64H256Z"/><text class="cls-5" transform="translate(211.54 203.64)">Kouhaku</text></svg>