<?xml version="1.0" encoding="utf-8"?>
<!-- Generator: Adobe Illustrator 20.1.0, SVG Export Plug-In . SVG Version: 6.00 Build 0)  -->
<svg version="1.1" xmlns="http://www.w3.org/2000/svg" xmlns:xlink="http://www.w3.org/1999/xlink" x="0px" y="0px"
	 viewBox="0 0 300 250" style="enable-background:new 0 0 300 250;" xml:space="preserve">
<style type="text/css">
	.st0{fill:#EF8FA2;}
	.st1{fill:#FFFFFF;}
	.st2{fill:none;stroke:#FFFFFF;stroke-miterlimit:10;}
	.st3{fill:none;stroke:#FFFFFF;stroke-width:3;stroke-miterlimit:10;}
	.st4{display:none;}
	.st5{display:inline;fill:none;stroke:#000000;stroke-width:0.3;stroke-miterlimit:10;}
</style>
<g id="レイヤー_1">
	<rect class="st0" width="300" height="249.1"/>
	<g>
		<g>
			<g>
				<path class="st1" d="M217.6,157.5c0.6-5.5,7.3-7.4,9.8-11.8c1.1-1.9,1.4-4.1,0.3-6c-1-1.8-3.1-2.8-5.1-2.7
					c-2.3,0.1-4.2,1.6-5.3,3.5c0.1,0,0.2,0,0.3,0c-1-1.8-2.7-3.2-4.8-3.5c-2-0.3-4.1,0.5-5.3,2.2c-1.3,1.8-1.2,4.2-0.2,6.1
					c1.2,2.3,3.3,3.8,5.2,5.4c2.3,1.9,4.3,4,4.8,7.1c0,0.1,0.2,0.2,0.3,0c0.5-1.1,0.4-2.4,1.1-3.5c0.8-1.3,1.9-2.3,3.1-3.1
					c2.1-1.5,4.4-2.7,5.9-4.8c1.3-1.8,1.6-4.1,0.6-6.1c-1-2-3.2-3.2-5.5-3.2c-2.6,0-4.8,1.7-5.9,3.9c0.1,0,0.2,0.1,0.3,0.1
					c-0.1-2.3-2.4-3.3-4.4-3.7c-2.1-0.4-4.3,0-5.6,1.8c-1.3,1.8-1.4,4.3-0.5,6.3c0.9,2.2,2.8,3.7,4.7,5c2.5,1.6,5.7,3.5,5.6,7
					c0,0.2,0.3,0.2,0.3,0c0.1-2.4-1.5-4.2-3.3-5.6c-2.4-1.8-5.1-3-6.6-5.7c-1.5-2.6-1.4-6.2,1.3-7.9c1.4-0.9,3.2-0.7,4.7-0.3
					c1.6,0.4,3.4,1.3,3.4,3.2c0,0.2,0.2,0.2,0.3,0.1c1.4-2.8,4.6-4.5,7.6-3.5c3.1,1,4.7,4.5,3.2,7.5c-1.4,2.7-4.3,4.1-6.6,5.8
					c-1.1,0.8-2,1.7-2.8,2.8c-0.3,0.5-0.6,1.1-0.8,1.7c-0.2,0.7-0.2,1.4-0.5,2.1c0.1,0,0.2,0,0.3,0c-0.4-2.6-1.8-4.6-3.8-6.3
					c-2.2-1.9-4.7-3.5-6.2-6c-0.7-1.3-1.1-2.9-0.7-4.4c0.4-1.6,1.6-2.8,3.1-3.4c2.9-1.1,5.7,0.5,7.2,3c0.1,0.1,0.2,0.1,0.3,0
					c1.4-2.4,4.1-4,6.9-3.1c1.5,0.5,2.8,1.7,3.3,3.2c0.5,1.5,0.2,3-0.5,4.4c-2.4,4.7-9.4,6.5-10,12.3
					C217.2,157.7,217.6,157.7,217.6,157.5L217.6,157.5z"/>
				<path class="st1" d="M217.7,42.7c-0.4-3.5-4.2-4.7-5.8-7.5c-1-1.7-0.9-4,1-5c1.8-0.9,3.6,0.2,4.5,1.8c0.1,0.1,0.2,0.1,0.3,0
					c0.9-1.6,2.7-2.7,4.5-1.8c2,1,2,3.4,1,5.1c-0.9,1.5-2.5,2.5-3.8,3.8c-1.1,1.1-1.8,2.3-2,3.8c0.1,0,0.2,0,0.3,0
					c-0.3-0.7-0.2-1.4-0.6-2.1c-0.3-0.7-0.8-1.3-1.4-1.8c-1.4-1.2-3.2-2-4.2-3.7c-1.1-1.8-0.6-4.2,1.4-5.1c1.9-0.8,3.9,0.3,4.7,2.1
					c0.1,0.2,0.3,0.1,0.3-0.1c0.1-2.2,3.8-2.8,5.2-1.5c1.4,1.4,1,3.7,0,5.2c-1.7,2.4-5.7,3.3-5.6,6.7c0,0.2,0.3,0.2,0.3,0
					c-0.1-2.7,2.6-3.7,4.3-5.2c1.4-1.2,2.4-3,2.2-4.9c-0.2-1.6-1.4-2.9-3-3c-1.6,0-3.7,0.8-3.8,2.6c0.1,0,0.2-0.1,0.3-0.1
					c-0.8-1.6-2.3-2.8-4.2-2.5c-1.7,0.2-3,1.6-3.2,3.2c-0.2,1.9,1,3.4,2.3,4.5c1,0.8,2,1.4,2.9,2.3c0.4,0.4,0.8,0.9,1,1.4
					c0.3,0.6,0.2,1.3,0.5,1.9c0.1,0.1,0.3,0.2,0.3,0c0.4-2.4,2.1-3.8,3.9-5.4c1.4-1.3,2.9-3,2.6-5.1c-0.2-1.5-1.5-2.8-3-3
					c-1.6-0.2-3,0.9-3.7,2.3c0.1,0,0.2,0,0.3,0c-0.7-1.3-2.1-2.4-3.7-2.3c-1.5,0.1-2.8,1.3-3,2.8c-0.9,4.7,5.9,6.1,6.4,10.4
					C217.4,42.9,217.7,42.9,217.7,42.7L217.7,42.7z"/>
				<path class="st1" d="M217.3,41.8c0,3.3,0,6.6,0,9.9c0,7.8,0,15.7,0,23.5c0,9.5,0,19,0,28.6c0,8.2,0,16.4,0,24.6
					c0,2.7,0,5.4,0,8.1c0,1.2-0.2,2.6,0,3.9c0,0.1,0,0.1,0,0.2c0,0.2,0.3,0.2,0.3,0c0-3.3,0-6.6,0-9.9c0-7.8,0-15.7,0-23.5
					c0-9.5,0-19,0-28.6c0-8.2,0-16.4,0-24.6c0-2.7,0-5.4,0-8.1c0-1.2,0.2-2.6,0-3.9c0-0.1,0-0.1,0-0.2
					C217.7,41.6,217.3,41.6,217.3,41.8L217.3,41.8z"/>
				<path class="st1" d="M222.9,137.5c1.7,2.7,3.2,5.5,4.5,8.5c0.1,0.2,0.4,0,0.3-0.2c-1.3-2.9-2.8-5.8-4.5-8.5
					C223,137.1,222.7,137.3,222.9,137.5L222.9,137.5z"/>
				<path class="st1" d="M224.9,137.9c1.3,2,2.4,4,3.3,6.2c0.1,0.2,0.4,0,0.3-0.2c-0.9-2.1-2-4.2-3.3-6.2
					C225.1,137.5,224.8,137.7,224.9,137.9L224.9,137.9z"/>
				<path class="st1" d="M221,137.8c1.7,3.3,3.4,6.6,5,9.9c0.1,0.2,0.4,0,0.3-0.2c-1.7-3.3-3.4-6.6-5-9.9
					C221.2,137.5,220.9,137.6,221,137.8L221,137.8z"/>
				<path class="st1" d="M219.5,138.6c1.8,3.4,3.5,6.8,5.3,10.2c0.1,0.2,0.4,0,0.3-0.2c-1.8-3.4-3.5-6.8-5.3-10.2
					C219.7,138.2,219.4,138.4,219.5,138.6L219.5,138.6z"/>
				<path class="st1" d="M217.5,139.8c1.9,3.3,3.7,6.7,5.6,10c0.1,0.2,0.4,0,0.3-0.2c-1.9-3.3-3.7-6.7-5.6-10
					C217.7,139.5,217.4,139.6,217.5,139.8L217.5,139.8z"/>
				<path class="st1" d="M215.1,138.6c1.8,4.3,4.3,8.3,6.7,12.3c0.1,0.2,0.4,0,0.3-0.2c-2.4-4-4.8-8-6.6-12.2
					C215.3,138.3,215,138.4,215.1,138.6L215.1,138.6z"/>
				<path class="st1" d="M212.2,137.7c2.7,4.8,5.4,9.6,8,14.4c0.1,0.2,0.4,0,0.3-0.2c-2.7-4.8-5.4-9.6-8-14.4
					C212.4,137.4,212.1,137.5,212.2,137.7L212.2,137.7z"/>
				<path class="st1" d="M209.9,137.9c3,5.2,6,10.5,9,15.7c0.1,0.2,0.4,0,0.3-0.2c-3-5.2-6-10.5-9-15.7
					C210,137.5,209.7,137.7,209.9,137.9L209.9,137.9z"/>
				<path class="st1" d="M207.7,139.2c3.3,5.4,6.8,10.6,10.1,16c0.1,0.2,0.4,0,0.3-0.2c-3.3-5.4-6.8-10.6-10.1-16
					C207.9,138.9,207.6,139,207.7,139.2L207.7,139.2z"/>
				<path class="st1" d="M206.4,141.2c2,3.4,4.3,6.6,6.3,10.1c0.1,0.2,0.4,0,0.3-0.2c-2-3.4-4.3-6.6-6.3-10.1
					C206.6,140.8,206.3,141,206.4,141.2L206.4,141.2z"/>
				<path class="st1" d="M217.5,41.8c-0.2,4.3-0.2,8.7-0.3,13c-0.1,7.4-0.1,14.9-0.1,22.3c0,8.5,0,17,0,25.6c0,7.7,0,15.4,0.1,23
					c0,4.8,0.1,9.6,0.2,14.4c0,0.3,0,0.6,0,0.9c0,0.2,0.3,0.2,0.3,0c-0.2-4.3-0.2-8.7-0.2-13c-0.1-7.4-0.1-14.9-0.1-22.3
					c0-8.5,0-17,0-25.6c0-7.7,0-15.4,0.1-23c0-4.8,0.1-9.6,0.2-14.4c0-0.3,0-0.6,0-0.9C217.8,41.6,217.5,41.6,217.5,41.8L217.5,41.8
					z"/>
			</g>
			<path class="st1" d="M224.8,131.2c-1.4-0.4-2.8-0.2-4,0.4c-1.2,0.6-2.1,1.7-2.7,2.9c-0.2,0.3-0.6,0.5-0.9,0.3
				c-0.2-0.1-0.3-0.2-0.3-0.3c-0.5-1.2-1.5-2.2-2.7-2.9c-1.2-0.6-2.7-0.8-4-0.4c-0.1,0-0.2,0-0.2-0.1c0-0.1,0-0.1,0.1-0.2
				c0.7-0.3,1.4-0.5,2.2-0.5c0.8,0,1.5,0.1,2.3,0.4c1.5,0.5,2.7,1.6,3.6,3h-1.2c0.9-1.3,2.1-2.4,3.6-3c0.7-0.3,1.5-0.4,2.3-0.4
				c0.8,0,1.5,0.2,2.2,0.5c0.1,0,0.1,0.1,0.1,0.2C224.9,131.2,224.8,131.2,224.8,131.2z"/>
			<path class="st1" d="M223.2,123.1c-1.1-0.3-2.2-0.1-3.1,0.4c-0.9,0.5-1.6,1.3-2,2.2c-0.1,0.3-0.5,0.5-0.9,0.4
				c-0.2-0.1-0.3-0.2-0.4-0.4c-0.4-0.9-1.1-1.7-2-2.2c-0.9-0.5-2-0.7-3.1-0.4c-0.1,0-0.2,0-0.2-0.1c0-0.1,0-0.1,0.1-0.2
				c1.1-0.5,2.4-0.6,3.6-0.1c1.2,0.4,2.2,1.3,2.9,2.3h-1.2c0.7-1.1,1.7-1.9,2.9-2.3c1.2-0.4,2.5-0.4,3.6,0.1c0.1,0,0.1,0.1,0.1,0.2
				C223.3,123,223.2,123.1,223.2,123.1z"/>
			<path class="st1" d="M223.2,28.5c-1.1-0.3-2.2-0.1-3.1,0.4c-0.9,0.5-1.6,1.3-2,2.2c-0.1,0.3-0.5,0.5-0.9,0.4
				c-0.2-0.1-0.3-0.2-0.4-0.4c-0.4-0.9-1.1-1.7-2-2.2c-0.9-0.5-2-0.7-3.1-0.4c-0.1,0-0.2,0-0.2-0.1c0-0.1,0-0.1,0.1-0.2
				c1.1-0.5,2.4-0.6,3.6-0.1c1.2,0.4,2.2,1.3,2.9,2.3h-1.2c0.7-1.1,1.7-1.9,2.9-2.3c1.2-0.4,2.5-0.4,3.6,0.1c0.1,0,0.1,0.1,0.1,0.2
				C223.3,28.5,223.2,28.5,223.2,28.5z"/>
		</g>
		<g>
			<g>
				<path class="st1" d="M82.7,23c0.6,5.8,7.6,7.6,10,12.3c0.7,1.3,1,2.9,0.5,4.4c-0.5,1.6-1.8,2.7-3.3,3.2
					c-2.8,0.9-5.5-0.7-6.9-3.1c-0.1-0.1-0.2-0.1-0.3,0c-1.4,2.5-4.3,4.1-7.2,3c-1.5-0.6-2.7-1.8-3.1-3.4c-0.4-1.5,0-3,0.7-4.4
					c1.4-2.6,4-4.1,6.2-6c1.9-1.7,3.3-3.7,3.8-6.3c-0.1,0-0.2,0-0.3,0c0.3,0.7,0.3,1.4,0.5,2.1c0.2,0.6,0.5,1.2,0.8,1.7
					c0.7,1.1,1.7,2,2.8,2.8c2.4,1.7,5.3,3.1,6.6,5.8c1.5,2.9-0.1,6.5-3.2,7.5c-3.1,1-6.2-0.7-7.6-3.5c-0.1-0.2-0.3-0.1-0.3,0.1
					c0,1.9-1.8,2.8-3.4,3.2c-1.5,0.4-3.2,0.6-4.6-0.2c-2.8-1.7-2.9-5.4-1.4-8c1.5-2.6,4.2-3.9,6.5-5.6C81.2,27.3,82.8,25.4,82.7,23
					c0-0.3-0.3-0.3-0.3-0.1c0.1,3-2.5,4.9-4.7,6.4c-2,1.3-4,2.7-5.2,4.8c-1.1,1.9-1.4,4.3-0.3,6.3c1,2,3.1,2.9,5.3,2.6
					c2.2-0.3,5.1-1.2,5.2-3.8c-0.1,0-0.2,0.1-0.3,0.1c1,2,2.9,3.5,5.1,3.9c2.2,0.3,4.5-0.5,5.8-2.3c1.3-1.8,1.5-4.1,0.5-6.1
					c-1.2-2.3-3.4-3.6-5.5-5c-1.4-0.9-2.7-1.9-3.7-3.3c-0.5-0.7-0.8-1.4-1-2.2c-0.1-0.6-0.2-1.2-0.5-1.8c-0.1-0.1-0.3-0.1-0.3,0
					c-0.4,2.6-1.9,4.6-3.9,6.3c-1.9,1.7-4.2,3.1-5.6,5.2c-1.2,1.8-1.8,4.1-0.9,6.1c0.9,2,3,3.2,5.1,3.2c2.4,0,4.4-1.5,5.5-3.5
					c-0.1,0-0.2,0-0.3,0c1,1.7,2.6,3.1,4.7,3.4c2,0.3,4.1-0.4,5.4-2c1.3-1.7,1.3-3.9,0.5-5.8c-1-2.3-2.9-3.8-4.8-5.3
					c-2.3-1.9-5.1-4.1-5.4-7.3C83,22.8,82.7,22.8,82.7,23L82.7,23z"/>
				<path class="st1" d="M82.8,137.8c-0.5,4.3-7.3,5.7-6.4,10.4c0.3,1.5,1.5,2.7,3,2.8c1.6,0.2,3-0.9,3.7-2.3c-0.1,0-0.2,0-0.3,0
					c0.7,1.4,2.1,2.4,3.7,2.3c1.5-0.2,2.8-1.4,3-3c0.3-2.1-1.2-3.8-2.6-5.1c-1.8-1.6-3.5-2.9-3.9-5.4c0-0.2-0.3-0.1-0.3,0
					c-0.2,0.5-0.2,1.1-0.4,1.7c-0.2,0.6-0.6,1.1-1,1.6c-0.9,0.9-2,1.6-3,2.4c-1.4,1.1-2.6,2.6-2.3,4.5c0.2,1.7,1.5,3,3.2,3.2
					c1.8,0.2,3.4-0.9,4.2-2.5c-0.1,0-0.2-0.1-0.3-0.1c0.1,1.8,2.1,2.5,3.6,2.5c1.7,0,2.9-1.3,3.2-3c0.2-1.8-0.7-3.6-2.1-4.8
					c-1.7-1.5-4.5-2.6-4.5-5.3c0-0.2-0.3-0.2-0.3,0c-0.1,3.4,4,4.3,5.6,6.7c1,1.5,1.4,3.7,0.1,5.2c-1.3,1.5-5.2,0.9-5.3-1.4
					c0-0.2-0.2-0.2-0.3-0.1c-0.8,1.7-2.6,2.9-4.5,2.2c-2.1-0.8-2.7-3.4-1.6-5.2c1-1.6,2.7-2.4,4.1-3.6c0.6-0.5,1.1-1.1,1.5-1.7
					c0.4-0.7,0.3-1.5,0.6-2.2c-0.1,0-0.2,0-0.3,0c0.2,1.5,0.9,2.7,1.9,3.7c1.3,1.3,2.9,2.3,3.9,3.9c1,1.7,1,4-0.9,5
					c-1.8,1-3.7-0.1-4.6-1.7c-0.1-0.1-0.2-0.1-0.3,0c-0.9,1.6-2.6,2.7-4.4,1.8c-2-1-2.1-3.3-1.1-5c1.6-2.8,5.4-4,5.8-7.5
					C83.1,137.6,82.8,137.6,82.8,137.8L82.8,137.8z"/>
				<path class="st1" d="M83.1,138.7c0-3.3,0-6.6,0-9.9c0-7.8,0-15.7,0-23.5c0-9.5,0-19,0-28.6c0-8.2,0-16.4,0-24.6
					c0-2.7,0-5.4,0-8.1c0-1.2,0.2-2.6,0-3.9c0-0.1,0-0.1,0-0.2c0-0.2-0.3-0.2-0.3,0c0,3.3,0,6.6,0,9.9c0,7.8,0,15.7,0,23.5
					c0,9.5,0,19,0,28.6c0,8.2,0,16.4,0,24.6c0,2.7,0,5.4,0,8.1c0,1.2-0.2,2.6,0,3.9c0,0.1,0,0.1,0,0.2
					C82.8,138.9,83.1,138.9,83.1,138.7L83.1,138.7z"/>
				<path class="st1" d="M88.6,43.2c1.7-2.7,3.2-5.5,4.5-8.5c0.1-0.2-0.2-0.4-0.3-0.2c-1.3,2.9-2.8,5.8-4.5,8.5
					C88.2,43.2,88.5,43.4,88.6,43.2L88.6,43.2z"/>
				<path class="st1" d="M90.5,42.9c1.3-2,2.4-4.1,3.4-6.3c0.1-0.2-0.2-0.4-0.3-0.2c-1,2.2-2.1,4.3-3.4,6.3
					C90.1,42.9,90.4,43,90.5,42.9L90.5,42.9z"/>
				<path class="st1" d="M86.7,42.9c1.7-3.3,3.4-6.6,5-9.9c0.1-0.2-0.2-0.4-0.3-0.2c-1.7,3.3-3.4,6.6-5,9.9
					C86.3,42.9,86.6,43.1,86.7,42.9L86.7,42.9z"/>
				<path class="st1" d="M85.2,42.2c1.8-3.4,3.5-6.8,5.3-10.2c0.1-0.2-0.2-0.4-0.3-0.2c-1.8,3.4-3.5,6.8-5.3,10.2
					C84.8,42.2,85.1,42.4,85.2,42.2L85.2,42.2z"/>
				<path class="st1" d="M83.3,40.9c1.9-3.3,3.7-6.7,5.6-10c0.1-0.2-0.2-0.4-0.3-0.2c-1.9,3.3-3.7,6.7-5.6,10
					C82.9,40.9,83.2,41.1,83.3,40.9L83.3,40.9z"/>
				<path class="st1" d="M80.8,42c1.8-4.3,4.3-8.3,6.6-12.2c0.1-0.2-0.2-0.4-0.3-0.2c-2.4,4-4.9,8-6.7,12.3
					C80.4,42.1,80.7,42.2,80.8,42L80.8,42z"/>
				<path class="st1" d="M77.9,43c2.7-4.8,5.4-9.6,8-14.4c0.1-0.2-0.2-0.4-0.3-0.2c-2.7,4.8-5.4,9.6-8,14.4
					C77.5,43,77.8,43.2,77.9,43L77.9,43z"/>
				<path class="st1" d="M75.6,42.9c3-5.2,6-10.5,9-15.7c0.1-0.2-0.2-0.4-0.3-0.2c-3,5.2-6,10.5-9,15.7C75.2,42.9,75.5,43,75.6,42.9
					L75.6,42.9z"/>
				<path class="st1" d="M73.4,41.5c3.3-5.4,6.8-10.6,10.1-16c0.1-0.2-0.2-0.4-0.3-0.2c-3.3,5.4-6.8,10.6-10.1,16
					C73,41.5,73.3,41.7,73.4,41.5L73.4,41.5z"/>
				<path class="st1" d="M72.2,39.6c2-3.4,4.3-6.6,6.3-10.1c0.1-0.2-0.2-0.4-0.3-0.2c-2,3.4-4.3,6.6-6.3,10.1
					C71.8,39.6,72,39.7,72.2,39.6L72.2,39.6z"/>
				<path class="st1" d="M83.3,138.7c-0.2-4.3-0.2-8.7-0.3-13c-0.1-7.4-0.1-14.9-0.1-22.3c0-8.5,0-17,0-25.6c0-7.7,0-15.4,0.1-23
					c0-4.8,0.1-9.6,0.2-14.4c0-0.3,0-0.6,0-0.9c0-0.2-0.3-0.2-0.3,0c-0.2,4.3-0.2,8.7-0.2,13c-0.1,7.4-0.1,14.9-0.1,22.3
					c0,8.5,0,17,0,25.6c0,7.7,0,15.4,0.1,23c0,4.8,0.1,9.6,0.2,14.4c0,0.3,0,0.6,0,0.9C82.9,138.9,83.3,138.9,83.3,138.7L83.3,138.7
					z"/>
			</g>
			<path class="st1" d="M90.3,49.7c-0.7,0.3-1.4,0.5-2.2,0.5c-0.8,0-1.5-0.1-2.3-0.4c-1.5-0.5-2.7-1.6-3.6-3h1.2
				c-0.9,1.3-2.1,2.4-3.6,3c-0.7,0.3-1.5,0.4-2.3,0.4c-0.8,0-1.5-0.2-2.2-0.5c-0.1,0-0.1-0.1-0.1-0.2c0-0.1,0.1-0.1,0.2-0.1
				c1.4,0.4,2.8,0.2,4-0.4c1.2-0.6,2.1-1.7,2.7-2.9c0.2-0.3,0.6-0.5,0.9-0.3c0.2,0.1,0.3,0.2,0.3,0.3c0.5,1.2,1.5,2.2,2.7,2.9
				c1.2,0.6,2.7,0.8,4,0.4c0.1,0,0.2,0,0.2,0.1C90.4,49.6,90.4,49.6,90.3,49.7z"/>
			<path class="st1" d="M88.7,57.8c-1.1,0.5-2.4,0.6-3.6,0.1c-1.2-0.4-2.2-1.3-2.9-2.3h1.2c-0.7,1.1-1.7,1.9-2.9,2.3
				c-1.2,0.4-2.5,0.4-3.6-0.1c-0.1,0-0.1-0.1-0.1-0.2c0-0.1,0.1-0.1,0.2-0.1c1.1,0.3,2.2,0.1,3.1-0.4c0.9-0.5,1.6-1.3,2-2.2
				c0.1-0.3,0.5-0.5,0.9-0.4c0.2,0.1,0.3,0.2,0.4,0.4c0.4,0.9,1.1,1.7,2,2.2c0.9,0.5,2,0.7,3.1,0.4c0.1,0,0.2,0,0.2,0.1
				C88.8,57.7,88.8,57.7,88.7,57.8z"/>
			<path class="st1" d="M88.7,152.3c-1.1,0.5-2.4,0.6-3.6,0.1c-1.2-0.4-2.2-1.3-2.9-2.3h1.2c-0.7,1.1-1.7,1.9-2.9,2.3
				c-1.2,0.4-2.5,0.4-3.6-0.1c-0.1,0-0.1-0.1-0.1-0.2c0-0.1,0.1-0.1,0.2-0.1c1.1,0.3,2.2,0.1,3.1-0.4c0.9-0.5,1.6-1.3,2-2.2
				c0.1-0.3,0.5-0.5,0.9-0.4c0.2,0.1,0.3,0.2,0.4,0.4c0.4,0.9,1.1,1.7,2,2.2c0.9,0.5,2,0.7,3.1,0.4c0.1,0,0.2,0,0.2,0.1
				C88.8,152.2,88.8,152.3,88.7,152.3z"/>
		</g>
		<g>
			<path class="st1" d="M140,82.8c-11-3.6-18-5.5-27-7.1c-0.5-0.1-0.7-0.3-0.7-0.7c0-0.1,0.1-0.2,0.1-0.3l2.1-4.9
				c0.2-0.3,0.5-0.5,0.8-0.5c0.7,0,15.6,5.3,25.2,12.4c0.3,0.1,0.4,0.3,0.4,0.5c0,0.1,0,0.6-0.6,0.6H140z M136.8,66.2
				c-9.3-2.7-13.6-3.9-20.8-5.4c-0.3-0.1-0.6-0.3-0.6-0.7c0-0.1,0-0.2,0.1-0.3l1.8-4.1c0.1-0.3,0.3-0.7,0.9-0.7
				c0.3,0,10.4,4.1,19.4,9.9c0.3,0.1,0.3,0.3,0.3,0.6c0,0.6-0.4,0.8-0.9,0.8H136.8z M119.5,41.2c0.3-0.3,0.6-0.6,0.9-0.6
				c0.3,0,11.1,5.8,18.2,11.7c0.2,0.2,0.3,0.4,0.3,0.6c0,0.4-0.3,0.7-0.7,0.7c-0.1,0-0.2,0-0.3-0.1c-9.5-3.9-13.6-5.5-20.5-7.7
				c-0.3-0.1-0.6-0.2-0.6-0.6c0-0.1,0.1-0.2,0.1-0.3L119.5,41.2z"/>
			<path class="st1" d="M183.4,78.9c-4-3.6-7.2-6.6-11.7-9.9c-5.1,4.7-11.9,9.9-19.8,12.8c-0.1,0-0.3,0.1-0.4,0.1
				c-0.4,0-0.6-0.3-0.7-0.7v-0.3c0-0.2,0.1-0.5,0.3-0.6c11.6-7.6,20.7-18.7,25.8-30.1h-21.4c-0.5,0-0.9-0.5-0.9-1c0-0.5,0.4-1,0.9-1
				h22.1c0.5-0.9,0.7-1.8,1.1-2.9c0.1-0.3,0.3-0.5,0.6-0.5c0.1,0,0.3,0.1,0.5,0.1l6.4,4c0.1,0.1,0.2,0.3,0.2,0.5
				c0,0.2-4.4,8.2-10.1,14.7c6.2,7.3,13.3,17.7,13.3,18.7c0,0.4-0.4,0.9-0.9,0.9c-0.2,0-0.3-0.1-0.5-0.3L183.4,78.9z"/>
			<path class="st1" d="M123.8,120.6c0.1,0,0.2,0.1,0.2,0.2c0,1.1-10,7.1-15.1,7.8c-0.3,0-0.5-0.1-0.6-0.4c-0.1-0.2-0.8-2.9-0.8-3.1
				c0-0.3,0.1-0.4,0.4-0.5c1.2-0.3,2.4-0.3,3.6-0.5c0.7-0.1,1.5-0.3,2.3-0.4c0-3.6,0-7.2-0.1-10.8v-0.1c0-0.1,0-0.1,0-0.2h-4.8
				c-0.4,0-0.6-0.4-0.6-0.8c0-0.3,0.2-0.7,0.6-0.7h11l1.4-4.2c0.1-0.3,0.2-0.4,0.5-0.4c0.2,0,0.3,0.2,0.4,0.4l1.6,4.7
				c0,0.1,0.1,0.3,0.1,0.4c0,0.1,0,0.2-0.1,0.3c-0.1,0.2-0.4,0.3-0.5,0.3h-8.9l3.5,0.5c0.2,0,0.4,0.2,0.4,0.4c0,3-0.1,6-0.1,9
				l1.8-0.6c0.8-0.3,1.7-0.6,2.5-0.9c0.4-0.2,0.9-0.4,1.3-0.5H123.8z M115.9,106.9c-0.2,0-0.4-0.2-0.4-0.4l-0.4-7.8h-2
				c-3.7,4.1-4.9,4.6-4.9,4.6c-0.3,0-0.3-0.3-0.3-0.4c0-0.1,0-0.2,0.1-0.3c0.3-0.7,0.7-1.3,1-1.9c0.8-1.5,1.5-3.1,2-4.7
				c0.4-1.2,0.8-2.4,1.2-3.6c0.2-0.7,0.3-1.4,0.5-2.1c0-0.2,0.1-0.3,0.3-0.3c0,0,0.1,0,0.1,0.1l4.2,2.3c0.1,0.1,0.2,0.2,0.2,0.3
				c0,0.6-2.2,3.3-3.3,4.5h7.7l1.5-4.2c0-0.2,0.2-0.4,0.4-0.4c0.2,0,0.4,0.2,0.4,0.4l1.6,4.7c0,0.1,0.1,0.3,0.1,0.4
				c0,0.1,0,0.2-0.1,0.3c-0.1,0.2-0.3,0.3-0.5,0.3h-5.6l0.2,7.1c0,0.2-0.1,0.5-0.3,0.5L115.9,106.9z M144.5,127.6
				c-2.1-0.3-5.4-1.1-7.4-2.1c-2.2-1-2.6-1.8-2.6-4v-0.8c0-1.1,0-2.3,0-3.4c0-1.6,0-3.1,0-4.7v-0.4H130c-0.3,2.2-0.8,4.5-1.5,6.6
				l4.1-1.7h0.1c0.2,0,0.3,0.3,0.4,0.4c0.5,1.4,1.3,5.7,1.4,7.3c0,0.3,0,0.7-0.4,0.7c-0.1,0-0.2-0.1-0.3-0.2
				c-1.1-1.2-2.2-2.4-3.4-3.6c-0.7-0.7-1.6-1.4-2.2-2.2c-2,6.3-6,9.2-6.3,9.2c-0.2,0-0.4-0.2-0.4-0.4c0-0.1,0-0.2,0.1-0.3
				c2.6-4.7,3.4-7.4,3.4-12.9c0-1,0-2-0.1-2.9c0-1.1-0.2-2.2-0.2-3.3c0-0.2,0.1-0.4,0.3-0.5c0.2,0,4.5,0.8,4.8,0.9
				c0.2,0.1,0.3,0.3,0.3,0.5c0,0.3,0,0.7-0.1,1h4.2c0-1.1,0-1.7,0.2-1.7h0.1l4.2,1.8c0.2,0.1,0.3,0.3,0.3,0.5l-0.2,2.8l-0.3,6.2v0.7
				c0,1.4,0.4,2.1,2.7,2.3c0.7,0,3-2.1,3.6-2.7c0.3-0.2,0.6-0.7,0.9-0.8c0-0.1,0.1-0.1,0.2-0.1c0.2,0,0.4,0.3,0.4,0.5v0.1l-1.6,6.9
				c0,0.3-0.2,0.3-0.3,0.3H144.5z M136.6,98.7l-1.4,6.8c0,0.2-0.1,0.4-0.3,0.4h-0.1l-3.8-0.4c-0.1,0-0.3-0.3-0.3-0.4l1.1-6.4h-2.4
				c-1.3,1.6-2.9,3.3-4.5,4.5c-0.1,0.1-0.2,0.2-0.3,0.2s-0.1,0-0.2-0.1c-0.1-0.1-0.1-0.2-0.1-0.3c0-0.1,0-0.2,0.1-0.3
				c2.3-4.8,2.6-5.6,3.9-10c0.1-0.6,0.3-1.6,0.5-2.1c0-0.2,0.2-0.3,0.3-0.3c0,0,0.1,0,0.1,0.1l4.2,2.3c0.1,0.1,0.1,0.2,0.1,0.3
				s0,0.2,0,0.3c-0.2,0.5-1.8,2.6-2.9,4h8.3l1.4-4.2c0.1-0.2,0.2-0.4,0.4-0.4s0.4,0.2,0.5,0.4l1.6,4.7c0,0.1,0,0.2,0,0.3
				c0,0.2,0,0.3-0.1,0.4c-0.1,0.2-0.3,0.3-0.5,0.3H136.6z"/>
			<path class="st1" d="M158.4,124.6c-0.1,0-0.2-0.1-0.2-0.1c-0.6-1.1-1.2-1.9-1.8-2.8l-1-1.4c-1.2,2.2-3.7,6.1-4.2,6.1
				c-0.1,0-0.3-0.1-0.3-0.3c0-0.1,0-0.2,0-0.2c0.3-1.4,1-4.7,1.6-9.8c0-0.1,0.1-0.2,0.2-0.2c0,0,0,0,0.1,0.1c1,0.8,1.9,1.7,2.8,2.5
				l2-0.8c0.1,0,0.1-0.1,0.2-0.1c0.2,0,0.3,0.1,0.4,0.3c0.3,2.2,0.5,4.1,0.6,6.1v0.1C158.7,124.2,158.7,124.4,158.4,124.6
				L158.4,124.6z M163,127.8c-0.2-0.1-0.2-0.3-0.2-0.5v-0.1l0.1-0.7c0-0.2,0.2-0.3,0.3-0.3h0.1l0.4,0.2c0.2,0.1,0.6,0.1,1,0.1
				c1.2,0,2.8-0.7,2.9-5.5l0.1-6.2h-10l-2.8,1.4c0,0,0,0.1-0.1,0.1c-0.1,0-0.2-0.2-0.2-0.3l0.2-23.8c0-0.2,0.1-0.3,0.2-0.3
				c0,0,0.1,0.1,0.1,0.1l2.6,1.9h9.8l1.2-4.4c0.1-0.4,0.3-0.4,0.4-0.4c0.1,0,0.2,0,0.4,0.4l1.4,4.9c0,0.1,0,0.2,0,0.3
				c0,0.3-0.2,0.6-0.5,0.6h-8.4l2.9,2c0.2,0.1,0.3,0.4,0.3,0.7l0,2.4h1.8l0.9-3c0.1-0.4,0.3-0.4,0.4-0.4c0.1,0,0.2,0.1,0.4,0.4
				l1,3.6c0,0.1,0.1,0.2,0.1,0.3c0,0.4-0.4,0.7-0.5,0.7h-4l-0.1,5h2.4l0.9-3c0.1-0.4,0.3-0.4,0.4-0.4c0.1,0,0.3,0.1,0.4,0.4l1,3.5
				c0,0.1,0,0.2,0,0.3v0.1c0,0.1,0,0.2,0,0.3c-0.1,0.2-0.3,0.3-0.5,0.3h-4.6l-0.1,4.9h2.6l0-1.2c0-0.2,0.1-0.3,0.2-0.3l3.9,2.9
				c0.1,0.1,0.2,0.3,0.2,0.6v0.1c-0.8,9.4-1.6,14.3-2.6,14.3c-0.1,0-0.2,0-0.3-0.1L163,127.8z M161.2,108.6h-3l-0.1,4.9h3
				L161.2,108.6z M161.3,102h-3l-0.1,5h3L161.3,102z M161.4,95.4L161.4,95.4l-3-0.1l-0.1,5.1h3L161.4,95.4z M162.5,123.7
				c0,0.2-0.1,0.5-0.3,0.5c-0.1,0-0.1-0.1-0.2-0.2c-0.6-1-1.2-1.9-1.8-2.8c-1.6-2.3-1.7-2.5-1.7-2.5c0-0.1,0.1-0.3,0.2-0.3l2.7-1.2
				h0.1c0.2,0,0.4,0.1,0.4,0.3C162.2,119.7,162.4,121.7,162.5,123.7L162.5,123.7z M166,122.9c-0.1,0-0.2-0.1-0.2-0.1
				c-0.6-1.1-1.2-1.9-1.8-2.8c-1.2-1.7-1.7-2.5-1.7-2.5c0-0.3,0.3-0.6,2.9-1.5c0.1,0,0.1-0.1,0.2-0.1c0.2,0,0.3,0.1,0.4,0.3
				c0.3,2.2,0.5,4.1,0.6,6.1v0.1C166.3,122.6,166.3,122.8,166,122.9L166,122.9z M177.4,123.9c-0.1-0.1-0.2-0.3-0.2-0.4
				c0-0.1,0-0.1,0-0.2l0.2-0.7c0-0.2,0.1-0.2,0.2-0.2c0,0,0.1,0,0.1,0.1c0.5,0.4,1.4,1,2.4,1c1.5,0,3.6-0.6,5-21.2h-8.4
				c-0.6,1.9-1.5,3.5-2.8,5.3l2.2,0.7l0.2,0.2h3l0-0.9c0-0.2,0.1-0.3,0.2-0.3h0.1l3,1.3c0.2,0.1,0.3,0.3,0.3,0.6v0.1l-0.4,9
				c0,0.2-0.2,0.4-0.4,0.4l-3.1-0.1c-0.2,0-0.3-0.2-0.3-0.4l0-0.9h-2.1v0.3c0,0.2-0.1,0.4-0.3,0.5l-2.8,0.8h0
				c-0.2,0-0.3-0.1-0.3-0.3l-0.3-9.8c-1.1,1.1-2.2,1.8-4.3,3c0,0.1-0.1,0.1-0.2,0.1c-0.2,0-0.4-0.2-0.4-0.6c0-0.1,0-0.2,0.1-0.3
				c4.3-5.3,4.8-7.9,4.8-12.4c0-1.1,0-2.3-0.2-3.6c0-0.2,0.1-0.4,0.3-0.4c1.5,0.2,3,0.4,4.5,0.7c0.2,0.1,0.3,0.3,0.3,0.5
				c-0.2,1.8-0.5,3.5-0.9,5.2h8.1c0-0.6,0-1.2,0.1-1.4c0-0.1,0-0.1,0.1-0.1c0.1,0,0.2,0.1,0.2,0.1l4.3,2.7c0.1,0.1,0.2,0.2,0.2,0.4
				v0.1c-0.1,1.5-0.6,8.2-1.7,16c-0.9,6.5-2.8,9.5-3.5,10.5c-0.1,0.1-0.2,0.2-0.4,0.2c0,0-0.1,0-0.2-0.1L177.4,123.9z M179.2,109.7
				h-2.7l0.2,6h2.2L179.2,109.7z"/>
		</g>
		<g>
			<path class="st1" d="M110.8,154.7c-0.1,0-0.3,0-0.3-0.1l0,0c0,0,0.1-0.1,0.1-0.1l0.1,0v-3.4c-0.3,0-0.6,0-0.8,0.3
				c0,0.1-0.1,0.1-0.1,0.2c0,0.8,0,1.1,0,2.8c0,0,0,0,0.1,0l0.2,0.1c0,0,0,0,0,0v0c0,0.1-0.2,0.1-0.2,0.1c-0.1,0-0.5,0-0.5,0h0
				c-0.1,0-0.4,0-0.4-0.1c0,0-0.1,0-0.1,0c0-0.1,0.1-0.1,0.2-0.1c0,0,0,0,0,0c0-3.4,0-3.4,0-3.4h0c-0.5,0-0.8,0.3-0.8,0.6v2.8
				c0,0.1,0.2,0.1,0.2,0.2c0,0,0,0-0.1,0.1c-0.1,0-0.2,0-0.3,0h-0.2c-0.1,0-0.5,0-0.5-0.1c0,0-0.1,0-0.1,0c0-0.1,0.2-0.1,0.3-0.1
				v-3.2c0-0.2,0-0.2,0-0.4c0-0.1-0.3,0-0.3-0.2c0-0.1,0-0.1,0.1-0.1h0.1l0.6,0.1c0.1,0,0.2,0,0.2,0.2v0c0,0-0.1,0.1-0.1,0.1
				c0,0,0,0,0,0c0,0,0,0.1,0,0.2h0c0.3-0.2,0.6-0.3,0.9-0.3c0,0,0.2,0,0.2,0c0.2,0,0.3,0.2,0.4,0.3c0,0,0,0.2,0,0.2
				c0.3-0.2,0.7-0.4,1-0.4c0.2,0,0.3,0.1,0.4,0.1c0.1,0,0.1,0.1,0.1,0.2c0,0.2,0,0.4,0.1,3.2c0,0.1,0.4,0,0.5,0.1c0,0,0,0,0,0
				c0,0-0.1,0.1-0.1,0.1v0c0,0-0.2,0-0.2,0L110.8,154.7z"/>
			<path class="st1" d="M115.4,154.5c0-0.1,0.1-0.1,0.1-0.2c0-0.1,0-0.3,0-0.3c0-0.9,0-1.7,0-2.6c0-0.1,0-0.2,0-0.3c0,0-0.1,0-0.1,0
				c0,0,0,0,0,0c0,0,0,0,0,0c0,0-0.1,0-0.1-0.1c0-0.2,0.1-0.1,0.2-0.2c0,0,0.3-0.1,0.3-0.1c0,0,0.1,0,0.1,0c0,0,0,0,0,0
				c0.1,0,0.2,0,0.2,0.1c0,0,0.1,0.1,0.1,0.1c0,0.1-0.1,0.1-0.1,0.2c0,0,0,0.2,0,0.2c0,0.4,0.1,2.4,0.1,3c0.1,0,0.2,0,0.2,0.1
				c0,0.2-0.4,0.2-0.6,0.2c0,0,0,0,0,0C115.6,154.6,115.6,154.6,115.4,154.5C115.4,154.6,115.4,154.5,115.4,154.5z M115.4,149.6
				C115.4,149.6,115.4,149.6,115.4,149.6C115.4,149.6,115.5,149.5,115.4,149.6L115.4,149.6c0.1-0.1,0.2-0.2,0.3-0.2
				c0.3,0,0.4,0.3,0.4,0.5c0,0.1-0.2,0.3-0.3,0.3c0,0-0.1,0-0.1,0c-0.2,0-0.3-0.1-0.3-0.4C115.4,149.8,115.4,149.7,115.4,149.6z"/>
			<path class="st1" d="M119.9,153.9v-0.1c0,0,0,0,0,0c0-0.1,0-0.3,0.1-0.3h0.1c0.2,0,0.3,0,0.5,0.1l0,0c0,0,0,0.1,0,0.1v0.7
				c0,0,0,0,0,0.1c0,0,0,0,0,0.1c0,0,0,0,0,0c0.1,0,0.1,0,0.2,0c0.2,0,0.2-0.3,0.2-0.5v-0.1c0,0,0-0.1,0-0.1
				c-0.1-0.3-0.2-0.7-0.7-1.3c-0.9-0.9-0.8-1.8,0.6-1.8c0,0,0,0,0,0c0,0,0,0,0,0c0.2,0,0.5,0,0.5,0.2c0,0.1,0.1,0.9-0.1,0.9h0
				l-0.3,0c-0.1,0-0.1-0.1-0.1-0.2l0-0.7l0,0h-0.1c0,0-0.3,0-0.3,0.1c0,0,0,0,0,0c-0.3,0.6,0.6,1.3,0.9,1.8l0.1,0.1
				c0.3,0.5,0.4,1.6-0.4,1.8c-0.1,0-0.3,0-0.4,0c-0.3,0-0.7-0.1-0.8-0.4L119.9,153.9z"/>
			<path class="st1" d="M125.3,153.9v-0.1c0,0,0,0,0,0c0-0.1,0-0.3,0.1-0.3h0.1c0.2,0,0.3,0,0.5,0.1l0,0c0,0,0,0.1,0,0.1v0.7
				c0,0,0,0,0,0.1c0,0,0,0,0,0.1c0,0,0,0,0,0c0.1,0,0.1,0,0.2,0c0.2,0,0.2-0.3,0.2-0.5v-0.1c0,0,0-0.1,0-0.1
				c-0.1-0.3-0.2-0.7-0.7-1.3c-0.9-0.9-0.8-1.8,0.6-1.8c0,0,0,0,0,0c0,0,0,0,0,0c0.2,0,0.5,0,0.5,0.2c0,0.1,0.1,0.9-0.1,0.9h0
				l-0.3,0c-0.1,0-0.1-0.1-0.1-0.2l0-0.7l0,0h-0.1c0,0-0.3,0-0.3,0.1c0,0,0,0,0,0c-0.3,0.6,0.6,1.3,0.9,1.8l0.1,0.1
				c0.3,0.5,0.4,1.6-0.4,1.8c-0.1,0-0.3,0-0.4,0c-0.3,0-0.7-0.1-0.8-0.4L125.3,153.9z"/>
			<path class="st1" d="M136.9,154.4c0-0.2-0.1-3.8-0.1-4.8v0c0,0,0,0,0,0c-0.1,0-0.2,0-0.3,0c-0.1,0-0.1,0-0.2,0c0,0,0,0.2,0,0.2
				c0,0.2,0,0.4,0,0.7c0,0,0,0.1,0,0.1c0,0.1-0.6,0.1-0.6-0.2c0-0.2,0-0.4,0-0.7c0-0.1,0-0.3,0.2-0.4c0,0,0.1,0,0.1,0
				c0.5,0,2.3-0.1,2.5,0.1c0,0,0.3,0.9,0,1.2c0,0-0.1,0-0.1,0c-0.2,0-0.2,0-0.3-0.1c0,0-0.1-0.1-0.1-0.1c0,0,0-0.1,0-0.1v-0.7l0,0
				c0,0-0.2,0-0.3,0c0,0-0.1,0-0.1,0c0,0.3,0.2,4.3,0.1,4.9l0.2,0c0,0,0,0,0,0.1c0,0,0,0,0,0v0c0,0-0.1,0.1-0.1,0.1h-0.2
				c0,0,0,0,0,0c0,0,0,0,0,0c0,0-0.1,0-0.1,0c0,0-0.1,0-0.1,0c0,0-0.3,0-0.3,0c0,0-0.1,0-0.1,0c-0.1,0-0.2-0.1-0.2-0.2
				C136.6,154.5,136.9,154.6,136.9,154.4z"/>
			<path class="st1" d="M142.1,153.9v-0.1c0,0,0,0,0,0c0-0.1,0-0.3,0.1-0.3h0.1c0.2,0,0.3,0,0.5,0.1l0,0c0,0,0,0.1,0,0.1v0.7
				c0,0,0,0,0,0.1c0,0,0,0,0,0.1c0,0,0,0,0,0c0.1,0,0.1,0,0.2,0c0.2,0,0.2-0.3,0.2-0.5v-0.1c0,0,0-0.1,0-0.1
				c-0.1-0.3-0.2-0.7-0.7-1.3c-0.9-0.9-0.8-1.8,0.6-1.8c0,0,0,0,0,0c0,0,0,0,0,0c0.2,0,0.5,0,0.5,0.2c0,0.1,0.1,0.9-0.1,0.9h0
				l-0.3,0c-0.1,0-0.1-0.1-0.1-0.2l0-0.7l0,0H143c0,0-0.3,0-0.3,0.1c0,0,0,0,0,0c-0.3,0.6,0.6,1.3,0.9,1.8l0.1,0.1
				c0.3,0.5,0.4,1.6-0.4,1.8c-0.1,0-0.3,0-0.4,0c-0.3,0-0.7-0.1-0.8-0.4L142.1,153.9z"/>
			<path class="st1" d="M147.6,151.1L147.6,151.1c0-0.1-0.1-0.1-0.1-0.1c0,0-0.1-0.2-0.1-0.2c0,0,0.1,0,0.1-0.1c0,0,0.1,0,0.1,0
				c0.1,0,0.1,0,0.8,0c0.1,0,0.4,0.1,0.4,0.2c0,0-0.1,0.1-0.1,0.1c-0.1,0-0.1,0-0.2,0c-0.1,0-0.1,0.1-0.1,0.2c0.1,3,0,2.9,0.2,3.2
				c0,0,0.2,0,0.2,0h0c0,0,0.4,0,0.5,0s0,0,0,0c0-0.7,0-2.7,0-3.3c0-0.1-0.1-0.1-0.1-0.1c0-0.1,0.1-0.1,0.1-0.1h0.4
				c0.3,0,0.5,0,0.7,0.2c0,0-0.1,0.1-0.2,0.1c0,0-0.1,0-0.1,0h0c-0.1,1.2,0,2.9-0.3,3.3c-0.2,0.2-0.7,0.3-0.9,0.3
				c-0.3,0-0.8,0-1-0.3c-0.4-0.5-0.3-1.2-0.3-1.8c0-0.1,0-0.7,0-0.8v0C147.5,151.5,147.6,151.3,147.6,151.1z"/>
			<path class="st1" d="M153.9,154.7C153.9,154.7,153.9,154.7,153.9,154.7c0-0.1,0.2-0.2,0.2-0.2c0,0,0,0,0,0s0,0,0,0
				c0,0.2,0-1.2,0-4.8c0-0.1-0.2-0.1-0.2-0.1c0,0,0,0,0,0c0-0.2,0.3-0.2,0.4-0.2c0.1,0,0.2,0,0.2,0l0,0c0,0,0.1,0,0.1,0
				c0.1,0,0.4,0,0.4,0.1c0,0,0,0.1,0,0.1h-0.1l0,0c0,0,0,0,0,0.1c0,0.2,0,0.5,0,2.3l0,0.2l0.9-1.2c-0.1,0-0.4,0-0.4-0.1
				c0,0,0.1-0.2,0.1-0.2h1c0,0,0.1,0,0.1,0.1c0,0.2-0.3,0.2-0.4,0.2c0,0,0,0,0,0c0,0-0.1,0-0.1,0c-0.2,0.2-0.4,0.5-0.6,0.7
				c0,0,0,0,0,0v0c0,0,0,0,0,0c0.2,0.4,0.7,2.1,1.1,2.7c0,0,0.2,0,0.2,0c0,0,0.1,0,0.1,0.1c0,0,0,0.1,0,0.1c0,0,0,0,0,0
				c-0.3,0-0.7,0-1,0c-0.1,0-0.2,0-0.2-0.1c0-0.1,0.1-0.1,0.1-0.2l-0.8-2.1c0,0,0,0,0,0c0,0-0.1,0.1-0.1,0.1l0,0c0,0,0,0.2,0,0.2
				c0,0.4,0,1,0,1.8c0,0,0.2,0.1,0.2,0.1v0c0,0-0.1,0.1-0.1,0.1c-0.1,0-0.1,0-0.2,0c0,0-0.1,0-0.1,0c0,0,0,0,0,0
				C154.5,154.7,154.1,154.7,153.9,154.7C153.9,154.7,153.9,154.7,153.9,154.7z M155.6,154.5C155.6,154.6,155.6,154.6,155.6,154.5
				C155.6,154.5,155.6,154.5,155.6,154.5z"/>
			<path class="st1" d="M160.4,151.1L160.4,151.1c0-0.1-0.1-0.1-0.1-0.1c0,0-0.1-0.2-0.1-0.2c0,0,0.1,0,0.1-0.1c0,0,0.1,0,0.1,0
				c0.1,0,0.1,0,0.8,0c0.1,0,0.4,0.1,0.4,0.2c0,0-0.1,0.1-0.1,0.1c-0.1,0-0.1,0-0.2,0c-0.1,0-0.1,0.1-0.1,0.2c0.1,3,0,2.9,0.2,3.2
				c0,0,0.2,0,0.2,0h0c0,0,0.4,0,0.5,0s0,0,0,0c0-0.7,0-2.7,0-3.3c0-0.1-0.1-0.1-0.1-0.1c0-0.1,0.1-0.1,0.1-0.1h0.4
				c0.3,0,0.5,0,0.7,0.2c0,0-0.1,0.1-0.2,0.1c0,0-0.1,0-0.1,0h0c-0.1,1.2,0,2.9-0.3,3.3c-0.2,0.2-0.7,0.3-0.9,0.3
				c-0.3,0-0.8,0-1-0.3c-0.4-0.5-0.3-1.2-0.3-1.8c0-0.1,0-0.7,0-0.8v0C160.4,151.5,160.4,151.3,160.4,151.1z"/>
			<path class="st1" d="M166.8,154.7C166.8,154.7,166.8,154.7,166.8,154.7c0-0.1,0.2-0.2,0.2-0.2c0,0,0,0,0,0s0,0,0,0
				c0,0.2,0-1.2,0-4.8c0-0.1-0.2-0.1-0.2-0.1c0,0,0,0,0,0c0-0.2,0.3-0.2,0.4-0.2c0.1,0,0.2,0,0.2,0l0,0c0,0,0.1,0,0.1,0
				c0.1,0,0.4,0,0.4,0.1c0,0,0,0.1,0,0.1h-0.1l0,0c0,0,0,0,0,0.1c0,0.2,0,0.5,0,2.3l0,0.2l0.9-1.2c-0.1,0-0.4,0-0.4-0.1
				c0,0,0.1-0.2,0.1-0.2h1c0,0,0.1,0,0.1,0.1c0,0.2-0.3,0.2-0.4,0.2c0,0,0,0,0,0c0,0-0.1,0-0.1,0c-0.2,0.2-0.4,0.5-0.6,0.7
				c0,0,0,0,0,0v0c0,0,0,0,0,0c0.2,0.4,0.7,2.1,1.1,2.7c0,0,0.2,0,0.2,0c0,0,0.1,0,0.1,0.1c0,0,0,0.1,0,0.1c0,0,0,0,0,0
				c-0.3,0-0.7,0-1,0c-0.1,0-0.2,0-0.2-0.1c0-0.1,0.1-0.1,0.1-0.2l-0.8-2.1c0,0,0,0,0,0c0,0-0.1,0.1-0.1,0.1l0,0c0,0,0,0.2,0,0.2
				c0,0.4,0,1,0,1.8c0,0,0.2,0.1,0.2,0.1v0c0,0-0.1,0.1-0.1,0.1c-0.1,0-0.1,0-0.2,0c0,0-0.1,0-0.1,0c0,0,0,0,0,0
				C167.4,154.7,166.9,154.7,166.8,154.7C166.8,154.7,166.8,154.7,166.8,154.7z M168.5,154.5C168.5,154.6,168.5,154.6,168.5,154.5
				C168.5,154.5,168.5,154.5,168.5,154.5z"/>
			<path class="st1" d="M173.1,151.5c0-0.2,0-0.5,0.2-0.6c0.2-0.1,1-0.4,1.7-0.1c0.4,0.2,0.3,2.6,0.3,2.6c0,1.1-0.5,1.2-1.1,1.2
				c-0.4,0-0.6,0-0.9-0.3c-0.1-0.1-0.1-0.3-0.1-0.4C173.1,153.1,173.1,152.3,173.1,151.5z M174.3,154.4c0.1,0,0.2,0,0.3,0l0,0
				c0-0.4,0-2.8,0-3c0-0.1,0-0.2,0-0.3c0-0.1-0.3,0-0.4,0c0,0,0,0,0,0c-0.2,0-0.2,0-0.4,0.1c0,0.1,0,0.2,0,0.3c0,0.1,0,0.1,0,0.2
				l0.1,2.7C174.1,154.4,174.1,154.4,174.3,154.4z"/>
			<path class="st1" d="M182.5,154.7c-0.1,0-0.3,0-0.3-0.1l0,0c0,0,0.1-0.1,0.1-0.1l0.1,0v-3.4c-0.3,0-0.6,0-0.8,0.3
				c0,0.1-0.1,0.1-0.1,0.2c0,0.8,0,1.1,0,2.8c0,0,0,0,0.1,0l0.2,0.1c0,0,0,0,0,0v0c0,0.1-0.2,0.1-0.2,0.1c-0.1,0-0.5,0-0.5,0h0
				c-0.1,0-0.4,0-0.4-0.1c0,0-0.1,0-0.1,0c0-0.1,0.1-0.1,0.2-0.1c0,0,0,0,0,0c0-3.4,0-3.4,0-3.4h0c-0.5,0-0.8,0.3-0.8,0.6v2.8
				c0,0.1,0.2,0.1,0.2,0.2c0,0,0,0-0.1,0.1c-0.1,0-0.2,0-0.3,0h-0.2c-0.1,0-0.5,0-0.5-0.1c0,0-0.1,0-0.1,0c0-0.1,0.2-0.1,0.3-0.1
				v-3.2c0-0.2,0-0.2,0-0.4c0-0.1-0.3,0-0.3-0.2c0-0.1,0-0.1,0.1-0.1h0.1l0.6,0.1c0.1,0,0.2,0,0.2,0.2v0c0,0-0.1,0.1-0.1,0.1
				c0,0,0,0,0,0c0,0,0,0.1,0,0.2h0c0.3-0.2,0.6-0.3,0.9-0.3c0,0,0.2,0,0.2,0c0.2,0,0.3,0.2,0.4,0.3c0,0,0,0.2,0,0.2
				c0.3-0.2,0.7-0.4,1-0.4c0.2,0,0.3,0.1,0.4,0.1c0.1,0,0.1,0.1,0.1,0.2c0,0.2,0,0.4,0.1,3.2c0,0.1,0.4,0,0.5,0.1c0,0,0,0,0,0
				c0,0-0.1,0.1-0.1,0.1v0c0,0-0.2,0-0.2,0L182.5,154.7z"/>
			<path class="st1" d="M188.6,154.4c-0.2,0.1-0.3,0.2-0.6,0.2c-0.4,0-0.8-0.2-0.9-0.6c0,0,0-0.1,0-0.1c0,0,0-0.4-0.1-0.6
				c0-0.3,0.1-0.6,0.3-0.8c0.2-0.3,0.6-0.3,0.9-0.3c0.1,0,0.2,0,0.3,0c0.1,0,0-0.1,0-0.1c0,0,0-0.3,0-0.4c0-0.1,0-0.5,0.1-0.6
				c0,0-0.1,0-0.1,0c-0.2,0-0.3,0-0.5,0c-0.1,0-0.2,0-0.3,0c-0.1,0.1-0.1,0.2-0.1,0.3c0,0.1,0,0.2,0,0.3c0,0,0,0,0,0v0
				c0,0,0,0,0,0.1c0,0,0,0,0,0c0,0,0,0.1,0,0.1c0,0.1-0.2,0.1-0.2,0.1h-0.4l0,0c0,0,0-0.2-0.1-0.2c0-0.1,0-0.2,0-0.3
				c0-0.7,0.6-0.8,1.2-0.8h0.1l0.3,0c0.2,0.1,0.5,0.1,0.6,0.4c0.3,3.1,0.2,3.3,0.1,3.6c0,0-0.2,0-0.2,0c-0.2,0-0.3-0.1-0.4-0.3
				C188.7,154.5,188.6,154.4,188.6,154.4L188.6,154.4z M187.8,154.3c0,0,0.1,0,0.2,0h0c0.2,0,0.5-0.1,0.6-0.2v0c0,0,0-0.1,0-0.1
				c0,0,0-0.3,0-0.3c0-0.3,0-0.6,0-0.9c0-0.1,0-0.2,0-0.3c0,0,0,0,0-0.1c-0.1,0-0.2,0-0.3,0c-0.1,0-0.3,0-0.4,0.1v0.1
				C187.7,152.6,187.7,152.7,187.8,154.3z"/>
		</g>
	</g>
	<g>
		<path class="st1" d="M42.1,198c0.2,0,0.3,0.1,0.3,0.2c0,0.4-0.7,0.9-3.3,2.5l-0.9,0.5c0,0.8,0,1.5,0,2.3c0,1.4-0.1,3-0.4,4.5
			c-0.2,1.2-1.4,4.3-2.9,4.3c-0.5,0-7.1-2.8-7.6-3.1c-0.1-0.1-0.2-0.2-0.2-0.4v-0.1c0.1-0.2,0.2-0.5,0.5-0.5c0,0,0.1,0,0.1,0
			l0.5,0.2c0.5,0.2,1,0.4,1.5,0.4c3.1,0,3.5-3.7,3.6-5.2c-0.9,0.4-3.8,1.4-5.2,1.4c-0.2,0-0.4-0.1-0.5-0.4c-0.1-0.4-0.7-2.5-0.7-2.9
			c0-0.2,0-0.5,0.3-0.5c1.1,0,4.9-0.5,6.2-0.9l0.1-4.4v-1.4h-6.7c-0.4,0-0.6-0.3-0.6-0.6c0-0.3,0.2-0.6,0.6-0.6h6.7
			c0-1.9,0-3.9,0.1-5.8l0.1-2.7c0-0.1,0.1-0.2,0.2-0.2H34l4.3,1.7c0.2,0.1,0.3,0.2,0.3,0.5c-0.1,2.2-0.2,4.4-0.3,6.7h1.2l1.4-3.5
			c0.1-0.2,0.2-0.4,0.5-0.4c0.2,0,0.4,0.2,0.4,0.3l1.5,4c0,0.1,0.1,0.2,0.1,0.3c0,0.1,0,0.1-0.1,0.2c-0.1,0.2-0.3,0.3-0.5,0.3h-4.5
			l-0.1,4.5c1-0.3,1.8-0.6,2.6-0.9C41.2,198.3,41.6,198.1,42.1,198L42.1,198z M65.7,197.8c0,0.2-0.3,0.3-0.5,0.3
			c-5.6-0.2-9-1.3-9-4.7v-0.1l0.1-6.7h-3.8c-2.2,9.6-8.8,11.6-8.9,11.6c-0.2,0-0.4-0.2-0.4-0.4c0-0.1,0-0.2,1-1.2
			c2-2.3,3.6-5.7,3.6-11c0-0.6-0.1-1.2-0.1-1.8c0-0.1,0.1-0.3,0.3-0.3c0.2,0,4.3,0.7,4.5,0.8c0.2,0,0.3,0.2,0.3,0.4
			c0,0.2,0,0.5-0.1,0.7h3.5l0-1.2c0-0.2,0.1-0.3,0.3-0.3h0.1l4,0.8c0.2,0,0.3,0.2,0.3,0.5l-0.9,9.1v0.2c0,0.6,0.3,0.8,0.7,0.8
			c1.4,0,4.7-2.5,5.2-2.9c0.1-0.1,0.3-0.1,0.5-0.1c0.1,0,0.3,0,0.3,0.3v0.1L65.7,197.8z M45.9,200.5c-0.4,0-0.6-0.3-0.6-0.6
			c0-0.4,0.3-0.6,0.6-0.6h11c0.4-1.7,0.5-1.8,0.6-1.8c0.1,0,3.9,1.8,4.4,2.1c0.1,0.1,0.2,0.2,0.2,0.4c0,0.5-1.6,4.8-5.7,8.9
			c1.4,0.9,2.7,1.4,6.5,2.2c0.1,0,0.5,0.1,0.5,0.4c0,0.1,0,0.1,0,0.2c-1,1.2-4,4.5-4.4,4.5c-0.2,0-3.8-2.7-5.8-4.8
			c-3.4,2.2-7.7,3.3-8.3,3.3c-0.1,0-0.4,0-0.4-0.4c0-0.2,0.2-0.3,0.3-0.4c0.7-0.5,1.5-0.8,2.2-1.3c1.6-1,3.1-2.2,4.4-3.5
			c-1-1.6-1.6-3.6-1.6-5.5c0-0.2,0-0.5,0-0.7c0-0.1,0-0.2,0.1-0.3c0.1,0,0.2,0.1,0.3,0.2c1.4,1.5,2.3,2.7,3.2,3.7
			c1.3-1.9,2.3-3.9,3-6.1H45.9z"/>
		<path class="st1" d="M84.4,208.6c0.1,0,0.2,0.1,0.2,0.2c0,1.4-6.5,6.8-10,6.8c-0.2,0-0.4-0.2-0.4-0.4c0-0.1,0.1-0.2,0.2-0.3
			c0.3-0.3,0.7-0.6,1-0.9c2.8-2.5,3.9-5.3,4.1-5.7c0.2-0.5,0.3-1,0.5-1.4c0-0.1,0.2-0.1,0.3-0.1h0.1L84.4,208.6z M81.8,202
			c-0.4,0-0.6-0.3-0.6-0.7c0-0.3,0.2-0.6,0.6-0.6h15.7l1.3-3.4H82.4v0.3c0,0.2-0.1,0.4-0.3,0.5l-3.5,0.8h-0.1
			c-0.1,0-0.3-0.1-0.3-0.3l-0.5-10.7c0-0.1,0.1-0.3,0.2-0.3h0.1l3.7,1c0.2,0,0.4,0.3,0.4,0.5v0.3h3l0.3-4.4h-7.7
			c-0.4,0-0.6-0.3-0.6-0.6s0.2-0.6,0.6-0.6H102l1.4-3.7c0.1-0.2,0.3-0.3,0.5-0.3c0.2,0,0.4,0.2,0.4,0.3l1.6,4.1c0,0.1,0,0.2,0,0.3
			c0,0.3-0.4,0.5-0.6,0.5h-7.9c0.1,0.1,0.1,0.2,0.1,0.3l-0.3,4.1h3.4l0.1-1.4c0-0.1,0.1-0.2,0.3-0.2h0.1l3.6,1.3
			c0.2,0.1,0.3,0.2,0.3,0.5l-0.5,8.5c0,0.2-0.2,0.4-0.4,0.4l-3.7-0.1c-0.2,0-0.3-0.2-0.3-0.4l0-0.6h-0.4l1.5,3.9
			c0,0.1,0.1,0.2,0.1,0.3c0,0.2-0.1,0.6-0.6,0.6H81.8z M90,206.6l3.8,1c0.2,0,0.3,0.3,0.3,0.5c0,0.4-0.1,0.9-0.1,1.3l-0.3,2.8
			c-0.1,1.2-1.3,5.2-2.9,5.2c-0.8,0-6-2.4-7-2.9c-0.1,0-0.2-0.2-0.2-0.4c0-0.2,0.1-0.5,0.4-0.5c0,0,0.1,0,0.2,0l0.4,0.2
			c0.5,0.3,1.1,0.4,1.5,0.4c1.9,0,2.9-1.9,3.1-3.9c0.1-1.1,0.1-2.3,0.2-3.3c0-0.1,0-0.3,0.1-0.4H77.7c-0.4,0-0.6-0.3-0.6-0.6
			s0.2-0.6,0.6-0.6H101l1.8-4.7c0-0.1,0.3-0.3,0.5-0.3c0.2,0,0.4,0.1,0.5,0.3l1.9,5.1c0,0.1,0.1,0.2,0.1,0.3c0,0.4-0.4,0.5-0.6,0.5
			H90z M85,190.5h-2.9l0.2,5.5h2.4L85,190.5z M92.8,190.5h-3.3l-0.4,5.5h3.5L92.8,190.5z M93,184.9h-3.1v0.1l-0.4,4.3h3.3L93,184.9z
			 M100.6,190.5h-3.3l-0.3,5.5h3.3L100.6,190.5z M98.1,210.5c-0.1,0-0.1-0.1-0.1-0.2c0-0.2,4.2-2.6,4.3-2.6c0.1,0,0.2,0,0.3,0.1
			c0.6,0.8,1.4,2.4,2,3.3l1.8,3.1c0.2,0.4,0.5,0.8,0.7,1.2c0,0,0,0.1,0,0.2c0,0.1,0,0.2-0.1,0.2c0,0.1-0.1,0.1-0.2,0.1
			c-0.1,0-0.2,0-0.2,0L98.1,210.5z"/>
		<path class="st1" d="M120.6,201.7c-0.1-0.2-0.2-0.3-0.2-0.5c0-0.3,0.2-0.5,0.5-0.6c5.3-2.9,9-5.4,13.7-8.1c0,0,0.1,0,0.2,0
			c0.6,0,7.2,7.1,16.6,18.2c0.2,0.2,0.3,0.5,0.3,0.7c0,0.3-0.2,0.5-0.5,0.5c-0.1,0-0.3,0-0.5-0.2c-8.4-6.8-13.9-11-19.4-14.8
			c-2.5,2.3-5,4.6-7.7,7.2c-0.2,0.2-0.3,0.3-0.5,0.3c-0.1,0-0.3-0.1-0.6-0.4L120.6,201.7z M148.9,198.8c-2.3,0-4.2-1.8-4.2-4.2
			s1.9-4.2,4.2-4.2c2.4,0,4.2,1.9,4.2,4.2S151.2,198.8,148.9,198.8z M148.9,192.3c-1.3,0-2.4,1-2.4,2.4s1,2.4,2.4,2.4
			c1.3,0,2.4-1,2.4-2.4S150.2,192.3,148.9,192.3z"/>
		<path class="st1" d="M164.6,200.9c-0.2,0-0.4-0.1-0.4-0.4l-0.3-1.8v-0.1c0-0.1,0.1-0.3,0.3-0.3l23-0.3c0.2,0,0.4,0.1,0.5,0.4
			l0.3,2c0,0.2-0.1,0.4-0.3,0.4L164.6,200.9z"/>
		<path class="st1" d="M202.2,194.2c0.1-0.1,0.2-0.2,0.4-0.2c0.4,0,4.6,2.9,8.6,6.1c0.1,0.1,0.2,0.3,0.2,0.4c0,0.3-0.2,0.5-0.5,0.5
			c0,0-0.1,0-0.2,0c-4.3-1.7-5.7-2.1-9.8-3.5c-0.2,0-0.4-0.1-0.4-0.3c0-0.1,0-0.2,0.1-0.3L202.2,194.2z M203.9,210.4
			c0,0-0.1-0.1-0.1-0.2c0-0.1,0.1-0.3,0.4-0.4c9.5-3.2,20-11.6,22.7-15.1c0.1-0.1,0.3-0.2,0.4-0.2c0.2,0,0.5,0.2,0.5,0.5
			c0,0.1,0,0.2-0.1,0.4c-5.3,9.6-12,13.7-20.9,18.4c-0.1,0-0.2,0-0.3,0c-0.1,0-0.2,0-0.3-0.1L203.9,210.4z M206.6,186.8
			c0.1,0,0.2-0.1,0.4-0.1c0.8,0,6.9,8.1,6.9,8.5c0,0.2-0.2,0.4-0.4,0.4c-0.2,0-0.3,0-9-5.9c-0.1-0.1-0.3-0.2-0.3-0.4
			c0-0.1,0-0.2,0.2-0.3L206.6,186.8z M225.7,187.9c0.2-0.1,0.4-0.2,0.5-0.2c0.5,0,0.7,0.4,1.9,2.4c1.3,2.3,2.1,4,2.1,4.3
			c0,0,0,0.3-0.3,0.3c-0.1,0-0.2-0.1-0.3-0.2c-1.5-1.3-1.8-1.5-5.7-4.6c-0.1-0.1-0.2-0.3-0.2-0.4c0-0.2,0-0.3,0.2-0.4L225.7,187.9z
			 M231.9,190.6c-2-1.7-3.3-2.6-3.8-3c-0.2-0.2-0.3-0.3-0.3-0.4c0-0.1,0.1-0.2,0.3-0.4l1.9-1.3c0.2-0.1,0.3-0.2,0.5-0.2
			c0.2,0,0.3,0.1,0.4,0.3c0,0,0.1,0.2,1.2,1.9c0.9,1.4,2.4,4.1,2.4,4.4c0,0.1,0,0.3-0.3,0.3c-0.1,0-0.2,0-0.3-0.1L231.9,190.6z"/>
		<path class="st1" d="M241.5,203.2c0,0-0.1-0.1-0.1-0.2c0-0.1,0-0.2,0.1-0.2c0,0,2.8-1.7,5.8-3.9c3.2-2.3,8-6.7,8-6.7
			c0.1-0.1,0.2-0.1,0.4-0.1c0.2,0,0.4,0.2,0.6,0.5c5.4,7.7,11.4,13.7,16.9,18.4c0.2,0.2,0.4,0.5,0.4,0.7c0,0.7-0.5,0.8-0.8,0.8
			c-1.9,0-13.3-9.1-18.3-15.5c-0.1,0.1-5.2,5.3-9.7,8.8c0,0-0.1,0.1-0.2,0.1c-0.1,0-0.3,0-0.4-0.1L241.5,203.2z"/>
	</g>
	<g>
		<rect x="9.3" y="9.4" class="st2" width="281.4" height="228.8"/>
		<rect x="4.9" y="5.2" class="st3" width="290" height="238"/>
	</g>
</g>
<g id="_x5B_Trim_marks_x5D_" class="st4">
	<polyline class="st5" points="-8.5,-34 -8.5,0 -34,0 	"/>
	<polyline class="st5" points="0,-34 0,-8.5 -34,-8.5 	"/>
	<polyline class="st5" points="308.5,-34 308.5,0 334,0 	"/>
	<polyline class="st5" points="300,-34 300,-8.5 334,-8.5 	"/>
	<polyline class="st5" points="-8.5,284 -8.5,250 -34,250 	"/>
	<polyline class="st5" points="0,284 0,258.5 -34,258.5 	"/>
	<polyline class="st5" points="308.5,284 308.5,250 334,250 	"/>
	<polyline class="st5" points="300,284 300,258.5 334,258.5 	"/>
	<line class="st5" x1="150" y1="-36" x2="150" y2="-12"/>
	<line class="st5" x1="114" y1="-18" x2="186" y2="-18"/>
	<line class="st5" x1="150" y1="286" x2="150" y2="262"/>
	<line class="st5" x1="114" y1="268" x2="186" y2="268"/>
	<line class="st5" x1="-36" y1="125" x2="-12" y2="125"/>
	<line class="st5" x1="-18" y1="89" x2="-18" y2="161"/>
	<line class="st5" x1="336" y1="125" x2="312" y2="125"/>
	<line class="st5" x1="318" y1="89" x2="318" y2="161"/>
</g>
<g id="_x5B_Guides_x5D_">
</g>
</svg>
