<svg id="レイヤー_1" data-name="レイヤー 1" xmlns="http://www.w3.org/2000/svg" viewBox="0 0 850.39 850.39"><defs><style>.cls-1{fill:#ef8fa2;}.cls-2{fill:#fff;}</style></defs><title>ミス</title><rect class="cls-1" width="850.39" height="850.39"/><path class="cls-2" d="M779.18,775.44c3.16-28.93,38.14-38.7,51.28-61.73,5.54-9.7,7.37-21.57,1.52-31.58-5.4-9.24-16.15-14.59-26.76-14.06-11.9.6-22,8.27-27.77,18.34H779c-5.34-9.27-14.23-16.54-25-18.08a29.88,29.88,0,0,0-28,11.52c-7,9.6-6.17,21.82-1,32,6.13,12,17.24,20.05,27.47,28.36,12.21,9.92,22.48,21.05,25,37.13a.89.89,0,0,0,1.6.21c2.83-5.87,2.28-12.36,5.7-18.15,4-6.75,9.93-12,16.23-16.5,10.82-7.81,23-14.14,31-25.25,6.76-9.47,8.39-21.27,3-31.81-5.45-10.73-16.93-17-28.84-16.73-13.44.26-25.11,8.81-31,20.6l1.64.44c-.32-12.19-12.75-17.27-23-19.38-11.17-2.3-22.28-.1-29.37,9.4s-7.09,22.27-2.52,32.85c4.94,11.44,14.51,19.55,24.69,26.23,13,8.56,30,18.53,29.33,36.46,0,1.13,1.71,1.13,1.75,0,.48-12.34-7.78-22.25-17.17-29.26-12.43-9.27-26.72-15.84-34.81-29.8-7.75-13.37-7.51-32.65,6.77-41.64,7.49-4.72,16.57-3.86,24.74-1.63s17.56,6.92,17.82,16.75a.88.88,0,0,0,1.64.44c7.38-14.69,23.89-23.44,40.06-18.17s24.47,23.84,16.84,39.25c-7.12,14.37-22.35,21.51-34.66,30.61-5.53,4.08-10.69,8.71-14.52,14.46a29.5,29.5,0,0,0-4.19,8.78c-1,3.74-.91,7.6-2.61,11.14l1.6.21c-2.13-13.5-9.62-24.11-19.68-33-11.27-10-24.88-18.11-32.34-31.66-3.8-6.91-5.86-15.05-3.82-22.85a26.36,26.36,0,0,1,16.46-17.77c15-5.54,30.1,2.54,37.68,15.7a.89.89,0,0,0,1.52,0c7.31-12.7,21.73-20.8,36.36-16.15A26.56,26.56,0,0,1,832.72,688c2.48,7.69.82,15.9-2.78,23-12.7,24.88-49.19,34-52.52,64.44-.12,1.12,1.63,1.11,1.75,0Z"/><path class="cls-2" d="M779.5,174c-2.16-18.51-22.15-24.84-30.55-39.53-5.13-9-4.5-20.87,5.48-26.1,9.3-4.87,18.88.88,23.5,9.24a.88.88,0,0,0,1.52,0c4.61-8.36,14.21-14.12,23.5-9.24,10.28,5.4,10.57,17.67,5.11,26.73-4.88,8.1-13.16,13.16-19.7,19.73a35.76,35.76,0,0,0-10.57,20h1.69c-1.48-3.56-1.29-7.44-3-10.94a31.47,31.47,0,0,0-7.37-9.27c-7.27-6.47-16.69-10.69-22-19.21-5.7-9.22-3.06-22.15,7.35-26.69,10.17-4.43,20.38,1.69,24.87,11,.4.83,1.6.36,1.64-.44.56-11.78,20.07-14.82,27.2-7.62,7.42,7.5,5.49,19.54-.09,27.47-8.7,12.38-29.76,17.15-29.41,35a.88.88,0,0,0,1.75,0c-.28-13.92,13.81-19.48,22.79-27.19,7.3-6.28,12.66-15.52,11.42-25.43-1-8.23-7.11-15.44-15.77-15.63-8.22-.18-19.2,3.93-19.65,13.37l1.64-.44c-4-8.29-12.23-14.41-21.76-13.22a19.49,19.49,0,0,0-16.67,16.91c-1.31,9.73,5.06,17.79,12.28,23.45,5.05,4,10.72,7.21,15.22,11.85a26.83,26.83,0,0,1,5.33,7.55c1.43,3.19,1.22,6.7,2.56,9.91.29.69,1.54,1,1.69,0,2-12.83,11-20.08,20.19-28.19,7.59-6.71,15.12-15.8,13.74-26.66a18.32,18.32,0,0,0-15.86-15.58c-8.51-.92-15.69,4.74-19.61,11.84h1.52c-3.87-7-11-12.69-19.38-11.87a18.34,18.34,0,0,0-15.94,14.67c-4.52,24.88,31,32,33.63,54.47.13,1.11,1.89,1.12,1.75,0Z"/><path class="cls-2" d="M777.68,169.38V665.06c0,6.54-.84,13.71,0,20.21a6.93,6.93,0,0,1,0,.86.88.88,0,0,0,1.75,0V190.45c0-6.54.84-13.71,0-20.21a6.93,6.93,0,0,1,0-.86.88.88,0,0,0-1.75,0Z"/><path class="cls-2" d="M806.72,670.46a330.54,330.54,0,0,1,23.77,44.32c.46,1,2,.14,1.52-.89a330.52,330.52,0,0,0-23.77-44.32c-.61-.95-2.13-.07-1.52.89Z"/><path class="cls-2" d="M817.29,672.42a243.67,243.67,0,0,1,17.32,32.29c.46,1,2,.14,1.52-.89a243.67,243.67,0,0,0-17.32-32.29c-.61-.95-2.12-.07-1.52.89Z"/><path class="cls-2" d="M796.87,672.19l26.38,52c.51,1,2,.12,1.52-.89l-26.38-52c-.51-1-2-.12-1.52.89Z"/><path class="cls-2" d="M789,676.05l27.65,53.49c.52,1,2,.12,1.52-.89l-27.65-53.49c-.52-1-2-.12-1.52.89Z"/><path class="cls-2" d="M778.88,682.73,808,735.23c.55,1,2.06.1,1.52-.89l-29.13-52.5c-.55-1-2.06-.1-1.52.89Z"/><path class="cls-2" d="M765.83,676.4c9.36,22.53,22.42,43.6,34.84,64.53a.88.88,0,0,0,1.52-.89c-12.34-20.79-25.37-41.73-34.66-64.11-.43-1-2.13-.58-1.69.47Z"/><path class="cls-2" d="M750.92,671.63c13.91,25.12,28,50.11,42,75.23.55,1,2.06.1,1.52-.89-13.91-25.12-28-50.12-42-75.23-.55-1-2.06-.1-1.52.89Z"/><path class="cls-2" d="M738.57,672.42,786,754.8a.88.88,0,0,0,1.52-.89l-47.39-82.39a.88.88,0,0,0-1.52.89Z"/><path class="cls-2" d="M727.28,679.46c17.23,28.19,35.56,55.68,52.79,83.88.59,1,2.11.08,1.52-.89-17.23-28.19-35.56-55.68-52.79-83.88-.59-1-2.11-.08-1.52.89Z"/><path class="cls-2" d="M720.61,689.67c10.44,18,22.63,34.82,33.07,52.78a.88.88,0,0,0,1.52-.89c-10.44-18-22.63-34.82-33.07-52.78a.88.88,0,0,0-1.52.89Z"/><path class="cls-2" d="M778.61,169.34c-1.12,22.64-1.1,45.36-1.33,68q-.61,58.46-.7,116.93-.19,67-.06,134,.12,60.37.57,120.73c.22,25.15.31,50.33,1.2,75.47q.08,2.38.2,4.76c.05,1.12,1.81,1.13,1.75,0-1.08-22.64-1.06-45.36-1.28-68q-.58-58.46-.65-116.93-.17-67,0-134,.14-60.36.62-120.73c.23-25.15.33-50.33,1.25-75.47q.09-2.38.2-4.76c.06-1.13-1.7-1.13-1.75,0Z"/><path class="cls-2" d="M816.62,637.28a27.92,27.92,0,0,0-21.1,2.12,32.59,32.59,0,0,0-14.05,15.1,3.59,3.59,0,0,1-6.53,0,32.59,32.59,0,0,0-14.05-15.1,27.92,27.92,0,0,0-21.1-2.12.74.74,0,0,1-.51-1.39,31,31,0,0,1,11.51-2.6,31.54,31.54,0,0,1,11.91,2,38.53,38.53,0,0,1,18.76,15.57h-6.53a38.53,38.53,0,0,1,18.76-15.57,31.54,31.54,0,0,1,11.91-2,31,31,0,0,1,11.51,2.6.74.74,0,0,1-.51,1.39Z"/><path class="cls-2" d="M808.26,594.79A21.52,21.52,0,0,0,792,596.74a24.88,24.88,0,0,0-10.5,11.78,3.56,3.56,0,0,1-6.53,0,24.88,24.88,0,0,0-10.5-11.78,21.52,21.52,0,0,0-16.28-1.95.74.74,0,0,1-.51-1.39,24.54,24.54,0,0,1,18.61-.74,30.83,30.83,0,0,1,15.21,12.25h-6.53a30.83,30.83,0,0,1,15.21-12.25,24.54,24.54,0,0,1,18.61.74.74.74,0,0,1-.51,1.39Z"/><path class="cls-2" d="M808.26,99.6A21.52,21.52,0,0,0,792,101.55a24.88,24.88,0,0,0-10.5,11.78,3.56,3.56,0,0,1-6.53,0,24.88,24.88,0,0,0-10.5-11.78,21.52,21.52,0,0,0-16.28-1.95.74.74,0,0,1-.51-1.39,24.54,24.54,0,0,1,18.61-.74,30.83,30.83,0,0,1,15.21,12.25h-6.53a30.83,30.83,0,0,1,15.21-12.25,24.54,24.54,0,0,1,18.61.74.74.74,0,0,1-.51,1.39Z"/><path class="cls-2" d="M72.48,70.76c3.32,30.44,39.82,39.57,52.52,64.44,3.6,7,5.26,15.25,2.78,23A26.58,26.58,0,0,1,110.39,175c-14.65,4.65-29-3.45-36.36-16.15a.89.89,0,0,0-1.52,0c-7.58,13.15-22.72,21.24-37.68,15.7a26.36,26.36,0,0,1-16.46-17.77c-2-7.8,0-15.94,3.82-22.85,7.46-13.54,21.07-21.67,32.34-31.66,10.06-8.92,17.55-19.53,19.68-33l-1.6.21c1.71,3.54,1.65,7.4,2.61,11.14a29.5,29.5,0,0,0,4.19,8.78c3.83,5.76,9,10.38,14.52,14.46,12.31,9.1,27.55,16.24,34.66,30.61,7.63,15.41-.62,34-16.84,39.25s-32.68-3.49-40.06-18.17a.88.88,0,0,0-1.64.44c-.26,9.85-9.52,14.49-17.82,16.75-7.95,2.17-16.81,3.07-24.21-1.3-14.77-8.73-15.13-28.46-7.29-42,7.94-13.7,21.88-20.32,34.18-29.33,9.65-7.07,18.29-17.06,17.8-29.72,0-1.13-1.8-1.13-1.75,0,.61,15.72-12.87,25.82-24.72,33.48-10.57,6.84-21.09,14-27.37,25.29-5.57,10-7.23,22.64-1.76,33s16,15.16,27.54,13.82c11.27-1.32,26.81-6.48,27.17-20.07l-1.64.44c5.24,10.42,15,18.48,26.71,20.23,11.39,1.7,23.43-2.61,30.4-11.92A29.68,29.68,0,0,0,129.81,133c-6.2-11.88-18-19.06-28.73-26.29-7.15-4.8-14.29-10-19.36-17.05a28.64,28.64,0,0,1-5.2-11.45c-.61-3.31-.92-6.54-2.4-9.61a.89.89,0,0,0-1.6.21c-2.18,13.77-10,24.3-20.37,33.25-10.1,8.75-21.74,16.17-29.3,27.45-6.26,9.34-9.46,21.26-4.68,31.94,4.64,10.37,15.6,16.75,26.83,16.7,12.38-.06,23-8,29-18.38H72.51c5.23,9.09,13.87,16.27,24.42,18A29.91,29.91,0,0,0,125,167c6.88-8.81,7-20.27,2.7-30.24-5.17-11.87-15.25-20.12-25.11-28C90.37,99,76.05,87.43,74.23,70.76c-.12-1.11-1.88-1.12-1.75,0Z"/><path class="cls-2" d="M72.8,672.2c-2.62,22.48-38.15,29.6-33.63,54.47A18.32,18.32,0,0,0,55,741.32c8.48.84,15.59-4.78,19.49-11.86H73c3.92,7.1,11.1,12.76,19.61,11.84a18.33,18.33,0,0,0,15.86-15.58c1.41-10.85-6.17-20-13.74-26.66-9.18-8.12-18.19-15.35-20.19-28.19-.15-1-1.41-.69-1.69,0-1.18,2.83-1.1,5.9-2.13,8.77a24.32,24.32,0,0,1-5.29,8.2c-4.57,4.89-10.45,8.23-15.67,12.34-7.22,5.68-13.59,13.72-12.28,23.45a19.48,19.48,0,0,0,16.67,16.91c9.55,1.18,17.75-4.9,21.76-13.21l-1.64-.44c.44,9.25,10.83,13.19,18.88,13.35,9,.18,15.45-7,16.54-15.62,1.23-9.64-3.87-18.74-10.88-25-9-8-23.61-13.42-23.32-27.65a.88.88,0,0,0-1.75,0c-.36,17.89,20.71,22.64,29.41,35,5.45,7.77,7.46,19.47.51,27S76.58,739,76,726.89c0-.8-1.23-1.28-1.64-.44-4.3,8.92-13.81,15-23.78,11.47-11.19-4-14.34-17.62-8.44-27.17,5.12-8.29,14.2-12.53,21.38-18.71a32.59,32.59,0,0,0,7.64-9.15c2-3.7,1.77-7.77,3.35-11.55H72.83a35.39,35.39,0,0,0,10.09,19.53c6.63,6.81,15.19,11.93,20.18,20.23,5.34,8.87,5.25,20.82-4.6,26.45-9.35,5.34-19.3-.42-24-9a.88.88,0,0,0-1.52,0c-4.49,8.12-13.78,14-23,9.52-10.38-5-11.24-17.19-6-26.37,8.4-14.69,28.4-21,30.55-39.53.13-1.12-1.63-1.11-1.75,0Z"/><path class="cls-2" d="M74.49,676.82V181.14c0-6.54.84-13.71,0-20.21a6.93,6.93,0,0,1,0-.86.88.88,0,0,0-1.75,0V655.75c0,6.54-.84,13.71,0,20.21a6.93,6.93,0,0,1,0,.86.88.88,0,0,0,1.75,0Z"/><path class="cls-2" d="M103.29,176.62a330.52,330.52,0,0,0,23.77-44.32c.45-1-1.06-1.92-1.52-.89a330.55,330.55,0,0,1-23.77,44.32c-.61,1,.91,1.84,1.52.89Z"/><path class="cls-2" d="M113.56,174.66a247.51,247.51,0,0,0,17.62-32.86c.45-1-1.06-1.92-1.52-.89A247.54,247.54,0,0,1,112,173.78c-.61,1,.91,1.84,1.52.89Z"/><path class="cls-2" d="M93.44,174.89l26.38-52c.51-1-1-1.89-1.52-.89L91.92,174c-.51,1,1,1.89,1.52.89Z"/><path class="cls-2" d="M85.59,171l27.65-53.49c.52-1-1-1.89-1.52-.89L84.08,170.14c-.52,1,1,1.89,1.52.89Z"/><path class="cls-2" d="M75.46,164.35l29.13-52.5c.55-1-1-1.87-1.52-.89l-29.13,52.5c-.55,1,1,1.87,1.52.89Z"/><path class="cls-2" d="M62.58,170.26c9.3-22.38,22.32-43.32,34.66-64.11a.88.88,0,0,0-1.52-.89c-12.43,20.93-25.48,42-34.84,64.53-.43,1,1.26,1.5,1.69.47Z"/><path class="cls-2" d="M47.49,175.45c13.91-25.12,28-50.12,42-75.23.55-1-1-1.87-1.52-.89-13.91,25.12-28,50.11-42,75.23-.55,1,1,1.87,1.52.89Z"/><path class="cls-2" d="M35.14,174.66,82.53,92.28A.88.88,0,0,0,81,91.39L33.62,173.78a.88.88,0,0,0,1.52.89Z"/><path class="cls-2" d="M23.85,167.62c17.23-28.19,35.56-55.68,52.79-83.88.59-1-.93-1.85-1.52-.89-17.23,28.19-35.56,55.68-52.79,83.88-.59,1,.93,1.85,1.52.89Z"/><path class="cls-2" d="M17.18,157.41c10.44-18,22.63-34.82,33.07-52.78a.88.88,0,0,0-1.52-.89c-10.44,18-22.63,34.82-33.07,52.78a.88.88,0,0,0,1.52.89Z"/><path class="cls-2" d="M75.42,676.86c-1.12-22.64-1.1-45.36-1.33-68q-.61-58.46-.7-116.93-.19-67-.06-134,.12-60.37.57-120.73c.22-25.15.31-50.33,1.2-75.47q.08-2.38.2-4.76c.05-1.13-1.7-1.13-1.75,0-1.08,22.64-1.06,45.36-1.28,68q-.58,58.46-.65,116.93-.17,67,0,134,.14,60.36.62,120.73c.23,25.15.33,50.33,1.25,75.47q.09,2.38.2,4.76c.06,1.12,1.81,1.13,1.75,0Z"/><path class="cls-2" d="M112.19,210.3a31,31,0,0,1-11.51,2.6,31.55,31.55,0,0,1-11.91-2A38.54,38.54,0,0,1,70,195.31h6.53a38.54,38.54,0,0,1-18.76,15.57,31.55,31.55,0,0,1-11.91,2,31,31,0,0,1-11.51-2.6.74.74,0,0,1,.51-1.39,27.92,27.92,0,0,0,21.1-2.12A32.59,32.59,0,0,0,70,191.7a3.59,3.59,0,0,1,6.53,0,32.59,32.59,0,0,0,14.05,15.1,27.92,27.92,0,0,0,21.1,2.12.74.74,0,0,1,.51,1.39Z"/><path class="cls-2" d="M103.82,252.79a24.54,24.54,0,0,1-18.61.74A30.83,30.83,0,0,1,70,241.28h6.53a30.83,30.83,0,0,1-15.21,12.25,24.54,24.54,0,0,1-18.61-.74.74.74,0,0,1,.51-1.39,21.52,21.52,0,0,0,16.28-1.95A24.88,24.88,0,0,0,70,237.67a3.56,3.56,0,0,1,6.53,0A24.88,24.88,0,0,0,87,249.45a21.52,21.52,0,0,0,16.28,1.95.74.74,0,0,1,.51,1.39Z"/><path class="cls-2" d="M103.82,748a24.54,24.54,0,0,1-18.61.74A30.83,30.83,0,0,1,70,736.48h6.53a30.83,30.83,0,0,1-15.21,12.25A24.54,24.54,0,0,1,42.71,748a.74.74,0,0,1,.51-1.39,21.52,21.52,0,0,0,16.28-1.95A24.88,24.88,0,0,0,70,732.86a3.56,3.56,0,0,1,6.53,0A24.88,24.88,0,0,0,87,744.64a21.52,21.52,0,0,0,16.28,1.95.74.74,0,0,1,.51,1.39Z"/><path class="cls-2" d="M372.76,384c-57.4-18.78-94.25-29.06-141.38-37.21-2.48-.35-3.9-1.42-3.9-3.54,0-.35.35-1.06.35-1.42l11-25.87c1.06-1.77,2.48-2.84,4.25-2.84,3.9,0,81.5,28,132.17,64.84a3.32,3.32,0,0,1,2.13,2.84,3,3,0,0,1-3.19,3.19Zm-17-86.81c-48.9-14.17-71.22-20.55-109.14-28.35a3.85,3.85,0,0,1-3.19-3.9,2.13,2.13,0,0,1,.35-1.42l9.57-21.61c.71-1.77,1.77-3.9,4.61-3.9,1.42,0,54.57,21.61,101.7,51.73a3.1,3.1,0,0,1,1.77,3.19c0,3.19-2.13,4.25-4.61,4.25ZM265.39,166.07c1.42-1.77,3.19-3.19,5-3.19,1.42,0,58.11,30.47,95.32,61.3a4.33,4.33,0,0,1,1.42,3.19,3.72,3.72,0,0,1-3.9,3.9,3.19,3.19,0,0,1-1.77-.35c-49.61-20.2-71.22-28.7-107.37-40.39-1.42-.71-3.19-1.06-3.19-3.19a2.69,2.69,0,0,1,.71-1.42Z"/><path class="cls-2" d="M600.08,363.64c-20.91-18.78-37.56-34.37-61.3-52.09-26.93,24.8-62.36,51.73-103.47,67-.71,0-1.42.35-2.13.35-2.13,0-3.19-1.42-3.9-3.54v-1.42a3.85,3.85,0,0,1,1.42-3.19c60.95-40,108.43-97.8,135.36-157.68h-112c-2.83,0-5-2.84-5-5.32a5.15,5.15,0,0,1,5-5.32H570c2.48-5,3.9-9.57,6-15.24.71-1.77,1.77-2.48,3.19-2.48a9,9,0,0,1,2.48.71L615,206.31a4,4,0,0,1,1.06,2.48c0,1.06-23,42.88-52.8,76.89,32.25,38.27,69.45,92.48,69.45,97.8a5,5,0,0,1-4.61,4.61,3.66,3.66,0,0,1-2.84-1.42Z"/><path class="cls-2" d="M287.81,582.07a1.21,1.21,0,0,1,1.28,1.14c0,6-52.39,37-79,41a3.19,3.19,0,0,1-3.32-2c-.51-1.14-4.09-15.07-4.09-16.21,0-1.71.51-2.28,2-2.56,6.13-1.42,12.52-1.42,18.66-2.56,3.83-.57,7.92-1.42,12-2.28,0-18.77-.26-37.83-.77-56.6v-.57a1.12,1.12,0,0,1,.26-.85h-25.3c-2,0-3.32-2-3.32-4a3.59,3.59,0,0,1,3.32-3.7h57.5l7.41-21.9a2.49,2.49,0,0,1,2.56-2c1.28,0,1.79.85,2.3,2l8.43,24.74a5.73,5.73,0,0,1,.51,2,2.3,2.3,0,0,1-.51,1.42,3.93,3.93,0,0,1-2.81,1.42H238.23l18.15,2.84a2.33,2.33,0,0,1,2,2.28c0,15.93-.51,31.57-.51,47.21l9.2-3.13c4.34-1.42,8.94-3.13,13.29-4.83,2.3-.85,4.6-2.28,6.64-2.84Zm-41.4-72a2.06,2.06,0,0,1-2-2l-2.3-41H231.33c-19.17,21.33-25.81,23.89-25.81,23.89-1.53,0-1.53-1.71-1.53-2a4.37,4.37,0,0,1,.51-1.71c1.53-3.41,3.58-6.83,5.11-10a208.52,208.52,0,0,0,10.73-24.74c2.3-6.26,4.34-12.51,6.39-18.77,1-3.7,1.53-7.39,2.81-10.81.26-.85.77-1.42,1.53-1.42a.88.88,0,0,1,.77.28l22,12.23a2.09,2.09,0,0,1,1,1.71c0,3.13-11.5,17.06-17.12,23.61H278.1l7.67-21.9a2.57,2.57,0,0,1,2.3-2.28,2.9,2.9,0,0,1,2.3,2l8.43,24.74a5.74,5.74,0,0,1,.51,2,2.58,2.58,0,0,1-.77,1.71,2.53,2.53,0,0,1-2.56,1.42H266.6l1,37.26c0,1.14-.77,2.56-1.79,2.56ZM396.17,618.47c-11.24-1.42-28.11-6-38.59-10.81-11.5-5.4-13.8-9.38-13.8-21v-4.27c.26-6,.26-11.95.26-17.92,0-8.25,0-16.5-.26-24.46V537.7H320a256,256,0,0,1-7.67,34.41l21.72-9.1h.51c1,0,1.79,1.42,2,2.28,2.81,7.4,6.64,29.86,7.41,38.11,0,1.42,0,3.41-2,3.41a2.13,2.13,0,0,1-1.53-.85c-5.88-6.26-11.5-12.8-17.63-19.06-3.58-3.7-8.18-7.39-11.5-11.38-10.48,33-31.18,48.35-33,48.35a1.91,1.91,0,0,1-2-2,5.15,5.15,0,0,1,.51-1.42c13.55-24.74,17.63-39,17.63-67.69,0-5.12-.26-10.24-.51-15.36-.26-5.69-1-11.38-1-17.06,0-.85.51-2.28,1.53-2.56,1,0,23.51,4,25.3,4.55a2.7,2.7,0,0,1,1.79,2.56A34.68,34.68,0,0,1,321,530h22.23c0-5.69,0-9.1,1.28-9.1h.77l22,9.39c1.28.57,1.53,1.42,1.53,2.84l-1,14.79L366,580.36v3.41c0,7.11,2.3,11.09,14.06,12.23,3.83,0,15.84-11.09,18.91-14.22,1.53-1.14,3.07-3.41,4.6-4.27a1.42,1.42,0,0,1,1-.28c1.28,0,2.3,1.42,2.3,2.84v.57l-8.18,36.12c-.26,1.42-1,1.71-1.79,1.71ZM355,467.17,347.61,503c-.26,1.14-.77,2-1.79,2h-.51l-19.68-2.28c-.77,0-1.53-1.42-1.53-2.28L330,467.17H317.46a148.94,148.94,0,0,1-23.51,23.61,2.13,2.13,0,0,1-1.53.85,1.34,1.34,0,0,1-1.28-.57c-.51-.28-.51-.85-.51-1.42a4.37,4.37,0,0,1,.51-1.71c12-25,13.8-29.58,20.19-52.62.77-3.13,1.53-8.25,2.56-10.81a2,2,0,0,1,1.79-1.42.88.88,0,0,1,.77.28l22,11.94a2.11,2.11,0,0,1,.77,1.71,2.32,2.32,0,0,1-.26,1.42c-1,2.84-9.2,13.65-15.08,21h43.7l7.41-21.9c.51-1.14,1.28-2.28,2.3-2.28a3.1,3.1,0,0,1,2.56,2l8.43,24.74a4,4,0,0,1,.26,1.71,2.59,2.59,0,0,1-.51,2,2.74,2.74,0,0,1-2.56,1.42Z"/><path class="cls-2" d="M469.1,602.66a1.47,1.47,0,0,1-1.08-.58c-3.25-5.51-6.5-9.86-9.53-14.49l-5-7.25c-6.06,11.3-19.49,31.88-22.09,31.88a1.61,1.61,0,0,1-1.73-1.74,8.45,8.45,0,0,1,.22-1.16c1.73-7.25,5.41-24.64,8.23-51.3,0-.58.43-1.16.87-1.16a.61.61,0,0,1,.43.29c5,4.06,9.75,8.7,14.73,13.33l10.4-4.06c.43,0,.65-.29.87-.29a1.85,1.85,0,0,1,1.95,1.74A296.35,296.35,0,0,1,470.62,600v.29a2.9,2.9,0,0,1-1.08,2.32Zm23.82,17.1c-.87-.29-1.3-1.45-1.3-2.61v-.29l.43-3.48c.22-1.16.87-1.74,1.52-1.74H494l1.95.87a21.35,21.35,0,0,0,5,.58c6.06,0,14.51-3.77,14.94-29l.65-32.46H464.12l-14.51,7.25c-.22,0-.22.29-.43.29-.65,0-1.08-.87-1.08-1.74l1.3-124.64c0-.87.43-1.45.87-1.45.22,0,.43.29.65.29l13.65,10.15H516.1l6.5-22.9c.65-2,1.52-2,2.17-2,.43,0,1.3,0,1.95,2l7.36,25.8a4.8,4.8,0,0,1,.22,1.74,3.06,3.06,0,0,1-2.81,3.19H487.3l15.16,10.72a4.39,4.39,0,0,1,1.52,3.48l-.22,12.75h9.31l4.55-15.65c.65-2,1.52-2.32,2.17-2.32.43,0,1.3.29,1.95,2l5.2,18.84a5.14,5.14,0,0,1,.43,1.74,3.42,3.42,0,0,1-2.82,3.48h-21l-.43,26.38h12.78l4.55-15.65c.65-2,1.52-2.32,1.95-2.32.65,0,1.52.29,2.17,2l5.2,18.55a4.1,4.1,0,0,1,.22,1.45v.58a4.8,4.8,0,0,1-.22,1.74,3.23,3.23,0,0,1-2.6,1.45h-24l-.43,25.8h13.86l.22-6.38c0-.87.43-1.45.87-1.45L538,551.93a4.19,4.19,0,0,1,1.3,2.9v.58c-4.12,49-8.23,75.07-13.43,75.07a4.12,4.12,0,0,1-1.73-.29Zm-9.31-100.87H467.8l-.43,25.8h15.81Zm.43-34.2H468.24l-.43,26.38h15.81Zm.65-34.78v-.29H468.89l-.43,27h15.81ZM490.33,598c0,1.16-.65,2.61-1.73,2.61-.43,0-.65-.29-.87-.87-3.25-5.22-6.5-9.85-9.53-14.49-8.23-11.88-9.1-13-9.1-13.33a2.12,2.12,0,0,1,1.08-1.74l14.08-6.09h.65c1.08,0,1.95.29,2.17,1.74a298.7,298.7,0,0,1,3.25,31.88ZM509,594a1.47,1.47,0,0,1-1.08-.58c-3.25-5.51-6.5-9.85-9.53-14.49-6.06-8.69-9.1-13-9.1-13.33,0-1.74,1.52-2.9,15.16-7.83.43,0,.65-.29.87-.29a1.85,1.85,0,0,1,1.95,1.74,296,296,0,0,1,3.25,32.17v.29a2.9,2.9,0,0,1-1.08,2.32Zm59.78,5.22a3.2,3.2,0,0,1-1.08-2.32,1.31,1.31,0,0,1,.22-.87l1.08-3.77c.22-.87.65-1.16,1.3-1.16a.68.68,0,0,1,.65.29c2.38,2,7.15,5.22,12.35,5.22,8,0,18.84-2.9,26-111.3h-44a86.38,86.38,0,0,1-14.73,27.54L562,516.57l.87.87h15.59l.22-4.64c0-.87.65-1.74,1.3-1.74h.43l15.81,7a3.13,3.13,0,0,1,1.52,2.9v.29l-1.95,47.25a2.23,2.23,0,0,1-1.95,2.32l-16-.29c-1.08,0-1.73-1.16-1.73-2.32l.22-4.64H565.05V565a2.62,2.62,0,0,1-1.73,2.61l-14.51,4.06h-.22c-.87,0-1.52-.58-1.52-1.74l-1.73-51.59c-5.85,5.8-11.48,9.57-22.31,15.94a1.06,1.06,0,0,1-.87.29c-1.08,0-1.95-.87-1.95-2.9a2.62,2.62,0,0,1,.43-1.74C543.18,502.08,546,488.75,546,465c0-5.8-.22-12.17-.87-18.84,0-1.16.65-2,1.52-2,8,1.16,15.81,2.32,23.82,3.77a2.77,2.77,0,0,1,1.52,2.61,178.62,178.62,0,0,1-4.55,27.25h42.23c.22-3.19.22-6.09.43-7.54,0-.29.22-.58.43-.58.43,0,.87.29,1.08.29l22.74,13.91a2.41,2.41,0,0,1,1.3,2v.58c-.43,8.12-3.25,42.9-8.88,84.06C622,604.4,612,620.34,608.37,625.26a3,3,0,0,1-1.95.87,1.06,1.06,0,0,1-.87-.29ZM578,524.69H563.75l1.08,31.59h11.7Z"/><path class="cls-2" d="M222.74,685.93c-.28,0-1.54-.16-1.54-.37l0,0a1.8,1.8,0,0,1,.32-.41l.73-.12V667.28c-1.5,0-3,.12-4.27,1.58-.24.29-.65.61-.65,1,0,4,0,5.57.16,14.59.12.24.2.08.41.12l1,.32s.12.12.16.16v0c0,.32-.81.37-1.06.37l-2.64.08h-.16c-.33,0-1.91-.2-2.28-.28-.08,0-.28,0-.28-.16,0-.49.57-.57.81-.61h-.16c.08-17.75.08-17.84,0-18h-.2a4.24,4.24,0,0,0-4.43,3V684.1c0,.65,1.18.41,1.18.93,0,.12-.08.2-.33.32a12.2,12.2,0,0,1-1.75.08h-.89c-.37,0-2.4-.2-2.8-.29-.08,0-.57,0-.57-.24,0-.73,1-.73,1.62-.73V667.44c0-.93,0-.85,0-1.87,0-.28-1.34-.24-1.34-.85,0-.28.24-.37.45-.37h.32l3.13.33c.65.12,1.18.24,1.18,1v.08a3,3,0,0,1-.37.32c0,.16.16-.16.16,0s0,.73,0,.85h0a7,7,0,0,1,4.79-1.67l1.14,0a3.08,3.08,0,0,1,2.11,1.79c.08.24,0,.93.24,1a9,9,0,0,1,5.44-1.91,3.73,3.73,0,0,1,2.07.69,1.44,1.44,0,0,1,.77.85c.16,1,.2,2,.49,16.86,0,.65,1.95.24,2.48.69,0,0,0,0,0,.08s-.28.28-.37.41v.16c-.16.24-.81.16-1.18.16Z"/><path class="cls-2" d="M246.84,684.91c0-.53.28-.53.53-.85v-1.79c0-4.59-.24-9.14-.24-13.65,0-.61.12-1.06.12-1.58l-.32,0s-.2.12-.24.12h0a.36.36,0,0,1-.37-.33c0-1.14.49-.65,1-1.1.24-.08,1.34-.32,1.58-.41a4.15,4.15,0,0,0,.65-.08h.08a4.07,4.07,0,0,1,1.3.32c.08.2.28.32.28.61s-.45.61-.61.85v1.1c0,2.19.45,12.76.77,15.72.32,0,.93,0,.93.49,0,1.22-2.15,1.22-3.09,1.22H249a7.12,7.12,0,0,1-1.83-.16C247.12,685.32,246.84,685,246.84,684.91Zm.28-25.68s0-.08.08-.08.24-.16.24-.16l0-.24a2.18,2.18,0,0,1,1.22-.41c1.34,0,1.87,1.67,1.87,2.76,0,.29-1.26,1.42-1.46,1.46h-.45c-1.3,0-1.75-.61-1.75-1.87A2.49,2.49,0,0,1,247.12,659.24Z"/><path class="cls-2" d="M270.65,682.07v-.61c0-.57,0-1.67.69-1.83H272a6.61,6.61,0,0,1,2.64.37l0,.24a.83.83,0,0,1-.2.65v3.45a.34.34,0,0,0-.08.29c0,.16,0,.2.2.36a.41.41,0,0,0,.12,0,3.5,3.5,0,0,0,1.1.2c1.1,0,1.18-1.83,1.18-2.8v-.37c0-.16,0-.32-.08-.53-.32-1.71-.81-3.7-3.78-6.87-4.51-4.83-4-9.34,3.37-9.34h.33c1,0,2.44,0,2.76,1.1.12.41.28,4.47-.73,4.47h-.08l-1.58-.24c-.41,0-.73-.61-.77-.93l-.24-3.49-.08-.08h-.28c-.2,0-1.46-.08-1.46.29,0,0,0,0,0,.08-1.71,3.17,2.88,7.07,4.51,9.55l.41.61c1.79,2.68,2.15,8.25-2,9.18a8.29,8.29,0,0,1-2,.2c-1.42,0-3.7-.37-4.27-1.95Z"/><path class="cls-2" d="M298.8,682.07v-.61c0-.57,0-1.67.69-1.83h.65a6.61,6.61,0,0,1,2.64.37l0,.24a.83.83,0,0,1-.2.65v3.45a.34.34,0,0,0-.08.29c0,.16,0,.2.2.36a.41.41,0,0,0,.12,0,3.5,3.5,0,0,0,1.1.2c1.1,0,1.18-1.83,1.18-2.8v-.37c0-.16,0-.32-.08-.53-.32-1.71-.81-3.7-3.78-6.87-4.51-4.83-4-9.34,3.37-9.34h.33c1,0,2.44,0,2.76,1.1.12.41.28,4.47-.73,4.47h-.08l-1.58-.24c-.41,0-.73-.61-.77-.93l-.24-3.49-.08-.08h-.28c-.2,0-1.46-.08-1.46.29,0,0,0,0,0,.08-1.71,3.17,2.88,7.07,4.51,9.55l.41.61c1.79,2.68,2.15,8.25-2,9.18a8.29,8.29,0,0,1-2,.2c-1.42,0-3.7-.37-4.27-1.95Z"/><path class="cls-2" d="M359.55,684.71c0-1.1-.73-19.79-.65-25.15v-.08a10.86,10.86,0,0,0-1.62-.12c-.41,0-.61,0-1.1.08v1c0,1.14,0,2.32,0,3.49v.45c0,.73-3.17.45-3-.85a24.09,24.09,0,0,1-.24-3.41c0-.77.16-1.71,1-1.87.2,0,.28-.24.53-.24,2.64,0,11.9-.53,13.2.41-.08,0,1.46,4.55.16,6.05h-.77c-.81,0-1,.2-1.58-.41a6.91,6.91,0,0,0-.57-.53s0-.36,0-.49v-3.66l-.08-.08s-1.18,0-1.62,0a3.67,3.67,0,0,0-.65.16c-.08,1.58.89,22.71.69,25.59l1.1.24s.16.2.24.32v.08a3.84,3.84,0,0,1-.53.57h-1a.24.24,0,0,1-.24.12.3.3,0,0,1-.24-.08h-1.14c-.24,0-1.42.08-1.63.08a.87.87,0,0,1-.61.16c-.45,0-1.14-.45-1.14-1C358,684.75,359.55,685.6,359.55,684.71Z"/><path class="cls-2" d="M386.73,682.07v-.61c0-.57,0-1.67.69-1.83h.65a6.61,6.61,0,0,1,2.64.37l0,.24a.83.83,0,0,1-.2.65v3.45a.34.34,0,0,0-.08.29c0,.16,0,.2.2.36a.41.41,0,0,0,.12,0,3.5,3.5,0,0,0,1.1.2c1.1,0,1.18-1.83,1.18-2.8v-.37c0-.16,0-.32-.08-.53-.33-1.71-.81-3.7-3.78-6.87-4.51-4.83-4-9.34,3.37-9.34h.33c1,0,2.44,0,2.76,1.1.12.41.28,4.47-.73,4.47h-.08l-1.58-.24c-.41,0-.73-.61-.77-.93l-.24-3.49-.08-.08h-.28c-.2,0-1.46-.08-1.46.29,0,0,0,0,0,.08-1.71,3.17,2.88,7.07,4.51,9.55l.41.61c1.79,2.68,2.15,8.25-2,9.18a8.29,8.29,0,0,1-2,.2c-1.42,0-3.7-.37-4.27-1.95Z"/><path class="cls-2" d="M415.53,667.08v-.37c0-.16-.37-.12-.41-.16s-.73-.81-.73-1.06.32-.08.32-.41l.49,0c.41,0,.69,0,4.14.12.45,0,2.28.45,2.28,1,0,.24-.53.61-.77.61s-.65-.08-1-.08-.45.69-.45,1c.33,15.48.12,15.36,1.06,16.58.2,0,1,.12,1.26.12h0l2.52,0c.16,0,.24,0,.24-.24,0-3.78-.16-14.22-.16-17.27,0-.28-.37-.41-.37-.69a.78.78,0,0,1,.69-.65h1.95c1.46,0,2.52-.2,3.62,1.06-.12.12-.57.65-.85.65s-.41-.08-.57-.08h-.12c-.57,6.42,0,15.44-1.58,17.43-.85,1.06-3.49,1.5-4.67,1.5-1.46,0-4.31,0-5.16-1.58-2-2.84-1.67-6.05-1.75-9.47,0-.41-.08-3.9-.12-4.35v-.24C415.45,669.31,415.53,668.17,415.53,667.08Z"/><path class="cls-2" d="M448.77,685.93v-.12c0-.41.85-.93.93-.93a.4.4,0,0,1,0-.12v0c0,1.06-.12-6.26-.16-25.15,0-.53-1-.37-1.3-.41a.15.15,0,0,1-.12-.16c0-.89,1.46-.93,2.07-.89a5.74,5.74,0,0,0,1,0l.12-.12s.28,0,.41,0c.49,0,2.19.08,2.19.65,0,.12-.08.69-.24.69H453l-.08.08v.32c0,1.22.24,2.4.24,12l.08,1.06,4.71-6.54c-.37,0-2.19,0-2.19-.45,0-.24.65-.85.77-.85h5.36c0,.08.37.24.37.33,0,1.06-1.42.81-2.07.89h-.24c-.08,0-.53.08-.61.08-1,1.22-2,2.52-3,3.82v.08s.16.24.16.24c.89,2,3.86,10.81,5.61,14.38l1.3,0c.24,0,.65.2.65.45a1.57,1.57,0,0,1-.24.73.69.69,0,0,1-.2.08c-1.71.08-3.49.16-5.2.16-.28,0-1.26.16-1.26-.29s.61-.32.61-.85l-4-11.25h0c-.2,0-.41.32-.49.49l0,0v1.18c0,2.15.08,5.36.24,9.55.12,0,1.06.29,1.06.45v0c0,.12-.29.53-.33.61a2.91,2.91,0,0,1-1,.12h-.49c-.69,0-3.09-.24-3.62-.24A.74.74,0,0,1,448.77,685.93Zm9-.73c0,.08,0,.08,0,0S457.79,685.16,457.79,685.2Z"/><path class="cls-2" d="M483.06,667.08v-.37c0-.16-.37-.12-.41-.16s-.73-.81-.73-1.06.32-.08.32-.41l.49,0c.41,0,.69,0,4.14.12.45,0,2.28.45,2.28,1,0,.24-.53.61-.77.61s-.65-.08-1-.08-.45.69-.45,1c.32,15.48.12,15.36,1.06,16.58.2,0,1,.12,1.26.12h0l2.52,0c.16,0,.24,0,.24-.24,0-3.78-.16-14.22-.16-17.27,0-.28-.37-.41-.37-.69a.78.78,0,0,1,.69-.65h2c1.46,0,2.52-.2,3.62,1.06-.12.12-.57.65-.85.65s-.41-.08-.57-.08h-.12c-.57,6.42,0,15.44-1.58,17.43-.85,1.06-3.49,1.5-4.67,1.5-1.46,0-4.31,0-5.16-1.58-2-2.84-1.67-6.05-1.75-9.47,0-.41-.08-3.9-.12-4.35v-.24C483,669.31,483.06,668.17,483.06,667.08Z"/><path class="cls-2" d="M516.3,685.93v-.12c0-.41.85-.93.93-.93a.41.41,0,0,1,0-.12v0c0,1.06-.12-6.26-.16-25.15,0-.53-1-.37-1.3-.41a.15.15,0,0,1-.12-.16c0-.89,1.46-.93,2.07-.89a5.74,5.74,0,0,0,1,0l.12-.12s.29,0,.41,0c.49,0,2.19.08,2.19.65,0,.12-.08.69-.24.69h-.73l-.08.08v.32c0,1.22.24,2.4.24,12l.08,1.06,4.71-6.54c-.37,0-2.19,0-2.19-.45,0-.24.65-.85.77-.85h5.36c0,.08.36.24.36.33,0,1.06-1.42.81-2.07.89h-.24c-.08,0-.53.08-.61.08-1,1.22-1.95,2.52-3,3.82v.08s.16.24.16.24c.89,2,3.86,10.81,5.61,14.38l1.3,0c.24,0,.65.2.65.45a1.56,1.56,0,0,1-.24.73.67.67,0,0,1-.2.08c-1.71.08-3.49.16-5.2.16-.29,0-1.26.16-1.26-.29s.61-.32.61-.85l-4-11.25h0c-.2,0-.41.32-.49.49l0,0v1.18c0,2.15.08,5.36.24,9.55.12,0,1.06.29,1.06.45v0c0,.12-.28.53-.32.61a2.92,2.92,0,0,1-1,.12h-.49c-.69,0-3.09-.24-3.62-.24A.75.75,0,0,1,516.3,685.93Zm9-.73c0,.08,0,.08,0,0S525.32,685.16,525.32,685.2Z"/><path class="cls-2" d="M549.45,669.52c.08-1.18,0-2.44,1.26-3.17,1.06-.57,5.4-2,8.78-.45,2.36,1,1.62,13.73,1.62,13.77-.12,6-2.56,6.18-6,6.18-2,0-3.33-.08-4.79-1.79a3.73,3.73,0,0,1-.77-2.36C549.57,677.68,549.45,673.37,549.45,669.52Zm6.17,14.79c.61,0,1.14-.12,1.75-.08l0-.08c-.12-2,.08-14.5.2-15.52,0-.45-.08-1.14-.08-1.58s-1.58-.24-2.23-.24h-.12a5.8,5.8,0,0,0-2.28.53c0,.65,0,.93,0,1.5a8.45,8.45,0,0,0,0,1.06l.57,14.34C554.32,684.26,554.73,684.3,555.63,684.3Z"/><path class="cls-2" d="M598.33,685.93c-.28,0-1.54-.16-1.54-.37l0,0a1.78,1.78,0,0,1,.32-.41l.73-.12V667.28c-1.5,0-3,.12-4.27,1.58-.24.29-.65.61-.65,1,0,4,0,5.57.16,14.59.12.24.2.08.41.12l1,.32s.12.12.16.16v0c0,.32-.81.37-1.06.37l-2.64.08h-.16c-.32,0-1.91-.2-2.28-.28-.08,0-.28,0-.28-.16,0-.49.57-.57.81-.61h-.16c.08-17.75.08-17.84,0-18h-.2a4.24,4.24,0,0,0-4.43,3V684.1c0,.65,1.18.41,1.18.93,0,.12-.08.2-.32.32a12.21,12.21,0,0,1-1.75.08h-.89c-.37,0-2.4-.2-2.8-.29-.08,0-.57,0-.57-.24,0-.73,1-.73,1.63-.73V667.44c0-.93,0-.85,0-1.87,0-.28-1.34-.24-1.34-.85,0-.28.24-.37.45-.37h.32l3.13.33c.65.12,1.18.24,1.18,1v.08a3,3,0,0,1-.37.32c0,.16.16-.16.16,0s0,.73,0,.85h0a7,7,0,0,1,4.79-1.67l1.14,0a3.08,3.08,0,0,1,2.11,1.79c.08.24,0,.93.24,1a9,9,0,0,1,5.44-1.91,3.73,3.73,0,0,1,2.07.69,1.43,1.43,0,0,1,.77.85c.16,1,.2,2,.49,16.86,0,.65,2,.24,2.48.69,0,0,0,0,0,.08s-.28.28-.37.41v.16c-.16.24-.81.16-1.18.16Z"/><path class="cls-2" d="M630.3,684.55a4.8,4.8,0,0,1-3.29,1.18,4.85,4.85,0,0,1-4.71-3.37,6.56,6.56,0,0,1-.16-.77c0-.08-.2-2.28-.29-3.17a7,7,0,0,1,1.42-4.35c1-1.38,3-1.67,4.67-1.67.53,0,1.06.08,1.58.08.28,0,.2-.49.2-.57,0-.24.16-1.63.16-1.87,0-.45.24-2.56.37-3,0-.16-.41-.16-.41-.16a16.44,16.44,0,0,0-2.48-.16,11.25,11.25,0,0,0-1.62.08c-.45.32-.49,1.18-.49,1.63a8.25,8.25,0,0,0,.2,1.75s0,0,0,.08v.12a.56.56,0,0,1,.16.36,1,1,0,0,1,0,.16,3.48,3.48,0,0,1-.12.69c-.12.32-.85.49-1.1.49H622.5l-.12,0a7.28,7.28,0,0,1-.28-1.3,7.59,7.59,0,0,1-.08-1.38c0-3.7,3.09-4.1,6.14-4.1h.28l1.63.2c1.14.41,2.64.61,3.17,2.11,1.5,16.25,1.1,17.31.73,18.77a9.16,9.16,0,0,1-1.06.08,2.22,2.22,0,0,1-2-1.38s-.24-.65-.37-.65Zm-4.1-.37c.12.24.65.24.89.24h.08a3.78,3.78,0,0,0,3-1.3v0a4.1,4.1,0,0,0-.12-.69c0-.24-.24-1.34-.24-1.58a39.68,39.68,0,0,1-.24-5c0-.53.08-1.14.08-1.71a.67.67,0,0,0-.08-.37,5.25,5.25,0,0,0-1.79-.16,4.16,4.16,0,0,0-2.19.32v.53C625.63,675.16,625.83,675.81,626.2,684.18Z"/></svg>