<?xml version="1.0" encoding="utf-8"?>
<!-- Generator: Adobe Illustrator 20.1.0, SVG Export Plug-In . SVG Version: 6.00 Build 0)  -->
<svg version="1.1" xmlns="http://www.w3.org/2000/svg" xmlns:xlink="http://www.w3.org/1999/xlink" x="0px" y="0px"
	 viewBox="0 0 300 250" style="enable-background:new 0 0 300 250;" xml:space="preserve">
<style type="text/css">
	.st0{fill:#19192B;}
	.st1{fill:none;stroke:#FFFFFF;stroke-miterlimit:10;}
	.st2{fill:none;stroke:#FFFFFF;stroke-width:3;stroke-miterlimit:10;}
	.st3{fill:#FFFFFF;}
	.st4{display:none;}
	.st5{display:inline;fill:none;stroke:#000000;stroke-width:0.3;stroke-miterlimit:10;}
</style>
<g id="レイヤー_1">
	<rect class="st0" width="300" height="249.1"/>
	<g>
		<rect x="9.3" y="9.4" class="st1" width="281.4" height="228.8"/>
		<rect x="4.9" y="5.2" class="st2" width="290" height="238"/>
	</g>
	<g>
		<path class="st3" d="M228.4,17.8v122.5c0,0.2-0.1,0.3-0.3,0.3c-0.2,0-0.3-0.1-0.3-0.3V17.8c0-0.2,0.1-0.3,0.3-0.3
			C228.2,17.4,228.4,17.6,228.4,17.8z"/>
		<path class="st3" d="M233.2,81c-5.1-0.2-9.9-3.1-12.3-7.6c-2.5-4.6-2.1-10.6,0.9-14.9c2.7-3.9,6.9-6.3,9.9-10
			c2.9-3.6,3.8-8.3,2.2-12.7c-1.8-4.7-6.4-7.9-11.4-8.1c-0.2,0-0.2,0.4,0,0.4c5.3,0.2,10,3.8,11.4,9c0.7,2.6,0.5,5.3-0.5,7.8
			c-0.9,2.3-2.5,4.1-4.3,5.8c-3.3,3.2-7.3,5.9-9.1,10.2c-1.7,4.2-1.5,9.2,0.8,13.1c2.5,4.3,7.3,7.1,12.3,7.3
			C233.5,81.4,233.5,81,233.2,81L233.2,81z"/>
		<path class="st3" d="M233.2,67.2c-5.1-0.2-9.9-3.1-12.3-7.6c-2.5-4.6-2.1-10.6,0.9-14.9c2.7-3.9,6.9-6.3,9.9-10
			c2.9-3.6,3.8-8.3,2.2-12.7c-1.8-4.7-6.4-7.9-11.4-8.1c-0.2,0-0.2,0.4,0,0.4c5.3,0.2,10,3.8,11.4,9c0.7,2.6,0.5,5.3-0.5,7.8
			c-0.9,2.3-2.5,4.1-4.3,5.8c-3.3,3.2-7.3,5.9-9.1,10.2c-1.7,4.2-1.5,9.2,0.8,13.1c2.5,4.3,7.3,7.1,12.3,7.3
			C233.5,67.6,233.5,67.2,233.2,67.2L233.2,67.2z"/>
		<path class="st3" d="M228.4,152.9c-0.2-0.4,0.3-1.4,0.4-1.8c0.3-1,0.7-1.9,0.9-2.9c0.4-1.5,1.1-3.7,0.1-5.2
			c-0.7-1.1-2.6-1.4-3.5-0.3c-1,1.3-0.6,3.5-0.3,4.9c0.4,1.8,0.9,4,1.9,5.5C228.2,153.3,228.5,153.1,228.4,152.9
			c-0.8-1.2-1.2-2.7-1.6-4.1c-0.4-1.6-1-3.7-0.4-5.4c0.6-1.8,3.1-1.2,3.4,0.4c0.4,1.7-0.3,3.7-0.8,5.3c-0.3,0.9-0.6,1.7-0.8,2.6
			c-0.1,0.4-0.3,0.9-0.1,1.3C228.2,153.3,228.5,153.1,228.4,152.9z"/>
		<path class="st3" d="M223.5,140.7c3,0,6.1,0,9.1,0c0.2,0,0.2-0.4,0-0.4c-3,0-6.1,0-9.1,0C223.3,140.3,223.3,140.7,223.5,140.7
			L223.5,140.7z"/>
	</g>
	<g>
		<path class="st3" d="M73,26.9v122.5c0,0.2-0.1,0.3-0.3,0.3c-0.2,0-0.3-0.1-0.3-0.3V26.9c0-0.2,0.1-0.3,0.3-0.3
			C72.8,26.6,73,26.7,73,26.9z"/>
		<path class="st3" d="M77.8,85.8c-4.4,0.2-8.7,2.3-11.3,5.9c-2.8,3.7-3.6,8.7-2.3,13.1c1.3,4.6,4.9,7.5,8.4,10.6
			c1.7,1.5,3.4,3.2,4.6,5.1c1.4,2.2,2,4.9,1.7,7.5c-0.5,6.1-5.7,10.8-11.8,11.1c-0.2,0-0.2,0.4,0,0.4c4.4-0.2,8.7-2.7,10.7-6.6
			c2.2-4.1,1.9-9.2-0.7-13c-2.5-3.8-6.6-6.2-9.5-9.6c-3.4-4-4.7-9.5-2.9-14.5c1.9-5.5,7.3-9.3,13.1-9.5
			C78.1,86.2,78.1,85.8,77.8,85.8L77.8,85.8z"/>
		<path class="st3" d="M77.8,99.6c-4.4,0.2-8.7,2.3-11.3,5.9c-2.8,3.7-3.6,8.7-2.3,13.1c1.3,4.6,4.9,7.5,8.4,10.6
			c1.7,1.5,3.4,3.2,4.6,5.1c1.4,2.2,2,4.9,1.7,7.5c-0.5,6.1-5.7,10.8-11.8,11.1c-0.2,0-0.2,0.4,0,0.4c4.4-0.2,8.7-2.7,10.7-6.6
			c2.2-4.1,1.9-9.2-0.7-13c-2.5-3.8-6.6-6.2-9.5-9.6c-3.4-4-4.7-9.5-2.9-14.5c1.9-5.5,7.3-9.3,13.1-9.5
			C78.1,99.9,78.1,99.6,77.8,99.6L77.8,99.6z"/>
		<path class="st3" d="M72.6,14.1c-0.2,0.3,0,0.7,0,1c0.2,0.7,0.4,1.4,0.7,2.1c0.6,1.7,1.2,3.6,1.2,5.4c0,0.8-0.3,1.7-1.1,2
			c-0.7,0.3-1.7,0.3-2.2-0.4c-0.9-1.3-0.3-3.6,0-5c0.4-1.6,0.8-3.5,1.8-4.9C73.1,14.1,72.8,13.9,72.6,14.1c-0.9,1.3-1.4,3.2-1.7,4.7
			c-0.4,1.6-0.9,3.8-0.2,5.4c0.6,1.3,2.4,1.4,3.4,0.4c1.2-1.2,0.7-3.3,0.4-4.8c-0.3-1.2-0.7-2.3-1-3.4c-0.1-0.4-0.8-1.7-0.5-2.1
			C73.1,14.1,72.8,13.9,72.6,14.1z"/>
		<path class="st3" d="M68.1,26.9c3,0,6.1,0,9.1,0c0.2,0,0.2-0.4,0-0.4c-3,0-6.1,0-9.1,0C67.8,26.5,67.8,26.9,68.1,26.9L68.1,26.9z"
			/>
	</g>
	<path class="st3" d="M134.2,73.1l3.9-33.7l-10.7,19.5h-3.4l-6-20.1l-4,34.3h-8.2l5.2-41.2h7.7l7.3,23.6l12.9-23.6h7.7l-4.2,41.2
		H134.2z"/>
	<path class="st3" d="M192.9,68.3l-30.7,6.9l-6.7-29.9l30.7-6.9L192.9,68.3z M169.2,73.1l3.4-25.6h9.4l0.8-2.7H173h-7.1h-0.5
		l-3.7,28.3H169.2z"/>
	<path class="st3" d="M133.8,126l3.2-24.8h-6.5l-5.8,25.3h-6.9l1.5-5.7l-16.7,3.3l0.4-2.4l6.3-1.2l2.2-18.8h-5.5l0.8-2.3h16.4
		l-0.8,2.3h-4.5l-1.9,17.4l3.9-0.8l5.1-19.5h18.7l-3.2,24.8h4.7l-1,2.3H133.8z M138.6,97.5l-2.5-8h-0.2l-4.3,7.7h-11.9l-2.3-7.7
		h-0.2l-5,8h-8l11.5-16.6h6.9l-4.1,6.5h9.9l-0.6,2.2h-4.5l2.1,6l8.7-14.7h6.7l-3.6,6.5h11.2l-0.6,2.2h-5.5l3.1,8H138.6z M130,120.8
		l-0.2-16.2h4l0.5,16.2H130z"/>
	<path class="st3" d="M150.4,122.5l3.5-16.3h3.2l-2.7,16.3H150.4z M175.4,125.5l-0.4-2.3h9.5l3.6-32.4h-8l-1.9,3.1h7.7l-2.9,26.1
		h-12l2.7-23.6h-1.8l-0.3,1.3H168l-0.6,4.9h4l-2.5,22.7h-12l-0.4-2h7.9l2.2-18.7h-12.4l2.5-22.5h17.7l-0.6,2.2h-4.3l-0.5,4.9h4.1
		l-0.5,2h-3.8l-0.5,4.5h2.4l9.5-14.9h5.9l-4.5,7.7h12.8l-4.1,37H175.4z M155.3,122l2.5-15.8h2.2l-2.3,15.8H155.3z M158.8,121.5
		l2.2-15.3h1.9l-2,15.3H158.8z M163,97.7h-2.6l-0.6,4.9h2.7L163,97.7z M163.8,91.2h-2.6l-0.5,4.5h2.6L163.8,91.2z M164.6,84.3H162
		l-0.6,4.9h2.6L164.6,84.3z M161.8,120.9l1.9-14.7h1.7l-1.7,14.7H161.8z M181.2,95.8H179l-2.5,22.5h2.1L181.2,95.8z"/>
	<g>
		<path class="st3" d="M115.9,136.5c-0.3,0-0.7,0.2-0.7,0.5v3.8c0,0.3,0.3,0.5,0.7,0.5v0.1h-2.4v-0.1c0.3,0,0.6-0.1,0.7-0.5l0.1-4.1
			l-1.8,4.7h-0.1l-1.7-4.1v3c0,0.6,0.4,1,0.8,1v0.1h-1.6v-0.1c0.3,0,0.8-0.4,0.8-1v-3.2c-0.1-0.3-0.3-0.6-0.7-0.6v-0.1h1.6l1.4,3.4
			l1.3-3.4L115.9,136.5L115.9,136.5z"/>
		<path class="st3" d="M117.5,141.3L117.5,141.3c0.3-0.1,0.4-0.2,0.4-0.5v-1.5c0-0.2-0.4-0.5-0.5-0.5v-0.1c0.6-0.1,1.4-0.4,1.4-0.4
			h0v2.5c0,0.3,0.1,0.5,0.4,0.5v0.1H117.5z M118.4,136.5c0.3,0,0.6,0.2,0.6,0.6c0,0.3-0.2,0.6-0.6,0.6c-0.3,0-0.6-0.2-0.6-0.6
			C117.9,136.7,118.1,136.5,118.4,136.5z"/>
		<path class="st3" d="M121.8,138.4c-0.2,0-0.3,0.2-0.3,0.4c0,0.3,0.5,0.5,0.9,0.7c0.4,0.2,0.7,0.4,0.7,0.9c0,0.6-0.5,1.1-1.1,1.1
			c-0.4,0-0.9-0.1-1.1-0.3v-1.1h0.1c0.1,0.4,0.5,1.3,1.1,1.3c0.2,0,0.4-0.2,0.4-0.4c0-0.5-0.4-0.6-0.8-0.8c-0.4-0.2-0.7-0.4-0.7-0.9
			c0-0.6,0.5-1,1.1-1c0.3,0,0.5,0.1,0.8,0.2l0.1,0.9l0,0C122.7,139.1,122.3,138.4,121.8,138.4z"/>
		<path class="st3" d="M126.5,141.2c0.2,0,0.3-0.1,0.4-0.2h0c-0.1,0.3-0.5,0.5-0.9,0.5c-0.5,0-1-0.3-1-0.9v-1.8h-0.3v0l1.1-1.2h0
			v0.9h0.8l-0.1,0.3H126v1.9C126,140.8,126.2,141.2,126.5,141.2z"/>
		<path class="st3" d="M129.5,139.6c0,0.6,0.4,1.2,1.1,1.2c0.3,0,0.6-0.2,0.7-0.3c0-0.1,0.1-0.1,0.1-0.1c0,0,0,0,0,0.1
			c-0.1,0.5-0.6,1.1-1.3,1.1c-0.9,0-1.6-0.6-1.6-1.5s0.8-1.6,1.5-1.6c0.7,0,1.3,0.6,1.3,1.3H129.5z M130.6,139.5
			c0-0.5-0.1-1.2-0.5-1.2c-0.6,0-0.6,0.7-0.6,1.2H130.6z"/>
		<path class="st3" d="M135.3,138.3c0.3,0,0.5,0.2,0.5,0.5c0,0.3-0.1,0.5-0.4,0.5c-0.4,0-0.4-0.4-0.6-0.4c-0.1,0-0.3,0.2-0.3,0.4
			v1.4c0,0.3,0.1,0.5,0.4,0.5v0.1h-1.7v-0.1c0.3,0,0.4-0.1,0.4-0.5v-1.6c0-0.2-0.3-0.4-0.4-0.5v-0.1c0.6-0.1,1.3-0.4,1.3-0.4h0v0.7
			C134.7,138.8,134.9,138.3,135.3,138.3z"/>
		<path class="st3" d="M145.2,136.3L145.2,136.3l0.4,1.7h0c-0.3-0.9-1.1-1.5-1.8-1.5v4.3c0,0.3,0.3,0.5,0.7,0.5v0.1H142v-0.1
			c0.3,0,0.7-0.1,0.7-0.5v-4.3c-0.7,0-1.6,0.6-1.8,1.5h0l0.4-1.7h0c0,0.1,0.2,0.1,0.3,0.1h3.5C145,136.5,145.2,136.4,145.2,136.3z"
			/>
		<path class="st3" d="M147.5,138.4c-0.2,0-0.3,0.2-0.3,0.4c0,0.3,0.5,0.5,0.9,0.7c0.4,0.2,0.7,0.4,0.7,0.9c0,0.6-0.5,1.1-1.1,1.1
			c-0.4,0-0.9-0.1-1.1-0.3v-1.1h0.1c0.1,0.4,0.5,1.3,1.1,1.3c0.2,0,0.4-0.2,0.4-0.4c0-0.5-0.4-0.6-0.8-0.8c-0.4-0.2-0.7-0.4-0.7-0.9
			c0-0.6,0.5-1,1.1-1c0.3,0,0.5,0.1,0.8,0.2l0.1,0.9l0,0C148.4,139.1,147.9,138.4,147.5,138.4z"/>
		<path class="st3" d="M153.9,140.8c0,0.2,0.3,0.3,0.4,0.4v0.1c-0.5,0-1,0.2-1.3,0.3h0v-0.6c-0.2,0.2-0.7,0.5-1.1,0.5
			c-0.4,0-0.9-0.3-0.9-0.7v-1.5c0-0.2-0.4-0.5-0.5-0.5v-0.1c0.6-0.1,1.4-0.4,1.4-0.4h0v2.3c0,0.4,0.2,0.6,0.5,0.6
			c0.2,0,0.4-0.2,0.5-0.4v-1.6c0-0.2-0.4-0.5-0.6-0.5v-0.1c0.6-0.1,1.5-0.4,1.5-0.4h0V140.8z"/>
		<path class="st3" d="M155.8,141.3L155.8,141.3c0.3-0.1,0.4-0.2,0.4-0.5v-3.4c0-0.2-0.4-0.5-0.5-0.5v-0.1c0.6-0.1,1.4-0.4,1.4-0.4
			h0v3.4l0.7-0.6c0.1-0.1,0.2-0.2,0.2-0.4c0-0.2-0.1-0.4-0.4-0.4v-0.1h1.5v0.1c-0.3,0-0.9,0.4-1.1,0.7l1,1.7c0,0,0.1,0.3,0.5,0.3
			v0.1h-1.8v-0.1c0.2,0,0.3,0,0.3-0.2c0-0.1-0.1-0.2-0.1-0.2l-0.6-1.1l-0.1,0.1v0.9c0,0.3,0.1,0.5,0.4,0.5v0.1H155.8z"/>
		<path class="st3" d="M164.4,140.8c0,0.2,0.3,0.3,0.4,0.4v0.1c-0.5,0-1,0.2-1.3,0.3h0v-0.6c-0.2,0.2-0.7,0.5-1.1,0.5
			c-0.4,0-0.9-0.3-0.9-0.7v-1.5c0-0.2-0.4-0.5-0.5-0.5v-0.1c0.6-0.1,1.4-0.4,1.4-0.4h0v2.3c0,0.4,0.2,0.6,0.5,0.6
			c0.2,0,0.4-0.2,0.5-0.4v-1.6c0-0.2-0.4-0.5-0.6-0.5v-0.1c0.6-0.1,1.5-0.4,1.5-0.4h0V140.8z"/>
		<path class="st3" d="M166.4,141.3L166.4,141.3c0.3-0.1,0.4-0.2,0.4-0.5v-3.4c0-0.2-0.4-0.5-0.5-0.5v-0.1c0.6-0.1,1.4-0.4,1.4-0.4
			h0v3.4l0.7-0.6c0.1-0.1,0.2-0.2,0.2-0.4c0-0.2-0.1-0.4-0.4-0.4v-0.1h1.5v0.1c-0.3,0-0.9,0.4-1.1,0.7l1,1.7c0,0,0.1,0.3,0.5,0.3
			v0.1h-1.8v-0.1c0.2,0,0.3,0,0.3-0.2c0-0.1-0.1-0.2-0.1-0.2l-0.6-1.1l-0.1,0.1v0.9c0,0.3,0.1,0.5,0.4,0.5v0.1H166.4z"/>
		<path class="st3" d="M175.1,139.9c0,0.9-0.8,1.6-1.7,1.6c-0.9,0-1.7-0.7-1.7-1.6c0-0.9,0.8-1.6,1.7-1.6
			C174.3,138.3,175.1,139,175.1,139.9z M172.7,139.9c0,0.8,0.1,1.5,0.6,1.5s0.6-0.7,0.6-1.5s-0.1-1.5-0.6-1.5S172.7,139,172.7,139.9
			z"/>
		<path class="st3" d="M176.8,141.3L176.8,141.3c0.3-0.1,0.4-0.2,0.4-0.5v-1.6c0-0.2-0.3-0.4-0.4-0.5v-0.1c0.6-0.1,1.3-0.4,1.3-0.4
			h0v0.6c0.2-0.2,0.7-0.5,1.1-0.5c0.4,0,0.7,0.2,0.7,0.6c0.2-0.2,0.7-0.6,1.1-0.6c0.4,0,0.8,0.3,0.8,0.7v1.8c0,0.3,0.1,0.5,0.4,0.5
			v0.1h-1.7v-0.1c0.3,0,0.4-0.1,0.4-0.5v-1.6c0-0.4-0.1-0.6-0.4-0.6c-0.2,0-0.4,0.1-0.5,0.3c0,0,0,0,0,0.1v1.8
			c0,0.3,0.1,0.5,0.4,0.5v0.1h-1.7v-0.1c0.3,0,0.4-0.1,0.4-0.5v-1.6c0-0.4-0.1-0.6-0.4-0.6c-0.2,0-0.4,0.1-0.5,0.3v1.9
			c0,0.3,0.1,0.5,0.4,0.5v0.1H176.8z"/>
		<path class="st3" d="M186.8,141C186.8,141,186.8,141.1,186.8,141c0,0-0.2,0.4-0.7,0.4c-0.3,0-0.5-0.2-0.6-0.5
			c-0.3,0.3-0.6,0.5-1,0.5c-0.4,0-0.7-0.3-0.7-0.7c0-0.6,1.2-0.9,1.7-1.1v-1c0-0.1-0.1-0.3-0.3-0.3c-0.1,0-0.5,0.2-0.5,0.5
			c0,0.2,0,0.4-0.1,0.6c-0.1,0.2-0.2,0.4-0.5,0.4c-0.2,0-0.4-0.2-0.4-0.4c0-0.2,0.3-0.5,0.6-0.8c0.3-0.2,0.7-0.4,1.1-0.4
			c0.4,0,0.8,0.3,0.8,0.6v1.9c0,0.2,0.1,0.3,0.1,0.3C186.7,141.2,186.7,141,186.8,141z M184.7,140.6c0,0.2,0.1,0.5,0.4,0.5
			c0.2,0,0.3-0.1,0.4-0.2v-1.2C184.9,139.9,184.7,140.1,184.7,140.6z"/>
	</g>
	<g>
		<path class="st3" d="M70.1,212.4l-2.6-4.7l-4.6,4.7h-7.1l8.4-7.5l1-1.3l-4.4-7.7h-0.4l-0.1,0.9l-3.9,1l-1.6,14.4h-8.7l-0.3-1.7
			h3.9l1.2-11.3l-5,1.2l0.3-1.8l5-1.2l1-9.2h-4.6l0.5-1.8h4.3l0.9-8.4h5.2l-0.9,8.4h3.8l-0.5,1.8h-3.5l-0.8,7.8l3.3-0.8l0.3-0.9
			h16.9l-0.3,1.5l-6.2,8.1l5.3,8.5H70.1z M69.9,193.1l1.6-12.4h-2.1l-3.7,12.6h-5.6l4.7-14.2h12l-1.5,12.4h3.5l-0.6,1.7H69.9z
			 M71,196h-5.3l2.4,3.8L71,196z"/>
		<path class="st3" d="M79.1,211.4l7.6-8.9h5.8l-6.8,8.9H79.1z M99,201.4l-1.3,10.9H87.5l-0.2-1.8h5l1.2-9.2H80.4l0.6-1.8h30.8
			l-0.5,1.8H99z M83.3,194.5l1.2-10.5h7.1l0.4-3.1h-9.1l0.6-1.8h30.1l-0.5,1.8h-8.6l-0.4,3.1h7.4l-1.2,10.5H83.3z M83.1,197.9
			l0.6-1.8h26l-0.5,1.8H83.1z M92,185.7h-2.6l-0.8,7.2h2.6L92,185.7z M98.9,185.7h-2.5l-0.8,7.2h2.5L98.9,185.7z M99.4,180.9H97
			l-0.4,3.1H99L99.4,180.9z M104,211.4l-4.4-8.9h5.4l5,8.9H104z M106,185.7h-2.8l-0.8,7.2h2.8L106,185.7z"/>
		<path class="st3" d="M139.7,211.9l-8.8-26.6H129l-6.8,12.8h3.2l-0.5,1.8H115l9.1-16.2H136l10.3,28.3H139.7z M138.5,186.8l1.1-8
			h7.9l-1.1,8H138.5z M144.5,180.5h-3.1l-0.6,4.7h3.1L144.5,180.5z"/>
		<path class="st3" d="M151.6,196.5l0.5-1.9h30.4l-0.6,1.9H151.6z"/>
		<path class="st3" d="M192.8,200.3l-6.4-9.6h6.6l5.1,7.8h3.2l-0.5,1.7L192.8,200.3z M195.4,191l-6.4-9.6h6.6l5,7.8h3.3l-0.5,1.7
			L195.4,191z M189.8,211.5l0.6-1.8h7.8l7.4-10l4.2-13.3h5.9l-4.4,14.4l-7.6,10.7H189.8z M209.9,184.7l1-6.1h1.7l-1.1,6.1H209.9z
			 M213,184.7l1.1-6.1h2.9l-1.1,6.1H213z"/>
		<path class="st3" d="M244.9,211.9l-8.7-26.6h-2l-6.8,12.7h3.2l-0.5,1.8h-9.8l9.1-16.2h11.9l10.3,28.3H244.9z"/>
	</g>
</g>
<g id="_x5B_Trim_marks_x5D_" class="st4">
	<polyline class="st5" points="-8.5,-34 -8.5,0 -34,0 	"/>
	<polyline class="st5" points="0,-34 0,-8.5 -34,-8.5 	"/>
	<polyline class="st5" points="308.5,-34 308.5,0 334,0 	"/>
	<polyline class="st5" points="300,-34 300,-8.5 334,-8.5 	"/>
	<polyline class="st5" points="-8.5,284 -8.5,250 -34,250 	"/>
	<polyline class="st5" points="0,284 0,258.5 -34,258.5 	"/>
	<polyline class="st5" points="308.5,284 308.5,250 334,250 	"/>
	<polyline class="st5" points="300,284 300,258.5 334,258.5 	"/>
	<line class="st5" x1="150" y1="-36" x2="150" y2="-12"/>
	<line class="st5" x1="114" y1="-18" x2="186" y2="-18"/>
	<line class="st5" x1="150" y1="286" x2="150" y2="262"/>
	<line class="st5" x1="114" y1="268" x2="186" y2="268"/>
	<line class="st5" x1="-36" y1="125" x2="-12" y2="125"/>
	<line class="st5" x1="-18" y1="89" x2="-18" y2="161"/>
	<line class="st5" x1="336" y1="125" x2="312" y2="125"/>
	<line class="st5" x1="318" y1="89" x2="318" y2="161"/>
</g>
<g id="_x5B_Guides_x5D_">
</g>
</svg>
