<svg id="レイヤー_1" data-name="レイヤー 1" xmlns="http://www.w3.org/2000/svg" viewBox="0 0 2048.19 2048.19"><defs><style>.cls-1{fill:#fefefe;}.cls-2{fill:#a4a4a4;}.cls-3{fill:#717171;}.cls-4{fill:#f3f3f3;}.cls-5{fill:#b9b9b9;}.cls-6{fill:#010101;}.cls-7{fill:#fdfdfd;}.cls-8{fill:#a0a0a0;}.cls-9{fill:#e6e6e6;}.cls-10{fill:#dadada;}.cls-11{fill:#949494;}.cls-12{fill:#efefef;}.cls-13{fill:#9f9f9f;}.cls-14{fill:#a1a1a1;}</style></defs><title>オタクの流儀</title><path class="cls-1" d="M2049,1025.5q0,509.5.09,1019c0,3.75-.84,4.59-4.59,4.59q-1019.5-.14-2039,0c-3.75,0-4.59-.84-4.59-4.59Q1.05,1025,.91,5.5C.91,1.75,1.75.91,5.5.91q1019.5.14,2039,0c3.75,0,4.59.84,4.59,4.59Q2048.94,515.5,2049,1025.5Z" transform="translate(-0.91 -0.91)"/><path class="cls-2" d="M1014.46,1316H325c-1.67,0-3.34-.1-5,0-2.4.15-3.33-1-3.19-3.26.07-1.16,0-2.33,0-3.5q0-120.24,0-240.47c0-7.72-.69-6.8,7.09-6.8H1704.3c8.52,0,8.52,0,8.52,8.38q0,118.74,0,237.47c0,9,1,8.19-8.43,8.19Z" transform="translate(-0.91 -0.91)"/><path class="cls-1" d="M671.76,1292.48c-33.32,0-66.64-.08-100,.1-4.59,0-5.94-1.25-5.93-5.88q.21-100,0-199.92c0-4.3,1-5.66,5.5-5.65q100.46.22,200.92,0c4.37,0,5.58,1.11,5.57,5.56q-.23,100,0,199.92c0,5-1.45,6-6.15,6C738.4,1292.38,705.08,1292.48,671.76,1292.48Z" transform="translate(-0.91 -0.91)"/><path class="cls-3" d="M373,733c-11.26-19.09-1.06-52,30.27-58.77,25.72-5.55,49.44,10.86,53.47,36.2,4.06,25.54-13.76,48.33-40,51.31-5.22.59-10.18-.89-16.25-1.88,5.57,4.81,10.23,8.18,17.31,8.15,59.49-.23,119-.09,178.47-.24,4.5,0,5.86,1,5.85,5.75q-.25,93,0,186c0,4.36-1,5.72-5.51,5.61-12.66-.32-25.33-.21-38-.05-3.24,0-5.23-.49-4.61-4.26s-.91-5-4.89-5q-47.49.24-95,0c-4.11,0-5.85,1-5.26,5.23.21,1.47-.05,3,0,4.49.12,2.2-.94,2.87-3,2.86q-20.5-.07-41,0c-1.71,0-2.45-.38-2.41-2.16,0-2-.13-4-.13-6q0-74,0-148,0-3.61,0-7.22l-.91-.12c-3.69,8.84-7.3,17.71-11.08,26.51-15,35.08-34.94,67-61.81,94.29-2.79,2.84-5.66,5.61-8.49,8.41a23.82,23.82,0,0,1-10.14,8.84l-2,1.64a10.62,10.62,0,0,1-4.07,3.32,337.91,337.91,0,0,1-72,40.7c-13.38,5.57-26.94,10.63-40.61,15.45-2.57.91-4.29,1.31-4.94-2.26-3.51-19.3-12.3-36.16-24.59-51.22-3-3.63-1.84-4.13,1.94-5a264.83,264.83,0,0,0,89.15-37.74c34.17-22.65,58.85-53.15,76.38-89.79,4.24-8.85,7.77-18,11.82-27,1.83-4,.81-5-3.49-5q-89,.17-178,.08c-7.17,0-6.38.85-6.4-6.38,0-14.66.19-29.33-.14-44-.11-4.77,1.15-6.12,6-6.1q96.23.25,192.47.14c1.5,0,3.36.54,4.44-.15,7.66-4.87,11.66.92,16.21,5.26a7.45,7.45,0,0,1,2.06,1.32l.19.26q.2,0,.19-.33c0-.23-.07-.34-.23-.37C373.79,734.88,373.78,733.77,373,733Z" transform="translate(-0.91 -0.91)"/><path class="cls-3" d="M1128.06,986.22l-2.05.84c-1.62-1.09-3.78-.71-5.35-1.94a2.21,2.21,0,0,1-.93-2c-.91-3.82-1.7-7.6,1.79-10.73.55-.49.56-1.53.68-2.34.25-1.57,1.27-3.56-.31-4.59-1.78-1.16-2.79,1-4,1.95s-2.19,2.49-4,2.75l-1.27-3c.37-.76,1.08-1.28,1.47-2,1.34-2.42,1.14-3.56-.64-4.71a1.51,1.51,0,0,1-.85-1.65c.66-2.12,2.52-1.58,4-1.73-.71,0-1.53.07-2.34.05-1.26,0-2.67,2.41-3.74,0-.79-1.78-.06-3.62.86-5.22,1.06-1.83,2.25-.45,3.36.07a4.73,4.73,0,0,0,4.29.22c-1.27-1.32-3-1.29-4.22-2.11-2.26-1.54-3.87-1.55-4.55,1.61-.22,1-.5,2.49-2.07,2.34-1.11-.1-1.48-1.18-1.87-2.1-.26-.61.11.13-.18-.47-2.35-4.89-2.27-5,2.78-5.35.75-1.53,2.3-2.13,4-3.26-2.46.26-3,2-4,3.32-3,.81-2.67-1.4-2.82-3.15-.13-1.54,1.73-2.47,1.33-4.09-1.3-1.26-2.93,0-4.38-.8,2.14,2.52,2.21,4.87-.1,7.14-.77-1.44-1.64-2.83-2.29-4.32-2.6-5.95-2.57-6,4.29-7.09,4.13,1.52,9.12-1,13.15,3.29-2.94-4.34-2.66-5.4,1.41-6.22,2.28-.46,4.55-.92,6.88-1.6.52.17,0-1,0-.37,0,.1-.17.05-.5,0a2.52,2.52,0,0,1-2.13-1.07,43.41,43.41,0,0,1,11.24-4c.09.13.25.25.26.39.09.77-.46,1.06-1,1.3,1-.24,1.52-.67.68-1.66a20.48,20.48,0,0,1,8.13-3.2c1,2.24-1.16,2.24-2.12,2.95,1.08,0,2.36-1.68,3.34,0,.71,1.19-.32,2.16-1.34,2.85a7.05,7.05,0,0,1-1.38.56c-1.13.45-2.86.09-3,2a1.26,1.26,0,0,0,.81,1.16,3.7,3.7,0,0,0,4.16-.72.6.6,0,0,0,.34-.35c2.5-6.7,8.21-6.82,13.92-6.47.6-2.09-2.58-2-1.62-3.88a4.91,4.91,0,0,1,3.62-2.41c4.05-.91,8.25-.77,12.32-1.76,2-.49,3-1.23,2.62-3.29-.06-.32.78-1.34-.4-1-1.35.38-2.95.93-3.23-.8-.24-1.45,1.81-1.65,2.8-2.47a3.39,3.39,0,0,0,1-1.12,2.38,2.38,0,0,1,2.14-1.07c.59.18,1.21.54,1.81.19s0-.78-.08-1.17a31.81,31.81,0,0,1,9.24-5c1.34,2.75-1.73,5.12-.54,8.12.58,1.46-2.09,1.61-3.26,2.4-.88.6-1.5,1.31-1,2.46a1.41,1.41,0,0,0,1.07.93,1.85,1.85,0,0,0,2.22-1.49,7.5,7.5,0,0,1,5.26-5.95c1.16-.39,2.19-2.7.28-2.57-3.43.24-2.8-2.57-4.08-3.86a18.38,18.38,0,0,1,7.11-4.2c1.12,1.36.89,5.47,4.33,2.07a1.53,1.53,0,0,1,1.87-.14c3.61,3.22,5.36-1.56,8.17-1.94,1.55-.21.85-1.91-.09-2.68-1.43-1.16-2.83-2.27-3.43-4.09a15.1,15.1,0,0,1,6.16-4c1,2.38,1.68,0,2.51-.22,3.66.75,3.66.75,1.09,4.42,2.45,1.75,5,3.14,8.16,2.39a2.74,2.74,0,0,0,2.22-1.76c.37-1.16-.35-1.85-1.16-2.48-3.32-2.62-6.72-4.78-11-2a1.35,1.35,0,0,1-1.88-.3c1.92-2.29,4.54-3.6,7.09-5,2,0,3.72-1.47,5.72-1.28,2.35.22.06-.68.23-1.07a5.34,5.34,0,0,1,4.12-3.12c1.74-.32,2.3.81,2,2.46-.07.38-.09,1.07.55,1,.19,0-.08-.87.14-1.27.84-1.54,2.32-.9,3.55-.91,4.24,0,8.49.3,12.76-.66-5.33-1.37-11-1.61-15.44-5.24a15.51,15.51,0,0,1,5.32-4.22c1.1,3.65,4.25,1.77,5.79,2.29-.54-.09-2.19.43-2.62-1.25-.29-1.14.91-1.78,1.76-2,2.65-.83,1.46-3.07,1.91-4.71l16.15-14.28c.73.63.85,2.53,2.42,1.46a4.06,4.06,0,0,0,1.53-5.11A8.66,8.66,0,0,1,1269,837c2.29,1.18,4.16,1.72,5.59-1.44,1.08-2.38,4.23-3.26,4.66-6.6.2-1.52,3.2-1.1,5-1.19a33.33,33.33,0,0,0,4.49-.17c.68-.12,1.29-.42,1.42-1.19.09-.52-.15-1.19-.57-1.24-9.12-1-2.85-5.14-1.64-8.22a17.17,17.17,0,0,1,5-6.06c2.7-.49,4.32.21,3.48,3.57.4-.3.6-.37.63-.48.61-2.24-.68-5.07.91-6.72,1.93-2,4.2.83,6.43.69.53,0,.88-.39,1.44-1.58-3.59,2.42-5.25-1.62-8.08-1.44a35.32,35.32,0,0,1,6.17-8c.7-.68,2.46,3,2.67-.86.13-2.46,1.61-5.94,4.45-5.85s1.17,3.78,2.09,5.75c.74,1.58,1.3,4.41-1.83,5.26a6.38,6.38,0,0,1-1.52-1.25c.32.61,1,.82,1.47,1.24s1.67.45,1.84,0c1.49-4.36,5.81-7,7-11.48a11.87,11.87,0,0,1,3,5.24,19.31,19.31,0,0,1-1.49,7.16c1.58-1.46,2.79-2.51,4.5-2.4a37.73,37.73,0,0,1,6,8.23c-.16,1.69,1.54,2.39,2,3.73.53,1.55.71,3-1.72,2.68l-.38-.25c.13,0,.17.1.3.15,5.92-.06,8.48,4.63,11.24,8.47,1.52,2.11-.86,2-2.37,1.65-1.8-.88-2.67-3.64-5.43-2.58a6,6,0,0,1,5.52,3c.11,4.75-.88,9.13-4,12.93-1,1.19-2.92,2.11-2,4.16s3.07,1.68,4.81,1.68c22.62.1,45.25,0,67.87,0,4,0,8-.22,11.85,2.34-.64-2-3.49-1.75-2.94-4.08,4.58-1.22,6,.42,6,5.2-.2,31.16,0,62.31-.2,93.47,0,4.57,1.18,5,5.29,4,14.58-3.68,28.8-8.25,42.13-15.3,27.72-14.65,42.75-38.19,47.79-68.61,1-6.07,1.42-12.24,2.41-18.31.62-3.83-.59-4.72-4.41-4.7-30.16.17-60.31.09-90.47.09-3,0-6-.16-9,0-3.37.14-4.58-1.14-4.54-4.65.19-13.49.24-27,0-40.48-.08-4,1.37-4.58,4.89-4.57,32.16.13,64.31.08,96.47.08,8.88,0,8.88,0,8.88-8.89,0-16.66.12-33.32-.07-50,0-3.94.76-5.55,5.13-5.47,14.66.26,29.32.19,44,0,3.56,0,4.33,1.07,4.29,4.51-.19,18.33,0,36.65-.13,55,0,3.67.88,5,4.92,5,28.16-.2,56.31,0,84.47-.23,4.66,0,6.32.87,6.16,5.9-.4,12.15-.12,24.32-.13,36.48,0,8.66.52,7.36-7.6,7.38-27.49.08-55,.12-82.47-.07-4.19,0-5.57,1-6,5.36-2,18.7-4.7,37.31-10.69,55.25-11.49,34.46-34.56,59-65.65,76.7a253.27,253.27,0,0,1-40.94,18.42c-6.17,2.18-6.25,2.22-8.36-3.75a129.13,129.13,0,0,0-21.09-37.63c-1.29-1.62-2.75-3.1-5.12-5.77,0,10.28-.19,19,.09,27.77.13,4-1.12,5.21-5.08,5.09-9-.26-18-.19-27,0-3,.05-4.45-.78-3.9-3.93-.32-2.15-.83-5.33,1.4-5.63,2.55-.35,2.11,3.08,2.7,5,.14.45.06,1,.73,1.37.52-1.38-.5-2.44-.66-3.6-.65-4.74-3.67-6.38-7.26-3.5-3.2,2.56-5.65,3.09-8.57-.07-1.36-1.47-3.38-1.22-5.2-1.22-19.5,0-39,.06-58.49-.09-3.11,0-5.65,1.82-8.65,1.72a235.16,235.16,0,0,1,0-24.06c4.62,1.66,9.43,1.49,14.23,1.48,18.62,0,37.23,0,55.86-.29-1.77-.8-3.65-.58-5.48-.59q-28.19,0-56.39,0c-2.82,0-5.69.18-8.19-1.55l0-1c1.9-1.51,4.14-1,6.25-1q36.4-.05,72.8,0c6.13,0,6.38-.31,6.59-6.48.07-2.25-.37-4.69,2-6.67,1.83,1.94.37,4.39,1,5.9.8-4.15-1.06-8-3.47-11.62-.29-2.41-1.72-3.33-4.07-3.41s-5-.19-7.48-.19h-62.9a29.38,29.38,0,0,0-5.85.31c2.58,1,4.56.61,6.5.61,22.63,0,45.26.1,67.89,0,2.14,0,4.43-.36,5.63,2.15.61,1.31,1.85,2.75-.7,3.42-.56-3.38-3.23-2.24-5.15-2.24-24.32-.06-48.65-.14-73,0-4.39,0-6.23-.85-5.94-5.72a222.08,222.08,0,0,0,0-22.48c-.16-3.89,1.22-4.72,4.85-4.7,24.49.14,49,.08,73.47.06,1.82,0,3.65-.2,5.47-.31,1.82,1.84,2.92,4.56,1,6.1-2.17,1.71-5.39,1-8-.33-.56-.29-1-.94-.21-1.55a1.85,1.85,0,0,1,1.91-.07c-24.73,1.2-49.5.3-74.8.75,1.72,2.6,4,2.93,6.24,2.94,22.15.09,44.3.18,66.45,0,4.64,0,9-1.22,12.53-4.63.48-.47,1.12-.94,1.19-1.57.64-5.45,1.43-10.93-.69-16.22a58.37,58.37,0,0,1-.26,10.34c-.15,1.08-.33,2.61-1.88,2.44-1.05-.12-1.25-1.41-1.45-2.38a32.7,32.7,0,0,1-.31-5c-.08-1.61.38-3.42-1.46-4.46l-.23-1.86c2.17-2.25.12-2.91-1.45-3.37a12.25,12.25,0,0,0-7.74.28c2.26,1,4.64.54,7,.59,1.63,0,3.59-.15,2.26,2.54q-38.29-.07-76.59-.16a8.72,8.72,0,0,0-4.27,1.05,1.55,1.55,0,0,1-.27-1.9,8,8,0,0,1,4-2.06c-1.73-.22-2.64,1-3.74,1.88-2.71,1.39-5,1.48-5.85-2.59-2.94,4-.21,6.7.87,9.6a36.62,36.62,0,0,1-8.9,8.37c-1.46-2.86,3.14-4.25,1.37-7.78-1.07,1.39-2.64,1.65-2,4.13,1,3.68-1.15,5.3-4.67,5-4.06-.36-6.22,1.82-8.41,4.9A43.42,43.42,0,0,0,1273,906a10.1,10.1,0,0,1-4,3.13c-4.11,1-6.79-1.42-9.46-4.39-1.61,3.77-.17,5.32,3.09,5.65,1.26.13,2.66-.65,3.65.75a14,14,0,0,1-5.27,4c-2.71-1.41-5.23-1-7.71.66-1.36.89-2.63,2.77-4.53.89-.3-.29.68-.53.08-.88a1,1,0,0,1-.42.82,11.69,11.69,0,0,1-4,2.93c-1.54.85-2.86,1.8-2.43,3.84.71,3.38-1.58,4.29-4,4.12-3.1-.21-5.34.36-7.19,3.1-1,1.45-3,2.69-4.51.09-.36,2.65,4.8.58,3.3,3.46a8.15,8.15,0,0,1-7.28,4.48,8.54,8.54,0,0,1-4.27-1.11c-1.47-.79-3-1.43-4.61-.76-.61,1.28.36,1.51,1,1.91,1.11.69,2.72,1.2,2.41,2.77-.34,1.76-2.14,1-3.31,1.33-3.18,1-4.33,4.09-6.34,6.29a42.49,42.49,0,0,1-11.21,6c-1.41-2.64,1.35-4.49,1.22-7-2.69-1.24-5.07-1.64-6.95,1.75-1.14,2.07-3.52,2.56-5.73,2-2.55-.67-4.07.62-5.59,2.22-1.66,2.23-.72,3.78,1.47,5.55.75-2.57-3-3.17-1.67-5.36,1.84-1.56,3.62-1.25,5.27.26s3.94,1.39,4.82,0c3.07-4.93,5-2.06,7.2.61-6.72,3.92-13.53,7.67-21,10.11-.51-.3-.33-.76-.27-1.19a1,1,0,0,0,.37,1.16,6.82,6.82,0,0,1-4.17,2.11c-2.18-1.14-3.73.63-5.54,1.2-1.31.41-2.9,1.8-3.82-.29-.49-1.12-1.73-2.35-.89-3.71,1.21-1.95,2.64-.18,4,0,.83.12,1.64-.11,2.71,0-1-.24-1.73.24-2.44,0-3-1-7.47-4.14-3.85,3.26,1,2-1.88,2.51-3.39,1.9-3.24-1.31-5.49-2.21-8.53,1.42-1.62,1.94-5.14,2.24-5.82,6-.5,2.79-2.65,3.3-4.78.83-.67,1.86,1.11,2.13,1.42,3.2a8.85,8.85,0,0,1-5,2.15A11.51,11.51,0,0,0,1128.06,986.22Z" transform="translate(-0.91 -0.91)"/><path class="cls-3" d="M813.1,880.58a310.17,310.17,0,0,1-21.4,30.18c-24.35,29.9-54.78,51.78-89.41,68.17a525.65,525.65,0,0,1-52.75,21.3c-2.1.73-4,1.84-4.78-1.76-3.85-18.85-12.63-35.31-24.72-50.11-.19-.23-.17-.62-.32-1.22,13.44-3.71,26.87-7.49,39.94-12.41,33.11-12.48,62.46-30.56,85.75-57.6,15.79-18.33,27.46-39.22,37.36-61.18,2.12-4.7,4.11-9.47,6.24-14.17,1-2.15.52-3.06-1.94-2.91-2,.12-4,0-6,0-54.15,0-108.3-.07-162.46.1-5,0-6.53-1.08-6.37-6.3q.61-21,0-42c-.15-5.14,1.64-5.86,6.19-5.85q94.47.22,188.95.08c2.79,0,5.66.47,8.25-1.24,1.56-1,2.74-.11,3.91,1q17.8,17.52,35.67,35c1.11,1.09,1.92,2,1,3.85-7.51,15.47-11.4,32.33-18.49,48-2.48,5.45-4.69,11-7.36,16.4-1.77,3.54-1.13,4.41,2.83,4.39,32.82-.12,65.65-.06,98.47-.06a44.82,44.82,0,0,0,5,0c3.88-.44,5.25,1,5.11,5-.3,8.82-.32,17.67,0,26.49.15,4.26-.86,5.83-5.45,5.7-11.65-.33-23.33,0-35-.18-3.29,0-4.26,1-4.23,4.27q.24,25.24,0,50.48c0,3.52,1.28,4,4.34,4,17.83-.12,35.66.06,53.48-.16,4,0,5.1,1.15,5,5-.28,8.66-.32,17.33,0,26,.16,4.18-1.09,5.22-5.24,5.21-49.32-.15-98.64-.1-148-.1-10.41,0-10.41,0-10.41-10.38,0-7,.25-14-.07-21-.17-3.78,1-4.8,4.71-4.76,17.33.19,34.66,0,52,.19,4.21.06,5.29-1.18,5.23-5.3q-.35-24.24,0-48.48c.05-4-1.19-5.12-5.11-5-11.16.24-22.33-.1-33.49.16-4.33.1-6.73-.8-5.85-5.66C813.78,883.17,813.47,882.51,813.1,880.58Z" transform="translate(-0.91 -0.91)"/><path class="cls-3" d="M1819.67,901c4.48-2.16,7.77-5.7,11.3-8.83,23-20.39,42.46-43.66,57-70.85,1.62-3,2.37-3.09,4.59-.52,11,12.78,23.35,24.21,37.82,33.07,3,1.82,2,3.33.69,5.56-16.91,29.19-39.66,53.28-64.82,75.41-21.58,19-45.27,35.06-68.51,51.8-2.36,1.7-3.61,1.23-5.39-.71-9.35-10.17-18.82-20.24-28.27-30.32-1-1.1-2.37-2-1.75-3.8,1.55-4.39.78-8.92.79-13.38q.09-106,0-212c0-6.51,0-6.51,6.48-6.51,14.66,0,29.33.18,44-.11,4.46-.09,5.54,1.18,5.53,5.57q-.23,85-.07,170C1819.07,897.19,1818.55,899,1819.67,901Z" transform="translate(-0.91 -0.91)"/><path class="cls-3" d="M1737,776.59c-.26,25-.76,53.13-4.13,81.1-3.64,30.18-10.88,59.29-28.33,84.88-13.83,20.29-32.09,35.92-52.59,49.08-3.48,2.24-7.05,6.49-10.63,5.89-4-.68-3.72-6.68-5.49-10.25-6.27-12.68-14.17-24.14-24.67-33.63-3.62-3.27-2.66-4.33,1.11-6.27,20.55-10.59,37.67-25.16,49.39-45.31,11-19,16.57-39.77,18.45-61.49,2.49-28.74,1.7-57.58,1.8-86.38a55.24,55.24,0,0,0,0-6c-.35-3.31.94-4.25,4.21-4.22q23.49.22,47,0c3,0,4,.85,3.93,4C1736.87,756.43,1737,764.93,1737,776.59Z" transform="translate(-0.91 -0.91)"/><path class="cls-3" d="M990.88,995.07c-2.52.32-2.65-1.53-3.12-3.14-2.93-10-7.21-19.34-13.88-27.43-1.83-2.22-1.35-3,1.35-3.37a137.65,137.65,0,0,0,19.45-4.45c31.4-9.34,50.76-31,62.25-60.75a197.77,197.77,0,0,0,10.28-35.39c.6-3.24,1.66-4.43,5.19-3.35,9.71,3,19.53,5.52,29.28,8.31,1.56.44,3.7.22,2.84,3.33-7.64,27.53-16.65,54.44-33.81,77.82-15.35,20.9-36.13,34.05-60.33,42.3C1003.94,991.15,997.38,993,990.88,995.07Z" transform="translate(-0.91 -0.91)"/><path class="cls-3" d="M1140,715c.8.3,1.59.56,2.35.88a396.94,396.94,0,0,1,62.13,31.91c3.82,2.44,3.7,4.27,1.37,7.74-8,11.88-15.71,24-23.36,36.06-1.77,2.8-3,3.66-6,1.35-17.2-13.27-36.44-23.16-55.62-33.14-6.74-3.5-6.79-3.46-3-9.84q9.52-16.14,19.1-32.24C1137.69,716.58,1138,714.79,1140,715Z" transform="translate(-0.91 -0.91)"/><path class="cls-3" d="M1102,796.53c.77.24,1.58.46,2.36.75,17.66,6.46,35.17,13.29,52,21.77,2,1,3.86,2.54,5.93,3.52,7.58,3.58,7.56,3.5,3.61,10.55-6,10.74-12.07,21.46-17.85,32.32-1.71,3.21-3.18,3.27-6.09,1.55a336.45,336.45,0,0,0-58.56-27.66c-3.26-1.16-3.7-2.25-2.12-5.27,6-11.49,11.78-23.12,17.67-34.68C1099.62,798.11,1100.06,796.5,1102,796.53Z" transform="translate(-0.91 -0.91)"/><path class="cls-3" d="M1001,899.84c.16,1.69-1,2.16-2,2.72-8,4.35-16.12,8.6-24.06,13.12-2.72,1.55-3.85.54-4.9-1.79-5.71-12.58-11.89-24.88-20.49-35.8-1.25-1.59-1.56-2.71.62-3.85,8.54-4.46,17-9,25.5-13.6,1.58-.86,2.71-.79,3.8.77a236,236,0,0,1,21.14,37.21A7.82,7.82,0,0,1,1001,899.84Z" transform="translate(-0.91 -0.91)"/><path class="cls-3" d="M1016,904.11c-1.7,0-1.82-1.31-2.22-2.34A243.63,243.63,0,0,0,996.18,866c-1.51-2.57-1.29-4,1.53-5.36,7.6-3.76,15.1-7.72,22.55-11.78,2.48-1.35,3.78-.74,5.27,1.45a230.62,230.62,0,0,1,19.39,35.39c.64,1.43,1.28,2.67-.72,3.71-9,4.68-17.94,9.46-26.92,14.19A11.18,11.18,0,0,1,1016,904.11Z" transform="translate(-0.91 -0.91)"/><path class="cls-3" d="M1302.88,969a9.09,9.09,0,0,1,7.47-3.09c20.62.11,41.24,0,61.86.07,2,0,4.13-.6,5.09,2.54.59,1.93,2.72,2.8,4.22-.06,2-3.74,5.27-2.51,8.34-2,3.58.56,2.59,3,2.22,5.22a2.38,2.38,0,0,0,1.28,2.49c1,.66,2,1.64,1.34,2.88-.83,1.7-2.38.28-3.59.5-2.49.46-1-1.28-1.17-2.12-.36-1.76-.75-3.52-1.18-5.52-1.56,1.56.13,4-1.86,5.14l-67.72-.26c-3.82,0-7.66-.28-11.45.07C1302.94,975.3,1301.85,973.18,1302.88,969Z" transform="translate(-0.91 -0.91)"/><path class="cls-3" d="M1387.07,877c2.18-1.21,3-.43,2.95,1.91a29.23,29.23,0,0,0,.84,8.9V873.89c4.34,1.3,5.68,3.44,4.37,7.58-.71,2.26-.3,5,0,7.43.46,4.43-.52,3.17-4.25,6.41-9.15,7.94-19.53,4.09-29.29,4.51-16.1.7-32.26.2-48.4.17-1.64,0-3.59.21-4.83-.57-1.68-1.06-4.61-2-4.16-4.4.56-3.05,3.38-.87,4.95-.88,23.29-.19,46.57-.16,69.86-.09a11.44,11.44,0,0,0,6.62-1.81c-.76,4.1-4.15,1.8-5.86,3.51l7.68.72-.66-5.83Z" transform="translate(-0.91 -0.91)"/><path class="cls-3" d="M1332,814c2.06-.27,2-1.18.9-2.61-.77-1-2.87-1.84-.72-3.47,4.76,5.09,9.45,10.25,14.32,15.22,1.61,1.64,1.14,2.7,0,4.23-3.23,4.37-6.34,8.83-10.37,14.49h80.78c2.23,1.4,5.41,2.18,3.87,6a14.76,14.76,0,0,0-9.16-2.86q-35.68.12-71.35,0c-1.64,0-3.54.19-4.86-.53-2.51-1.37-3.9-4.09-1-5.92,5.27-3.32,4.65-8.59,5.6-13.44.08-.41.64-.73,1-1.09,1.9-.64,1.95-.68,1.42-1.3C1339.43,819.22,1336.57,815.58,1332,814Z" transform="translate(-0.91 -0.91)"/><path class="cls-3" d="M1249,916c2.09,2,2.73-.52,3.78-1.33,3.42-2.64,6.37-2.52,8.3.5a330.87,330.87,0,0,1-53.82,33.94c-.75-.21-2-1.08-1.76-1.13,4.26-1.06,3.87-9.9,10.82-5.9-.36-2.4-2.18-1.8-3.14-2.52s-3-.65-2.37-2.54a3,3,0,0,1,3.18-2,6.77,6.77,0,0,1,3.33.71c4.76,3.39,8.45,1.8,11.87-2.36a21.19,21.19,0,0,1-3.07-1,1.53,1.53,0,0,1-.65-2.14c.33-.68.47-1.72,1.6-1.52,1.73.3.4,1.74.49,1.85,1.27,1.59,2.54.1,2.77-.71,1.22-4.13,3.75-4.17,7.33-3.32,1.59.38,4.94.23,2.91-3.44-1-1.74-.21-2.78,1.39-3.55C1244.32,918.38,1246.65,917.18,1249,916Z" transform="translate(-0.91 -0.91)"/><path class="cls-3" d="M1174.81,905.9c1.16,2.92-2.6,1.67-2.75,3.47,0,2.83,3.74-3.56,4,1.77.17,3.89.28,3.92-3.64,4.75-5.15,1.08-11-.26-15.72,3.15,1,1.88,4.41-.11,4,2.75s-2.94,2.35-4.81,2.16c-5-.5-9,.21-10.87,5.81-1,3.16-4.06,2.33-6.45,2.08-1.92-.2-1.93-2.19-2.15-3.51-.29-1.68,1.14-2.14,2.58-2.3,1.69-.2,3.79.55,4.65-1.93-1.51-.93-3.25.65-4.79-.56,1.43-.91,3.76-.51,4.09-2.84Z" transform="translate(-0.91 -0.91)"/><path class="cls-3" d="M1302.92,944h67.84c1.16,0,2.33,0,3.49,0,1.5.06,3.32,0,3.26,2.11,0,1.69-1.66,1.8-3,1.86-.66,0-1.33,0-2,0-21,0-41.9-.06-62.85.07-2.95,0-5.13-.7-6.76-3.1Z" transform="translate(-0.91 -0.91)"/><path class="cls-3" d="M1387.07,926c1.11-.74.89-1.9.93-3,3.19,1,4.33,3.14,4.06,6.47s-.06,6.46-.8,9.74v-9l-1.26-.05c0,2.12-.08,4.24,0,6.36.22,4.7-2,6.49-6.63,6.47-26.83-.08-53.65,0-80.48,0,.19-3.57,3-2,4.52-2,24.57-.11,49.13-.18,73.7,0,4.36,0,6.45-.79,5.86-5.63C1386.59,932.32,1387,929.13,1387.07,926Z" transform="translate(-0.91 -0.91)"/><path class="cls-3" d="M1140.08,981c-1.38-.4-4-.35-2.82-2.41.81-1.4-1.54-3.77,1.17-3.89,2.28-.1.87,2.92,2.46,3.76,3.94-1.43.63-8.46,3.85-7.7,4.54,1.07,4.37-2.75,6.56-3.82,3.52-1.72,5.83,2.47,9.53,1.69-1-1.56-1.69-2.61-2.3-3.72a2.39,2.39,0,0,1,.41-3.17,1.86,1.86,0,0,1,2.7.12c2.45,2.51,5.37,1.59,9.42.89-3.57,3.17-6.56,1.92-9.68,1.56.35,3.05.55,5.31,4.22,2.69a10.53,10.53,0,0,1,5.07-1.67c1.3-.11.31,1.19.37,1.86A290.28,290.28,0,0,1,1140.08,981Z" transform="translate(-0.91 -0.91)"/><path class="cls-3" d="M1102.91,945.22c-.24-2.14,1.85-4.37-.38-6.49-.65-.62,0-2.56.28-2.24,1.89,2.18,4.85-1.88,6.4,1.31.56,1.16,1.09,2.15-.19,3-2.86,1.79-3.44,3.47,0,5.23-.24,4.26-2.25,1.1-3.9.7l2.56,6.33c.87.33,1.14-.06,1.27-.55,1.53-5.69,1.53-5.69,7.05-3.14.15.07.28.18.43.26,1.65.91,4.27-.43,5.18,2.1a1.5,1.5,0,0,1-1.18,1.91c-2.56.44-5.27,1.34-7.31-1.32-.13-.18-.49-.18-.78-.29l-1.42,5.38a15.67,15.67,0,0,1,11.25-.68c-2.92,2.38-6.31.28-8.78,2.11,1.69,2.15,4,.48,5.75,1.62-.82,1-4.39-.37-2.46,3.24.85,1.59-1.79,3.18-4,3.43A163.51,163.51,0,0,1,1102.91,945.22Z" transform="translate(-0.91 -0.91)"/><path class="cls-3" d="M1311,801c3.09-1.31.22-3.85,1.17-5.61-3.47-1.07-.71-2.94-.11-5.48-4.14,2.92-4.66,6.52-5.33,10.19l-2.77-3.2c3.33-4.7,6.67-9.39,10-14.1,1.58-2.25,2.54-1.33,3.38.58.93,2.1,1.87,4.2,2.81,6.3.89,3,1.06,5.54-3,6.63-1.92.52-1.14,3.15-2,4.68C1313.68,803.59,1312.4,804,1311,801Z" transform="translate(-0.91 -0.91)"/><path class="cls-3" d="M1232.59,868.82c5.44.84,10.39,4.09,16.19,3.24,1-.15,2.06.34,2,1.64-.12,1.65-1.35,2.23-2.78,2.25-5.1.05-10.2,0-15.36,0-.28,1.52,2.81,1.47,1.76,3.43-4.65-1.18-4.81-1.38-4.52-5.22-1-.17-1.46.44-2.07,1a12.88,12.88,0,0,1-2.12,1.38l3.74,2.41c-3.53-1.87-7.07,1.85-10.44-.07A114.7,114.7,0,0,1,1232.59,868.82Z" transform="translate(-0.91 -0.91)"/><path class="cls-3" d="M1273,906c-.66-1.6,1.86-3.6-.75-5.07-.58-.33,0-2.08.65-2.06,3.89.13,4.08-3.26,5.37-5.48,2.12-3.64,5.46-4.54,9.17-4,3.89.54,3.89-1.3,2.9-4-.84-2.26,1.07-3.73,1.67-5.49.42-1.23,2.14.4,2.72,1.08a3.38,3.38,0,0,1-.39,5.16c-1,.88-2.07,1.73-2.23,3.2A143.58,143.58,0,0,1,1273,906Z" transform="translate(-0.91 -0.91)"/><path class="cls-3" d="M1288,817c2,3.26-2.7,3.53-2.61,6.35,1.36,0,2.77,0,4.17,0,2.12-.05,2.36,1.39,2.45,3,.11,1.89-.81,2.74-2.69,2.69a21.57,21.57,0,0,0-4,0c-2.14.34-5.13-1.63-5.65,3-.28,2.49-4,3.81-5.36,6.69-.6,1.3-4.63,2.46-5.27-1.74Z" transform="translate(-0.91 -0.91)"/><path class="cls-3" d="M1205.8,887.92c2.24-.09,2.4,2.7,4.53,3.14,1.4.29,2,2.16,1.52,3.79-.51,1.9-1.72,2.2-3.43,1.43-.38-.17-.93,0-1.4,0,.51,1.52,1.23,3.18-1.28,3.53-1.85.26-2.78-1.63-4.35-2.13-.82-.26-1.65-.67-2.15.27-.66,1.25-.81,3.4-2.84,2.45-1.79-.83-1.9-2.89-1.69-4.76a7.38,7.38,0,0,1,.23-1A51.66,51.66,0,0,1,1205.8,887.92Z" transform="translate(-0.91 -0.91)"/><path class="cls-3" d="M1113.94,970.12c1.41-2.5,3.72-4.16,5.68-6.15a2.84,2.84,0,0,1,3.19-.71c1.42.55,1.33,1.91,1.13,3-.65,3.33.38,7.15-3.5,9.53-1.84,1.13-.91,3.48.23,4.86,1.42,1.73.84,2.2-.94,2.47A71,71,0,0,1,1113.94,970.12Z" transform="translate(-0.91 -0.91)"/><path class="cls-3" d="M1123.69,927.87l6.18-.31c-2.52,3.68-6.16,3.88-9.62,4.42-1.26.2-3-.32-3.45,1.21s1.07,2.2,2.28,2.7c.94.39,2.05.63,1.27,2-.55,1-2,1.51-2.49.76-2.32-3.57-5.85-2.52-9.09-2.93-1.32-.17-3-.41-3.86-1.88A160.53,160.53,0,0,1,1123.69,927.87Z" transform="translate(-0.91 -0.91)"/><path class="cls-3" d="M1297.78,805l4-2.68c2.35,1.71-2.8,2.15-.46,3.63,1.68,1.06,2.46-.12,3.41-1.44.66-.9,1.89-.26,2.55.57.94,1.18,0,2.23-.49,3.2-.69,1.26-1.93,2.38-3.19,1.23-1.47-1.34-3.36-1-5.76-2.65,1.74,3.1,0,5.36.74,7.79.38,1.29-.62,2.28-2.06,2-.89-.17-2.59-1.11-2-1.68,3.18-3-1.63-2.51-1.6-4C1294.33,808.74,1295.66,806.53,1297.78,805Z" transform="translate(-0.91 -0.91)"/><path class="cls-3" d="M1301,881c-3.8-1.49-3.57-4.93-3.66-8a2.53,2.53,0,0,1,2.69-2.86c1.49.08,2.56.29,2.38,2.62-.2,2.63,2.79-.48,3.57,1.28l0,2.07A17.32,17.32,0,0,1,1301,881Z" transform="translate(-0.91 -0.91)"/><path class="cls-3" d="M1266.34,911.14c-2-1.54-3.2,2.13-6.13.28-3.22-2-2.23-4.54-2.93-6.79-.45-1.45,1.56-2.08,2.35-1.37,2.81,2.54,5.72,4.8,9.42,5.87A4.27,4.27,0,0,1,1266.34,911.14Z" transform="translate(-0.91 -0.91)"/><path class="cls-3" d="M1244.76,858.89c.84,1.17.73,3.12,3.79,2.88l-6.75,3.75c2.23,1.12,4.68-.27,7,1.41-3.63,2.15-7.44,1-10.79,1.27-3,.2.17-2.31-.13-3.59A25.6,25.6,0,0,1,1244.76,858.89Z" transform="translate(-0.91 -0.91)"/><path class="cls-4" d="M309.9,942.94,320,934.11C318.93,940.63,315.8,943.36,309.9,942.94Z" transform="translate(-0.91 -0.91)"/><path class="cls-3" d="M1264.86,841c2.07.25,2.76,1.81,1.7,3.13-1.19,1.49-1.71,4.15-3.71,4.27-1.36.08-2.76-1.7-1.95-3.74A9.7,9.7,0,0,1,1264.86,841Z" transform="translate(-0.91 -0.91)"/><path class="cls-3" d="M1326.18,799.68c-.19,1.48-2.2.83-2.6,2.48-.69,2.84-2.34.36-3,0-1.84-1.08-.22-1.07.57-1.83,1.38-1.31-.16-4.08,2-5.38A10.34,10.34,0,0,1,1326.18,799.68Z" transform="translate(-0.91 -0.91)"/><path class="cls-3" d="M1120.66,985.12c1.72.83,4.85-2.23,5.35,1.94C1123.15,989.38,1121.17,989.26,1120.66,985.12Z" transform="translate(-0.91 -0.91)"/><path class="cls-3" d="M1128.06,986.22c1.75-2.38,3.62-4.48,7-3A20.16,20.16,0,0,1,1128.06,986.22Z" transform="translate(-0.91 -0.91)"/><path class="cls-3" d="M1178.68,903.86c.55.24,1.56.48,1.56.72a2.11,2.11,0,0,1-1.72,2c-1.4.38-1.37-.83-1.57-1.71Z" transform="translate(-0.91 -0.91)"/><path class="cls-5" d="M373.9,737.17,372,735c.84-.39.86-1.2,1-2,1.32.53,1.79,1.71,2.21,2.92C375.33,736.91,374.86,737.3,373.9,737.17Z" transform="translate(-0.91 -0.91)"/><path class="cls-4" d="M303.79,947.91a11.3,11.3,0,0,1,4.07-3.32C307.34,946.71,306.08,947.94,303.79,947.91Z" transform="translate(-0.91 -0.91)"/><path class="cls-1" d="M904.94,1294c-33.32,0-66.65-.08-100,.08-4.33,0-6-.78-6-5.65q.26-100.22,0-200.44c0-4.2,1.23-5.31,5.35-5.3q100.47.18,200.94,0c4.24,0,5.71.91,5.7,5.47q-.23,100.47,0,200.94c0,4.06-1.22,5-5.09,5C972.25,1294,938.6,1294.05,904.94,1294Z" transform="translate(-0.91 -0.91)"/><path class="cls-1" d="M448.76,1292.48c-33.32,0-66.64-.08-100,.1-4.59,0-5.94-1.25-5.93-5.88q.21-100,0-199.92c0-4.3,1-5.66,5.5-5.65q100.46.22,200.92,0c4.37,0,5.58,1.11,5.57,5.56q-.23,100,0,199.92c0,5-1.45,6-6.15,6C515.4,1292.38,482.08,1292.48,448.76,1292.48Z" transform="translate(-0.91 -0.91)"/><path class="cls-1" d="M1135.75,1294.83c-33.15,0-66.3-.09-99.45.1-4.73,0-6.25-1.19-6.23-6.11q.24-99.95,0-199.89c0-4.49,1.09-6,5.84-6q99.95.23,199.89,0c4.73,0,6.27,1.23,6.26,6.13q-.23,99.7,0,199.39c0,5-1.25,6.53-6.39,6.49C1202.39,1294.72,1169.07,1294.83,1135.75,1294.83Z" transform="translate(-0.91 -0.91)"/><path class="cls-1" d="M1674.1,1161c.72,3.67-1.38,4.05-4.32,4-14-.09-27.93,0-41.89,0h-5.75c4.07,2.39,8.58,2.31,12.87,3.25,3.14.68,5.94,1.6,5,5.79-6.53,6.49-2.83,14.22-2.57,21.52a1.89,1.89,0,0,0,1.52,1.79,47.05,47.05,0,0,0,13.31.09c1.24-.18,1.43-1.52.33-2.19-7.29-4.48-6.54-12.41-8.41-19.22-1.47-5.25-.28-6.56,4.77-5.41,9.15,2.07,15.36,7.73,13.89,16.4-.4,2.37,1.25,3.67,2.78,5q3.82,3.21,7.75,6.28c1.62,1.26,2.46,2.91,1.82,4.77s-2.56,1.15-4,1.17c-6.43.06-12.87,0-19.3,0l-.32,1.27c3.84,2.33,7.67,4.69,11.53,7,1.63,1,3.37,2,3.16,4.09-.18,1.73-2.16,1.94-3.54,2.3-1.8.46-2.82,1.73-3.84,3-2.79,3.51-5.3,7.28-8.35,10.56-2.25,2.42-2,3.83.23,6.06,6.7,6.64,7.1,6.7,11.92-1.47,2.11-3.58,4.11-7.24,6.06-10.91.57-1.08,1-2.29,2.48-1.75s1.84,1.75,1.45,3.25c-1.1,4.18-2.24,8.35-3.22,12.56-1.2,5.15-.94,10,3.67,13.59,2.28,1.77,2,3.33.29,5.41-4.08,4.93-9.72,6.54-16.73,4.21-7.8-2.59-14-7.58-19.36-13.66-2.43-2.78-4.26-2.7-7-.51-7.51,5.93-16.06,10-25,13.28-1.53.55-3.16,1.55-4.34-.57-1.35-2.4.88-2.76,2.13-3.6,8-5.41,15.85-11,22.5-18.11,2.07-2.22,2.63-3.93,1.31-7-3.44-7.94-6.17-16.17-7-24.89-.26-2.85-1.61-4.18-4.49-4.14-4.67.06-9.34.11-14,0-2.88-.09-4.52.63-4,3.9a18.6,18.6,0,0,1-.18,3c-.12,6.09-.09,6,6,5.3,3-.36,6-.33,9-.5,1.29-.07,2.75-.63,2.89,1.53.1,1.66-.76,2.28-2.23,2.75-3.64,1.17-7.15,2.78-10.84,3.74-4,1.05-5,3.49-4.89,7.33.24,6.32.12,12.66.06,19-.1,10.22-10.6,17.83-20.48,15a3.27,3.27,0,0,1-2.7-3.59c.06-6-2.86-9.27-8.67-10.27-1.37-.23-3.29-.12-3.11-2.37s2.1-1.63,3.46-1.73,2.66,0,4,0c10.48,0,12.51-2.66,10.34-13.17-.47-2.29-1.68-2.24-3.19-1.48-4.53,2.26-10.74,1.38-13.19,7.68-.72,1.86-2.73.48-3.33-1-2-4.94-3.78-10-5.72-14.92-1.06-2.71.39-3,2.6-3.24,6.45-.57,12.88-1.45,19.33-1.92,2.51-.18,3.55-.9,3.51-3.53-.23-14,1.53-11.13-10.73-11.41-4.16-.1-8.33-.08-12.5,0-2.46,0-4.12-1.2-4-3.43s2.53-1.52,4-1.54c6.33-.08,12.67-.18,19,0,3.33.11,4.23-1.14,4.25-4.34.05-8.9.18-8.93-8.48-7.88-4,.48-7.88,1.22-11.84,1.62-1.64.17-3.88,1.19-4.69-1.36-.91-2.85,1.45-3.23,3.31-3.91,11.24-4.15,22.53-8.2,32.92-14.3,1.52-.89,3-1.82,4.57-2.76-1.43-2-3.06-1.33-4.43-1.34-10.83-.06-21.66,0-32.5-.05a26.76,26.76,0,0,1-3,0,3.05,3.05,0,0,1-2.77-3.54c.12-1.94,2-1.39,3.18-1.39,12,0,24,0,36-.08,2.52,0,6.34,1.43,7.32-1.17,1.42-3.78.94-8.23.18-12.31-.34-1.85-2.51-1.17-3.91-1.18-7.5-.06-15,0-22.5,0-1,0-2,0-3,0-2.14,0-3.05-1.43-3.23-3.12-.26-2.48,1.87-1.85,3.19-1.86,8.5-.06,17-.15,25.5,0,3.24.08,4.58-.42,4.43-4.24-.4-10-.16-10-10-10h-24a32.44,32.44,0,0,1-3.49-.1c-1.87-.2-2.44-1.74-2.56-3.22-.17-2.12,1.65-1.68,2.86-1.69,7.32,0,14.64,0,22.49,0-2.52-6.76-4.39-13.28-8.81-18.65-1-1.18-2.07-2.16-1-3.9s2.59-1.43,4-1.12c5.36,1.19,10.55,2.7,15.2,6,5.32,3.72,7.4,8.49,5.53,14.62-.89,2.91.33,3.17,2.54,3.06h.5c18-.66,14.07,4.23,21.56-14.17,4.45-10.94,4.41-11,15.34-6.49q3.23,1.32,6.4,2.82c1.46.69,2.47,1.81,2.06,3.56a2.94,2.94,0,0,1-3.06,2.14c-7.91.09-10.11,7.57-15.5,10.89l.43,1.27c5.06,0,10.16.36,15.18-.12,3.9-.37,5.2-4.41,7-7.18,2.47-3.77,4.37-4.26,7.47-.74,2.18,2.48,4.94,4.43,7.47,6.59,1.63,1.39,2.84,3,1.95,5.2s-2.88,1.26-4.44,1.27c-13.5,0-27,.13-40.49-.05-3.77-.05-5.25.79-5.13,5,.27,9.29.07,8.78,9.16,9.47,6.35.48,10.45-2,13.61-6.8,2-3.1,4-2.88,6.49-.72q4.13,3.62,8.36,7.12a3.51,3.51,0,0,1,1.28,4c-.55,1.78-2.18,1.22-3.4,1.24-10.66.14-21.32.35-32,.2-3.1,0-3.46,1.1-3.5,3.71-.17,10.88-.24,10.87,10.56,10.88,3.83,0,7.75-.49,11.48.12,7.67,1.24,12.83-1.73,16-8.44,1.83-3.83,3.86-3.17,6.24-.72l4.85,5A27.87,27.87,0,0,1,1674.1,1161Z" transform="translate(-0.91 -0.91)"/><path class="cls-6" d="M469.78,1133.19c-17.77,1.06-35.57,1.86-53.09,5.32-3.75.74-7.49,1.54-10.27,4.58-1.73,1.89-3.69,2-5.72.27-8.58-7.29-13.21-16.94-16.48-27.41a2.15,2.15,0,0,1,1.26-2.86c1.18-.55,1.85.1,2.44,1,5.45,8.37,13.7,9.7,22.79,9.28q35.43-1.66,70.87-3.06c2.95-.11,4.48-1.58,6-3.63,4.37-5.7,4.42-5.68,10.21-1.13q6.87,5.4,13.71,10.85c2.78,2.21,3,4.86-.31,6.19-4.7,1.9-4.81,5.71-5.36,9.62-2.38,16.87-6.33,33.34-13.09,49-12.8,29.7-35.94,48.49-64.84,61.11a133.42,133.42,0,0,1-25.53,8.38c-1.1.23-2.55,1.71-3.34-.35s.44-2.91,2.21-3.68a176.43,176.43,0,0,0,28.83-15.84c21-14.29,36.64-32.71,45-56.93,2.35-6.78,2.36-6.82-4.64-6.49-18,.87-35.86,2.11-53.49,5.88-3.94.84-7.83,1.91-11,4.39-2.43,1.88-4.08,1.16-6-.65-6.35-6.06-9.74-13.74-12.27-21.92-.3-1-.65-1.89.61-2.52a1.86,1.86,0,0,1,2.59.71c4.44,6.3,11,6.1,17.57,5.69,22.93-1.43,45.84-3.15,68.81-3.69,2.6-.06,4-.86,4.5-3.44,1.65-8.15,3.09-16.33,4.08-24.6.47-3.9-.92-5.09-4.61-4.73S473.61,1133,469.78,1133.19Z" transform="translate(-0.91 -0.91)"/><path class="cls-1" d="M1528.49,1176.78c-3.63,4.38-7.16,8.71-10.78,13-1.14,1.33-2.32,3.21-4.53,1.8s-1-3.22-.23-4.83c4.87-10.4,9.73-20.78,13.63-31.62a330.8,330.8,0,0,0,14.45-52.85c1.13-6.24,1.12-6.25,7.15-3.71,5.06,2.13,10.11,4.3,15.16,6.44,1.9.8,3.72,1.68,3.57,4.2s-2.11,2.72-3.92,3c-2.41.43-3.5,1.89-4.4,4.14-3.82,9.58-7.2,19.35-12.06,28.48-1.18,2.21-1.17,3.32,1.58,4.38,5.86,2.27,6,3.06,1.36,7-1.93,1.65-1.58,3.51-1.58,5.43,0,32-.15,64,.07,96,0,4.19-1.45,5.49-5.07,6a68.61,68.61,0,0,0-9.26,1.94c-3.64,1-4.62-.17-4.6-3.81.12-27,.07-54,0-81C1529.09,1179.53,1529.53,1178.18,1528.49,1176.78Z" transform="translate(-0.91 -0.91)"/><path class="cls-7" d="M1413.24,1157.87c-3.43-6.36-7.52-9.69-11.53-13.09-1.19-1-3.17-1.71-1.9-3.9,1.17-2,2.83-1.11,4.39-.63,8.76,2.72,17.4,5.73,25.1,10.89,8.6,5.76,12.38,14.69,9.71,22.56-1.29,3.81-3.63,6.53-7.73,6.82s-6.37-2.32-7.9-5.76c-.14-.3-.29-.6-.44-.9-5.44-11.63-5.47-11.85-17.77-9.73-17.19,3-34.31,6.33-51.47,9.45-3,.55-5.77,1.11-7.71,3.91-1.39,2-3.4,2.18-4.91,0-3.7-5.4-5.7-11.64-8.39-17.53-1.14-2.48,1.52-1.93,2.76-1.94,6.66-.08,13.33-.1,20,0,2.45,0,4-.52,4.76-3.21,2.06-7.37,4.33-14.68,6.61-22,.94-3,.3-4.16-3.11-4.06-7.32.22-14.66.07-22,0-1.49,0-3-.21-4.48-.19-2.52,0-3.11-1.73-3.17-3.6-.08-2.39,2-1.8,3.31-1.81,10.16-.05,20.33-.2,30.49,0,3.83.09,5.42-.84,5.17-5-.34-5.48-.08-11-.08-16.49,0-1.67-.31-3.27,2.47-3,6.29.53,12.58,1,18.81,2.13,2.06.36,4.06.89,4.51,3.24s-1.49,3.08-3,4c-3.25,2-5,10.61-2.85,13.82.93,1.42,2.27,1.18,3.55,1.19,5.33,0,10.68-.22,16,.09,3.49.2,5.52-1.29,7.43-3.91,7.09-9.74,7.14-9.69,16.29-1.65,2,1.76,4,3.46,6.1,5.14,1.59,1.3,2.34,3,1.53,4.85s-2.59.61-4,.63q-23.93.27-47.85.52a4.46,4.46,0,0,0-3.91,1.75c-5.93,8-11.88,16-17.78,24.06-1.45,2-1.46,3.28,1.61,3.27C1385.28,1157.84,1398.69,1157.87,1413.24,1157.87Z" transform="translate(-0.91 -0.91)"/><path class="cls-1" d="M1403.86,1217.16c0-11.32.11-22.63-.06-33.94-.05-3.45.84-4.26,4.31-3.53,5.18,1.09,10.5,1.52,15.76,2.23,1.58.21,3.11.81,3.43,2.44.37,1.89-1,3.21-2.6,3.78-3.28,1.14-3.84,3.41-3.81,6.6.16,14.64.06,29.29.1,43.93,0,2.06-.6,4.69,2.53,5.12s4.67-1.32,5.37-4.06c1.55-6.11,3-12.26,4.61-18.35.38-1.43.24-3.74,2.77-3.34s1.64,2.52,1.67,4c.07,3.16.05,6.33-.09,9.48-.24,5.43.95,9.94,6.8,11.88a2.31,2.31,0,0,1,1.92,2.46,15.6,15.6,0,0,1-15.94,16.09c-5.33,0-10.65.11-16,0-7.27-.19-10.68-3.54-10.76-10.83C1403.76,1239.79,1403.85,1228.48,1403.86,1217.16Z" transform="translate(-0.91 -0.91)"/><path class="cls-7" d="M1295.09,1249.94c.25-3.7,1.86-9,3.2-14.25,2.45-9.7-.59-16-9.8-19.79-1.42-.58-2.34-1.21-2.12-2.83s1.59-1.9,3-1.92a16.1,16.1,0,0,1,3,0c4,.72,5.89-1.18,7.47-4.73,9.93-22.31,20.09-44.53,30.15-66.79.64-1.42,1.19-3.12,3.08-2.42,2.73,1,1.08,3.24.67,4.7-4.94,17.59-9.31,35.39-15.31,52.62-5.8,16.65-6.91,33-2.12,49.85a20.14,20.14,0,0,1,.28,9.39c-1.31,6.83-6.67,11-13.06,10.23C1298.24,1263.38,1295,1258.73,1295.09,1249.94Z" transform="translate(-0.91 -0.91)"/><path class="cls-7" d="M1346.45,1180.05c6.67,1.05,12.57,2,18.46,2.92,1.94.31,3.58,1.21,3.87,3.3s-1.29,3.12-2.79,3.71c-2.92,1.14-3.27,3.27-3.21,6,.19,8.82.25,17.64-.95,26.4-2.15,15.72-11.61,26.45-24.29,34.81a85,85,0,0,1-14.92,8c-1.59.64-3.22,1.51-4.29-.6s.61-3,2.06-3.82c17.18-10.14,23-26.28,23.56-45.07.29-10.65.11-21.31.11-32C1344.05,1181.55,1344.06,1179.49,1346.45,1180.05Z" transform="translate(-0.91 -0.91)"/><path class="cls-7" d="M1374.16,1217.5c0-10.48.1-21-.05-31.43-.05-3.63.27-5.53,4.85-4.38,4.94,1.24,10.15,1.39,15.22,2.17,1.6.25,3.39.78,3.7,2.81s-1,3.56-2.82,4.21c-3,1.07-3.26,3.18-3.25,5.9.09,16.46-.1,32.93.14,49.39.06,3.86-1.38,5.33-4.86,5.82a58.23,58.23,0,0,0-8.29,1.65c-3.56,1-4.77,0-4.71-3.72C1374.27,1239.12,1374.16,1228.31,1374.16,1217.5Z" transform="translate(-0.91 -0.91)"/><path class="cls-7" d="M1328.85,1122.19c.08,5.94-3.77,11-8.28,11.69-4.12.6-7.47-1.88-9.13-7.42-2.23-7.43-4.94-14.45-11.62-19.15-.93-.66-1.78-1.52-1-2.94a2.21,2.21,0,0,1,2.42-1.3c8.46,1.11,16.8,2.59,23.16,9A16.17,16.17,0,0,1,1328.85,1122.19Z" transform="translate(-0.91 -0.91)"/><path class="cls-7" d="M1306.12,1147.87c8,5.11,10.63,11.65,7.53,18.79-1.6,3.69-4.21,5.61-8.48,5.62s-5.84-2.6-6.85-5.94c-2-6.72-4.11-13.38-10.2-17.77a2.68,2.68,0,0,1-.95-3.52c.63-1.37,2-1,3.07-1a45.51,45.51,0,0,1,11.74,2C1303.34,1146.69,1304.82,1147.07,1306.12,1147.87Z" transform="translate(-0.91 -0.91)"/><path class="cls-8" d="M1644.18,1176c2.44,2.93,2.74,6.68,3.68,10.14,1,3.77,1.76,7.55,6.62,8.12,1.24.15,1.8,1,1.24,2.08-.74,1.48-1.62,3.07-3.55,3.07-4.46,0-8.92-.2-13.39-.23-2.14,0-2.87-1.06-2.93-3.06q-.27-8.66-.72-17.31c-.18-3.5,3-3.47,4.86-4.79C1641.77,1173.83,1642.66,1175.58,1644.18,1176Z" transform="translate(-0.91 -0.91)"/><path class="cls-9" d="M1674.1,1161a12.55,12.55,0,0,1-5.05-5.07C1671.58,1156.74,1673.45,1158.25,1674.1,1161Z" transform="translate(-0.91 -0.91)"/><path class="cls-10" d="M1306.12,1147.87A4.9,4.9,0,0,1,1302,1146,4.08,4.08,0,0,1,1306.12,1147.87Z" transform="translate(-0.91 -0.91)"/><path class="cls-1" d="M501.48,811.31c15.82,0,31.64.1,47.45-.07,3.69,0,5.18.61,5.15,4.83q-.29,45.45,0,90.91c0,4.13-1.32,4.92-5.11,4.9q-47.45-.2-94.9,0c-4.19,0-5.26-1.2-5.24-5.32q.24-45-.05-89.91c0-4.64,1.58-5.48,5.75-5.42,15.65.22,31.3.09,47,.09Z" transform="translate(-0.91 -0.91)"/><path class="cls-1" d="M413.16,735.12c-9.7.09-18.12-8.38-18.08-18.19,0-9.11,8.51-17.54,17.69-17.61,8.88-.07,18,8.63,18.18,17.38A18.21,18.21,0,0,1,413.16,735.12Z" transform="translate(-0.91 -0.91)"/><path class="cls-11" d="M373.9,737.17l1.33-1.25c.71.76,2.37,1.46,1,2.63S374.24,738.4,373.9,737.17Z" transform="translate(-0.91 -0.91)"/><path class="cls-3" d="M1372.82,846c10.65,0,21.3,0,32,0,1.31,0,3.41-.89,3.72,1.25.23,1.58-1.2,2.45-2.81,3A26.81,26.81,0,0,1,1397,852c-15.48-.1-31-.17-46.43,0-4.12.06-7.82-1.2-11.69-2-1.11-.24-2.63,0-2.63-1.59,0-1.89,1.49-2.41,3.14-2.43,3,0,6,0,9,0Z" transform="translate(-0.91 -0.91)"/><path class="cls-3" d="M1345.14,918c12.14,0,24.27,0,36.41,0a16,16,0,0,1,7.2,1.58c.75.36,2.08,1,1.24,2.16a3,3,0,0,1-2.43,1c-8.81-1.78-17.69-.51-26.53-.64-17.62-.26-35.24-.06-52.86-.11-1.5,0-3.8.73-3.95-1.76-.18-3,2.39-2.17,4-2.18C1320.54,918,1332.84,918,1345.14,918Z" transform="translate(-0.91 -0.91)"/><path class="cls-3" d="M1196.08,955a4.33,4.33,0,0,1-2.46-1.42c-1.4-1.16-2.64-2.47-2.64,1.17,0,1.09-4.11,3.39-6.76,1.26-1.6-1.29-3.06-2.41-5.21-2.05.33-3.21,1.54-4.83,5.16-3.5,2.83,1,5.25.51,5.94-3.08.35-1.82,1.4-2.39,3.28-1.8,2.31.74,4.71,1.22,7.7,2-3.19,2-3.68,5-5,7.49Z" transform="translate(-0.91 -0.91)"/><path class="cls-3" d="M1213.06,883.69c3.33-.5,4.65-3.58,6.85-2.52,2.65,1.29,4.88,3.43,7.37,5.11,2.1,1.41,0,5-3.08,5.69-4.17.94-7.21-1.32-10.27-3.51C1216.79,884.93,1216.79,884.93,1213.06,883.69Z" transform="translate(-0.91 -0.91)"/><path class="cls-3" d="M1187.83,898.9c1.8.05,2,.1,1.81,1.41s.29,1.67,1.17,1.09c1.74-1.16,3.53-1.22,3.85.85.26,1.67,0,4.48-2.56,4.6-3.38.17-4,1.92-4.29,4.78a3.23,3.23,0,0,1-3.76,3.12,3.53,3.53,0,0,1-2.91-3c-.42-2.22.7-3.29,2.82-3.89.95-.27,2.68.33,2.82-1.28s-1.57-1.25-2.53-1.71c-1.32-.63-.91-2.23,0-2,3.79.83,2.35-2.79,3.71-3.93Z" transform="translate(-0.91 -0.91)"/><path class="cls-3" d="M1418.32,945.65V850.16h.38V946Z" transform="translate(-0.91 -0.91)"/><path class="cls-3" d="M1386.88,875.17c-.63-3.32-2.88-.59-4.31-1.1-2.59-.92-7.78,1.29-7.65-1.4.2-4.21,5.25-2.17,8.28-2.68s4.48,1.15,5.5,3.68c.29.72.64,1.12-.39,1.29-.49.08-1,.11-1.48.17Z" transform="translate(-0.91 -0.91)"/><path class="cls-3" d="M1395.93,942.85c-1,2.23-1.65,4.7-4.42,5-2.25.24-2.24-1.81-2-3.16a4.86,4.86,0,0,1,4.66-4.27C1395.51,940.27,1395.8,941.7,1395.93,942.85Z" transform="translate(-0.91 -0.91)"/><path class="cls-3" d="M1328.8,848.88c-1.68-.18-2.77-.95-2.59-2.21.33-2.23.48-4.92,2.93-5.88,1.71-.67,2.35,1.53,2.29,2.48A10.37,10.37,0,0,1,1328.8,848.88Z" transform="translate(-0.91 -0.91)"/><path class="cls-3" d="M1182.92,958.92a1.78,1.78,0,0,1-2.18,2c-2.42-.26-4-1.37-3.74-4.12.1-1.15,1-3,1.34-2.57C1179.61,956.11,1183,955.86,1182.92,958.92Z" transform="translate(-0.91 -0.91)"/><path class="cls-3" d="M1334.68,835.23a5.27,5.27,0,0,1-3.26,3.31c-1.67.45-3.14-.62-4.05-2.1a1.54,1.54,0,0,1,.44-2.17c.63-.45,1.77-1.13,2-.08C1330.76,838.55,1334.11,829.57,1334.68,835.23Z" transform="translate(-0.91 -0.91)"/><path class="cls-3" d="M1326.11,802.24c2.59,1.14,1.72,3.36,1.86,5.23-2.48-.51-3,2.17-4.69,2.84-.29.11-1.42-.8-1.39-1.16.17-1.57,1-3.88,2.27-3.69C1327.91,806,1325.25,803.13,1326.11,802.24Z" transform="translate(-0.91 -0.91)"/><path class="cls-3" d="M1418.19,975.53V954.2h.5V976Z" transform="translate(-0.91 -0.91)"/><path class="cls-3" d="M1341.07,824c-1.5.28-3.5-2.72-4.48.86-.1.36-1.51-.75-2-1.65-.68-1.31-.76-2.55.46-3.53a1.75,1.75,0,0,1,2.63.1C1338.87,821.11,1339.95,822.55,1341.07,824Z" transform="translate(-0.91 -0.91)"/><path class="cls-3" d="M1201.56,906.85c-2.09-.61-1.47-2.29-1.51-3.64s.54-2.32,2-1.94,1.94,1.6,1.83,3A2.5,2.5,0,0,1,1201.56,906.85Z" transform="translate(-0.91 -0.91)"/><path class="cls-3" d="M1108.92,946c.25-3.15,1.45-5,4.26-4.88,2.13.06,2.43,3.18.37,3.36A16.77,16.77,0,0,0,1108.92,946Z" transform="translate(-0.91 -0.91)"/><path class="cls-3" d="M1305.45,874.46c2.41-5,4.49-5.18,7.41-.88A15.63,15.63,0,0,0,1305.45,874.46Z" transform="translate(-0.91 -0.91)"/><path class="cls-3" d="M1419.43,945.8c1.73,1.34,2.64,2.83,1.4,4.58a2.05,2.05,0,0,1-3.37.2c-.35-.35-1.46,0-1.12-1,.13-.39.79-1,1-.92C1422.26,950.52,1418,946.56,1419.43,945.8Z" transform="translate(-0.91 -0.91)"/><path class="cls-3" d="M1166.9,961.91c-.89-.09-2.28.54-2.09-1.11.15-1.33,1.25-1.83,2.56-1.78,1,0,2.29-.08,2.37,1.17C1169.89,962.3,1167.7,961.09,1166.9,961.91Z" transform="translate(-0.91 -0.91)"/><path class="cls-3" d="M1386.75,946a2,2,0,0,1-2,1.36c-1.22.08-1.66-.88-1.56-1.93.12-1.26,1.15-1.42,2.16-1.33S1386.86,944.62,1386.75,946Z" transform="translate(-0.91 -0.91)"/><path class="cls-3" d="M1214,884c-.21,1.84-1.63,2.63-3.15,3.71-1.12-1.86,1.1-2.54,1.11-3.82l-.08,0Z" transform="translate(-0.91 -0.91)"/><path class="cls-3" d="M1208.26,938.36c.81.3,1.47.76,1.41,1.72,0,.69-.48,1.35-1.19,1.28a1.55,1.55,0,0,1-1.35-1.74C1207.15,938.93,1207.42,938.37,1208.26,938.36Z" transform="translate(-0.91 -0.91)"/><path class="cls-3" d="M1420.8,938.09v6.33C1419.42,942,1420.39,940.09,1420.8,938.09Z" transform="translate(-0.91 -0.91)"/><path class="cls-3" d="M1134.83,923.9c2.14,3.6-1.75,2-2.86,3.53.22-2.4,2.65-2,3-3.56Z" transform="translate(-0.91 -0.91)"/><path class="cls-3" d="M1330.31,814.74c-.79.09-1.48-.22-1.57-.87-.14-1,.89-1.28,1.58-1.29a1.81,1.81,0,0,1,1.41,1C1332,814.73,1330.67,814.24,1330.31,814.74Z" transform="translate(-0.91 -0.91)"/><path class="cls-3" d="M1268.39,903.14c.71,0,1.32.3,1.27,1.08a1.13,1.13,0,0,1-1.27,1.12,1.52,1.52,0,0,1-1-.93C1267.19,903.69,1267.6,903.22,1268.39,903.14Z" transform="translate(-0.91 -0.91)"/><path class="cls-3" d="M1134.13,978.25a7.73,7.73,0,0,1-1.55.62c-.51.1-1.12-.25-.75-.81a2.86,2.86,0,0,1,1.58-.93C1133.91,977,1134.38,977.27,1134.13,978.25Z" transform="translate(-0.91 -0.91)"/><path class="cls-3" d="M1175.21,965.12c-3.15-2.71.41-1.75,1.09-2.88.52,1.85-1.21,1.87-1.19,2.91Z" transform="translate(-0.91 -0.91)"/><path class="cls-3" d="M1334.3,847c-.41.2-.82.57-1.22.57a.6.6,0,0,1-.51-1c.25-.3.85-.36,1.3-.41C1334,846.19,1334.11,846.66,1334.3,847Z" transform="translate(-0.91 -0.91)"/><path class="cls-3" d="M1309.28,797.13,1311,801c-1-.11-1.86-.45-1.92-1.65C1309.06,798.9,1309.15,798.45,1309.28,797.13Z" transform="translate(-0.91 -0.91)"/><path class="cls-3" d="M1249,916.36c.09-1.71.53-2.77,2.17-3.16C1251.35,915,1249.8,915.22,1249,916.36Z" transform="translate(-0.91 -0.91)"/><path class="cls-6" d="M859.86,1190.93q-8.47,5.71-16.94,11.42c-1.45,1-2.84,2.66-4.66.45s0-3.26,1.28-4.54c18.17-18.83,32.13-40.3,40.77-65.09a98.79,98.79,0,0,0,2.77-9.6c1.48-6.19-.26-9.3-6.17-11.71-1.49-.6-4-.33-3.19-3.31s3-1.59,4.47-1.44c10.36,1.09,20.41,3.3,28.92,9.82,5,3.84,4.93,5.59.12,9.41-4.27,3.39-5.22,8.59-8,13.63,14-.65,27.07-1.8,39.94-4.48,3.55-.74,4.82-4.38,6.9-6.88,1.44-1.74,2.42-2.22,4.33-.55,5.5,4.84,11.27,9.37,16.74,14.25,5,4.42,4.32,7.81-1.94,9.45-3.45.91-4.26,3.22-5.28,5.88-7.46,19.47-15.56,38.66-28.34,55.37-18.25,23.84-43,37.75-71.39,45.87-4,1.14-8,2.21-12.1,3-1.53.29-3.77,2.25-4.71-1.32-.8-3,1.16-3.33,3-4.06a161.74,161.74,0,0,0,26.43-12.88c26.86-16.82,45.94-40.16,58.24-69.2a160.68,160.68,0,0,0,8.44-24.47c-6.3.71-12.21,1.32-18.1,2.05a185.67,185.67,0,0,1-25.44,1.08c-2.13,0-3.82.28-5,2.38-4.2,7.41-9.67,13.92-14.94,20.57a8.24,8.24,0,0,1-3.09,2.95,29.22,29.22,0,0,0-6,5.82C865.64,1188.07,862.87,1189.64,859.86,1190.93Z" transform="translate(-0.91 -0.91)"/><path class="cls-12" d="M859.86,1190.93l7-6.15c2.42,4.35-3.15,4.2-4,6.92C862.31,1193.53,861,1190.91,859.86,1190.93Z" transform="translate(-0.91 -0.91)"/><path class="cls-12" d="M872.92,1179,876,1176C875.88,1178,874.93,1179,872.92,1179Z" transform="translate(-0.91 -0.91)"/><path class="cls-1" d="M623.26,1182.12a10.14,10.14,0,0,1-4.27,4.69,21.14,21.14,0,0,1,1.15-8.29Z" transform="translate(-0.91 -0.91)"/><path class="cls-6" d="M623.26,1182.12a171.86,171.86,0,0,0,33.59-61.26c2.07-6.66.89-8.63-5.16-12.25-1.17-.7-3.2-.77-2.71-2.94.53-2.37,2.52-1.86,4.07-1.74,10.27.82,20.11,3,28.21,9.94,4.74,4.07,4.57,5.42-.33,9.26-3.29,2.58-4,6.74-6.53,10.61,9.26,1,17.74-.14,26.22-1,2-.19,3.95-.62,5.94-.8,5-.45,9.36-1.92,12.06-6.61,1.53-2.65,3.09-3.21,5.68-.62,5.41,5.41,11.3,10.34,16.84,15.62,4.61,4.4,4,6.94-2.09,8.36-2.64.62-3.42,2.21-4.32,4.21-5,11.08-8.61,22.75-14.53,33.42-23.5,42.37-58.82,67.86-107,75-1.68.25-3.47,1.47-4.29-1.48s1.42-2.9,3-3.4a147,147,0,0,0,67.42-44.67c2-2.32,4.83-4.27-.7-5.85-2.21-.63-3.27-3.17-4.56-5.13a106.06,106.06,0,0,0-22.89-25.54c-2.56-2-4.28-2.43-7,.3-8.72,8.72-18,16.78-28.69,23.16-3.25,1.95-4.72,1.21-5.42-2.71a9,9,0,0,1,5-5l1-1a3.34,3.34,0,0,1,1.85-2l1.14-1.16C620.58,1185.4,621,1182.92,623.26,1182.12Z" transform="translate(-0.91 -0.91)"/><path class="cls-1" d="M615,1191a10,10,0,0,1-5,5C610.19,1191.7,612,1189.86,615,1191Z" transform="translate(-0.91 -0.91)"/><path class="cls-1" d="M617.85,1188c-.07,1.17-.55,2-1.85,2-.21-.84-1.32-1.72-.27-2.47C616.11,1187.21,617.12,1187.79,617.85,1188Z" transform="translate(-0.91 -0.91)"/><path class="cls-6" d="M1134.45,1126.1c12.58,11.08,10.85,25,7.54,39.08-5.68,24.11-14.51,47-27.4,68.26a40.11,40.11,0,0,1-4.15,5.61c-6.8,7.74-12.35,8.68-20.94,2.91-14.75-9.91-22.62-24.13-24.41-41.63-4.06-39.68,21.27-74.54,60.21-81.94,24-4.56,46.6-1.25,65.38,16,12.84,11.8,18.41,27.13,19.41,44.16.95,16.28-1.23,32-11,45.74-11.13,15.7-27.41,22.69-45.53,26.34-5.05,1-10.19,1.66-15.31,2.24-1.5.17-3.66,1.48-4.36-1.58-.64-2.8,1-3.43,3-4.1,8.57-2.77,16.93-6,24.6-10.87,28.91-18.29,39.39-60.37,22-88.49C1173.54,1131.71,1152.79,1122.51,1134.45,1126.1Z" transform="translate(-0.91 -0.91)"/><path class="cls-13" d="M1603.49,1165c4.05,0,7.82.06,11.6,0,2.3-.05,2.75,1.21,2.77,3.14.07,9.3.17,18.6.33,27.9,0,2.41-1.07,3.19-3.33,3.15-4.65-.08-9.3,0-14,0-.81,0-2.06,0-2.36-.41-2.63-4.07-.9-8.64-1.24-13-.19-2.41,1.51-3.41,3.76-3.78,3.38-.56,6.6-2.13,10.2-.94,1.14.38,2.79.53,3.56-.93s-.13-2.83-1.18-4C1610.4,1172.58,1607.19,1169,1603.49,1165Z" transform="translate(-0.91 -0.91)"/><path class="cls-14" d="M1648,1206.93c-2.32,4.49-2.81,9.9-7.07,13.81a18.28,18.28,0,0,1-3-9.61c-.17-2.13-1.59-5.18.63-6.07a13.54,13.54,0,0,1,9.51.17C1648.72,1205.45,1648.44,1206.37,1648,1206.93Z" transform="translate(-0.91 -0.91)"/><path class="cls-2" d="M1648,1206.93c-2.35-2.82-5.39-2-8.25-1.39-3.64.75-.12,4.05-1.8,5.58-.81-2.2-2.6-5.53-.26-6.43a14.49,14.49,0,0,1,10.92.26C1649.32,1205.28,1648.77,1206.42,1648,1206.93Z" transform="translate(-0.91 -0.91)"/><path class="cls-1" d="M652.58,1167.37c5.32-6.41,10-12.45,13.59-19.2.83-1.55,2.18-1.25,3.48-1.2a211.11,211.11,0,0,0,41.78-2.58c2.41-.39,2.87.2,2.33,2.56-2.44,10.64-13.62,35.07-20.73,44.81C684.25,1176.37,669.36,1171.06,652.58,1167.37Z" transform="translate(-0.91 -0.91)"/><path class="cls-1" d="M1080.74,1191c.2-30.91,16.21-53.5,40.67-62.32,4.55-1.64,6.49-.55,8.07,3.85,2.07,5.78,1.82,11.41.5,17.17a251.89,251.89,0,0,1-25.29,66.44c-4.12,7.39-8.16,7.92-13.79,1.44A42.86,42.86,0,0,1,1080.74,1191Z" transform="translate(-0.91 -0.91)"/></svg>