<svg id="レイヤー_1" data-name="レイヤー 1" xmlns="http://www.w3.org/2000/svg" viewBox="0 0 426.2 426.2"><defs><style>.cls-1{fill:#f7b249;stroke:#f7b249;stroke-miterlimit:10;}.cls-2,.cls-3{fill:#cea464;}.cls-3{font-size:25px;font-family:KozGoPr6N-Regular-90ms-RKSJ-H, Kozuka Gothic Pr6N;}.cls-4{font-family:dejima-mincho, Dejima;}.cls-5{fill:none;stroke:#e4007f;}.cls-6{fill:#231815;}</style></defs><title>歌気</title><rect class="cls-1" x="0.5" y="0.5" width="425.2" height="425.2"/><path class="cls-2" d="M48.11,107.71H128q4.14-5.84,8.67-7.54,4.52,1.7,11.68,11.49,1.13,2.45-.47,4a6.19,6.19,0,0,1-4.43,1.51H131.95V175q0,8.29-3,12.44h.75q4.14-5.84,8.67-7.54,4.52,1.69,11.68,11.49,1.13,2.45-.47,4a6.2,6.2,0,0,1-4.43,1.51H131.95v62.92q0,16.77-12.43,20.35a3.09,3.09,0,0,1-3.39-.94,21.68,21.68,0,0,1-2.73-4.24,11.21,11.21,0,0,0-2.92-3.86q-2.64-2.08-5-3.58t-5.56-3.39q-3.21-1.89-5.28-3.2H115V196.82H48.11V187.4h67.45a17.48,17.48,0,0,0-3.39-5.09,56.6,56.6,0,0,0-5.93-4.62q-3.67-2.54-5.37-3.86H115V117.13H48.11Zm25.62,21.48H89.56a14.29,14.29,0,0,0,2.35-2.73,13.85,13.85,0,0,1,2.64-2.92,3.37,3.37,0,0,1,2.92-.56q7.91,2.26,13,11.87a1.86,1.86,0,0,1,0,2,8.19,8.19,0,0,1-2,1.88,9.8,9.8,0,0,0-2,1.79v22a45.6,45.6,0,0,1-1.6,5.18,9.51,9.51,0,0,1-2.35,3.2A7,7,0,0,1,98,172.71q-3.39-.37-5.84-4.14H73.55a14.72,14.72,0,0,1-2.73,5.37,7.54,7.54,0,0,1-5,2.17q-5.09-.37-8.48-10.17V123.16A51.76,51.76,0,0,1,73.73,129.19ZM72.6,206.06H89a14.29,14.29,0,0,0,2.35-2.73A13.85,13.85,0,0,1,94,200.4a3.37,3.37,0,0,1,2.92-.57q7.91,2.26,13,11.87a1.86,1.86,0,0,1,0,2,8.17,8.17,0,0,1-2,1.88,9.83,9.83,0,0,0-2,1.79V241.1a45.77,45.77,0,0,1-1.6,5.18,9.56,9.56,0,0,1-2.35,3.2,7.05,7.05,0,0,1-4.52,1.79q-3.77-.38-6.22-4.71H74.86V249a46.13,46.13,0,0,1-1.6,5.18,9.57,9.57,0,0,1-2.35,3.2,7.05,7.05,0,0,1-4.52,1.79Q61.3,258.8,57.91,249V201A58,58,0,0,1,72.6,206.06Zm4-67.45a12.73,12.73,0,0,0-2.26,3.2v17.33H89.56V138.61Zm1.32,76.87a29.51,29.51,0,0,0-3,4.14v17.52H89V215.48Zm81.2-110q12.43,1.7,18.65,6.41c.5.75.66,1.32.47,1.7a11.52,11.52,0,0,1-1.41,1.88,8.72,8.72,0,0,0-1.51,2.26q-1.51,4.15-3.86,10.93t-3.67,10.17h40.13a16.45,16.45,0,0,0,3.2-2.64,15.22,15.22,0,0,1,3.49-2.73,4.45,4.45,0,0,1,3.48-.28,18.05,18.05,0,0,1,7.82,4.52,36,36,0,0,1,5.75,8.48,1,1,0,0,1-.19,1.51,11.8,11.8,0,0,1-2.26,1.22,7.12,7.12,0,0,0-2.07,1.22,110.13,110.13,0,0,0-9.61,11.3,110.27,110.27,0,0,1-9.61,11.3V148.22H190.17v46.72a225.91,225.91,0,0,0,8.48,24.68Q207.12,239,216,250.71a71.72,71.72,0,0,0,5.94,6.78q3.67,3.77,6.31,6.22l2.45,2.26-12.43,6.78a3.69,3.69,0,0,0-1.7,2.35c-.37,1.19-.63,2-.75,2.36s-.63.31-1.51-.19q-7.54-7.54-16.39-24.3-5.47-10.36-11.3-32.22l-.38-1.32a102.67,102.67,0,0,1-4.52,12.62,81.82,81.82,0,0,1-19.22,28.26,61.39,61.39,0,0,1-11.59,9.14,79.86,79.86,0,0,1-14.41,6.12q6.22-7.16,9.23-11t6.69-9.42a102.36,102.36,0,0,0,6.69-11.78,146.71,146.71,0,0,0,10.17-28.73,119.1,119.1,0,0,0,4-28.35V148.22h-9.42l-.19.56a92.52,92.52,0,0,1-10.36,17.71,74,74,0,0,1-12.06,13.38q5.65-16.2,8.85-29.39,1.88-7,6.22-30.14Z" transform="translate(0.5 0.5)"/><path class="cls-2" d="M275.59,138.42q11.72,2.67,16.47,8a1.13,1.13,0,0,1-.07,1.71,12,12,0,0,1-2.52,1.78,6.74,6.74,0,0,0-2.3,1.85q-2.37,3.41-5.34,8.46h61.42a36.2,36.2,0,0,0,4.45-5.49q2.82-4,4.9-4.75a6.57,6.57,0,0,1,2.45,1,20.53,20.53,0,0,1,3.12,2.52q1.71,1.63,3,3t3.26,3.56q1.93,2.15,2.82,3.19a2.43,2.43,0,0,1-.45,3.12,5.15,5.15,0,0,1-3.56,1.19H277.23l-3,4.15a181.69,181.69,0,0,1-19.14,21.37A74.64,74.64,0,0,1,240,203.85q10.24-15.28,12-18.25,5-8.31,11-19.59,3.86-7.57,9.05-18.69Zm57,90.8v-22.4H316.1q8.16,4,11.28,8a1.94,1.94,0,0,1,.22,1.48,6.46,6.46,0,0,1-1.26,1.41,8.42,8.42,0,0,0-1.48,1.71q-2.37,2.37-8.53,9.27t-10.16,10.61a74,74,0,0,1,8.16,6.38,30.5,30.5,0,0,1,9.35,14.69,4.32,4.32,0,0,1-.52,3.71,4.24,4.24,0,0,1-3,2.08,4.08,4.08,0,0,0-1.63.22,2.07,2.07,0,0,1-1.48-.15c-.69-.25-1.14-.4-1.33-.45a6.51,6.51,0,0,1-1.26-.67,10.84,10.84,0,0,0-1.34-.74,8.53,8.53,0,0,1-1.33-.82l-1.41-1a32.84,32.84,0,0,1-5.79-5.19q-3.11-3.41-4.45-4.6l-4.45-4a169.86,169.86,0,0,1-26,19,71,71,0,0,1-12.31,5.79,149.87,149.87,0,0,1-14.84,4q16.91-11.87,26.71-20a213.5,213.5,0,0,0,17.51-16.47l-4.45-3.86-23.59-18.69a205.44,205.44,0,0,1,31.16,12l4.3,2.08,11.13-13.2A149.71,149.71,0,0,0,314,206.82H261.35V199.4h71.22a11.29,11.29,0,0,0,1.85-2.15,10.92,10.92,0,0,1,2.08-2.3,2.66,2.66,0,0,1,2.3-.45q6.23,1.78,10.24,9.35a1.47,1.47,0,0,1,0,1.56,6.44,6.44,0,0,1-1.56,1.48,7.72,7.72,0,0,0-1.56,1.41v20a68.76,68.76,0,0,0,3.56,20.92q.44,1.34.89,2.37a12.8,12.8,0,0,0,1.34,2.3q.89,1.26,1.11,1.63a23.87,23.87,0,0,0,1.63,2q1.41,1.63,1.71,1.93a11.44,11.44,0,0,0,2.08,1.86,27.63,27.63,0,0,0,2.38,1.56l.89.59q1.78-5.49,3.12-8.9l6.68-17.36q0,1.19-.37,14.24t.37,14.24a10.33,10.33,0,0,0,2,4.53,7.09,7.09,0,0,1,1.56,4.82q-.44,3.86-5.34,4.45-7.87,1-15.58-4.45-10.09-7.27-13.8-15.13Q332.57,243.77,332.57,229.22ZM274.26,180h57a36.15,36.15,0,0,0,4.45-5.49q2.82-4,4.9-4.75a6.59,6.59,0,0,1,2.45,1,20.5,20.5,0,0,1,3.12,2.52q1.71,1.63,3,3t3.26,3.56q1.92,2.15,2.82,3.19a2.43,2.43,0,0,1-.45,3.12,5.15,5.15,0,0,1-3.56,1.19h-77Z" transform="translate(0.5 0.5)"/><line class="cls-2" x1="12.74" y1="86.17" x2="413.99" y2="86.17"/><path class="cls-2" d="M12.24,85.67l4.51-.11,12.73-.28c11-.17,26.65-.53,45.45-.76l30.37-.34,33.89-.27,36.25-.17,37.42-.07,37.42.07,36.25.17,33.89.27,30.37.34c9.4.1,18,.26,25.67.4l19.79.36,12.73.28,4.51.11-4.51.11-12.73.28-19.79.36c-7.64.14-16.26.3-25.67.4l-30.37.34-33.89.27-36.25.17-37.42.07-37.42-.07-36.25-.17-33.89-.27-30.37-.34c-18.81-.23-34.48-.58-45.45-.76l-12.73-.28Z" transform="translate(0.5 0.5)"/><line class="cls-2" x1="12.74" y1="299.26" x2="413.99" y2="299.26"/><path class="cls-2" d="M12.24,298.76l4.51-.11,12.73-.28c11-.17,26.65-.53,45.45-.76l30.37-.34L139.2,297l36.25-.17,37.42-.07,37.42.07,36.25.17,33.89.27,30.37.34c9.4.1,18,.26,25.67.4l19.79.36,12.73.28,4.51.11-4.51.11-12.73.28-19.79.36c-7.64.14-16.26.3-25.67.4l-30.37.34-33.89.27-36.25.17-37.42.07-37.42-.07-36.25-.17-33.89-.27-30.37-.34c-18.81-.23-34.48-.58-45.45-.76l-12.73-.28Z" transform="translate(0.5 0.5)"/><text class="cls-3" transform="translate(138.1 332.5)">～<tspan class="cls-4" x="25" y="-2">歌の気配</tspan><tspan x="125" y="0">～</tspan></text><path class="cls-5" d="M199.76,189.6s-1.11-.76-2.8-2c-.84-.62-1.83-1.36-2.9-2.19s-2.46-1.95-4.14-3.1a37.12,37.12,0,0,0-6-3.42,26.43,26.43,0,0,0-3.75-1.35c-.64-.19-1.39-.33-2.05-.47s-1.23-.17-1.81-.24a21.87,21.87,0,0,0-5.54.22c-.66.11-1.17.27-1.52.34l-.54.13" transform="translate(0.5 0.5)"/><path class="cls-5" d="M197.38,193s-1.16-.79-2.9-2.07c-.87-.64-1.88-1.4-3-2.25s-2.42-1.91-4-3a33,33,0,0,0-5.29-3,22.24,22.24,0,0,0-3.16-1.14c-.53-.16-1.14-.27-1.68-.38s-1-.14-1.51-.2a17,17,0,0,0-4.62.23c-1.09.25-1.7.43-1.7.43" transform="translate(0.5 0.5)"/><path class="cls-5" d="M195,196.5s-1.21-.83-3-2.15c-.9-.66-1.94-1.45-3.05-2.31s-2.38-1.88-3.78-2.84a28.85,28.85,0,0,0-4.61-2.65,18.05,18.05,0,0,0-2.56-.93,14.49,14.49,0,0,0-2.52-.46,12.37,12.37,0,0,0-3.7.25c-.87.23-1.35.4-1.35.4" transform="translate(0.5 0.5)"/><path class="cls-5" d="M171.24,190s.36-.15,1-.36a8.09,8.09,0,0,1,2.79-.26c2.36.15,5.24,1.55,7.74,3.31,1.27.87,2.47,1.84,3.6,2.71s2.21,1.68,3.13,2.36c1.85,1.36,3.11,2.22,3.11,2.22" transform="translate(0.5 0.5)"/><path class="cls-5" d="M190.24,203.4s-1.32-.9-3.22-2.3c-1-.7-2-1.53-3.21-2.42s-2.29-1.81-3.43-2.58a20.64,20.64,0,0,0-3.24-1.88,9.71,9.71,0,0,0-1.38-.5,6.66,6.66,0,0,0-1.18-.21,5.37,5.37,0,0,0-1.88.18c-.43.15-.68.25-.68.25" transform="translate(0.5 0.5)"/><path class="cls-5" d="M217.23,197.81s-1.13-.21-2.72-.69a40.11,40.11,0,0,1-5.93-2.3,68.55,68.55,0,0,1-8.82-5.23" transform="translate(0.5 0.5)"/><path class="cls-5" d="M216.37,201.91s-1.26-.24-3-.77a44.33,44.33,0,0,1-6.56-2.54,64.1,64.1,0,0,1-6.47-3.62c-1.75-1.11-2.91-1.93-2.91-1.93" transform="translate(0.5 0.5)"/><path class="cls-5" d="M215.52,206l-.94-.21c-.59-.14-1.44-.34-2.44-.64a48.55,48.55,0,0,1-7.19-2.79,68.27,68.27,0,0,1-6.9-3.86c-1.85-1.17-3.05-2-3.05-2" transform="translate(0.5 0.5)"/><path class="cls-5" d="M192.62,200s1.25.88,3.19,2.11a72.43,72.43,0,0,0,7.33,4.1,52.78,52.78,0,0,0,7.83,3c1.1.34,2,.55,2.68.71l1,.23" transform="translate(0.5 0.5)"/><path class="cls-5" d="M213.81,214.23,212.7,214c-.71-.17-1.72-.4-2.92-.77a57,57,0,0,1-8.46-3.27,76.6,76.6,0,0,1-7.76-4.34c-2-1.29-3.33-2.2-3.33-2.2" transform="translate(0.5 0.5)"/><path class="cls-5" d="M238.84,199l-3.61,0c-2.29,0-5.22,0-8-.1a70.21,70.21,0,0,1-7.11-.57c-1.81-.25-2.92-.5-2.92-.5" transform="translate(0.5 0.5)"/><path class="cls-5" d="M238.91,203.15l-3.68,0c-2.29,0-5.27,0-8.12-.1a74.39,74.39,0,0,1-7.53-.61c-2-.27-3.2-.55-3.2-.55" transform="translate(0.5 0.5)"/><path class="cls-5" d="M239,207.34l-3.76,0c-2.3,0-5.32,0-8.27-.1a78.59,78.59,0,0,1-8-.64c-2.12-.3-3.48-.59-3.48-.59" transform="translate(0.5 0.5)"/><path class="cls-5" d="M214.66,210.12s1.49.33,3.76.64a82.79,82.79,0,0,0,8.38.68c3.06.11,6.12.1,8.42.1l3.83,0" transform="translate(0.5 0.5)"/><path class="cls-5" d="M239.13,215.72l-3.9,0c-2.3,0-5.41,0-8.57-.11a87,87,0,0,1-8.8-.72c-2.42-.34-4-.69-4-.69" transform="translate(0.5 0.5)"/><path class="cls-5" d="M256.68,193.28l-3.6,1.78a56.7,56.7,0,0,1-6.17,2.82,15.22,15.22,0,0,1-2.4.63,25,25,0,0,1-2.59.32c-.85.06-1.62.1-2.19.11l-.9,0" transform="translate(0.5 0.5)"/><path class="cls-5" d="M258.51,197,255,198.8a60,60,0,0,1-6.67,3,19.47,19.47,0,0,1-3,.8,29.14,29.14,0,0,1-3,.37c-.95.07-1.78.1-2.38.12l-1,0" transform="translate(0.5 0.5)"/><path class="cls-5" d="M260.34,200.82l-3.49,1.73a63.46,63.46,0,0,1-7.16,3.24,23.73,23.73,0,0,1-3.68,1,33.28,33.28,0,0,1-3.45.43c-2.09.15-3.57.15-3.57.15" transform="translate(0.5 0.5)"/><path class="cls-5" d="M239.06,211.53s1.53,0,3.82-.17a31.33,31.33,0,0,0,8.2-1.62,67,67,0,0,0,7.66-3.45l3.44-1.7" transform="translate(0.5 0.5)"/><path class="cls-5" d="M264,208.36,260.61,210a70.6,70.6,0,0,1-8.16,3.66,32.25,32.25,0,0,1-5,1.31,41.57,41.57,0,0,1-4.31.54c-1.24.09-2.26.13-3,.15l-1.1,0" transform="translate(0.5 0.5)"/><path class="cls-5" d="M282.1,183.7l-1.19.29-3.08.86c-2.51.76-5.83,1.83-9,3.08s-6.23,2.56-8.46,3.6l-3.7,1.75" transform="translate(0.5 0.5)"/><path class="cls-5" d="M283.1,187.77,282,188l-2.95.82c-2.41.73-5.6,1.76-8.65,3s-6,2.48-8.23,3.5L258.51,197" transform="translate(0.5 0.5)"/><path class="cls-5" d="M284.09,191.84l-1.08.26-2.82.78c-2.31.7-5.36,1.68-8.31,2.86s-5.86,2.41-8,3.41l-3.55,1.67" transform="translate(0.5 0.5)"/><path class="cls-5" d="M262.17,204.59l3.47-1.63c2.08-1,4.91-2.19,7.76-3.31s5.78-2.08,8-2.74l2.68-.75,1-.25" transform="translate(0.5 0.5)"/><path class="cls-5" d="M286.09,200l-1,.24-2.55.71c-2.1.64-4.9,1.53-7.65,2.63s-5.49,2.26-7.53,3.21l-3.39,1.6" transform="translate(0.5 0.5)"/><path class="cls-5" d="M311.59,182.4l-1.25-.23c-.81-.12-2-.24-3.4-.4l-2.28-.24-2.57-.11c-.9-.05-1.81,0-2.74,0s-1.88,0-2.81.09a74.1,74.1,0,0,0-10.06,1.24c-2.67.51-4.39,1-4.39,1" transform="translate(0.5 0.5)"/><path class="cls-5" d="M310.89,186.53l-1.18-.22c-.76-.11-1.87-.22-3.19-.37l-2.14-.23-2.41-.1c-.84,0-1.69,0-2.57,0s-1.76,0-2.64.08a69.91,69.91,0,0,0-9.5,1.17c-2.54.48-4.18.91-4.18.91" transform="translate(0.5 0.5)"/><path class="cls-5" d="M310.18,190.66l-1.11-.21c-.71-.1-1.75-.2-3-.34l-2-.21-2.24-.09c-.78,0-1.58,0-2.39,0s-1.64,0-2.46.08a65.71,65.71,0,0,0-8.94,1.1c-2.4.46-4,.87-4,.87" transform="translate(0.5 0.5)"/><path class="cls-5" d="M285.09,195.91s1.49-.39,3.75-.82a61.52,61.52,0,0,1,8.38-1c.77-.07,1.54-.06,2.29-.07s1.5,0,2.22,0l2.08.08,1.85.2c1.15.13,2.1.22,2.77.32l1,.2" transform="translate(0.5 0.5)"/><path class="cls-5" d="M308.76,198.93l-1-.18c-.62-.09-1.5-.17-2.56-.29l-1.71-.19-1.91-.08c-.66,0-1.35,0-2,0s-1.41,0-2.12.07A62,62,0,0,0,286.09,200" transform="translate(0.5 0.5)"/><path class="cls-5" d="M337.79,191l-3.7-1.61-3.93-1.61-4.69-1.74-4.9-1.58-4.47-1.17c-1.31-.34-2.48-.51-3.27-.67l-1.25-.23" transform="translate(0.5 0.5)"/><path class="cls-5" d="M336.1,194.84l-3.64-1.58-3.83-1.57L324.1,190l-4.7-1.51-4.25-1.11c-1.24-.32-2.35-.48-3.09-.63l-1.18-.22" transform="translate(0.5 0.5)"/><path class="cls-5" d="M334.41,198.68l-3.58-1.55-3.74-1.53L322.72,194l-4.5-1.45-4-1.05c-1.18-.31-2.21-.45-2.91-.6l-1.11-.21" transform="translate(0.5 0.5)"/><path class="cls-5" d="M309.47,194.8l1,.2c.66.14,1.61.26,2.73.56l3.81,1,4.29,1.38,4.23,1.57L329.2,201l3.52,1.53" transform="translate(0.5 0.5)"/><path class="cls-5" d="M331,206.35l-3.46-1.5L324,203.4,320,201.88l-4.09-1.32-3.59-.94c-1.05-.28-1.93-.39-2.55-.52l-1-.18" transform="translate(0.5 0.5)"/><path class="cls-5" d="M359.48,200.35l-.87-.3-2.34-.91c-1-.36-2.11-.84-3.35-1.37L351,197l-2-.9-7.61-3.44-2.59-1.17-1-.44" transform="translate(0.5 0.5)"/><path class="cls-5" d="M358.06,204.29l-.91-.32-2.42-.94c-1-.37-2.18-.87-3.44-1.41s-2.62-1.11-4-1.73l-7.63-3.45-2.57-1.16-1-.44" transform="translate(0.5 0.5)"/><path class="cls-5" d="M356.65,208.24l-1-.33-2.5-1c-1-.39-2.24-.9-3.54-1.45s-2.67-1.14-4.06-1.76l-7.66-3.46-2.55-1.15-1-.43" transform="translate(0.5 0.5)"/><path class="cls-5" d="M332.72,202.51s1.41.61,3.5,1.57l7.68,3.47c1.4.63,2.8,1.24,4.13,1.79s2.55,1.08,3.63,1.49l2.58,1,1,.35" transform="translate(0.5 0.5)"/><path class="cls-5" d="M353.82,216.13l-1-.36-2.67-1c-1.11-.42-2.38-.95-3.72-1.53s-2.79-1.19-4.19-1.82l-7.7-3.48L332,206.76l-1-.41" transform="translate(0.5 0.5)"/><path class="cls-5" d="M378.16,203.83a21.41,21.41,0,0,1-2.5.06c-.79,0-1.75-.07-2.83-.21l-3.48-.53-3.56-.81-3.17-.92-3.15-1.08" transform="translate(0.5 0.5)"/><path class="cls-5" d="M378.48,208a25.53,25.53,0,0,1-2.93.07c-.91,0-2-.09-3.19-.23l-3.8-.58c-1.3-.31-2.6-.57-3.83-.87l-3.37-1-3.31-1.13" transform="translate(0.5 0.5)"/><path class="cls-5" d="M378.81,212.19a29.66,29.66,0,0,1-3.37.08c-1,0-2.24-.1-3.54-.26l-4.12-.63c-1.4-.32-2.8-.61-4.1-.93l-3.57-1-3.46-1.18" transform="translate(0.5 0.5)"/><path class="cls-5" d="M355.23,212.18l3.62,1.23,3.76,1.09c1.39.34,2.89.66,4.38,1s3,.46,4.44.68,2.76.25,3.9.28a33.79,33.79,0,0,0,3.81-.09" transform="translate(0.5 0.5)"/><path class="cls-5" d="M379.47,220.55a37.92,37.92,0,0,1-4.25.1c-1.26,0-2.72-.12-4.26-.31s-3.15-.45-4.76-.73-3.18-.69-4.65-1.06l-4-1.15-3.78-1.29" transform="translate(0.5 0.5)"/><path class="cls-5" d="M391.56,195.86l-.72.67-1.9,1.72a36.18,36.18,0,0,1-4.86,3.78,11.66,11.66,0,0,1-1.94,1,11.51,11.51,0,0,1-1.82.53,16.44,16.44,0,0,1-2.16.3" transform="translate(0.5 0.5)"/><path class="cls-5" d="M394.41,198.93s-1.08,1-2.69,2.45a40,40,0,0,1-5.45,4.22,15.85,15.85,0,0,1-2.63,1.32,15.68,15.68,0,0,1-2.46.71,20,20,0,0,1-2.7.38" transform="translate(0.5 0.5)"/><path class="cls-5" d="M397.26,202s-1.1,1-2.76,2.51a44,44,0,0,1-6.05,4.67,19.5,19.5,0,0,1-6.41,2.56,23.54,23.54,0,0,1-3.23.46" transform="translate(0.5 0.5)"/><path class="cls-5" d="M379.14,216.37s.38,0,1-.1,1.61-.2,2.73-.43a23.78,23.78,0,0,0,7.73-3.08,47.89,47.89,0,0,0,6.65-5.11c1.71-1.53,2.83-2.58,2.83-2.58" transform="translate(0.5 0.5)"/><path class="cls-5" d="M403,208.13s-1.14,1.07-2.9,2.64a51.87,51.87,0,0,1-7.25,5.55,27.74,27.74,0,0,1-9.06,3.61c-1.29.26-2.37.42-3.12.5s-1.18.11-1.18.11" transform="translate(0.5 0.5)"/><path class="cls-5" d="M407.16,179.25s-3.6,4.42-7.52,8.56-8.08,8-8.08,8" transform="translate(0.5 0.5)"/><path class="cls-5" d="M410.4,181.91s-3.69,4.53-7.71,8.78-8.28,8.24-8.28,8.24" transform="translate(0.5 0.5)"/><path class="cls-5" d="M413.64,184.57s-3.78,4.64-7.9,9-8.48,8.44-8.48,8.44" transform="translate(0.5 0.5)"/><path class="cls-5" d="M400.12,205.07s4.5-4.16,8.68-8.64,8.08-9.2,8.08-9.2" transform="translate(0.5 0.5)"/><path class="cls-5" d="M420.12,189.89s-4,4.86-8.27,9.41-8.88,8.84-8.88,8.84" transform="translate(0.5 0.5)"/><path class="cls-6" d="M246.29,136.21l2.1,9.91-8.17,2.27c1.64,7.8,2.85,14.26,3.74,19.43,3.54,20.42.11,34.14-25,38.49-27.07,4.69-33.49-9.33-36.42-26.24-1.2-6.93-3.68-41.68-4.54-47.72l-8.59,1.49L167.9,122.5,194.46,117,196,129l-7.88,1.75c.79,5.1,3.13,38,4.06,43.33,2.43,14,6.86,24.79,25.06,21.64,19-3.29,20.14-13.38,16.89-32.14-.67-3.88-1.47-8.5-2.47-13.75l-8.31,1.44L221,140.6Z" transform="translate(0.5 0.5)"/><path class="cls-6" d="M257.62,199.56l.79-7.47,8,1.43L267.93,166l-12.37-1.37-1.13,9.24-5.53-.31,2.55-15.81,41.69,2.33-2,17.13-5.22-.29.52-9.27L273.78,166l-1.52,27.2,7.12.4-.47,8.35Z" transform="translate(0.5 0.5)"/><path class="cls-6" d="M299.69,147.63l16,.59,12.07,33.35,5.77.21-.83,7.1-15.38-.57.26-7,3.84.31-3-9.51-16.53,0-2.56,6.3,3.85.14-.49,7.12-14.48-.54.25-6.84,4.74.35,10.14-24.49-3.85-.14Zm3.12,19.65,13.08,0-4.82-11.9-2.77-.22Z" transform="translate(0.5 0.5)"/><path class="cls-6" d="M349.5,187.24l19.95-3,1.25,7.85c.49,3.24,1.69,5.3,3.79,6.65l-.13,2.81c-3.07.23-5.94-2.21-6.8-6.28-1.57,5.55-5.52,8.76-13.51,9.49-10.82,1-16.6-2.59-17.9-16.8-.95-10.39,3.36-16.57,14.89-17.63,9.14-.84,12,1.75,13.93,5.58l-.63-6.84,5.37.09L369.34,182l-3.92-.08c-1.54-3.14-6-7.61-13.85-6.89s-11.58,4.82-11,10.76c.82,9,4.68,13.13,13,12.38,8.62-.79,11.56-3.42,12.61-8.34l-15.66,1.91Z" transform="translate(0.5 0.5)"/><path class="cls-6" d="M370,183.33l1.43-6.59,5.65,1.37,3.11-24.9-5.52-.69.7-5.57,39.86,5-2,15.62-5.19-.65,1.74-8.16-23.55-4.11-1.13,9.06,10.76,1.79,1.3-6.38,3.75.64L398.8,177l-3.88-.49.26-6.07-11.68-2-1.27,10.16,23,2.88,1.58-7.73,5.41.68-2,15.83Z" transform="translate(0.5 0.5)"/><path class="cls-6" d="M177.75,248.36c0-7.09,3.64-8.72,7.71-8.72,5.62,0,9.11.89,9.11,8.33,0,8.18-3.91,8.91-9,8.91C181,256.88,177.75,256.18,177.75,248.36Zm13.33-.85c0-4.19-2.13-4.34-4.69-4.34-3.1,0-4.42,1.51-4.42,5,0,3.72,1,4.69,4.77,4.69C190.23,252.89,191.08,251.84,191.08,247.5Zm21.86,5.62c0-7.79-.35-8.1-4.57-8.1-4,0-4.57,2.95-4.57,9.42H207l.16,3.06H196.35v-3.91l4,.35.47-10h-3.64l.27-3.45h5.93v4.07c1.12-2.56,3.57-3.53,6.24-3.53,6.08,0,7.36,2.91,7.36,7.36a31.74,31.74,0,0,1-.39,5.27h3.18l-.35,3.33-10-.46.12-3.3Z" transform="translate(0.5 0.5)"/><path class="cls-6" d="M258,228.44l-.35,8.53-2.56.27c-1.86-3.29-3.72-5-8.57-5-5.47,0-8.45,1.43-8.45,3.37,0,2.52,4.38,2.75,11.32,3,4.73.16,9.61,1.24,9.61,9.11,0,5.5-3.68,8.6-12.13,8.6-3.8,0-6.9-1.24-8.76-5.23v4.85l-3.06-.12v-9.84l3,.31c1.36,3.68,4.22,5.74,9,5.74,4.57,0,8.6-2.17,8.6-5,0-3.18-1.82-3.18-8.57-3.22-7,0-12.29-.62-12.29-8.06,0-5.31,5.19-7.4,12.75-7.4,3.18,0,5.62.78,7.25,4l-.54-4Zm8.84,29.73.31-5.15,4.73.5V236.22h-7.71v7.09h-3.41V231.73h25.66V242.5h-3.91l.39-5.54h-7.13v15.81l5.54-.19-.23,4.81Z" transform="translate(0.5 0.5)"/><path class="cls-6" d="M296.43,230.22h11l9.11,22.52h4l-.39,4.88H309.53v-4.77l2.64.12-2.33-6.43-11.32.39-1.59,4.38h2.64l-.16,4.88H289.5v-4.69l3.26.12,6.32-17h-2.63Zm2.63,13.37,9-.35-3.6-8-1.9-.08Z" transform="translate(0.5 0.5)"/><path class="cls-6" d="M333.83,243.59l16.24-.93.43,6.39c.15,2.63,1,4.38,2.56,5.62l-.31,2.25c-2.48,0-4.61-2.21-5-5.54-1.67,4.34-5.08,6.63-11.55,6.63-8.76,0-13.14-3.29-13.14-14.8,0-8.41,3.91-13.06,13.25-13.06,7.4,0,9.49,2.29,10.77,5.5V230.1l4.3.46-1.24,10.27-3.14-.35c-1-2.63-4.26-6.55-10.62-6.55s-9.65,3-9.65,7.83c0,7.29,2.79,10.89,9.49,10.89,7,0,9.53-1.9,10.74-5.78l-12.71.39Z" transform="translate(0.5 0.5)"/><path class="cls-6" d="M356.61,256.26l.43-4.73,4.07.46V234.32h-3.91v-4h28.29v11.09H381.8l.5-5.85-16.82-.81v6.43l7.67.31.35-4.57,2.67.12v12.25h-2.75l-.35-4.26-8.33-.35v7.21H381.1l.43-5.54h3.84v11.24Z" transform="translate(0.5 0.5)"/><path class="cls-6" d="M177.94,269.12h6.16L183,284.59l3.45-.35.19,3.15-9.34.41V284h3.34l.46-12-3.36.38Zm11.75.6,6.13.38-2,15H197l-.24,3.58-9-.73.33-3.09,3.26.35L192.38,273l-3.07-.3Z" transform="translate(0.5 0.5)"/><path class="cls-6" d="M203.16,285.3c0,1.41-.79,2.44-2,2.44a2,2,0,0,1-2-2c0-1.57.9-2.61,2-2.61A2,2,0,0,1,203.16,285.3Z" transform="translate(0.5 0.5)"/><path class="cls-6" d="M213.53,285.16l1.9.05.22-2-11.21-.41.08-2.15,12.43-11.75,1.85.3-.68,11h3.31v3.2l-3.45-.22.11,2.17,1.82.13v3.07l-6.51-.35Zm-5.07-5.4,7.22.41.27-6.73Z" transform="translate(0.5 0.5)"/><path class="cls-6" d="M245.21,284.84h3.42v3.56l-9.34-.57.14-3.12,3.28.3.43-12.48H239.8l.27-3.23,6.16.68Z" transform="translate(0.5 0.5)"/><path class="cls-6" d="M267.43,274.39c0,3.61-2.5,5.86-7.92,6.43-2.93.33-4.78.73-5.48,2.52a5.24,5.24,0,0,1,2.66-.6c2.63,0,4.59,1.52,7.11,1.52,1.57,0,3.85-.22,4.53-2.39l1.38.73c-.76,2.52-2.09,4.78-4.83,4.78-4.31,0-5.1-1.87-8.39-1.87a5.15,5.15,0,0,0-4,1.93l-1.93-.6c.54-4.12,1.82-8.33,8.82-9.44,3.61-.57,5-1.93,5-3.64s-2.2-3-4.07-3c-3.17,0-5.16.35-6.24,1.36a2.84,2.84,0,0,1,1.17,2.06c0,1.36-.62,2.36-2,2.36-1.17,0-2.14-.62-2.14-2.52,0-2.6,2.44-5.51,8.22-5.51S267.43,269.85,267.43,274.39Z" transform="translate(0.5 0.5)"/><path class="cls-6" d="M275.56,285.3a2.17,2.17,0,0,1-2,2.44,2,2,0,0,1-2-2c0-1.57.9-2.61,2-2.61A2,2,0,0,1,275.56,285.3Zm.33-7.36a2.24,2.24,0,0,1-2.12,2.44,2.1,2.1,0,0,1-1.9-2.28,2.24,2.24,0,0,1,2.14-2.36A2.07,2.07,0,0,1,275.88,277.94Z" transform="translate(0.5 0.5)"/><path class="cls-6" d="M283.94,284.84h3.42v3.56l-9.34-.57.14-3.12,3.28.3.43-12.48h-3.34l.27-3.23L285,270Z" transform="translate(0.5 0.5)"/><path class="cls-6" d="M306.7,278.54c0,6.46-2.33,10-8.25,10-6.41,0-9.15-2.63-9.15-10,0-7,2.44-9.8,9.23-9.8C304.42,268.66,306.7,271.29,306.7,278.54Zm-15-.65c0,4.91,2.09,7.57,6.38,7.57,3.58,0,5.83-2.55,5.83-6.95,0-4-2.42-6.51-6.16-6.51A5.71,5.71,0,0,0,291.69,277.89Z" transform="translate(0.5 0.5)"/><path class="cls-6" d="M318.87,279.57l.19,2.39H308.91l.16-1.9Z" transform="translate(0.5 0.5)"/><path class="cls-6" d="M327.5,284.84h3.42v3.56l-9.34-.57.14-3.12,3.28.3.43-12.48H322.1l.27-3.23,6.16.68Z" transform="translate(0.5 0.5)"/><path class="cls-6" d="M334.44,269.34H349l.27,2.55-6.54,3.8c3.53.22,6.57,1.9,6.57,5.73,0,4.91-2.33,7-7.73,7s-8.85-2.55-8.85-5.67c0-1.38.41-3,2.14-3a2.09,2.09,0,0,1,1.9,2.12,2.48,2.48,0,0,1-1.36,2.5,10.64,10.64,0,0,0,5.92,1.49c3,0,5.1-1.9,5.1-4.23s-1.63-3.83-6.62-3.83l-.41-1.74,5.13-4.37-7.33.44v3.17l-2.93.24Z" transform="translate(0.5 0.5)"/><path class="cls-6" d="M355.52,285.3a2.17,2.17,0,0,1-2,2.44,2,2,0,0,1-2-2c0-1.57.9-2.61,2-2.61A2,2,0,0,1,355.52,285.3Zm.33-7.36a2.24,2.24,0,0,1-2.12,2.44,2.1,2.1,0,0,1-1.9-2.28,2.24,2.24,0,0,1,2.14-2.36A2.07,2.07,0,0,1,355.84,277.94Z" transform="translate(0.5 0.5)"/><path class="cls-6" d="M375.4,278c0,6.46-2.33,10-8.25,10-6.41,0-9.15-2.63-9.15-10,0-7.06,2.44-9.82,9.23-9.82C373.12,268.12,375.4,270.75,375.4,278Zm-14.74-1c0,4.91,2.09,7.57,6.38,7.57,3.58,0,5.81-2.55,5.81-6.95,0-4-2.39-6.51-6.13-6.51A5.71,5.71,0,0,0,360.67,277Zm17,2.12c0-6.46,2.31-10,8.25-10,6.41,0,9.15,2.63,9.15,10,0,7-2.47,9.8-9.23,9.8C379.94,289,377.68,286.35,377.68,279.11Zm14.74,1c0-4.91-2.09-7.6-6.38-7.6-3.58,0-5.83,2.58-5.83,7,0,4,2.42,6.51,6.13,6.51A5.72,5.72,0,0,0,392.42,280.14Z" transform="translate(0.5 0.5)"/></svg>