<svg id="レイヤー_1" data-name="レイヤー 1" xmlns="http://www.w3.org/2000/svg" viewBox="0 0 850.39 850.39"><defs><style>.cls-1{fill:#37465b;}.cls-2,.cls-3{fill:#fff;}.cls-3{font-size:30px;font-family:CaslonCP, CaslonCP;letter-spacing:-0.05em;}.cls-4{letter-spacing:0.1em;}.cls-5{letter-spacing:0.01em;}</style></defs><title>ややミスター</title><rect class="cls-1" width="850.39" height="850.39"/><path class="cls-2" d="M795,135V704.1a1.5,1.5,0,0,1-3,0V135a1.5,1.5,0,0,1,3,0Z"/><path class="cls-2" d="M817.45,428.68c-23.49-.86-45.91-14.46-57-35.33-11.43-21.56-9.62-49.13,4.27-69.13,12.51-18,32.2-29.24,45.82-46.27,13.3-16.62,17.73-38.74,10.19-58.92-8.2-21.93-29.76-36.66-53-37.52-1.16,0-1.16,1.76,0,1.8,24.52.91,46.68,17.78,53,41.69a57.94,57.94,0,0,1-2.2,36.25c-4.25,10.47-11.79,19.11-19.88,26.82-15.38,14.64-33.73,27.22-42.18,47.49-8.12,19.49-7,42.77,3.74,61.05,11.8,20.13,34,33,57.21,33.88,1.16,0,1.16-1.76,0-1.8Z"/><path class="cls-2" d="M817.45,364.79c-23.49-.86-45.91-14.46-57-35.33-11.43-21.56-9.62-49.13,4.27-69.13,12.51-18,32.2-29.24,45.82-46.27,13.3-16.62,17.73-38.74,10.19-58.92-8.2-21.93-29.76-36.66-53-37.53-1.16,0-1.16,1.76,0,1.8,24.52.91,46.68,17.78,53,41.69a58,58,0,0,1-2.2,36.25c-4.25,10.47-11.79,19.11-19.88,26.82-15.38,14.64-33.73,27.22-42.18,47.49-8.12,19.49-7,42.77,3.74,61.05,11.8,20.13,34,33,57.21,33.88,1.16,0,1.16-1.76,0-1.8Z"/><path class="cls-2" d="M795,762.65c-1-1.8,1.34-6.71,1.9-8.43,1.47-4.5,3-9,4.31-13.51,2-7.07,5-17.33.64-24.13-3.29-5.13-12.17-6.7-16.16-1.58-4.65,6-2.59,16.15-1.22,22.88,1.7,8.36,4,18.52,9,25.68.65.95,2.21,0,1.55-.91-3.72-5.38-5.58-12.62-7.26-18.85-2-7.54-4.61-17.22-2-24.93,2.84-8.43,14.19-5.6,16,2.06,1.85,8-1.43,17.13-3.83,24.63-1.29,4-2.78,8-3.92,12.13-.46,1.66-1.44,4.2-.49,5.86A.9.9,0,0,0,795,762.65Z"/><path class="cls-2" d="M772.28,706h42.35a.9.9,0,0,0,0-1.8H772.28a.9.9,0,0,0,0,1.8Z"/><path class="cls-2" d="M72.91,177.51V746.58a1.5,1.5,0,0,1-3,0V177.51a1.5,1.5,0,1,1,3,0Z"/><path class="cls-2" d="M95.41,451.13a70.18,70.18,0,0,0-52.72,27.21C29.58,495.45,25.94,518.59,32,539.15c6.27,21.26,23,34.87,38.83,49.07,8,7.14,15.86,14.68,21.48,23.89a57.2,57.2,0,0,1,8.09,34.83c-2.48,28.34-26.4,50.31-54.66,51.36-1.15,0-1.16,1.84,0,1.8,20.56-.77,40.23-12.45,49.94-30.75A59.58,59.58,0,0,0,92.48,609C80.72,591.39,62,580.2,48.19,564.38c-16-18.38-21.61-44-13.61-67.21,8.81-25.6,34-43.25,60.83-44.24,1.15,0,1.16-1.84,0-1.8Z"/><path class="cls-2" d="M95.41,515a70.19,70.19,0,0,0-52.72,27.21C29.58,559.34,25.94,582.48,32,603c6.27,21.26,23,34.87,38.83,49.07,8,7.14,15.86,14.68,21.48,23.89a57.2,57.2,0,0,1,8.09,34.83C97.93,739.18,74,761.14,45.74,762.2c-1.15,0-1.16,1.84,0,1.8,20.56-.77,40.23-12.45,49.94-30.75a59.58,59.58,0,0,0-3.2-60.32C80.72,655.28,62,644.09,48.19,628.27c-16-18.38-21.61-44-13.61-67.21,8.81-25.6,34-43.25,60.83-44.24,1.15,0,1.16-1.84,0-1.8Z"/><path class="cls-2" d="M71.39,118.05c-.8,1.4-.15,3.38.2,4.82.81,3.27,2,6.46,3.06,9.66,2.62,7.91,5.8,16.57,5.37,25-.2,3.87-1.43,7.7-5.19,9.42-3.39,1.55-7.85,1.41-10.09-1.9-4.19-6.21-1.57-16.82,0-23.45,1.72-7.42,3.83-16.3,8.23-22.67.66-1-.9-1.86-1.55-.91-4.26,6.17-6.35,14.67-8.1,21.82-1.83,7.46-4.26,17.58-.75,24.91,2.87,6,11.23,6.4,15.82,2,5.64-5.41,3.4-15.51,1.79-22.12C78.84,139.27,77,134,75.29,128.76c-.64-1.93-3.51-7.76-2.35-9.8A.9.9,0,0,0,71.39,118.05Z"/><path class="cls-2" d="M50.23,177.41H92.59a.9.9,0,0,0,0-1.8H50.23a.9.9,0,0,0,0,1.8Z"/><path class="cls-2" d="M360.74,443.39l17-148.2-47.07,85.75H315.77L289.2,292.63,271.73,443.39H235.61L258.68,262.1h34L324.62,366,381.48,262.1h34L396.86,443.39Z"/><path class="cls-2" d="M619.21,422.43,484.41,452.7,454.9,321.3,589.7,291Zm-104.2,21,14.92-112.55H571.4l3.73-11.65h-76.9l-16.31,124.2Z"/><path class="cls-2" d="M359.2,675.82l14-108.82H344.52l-25.4,111.38H288.6l6.53-25.17L221.49,667.9l1.86-10.72,27.73-5.36,9.56-82.49H236.4l3.73-10.25h72.24l-3.5,10.25H289.3L280.91,646l17-3.49,22.6-85.75h82l-14,108.82h20.51l-4.2,10.25Zm21.2-125.36-11.19-35.19h-.93l-18.87,34H297l-10.25-34h-.93l-22.14,35h-35l50.57-73.17H309.8l-17.94,28.43H335.2l-2.8,9.79H312.6l9.09,26.56,38.22-64.78H389.5l-15.84,28.43h49.4l-2.8,9.79h-24L410,550.46Zm-38,102.76-.93-71.3H359l2.1,71.3Z"/><path class="cls-2" d="M432,660.67l15.38-71.77h14l-11.88,71.77Zm110,13.05-1.63-10H582.3l15.61-142.61H563l-8.15,13.75h34L576.24,649.72H523.57L535.46,545.8h-7.92l-1.4,5.59H509.59L507,573.06h17.71l-11.18,99.73H460.66L459,663.94h34.72l9.55-82H448.78l11.18-99h77.6l-2.8,9.78H515.88l-2.33,21.44H531.5L529.17,523H512.62l-2.09,19.57H521l41.71-65.48h25.87l-19.81,34h56.39L607,673.72ZM453.9,658.34l11.18-69.44h9.79l-10,69.44ZM469,656l9.56-67.11H487L478.14,656Zm18.64-104.62H476l-2.57,21.67h11.89ZM491,523H479.53l-2.33,19.57h11.65Zm3.5-30.29H483l-2.56,21.44h11.42Zm-12.35,161,8.39-64.78h7.69l-7.45,64.78ZM567.38,543h-9.32l-11.18,98.8h9.32Z"/><text class="cls-3" transform="translate(230.98 730.08)">YAY<tspan class="cls-4" x="59.85" y="0">A- Mister </tspan><tspan class="cls-5" x="219.65" y="0">T</tspan><tspan class="cls-4" x="240.23" y="0">sukukoma</tspan></text><path class="cls-2" d="M206.43,217.1l1.18-4.33h12.1l5.21-27.35L194.63,187l7.58,54.61H188l-7.48-53.92-18.1,1,1.18-4.33,16.33-.89-3.15-23h14.07L194,182.76l45.65-2.36-7.08,36.7Zm8-40.44-5.71-13h-8.76l1.38-4.13h18.6l8.36,16.23Z"/><path class="cls-2" d="M304.82,217.1l1.18-4.33h12.1l5.21-27.35L293,187l7.58,54.61H286.43l-7.48-53.92-18.1,1,1.18-4.33,16.33-.89-3.15-23h14.07l3.15,22.34,45.65-2.36L331,217.1Zm8-40.44-5.71-13h-8.76l1.38-4.13h18.6l8.36,16.23Z"/></svg>